<svg width="502" height="300" viewBox="0 0 502 300" fill="none" xmlns="http://www.w3.org/2000/svg">
<rect x="2" y="2" width="497.567" height="295.655" fill="#FFF1E9" stroke="black" stroke-width="4"/>
<path d="M97.5745 50.042C97.2536 50.042 97.0932 49.8816 97.0932 49.5607V24.863C97.0932 24.5422 97.2536 24.3817 97.5745 24.3817H108.22C108.528 24.3817 108.784 24.4844 108.99 24.6897L112.84 28.5397C113.058 28.7579 113.167 29.0146 113.167 29.3097V35.951C113.167 36.259 113.058 36.5157 112.84 36.721L108.99 40.571C108.784 40.7892 108.528 40.8982 108.22 40.8982H103.503V49.5607C103.503 49.8816 103.343 50.042 103.022 50.042H97.5745ZM104.947 35.6622C106.012 35.6622 106.737 35.4505 107.122 35.027C107.52 34.6035 107.719 33.8014 107.719 32.6207C107.719 31.4401 107.52 30.638 107.122 30.2145C106.737 29.791 106.012 29.5792 104.947 29.5792C103.895 29.5792 103.17 29.791 102.772 30.2145C102.387 30.638 102.194 31.4401 102.194 32.6207C102.194 33.8014 102.387 34.6035 102.772 35.027C103.17 35.4505 103.895 35.6622 104.947 35.6622ZM121.215 50.042C120.907 50.042 120.651 49.9329 120.445 49.7147L116.595 45.8647C116.377 45.6594 116.268 45.4027 116.268 45.0947V24.863C116.268 24.5422 116.428 24.3817 116.749 24.3817H122.197C122.518 24.3817 122.678 24.5422 122.678 24.863V44.5172C122.678 44.7739 122.807 44.9022 123.063 44.9022H126.22V24.863C126.22 24.5422 126.381 24.3817 126.702 24.3817H132.149C132.47 24.3817 132.631 24.5422 132.631 24.863V49.5607C132.631 49.8816 132.47 50.042 132.149 50.042H121.215ZM139.211 50.042C138.942 50.042 138.749 49.9329 138.634 49.7147L136.227 45.653C136.086 45.422 136.06 45.1974 136.15 44.9792L142.676 29.637L142.503 30.2722V29.1557L142.695 29.5022H136.901C136.58 29.5022 136.42 29.3418 136.42 29.021V24.863C136.42 24.5422 136.58 24.3817 136.901 24.3817H146.237C146.494 24.3817 146.686 24.478 146.815 24.6705L149.568 28.5397C149.722 28.7322 149.741 28.9568 149.625 29.2135L143.023 44.6905L143.177 43.5932V45.422L142.869 44.9022H148.932C149.253 44.9022 149.414 45.0627 149.414 45.3835V49.5607C149.414 49.8816 149.253 50.042 148.932 50.042H139.211ZM155.115 50.042C154.845 50.042 154.653 49.9329 154.537 49.7147L152.131 45.653C151.99 45.422 151.964 45.1974 152.054 44.9792L158.58 29.637L158.407 30.2722V29.1557L158.599 29.5022H152.805C152.484 29.5022 152.324 29.3418 152.324 29.021V24.863C152.324 24.5422 152.484 24.3817 152.805 24.3817H162.141C162.398 24.3817 162.59 24.478 162.719 24.6705L165.471 28.5397C165.625 28.7322 165.645 28.9568 165.529 29.2135L158.926 44.6905L159.08 43.5932V45.422L158.772 44.9022H164.836C165.157 44.9022 165.317 45.0627 165.317 45.3835V49.5607C165.317 49.8816 165.157 50.042 164.836 50.042H155.115ZM169.536 50.042C169.216 50.042 169.055 49.8816 169.055 49.5607V24.863C169.055 24.5422 169.216 24.3817 169.536 24.3817H174.984C175.305 24.3817 175.465 24.5422 175.465 24.863V44.9022H180.316C180.637 44.9022 180.798 45.0627 180.798 45.3835V49.5607C180.798 49.8816 180.637 50.042 180.316 50.042H169.536ZM184.35 50.042C184.029 50.042 183.869 49.8816 183.869 49.5607V24.863C183.869 24.5422 184.029 24.3817 184.35 24.3817H197.767C198.088 24.3817 198.248 24.5422 198.248 24.863V29.021C198.248 29.3418 198.088 29.5022 197.767 29.5022H190.279V34.9692H197.113C197.433 34.9692 197.594 35.1297 197.594 35.4505V38.9732C197.594 39.2941 197.433 39.4545 197.113 39.4545H190.279V44.9022H197.767C198.088 44.9022 198.248 45.0627 198.248 45.3835V49.5607C198.248 49.8816 198.088 50.042 197.767 50.042H184.35ZM209.33 50.042C209.009 50.042 208.849 49.8816 208.849 49.5607V24.863C208.849 24.5422 209.009 24.3817 209.33 24.3817H221.073C221.381 24.3817 221.637 24.4844 221.843 24.6897L225.693 28.5397C225.911 28.7579 226.02 29.0146 226.02 29.3097V45.0947C226.02 45.4027 225.911 45.6594 225.693 45.8647L221.843 49.7147C221.637 49.9329 221.381 50.042 221.073 50.042H209.33ZM215.279 44.9022H218.801C219.34 44.9022 219.61 44.5429 219.61 43.8242V30.5995C219.61 29.868 219.34 29.5022 218.801 29.5022H215.279V44.9022ZM235.437 50.042C235.129 50.042 234.872 49.9329 234.667 49.7147L230.817 45.8647C230.599 45.6594 230.49 45.4027 230.49 45.0947V24.863C230.49 24.5422 230.65 24.3817 230.971 24.3817H236.419C236.74 24.3817 236.9 24.5422 236.9 24.863V44.5172C236.9 44.7739 237.028 44.9022 237.285 44.9022H240.442V24.863C240.442 24.5422 240.602 24.3817 240.923 24.3817H246.371C246.692 24.3817 246.852 24.5422 246.852 24.863V49.5607C246.852 49.8816 246.692 50.042 246.371 50.042H235.437ZM256.539 53.2567C256.218 53.2567 256.058 53.0963 256.058 52.7755V49.7147C256.058 49.4709 256.122 49.2784 256.25 49.1372L259.099 46.2882C259.253 46.1471 259.33 45.9417 259.33 45.6722V24.863C259.33 24.5422 259.491 24.3817 259.811 24.3817H265.259C265.58 24.3817 265.74 24.5422 265.74 24.863V48.3672C265.74 48.4827 265.728 48.5918 265.702 48.6945C265.689 48.7843 265.631 48.8806 265.529 48.9832L261.544 52.968C261.351 53.1605 261.159 53.2567 260.966 53.2567H256.539ZM270.69 50.042C270.369 50.042 270.208 49.8816 270.208 49.5607V31.716C270.208 31.5492 270.273 31.3567 270.401 31.1385L274.963 24.6705C275.104 24.478 275.31 24.3817 275.579 24.3817H281.951C282.233 24.3817 282.439 24.478 282.567 24.6705L287.148 31.1385C287.277 31.3182 287.341 31.5107 287.341 31.716V49.5607C287.341 49.8816 287.181 50.042 286.86 50.042H281.412C281.091 50.042 280.931 49.8816 280.931 49.5607V41.3795H276.638V49.5607C276.638 49.8816 276.478 50.042 276.157 50.042H270.69ZM278.775 37.2407C279.955 37.2407 280.751 36.9841 281.162 36.4707C281.585 35.9446 281.797 34.95 281.797 33.487C281.797 32.024 281.585 31.0358 281.162 30.5225C280.751 29.9963 279.955 29.7332 278.775 29.7332C277.607 29.7332 276.811 29.9963 276.388 30.5225C275.977 31.0358 275.772 32.024 275.772 33.487C275.772 34.95 275.977 35.9446 276.388 36.4707C276.811 36.9841 277.607 37.2407 278.775 37.2407ZM292.33 50.042C292.009 50.042 291.849 49.8816 291.849 49.5607V24.863C291.849 24.5422 292.009 24.3817 292.33 24.3817H302.764C303.072 24.3817 303.328 24.4652 303.534 24.632L307.961 29.021C308.102 29.1493 308.186 29.2584 308.212 29.3482C308.25 29.4381 308.269 29.5857 308.269 29.791V35.0655C308.269 35.2323 308.205 35.3799 308.077 35.5082L305.959 37.568L304.169 39.108L306.287 41.9185L308.462 46.577C308.513 46.6925 308.552 46.808 308.577 46.9235C308.616 47.0262 308.635 47.1545 308.635 47.3085V49.5607C308.635 49.8816 308.475 50.042 308.154 50.042H303.072C302.789 50.042 302.597 49.9137 302.494 49.657L299.395 40.648H297.951V49.5607C297.951 49.8816 297.791 50.042 297.47 50.042H292.33ZM300.069 35.9317C301.134 35.9317 301.859 35.7136 302.244 35.2772C302.629 34.8281 302.822 33.9939 302.822 32.7747C302.822 31.5427 302.629 30.7086 302.244 30.2722C301.859 29.8231 301.134 29.5985 300.069 29.5985C299.016 29.5985 298.291 29.8231 297.894 30.2722C297.496 30.7086 297.297 31.5427 297.297 32.7747C297.297 33.9939 297.496 34.8281 297.894 35.2772C298.291 35.7136 299.016 35.9317 300.069 35.9317ZM312.047 50.042C311.726 50.042 311.566 49.8816 311.566 49.5607V24.863C311.566 24.5422 311.726 24.3817 312.047 24.3817H323.79C324.098 24.3817 324.354 24.4844 324.56 24.6897L328.41 28.5397C328.628 28.7579 328.737 29.0146 328.737 29.3097V45.0947C328.737 45.4027 328.628 45.6594 328.41 45.8647L324.56 49.7147C324.354 49.9329 324.098 50.042 323.79 50.042H312.047ZM317.995 44.9022H321.518C322.057 44.9022 322.327 44.5429 322.327 43.8242V30.5995C322.327 29.868 322.057 29.5022 321.518 29.5022H317.995V44.9022ZM333.688 50.042C333.367 50.042 333.206 49.8816 333.206 49.5607V24.863C333.206 24.5422 333.367 24.3817 333.688 24.3817H339.135C339.456 24.3817 339.617 24.5422 339.617 24.863V49.5607C339.617 49.8816 339.456 50.042 339.135 50.042H333.688ZM344.704 50.042C344.383 50.042 344.223 49.8816 344.223 49.5607V24.863C344.223 24.5422 344.383 24.3817 344.704 24.3817H355.638C355.946 24.3817 356.203 24.4844 356.408 24.6897L360.258 28.5397C360.476 28.7579 360.585 29.0146 360.585 29.3097V49.5607C360.585 49.8816 360.425 50.042 360.104 50.042H354.656C354.335 50.042 354.175 49.8816 354.175 49.5607V29.5022H350.633V49.5607C350.633 49.8816 350.472 50.042 350.152 50.042H344.704ZM365.683 50.042C365.363 50.042 365.202 49.8816 365.202 49.5607V24.863C365.202 24.5422 365.363 24.3817 365.683 24.3817H371.131C371.452 24.3817 371.612 24.5422 371.612 24.863V49.5607C371.612 49.8816 371.452 50.042 371.131 50.042H365.683ZM376.699 50.042C376.379 50.042 376.218 49.8816 376.218 49.5607V24.863C376.218 24.5422 376.379 24.3817 376.699 24.3817H390.117C390.438 24.3817 390.598 24.5422 390.598 24.863V29.021C390.598 29.3418 390.438 29.5022 390.117 29.5022H382.628V34.9692H389.462C389.783 34.9692 389.943 35.1297 389.943 35.4505V38.9732C389.943 39.2941 389.783 39.4545 389.462 39.4545H382.628V44.9022H390.117C390.438 44.9022 390.598 45.0627 390.598 45.3835V49.5607C390.598 49.8816 390.438 50.042 390.117 50.042H376.699ZM395.686 50.042C395.365 50.042 395.205 49.8816 395.205 49.5607V24.863C395.205 24.5422 395.365 24.3817 395.686 24.3817H406.12C406.428 24.3817 406.684 24.4652 406.89 24.632L411.317 29.021C411.458 29.1493 411.542 29.2584 411.568 29.3482C411.606 29.4381 411.625 29.5857 411.625 29.791V35.0655C411.625 35.2323 411.561 35.3799 411.433 35.5082L409.315 37.568L407.525 39.108L409.643 41.9185L411.818 46.577C411.869 46.6925 411.908 46.808 411.933 46.9235C411.972 47.0262 411.991 47.1545 411.991 47.3085V49.5607C411.991 49.8816 411.831 50.042 411.51 50.042H406.428C406.145 50.042 405.953 49.9137 405.85 49.657L402.751 40.648H401.307V49.5607C401.307 49.8816 401.147 50.042 400.826 50.042H395.686ZM403.425 35.9317C404.49 35.9317 405.215 35.7136 405.6 35.2772C405.985 34.8281 406.178 33.9939 406.178 32.7747C406.178 31.5427 405.985 30.7086 405.6 30.2722C405.215 29.8231 404.49 29.5985 403.425 29.5985C402.372 29.5985 401.647 29.8231 401.25 30.2722C400.852 30.7086 400.653 31.5427 400.653 32.7747C400.653 33.9939 400.852 34.8281 401.25 35.2772C401.647 35.7136 402.372 35.9317 403.425 35.9317Z" fill="#2B232B"/>
<path d="M96.7851 110.252V83.3022H100.173V107.711H108.066V110.252H96.7851ZM114.877 110.252C113.465 110.252 112.336 109.829 111.489 108.982C110.667 108.135 110.257 106.993 110.257 105.555V95.3142C110.257 93.6459 110.719 92.3369 111.643 91.3872C112.567 90.4375 113.94 89.9627 115.762 89.9627C117.584 89.9627 118.945 90.4375 119.843 91.3872C120.767 92.3369 121.229 93.6459 121.229 95.3142V97.0852C121.229 98.1632 120.921 98.9845 120.305 99.5492C119.689 100.088 118.881 100.499 117.88 100.781L113.337 102.052V105.825C113.337 106.441 113.516 106.954 113.876 107.365C114.261 107.75 114.748 107.942 115.339 107.942H119.497V110.252H114.877ZM115.685 98.9717C116.532 98.7407 117.097 98.5739 117.379 98.4712C117.687 98.3429 117.892 98.1632 117.995 97.9322C118.098 97.7012 118.149 97.3162 118.149 96.7772V94.6597C118.149 93.8384 117.931 93.2352 117.495 92.8502C117.084 92.4652 116.506 92.2727 115.762 92.2727C115.043 92.2727 114.453 92.478 113.991 92.8887C113.555 93.2994 113.337 93.8897 113.337 94.6597V99.6262L115.685 98.9717ZM130.085 83.3022H133.165V89.3082L138.324 91.1177C139.222 91.4257 139.967 91.9647 140.557 92.7347C141.173 93.479 141.481 94.403 141.481 95.5067V105.401C141.481 106.787 140.993 107.942 140.018 108.866C139.043 109.79 137.849 110.252 136.437 110.252H130.085V83.3022ZM135.783 107.942C136.502 107.942 137.118 107.698 137.631 107.211C138.144 106.723 138.401 106.12 138.401 105.401V96.1227C138.401 95.1474 138.26 94.4415 137.977 94.0052C137.721 93.5432 137.259 93.2095 136.591 93.0042L133.165 91.8492V107.942H135.783ZM147.472 110.522C146.548 110.522 145.855 110.201 145.393 109.559C144.957 108.918 144.739 108.083 144.739 107.057V90.2322H147.819V106.056C147.819 106.774 147.87 107.288 147.973 107.596C148.076 107.904 148.319 108.058 148.704 108.058C148.884 108.058 150.334 107.673 153.055 106.903V90.2322H156.135V110.252H153.94L153.363 108.943C152.952 109.097 152.644 109.2 152.439 109.251C151.233 109.688 150.257 110.008 149.513 110.214C148.769 110.419 148.088 110.522 147.472 110.522ZM166.347 110.252C164.935 110.252 163.819 109.829 162.998 108.982C162.176 108.135 161.766 106.993 161.766 105.555V92.5422H159.456V90.2322H161.766V84.4187L164.846 83.2637V90.2322H167.926V92.5422H164.846V105.825C164.846 106.441 165.012 106.954 165.346 107.365C165.705 107.75 166.18 107.942 166.771 107.942H167.926V110.252H166.347ZM181.863 110.252C180.246 110.252 178.937 109.777 177.936 108.828C176.935 107.878 176.435 106.608 176.435 105.016V95.4297C176.435 94.326 176.73 93.3892 177.32 92.6192C177.936 91.8492 178.693 91.323 179.592 91.0407L184.751 89.2312V83.3022H187.831V110.252H181.863ZM184.751 107.942V91.7722L181.324 92.9272C180.657 93.1325 180.182 93.4662 179.9 93.9282C179.643 94.3645 179.515 95.0704 179.515 96.0457V105.016C179.515 105.94 179.784 106.659 180.323 107.172C180.862 107.686 181.594 107.942 182.518 107.942H184.751ZM196.463 110.252C195.052 110.252 193.922 109.829 193.075 108.982C192.254 108.135 191.843 106.993 191.843 105.555V95.3142C191.843 93.6459 192.305 92.3369 193.229 91.3872C194.153 90.4375 195.527 89.9627 197.349 89.9627C199.171 89.9627 200.532 90.4375 201.43 91.3872C202.354 92.3369 202.816 93.6459 202.816 95.3142V97.0852C202.816 98.1632 202.508 98.9845 201.892 99.5492C201.276 100.088 200.467 100.499 199.466 100.781L194.923 102.052V105.825C194.923 106.441 195.103 106.954 195.462 107.365C195.847 107.75 196.335 107.942 196.925 107.942H201.083V110.252H196.463ZM197.272 98.9717C198.119 98.7407 198.684 98.5739 198.966 98.4712C199.274 98.3429 199.479 98.1632 199.582 97.9322C199.685 97.7012 199.736 97.3162 199.736 96.7772V94.6597C199.736 93.8384 199.518 93.2352 199.081 92.8502C198.671 92.4652 198.093 92.2727 197.349 92.2727C196.63 92.2727 196.04 92.478 195.578 92.8887C195.142 93.2994 194.923 93.8897 194.923 94.6597V99.6262L197.272 98.9717ZM215.907 110.252C214.495 110.252 213.366 109.829 212.519 108.982C211.697 108.135 211.287 106.993 211.287 105.555V95.3142C211.287 93.6972 211.71 92.4524 212.557 91.5797C213.404 90.6814 214.636 90.2322 216.253 90.2322H220.527V92.5422H216.33C215.74 92.5422 215.265 92.7475 214.906 93.1582C214.546 93.5432 214.367 94.0437 214.367 94.6597V105.825C214.367 106.441 214.546 106.954 214.906 107.365C215.291 107.75 215.778 107.942 216.369 107.942H220.527V110.252H215.907ZM227.218 110.252C225.807 110.252 224.677 109.829 223.83 108.982C223.009 108.135 222.598 106.993 222.598 105.555V95.3142C222.598 93.6459 223.06 92.3369 223.984 91.3872C224.908 90.4375 226.281 89.9627 228.104 89.9627C229.926 89.9627 231.286 90.4375 232.185 91.3872C233.109 92.3369 233.571 93.6459 233.571 95.3142V97.0852C233.571 98.1632 233.263 98.9845 232.647 99.5492C232.031 100.088 231.222 100.499 230.221 100.781L225.678 102.052V105.825C225.678 106.441 225.858 106.954 226.217 107.365C226.602 107.75 227.09 107.942 227.68 107.942H231.838V110.252H227.218ZM228.027 98.9717C228.874 98.7407 229.438 98.5739 229.721 98.4712C230.029 98.3429 230.234 98.1632 230.337 97.9322C230.439 97.7012 230.491 97.3162 230.491 96.7772V94.6597C230.491 93.8384 230.273 93.2352 229.836 92.8502C229.426 92.4652 228.848 92.2727 228.104 92.2727C227.385 92.2727 226.795 92.478 226.333 92.8887C225.896 93.2994 225.678 93.8897 225.678 94.6597V99.6262L228.027 98.9717ZM242.219 110.252C240.807 110.252 239.691 109.829 238.87 108.982C238.048 108.135 237.638 106.993 237.638 105.555V92.5422H235.328V90.2322H237.638V84.4187L240.718 83.2637V90.2322H243.798V92.5422H240.718V105.825C240.718 106.441 240.884 106.954 241.218 107.365C241.577 107.75 242.052 107.942 242.643 107.942H243.798V110.252H242.219ZM252.446 110.252C251.034 110.252 249.918 109.829 249.096 108.982C248.275 108.135 247.864 106.993 247.864 105.555V92.5422H245.554V90.2322H247.864V84.4187L250.944 83.2637V90.2322H254.024V92.5422H250.944V105.825C250.944 106.441 251.111 106.954 251.445 107.365C251.804 107.75 252.279 107.942 252.869 107.942H254.024V110.252H252.446ZM261.094 110.252C259.682 110.252 258.553 109.829 257.706 108.982C256.884 108.135 256.474 106.993 256.474 105.555V95.3142C256.474 93.6459 256.936 92.3369 257.86 91.3872C258.784 90.4375 260.157 89.9627 261.979 89.9627C263.802 89.9627 265.162 90.4375 266.06 91.3872C266.984 92.3369 267.446 93.6459 267.446 95.3142V97.0852C267.446 98.1632 267.138 98.9845 266.522 99.5492C265.906 100.088 265.098 100.499 264.097 100.781L259.554 102.052V105.825C259.554 106.441 259.733 106.954 260.093 107.365C260.478 107.75 260.965 107.942 261.556 107.942H265.714V110.252H261.094ZM261.902 98.9717C262.749 98.7407 263.314 98.5739 263.596 98.4712C263.904 98.3429 264.11 98.1632 264.212 97.9322C264.315 97.7012 264.366 97.3162 264.366 96.7772V94.6597C264.366 93.8384 264.148 93.2352 263.712 92.8502C263.301 92.4652 262.724 92.2727 261.979 92.2727C261.261 92.2727 260.67 92.478 260.208 92.8887C259.772 93.2994 259.554 93.8897 259.554 94.6597V99.6262L261.902 98.9717ZM276.302 90.2322H278.689L279.036 91.3487L280.614 90.8867C281.692 90.553 282.539 90.322 283.155 90.1937C283.797 90.0397 284.4 89.9627 284.965 89.9627C286.068 89.9627 286.838 90.4504 287.275 91.4257C287.993 91.169 289.007 90.861 290.316 90.5017C291.625 90.1424 292.588 89.9627 293.204 89.9627C294.128 89.9627 294.808 90.2835 295.244 90.9252C295.706 91.5669 295.937 92.401 295.937 93.4277V110.252H292.857V94.4287C292.857 93.6844 292.806 93.171 292.703 92.8887C292.601 92.5807 292.344 92.4267 291.933 92.4267C291.728 92.4267 290.316 92.8374 287.698 93.6587V110.252H284.618V94.4287C284.618 93.6844 284.567 93.171 284.464 92.8887C284.362 92.5807 284.105 92.4267 283.694 92.4267C283.489 92.4267 282.052 92.8374 279.382 93.6587V110.252H276.302V90.2322ZM300.177 86.9597V83.8797H303.257V86.9597H300.177ZM300.177 110.252V90.2322H303.257V110.252H300.177ZM306.729 107.942H310.002C311.105 107.942 311.901 107.647 312.389 107.057C312.902 106.441 313.159 105.645 313.159 104.67C313.159 103.9 312.928 103.245 312.466 102.706C312.004 102.167 311.311 101.538 310.387 100.82C309.591 100.178 308.949 99.6262 308.462 99.1642C308 98.6765 307.589 98.0862 307.23 97.3932C306.896 96.6745 306.729 95.8532 306.729 94.9292C306.729 93.5689 307.178 92.4524 308.077 91.5797C309.001 90.6814 310.233 90.2322 311.773 90.2322H315.122V92.5422H312.35C310.528 92.5422 309.617 93.402 309.617 95.1217C309.617 95.789 309.822 96.3665 310.233 96.8542C310.643 97.3419 311.285 97.9194 312.158 98.5867C312.953 99.2027 313.608 99.7674 314.121 100.281C314.635 100.768 315.071 101.397 315.43 102.167C315.79 102.912 315.969 103.797 315.969 104.824C315.969 106.646 315.482 108.006 314.506 108.905C313.557 109.803 312.209 110.252 310.464 110.252H306.729V107.942ZM318.272 107.942H321.544C322.648 107.942 323.444 107.647 323.931 107.057C324.445 106.441 324.701 105.645 324.701 104.67C324.701 103.9 324.47 103.245 324.008 102.706C323.546 102.167 322.853 101.538 321.929 100.82C321.134 100.178 320.492 99.6262 320.004 99.1642C319.542 98.6765 319.132 98.0862 318.772 97.3932C318.439 96.6745 318.272 95.8532 318.272 94.9292C318.272 93.5689 318.721 92.4524 319.619 91.5797C320.543 90.6814 321.775 90.2322 323.315 90.2322H326.665V92.5422H323.893C322.07 92.5422 321.159 93.402 321.159 95.1217C321.159 95.789 321.365 96.3665 321.775 96.8542C322.186 97.3419 322.828 97.9194 323.7 98.5867C324.496 99.2027 325.15 99.7674 325.664 100.281C326.177 100.768 326.613 101.397 326.973 102.167C327.332 102.912 327.512 103.797 327.512 104.824C327.512 106.646 327.024 108.006 326.049 108.905C325.099 109.803 323.752 110.252 322.006 110.252H318.272V107.942ZM330.969 86.9597V83.8797H334.049V86.9597H330.969ZM330.969 110.252V90.2322H334.049V110.252H330.969ZM343.566 110.522C341.77 110.522 340.371 110.073 339.37 109.174C338.394 108.25 337.907 106.98 337.907 105.363V95.1217C337.907 93.5047 338.394 92.247 339.37 91.3487C340.371 90.4247 341.77 89.9627 343.566 89.9627C345.363 89.9627 346.749 90.4247 347.724 91.3487C348.725 92.247 349.226 93.5047 349.226 95.1217V105.363C349.226 106.98 348.725 108.25 347.724 109.174C346.749 110.073 345.363 110.522 343.566 110.522ZM343.566 108.135C344.388 108.135 345.029 107.904 345.491 107.442C345.979 106.954 346.223 106.261 346.223 105.363V95.1217C346.223 94.2234 345.979 93.5432 345.491 93.0812C345.029 92.5935 344.388 92.3497 343.566 92.3497C342.745 92.3497 342.09 92.5935 341.603 93.0812C341.141 93.5432 340.91 94.2234 340.91 95.1217V105.363C340.91 106.261 341.141 106.954 341.603 107.442C342.09 107.904 342.745 108.135 343.566 108.135ZM353.077 90.2322H355.464L355.81 91.3487L357.389 90.8867C358.467 90.553 359.314 90.322 359.93 90.1937C360.571 90.0397 361.174 89.9627 361.739 89.9627C362.663 89.9627 363.343 90.2835 363.78 90.9252C364.216 91.5669 364.434 92.401 364.434 93.4277V110.252H361.354V94.4287C361.354 93.6844 361.303 93.171 361.2 92.8887C361.097 92.5807 360.841 92.4267 360.43 92.4267C360.225 92.4267 358.8 92.8374 356.157 93.6587V110.252H353.077V90.2322ZM378.511 110.252C377.1 110.252 375.97 109.829 375.123 108.982C374.302 108.135 373.891 106.993 373.891 105.555V95.3142C373.891 93.6459 374.353 92.3369 375.277 91.3872C376.201 90.4375 377.574 89.9627 379.397 89.9627C381.219 89.9627 382.579 90.4375 383.478 91.3872C384.402 92.3369 384.864 93.6459 384.864 95.3142V97.0852C384.864 98.1632 384.556 98.9845 383.94 99.5492C383.324 100.088 382.515 100.499 381.514 100.781L376.971 102.052V105.825C376.971 106.441 377.151 106.954 377.51 107.365C377.895 107.75 378.383 107.942 378.973 107.942H383.131V110.252H378.511ZM379.32 98.9717C380.167 98.7407 380.731 98.5739 381.014 98.4712C381.322 98.3429 381.527 98.1632 381.63 97.9322C381.732 97.7012 381.784 97.3162 381.784 96.7772V94.6597C381.784 93.8384 381.566 93.2352 381.129 92.8502C380.719 92.4652 380.141 92.2727 379.397 92.2727C378.678 92.2727 378.088 92.478 377.626 92.8887C377.189 93.2994 376.971 93.8897 376.971 94.6597V99.6262L379.32 98.9717ZM386.775 107.942H390.047C391.151 107.942 391.946 107.647 392.434 107.057C392.947 106.441 393.204 105.645 393.204 104.67C393.204 103.9 392.973 103.245 392.511 102.706C392.049 102.167 391.356 101.538 390.432 100.82C389.636 100.178 388.995 99.6262 388.507 99.1642C388.045 98.6765 387.634 98.0862 387.275 97.3932C386.941 96.6745 386.775 95.8532 386.775 94.9292C386.775 93.5689 387.224 92.4524 388.122 91.5797C389.046 90.6814 390.278 90.2322 391.818 90.2322H395.168V92.5422H392.396C390.573 92.5422 389.662 93.402 389.662 95.1217C389.662 95.789 389.867 96.3665 390.278 96.8542C390.689 97.3419 391.33 97.9194 392.203 98.5867C392.999 99.2027 393.653 99.7674 394.167 100.281C394.68 100.768 395.116 101.397 395.476 102.167C395.835 102.912 396.015 103.797 396.015 104.824C396.015 106.646 395.527 108.006 394.552 108.905C393.602 109.803 392.254 110.252 390.509 110.252H386.775V107.942ZM405.055 110.252C403.643 110.252 402.526 109.829 401.705 108.982C400.884 108.135 400.473 106.993 400.473 105.555V92.5422H398.163V90.2322H400.473V84.4187L403.553 83.2637V90.2322H406.633V92.5422H403.553V105.825C403.553 106.441 403.72 106.954 404.054 107.365C404.413 107.75 404.888 107.942 405.478 107.942H406.633V110.252H405.055ZM81.6466 152.252C80.0296 152.252 78.7206 151.777 77.7196 150.828C76.7186 149.878 76.2181 148.608 76.2181 147.016V137.43C76.2181 136.326 76.5133 135.389 77.1036 134.619C77.7196 133.849 78.4768 133.323 79.3751 133.041L84.5341 131.231V125.302H87.6141V152.252H81.6466ZM84.5341 149.942V133.772L81.1076 134.927C80.4403 135.133 79.9655 135.466 79.6831 135.928C79.4265 136.365 79.2981 137.07 79.2981 138.046V147.016C79.2981 147.94 79.5676 148.659 80.1066 149.172C80.6456 149.686 81.3771 149.942 82.3011 149.942H84.5341ZM90.9724 132.617L91.2804 125.302H94.5529L94.0524 132.617H90.9724ZM102.622 152.522C100.825 152.522 99.4261 152.073 98.4251 151.174C97.4498 150.25 96.9621 148.98 96.9621 147.363V137.122C96.9621 135.505 97.4498 134.247 98.4251 133.349C99.4261 132.425 100.825 131.963 102.622 131.963C104.418 131.963 105.804 132.425 106.78 133.349C107.781 134.247 108.281 135.505 108.281 137.122V147.363C108.281 148.98 107.781 150.25 106.78 151.174C105.804 152.073 104.418 152.522 102.622 152.522ZM102.622 150.135C103.443 150.135 104.085 149.904 104.547 149.442C105.034 148.954 105.278 148.261 105.278 147.363V137.122C105.278 136.223 105.034 135.543 104.547 135.081C104.085 134.594 103.443 134.35 102.622 134.35C101.8 134.35 101.146 134.594 100.658 135.081C100.196 135.543 99.9651 136.223 99.9651 137.122V147.363C99.9651 148.261 100.196 148.954 100.658 149.442C101.146 149.904 101.8 150.135 102.622 150.135ZM112.132 125.302H115.212V131.308L120.371 133.118C121.269 133.426 122.014 133.965 122.604 134.735C123.22 135.479 123.528 136.403 123.528 137.507V147.401C123.528 148.787 123.04 149.942 122.065 150.866C121.09 151.79 119.896 152.252 118.485 152.252H112.132V125.302ZM117.83 149.942C118.549 149.942 119.165 149.698 119.678 149.211C120.191 148.723 120.448 148.12 120.448 147.401V138.123C120.448 137.147 120.307 136.442 120.025 136.005C119.768 135.543 119.306 135.21 118.639 135.004L115.212 133.849V149.942H117.83ZM132.754 152.252C131.342 152.252 130.225 151.829 129.404 150.982C128.583 150.135 128.172 148.993 128.172 147.555V134.542H125.862V132.232H128.172V126.419L131.252 125.264V132.232H134.332V134.542H131.252V147.825C131.252 148.441 131.419 148.954 131.753 149.365C132.112 149.75 132.587 149.942 133.177 149.942H134.332V152.252H132.754ZM141.402 152.252C139.99 152.252 138.861 151.829 138.014 150.982C137.192 150.135 136.782 148.993 136.782 147.555V137.314C136.782 135.646 137.244 134.337 138.168 133.387C139.092 132.438 140.465 131.963 142.287 131.963C144.109 131.963 145.47 132.438 146.368 133.387C147.292 134.337 147.754 135.646 147.754 137.314V139.085C147.754 140.163 147.446 140.985 146.83 141.549C146.214 142.088 145.406 142.499 144.405 142.781L139.862 144.052V147.825C139.862 148.441 140.041 148.954 140.401 149.365C140.786 149.75 141.273 149.942 141.864 149.942H146.022V152.252H141.402ZM142.21 140.972C143.057 140.741 143.622 140.574 143.904 140.471C144.212 140.343 144.417 140.163 144.52 139.932C144.623 139.701 144.674 139.316 144.674 138.777V136.66C144.674 135.838 144.456 135.235 144.02 134.85C143.609 134.465 143.031 134.273 142.287 134.273C141.568 134.273 140.978 134.478 140.516 134.889C140.08 135.299 139.862 135.89 139.862 136.66V141.626L142.21 140.972ZM150.82 132.232H153.207L153.554 133.349L155.132 132.887C156.21 132.553 157.057 132.322 157.673 132.194C158.315 132.04 158.918 131.963 159.483 131.963C160.407 131.963 161.087 132.284 161.523 132.925C161.959 133.567 162.178 134.401 162.178 135.428V152.252H159.098V136.429C159.098 135.684 159.046 135.171 158.944 134.889C158.841 134.581 158.584 134.427 158.174 134.427C157.968 134.427 156.544 134.837 153.9 135.659V152.252H150.82V132.232ZM166.461 128.96V125.88H169.541V128.96H166.461ZM166.461 152.252V132.232H169.541V152.252H166.461ZM174.168 132.232H176.555L176.902 133.657L177.864 133.195C178.685 132.784 179.366 132.476 179.905 132.271C180.469 132.065 181.034 131.963 181.599 131.963V134.234C181.265 134.234 180.816 134.337 180.251 134.542C179.686 134.722 178.685 135.158 177.248 135.851V152.252H174.168V132.232ZM190.298 152.252V125.302H193.378V152.252H190.298ZM201.971 152.252C200.56 152.252 199.43 151.829 198.583 150.982C197.762 150.135 197.351 148.993 197.351 147.555V137.314C197.351 135.646 197.813 134.337 198.737 133.387C199.661 132.438 201.035 131.963 202.857 131.963C204.679 131.963 206.04 132.438 206.938 133.387C207.862 134.337 208.324 135.646 208.324 137.314V139.085C208.324 140.163 208.016 140.985 207.4 141.549C206.784 142.088 205.975 142.499 204.974 142.781L200.431 144.052V147.825C200.431 148.441 200.611 148.954 200.97 149.365C201.355 149.75 201.843 149.942 202.433 149.942H206.591V152.252H201.971ZM202.78 140.972C203.627 140.741 204.192 140.574 204.474 140.471C204.782 140.343 204.987 140.163 205.09 139.932C205.193 139.701 205.244 139.316 205.244 138.777V136.66C205.244 135.838 205.026 135.235 204.589 134.85C204.179 134.465 203.601 134.273 202.857 134.273C202.138 134.273 201.548 134.478 201.086 134.889C200.65 135.299 200.431 135.89 200.431 136.66V141.626L202.78 140.972ZM217.18 132.232H219.567L219.913 133.349L221.492 132.887C222.57 132.553 223.417 132.322 224.033 132.194C224.675 132.04 225.278 131.963 225.842 131.963C226.946 131.963 227.716 132.45 228.152 133.426C228.871 133.169 229.885 132.861 231.194 132.502C232.503 132.142 233.465 131.963 234.081 131.963C235.005 131.963 235.686 132.284 236.122 132.925C236.584 133.567 236.815 134.401 236.815 135.428V152.252H233.735V136.429C233.735 135.684 233.684 135.171 233.581 134.889C233.478 134.581 233.222 134.427 232.811 134.427C232.606 134.427 231.194 134.837 228.576 135.659V152.252H225.496V136.429C225.496 135.684 225.445 135.171 225.342 134.889C225.239 134.581 224.983 134.427 224.572 134.427C224.367 134.427 222.929 134.837 220.26 135.659V152.252H217.18V132.232ZM245.058 152.252C243.647 152.252 242.517 151.829 241.67 150.982C240.849 150.135 240.438 148.993 240.438 147.555V137.314C240.438 135.646 240.9 134.337 241.824 133.387C242.748 132.438 244.122 131.963 245.944 131.963C247.766 131.963 249.127 132.438 250.025 133.387C250.949 134.337 251.411 135.646 251.411 137.314V139.085C251.411 140.163 251.103 140.985 250.487 141.549C249.871 142.088 249.062 142.499 248.061 142.781L243.518 144.052V147.825C243.518 148.441 243.698 148.954 244.057 149.365C244.442 149.75 244.93 149.942 245.52 149.942H249.678V152.252H245.058ZM245.867 140.972C246.714 140.741 247.279 140.574 247.561 140.471C247.869 140.343 248.074 140.163 248.177 139.932C248.28 139.701 248.331 139.316 248.331 138.777V136.66C248.331 135.838 248.113 135.235 247.676 134.85C247.266 134.465 246.688 134.273 245.944 134.273C245.225 134.273 244.635 134.478 244.173 134.889C243.737 135.299 243.518 135.89 243.518 136.66V141.626L245.867 140.972ZM254.477 128.96V125.88H257.557V128.96H254.477ZM254.477 152.252V132.232H257.557V152.252H254.477ZM262.223 152.252V125.302H265.303V152.252H262.223ZM269.93 152.252V125.302H273.01V152.252H269.93ZM281.603 152.252C280.192 152.252 279.062 151.829 278.215 150.982C277.394 150.135 276.983 148.993 276.983 147.555V137.314C276.983 135.646 277.445 134.337 278.369 133.387C279.293 132.438 280.666 131.963 282.489 131.963C284.311 131.963 285.671 132.438 286.57 133.387C287.494 134.337 287.956 135.646 287.956 137.314V139.085C287.956 140.163 287.648 140.985 287.032 141.549C286.416 142.088 285.607 142.499 284.606 142.781L280.063 144.052V147.825C280.063 148.441 280.243 148.954 280.602 149.365C280.987 149.75 281.475 149.942 282.065 149.942H286.223V152.252H281.603ZM282.412 140.972C283.259 140.741 283.823 140.574 284.106 140.471C284.414 140.343 284.619 140.163 284.722 139.932C284.824 139.701 284.876 139.316 284.876 138.777V136.66C284.876 135.838 284.658 135.235 284.221 134.85C283.811 134.465 283.233 134.273 282.489 134.273C281.77 134.273 281.18 134.478 280.718 134.889C280.281 135.299 280.063 135.89 280.063 136.66V141.626L282.412 140.972ZM293.37 152.522C292.446 152.522 291.753 152.201 291.291 151.559C290.855 150.918 290.637 150.083 290.637 149.057V132.232H293.717V148.056C293.717 148.774 293.768 149.288 293.871 149.596C293.973 149.904 294.217 150.058 294.602 150.058C294.782 150.058 296.232 149.673 298.953 148.903V132.232H302.033V152.252H299.838L299.261 150.943C298.85 151.097 298.542 151.2 298.337 151.251C297.13 151.688 296.155 152.008 295.411 152.214C294.666 152.419 293.986 152.522 293.37 152.522ZM306.662 132.232H309.049L309.396 133.657L310.358 133.195C311.18 132.784 311.86 132.476 312.399 132.271C312.963 132.065 313.528 131.963 314.093 131.963V134.234C313.759 134.234 313.31 134.337 312.745 134.542C312.181 134.722 311.18 135.158 309.742 135.851V152.252H306.662V132.232ZM323.447 128.96V125.88H326.527V128.96H323.447ZM320.637 156.102H321.561C322.151 156.102 322.613 155.897 322.947 155.486C323.306 155.101 323.486 154.601 323.486 153.985V132.232H326.566V153.715C326.566 155.153 326.155 156.295 325.334 157.142C324.512 157.989 323.396 158.412 321.984 158.412H320.637V156.102ZM335.257 152.252C334.333 152.252 333.473 152.021 332.677 151.559C331.907 151.097 331.291 150.468 330.829 149.673C330.393 148.877 330.175 147.979 330.175 146.978V144.976C330.175 143.769 330.47 142.756 331.06 141.934C331.676 141.113 332.434 140.535 333.332 140.202L338.106 138.431V136.621C338.106 136.005 337.913 135.505 337.528 135.12C337.169 134.709 336.694 134.504 336.104 134.504H331.753V132.232H336.373C337.785 132.232 338.902 132.656 339.723 133.503C340.57 134.324 340.993 135.453 340.993 136.891V152.252H335.257ZM338.106 149.904V140.856L334.718 142.127C334.051 142.383 333.576 142.73 333.293 143.166C333.037 143.603 332.908 144.296 332.908 145.245V147.401C332.908 148.094 333.165 148.685 333.678 149.172C334.192 149.66 334.808 149.904 335.526 149.904H338.106ZM345.237 132.232H347.624L347.971 133.657L348.933 133.195C349.755 132.784 350.435 132.476 350.974 132.271C351.539 132.065 352.103 131.963 352.668 131.963V134.234C352.334 134.234 351.885 134.337 351.32 134.542C350.756 134.722 349.755 135.158 348.317 135.851V152.252H345.237V132.232ZM360.621 152.252C359.004 152.252 357.695 151.777 356.694 150.828C355.693 149.878 355.193 148.608 355.193 147.016V137.43C355.193 136.326 355.488 135.389 356.078 134.619C356.694 133.849 357.451 133.323 358.35 133.041L363.509 131.231V125.302H366.589V152.252H360.621ZM363.509 149.942V133.772L360.082 134.927C359.415 135.133 358.94 135.466 358.658 135.928C358.401 136.365 358.273 137.07 358.273 138.046V147.016C358.273 147.94 358.542 148.659 359.081 149.172C359.62 149.686 360.352 149.942 361.276 149.942H363.509ZM371.217 128.96V125.88H374.297V128.96H371.217ZM371.217 152.252V132.232H374.297V152.252H371.217ZM378.925 132.232H381.312L381.658 133.349L383.237 132.887C384.315 132.553 385.162 132.322 385.778 132.194C386.42 132.04 387.023 131.963 387.587 131.963C388.511 131.963 389.192 132.284 389.628 132.925C390.064 133.567 390.282 134.401 390.282 135.428V152.252H387.202V136.429C387.202 135.684 387.151 135.171 387.048 134.889C386.946 134.581 386.689 134.427 386.278 134.427C386.073 134.427 384.649 134.837 382.005 135.659V152.252H378.925V132.232ZM404.36 152.252C402.948 152.252 401.819 151.829 400.972 150.982C400.15 150.135 399.74 148.993 399.74 147.555V137.314C399.74 135.646 400.202 134.337 401.126 133.387C402.05 132.438 403.423 131.963 405.245 131.963C407.067 131.963 408.428 132.438 409.326 133.387C410.25 134.337 410.712 135.646 410.712 137.314V139.085C410.712 140.163 410.404 140.985 409.788 141.549C409.172 142.088 408.364 142.499 407.363 142.781L402.82 144.052V147.825C402.82 148.441 402.999 148.954 403.359 149.365C403.744 149.75 404.231 149.942 404.822 149.942H408.98V152.252H404.36ZM405.168 140.972C406.015 140.741 406.58 140.574 406.862 140.471C407.17 140.343 407.375 140.163 407.478 139.932C407.581 139.701 407.632 139.316 407.632 138.777V136.66C407.632 135.838 407.414 135.235 406.978 134.85C406.567 134.465 405.989 134.273 405.245 134.273C404.526 134.273 403.936 134.478 403.474 134.889C403.038 135.299 402.82 135.89 402.82 136.66V141.626L405.168 140.972ZM413.778 132.232H416.165L416.512 133.349L418.09 132.887C419.168 132.553 420.015 132.322 420.631 132.194C421.273 132.04 421.876 131.963 422.441 131.963C423.365 131.963 424.045 132.284 424.481 132.925C424.917 133.567 425.136 134.401 425.136 135.428V152.252H422.056V136.429C422.056 135.684 422.004 135.171 421.902 134.889C421.799 134.581 421.542 134.427 421.132 134.427C420.926 134.427 419.502 134.837 416.858 135.659V152.252H413.778V132.232ZM86.6596 174.232H89.0466L89.3931 175.657L90.3556 175.195C91.1769 174.784 91.8571 174.476 92.3961 174.271C92.9608 174.065 93.5254 173.963 94.0901 173.963V176.234C93.7564 176.234 93.3073 176.337 92.7426 176.542C92.1779 176.722 91.1769 177.158 89.7396 177.851V194.252H86.6596V174.232ZM101.196 172.731L99.9259 171.576L104.392 167.764L106.355 169.574L101.196 172.731ZM100.965 194.252C99.5537 194.252 98.4244 193.829 97.5774 192.982C96.756 192.135 96.3454 190.993 96.3454 189.555V179.314C96.3454 177.646 96.8074 176.337 97.7314 175.387C98.6554 174.438 100.029 173.963 101.851 173.963C103.673 173.963 105.034 174.438 105.932 175.387C106.856 176.337 107.318 177.646 107.318 179.314V181.085C107.318 182.163 107.01 182.985 106.394 183.549C105.778 184.088 104.969 184.499 103.968 184.781L99.4254 186.052V189.825C99.4254 190.441 99.605 190.954 99.9644 191.365C100.349 191.75 100.837 191.942 101.427 191.942H105.585V194.252H100.965ZM101.774 182.972C102.621 182.741 103.186 182.574 103.468 182.471C103.776 182.343 103.981 182.163 104.084 181.932C104.187 181.701 104.238 181.316 104.238 180.777V178.66C104.238 177.838 104.02 177.235 103.583 176.85C103.173 176.465 102.595 176.273 101.851 176.273C101.132 176.273 100.542 176.478 100.08 176.889C99.6435 177.299 99.4254 177.89 99.4254 178.66V183.626L101.774 182.972ZM110.384 174.232H116.621C118.032 174.232 119.226 174.694 120.201 175.618C121.202 176.542 121.703 177.697 121.703 179.083V189.44C121.703 190.826 121.215 191.981 120.24 192.905C119.264 193.803 118.071 194.252 116.659 194.252H113.464V200.412H110.384V174.232ZM116.005 191.981C116.723 191.981 117.339 191.737 117.853 191.249C118.366 190.762 118.623 190.158 118.623 189.44V179.083C118.623 178.365 118.366 177.761 117.853 177.274C117.339 176.786 116.723 176.542 116.005 176.542H113.464V191.981H116.005ZM130.237 194.522C128.44 194.522 127.042 194.073 126.041 193.174C125.065 192.25 124.578 190.98 124.578 189.363V179.122C124.578 177.505 125.065 176.247 126.041 175.349C127.042 174.425 128.44 173.963 130.237 173.963C132.034 173.963 133.42 174.425 134.395 175.349C135.396 176.247 135.897 177.505 135.897 179.122V189.363C135.897 190.98 135.396 192.25 134.395 193.174C133.42 194.073 132.034 194.522 130.237 194.522ZM130.237 192.135C131.058 192.135 131.7 191.904 132.162 191.442C132.65 190.954 132.894 190.261 132.894 189.363V179.122C132.894 178.223 132.65 177.543 132.162 177.081C131.7 176.594 131.058 176.35 130.237 176.35C129.416 176.35 128.761 176.594 128.274 177.081C127.812 177.543 127.581 178.223 127.581 179.122V189.363C127.581 190.261 127.812 190.954 128.274 191.442C128.761 191.904 129.416 192.135 130.237 192.135ZM139.748 174.232H142.135L142.481 175.349L144.06 174.887C145.138 174.553 145.985 174.322 146.601 174.194C147.242 174.04 147.845 173.963 148.41 173.963C149.334 173.963 150.014 174.284 150.451 174.925C150.887 175.567 151.105 176.401 151.105 177.428V194.252H148.025V178.429C148.025 177.684 147.974 177.171 147.871 176.889C147.768 176.581 147.512 176.427 147.101 176.427C146.896 176.427 145.471 176.837 142.828 177.659V194.252H139.748V174.232ZM160.47 194.252C158.853 194.252 157.544 193.777 156.543 192.828C155.542 191.878 155.042 190.608 155.042 189.016V179.43C155.042 178.326 155.337 177.389 155.927 176.619C156.543 175.849 157.3 175.323 158.199 175.041L163.358 173.231V167.302H166.438V194.252H160.47ZM163.358 191.942V175.772L159.931 176.927C159.264 177.133 158.789 177.466 158.507 177.928C158.25 178.365 158.122 179.07 158.122 180.046V189.016C158.122 189.94 158.391 190.659 158.93 191.172C159.469 191.686 160.201 191.942 161.125 191.942H163.358ZM175.147 194.252C174.223 194.252 173.364 194.021 172.568 193.559C171.798 193.097 171.182 192.468 170.72 191.673C170.284 190.877 170.065 189.979 170.065 188.978V186.976C170.065 185.769 170.361 184.756 170.951 183.934C171.567 183.113 172.324 182.535 173.222 182.202L177.996 180.431V178.621C177.996 178.005 177.804 177.505 177.419 177.12C177.06 176.709 176.585 176.504 175.994 176.504H171.644V174.232H176.264C177.676 174.232 178.792 174.656 179.613 175.503C180.46 176.324 180.884 177.453 180.884 178.891V194.252H175.147ZM177.996 191.904V182.856L174.608 184.127C173.941 184.383 173.466 184.73 173.184 185.166C172.927 185.603 172.799 186.296 172.799 187.245V189.401C172.799 190.094 173.056 190.685 173.569 191.172C174.082 191.66 174.698 191.904 175.417 191.904H177.996ZM185.128 174.232H187.515L187.861 175.349L189.44 174.887C190.518 174.553 191.365 174.322 191.981 174.194C192.623 174.04 193.226 173.963 193.79 173.963C194.714 173.963 195.395 174.284 195.831 174.925C196.267 175.567 196.485 176.401 196.485 177.428V194.252H193.405V178.429C193.405 177.684 193.354 177.171 193.251 176.889C193.149 176.581 192.892 176.427 192.481 176.427C192.276 176.427 190.852 176.837 188.208 177.659V194.252H185.128V174.232ZM206.351 194.252C204.939 194.252 203.823 193.829 203.001 192.982C202.18 192.135 201.769 190.993 201.769 189.555V176.542H199.459V174.232H201.769V168.419L204.849 167.264V174.232H207.929V176.542H204.849V189.825C204.849 190.441 205.016 190.954 205.35 191.365C205.709 191.75 206.184 191.942 206.774 191.942H207.929V194.252H206.351ZM220.866 194.252C219.942 194.252 219.082 194.021 218.287 193.559C217.517 193.097 216.901 192.468 216.439 191.673C216.002 190.877 215.784 189.979 215.784 188.978V186.976C215.784 185.769 216.079 184.756 216.67 183.934C217.286 183.113 218.043 182.535 218.941 182.202L223.715 180.431V178.621C223.715 178.005 223.523 177.505 223.138 177.12C222.778 176.709 222.303 176.504 221.713 176.504H217.363V174.232H221.983C223.394 174.232 224.511 174.656 225.332 175.503C226.179 176.324 226.603 177.453 226.603 178.891V194.252H220.866ZM223.715 191.904V182.856L220.327 184.127C219.66 184.383 219.185 184.73 218.903 185.166C218.646 185.603 218.518 186.296 218.518 187.245V189.401C218.518 190.094 218.774 190.685 219.288 191.172C219.801 191.66 220.417 191.904 221.136 191.904H223.715ZM233.195 194.522C232.271 194.522 231.578 194.201 231.116 193.559C230.68 192.918 230.462 192.083 230.462 191.057V174.232H233.542V190.056C233.542 190.774 233.593 191.288 233.696 191.596C233.798 191.904 234.042 192.058 234.427 192.058C234.607 192.058 236.057 191.673 238.778 190.903V174.232H241.858V194.252H239.663L239.086 192.943C238.675 193.097 238.367 193.2 238.162 193.251C236.955 193.688 235.98 194.008 235.236 194.214C234.491 194.419 233.811 194.522 233.195 194.522ZM244.562 194.252L250.106 184.204L244.947 174.232H247.912L251.531 181.316L255.188 174.232H258.153L252.994 184.204L258.538 194.252H255.304L251.531 186.937L247.796 194.252H244.562ZM274.335 194.252H271.14C269.728 194.252 268.534 193.803 267.559 192.905C266.584 191.981 266.096 190.826 266.096 189.44V179.083C266.096 177.697 266.584 176.542 267.559 175.618C268.56 174.694 269.766 174.232 271.178 174.232H277.454V200.412H274.335V194.252ZM274.374 191.942V176.542H271.794C271.075 176.542 270.459 176.786 269.946 177.274C269.433 177.761 269.176 178.365 269.176 179.083V189.401C269.176 190.12 269.433 190.723 269.946 191.211C270.459 191.698 271.075 191.942 271.794 191.942H274.374ZM284.441 194.522C283.517 194.522 282.824 194.201 282.362 193.559C281.925 192.918 281.707 192.083 281.707 191.057V174.232H284.787V190.056C284.787 190.774 284.839 191.288 284.941 191.596C285.044 191.904 285.288 192.058 285.673 192.058C285.852 192.058 287.303 191.673 290.023 190.903V174.232H293.103V194.252H290.909L290.331 192.943C289.921 193.097 289.613 193.2 289.407 193.251C288.201 193.688 287.226 194.008 286.481 194.214C285.737 194.419 285.057 194.522 284.441 194.522ZM301.737 194.252C300.325 194.252 299.196 193.829 298.349 192.982C297.528 192.135 297.117 190.993 297.117 189.555V179.314C297.117 177.646 297.579 176.337 298.503 175.387C299.427 174.438 300.8 173.963 302.622 173.963C304.445 173.963 305.805 174.438 306.703 175.387C307.627 176.337 308.089 177.646 308.089 179.314V181.085C308.089 182.163 307.781 182.985 307.165 183.549C306.549 184.088 305.741 184.499 304.74 184.781L300.197 186.052V189.825C300.197 190.441 300.377 190.954 300.736 191.365C301.121 191.75 301.609 191.942 302.199 191.942H306.357V194.252H301.737ZM302.545 182.972C303.392 182.741 303.957 182.574 304.239 182.471C304.547 182.343 304.753 182.163 304.855 181.932C304.958 181.701 305.009 181.316 305.009 180.777V178.66C305.009 177.838 304.791 177.235 304.355 176.85C303.944 176.465 303.367 176.273 302.622 176.273C301.904 176.273 301.313 176.478 300.851 176.889C300.415 177.299 300.197 177.89 300.197 178.66V183.626L302.545 182.972ZM310 191.942H313.273C314.376 191.942 315.172 191.647 315.66 191.057C316.173 190.441 316.43 189.645 316.43 188.67C316.43 187.9 316.199 187.245 315.737 186.706C315.275 186.167 314.582 185.538 313.658 184.82C312.862 184.178 312.22 183.626 311.733 183.164C311.271 182.677 310.86 182.086 310.501 181.393C310.167 180.675 310 179.853 310 178.929C310 177.569 310.449 176.452 311.348 175.58C312.272 174.681 313.504 174.232 315.044 174.232H318.393V176.542H315.621C313.799 176.542 312.888 177.402 312.888 179.122C312.888 179.789 313.093 180.367 313.504 180.854C313.914 181.342 314.556 181.919 315.429 182.587C316.224 183.203 316.879 183.767 317.392 184.281C317.906 184.768 318.342 185.397 318.701 186.167C319.061 186.912 319.24 187.797 319.24 188.824C319.24 190.646 318.753 192.006 317.777 192.905C316.828 193.803 315.48 194.252 313.735 194.252H310V191.942ZM328.28 194.252C326.869 194.252 325.752 193.829 324.931 192.982C324.109 192.135 323.699 190.993 323.699 189.555V176.542H321.389V174.232H323.699V168.419L326.779 167.264V174.232H329.859V176.542H326.779V189.825C326.779 190.441 326.946 190.954 327.279 191.365C327.639 191.75 328.113 191.942 328.704 191.942H329.859V194.252H328.28ZM332.924 170.96V167.88H336.004V170.96H332.924ZM332.924 194.252V174.232H336.004V194.252H332.924ZM345.521 194.522C343.725 194.522 342.326 194.073 341.325 193.174C340.349 192.25 339.862 190.98 339.862 189.363V179.122C339.862 177.505 340.349 176.247 341.325 175.349C342.326 174.425 343.725 173.963 345.521 173.963C347.318 173.963 348.704 174.425 349.679 175.349C350.68 176.247 351.181 177.505 351.181 179.122V189.363C351.181 190.98 350.68 192.25 349.679 193.174C348.704 194.073 347.318 194.522 345.521 194.522ZM345.521 192.135C346.343 192.135 346.984 191.904 347.446 191.442C347.934 190.954 348.178 190.261 348.178 189.363V179.122C348.178 178.223 347.934 177.543 347.446 177.081C346.984 176.594 346.343 176.35 345.521 176.35C344.7 176.35 344.045 176.594 343.558 177.081C343.096 177.543 342.865 178.223 342.865 179.122V189.363C342.865 190.261 343.096 190.954 343.558 191.442C344.045 191.904 344.7 192.135 345.521 192.135ZM355.032 174.232H357.419L357.765 175.349L359.344 174.887C360.422 174.553 361.269 174.322 361.885 174.194C362.526 174.04 363.13 173.963 363.694 173.963C364.618 173.963 365.298 174.284 365.735 174.925C366.171 175.567 366.389 176.401 366.389 177.428V194.252H363.309V178.429C363.309 177.684 363.258 177.171 363.155 176.889C363.053 176.581 362.796 176.427 362.385 176.427C362.18 176.427 360.755 176.837 358.112 177.659V194.252H355.032V174.232ZM369.517 191.942H372.79C373.893 191.942 374.689 191.647 375.177 191.057C375.69 190.441 375.947 189.645 375.947 188.67C375.947 187.9 375.716 187.245 375.254 186.706C374.792 186.167 374.099 185.538 373.175 184.82C372.379 184.178 371.737 183.626 371.25 183.164C370.788 182.677 370.377 182.086 370.018 181.393C369.684 180.675 369.517 179.853 369.517 178.929C369.517 177.569 369.966 176.452 370.865 175.58C371.789 174.681 373.021 174.232 374.561 174.232H377.91V176.542H375.138C373.316 176.542 372.405 177.402 372.405 179.122C372.405 179.789 372.61 180.367 373.021 180.854C373.431 181.342 374.073 181.919 374.946 182.587C375.741 183.203 376.396 183.767 376.909 184.281C377.423 184.768 377.859 185.397 378.218 186.167C378.578 186.912 378.757 187.797 378.757 188.824C378.757 190.646 378.27 192.006 377.294 192.905C376.345 193.803 374.997 194.252 373.252 194.252H369.517V191.942ZM393.087 194.252C391.47 194.252 390.161 193.777 389.16 192.828C388.159 191.878 387.658 190.608 387.658 189.016V179.43C387.658 178.326 387.953 177.389 388.544 176.619C389.16 175.849 389.917 175.323 390.815 175.041L395.974 173.231V167.302H399.054V194.252H393.087ZM395.974 191.942V175.772L392.548 176.927C391.88 177.133 391.406 177.466 391.123 177.928C390.867 178.365 390.738 179.07 390.738 180.046V189.016C390.738 189.94 391.008 190.659 391.547 191.172C392.086 191.686 392.817 191.942 393.741 191.942H395.974ZM406.032 194.522C405.108 194.522 404.415 194.201 403.953 193.559C403.516 192.918 403.298 192.083 403.298 191.057V174.232H406.378V190.056C406.378 190.774 406.429 191.288 406.532 191.596C406.635 191.904 406.879 192.058 407.264 192.058C407.443 192.058 408.893 191.673 411.614 190.903V174.232H414.694V194.252H412.5L411.922 192.943C411.511 193.097 411.203 193.2 410.998 193.251C409.792 193.688 408.816 194.008 408.072 194.214C407.328 194.419 406.648 194.522 406.032 194.522ZM202.063 212.96V209.88H205.143V212.96H202.063ZM199.253 240.102H200.177C200.767 240.102 201.229 239.897 201.563 239.486C201.922 239.101 202.102 238.601 202.102 237.985V216.232H205.182V237.715C205.182 239.153 204.771 240.295 203.95 241.142C203.128 241.989 202.012 242.412 200.6 242.412H199.253V240.102ZM213.873 236.252C212.949 236.252 212.089 236.021 211.293 235.559C210.523 235.097 209.907 234.468 209.445 233.673C209.009 232.877 208.791 231.979 208.791 230.978V228.976C208.791 227.769 209.086 226.756 209.676 225.934C210.292 225.113 211.05 224.535 211.948 224.202L216.722 222.431V220.621C216.722 220.005 216.529 219.505 216.144 219.12C215.785 218.709 215.31 218.504 214.72 218.504H210.369V216.232H214.989C216.401 216.232 217.518 216.656 218.339 217.503C219.186 218.324 219.609 219.453 219.609 220.891V236.252H213.873ZM216.722 233.904V224.856L213.334 226.127C212.667 226.383 212.192 226.73 211.909 227.166C211.653 227.603 211.524 228.296 211.524 229.245V231.401C211.524 232.094 211.781 232.685 212.294 233.172C212.808 233.66 213.424 233.904 214.142 233.904H216.722ZM223.853 216.232H226.24L226.587 217.657L227.549 217.195C228.371 216.784 229.051 216.476 229.59 216.271C230.155 216.065 230.719 215.963 231.284 215.963V218.234C230.95 218.234 230.501 218.337 229.936 218.542C229.372 218.722 228.371 219.158 226.933 219.851V236.252H223.853V216.232ZM239.237 236.252C237.62 236.252 236.311 235.777 235.31 234.828C234.309 233.878 233.809 232.608 233.809 231.016V221.43C233.809 220.326 234.104 219.389 234.694 218.619C235.31 217.849 236.067 217.323 236.966 217.041L242.125 215.231V209.302H245.205V236.252H239.237ZM242.125 233.942V217.772L238.698 218.927C238.031 219.133 237.556 219.466 237.274 219.928C237.017 220.365 236.889 221.07 236.889 222.046V231.016C236.889 231.94 237.158 232.659 237.697 233.172C238.236 233.686 238.968 233.942 239.892 233.942H242.125ZM249.833 212.96V209.88H252.913V212.96H249.833ZM249.833 236.252V216.232H252.913V236.252H249.833ZM257.541 216.232H259.928L260.274 217.349L261.853 216.887C262.931 216.553 263.778 216.322 264.394 216.194C265.036 216.04 265.639 215.963 266.203 215.963C267.127 215.963 267.808 216.284 268.244 216.925C268.68 217.567 268.898 218.401 268.898 219.428V236.252H265.818V220.429C265.818 219.684 265.767 219.171 265.664 218.889C265.562 218.581 265.305 218.427 264.894 218.427C264.689 218.427 263.265 218.837 260.621 219.659V236.252H257.541V216.232ZM273.182 212.96V209.88H276.262V212.96H273.182ZM273.182 236.252V216.232H276.262V236.252H273.182ZM284.893 236.252C283.481 236.252 282.352 235.829 281.505 234.982C280.684 234.135 280.273 232.993 280.273 231.555V221.314C280.273 219.646 280.735 218.337 281.659 217.387C282.583 216.438 283.956 215.963 285.779 215.963C287.601 215.963 288.961 216.438 289.86 217.387C290.784 218.337 291.246 219.646 291.246 221.314V223.085C291.246 224.163 290.938 224.985 290.322 225.549C289.706 226.088 288.897 226.499 287.896 226.781L283.353 228.052V231.825C283.353 232.441 283.533 232.954 283.892 233.365C284.277 233.75 284.765 233.942 285.355 233.942H289.513V236.252H284.893ZM285.702 224.972C286.549 224.741 287.113 224.574 287.396 224.471C287.704 224.343 287.909 224.163 288.012 223.932C288.114 223.701 288.166 223.316 288.166 222.777V220.66C288.166 219.838 287.947 219.235 287.511 218.85C287.1 218.465 286.523 218.273 285.779 218.273C285.06 218.273 284.47 218.478 284.008 218.889C283.571 219.299 283.353 219.89 283.353 220.66V225.626L285.702 224.972ZM294.311 216.232H296.698L297.045 217.657L298.007 217.195C298.829 216.784 299.509 216.476 300.048 216.271C300.613 216.065 301.177 215.963 301.742 215.963V218.234C301.408 218.234 300.959 218.337 300.394 218.542C299.83 218.722 298.829 219.158 297.391 219.851V236.252H294.311V216.232Z" fill="#2B232B"/>
</svg>
