<svg width="502" height="300" viewBox="0 0 502 300" fill="none" xmlns="http://www.w3.org/2000/svg">
<rect x="2" y="2" width="497.567" height="295.655" fill="#FFF1E9" stroke="black" stroke-width="4"/>
<path d="M107.574 50.042C107.254 50.042 107.093 49.8816 107.093 49.5607V24.863C107.093 24.5422 107.254 24.3817 107.574 24.3817H118.22C118.528 24.3817 118.784 24.4844 118.99 24.6897L122.84 28.5397C123.058 28.7579 123.167 29.0146 123.167 29.3097V35.951C123.167 36.259 123.058 36.5157 122.84 36.721L118.99 40.571C118.784 40.7892 118.528 40.8982 118.22 40.8982H113.503V49.5607C113.503 49.8816 113.343 50.042 113.022 50.042H107.574ZM114.947 35.6622C116.012 35.6622 116.737 35.4505 117.122 35.027C117.52 34.6035 117.719 33.8014 117.719 32.6207C117.719 31.4401 117.52 30.638 117.122 30.2145C116.737 29.791 116.012 29.5792 114.947 29.5792C113.895 29.5792 113.17 29.791 112.772 30.2145C112.387 30.638 112.194 31.4401 112.194 32.6207C112.194 33.8014 112.387 34.6035 112.772 35.027C113.17 35.4505 113.895 35.6622 114.947 35.6622ZM131.215 50.042C130.907 50.042 130.651 49.9329 130.445 49.7147L126.595 45.8647C126.377 45.6594 126.268 45.4027 126.268 45.0947V24.863C126.268 24.5422 126.428 24.3817 126.749 24.3817H132.197C132.518 24.3817 132.678 24.5422 132.678 24.863V44.5172C132.678 44.7739 132.807 44.9022 133.063 44.9022H136.22V24.863C136.22 24.5422 136.381 24.3817 136.702 24.3817H142.149C142.47 24.3817 142.631 24.5422 142.631 24.863V49.5607C142.631 49.8816 142.47 50.042 142.149 50.042H131.215ZM149.211 50.042C148.942 50.042 148.749 49.9329 148.634 49.7147L146.227 45.653C146.086 45.422 146.06 45.1974 146.15 44.9792L152.676 29.637L152.503 30.2722V29.1557L152.695 29.5022H146.901C146.58 29.5022 146.42 29.3418 146.42 29.021V24.863C146.42 24.5422 146.58 24.3817 146.901 24.3817H156.237C156.494 24.3817 156.686 24.478 156.815 24.6705L159.568 28.5397C159.722 28.7322 159.741 28.9568 159.625 29.2135L153.023 44.6905L153.177 43.5932V45.422L152.869 44.9022H158.932C159.253 44.9022 159.414 45.0627 159.414 45.3835V49.5607C159.414 49.8816 159.253 50.042 158.932 50.042H149.211ZM165.115 50.042C164.845 50.042 164.653 49.9329 164.537 49.7147L162.131 45.653C161.99 45.422 161.964 45.1974 162.054 44.9792L168.58 29.637L168.407 30.2722V29.1557L168.599 29.5022H162.805C162.484 29.5022 162.324 29.3418 162.324 29.021V24.863C162.324 24.5422 162.484 24.3817 162.805 24.3817H172.141C172.398 24.3817 172.59 24.478 172.719 24.6705L175.471 28.5397C175.625 28.7322 175.645 28.9568 175.529 29.2135L168.926 44.6905L169.08 43.5932V45.422L168.772 44.9022H174.836C175.157 44.9022 175.317 45.0627 175.317 45.3835V49.5607C175.317 49.8816 175.157 50.042 174.836 50.042H165.115ZM179.536 50.042C179.216 50.042 179.055 49.8816 179.055 49.5607V24.863C179.055 24.5422 179.216 24.3817 179.536 24.3817H184.984C185.305 24.3817 185.465 24.5422 185.465 24.863V44.9022H190.316C190.637 44.9022 190.798 45.0627 190.798 45.3835V49.5607C190.798 49.8816 190.637 50.042 190.316 50.042H179.536ZM194.35 50.042C194.029 50.042 193.869 49.8816 193.869 49.5607V24.863C193.869 24.5422 194.029 24.3817 194.35 24.3817H207.767C208.088 24.3817 208.248 24.5422 208.248 24.863V29.021C208.248 29.3418 208.088 29.5022 207.767 29.5022H200.279V34.9692H207.113C207.433 34.9692 207.594 35.1297 207.594 35.4505V38.9732C207.594 39.2941 207.433 39.4545 207.113 39.4545H200.279V44.9022H207.767C208.088 44.9022 208.248 45.0627 208.248 45.3835V49.5607C208.248 49.8816 208.088 50.042 207.767 50.042H194.35ZM219.33 50.042C219.009 50.042 218.849 49.8816 218.849 49.5607V24.863C218.849 24.5422 219.009 24.3817 219.33 24.3817H231.073C231.381 24.3817 231.637 24.4844 231.843 24.6897L235.693 28.5397C235.911 28.7579 236.02 29.0146 236.02 29.3097V45.0947C236.02 45.4027 235.911 45.6594 235.693 45.8647L231.843 49.7147C231.637 49.9329 231.381 50.042 231.073 50.042H219.33ZM225.279 44.9022H228.801C229.34 44.9022 229.61 44.5429 229.61 43.8242V30.5995C229.61 29.868 229.34 29.5022 228.801 29.5022H225.279V44.9022ZM245.437 50.042C245.129 50.042 244.872 49.9329 244.667 49.7147L240.817 45.8647C240.599 45.6594 240.49 45.4027 240.49 45.0947V24.863C240.49 24.5422 240.65 24.3817 240.971 24.3817H246.419C246.74 24.3817 246.9 24.5422 246.9 24.863V44.5172C246.9 44.7739 247.028 44.9022 247.285 44.9022H250.442V24.863C250.442 24.5422 250.602 24.3817 250.923 24.3817H256.371C256.692 24.3817 256.852 24.5422 256.852 24.863V49.5607C256.852 49.8816 256.692 50.042 256.371 50.042H245.437ZM268.079 50.042C267.758 50.042 267.598 49.8816 267.598 49.5607V28.6745C267.598 28.3793 267.707 28.1227 267.925 27.9045L271.12 24.6897C271.339 24.4844 271.595 24.3817 271.89 24.3817H276.299C276.594 24.3817 276.85 24.4844 277.069 24.6897L280.303 27.943H281.207L284.441 24.6897C284.66 24.4844 284.916 24.3817 285.211 24.3817H289.6C289.908 24.3817 290.165 24.4844 290.37 24.6897L293.585 27.9045C293.803 28.1227 293.912 28.3793 293.912 28.6745V49.5607C293.912 49.8816 293.752 50.042 293.431 50.042H287.964C287.643 50.042 287.483 49.8816 287.483 49.5607V29.5022H283.96V49.5607C283.96 49.8816 283.8 50.042 283.479 50.042H278.031C277.71 50.042 277.55 49.8816 277.55 49.5607V29.5022H274.008V49.5607C274.008 49.8816 273.847 50.042 273.527 50.042H268.079ZM299.022 50.042C298.701 50.042 298.54 49.8816 298.54 49.5607V24.863C298.54 24.5422 298.701 24.3817 299.022 24.3817H312.439C312.76 24.3817 312.92 24.5422 312.92 24.863V29.021C312.92 29.3418 312.76 29.5022 312.439 29.5022H304.951V34.9692H311.784C312.105 34.9692 312.266 35.1297 312.266 35.4505V38.9732C312.266 39.2941 312.105 39.4545 311.784 39.4545H304.951V44.9022H312.439C312.76 44.9022 312.92 45.0627 312.92 45.3835V49.5607C312.92 49.8816 312.76 50.042 312.439 50.042H299.022ZM304.027 23.4385C303.783 23.554 303.61 23.4962 303.507 23.2652L302.833 21.8215C302.743 21.5905 302.814 21.398 303.045 21.244L307.588 18.2987C307.819 18.1576 307.992 18.241 308.108 18.549L309.205 20.8397C309.308 21.0579 309.237 21.2312 308.993 21.3595L304.027 23.4385ZM324.804 50.042C324.509 50.042 324.252 49.9586 324.034 49.7917L320.896 46.9235L317.72 42.7847C317.579 42.6051 317.489 42.496 317.45 42.4575C317.412 42.4062 317.393 42.2907 317.393 42.111V32.2935C317.393 32.1138 317.412 31.9983 317.45 31.947C317.502 31.8957 317.591 31.7866 317.72 31.6197L320.665 27.8082L324.034 24.632C324.175 24.5165 324.284 24.4459 324.361 24.4202C324.451 24.3946 324.598 24.3817 324.804 24.3817H329.559C329.879 24.3817 330.04 24.5422 330.04 24.863V27.943C330.04 28.0457 330.027 28.1547 330.001 28.2702C329.988 28.3729 329.924 28.4627 329.809 28.5397L326.19 31.023L323.822 34.0645V40.3592L326.228 43.4007L329.809 45.8647C329.911 45.9289 329.976 46.0059 330.001 46.0957C330.027 46.1856 330.04 46.2818 330.04 46.3845V49.5607C330.04 49.8816 329.879 50.042 329.559 50.042H324.804ZM334.116 50.042C333.795 50.042 333.635 49.8816 333.635 49.5607V31.716C333.635 31.5492 333.699 31.3567 333.827 31.1385L338.389 24.6705C338.531 24.478 338.736 24.3817 339.005 24.3817H345.377C345.66 24.3817 345.865 24.478 345.993 24.6705L350.575 31.1385C350.703 31.3182 350.767 31.5107 350.767 31.716V49.5607C350.767 49.8816 350.607 50.042 350.286 50.042H344.838C344.517 50.042 344.357 49.8816 344.357 49.5607V41.3795H340.064V49.5607C340.064 49.8816 339.904 50.042 339.583 50.042H334.116ZM342.201 37.2407C343.382 37.2407 344.177 36.9841 344.588 36.4707C345.011 35.9446 345.223 34.95 345.223 33.487C345.223 32.024 345.011 31.0358 344.588 30.5225C344.177 29.9963 343.382 29.7332 342.201 29.7332C341.033 29.7332 340.237 29.9963 339.814 30.5225C339.403 31.0358 339.198 32.024 339.198 33.487C339.198 34.95 339.403 35.9446 339.814 36.4707C340.237 36.9841 341.033 37.2407 342.201 37.2407ZM355.757 50.042C355.436 50.042 355.275 49.8816 355.275 49.5607V24.863C355.275 24.5422 355.436 24.3817 355.757 24.3817H366.691C366.999 24.3817 367.255 24.4844 367.461 24.6897L371.311 28.5397C371.529 28.7579 371.638 29.0146 371.638 29.3097V49.5607C371.638 49.8816 371.477 50.042 371.157 50.042H365.709C365.388 50.042 365.228 49.8816 365.228 49.5607V29.5022H361.686V49.5607C361.686 49.8816 361.525 50.042 361.204 50.042H355.757ZM381.202 50.042C380.907 50.042 380.65 49.9329 380.432 49.7147L376.582 45.8647C376.364 45.6594 376.255 45.4027 376.255 45.0947V29.3097C376.255 29.0146 376.364 28.7579 376.582 28.5397L380.432 24.6897C380.65 24.4844 380.907 24.3817 381.202 24.3817H388.767C389.075 24.3817 389.332 24.4844 389.537 24.6897L393.387 28.5397C393.605 28.7579 393.715 29.0146 393.715 29.3097V45.0947C393.715 45.4027 393.605 45.6594 393.387 45.8647L389.537 49.7147C389.332 49.9329 389.075 50.042 388.767 50.042H381.202ZM383.474 44.9022H386.496C387.035 44.9022 387.304 44.5429 387.304 43.8242V30.5995C387.304 29.868 387.035 29.5022 386.496 29.5022H383.474C382.947 29.5022 382.684 29.868 382.684 30.5995V43.8242C382.684 44.5429 382.947 44.9022 383.474 44.9022Z" fill="#2B232B"/>
<path d="M79.3398 110.252V83.3022H82.7278V107.711H90.6203V110.252H79.3398ZM97.4312 110.252C96.0195 110.252 94.8902 109.829 94.0432 108.982C93.2219 108.135 92.8112 106.993 92.8112 105.555V95.3142C92.8112 93.6459 93.2732 92.3369 94.1972 91.3872C95.1212 90.4375 96.4944 89.9627 98.3167 89.9627C100.139 89.9627 101.499 90.4375 102.398 91.3872C103.322 92.3369 103.784 93.6459 103.784 95.3142V97.0852C103.784 98.1632 103.476 98.9845 102.86 99.5492C102.244 100.088 101.435 100.499 100.434 100.781L95.8912 102.052V105.825C95.8912 106.441 96.0709 106.954 96.4302 107.365C96.8152 107.75 97.3029 107.942 97.8932 107.942H102.051V110.252H97.4312ZM98.2397 98.9717C99.0867 98.7407 99.6514 98.5739 99.9337 98.4712C100.242 98.3429 100.447 98.1632 100.55 97.9322C100.652 97.7012 100.704 97.3162 100.704 96.7772V94.6597C100.704 93.8384 100.486 93.2352 100.049 92.8502C99.6385 92.4652 99.061 92.2727 98.3167 92.2727C97.598 92.2727 97.0077 92.478 96.5457 92.8887C96.1094 93.2994 95.8912 93.8897 95.8912 94.6597V99.6262L98.2397 98.9717ZM112.64 83.3022H115.72V89.3082L120.879 91.1177C121.777 91.4257 122.521 91.9647 123.112 92.7347C123.728 93.479 124.036 94.403 124.036 95.5067V105.401C124.036 106.787 123.548 107.942 122.573 108.866C121.597 109.79 120.404 110.252 118.992 110.252H112.64V83.3022ZM118.338 107.942C119.056 107.942 119.672 107.698 120.186 107.211C120.699 106.723 120.956 106.12 120.956 105.401V96.1227C120.956 95.1474 120.814 94.4415 120.532 94.0052C120.275 93.5432 119.813 93.2095 119.146 93.0042L115.72 91.8492V107.942H118.338ZM130.027 110.522C129.103 110.522 128.41 110.201 127.948 109.559C127.512 108.918 127.294 108.083 127.294 107.057V90.2322H130.374V106.056C130.374 106.774 130.425 107.288 130.528 107.596C130.63 107.904 130.874 108.058 131.259 108.058C131.439 108.058 132.889 107.673 135.61 106.903V90.2322H138.69V110.252H136.495L135.918 108.943C135.507 109.097 135.199 109.2 134.994 109.251C133.787 109.688 132.812 110.008 132.068 110.214C131.323 110.419 130.643 110.522 130.027 110.522ZM148.902 110.252C147.49 110.252 146.374 109.829 145.552 108.982C144.731 108.135 144.32 106.993 144.32 105.555V92.5422H142.01V90.2322H144.32V84.4187L147.4 83.2637V90.2322H150.48V92.5422H147.4V105.825C147.4 106.441 147.567 106.954 147.901 107.365C148.26 107.75 148.735 107.942 149.325 107.942H150.48V110.252H148.902ZM164.418 110.252C162.801 110.252 161.492 109.777 160.491 108.828C159.49 107.878 158.989 106.608 158.989 105.016V95.4297C158.989 94.326 159.285 93.3892 159.875 92.6192C160.491 91.8492 161.248 91.323 162.146 91.0407L167.305 89.2312V83.3022H170.385V110.252H164.418ZM167.305 107.942V91.7722L163.879 92.9272C163.212 93.1325 162.737 93.4662 162.454 93.9282C162.198 94.3645 162.069 95.0704 162.069 96.0457V105.016C162.069 105.94 162.339 106.659 162.878 107.172C163.417 107.686 164.148 107.942 165.072 107.942H167.305ZM179.018 110.252C177.606 110.252 176.477 109.829 175.63 108.982C174.809 108.135 174.398 106.993 174.398 105.555V95.3142C174.398 93.6459 174.86 92.3369 175.784 91.3872C176.708 90.4375 178.081 89.9627 179.904 89.9627C181.726 89.9627 183.086 90.4375 183.985 91.3872C184.909 92.3369 185.371 93.6459 185.371 95.3142V97.0852C185.371 98.1632 185.063 98.9845 184.447 99.5492C183.831 100.088 183.022 100.499 182.021 100.781L177.478 102.052V105.825C177.478 106.441 177.658 106.954 178.017 107.365C178.402 107.75 178.89 107.942 179.48 107.942H183.638V110.252H179.018ZM179.827 98.9717C180.674 98.7407 181.238 98.5739 181.521 98.4712C181.829 98.3429 182.034 98.1632 182.137 97.9322C182.239 97.7012 182.291 97.3162 182.291 96.7772V94.6597C182.291 93.8384 182.072 93.2352 181.636 92.8502C181.225 92.4652 180.648 92.2727 179.904 92.2727C179.185 92.2727 178.595 92.478 178.133 92.8887C177.696 93.2994 177.478 93.8897 177.478 94.6597V99.6262L179.827 98.9717ZM198.462 110.252C197.05 110.252 195.921 109.829 195.074 108.982C194.252 108.135 193.842 106.993 193.842 105.555V95.3142C193.842 93.6972 194.265 92.4524 195.112 91.5797C195.959 90.6814 197.191 90.2322 198.808 90.2322H203.082V92.5422H198.885C198.295 92.5422 197.82 92.7475 197.461 93.1582C197.101 93.5432 196.922 94.0437 196.922 94.6597V105.825C196.922 106.441 197.101 106.954 197.461 107.365C197.846 107.75 198.333 107.942 198.924 107.942H203.082V110.252H198.462ZM209.773 110.252C208.361 110.252 207.232 109.829 206.385 108.982C205.564 108.135 205.153 106.993 205.153 105.555V95.3142C205.153 93.6459 205.615 92.3369 206.539 91.3872C207.463 90.4375 208.836 89.9627 210.658 89.9627C212.481 89.9627 213.841 90.4375 214.739 91.3872C215.663 92.3369 216.125 93.6459 216.125 95.3142V97.0852C216.125 98.1632 215.817 98.9845 215.201 99.5492C214.585 100.088 213.777 100.499 212.776 100.781L208.233 102.052V105.825C208.233 106.441 208.413 106.954 208.772 107.365C209.157 107.75 209.645 107.942 210.235 107.942H214.393V110.252H209.773ZM210.581 98.9717C211.428 98.7407 211.993 98.5739 212.275 98.4712C212.583 98.3429 212.789 98.1632 212.891 97.9322C212.994 97.7012 213.045 97.3162 213.045 96.7772V94.6597C213.045 93.8384 212.827 93.2352 212.391 92.8502C211.98 92.4652 211.403 92.2727 210.658 92.2727C209.94 92.2727 209.349 92.478 208.887 92.8887C208.451 93.2994 208.233 93.8897 208.233 94.6597V99.6262L210.581 98.9717ZM224.774 110.252C223.362 110.252 222.246 109.829 221.424 108.982C220.603 108.135 220.192 106.993 220.192 105.555V92.5422H217.882V90.2322H220.192V84.4187L223.272 83.2637V90.2322H226.352V92.5422H223.272V105.825C223.272 106.441 223.439 106.954 223.773 107.365C224.132 107.75 224.607 107.942 225.197 107.942H226.352V110.252H224.774ZM235 110.252C233.589 110.252 232.472 109.829 231.651 108.982C230.83 108.135 230.419 106.993 230.419 105.555V92.5422H228.109V90.2322H230.419V84.4187L233.499 83.2637V90.2322H236.579V92.5422H233.499V105.825C233.499 106.441 233.666 106.954 233.999 107.365C234.359 107.75 234.834 107.942 235.424 107.942H236.579V110.252H235ZM243.648 110.252C242.237 110.252 241.107 109.829 240.26 108.982C239.439 108.135 239.028 106.993 239.028 105.555V95.3142C239.028 93.6459 239.49 92.3369 240.414 91.3872C241.338 90.4375 242.712 89.9627 244.534 89.9627C246.356 89.9627 247.717 90.4375 248.615 91.3872C249.539 92.3369 250.001 93.6459 250.001 95.3142V97.0852C250.001 98.1632 249.693 98.9845 249.077 99.5492C248.461 100.088 247.652 100.499 246.651 100.781L242.108 102.052V105.825C242.108 106.441 242.288 106.954 242.647 107.365C243.032 107.75 243.52 107.942 244.11 107.942H248.268V110.252H243.648ZM244.457 98.9717C245.304 98.7407 245.869 98.5739 246.151 98.4712C246.459 98.3429 246.664 98.1632 246.767 97.9322C246.87 97.7012 246.921 97.3162 246.921 96.7772V94.6597C246.921 93.8384 246.703 93.2352 246.266 92.8502C245.856 92.4652 245.278 92.2727 244.534 92.2727C243.815 92.2727 243.225 92.478 242.763 92.8887C242.327 93.2994 242.108 93.8897 242.108 94.6597V99.6262L244.457 98.9717ZM258.857 90.2322H261.244L261.59 91.3487L263.169 90.8867C264.247 90.553 265.094 90.322 265.71 90.1937C266.352 90.0397 266.955 89.9627 267.519 89.9627C268.623 89.9627 269.393 90.4504 269.829 91.4257C270.548 91.169 271.562 90.861 272.871 90.5017C274.18 90.1424 275.142 89.9627 275.758 89.9627C276.682 89.9627 277.363 90.2835 277.799 90.9252C278.261 91.5669 278.492 92.401 278.492 93.4277V110.252H275.412V94.4287C275.412 93.6844 275.361 93.171 275.258 92.8887C275.155 92.5807 274.899 92.4267 274.488 92.4267C274.283 92.4267 272.871 92.8374 270.253 93.6587V110.252H267.173V94.4287C267.173 93.6844 267.122 93.171 267.019 92.8887C266.916 92.5807 266.66 92.4267 266.249 92.4267C266.044 92.4267 264.606 92.8374 261.937 93.6587V110.252H258.857V90.2322ZM282.731 86.9597V83.8797H285.811V86.9597H282.731ZM282.731 110.252V90.2322H285.811V110.252H282.731ZM289.284 107.942H292.556C293.66 107.942 294.456 107.647 294.943 107.057C295.457 106.441 295.713 105.645 295.713 104.67C295.713 103.9 295.482 103.245 295.02 102.706C294.558 102.167 293.865 101.538 292.941 100.82C292.146 100.178 291.504 99.6262 291.016 99.1642C290.554 98.6765 290.144 98.0862 289.784 97.3932C289.451 96.6745 289.284 95.8532 289.284 94.9292C289.284 93.5689 289.733 92.4524 290.631 91.5797C291.555 90.6814 292.787 90.2322 294.327 90.2322H297.677V92.5422H294.905C293.083 92.5422 292.171 93.402 292.171 95.1217C292.171 95.789 292.377 96.3665 292.787 96.8542C293.198 97.3419 293.84 97.9194 294.712 98.5867C295.508 99.2027 296.163 99.7674 296.676 100.281C297.189 100.768 297.626 101.397 297.985 102.167C298.344 102.912 298.524 103.797 298.524 104.824C298.524 106.646 298.036 108.006 297.061 108.905C296.111 109.803 294.764 110.252 293.018 110.252H289.284V107.942ZM300.826 107.942H304.099C305.203 107.942 305.998 107.647 306.486 107.057C306.999 106.441 307.256 105.645 307.256 104.67C307.256 103.9 307.025 103.245 306.563 102.706C306.101 102.167 305.408 101.538 304.484 100.82C303.688 100.178 303.047 99.6262 302.559 99.1642C302.097 98.6765 301.686 98.0862 301.327 97.3932C300.993 96.6745 300.826 95.8532 300.826 94.9292C300.826 93.5689 301.276 92.4524 302.174 91.5797C303.098 90.6814 304.33 90.2322 305.87 90.2322H309.219V92.5422H306.447C304.625 92.5422 303.714 93.402 303.714 95.1217C303.714 95.789 303.919 96.3665 304.33 96.8542C304.741 97.3419 305.382 97.9194 306.255 98.5867C307.051 99.2027 307.705 99.7674 308.218 100.281C308.732 100.768 309.168 101.397 309.527 102.167C309.887 102.912 310.066 103.797 310.066 104.824C310.066 106.646 309.579 108.006 308.603 108.905C307.654 109.803 306.306 110.252 304.561 110.252H300.826V107.942ZM313.524 86.9597V83.8797H316.604V86.9597H313.524ZM313.524 110.252V90.2322H316.604V110.252H313.524ZM326.121 110.522C324.324 110.522 322.925 110.073 321.924 109.174C320.949 108.25 320.461 106.98 320.461 105.363V95.1217C320.461 93.5047 320.949 92.247 321.924 91.3487C322.925 90.4247 324.324 89.9627 326.121 89.9627C327.918 89.9627 329.304 90.4247 330.279 91.3487C331.28 92.247 331.78 93.5047 331.78 95.1217V105.363C331.78 106.98 331.28 108.25 330.279 109.174C329.304 110.073 327.918 110.522 326.121 110.522ZM326.121 108.135C326.942 108.135 327.584 107.904 328.046 107.442C328.534 106.954 328.777 106.261 328.777 105.363V95.1217C328.777 94.2234 328.534 93.5432 328.046 93.0812C327.584 92.5935 326.942 92.3497 326.121 92.3497C325.3 92.3497 324.645 92.5935 324.157 93.0812C323.695 93.5432 323.464 94.2234 323.464 95.1217V105.363C323.464 106.261 323.695 106.954 324.157 107.442C324.645 107.904 325.3 108.135 326.121 108.135ZM335.631 90.2322H338.018L338.365 91.3487L339.943 90.8867C341.021 90.553 341.868 90.322 342.484 90.1937C343.126 90.0397 343.729 89.9627 344.294 89.9627C345.218 89.9627 345.898 90.2835 346.334 90.9252C346.771 91.5669 346.989 92.401 346.989 93.4277V110.252H343.909V94.4287C343.909 93.6844 343.857 93.171 343.755 92.8887C343.652 92.5807 343.395 92.4267 342.985 92.4267C342.779 92.4267 341.355 92.8374 338.711 93.6587V110.252H335.631V90.2322ZM361.066 110.252C359.654 110.252 358.525 109.829 357.678 108.982C356.857 108.135 356.446 106.993 356.446 105.555V95.3142C356.446 93.6459 356.908 92.3369 357.832 91.3872C358.756 90.4375 360.129 89.9627 361.951 89.9627C363.774 89.9627 365.134 90.4375 366.032 91.3872C366.956 92.3369 367.418 93.6459 367.418 95.3142V97.0852C367.418 98.1632 367.11 98.9845 366.494 99.5492C365.878 100.088 365.07 100.499 364.069 100.781L359.526 102.052V105.825C359.526 106.441 359.706 106.954 360.065 107.365C360.45 107.75 360.938 107.942 361.528 107.942H365.686V110.252H361.066ZM361.874 98.9717C362.721 98.7407 363.286 98.5739 363.568 98.4712C363.876 98.3429 364.082 98.1632 364.184 97.9322C364.287 97.7012 364.338 97.3162 364.338 96.7772V94.6597C364.338 93.8384 364.12 93.2352 363.684 92.8502C363.273 92.4652 362.696 92.2727 361.951 92.2727C361.233 92.2727 360.642 92.478 360.18 92.8887C359.744 93.2994 359.526 93.8897 359.526 94.6597V99.6262L361.874 98.9717ZM369.329 107.942H372.602C373.705 107.942 374.501 107.647 374.989 107.057C375.502 106.441 375.759 105.645 375.759 104.67C375.759 103.9 375.528 103.245 375.066 102.706C374.604 102.167 373.911 101.538 372.987 100.82C372.191 100.178 371.549 99.6262 371.062 99.1642C370.6 98.6765 370.189 98.0862 369.83 97.3932C369.496 96.6745 369.329 95.8532 369.329 94.9292C369.329 93.5689 369.778 92.4524 370.677 91.5797C371.601 90.6814 372.833 90.2322 374.373 90.2322H377.722V92.5422H374.95C373.128 92.5422 372.217 93.402 372.217 95.1217C372.217 95.789 372.422 96.3665 372.833 96.8542C373.243 97.3419 373.885 97.9194 374.758 98.5867C375.553 99.2027 376.208 99.7674 376.721 100.281C377.235 100.768 377.671 101.397 378.03 102.167C378.39 102.912 378.569 103.797 378.569 104.824C378.569 106.646 378.082 108.006 377.106 108.905C376.157 109.803 374.809 110.252 373.064 110.252H369.329V107.942ZM387.609 110.252C386.198 110.252 385.081 109.829 384.26 108.982C383.438 108.135 383.028 106.993 383.028 105.555V92.5422H380.718V90.2322H383.028V84.4187L386.108 83.2637V90.2322H389.188V92.5422H386.108V105.825C386.108 106.441 386.275 106.954 386.608 107.365C386.968 107.75 387.442 107.942 388.033 107.942H389.188V110.252H387.609ZM403.125 110.252C401.508 110.252 400.199 109.777 399.198 108.828C398.197 107.878 397.697 106.608 397.697 105.016V95.4297C397.697 94.326 397.992 93.3892 398.582 92.6192C399.198 91.8492 399.956 91.323 400.854 91.0407L406.013 89.2312V83.3022H409.093V110.252H403.125ZM406.013 107.942V91.7722L402.586 92.9272C401.919 93.1325 401.444 93.4662 401.162 93.9282C400.905 94.3645 400.777 95.0704 400.777 96.0457V105.016C400.777 105.94 401.046 106.659 401.585 107.172C402.124 107.686 402.856 107.942 403.78 107.942H406.013ZM417.726 110.252C416.314 110.252 415.185 109.829 414.338 108.982C413.516 108.135 413.106 106.993 413.106 105.555V95.3142C413.106 93.6459 413.568 92.3369 414.492 91.3872C415.416 90.4375 416.789 89.9627 418.611 89.9627C420.433 89.9627 421.794 90.4375 422.692 91.3872C423.616 92.3369 424.078 93.6459 424.078 95.3142V97.0852C424.078 98.1632 423.77 98.9845 423.154 99.5492C422.538 100.088 421.73 100.499 420.729 100.781L416.186 102.052V105.825C416.186 106.441 416.365 106.954 416.725 107.365C417.11 107.75 417.597 107.942 418.188 107.942H422.346V110.252H417.726ZM418.534 98.9717C419.381 98.7407 419.946 98.5739 420.228 98.4712C420.536 98.3429 420.741 98.1632 420.844 97.9322C420.947 97.7012 420.998 97.3162 420.998 96.7772V94.6597C420.998 93.8384 420.78 93.2352 420.344 92.8502C419.933 92.4652 419.355 92.2727 418.611 92.2727C417.892 92.2727 417.302 92.478 416.84 92.8887C416.404 93.2994 416.186 93.8897 416.186 94.6597V99.6262L418.534 98.9717ZM60.0969 132.232H62.4839L62.8304 133.657L63.7929 133.195C64.6142 132.784 65.2944 132.476 65.8334 132.271C66.398 132.065 66.9627 131.963 67.5274 131.963V134.234C67.1937 134.234 66.7445 134.337 66.1799 134.542C65.6152 134.722 64.6142 135.158 63.1769 135.851V152.252H60.0969V132.232ZM74.6336 130.731L73.3631 129.576L77.8291 125.764L79.7926 127.574L74.6336 130.731ZM74.4026 152.252C72.991 152.252 71.8616 151.829 71.0146 150.982C70.1933 150.135 69.7826 148.993 69.7826 147.555V137.314C69.7826 135.646 70.2446 134.337 71.1686 133.387C72.0926 132.438 73.4658 131.963 75.2881 131.963C77.1105 131.963 78.4708 132.438 79.3691 133.387C80.2931 134.337 80.7551 135.646 80.7551 137.314V139.085C80.7551 140.163 80.4471 140.985 79.8311 141.549C79.2151 142.088 78.4066 142.499 77.4056 142.781L72.8626 144.052V147.825C72.8626 148.441 73.0423 148.954 73.4016 149.365C73.7866 149.75 74.2743 149.942 74.8646 149.942H79.0226V152.252H74.4026ZM75.2111 140.972C76.0581 140.741 76.6228 140.574 76.9051 140.471C77.2131 140.343 77.4185 140.163 77.5211 139.932C77.6238 139.701 77.6751 139.316 77.6751 138.777V136.66C77.6751 135.838 77.457 135.235 77.0206 134.85C76.61 134.465 76.0325 134.273 75.2881 134.273C74.5695 134.273 73.9791 134.478 73.5171 134.889C73.0808 135.299 72.8626 135.89 72.8626 136.66V141.626L75.2111 140.972ZM86.1695 152.522C85.2455 152.522 84.5525 152.201 84.0905 151.559C83.6542 150.918 83.436 150.083 83.436 149.057V132.232H86.516V148.056C86.516 148.774 86.5673 149.288 86.67 149.596C86.7727 149.904 87.0165 150.058 87.4015 150.058C87.5812 150.058 89.0313 149.673 91.752 148.903V132.232H94.832V152.252H92.6375L92.06 150.943C91.6493 151.097 91.3413 151.2 91.136 151.251C89.9297 151.688 88.9543 152.008 88.21 152.214C87.4657 152.419 86.7855 152.522 86.1695 152.522ZM98.3066 149.942H101.579C102.683 149.942 103.478 149.647 103.966 149.057C104.479 148.441 104.736 147.645 104.736 146.67C104.736 145.9 104.505 145.245 104.043 144.706C103.581 144.167 102.888 143.538 101.964 142.82C101.168 142.178 100.527 141.626 100.039 141.164C99.5771 140.677 99.1664 140.086 98.8071 139.393C98.4734 138.675 98.3066 137.853 98.3066 136.929C98.3066 135.569 98.7558 134.452 99.6541 133.58C100.578 132.681 101.81 132.232 103.35 132.232H106.7V134.542H103.928C102.105 134.542 101.194 135.402 101.194 137.122C101.194 137.789 101.399 138.367 101.81 138.854C102.221 139.342 102.862 139.919 103.735 140.587C104.531 141.203 105.185 141.767 105.699 142.281C106.212 142.768 106.648 143.397 107.008 144.167C107.367 144.912 107.547 145.797 107.547 146.824C107.547 148.646 107.059 150.006 106.084 150.905C105.134 151.803 103.786 152.252 102.041 152.252H98.3066V149.942ZM109.849 149.942H113.122C114.225 149.942 115.021 149.647 115.509 149.057C116.022 148.441 116.279 147.645 116.279 146.67C116.279 145.9 116.048 145.245 115.586 144.706C115.124 144.167 114.431 143.538 113.507 142.82C112.711 142.178 112.069 141.626 111.582 141.164C111.12 140.677 110.709 140.086 110.35 139.393C110.016 138.675 109.849 137.853 109.849 136.929C109.849 135.569 110.298 134.452 111.197 133.58C112.121 132.681 113.353 132.232 114.893 132.232H118.242V134.542H115.47C113.648 134.542 112.737 135.402 112.737 137.122C112.737 137.789 112.942 138.367 113.353 138.854C113.763 139.342 114.405 139.919 115.278 140.587C116.073 141.203 116.728 141.767 117.241 142.281C117.754 142.768 118.191 143.397 118.55 144.167C118.909 144.912 119.089 145.797 119.089 146.824C119.089 148.646 118.601 150.006 117.626 150.905C116.676 151.803 115.329 152.252 113.584 152.252H109.849V149.942ZM122.547 128.96V125.88H125.627V128.96H122.547ZM122.547 152.252V132.232H125.627V152.252H122.547ZM130.254 132.232H132.641L132.988 133.657L133.95 133.195C134.771 132.784 135.452 132.476 135.991 132.271C136.555 132.065 137.12 131.963 137.685 131.963V134.234C137.351 134.234 136.902 134.337 136.337 134.542C135.772 134.722 134.771 135.158 133.334 135.851V152.252H130.254V132.232ZM151.582 130.731L146.423 127.574L148.386 125.764L152.852 129.576L151.582 130.731ZM150.427 152.252C149.503 152.252 148.643 152.021 147.847 151.559C147.077 151.097 146.461 150.468 145.999 149.673C145.563 148.877 145.345 147.979 145.345 146.978V144.976C145.345 143.769 145.64 142.756 146.23 141.934C146.846 141.113 147.604 140.535 148.502 140.202L153.276 138.431V136.621C153.276 136.005 153.083 135.505 152.698 135.12C152.339 134.709 151.864 134.504 151.274 134.504H146.923V132.232H151.543C152.955 132.232 154.072 132.656 154.893 133.503C155.74 134.324 156.163 135.453 156.163 136.891V152.252H150.427ZM153.276 149.904V140.856L149.888 142.127C149.221 142.383 148.746 142.73 148.463 143.166C148.207 143.603 148.078 144.296 148.078 145.245V147.401C148.078 148.094 148.335 148.685 148.848 149.172C149.362 149.66 149.978 149.904 150.696 149.904H153.276ZM166.197 132.232H168.584L168.931 133.657L169.893 133.195C170.715 132.784 171.395 132.476 171.934 132.271C172.499 132.065 173.063 131.963 173.628 131.963V134.234C173.294 134.234 172.845 134.337 172.28 134.542C171.716 134.722 170.715 135.158 169.277 135.851V152.252H166.197V132.232ZM180.734 130.731L179.464 129.576L183.93 125.764L185.893 127.574L180.734 130.731ZM180.503 152.252C179.092 152.252 177.962 151.829 177.115 150.982C176.294 150.135 175.883 148.993 175.883 147.555V137.314C175.883 135.646 176.345 134.337 177.269 133.387C178.193 132.438 179.566 131.963 181.389 131.963C183.211 131.963 184.571 132.438 185.47 133.387C186.394 134.337 186.856 135.646 186.856 137.314V139.085C186.856 140.163 186.548 140.985 185.932 141.549C185.316 142.088 184.507 142.499 183.506 142.781L178.963 144.052V147.825C178.963 148.441 179.143 148.954 179.502 149.365C179.887 149.75 180.375 149.942 180.965 149.942H185.123V152.252H180.503ZM181.312 140.972C182.159 140.741 182.723 140.574 183.006 140.471C183.314 140.343 183.519 140.163 183.622 139.932C183.724 139.701 183.776 139.316 183.776 138.777V136.66C183.776 135.838 183.558 135.235 183.121 134.85C182.711 134.465 182.133 134.273 181.389 134.273C180.67 134.273 180.08 134.478 179.618 134.889C179.181 135.299 178.963 135.89 178.963 136.66V141.626L181.312 140.972ZM189.922 132.232H196.159C197.57 132.232 198.764 132.694 199.739 133.618C200.74 134.542 201.241 135.697 201.241 137.083V147.44C201.241 148.826 200.753 149.981 199.778 150.905C198.802 151.803 197.609 152.252 196.197 152.252H193.002V158.412H189.922V132.232ZM195.543 149.981C196.261 149.981 196.877 149.737 197.391 149.249C197.904 148.762 198.161 148.158 198.161 147.44V137.083C198.161 136.365 197.904 135.761 197.391 135.274C196.877 134.786 196.261 134.542 195.543 134.542H193.002V149.981H195.543ZM208.966 152.252C208.042 152.252 207.183 152.021 206.387 151.559C205.617 151.097 205.001 150.468 204.539 149.673C204.103 148.877 203.884 147.979 203.884 146.978V144.976C203.884 143.769 204.18 142.756 204.77 141.934C205.386 141.113 206.143 140.535 207.041 140.202L211.815 138.431V136.621C211.815 136.005 211.623 135.505 211.238 135.12C210.879 134.709 210.404 134.504 209.813 134.504H205.463V132.232H210.083C211.495 132.232 212.611 132.656 213.432 133.503C214.279 134.324 214.703 135.453 214.703 136.891V152.252H208.966ZM211.815 149.904V140.856L208.427 142.127C207.76 142.383 207.285 142.73 207.003 143.166C206.746 143.603 206.618 144.296 206.618 145.245V147.401C206.618 148.094 206.875 148.685 207.388 149.172C207.901 149.66 208.517 149.904 209.236 149.904H211.815ZM218.947 132.232H221.334L221.68 133.657L222.643 133.195C223.464 132.784 224.144 132.476 224.683 132.271C225.248 132.065 225.813 131.963 226.377 131.963V134.234C226.044 134.234 225.595 134.337 225.03 134.542C224.465 134.722 223.464 135.158 222.027 135.851V152.252H218.947V132.232ZM233.253 152.252C231.841 152.252 230.712 151.829 229.865 150.982C229.043 150.135 228.633 148.993 228.633 147.555V137.314C228.633 135.646 229.095 134.337 230.019 133.387C230.943 132.438 232.316 131.963 234.138 131.963C235.961 131.963 237.321 132.438 238.219 133.387C239.143 134.337 239.605 135.646 239.605 137.314V139.085C239.605 140.163 239.297 140.985 238.681 141.549C238.065 142.088 237.257 142.499 236.256 142.781L231.713 144.052V147.825C231.713 148.441 231.892 148.954 232.252 149.365C232.637 149.75 233.124 149.942 233.715 149.942H237.873V152.252H233.253ZM234.061 140.972C234.908 140.741 235.473 140.574 235.755 140.471C236.063 140.343 236.269 140.163 236.371 139.932C236.474 139.701 236.525 139.316 236.525 138.777V136.66C236.525 135.838 236.307 135.235 235.871 134.85C235.46 134.465 234.883 134.273 234.138 134.273C233.42 134.273 232.829 134.478 232.367 134.889C231.931 135.299 231.713 135.89 231.713 136.66V141.626L234.061 140.972ZM242.671 132.232H245.058L245.405 133.657L246.367 133.195C247.188 132.784 247.869 132.476 248.408 132.271C248.972 132.065 249.537 131.963 250.102 131.963V134.234C249.768 134.234 249.319 134.337 248.754 134.542C248.189 134.722 247.188 135.158 245.751 135.851V152.252H242.671V132.232ZM258.801 152.252V125.302H261.881V152.252H258.801ZM270.474 152.252C269.063 152.252 267.933 151.829 267.086 150.982C266.265 150.135 265.854 148.993 265.854 147.555V137.314C265.854 135.646 266.316 134.337 267.24 133.387C268.164 132.438 269.538 131.963 271.36 131.963C273.182 131.963 274.543 132.438 275.441 133.387C276.365 134.337 276.827 135.646 276.827 137.314V139.085C276.827 140.163 276.519 140.985 275.903 141.549C275.287 142.088 274.478 142.499 273.477 142.781L268.934 144.052V147.825C268.934 148.441 269.114 148.954 269.473 149.365C269.858 149.75 270.346 149.942 270.936 149.942H275.094V152.252H270.474ZM271.283 140.972C272.13 140.741 272.695 140.574 272.977 140.471C273.285 140.343 273.49 140.163 273.593 139.932C273.696 139.701 273.747 139.316 273.747 138.777V136.66C273.747 135.838 273.529 135.235 273.092 134.85C272.682 134.465 272.104 134.273 271.36 134.273C270.641 134.273 270.051 134.478 269.589 134.889C269.153 135.299 268.934 135.89 268.934 136.66V141.626L271.283 140.972ZM278.738 149.942H282.01C283.114 149.942 283.91 149.647 284.397 149.057C284.911 148.441 285.167 147.645 285.167 146.67C285.167 145.9 284.936 145.245 284.474 144.706C284.012 144.167 283.319 143.538 282.395 142.82C281.6 142.178 280.958 141.626 280.47 141.164C280.008 140.677 279.598 140.086 279.238 139.393C278.905 138.675 278.738 137.853 278.738 136.929C278.738 135.569 279.187 134.452 280.085 133.58C281.009 132.681 282.241 132.232 283.781 132.232H287.131V134.542H284.359C282.536 134.542 281.625 135.402 281.625 137.122C281.625 137.789 281.831 138.367 282.241 138.854C282.652 139.342 283.294 139.919 284.166 140.587C284.962 141.203 285.616 141.767 286.13 142.281C286.643 142.768 287.079 143.397 287.439 144.167C287.798 144.912 287.978 145.797 287.978 146.824C287.978 148.646 287.49 150.006 286.515 150.905C285.565 151.803 284.218 152.252 282.472 152.252H278.738V149.942ZM297.225 132.232H299.612L299.959 133.349L301.537 132.887C302.615 132.553 303.462 132.322 304.078 132.194C304.72 132.04 305.323 131.963 305.888 131.963C306.991 131.963 307.761 132.45 308.198 133.426C308.916 133.169 309.93 132.861 311.239 132.502C312.548 132.142 313.511 131.963 314.127 131.963C315.051 131.963 315.731 132.284 316.167 132.925C316.629 133.567 316.86 134.401 316.86 135.428V152.252H313.78V136.429C313.78 135.684 313.729 135.171 313.626 134.889C313.524 134.581 313.267 134.427 312.856 134.427C312.651 134.427 311.239 134.837 308.621 135.659V152.252H305.541V136.429C305.541 135.684 305.49 135.171 305.387 134.889C305.285 134.581 305.028 134.427 304.617 134.427C304.412 134.427 302.975 134.837 300.305 135.659V152.252H297.225V132.232ZM325.181 152.252C324.257 152.252 323.397 152.021 322.601 151.559C321.831 151.097 321.215 150.468 320.753 149.673C320.317 148.877 320.099 147.979 320.099 146.978V144.976C320.099 143.769 320.394 142.756 320.984 141.934C321.6 141.113 322.357 140.535 323.256 140.202L328.03 138.431V136.621C328.03 136.005 327.837 135.505 327.452 135.12C327.093 134.709 326.618 134.504 326.028 134.504H321.677V132.232H326.297C327.709 132.232 328.825 132.656 329.647 133.503C330.494 134.324 330.917 135.453 330.917 136.891V152.252H325.181ZM328.03 149.904V140.856L324.642 142.127C323.974 142.383 323.5 142.73 323.217 143.166C322.961 143.603 322.832 144.296 322.832 145.245V147.401C322.832 148.094 323.089 148.685 323.602 149.172C324.116 149.66 324.732 149.904 325.45 149.904H328.03ZM339.396 152.252C337.985 152.252 336.855 151.829 336.008 150.982C335.187 150.135 334.776 148.993 334.776 147.555V137.314C334.776 135.697 335.2 134.452 336.047 133.58C336.894 132.681 338.126 132.232 339.743 132.232H344.016V134.542H339.82C339.229 134.542 338.755 134.748 338.395 135.158C338.036 135.543 337.856 136.044 337.856 136.66V147.825C337.856 148.441 338.036 148.954 338.395 149.365C338.78 149.75 339.268 149.942 339.858 149.942H344.016V152.252H339.396ZM346.704 125.302H349.784V133.272L351.478 132.771C352.53 132.463 353.3 132.258 353.788 132.155C354.301 132.027 354.827 131.963 355.366 131.963C356.29 131.963 356.97 132.284 357.407 132.925C357.843 133.567 358.061 134.401 358.061 135.428V152.252H354.981V136.429C354.981 135.684 354.93 135.171 354.827 134.889C354.725 134.581 354.468 134.427 354.057 134.427C353.852 134.427 352.427 134.837 349.784 135.659V152.252H346.704V125.302ZM362.72 128.96V125.88H365.8V128.96H362.72ZM362.72 152.252V132.232H365.8V152.252H362.72ZM370.428 132.232H372.815L373.161 133.349L374.74 132.887C375.818 132.553 376.665 132.322 377.281 132.194C377.923 132.04 378.526 131.963 379.09 131.963C380.014 131.963 380.695 132.284 381.131 132.925C381.567 133.567 381.785 134.401 381.785 135.428V152.252H378.705V136.429C378.705 135.684 378.654 135.171 378.551 134.889C378.449 134.581 378.192 134.427 377.781 134.427C377.576 134.427 376.152 134.837 373.508 135.659V152.252H370.428V132.232ZM390.073 152.252C388.661 152.252 387.532 151.829 386.685 150.982C385.863 150.135 385.453 148.993 385.453 147.555V137.314C385.453 135.646 385.915 134.337 386.839 133.387C387.763 132.438 389.136 131.963 390.958 131.963C392.78 131.963 394.141 132.438 395.039 133.387C395.963 134.337 396.425 135.646 396.425 137.314V139.085C396.425 140.163 396.117 140.985 395.501 141.549C394.885 142.088 394.077 142.499 393.076 142.781L388.533 144.052V147.825C388.533 148.441 388.712 148.954 389.072 149.365C389.457 149.75 389.944 149.942 390.535 149.942H394.693V152.252H390.073ZM390.881 140.972C391.728 140.741 392.293 140.574 392.575 140.471C392.883 140.343 393.088 140.163 393.191 139.932C393.294 139.701 393.345 139.316 393.345 138.777V136.66C393.345 135.838 393.127 135.235 392.691 134.85C392.28 134.465 391.702 134.273 390.958 134.273C390.239 134.273 389.649 134.478 389.187 134.889C388.751 135.299 388.533 135.89 388.533 136.66V141.626L390.881 140.972ZM398.336 149.942H401.608C402.712 149.942 403.508 149.647 403.995 149.057C404.509 148.441 404.765 147.645 404.765 146.67C404.765 145.9 404.534 145.245 404.072 144.706C403.61 144.167 402.917 143.538 401.993 142.82C401.198 142.178 400.556 141.626 400.068 141.164C399.606 140.677 399.196 140.086 398.836 139.393C398.503 138.675 398.336 137.853 398.336 136.929C398.336 135.569 398.785 134.452 399.683 133.58C400.607 132.681 401.839 132.232 403.379 132.232H406.729V134.542H403.957C402.135 134.542 401.223 135.402 401.223 137.122C401.223 137.789 401.429 138.367 401.839 138.854C402.25 139.342 402.892 139.919 403.764 140.587C404.56 141.203 405.215 141.767 405.728 142.281C406.241 142.768 406.678 143.397 407.037 144.167C407.396 144.912 407.576 145.797 407.576 146.824C407.576 148.646 407.088 150.006 406.113 150.905C405.163 151.803 403.816 152.252 402.07 152.252H398.336V149.942ZM420.827 152.252C419.416 152.252 418.286 151.829 417.439 150.982C416.618 150.135 416.207 148.993 416.207 147.555V137.314C416.207 135.646 416.669 134.337 417.593 133.387C418.517 132.438 419.891 131.963 421.713 131.963C423.535 131.963 424.896 132.438 425.794 133.387C426.718 134.337 427.18 135.646 427.18 137.314V139.085C427.18 140.163 426.872 140.985 426.256 141.549C425.64 142.088 424.831 142.499 423.83 142.781L419.287 144.052V147.825C419.287 148.441 419.467 148.954 419.826 149.365C420.211 149.75 420.699 149.942 421.289 149.942H425.447V152.252H420.827ZM421.636 140.972C422.483 140.741 423.048 140.574 423.33 140.471C423.638 140.343 423.843 140.163 423.946 139.932C424.049 139.701 424.1 139.316 424.1 138.777V136.66C424.1 135.838 423.882 135.235 423.445 134.85C423.035 134.465 422.457 134.273 421.713 134.273C420.994 134.273 420.404 134.478 419.942 134.889C419.506 135.299 419.287 135.89 419.287 136.66V141.626L421.636 140.972ZM430.246 132.232H432.633L432.979 133.349L434.558 132.887C435.636 132.553 436.483 132.322 437.099 132.194C437.74 132.04 438.344 131.963 438.908 131.963C439.832 131.963 440.512 132.284 440.949 132.925C441.385 133.567 441.603 134.401 441.603 135.428V152.252H438.523V136.429C438.523 135.684 438.472 135.171 438.369 134.889C438.267 134.581 438.01 134.427 437.599 134.427C437.394 134.427 435.969 134.837 433.326 135.659V152.252H430.246V132.232ZM66.0359 194.522C65.1119 194.522 64.4189 194.201 63.9569 193.559C63.5206 192.918 63.3024 192.083 63.3024 191.057V174.232H66.3824V190.056C66.3824 190.774 66.4338 191.288 66.5364 191.596C66.6391 191.904 66.8829 192.058 67.2679 192.058C67.4476 192.058 68.8978 191.673 71.6184 190.903V174.232H74.6984V194.252H72.5039L71.9264 192.943C71.5158 193.097 71.2078 193.2 71.0024 193.251C69.7961 193.688 68.8208 194.008 68.0764 194.214C67.3321 194.419 66.6519 194.522 66.0359 194.522ZM84.9106 194.252C83.4989 194.252 82.3824 193.829 81.5611 192.982C80.7397 192.135 80.3291 190.993 80.3291 189.555V176.542H78.0191V174.232H80.3291V168.419L83.4091 167.264V174.232H86.4891V176.542H83.4091V189.825C83.4091 190.441 83.5759 190.954 83.9096 191.365C84.2689 191.75 84.7437 191.942 85.3341 191.942H86.4891V194.252H84.9106ZM89.5546 170.96V167.88H92.6346V170.96H89.5546ZM89.5546 194.252V174.232H92.6346V194.252H89.5546ZM97.3006 194.252V167.302H100.381V194.252H97.3006ZM104.97 170.96V167.88H108.05V170.96H104.97ZM104.97 194.252V174.232H108.05V194.252H104.97ZM111.522 191.942H114.795C115.898 191.942 116.694 191.647 117.182 191.057C117.695 190.441 117.952 189.645 117.952 188.67C117.952 187.9 117.721 187.245 117.259 186.706C116.797 186.167 116.104 185.538 115.18 184.82C114.384 184.178 113.742 183.626 113.255 183.164C112.793 182.677 112.382 182.086 112.023 181.393C111.689 180.675 111.522 179.853 111.522 178.929C111.522 177.569 111.971 176.452 112.87 175.58C113.794 174.681 115.026 174.232 116.566 174.232H119.915V176.542H117.143C115.321 176.542 114.41 177.402 114.41 179.122C114.41 179.789 114.615 180.367 115.026 180.854C115.436 181.342 116.078 181.919 116.951 182.587C117.746 183.203 118.401 183.767 118.914 184.281C119.428 184.768 119.864 185.397 120.223 186.167C120.583 186.912 120.762 187.797 120.762 188.824C120.762 190.646 120.275 192.006 119.299 192.905C118.35 193.803 117.002 194.252 115.257 194.252H111.522V191.942ZM128.301 194.252C127.377 194.252 126.517 194.021 125.721 193.559C124.951 193.097 124.335 192.468 123.873 191.673C123.437 190.877 123.219 189.979 123.219 188.978V186.976C123.219 185.769 123.514 184.756 124.104 183.934C124.72 183.113 125.477 182.535 126.376 182.202L131.15 180.431V178.621C131.15 178.005 130.957 177.505 130.572 177.12C130.213 176.709 129.738 176.504 129.148 176.504H124.797V174.232H129.417C130.829 174.232 131.945 174.656 132.767 175.503C133.614 176.324 134.037 177.453 134.037 178.891V194.252H128.301ZM131.15 191.904V182.856L127.762 184.127C127.094 184.383 126.62 184.73 126.337 185.166C126.081 185.603 125.952 186.296 125.952 187.245V189.401C125.952 190.094 126.209 190.685 126.722 191.172C127.236 191.66 127.852 191.904 128.57 191.904H131.15ZM138.281 174.232H140.668L141.015 175.349L142.593 174.887C143.671 174.553 144.518 174.322 145.134 174.194C145.776 174.04 146.379 173.963 146.944 173.963C147.868 173.963 148.548 174.284 148.984 174.925C149.421 175.567 149.639 176.401 149.639 177.428V194.252H146.559V178.429C146.559 177.684 146.507 177.171 146.405 176.889C146.302 176.581 146.045 176.427 145.635 176.427C145.429 176.427 144.005 176.837 141.361 177.659V194.252H138.281V174.232ZM159.504 194.252C158.093 194.252 156.976 193.829 156.155 192.982C155.333 192.135 154.923 190.993 154.923 189.555V176.542H152.613V174.232H154.923V168.419L158.003 167.264V174.232H161.083V176.542H158.003V189.825C158.003 190.441 158.17 190.954 158.503 191.365C158.863 191.75 159.337 191.942 159.928 191.942H161.083V194.252H159.504ZM169.977 194.252V167.302H173.057V194.252H169.977ZM181.65 194.252C180.238 194.252 179.109 193.829 178.262 192.982C177.441 192.135 177.03 190.993 177.03 189.555V179.314C177.03 177.646 177.492 176.337 178.416 175.387C179.34 174.438 180.713 173.963 182.535 173.963C184.358 173.963 185.718 174.438 186.616 175.387C187.54 176.337 188.002 177.646 188.002 179.314V181.085C188.002 182.163 187.694 182.985 187.078 183.549C186.462 184.088 185.654 184.499 184.653 184.781L180.11 186.052V189.825C180.11 190.441 180.29 190.954 180.649 191.365C181.034 191.75 181.522 191.942 182.112 191.942H186.27V194.252H181.65ZM182.458 182.972C183.305 182.741 183.87 182.574 184.152 182.471C184.46 182.343 184.666 182.163 184.768 181.932C184.871 181.701 184.922 181.316 184.922 180.777V178.66C184.922 177.838 184.704 177.235 184.268 176.85C183.857 176.465 183.28 176.273 182.535 176.273C181.817 176.273 181.226 176.478 180.764 176.889C180.328 177.299 180.11 177.89 180.11 178.66V183.626L182.458 182.972ZM189.913 191.942H193.186C194.289 191.942 195.085 191.647 195.573 191.057C196.086 190.441 196.343 189.645 196.343 188.67C196.343 187.9 196.112 187.245 195.65 186.706C195.188 186.167 194.495 185.538 193.571 184.82C192.775 184.178 192.133 183.626 191.646 183.164C191.184 182.677 190.773 182.086 190.414 181.393C190.08 180.675 189.913 179.853 189.913 178.929C189.913 177.569 190.362 176.452 191.261 175.58C192.185 174.681 193.417 174.232 194.957 174.232H198.306V176.542H195.534C193.712 176.542 192.801 177.402 192.801 179.122C192.801 179.789 193.006 180.367 193.417 180.854C193.827 181.342 194.469 181.919 195.342 182.587C196.137 183.203 196.792 183.767 197.305 184.281C197.819 184.768 198.255 185.397 198.614 186.167C198.974 186.912 199.153 187.797 199.153 188.824C199.153 190.646 198.666 192.006 197.69 192.905C196.741 193.803 195.393 194.252 193.648 194.252H189.913V191.942ZM208.401 167.302H211.481V173.308L216.64 175.118C217.538 175.426 218.282 175.965 218.873 176.735C219.489 177.479 219.797 178.403 219.797 179.507V189.401C219.797 190.787 219.309 191.942 218.334 192.866C217.358 193.79 216.165 194.252 214.753 194.252H208.401V167.302ZM214.099 191.942C214.817 191.942 215.433 191.698 215.947 191.211C216.46 190.723 216.717 190.12 216.717 189.401V180.123C216.717 179.147 216.576 178.442 216.293 178.005C216.037 177.543 215.575 177.21 214.907 177.004L211.481 175.849V191.942H214.099ZM228.329 194.522C226.533 194.522 225.134 194.073 224.133 193.174C223.158 192.25 222.67 190.98 222.67 189.363V179.122C222.67 177.505 223.158 176.247 224.133 175.349C225.134 174.425 226.533 173.963 228.329 173.963C230.126 173.963 231.512 174.425 232.487 175.349C233.488 176.247 233.989 177.505 233.989 179.122V189.363C233.989 190.98 233.488 192.25 232.487 193.174C231.512 194.073 230.126 194.522 228.329 194.522ZM228.329 192.135C229.151 192.135 229.792 191.904 230.254 191.442C230.742 190.954 230.986 190.261 230.986 189.363V179.122C230.986 178.223 230.742 177.543 230.254 177.081C229.792 176.594 229.151 176.35 228.329 176.35C227.508 176.35 226.854 176.594 226.366 177.081C225.904 177.543 225.673 178.223 225.673 179.122V189.363C225.673 190.261 225.904 190.954 226.366 191.442C226.854 191.904 227.508 192.135 228.329 192.135ZM237.84 174.232H240.227L240.573 175.349L242.152 174.887C243.23 174.553 244.077 174.322 244.693 174.194C245.334 174.04 245.938 173.963 246.502 173.963C247.426 173.963 248.106 174.284 248.543 174.925C248.979 175.567 249.197 176.401 249.197 177.428V194.252H246.117V178.429C246.117 177.684 246.066 177.171 245.963 176.889C245.861 176.581 245.604 176.427 245.193 176.427C244.988 176.427 243.563 176.837 240.92 177.659V194.252H237.84V174.232ZM253.48 174.232H255.867L256.214 175.349L257.792 174.887C258.87 174.553 259.717 174.322 260.333 174.194C260.975 174.04 261.578 173.963 262.143 173.963C263.067 173.963 263.747 174.284 264.183 174.925C264.62 175.567 264.838 176.401 264.838 177.428V194.252H261.758V178.429C261.758 177.684 261.707 177.171 261.604 176.889C261.501 176.581 261.245 176.427 260.834 176.427C260.629 176.427 259.204 176.837 256.56 177.659V194.252H253.48V174.232ZM273.125 194.252C271.713 194.252 270.584 193.829 269.737 192.982C268.916 192.135 268.505 190.993 268.505 189.555V179.314C268.505 177.646 268.967 176.337 269.891 175.387C270.815 174.438 272.188 173.963 274.011 173.963C275.833 173.963 277.193 174.438 278.092 175.387C279.016 176.337 279.478 177.646 279.478 179.314V181.085C279.478 182.163 279.17 182.985 278.554 183.549C277.938 184.088 277.129 184.499 276.128 184.781L271.585 186.052V189.825C271.585 190.441 271.765 190.954 272.124 191.365C272.509 191.75 272.997 191.942 273.587 191.942H277.745V194.252H273.125ZM273.934 182.972C274.781 182.741 275.345 182.574 275.628 182.471C275.936 182.343 276.141 182.163 276.244 181.932C276.346 181.701 276.398 181.316 276.398 180.777V178.66C276.398 177.838 276.179 177.235 275.743 176.85C275.332 176.465 274.755 176.273 274.011 176.273C273.292 176.273 272.702 176.478 272.24 176.889C271.803 177.299 271.585 177.89 271.585 178.66V183.626L273.934 182.972ZM281.388 191.942H284.661C285.765 191.942 286.56 191.647 287.048 191.057C287.561 190.441 287.818 189.645 287.818 188.67C287.818 187.9 287.587 187.245 287.125 186.706C286.663 186.167 285.97 185.538 285.046 184.82C284.25 184.178 283.609 183.626 283.121 183.164C282.659 182.677 282.248 182.086 281.889 181.393C281.555 180.675 281.388 179.853 281.388 178.929C281.388 177.569 281.838 176.452 282.736 175.58C283.66 174.681 284.892 174.232 286.432 174.232H289.781V176.542H287.009C285.187 176.542 284.276 177.402 284.276 179.122C284.276 179.789 284.481 180.367 284.892 180.854C285.303 181.342 285.944 181.919 286.817 182.587C287.613 183.203 288.267 183.767 288.78 184.281C289.294 184.768 289.73 185.397 290.089 186.167C290.449 186.912 290.628 187.797 290.628 188.824C290.628 190.646 290.141 192.006 289.165 192.905C288.216 193.803 286.868 194.252 285.123 194.252H281.388V191.942ZM299.876 174.232H306.113C307.525 174.232 308.718 174.694 309.693 175.618C310.694 176.542 311.195 177.697 311.195 179.083V189.44C311.195 190.826 310.707 191.981 309.732 192.905C308.757 193.803 307.563 194.252 306.151 194.252H302.956V200.412H299.876V174.232ZM305.497 191.981C306.216 191.981 306.832 191.737 307.345 191.249C307.858 190.762 308.115 190.158 308.115 189.44V179.083C308.115 178.365 307.858 177.761 307.345 177.274C306.832 176.786 306.216 176.542 305.497 176.542H302.956V191.981H305.497ZM314.84 170.96V167.88H317.92V170.96H314.84ZM314.84 194.252V174.232H317.92V194.252H314.84ZM328.399 172.731L323.24 169.959L324.857 168.111L329.477 171.537L328.399 172.731ZM326.551 194.252C325.14 194.252 324.01 193.829 323.163 192.982C322.342 192.135 321.931 190.993 321.931 189.555V179.314C321.931 177.646 322.393 176.337 323.317 175.387C324.241 174.438 325.614 173.963 327.437 173.963C329.259 173.963 330.619 174.438 331.518 175.387C332.442 176.337 332.904 177.646 332.904 179.314V181.085C332.904 182.163 332.596 182.985 331.98 183.549C331.364 184.088 330.555 184.499 329.554 184.781L325.011 186.052V189.825C325.011 190.441 325.191 190.954 325.55 191.365C325.935 191.75 326.423 191.942 327.013 191.942H331.171V194.252H326.551ZM327.36 182.972C328.207 182.741 328.771 182.574 329.054 182.471C329.362 182.343 329.567 182.163 329.67 181.932C329.772 181.701 329.824 181.316 329.824 180.777V178.66C329.824 177.838 329.606 177.235 329.169 176.85C328.759 176.465 328.181 176.273 327.437 176.273C326.718 176.273 326.128 176.478 325.666 176.889C325.229 177.299 325.011 177.89 325.011 178.66V183.626L327.36 182.972ZM340.205 194.252C338.793 194.252 337.664 193.829 336.817 192.982C335.995 192.135 335.585 190.993 335.585 189.555V179.314C335.585 177.697 336.008 176.452 336.855 175.58C337.702 174.681 338.934 174.232 340.551 174.232H344.825V176.542H340.628C340.038 176.542 339.563 176.748 339.204 177.158C338.844 177.543 338.665 178.044 338.665 178.66V189.825C338.665 190.441 338.844 190.954 339.204 191.365C339.589 191.75 340.076 191.942 340.667 191.942H344.825V194.252H340.205ZM351.516 194.252C350.104 194.252 348.975 193.829 348.128 192.982C347.307 192.135 346.896 190.993 346.896 189.555V179.314C346.896 177.646 347.358 176.337 348.282 175.387C349.206 174.438 350.579 173.963 352.402 173.963C354.224 173.963 355.584 174.438 356.483 175.387C357.407 176.337 357.869 177.646 357.869 179.314V181.085C357.869 182.163 357.561 182.985 356.945 183.549C356.329 184.088 355.52 184.499 354.519 184.781L349.976 186.052V189.825C349.976 190.441 350.156 190.954 350.515 191.365C350.9 191.75 351.388 191.942 351.978 191.942H356.136V194.252H351.516ZM352.325 182.972C353.172 182.741 353.736 182.574 354.019 182.471C354.327 182.343 354.532 182.163 354.635 181.932C354.737 181.701 354.789 181.316 354.789 180.777V178.66C354.789 177.838 354.57 177.235 354.134 176.85C353.723 176.465 353.146 176.273 352.402 176.273C351.683 176.273 351.093 176.478 350.631 176.889C350.194 177.299 349.976 177.89 349.976 178.66V183.626L352.325 182.972ZM359.78 191.942H363.052C364.156 191.942 364.951 191.647 365.439 191.057C365.952 190.441 366.209 189.645 366.209 188.67C366.209 187.9 365.978 187.245 365.516 186.706C365.054 186.167 364.361 185.538 363.437 184.82C362.641 184.178 362 183.626 361.512 183.164C361.05 182.677 360.639 182.086 360.28 181.393C359.946 180.675 359.78 179.853 359.78 178.929C359.78 177.569 360.229 176.452 361.127 175.58C362.051 174.681 363.283 174.232 364.823 174.232H368.173V176.542H365.401C363.578 176.542 362.667 177.402 362.667 179.122C362.667 179.789 362.872 180.367 363.283 180.854C363.694 181.342 364.335 181.919 365.208 182.587C366.004 183.203 366.658 183.767 367.172 184.281C367.685 184.768 368.121 185.397 368.481 186.167C368.84 186.912 369.02 187.797 369.02 188.824C369.02 190.646 368.532 192.006 367.557 192.905C366.607 193.803 365.259 194.252 363.514 194.252H359.78V191.942ZM370.128 198.988L371.784 194.252V190.287H374.864V194.214L372.515 198.988H370.128ZM387.76 194.252C386.349 194.252 385.219 193.829 384.372 192.982C383.551 192.135 383.14 190.993 383.14 189.555V179.314C383.14 177.646 383.602 176.337 384.526 175.387C385.45 174.438 386.823 173.963 388.646 173.963C390.468 173.963 391.828 174.438 392.727 175.387C393.651 176.337 394.113 177.646 394.113 179.314V181.085C394.113 182.163 393.805 182.985 393.189 183.549C392.573 184.088 391.764 184.499 390.763 184.781L386.22 186.052V189.825C386.22 190.441 386.4 190.954 386.759 191.365C387.144 191.75 387.632 191.942 388.222 191.942H392.38V194.252H387.76ZM388.569 182.972C389.416 182.741 389.98 182.574 390.263 182.471C390.571 182.343 390.776 182.163 390.879 181.932C390.981 181.701 391.033 181.316 391.033 180.777V178.66C391.033 177.838 390.815 177.235 390.378 176.85C389.968 176.465 389.39 176.273 388.646 176.273C387.927 176.273 387.337 176.478 386.875 176.889C386.438 177.299 386.22 177.89 386.22 178.66V183.626L388.569 182.972ZM402.761 194.252C401.349 194.252 400.233 193.829 399.412 192.982C398.59 192.135 398.18 190.993 398.18 189.555V176.542H395.87V174.232H398.18V168.419L401.26 167.264V174.232H404.34V176.542H401.26V189.825C401.26 190.441 401.426 190.954 401.76 191.365C402.119 191.75 402.594 191.942 403.185 191.942H404.34V194.252H402.761ZM418.277 194.252C416.66 194.252 415.351 193.777 414.35 192.828C413.349 191.878 412.849 190.608 412.849 189.016V179.43C412.849 178.326 413.144 177.389 413.734 176.619C414.35 175.849 415.107 175.323 416.006 175.041L421.165 173.231V167.302H424.245V194.252H418.277ZM421.165 191.942V175.772L417.738 176.927C417.071 177.133 416.596 177.466 416.314 177.928C416.057 178.365 415.929 179.07 415.929 180.046V189.016C415.929 189.94 416.198 190.659 416.737 191.172C417.276 191.686 418.008 191.942 418.932 191.942H421.165ZM432.877 194.252C431.466 194.252 430.336 193.829 429.489 192.982C428.668 192.135 428.257 190.993 428.257 189.555V179.314C428.257 177.646 428.719 176.337 429.643 175.387C430.567 174.438 431.941 173.963 433.763 173.963C435.585 173.963 436.946 174.438 437.844 175.387C438.768 176.337 439.23 177.646 439.23 179.314V181.085C439.23 182.163 438.922 182.985 438.306 183.549C437.69 184.088 436.881 184.499 435.88 184.781L431.337 186.052V189.825C431.337 190.441 431.517 190.954 431.876 191.365C432.261 191.75 432.749 191.942 433.339 191.942H437.497V194.252H432.877ZM433.686 182.972C434.533 182.741 435.098 182.574 435.38 182.471C435.688 182.343 435.893 182.163 435.996 181.932C436.099 181.701 436.15 181.316 436.15 180.777V178.66C436.15 177.838 435.932 177.235 435.495 176.85C435.085 176.465 434.507 176.273 433.763 176.273C433.044 176.273 432.454 176.478 431.992 176.889C431.556 177.299 431.337 177.89 431.337 178.66V183.626L433.686 182.972ZM86.2836 216.232H88.6706L89.0171 217.349L90.5956 216.887C91.6736 216.553 92.5206 216.322 93.1366 216.194C93.7783 216.04 94.3815 215.963 94.9461 215.963C96.0498 215.963 96.8198 216.45 97.2561 217.426C97.9748 217.169 98.9886 216.861 100.298 216.502C101.607 216.142 102.569 215.963 103.185 215.963C104.109 215.963 104.789 216.284 105.226 216.925C105.688 217.567 105.919 218.401 105.919 219.428V236.252H102.839V220.429C102.839 219.684 102.787 219.171 102.685 218.889C102.582 218.581 102.325 218.427 101.915 218.427C101.709 218.427 100.298 218.837 97.6796 219.659V236.252H94.5996V220.429C94.5996 219.684 94.5483 219.171 94.4456 218.889C94.343 218.581 94.0863 218.427 93.6756 218.427C93.4703 218.427 92.033 218.837 89.3636 219.659V236.252H86.2836V216.232ZM114.162 236.252C112.75 236.252 111.621 235.829 110.774 234.982C109.953 234.135 109.542 232.993 109.542 231.555V221.314C109.542 219.646 110.004 218.337 110.928 217.387C111.852 216.438 113.225 215.963 115.048 215.963C116.87 215.963 118.23 216.438 119.129 217.387C120.053 218.337 120.515 219.646 120.515 221.314V223.085C120.515 224.163 120.207 224.985 119.591 225.549C118.975 226.088 118.166 226.499 117.165 226.781L112.622 228.052V231.825C112.622 232.441 112.802 232.954 113.161 233.365C113.546 233.75 114.034 233.942 114.624 233.942H118.782V236.252H114.162ZM114.971 224.972C115.818 224.741 116.382 224.574 116.665 224.471C116.973 224.343 117.178 224.163 117.281 223.932C117.383 223.701 117.435 223.316 117.435 222.777V220.66C117.435 219.838 117.216 219.235 116.78 218.85C116.369 218.465 115.792 218.273 115.048 218.273C114.329 218.273 113.739 218.478 113.277 218.889C112.84 219.299 112.622 219.89 112.622 220.66V225.626L114.971 224.972ZM129.163 236.252C127.751 236.252 126.635 235.829 125.814 234.982C124.992 234.135 124.582 232.993 124.582 231.555V218.542H122.272V216.232H124.582V210.419L127.662 209.264V216.232H130.742V218.542H127.662V231.825C127.662 232.441 127.828 232.954 128.162 233.365C128.521 233.75 128.996 233.942 129.587 233.942H130.742V236.252H129.163ZM139.39 236.252C137.978 236.252 136.861 235.829 136.04 234.982C135.219 234.135 134.808 232.993 134.808 231.555V218.542H132.498V216.232H134.808V210.419L137.888 209.264V216.232H140.968V218.542H137.888V231.825C137.888 232.441 138.055 232.954 138.389 233.365C138.748 233.75 139.223 233.942 139.813 233.942H140.968V236.252H139.39ZM144.034 216.232H146.421L146.767 217.657L147.73 217.195C148.551 216.784 149.231 216.476 149.77 216.271C150.335 216.065 150.899 215.963 151.464 215.963V218.234C151.13 218.234 150.681 218.337 150.117 218.542C149.552 218.722 148.551 219.158 147.114 219.851V236.252H144.034V216.232ZM158.339 236.252C156.928 236.252 155.798 235.829 154.951 234.982C154.13 234.135 153.719 232.993 153.719 231.555V221.314C153.719 219.646 154.181 218.337 155.105 217.387C156.029 216.438 157.403 215.963 159.225 215.963C161.047 215.963 162.408 216.438 163.306 217.387C164.23 218.337 164.692 219.646 164.692 221.314V223.085C164.692 224.163 164.384 224.985 163.768 225.549C163.152 226.088 162.343 226.499 161.342 226.781L156.799 228.052V231.825C156.799 232.441 156.979 232.954 157.338 233.365C157.723 233.75 158.211 233.942 158.801 233.942H162.959V236.252H158.339ZM159.148 224.972C159.995 224.741 160.56 224.574 160.842 224.471C161.15 224.343 161.355 224.163 161.458 223.932C161.561 223.701 161.612 223.316 161.612 222.777V220.66C161.612 219.838 161.394 219.235 160.957 218.85C160.547 218.465 159.969 218.273 159.225 218.273C158.506 218.273 157.916 218.478 157.454 218.889C157.018 219.299 156.799 219.89 156.799 220.66V225.626L159.148 224.972ZM177.783 236.252C176.371 236.252 175.242 235.829 174.395 234.982C173.573 234.135 173.163 232.993 173.163 231.555V221.314C173.163 219.697 173.586 218.452 174.433 217.58C175.28 216.681 176.512 216.232 178.129 216.232H182.403V218.542H178.206C177.616 218.542 177.141 218.748 176.782 219.158C176.422 219.543 176.243 220.044 176.243 220.66V231.825C176.243 232.441 176.422 232.954 176.782 233.365C177.167 233.75 177.654 233.942 178.245 233.942H182.403V236.252H177.783ZM189.094 236.252C187.683 236.252 186.553 235.829 185.706 234.982C184.885 234.135 184.474 232.993 184.474 231.555V221.314C184.474 219.646 184.936 218.337 185.86 217.387C186.784 216.438 188.157 215.963 189.98 215.963C191.802 215.963 193.162 216.438 194.061 217.387C194.985 218.337 195.447 219.646 195.447 221.314V223.085C195.447 224.163 195.139 224.985 194.523 225.549C193.907 226.088 193.098 226.499 192.097 226.781L187.554 228.052V231.825C187.554 232.441 187.734 232.954 188.093 233.365C188.478 233.75 188.966 233.942 189.556 233.942H193.714V236.252H189.094ZM189.903 224.972C190.75 224.741 191.314 224.574 191.597 224.471C191.905 224.343 192.11 224.163 192.213 223.932C192.315 223.701 192.367 223.316 192.367 222.777V220.66C192.367 219.838 192.149 219.235 191.712 218.85C191.302 218.465 190.724 218.273 189.98 218.273C189.261 218.273 188.671 218.478 188.209 218.889C187.772 219.299 187.554 219.89 187.554 220.66V225.626L189.903 224.972ZM198.551 236.252V209.302H201.631V236.252H198.551ZM206.259 236.252V209.302H209.339V236.252H206.259ZM217.932 236.252C216.52 236.252 215.391 235.829 214.544 234.982C213.722 234.135 213.312 232.993 213.312 231.555V221.314C213.312 219.646 213.774 218.337 214.698 217.387C215.622 216.438 216.995 215.963 218.817 215.963C220.64 215.963 222 216.438 222.898 217.387C223.822 218.337 224.284 219.646 224.284 221.314V223.085C224.284 224.163 223.976 224.985 223.36 225.549C222.744 226.088 221.936 226.499 220.935 226.781L216.392 228.052V231.825C216.392 232.441 216.571 232.954 216.931 233.365C217.316 233.75 217.803 233.942 218.394 233.942H222.552V236.252H217.932ZM218.74 224.972C219.587 224.741 220.152 224.574 220.434 224.471C220.742 224.343 220.948 224.163 221.05 223.932C221.153 223.701 221.204 223.316 221.204 222.777V220.66C221.204 219.838 220.986 219.235 220.55 218.85C220.139 218.465 219.562 218.273 218.817 218.273C218.099 218.273 217.508 218.478 217.046 218.889C216.61 219.299 216.392 219.89 216.392 220.66V225.626L218.74 224.972ZM226.195 233.942H229.468C230.571 233.942 231.367 233.647 231.855 233.057C232.368 232.441 232.625 231.645 232.625 230.67C232.625 229.9 232.394 229.245 231.932 228.706C231.47 228.167 230.777 227.538 229.853 226.82C229.057 226.178 228.415 225.626 227.928 225.164C227.466 224.677 227.055 224.086 226.696 223.393C226.362 222.675 226.195 221.853 226.195 220.929C226.195 219.569 226.644 218.452 227.543 217.58C228.467 216.681 229.699 216.232 231.239 216.232H234.588V218.542H231.816C229.994 218.542 229.083 219.402 229.083 221.122C229.083 221.789 229.288 222.367 229.699 222.854C230.109 223.342 230.751 223.919 231.624 224.587C232.419 225.203 233.074 225.767 233.587 226.281C234.1 226.768 234.537 227.397 234.896 228.167C235.255 228.912 235.435 229.797 235.435 230.824C235.435 232.646 234.947 234.006 233.972 234.905C233.022 235.803 231.675 236.252 229.93 236.252H226.195V233.942ZM248.687 236.252C247.275 236.252 246.146 235.829 245.299 234.982C244.477 234.135 244.067 232.993 244.067 231.555V221.314C244.067 219.646 244.529 218.337 245.453 217.387C246.377 216.438 247.75 215.963 249.572 215.963C251.394 215.963 252.755 216.438 253.653 217.387C254.577 218.337 255.039 219.646 255.039 221.314V223.085C255.039 224.163 254.731 224.985 254.115 225.549C253.499 226.088 252.691 226.499 251.69 226.781L247.147 228.052V231.825C247.147 232.441 247.326 232.954 247.686 233.365C248.071 233.75 248.558 233.942 249.149 233.942H253.307V236.252H248.687ZM249.495 224.972C250.342 224.741 250.907 224.574 251.189 224.471C251.497 224.343 251.702 224.163 251.805 223.932C251.908 223.701 251.959 223.316 251.959 222.777V220.66C251.959 219.838 251.741 219.235 251.305 218.85C250.894 218.465 250.316 218.273 249.572 218.273C248.853 218.273 248.263 218.478 247.801 218.889C247.365 219.299 247.147 219.89 247.147 220.66V225.626L249.495 224.972ZM258.105 216.232H260.492L260.838 217.349L262.417 216.887C263.495 216.553 264.342 216.322 264.958 216.194C265.6 216.04 266.203 215.963 266.767 215.963C267.691 215.963 268.372 216.284 268.808 216.925C269.244 217.567 269.462 218.401 269.462 219.428V236.252H266.382V220.429C266.382 219.684 266.331 219.171 266.228 218.889C266.126 218.581 265.869 218.427 265.458 218.427C265.253 218.427 263.829 218.837 261.185 219.659V236.252H258.105V216.232ZM285.118 236.252C283.706 236.252 282.59 235.829 281.769 234.982C280.947 234.135 280.537 232.993 280.537 231.555V218.542H278.227V216.232H280.537V210.419L283.617 209.264V216.232H286.697V218.542H283.617V231.825C283.617 232.441 283.783 232.954 284.117 233.365C284.476 233.75 284.951 233.942 285.542 233.942H286.697V236.252H285.118ZM289.762 216.232H292.149L292.496 217.657L293.458 217.195C294.279 216.784 294.96 216.476 295.499 216.271C296.063 216.065 296.628 215.963 297.193 215.963V218.234C296.859 218.234 296.41 218.337 295.845 218.542C295.28 218.722 294.279 219.158 292.842 219.851V236.252H289.762V216.232ZM304.953 236.522C303.157 236.522 301.758 236.073 300.757 235.174C299.782 234.25 299.294 232.98 299.294 231.363V221.122C299.294 219.505 299.782 218.247 300.757 217.349C301.758 216.425 303.157 215.963 304.953 215.963C306.75 215.963 308.136 216.425 309.111 217.349C310.112 218.247 310.613 219.505 310.613 221.122V231.363C310.613 232.98 310.112 234.25 309.111 235.174C308.136 236.073 306.75 236.522 304.953 236.522ZM304.953 234.135C305.775 234.135 306.416 233.904 306.878 233.442C307.366 232.954 307.61 232.261 307.61 231.363V221.122C307.61 220.223 307.366 219.543 306.878 219.081C306.416 218.594 305.775 218.35 304.953 218.35C304.132 218.35 303.478 218.594 302.99 219.081C302.528 219.543 302.297 220.223 302.297 221.122V231.363C302.297 232.261 302.528 232.954 302.99 233.442C303.478 233.904 304.132 234.135 304.953 234.135ZM314.464 216.232H320.701C322.112 216.232 323.306 216.694 324.281 217.618C325.282 218.542 325.783 219.697 325.783 221.083V231.44C325.783 232.826 325.295 233.981 324.32 234.905C323.344 235.803 322.151 236.252 320.739 236.252H317.544V242.412H314.464V216.232ZM320.085 233.981C320.803 233.981 321.419 233.737 321.933 233.249C322.446 232.762 322.703 232.158 322.703 231.44V221.083C322.703 220.365 322.446 219.761 321.933 219.274C321.419 218.786 320.803 218.542 320.085 218.542H317.544V233.981H320.085ZM340.3 236.252C338.683 236.252 337.374 235.777 336.373 234.828C335.372 233.878 334.871 232.608 334.871 231.016V221.43C334.871 220.326 335.166 219.389 335.757 218.619C336.373 217.849 337.13 217.323 338.028 217.041L343.187 215.231V209.302H346.267V236.252H340.3ZM343.187 233.942V217.772L339.761 218.927C339.093 219.133 338.619 219.466 338.336 219.928C338.08 220.365 337.951 221.07 337.951 222.046V231.016C337.951 231.94 338.221 232.659 338.76 233.172C339.299 233.686 340.03 233.942 340.954 233.942H343.187ZM354.977 236.252C354.053 236.252 353.193 236.021 352.397 235.559C351.627 235.097 351.011 234.468 350.549 233.673C350.113 232.877 349.895 231.979 349.895 230.978V228.976C349.895 227.769 350.19 226.756 350.78 225.934C351.396 225.113 352.154 224.535 353.052 224.202L357.826 222.431V220.621C357.826 220.005 357.633 219.505 357.248 219.12C356.889 218.709 356.414 218.504 355.824 218.504H351.473V216.232H356.093C357.505 216.232 358.622 216.656 359.443 217.503C360.29 218.324 360.713 219.453 360.713 220.891V236.252H354.977ZM357.826 233.904V224.856L354.438 226.127C353.771 226.383 353.296 226.73 353.013 227.166C352.757 227.603 352.628 228.296 352.628 229.245V231.401C352.628 232.094 352.885 232.685 353.398 233.172C353.912 233.66 354.528 233.904 355.246 233.904H357.826ZM364.957 216.232H367.344L367.691 217.349L369.269 216.887C370.347 216.553 371.194 216.322 371.81 216.194C372.452 216.04 373.055 215.963 373.62 215.963C374.544 215.963 375.224 216.284 375.66 216.925C376.097 217.567 376.315 218.401 376.315 219.428V236.252H373.235V220.429C373.235 219.684 373.184 219.171 373.081 218.889C372.978 218.581 372.722 218.427 372.311 218.427C372.106 218.427 370.681 218.837 368.037 219.659V236.252H364.957V216.232ZM379.443 233.942H382.716C383.819 233.942 384.615 233.647 385.103 233.057C385.616 232.441 385.873 231.645 385.873 230.67C385.873 229.9 385.642 229.245 385.18 228.706C384.718 228.167 384.025 227.538 383.101 226.82C382.305 226.178 381.663 225.626 381.176 225.164C380.714 224.677 380.303 224.086 379.944 223.393C379.61 222.675 379.443 221.853 379.443 220.929C379.443 219.569 379.892 218.452 380.791 217.58C381.715 216.681 382.947 216.232 384.487 216.232H387.836V218.542H385.064C383.242 218.542 382.331 219.402 382.331 221.122C382.331 221.789 382.536 222.367 382.947 222.854C383.357 223.342 383.999 223.919 384.872 224.587C385.667 225.203 386.322 225.767 386.835 226.281C387.348 226.768 387.785 227.397 388.144 228.167C388.503 228.912 388.683 229.797 388.683 230.824C388.683 232.646 388.195 234.006 387.22 234.905C386.27 235.803 384.923 236.252 383.178 236.252H379.443V233.942ZM397.969 236.252V209.302H401.049V236.252H397.969ZM409.719 236.252C408.795 236.252 407.935 236.021 407.14 235.559C406.37 235.097 405.754 234.468 405.292 233.673C404.855 232.877 404.637 231.979 404.637 230.978V228.976C404.637 227.769 404.932 226.756 405.523 225.934C406.139 225.113 406.896 224.535 407.794 224.202L412.568 222.431V220.621C412.568 220.005 412.376 219.505 411.991 219.12C411.631 218.709 411.156 218.504 410.566 218.504H406.216V216.232H410.836C412.247 216.232 413.364 216.656 414.185 217.503C415.032 218.324 415.456 219.453 415.456 220.891V236.252H409.719ZM412.568 233.904V224.856L409.18 226.127C408.513 226.383 408.038 226.73 407.756 227.166C407.499 227.603 407.371 228.296 407.371 229.245V231.401C407.371 232.094 407.627 232.685 408.141 233.172C408.654 233.66 409.27 233.904 409.989 233.904H412.568ZM210.074 258.232H212.461L212.807 259.657L213.77 259.195C214.591 258.784 215.271 258.476 215.81 258.271C216.375 258.065 216.94 257.963 217.504 257.963V260.234C217.171 260.234 216.722 260.337 216.157 260.542C215.592 260.722 214.591 261.158 213.154 261.851V278.252H210.074V258.232ZM224.611 256.731L223.34 255.576L227.806 251.764L229.77 253.574L224.611 256.731ZM224.38 278.252C222.968 278.252 221.839 277.829 220.992 276.982C220.17 276.135 219.76 274.993 219.76 273.555V263.314C219.76 261.646 220.222 260.337 221.146 259.387C222.07 258.438 223.443 257.963 225.265 257.963C227.088 257.963 228.448 258.438 229.346 259.387C230.27 260.337 230.732 261.646 230.732 263.314V265.085C230.732 266.163 230.424 266.985 229.808 267.549C229.192 268.088 228.384 268.499 227.383 268.781L222.84 270.052V273.825C222.84 274.441 223.019 274.954 223.379 275.365C223.764 275.75 224.251 275.942 224.842 275.942H229V278.252H224.38ZM225.188 266.972C226.035 266.741 226.6 266.574 226.882 266.471C227.19 266.343 227.396 266.163 227.498 265.932C227.601 265.701 227.652 265.316 227.652 264.777V262.66C227.652 261.838 227.434 261.235 226.998 260.85C226.587 260.465 226.01 260.273 225.265 260.273C224.547 260.273 223.956 260.478 223.494 260.889C223.058 261.299 222.84 261.89 222.84 262.66V267.626L225.188 266.972ZM232.643 275.942H235.916C237.019 275.942 237.815 275.647 238.303 275.057C238.816 274.441 239.073 273.645 239.073 272.67C239.073 271.9 238.842 271.245 238.38 270.706C237.918 270.167 237.225 269.538 236.301 268.82C235.505 268.178 234.863 267.626 234.376 267.164C233.914 266.677 233.503 266.086 233.144 265.393C232.81 264.675 232.643 263.853 232.643 262.929C232.643 261.569 233.092 260.452 233.991 259.58C234.915 258.681 236.147 258.232 237.687 258.232H241.036V260.542H238.264C236.442 260.542 235.531 261.402 235.531 263.122C235.531 263.789 235.736 264.367 236.147 264.854C236.557 265.342 237.199 265.919 238.072 266.587C238.867 267.203 239.522 267.767 240.035 268.281C240.548 268.768 240.985 269.397 241.344 270.167C241.703 270.912 241.883 271.797 241.883 272.824C241.883 274.646 241.395 276.006 240.42 276.905C239.47 277.803 238.123 278.252 236.378 278.252H232.643V275.942ZM249.345 278.252C247.933 278.252 246.804 277.829 245.957 276.982C245.135 276.135 244.725 274.993 244.725 273.555V263.314C244.725 261.646 245.187 260.337 246.111 259.387C247.035 258.438 248.408 257.963 250.23 257.963C252.052 257.963 253.413 258.438 254.311 259.387C255.235 260.337 255.697 261.646 255.697 263.314V265.085C255.697 266.163 255.389 266.985 254.773 267.549C254.157 268.088 253.349 268.499 252.348 268.781L247.805 270.052V273.825C247.805 274.441 247.984 274.954 248.344 275.365C248.729 275.75 249.216 275.942 249.807 275.942H253.965V278.252H249.345ZM250.153 266.972C251 266.741 251.565 266.574 251.847 266.471C252.155 266.343 252.36 266.163 252.463 265.932C252.566 265.701 252.617 265.316 252.617 264.777V262.66C252.617 261.838 252.399 261.235 251.963 260.85C251.552 260.465 250.974 260.273 250.23 260.273C249.511 260.273 248.921 260.478 248.459 260.889C248.023 261.299 247.805 261.89 247.805 262.66V267.626L250.153 266.972ZM258.763 258.232H261.15L261.496 259.657L262.459 259.195C263.28 258.784 263.96 258.476 264.499 258.271C265.064 258.065 265.629 257.963 266.193 257.963V260.234C265.86 260.234 265.411 260.337 264.846 260.542C264.281 260.722 263.28 261.158 261.843 261.851V278.252H258.763V258.232ZM271.914 278.252L267.332 258.232H270.528L273.492 274.364L276.418 258.232H279.614L275.032 278.252H271.914ZM286.491 278.252C285.079 278.252 283.95 277.829 283.103 276.982C282.282 276.135 281.871 274.993 281.871 273.555V263.314C281.871 261.646 282.333 260.337 283.257 259.387C284.181 258.438 285.554 257.963 287.377 257.963C289.199 257.963 290.559 258.438 291.458 259.387C292.382 260.337 292.844 261.646 292.844 263.314V265.085C292.844 266.163 292.536 266.985 291.92 267.549C291.304 268.088 290.495 268.499 289.494 268.781L284.951 270.052V273.825C284.951 274.441 285.131 274.954 285.49 275.365C285.875 275.75 286.363 275.942 286.953 275.942H291.111V278.252H286.491ZM287.3 266.972C288.147 266.741 288.711 266.574 288.994 266.471C289.302 266.343 289.507 266.163 289.61 265.932C289.712 265.701 289.764 265.316 289.764 264.777V262.66C289.764 261.838 289.545 261.235 289.109 260.85C288.698 260.465 288.121 260.273 287.377 260.273C286.658 260.273 286.068 260.478 285.606 260.889C285.169 261.299 284.951 261.89 284.951 262.66V267.626L287.3 266.972Z" fill="#2B232B"/>
</svg>
