<svg width="1240" height="279" viewBox="0 0 1240 279" fill="none" xmlns="http://www.w3.org/2000/svg">
<rect x="80.8187" y="40.7006" width="1154.82" height="233.662" fill="#FFF1E9" stroke="black" stroke-width="7.51635"/>
<path d="M416.556 176.032V139.317H421.172V154.842H431.609V139.317H436.225V176.032H431.609V158.304H421.172V176.032H416.556ZM448.681 176.032C446.758 176.032 445.219 175.455 444.065 174.301C442.946 173.147 442.387 171.591 442.387 169.633V155.681C442.387 153.408 443.016 151.625 444.275 150.331C445.534 149.037 447.404 148.391 449.887 148.391C452.37 148.391 454.223 149.037 455.447 150.331C456.706 151.625 457.335 153.408 457.335 155.681V158.094C457.335 159.562 456.915 160.681 456.076 161.451C455.237 162.185 454.136 162.744 452.772 163.129L446.583 164.86V170C446.583 170.839 446.827 171.538 447.317 172.098C447.842 172.622 448.506 172.885 449.31 172.885H454.975V176.032H448.681ZM449.782 160.664C450.936 160.349 451.705 160.122 452.09 159.982C452.51 159.807 452.789 159.562 452.929 159.248C453.069 158.933 453.139 158.408 453.139 157.674V154.789C453.139 153.67 452.842 152.849 452.247 152.324C451.688 151.8 450.901 151.538 449.887 151.538C448.908 151.538 448.104 151.817 447.474 152.377C446.88 152.936 446.583 153.74 446.583 154.789V161.555L449.782 160.664ZM461.354 181.277H462.98C463.924 181.277 464.781 180.822 465.55 179.913C466.32 179.039 466.704 177.728 466.704 175.979L459.414 148.758H463.767L468.33 170.892L472.002 148.758H476.145L469.746 179.179C469.012 182.675 466.984 184.424 463.662 184.424H461.354V181.277ZM479.057 176.032V170.629H483.253V176.032H479.057ZM497.216 176.032V139.317H504.192L511.22 161.031H511.588L518.773 139.317H525.487V176.032H520.871V144.824L513.843 166.276H508.86L501.832 144.771V176.032H497.216ZM538.601 176.399C536.154 176.399 534.248 175.787 532.884 174.563C531.556 173.304 530.891 171.573 530.891 169.371V155.419C530.891 153.216 531.556 151.503 532.884 150.279C534.248 149.02 536.154 148.391 538.601 148.391C541.049 148.391 542.937 149.02 544.266 150.279C545.63 151.503 546.311 153.216 546.311 155.419V169.371C546.311 171.573 545.63 173.304 544.266 174.563C542.937 175.787 541.049 176.399 538.601 176.399ZM538.601 173.147C539.72 173.147 540.594 172.832 541.224 172.203C541.888 171.538 542.22 170.594 542.22 169.371V155.419C542.22 154.195 541.888 153.268 541.224 152.639C540.594 151.975 539.72 151.642 538.601 151.642C537.482 151.642 536.591 151.975 535.926 152.639C535.297 153.268 534.982 154.195 534.982 155.419V169.371C534.982 170.594 535.297 171.538 535.926 172.203C536.591 172.832 537.482 173.147 538.601 173.147ZM551.558 144.299V140.103H555.754V144.299H551.558ZM551.558 176.032V148.758H555.754V176.032H551.558ZM558.858 182.483L561.114 176.032V170.629H565.31V175.979L562.11 182.483H558.858ZM583.194 176.032C581.27 176.032 579.732 175.455 578.578 174.301C577.459 173.147 576.9 171.591 576.9 169.633V155.681C576.9 153.478 577.477 151.782 578.63 150.593C579.784 149.37 581.463 148.758 583.666 148.758H589.488V151.905H583.771C582.966 151.905 582.319 152.184 581.83 152.744C581.34 153.268 581.096 153.95 581.096 154.789V170C581.096 170.839 581.34 171.538 581.83 172.098C582.354 172.622 583.019 172.885 583.823 172.885H589.488V176.032H583.194ZM592.677 149.282L593.359 139.317H597.555L597.135 149.282H592.677ZM609.206 176.032C607.283 176.032 605.745 175.455 604.591 174.301C603.472 173.147 602.912 171.591 602.912 169.633V155.681C602.912 153.408 603.542 151.625 604.801 150.331C606.059 149.037 607.93 148.391 610.413 148.391C612.895 148.391 614.749 149.037 615.972 150.331C617.231 151.625 617.861 153.408 617.861 155.681V158.094C617.861 159.562 617.441 160.681 616.602 161.451C615.763 162.185 614.661 162.744 613.297 163.129L607.108 164.86V170C607.108 170.839 607.353 171.538 607.843 172.098C608.367 172.622 609.032 172.885 609.836 172.885H615.5V176.032H609.206ZM610.308 160.664C611.462 160.349 612.231 160.122 612.616 159.982C613.035 159.807 613.315 159.562 613.455 159.248C613.595 158.933 613.665 158.408 613.665 157.674V154.789C613.665 153.67 613.367 152.849 612.773 152.324C612.214 151.8 611.427 151.538 610.413 151.538C609.434 151.538 608.629 151.817 608 152.377C607.406 152.936 607.108 153.74 607.108 154.789V161.555L610.308 160.664ZM620.464 172.885H624.922C626.426 172.885 627.51 172.483 628.174 171.678C628.873 170.839 629.223 169.755 629.223 168.426C629.223 167.377 628.908 166.486 628.279 165.751C627.65 165.017 626.705 164.16 625.447 163.181C624.363 162.307 623.488 161.555 622.824 160.926C622.195 160.262 621.635 159.457 621.146 158.513C620.691 157.534 620.464 156.415 620.464 155.157C620.464 153.303 621.076 151.782 622.3 150.593C623.558 149.37 625.237 148.758 627.335 148.758H631.898V151.905H628.122C625.639 151.905 624.398 153.076 624.398 155.419C624.398 156.328 624.677 157.115 625.237 157.779C625.796 158.443 626.67 159.23 627.859 160.139C628.943 160.979 629.835 161.748 630.534 162.447C631.234 163.111 631.828 163.968 632.318 165.017C632.807 166.031 633.052 167.238 633.052 168.636C633.052 171.119 632.388 172.972 631.059 174.196C629.765 175.42 627.929 176.032 625.552 176.032H620.464V172.885ZM645.367 176.032C643.444 176.032 641.923 175.455 640.804 174.301C639.685 173.147 639.126 171.591 639.126 169.633V151.905H635.979V148.758H639.126V140.838L643.322 139.264V148.758H647.518V151.905H643.322V170C643.322 170.839 643.549 171.538 644.004 172.098C644.493 172.622 645.14 172.885 645.944 172.885H647.518V176.032H645.367ZM659.635 176.032V139.317H663.831V176.032H659.635ZM675.642 176.032C674.383 176.032 673.212 175.717 672.128 175.088C671.079 174.458 670.24 173.601 669.61 172.518C669.016 171.434 668.719 170.21 668.719 168.846V166.119C668.719 164.475 669.121 163.094 669.925 161.975C670.764 160.856 671.796 160.069 673.02 159.615L679.523 157.202V154.737C679.523 153.898 679.261 153.216 678.737 152.691C678.247 152.132 677.6 151.852 676.796 151.852H670.869V148.758H677.163C679.086 148.758 680.607 149.335 681.726 150.489C682.88 151.607 683.457 153.146 683.457 155.104V176.032H675.642ZM679.523 172.832V160.506L674.908 162.237C673.999 162.587 673.352 163.059 672.967 163.653C672.617 164.248 672.443 165.192 672.443 166.486V169.423C672.443 170.367 672.792 171.171 673.492 171.836C674.191 172.5 675.03 172.832 676.009 172.832H679.523ZM695.553 172.885H700.012C701.515 172.885 702.599 172.483 703.264 171.678C703.963 170.839 704.313 169.755 704.313 168.426C704.313 167.377 703.998 166.486 703.369 165.751C702.739 165.017 701.795 164.16 700.536 163.181C699.452 162.307 698.578 161.555 697.914 160.926C697.284 160.262 696.725 159.457 696.235 158.513C695.781 157.534 695.553 156.415 695.553 155.157C695.553 153.303 696.165 151.782 697.389 150.593C698.648 149.37 700.326 148.758 702.424 148.758H706.988V151.905H703.211C700.729 151.905 699.487 153.076 699.487 155.419C699.487 156.328 699.767 157.115 700.326 157.779C700.886 158.443 701.76 159.23 702.949 160.139C704.033 160.979 704.925 161.748 705.624 162.447C706.323 163.111 706.918 163.968 707.407 165.017C707.897 166.031 708.141 167.238 708.141 168.636C708.141 171.119 707.477 172.972 706.148 174.196C704.855 175.42 703.019 176.032 700.641 176.032H695.553V172.885ZM718.621 176.032C716.698 176.032 715.159 175.455 714.006 174.301C712.887 173.147 712.327 171.591 712.327 169.633V155.681C712.327 153.478 712.904 151.782 714.058 150.593C715.212 149.37 716.89 148.758 719.093 148.758H724.915V151.905H719.198C718.394 151.905 717.747 152.184 717.257 152.744C716.768 153.268 716.523 153.95 716.523 154.789V170C716.523 170.839 716.768 171.538 717.257 172.098C717.782 172.622 718.446 172.885 719.251 172.885H724.915V176.032H718.621ZM728.576 144.299V140.103H732.772V144.299H728.576ZM728.576 176.032V148.758H732.772V176.032H728.576ZM744.531 176.032C742.608 176.032 741.07 175.455 739.916 174.301C738.797 173.147 738.237 171.591 738.237 169.633V155.681C738.237 153.408 738.867 151.625 740.126 150.331C741.384 149.037 743.255 148.391 745.738 148.391C748.22 148.391 750.074 149.037 751.298 150.331C752.556 151.625 753.186 153.408 753.186 155.681V158.094C753.186 159.562 752.766 160.681 751.927 161.451C751.088 162.185 749.986 162.744 748.623 163.129L742.433 164.86V170C742.433 170.839 742.678 171.538 743.168 172.098C743.692 172.622 744.357 172.885 745.161 172.885H750.825V176.032H744.531ZM745.633 160.664C746.787 160.349 747.556 160.122 747.941 159.982C748.36 159.807 748.64 159.562 748.78 159.248C748.92 158.933 748.99 158.408 748.99 157.674V154.789C748.99 153.67 748.693 152.849 748.098 152.324C747.539 151.8 746.752 151.538 745.738 151.538C744.759 151.538 743.955 151.817 743.325 152.377C742.731 152.936 742.433 153.74 742.433 154.789V161.555L745.633 160.664ZM757.362 148.758H760.614L761.086 150.279L763.237 149.649C764.705 149.195 765.859 148.88 766.699 148.705C767.573 148.495 768.394 148.391 769.164 148.391C770.423 148.391 771.349 148.828 771.944 149.702C772.538 150.576 772.835 151.712 772.835 153.111V176.032H768.639V154.475C768.639 153.461 768.569 152.761 768.429 152.377C768.29 151.957 767.94 151.747 767.38 151.747C767.101 151.747 765.16 152.307 761.558 153.426V176.032H757.362V148.758ZM786.276 176.032C784.352 176.032 782.831 175.455 781.712 174.301C780.593 173.147 780.034 171.591 780.034 169.633V151.905H776.887V148.758H780.034V140.838L784.23 139.264V148.758H788.426V151.905H784.23V170C784.23 170.839 784.457 171.538 784.912 172.098C785.401 172.622 786.048 172.885 786.852 172.885H788.426V176.032H786.276ZM792.602 144.299V140.103H796.798V144.299H792.602ZM792.602 176.032V148.758H796.798V176.032H792.602ZM804.414 152.219H801.267V148.758H804.414V145.716C804.414 143.757 804.973 142.201 806.092 141.048C807.211 139.894 808.732 139.317 810.655 139.317H812.963V142.464H811.39C810.585 142.464 809.921 142.743 809.397 143.303C808.872 143.862 808.61 144.544 808.61 145.348V148.758H812.858V152.219H808.61V176.032H804.414V152.219ZM816.266 144.299V140.103H820.462V144.299H816.266ZM816.266 176.032V148.758H820.462V176.032H816.266ZM836.994 176.032H832.641C830.718 176.032 829.092 175.42 827.763 174.196C826.434 172.937 825.77 171.364 825.77 169.475V155.366C825.77 153.478 826.434 151.905 827.763 150.646C829.127 149.387 830.77 148.758 832.693 148.758H841.243V184.424H836.994V176.032ZM837.047 172.885V151.905H833.533C832.554 151.905 831.714 152.237 831.015 152.901C830.316 153.566 829.966 154.387 829.966 155.366V169.423C829.966 170.402 830.316 171.224 831.015 171.888C831.714 172.552 832.554 172.885 833.533 172.885H837.047ZM850.762 176.399C849.503 176.399 848.559 175.962 847.929 175.088C847.335 174.213 847.038 173.077 847.038 171.678V148.758H851.234V170.315C851.234 171.294 851.304 171.993 851.443 172.413C851.583 172.832 851.916 173.042 852.44 173.042C852.685 173.042 854.66 172.518 858.367 171.469V148.758H862.563V176.032H859.573L858.786 174.248C858.227 174.458 857.807 174.598 857.528 174.668C855.884 175.262 854.555 175.699 853.541 175.979C852.527 176.259 851.601 176.399 850.762 176.399ZM874.325 176.032C872.402 176.032 870.863 175.455 869.709 174.301C868.59 173.147 868.031 171.591 868.031 169.633V155.681C868.031 153.408 868.66 151.625 869.919 150.331C871.178 149.037 873.048 148.391 875.531 148.391C878.014 148.391 879.867 149.037 881.091 150.331C882.35 151.625 882.979 153.408 882.979 155.681V158.094C882.979 159.562 882.559 160.681 881.72 161.451C880.881 162.185 879.78 162.744 878.416 163.129L872.227 164.86V170C872.227 170.839 872.472 171.538 872.961 172.098C873.486 172.622 874.15 172.885 874.954 172.885H880.619V176.032H874.325ZM875.426 160.664C876.58 160.349 877.349 160.122 877.734 159.982C878.154 159.807 878.433 159.562 878.573 159.248C878.713 158.933 878.783 158.408 878.783 157.674V154.789C878.783 153.67 878.486 152.849 877.891 152.324C877.332 151.8 876.545 151.538 875.531 151.538C874.552 151.538 873.748 151.817 873.118 152.377C872.524 152.936 872.227 153.74 872.227 154.789V161.555L875.426 160.664ZM895.358 167.377V139.317H899.554V167.377H895.358ZM895.358 176.032V170.629H899.554V176.032H895.358Z" fill="#1E1E1E"/>
<rect width="448.945" height="88.9178" fill="black"/>
<path d="M132.344 62.9589C131.94 62.9589 131.738 62.757 131.738 62.3532V57.7986C131.738 57.5886 131.746 57.419 131.762 57.2898C131.795 57.1606 131.892 57.0556 132.053 56.9749L138.401 54.0677V49.7553L132.15 45.879C131.876 45.7175 131.738 45.4752 131.738 45.1522V36.261C131.738 36.0026 131.754 35.8169 131.787 35.7038C131.819 35.5746 131.94 35.4373 132.15 35.2919L138.522 30.9796C138.683 30.8827 138.829 30.81 138.958 30.7615C139.103 30.6969 139.281 30.6646 139.491 30.6646H146.032C146.436 30.6646 146.638 30.8665 146.638 31.2703V35.3889C146.638 35.7442 146.517 35.9864 146.274 36.1157L139.927 38.7321V43.2141L146.274 46.8481C146.517 46.9611 146.638 47.2196 146.638 47.6233V58.162C146.638 58.2912 146.613 58.4285 146.565 58.5738C146.533 58.7192 146.452 58.8242 146.323 58.8888L138.716 62.6681C138.619 62.7166 138.498 62.7812 138.352 62.862C138.223 62.9266 138.094 62.9589 137.965 62.9589H132.344ZM160.881 62.9589C160.51 62.9589 160.187 62.8539 159.912 62.6439L155.963 59.0341L151.966 53.8254C151.788 53.5993 151.675 53.462 151.627 53.4135C151.578 53.3489 151.554 53.2036 151.554 52.9775V40.6218C151.554 40.3957 151.578 40.2503 151.627 40.1857C151.691 40.1211 151.804 39.9839 151.966 39.7739L155.672 34.977L159.912 30.9796C160.09 30.8342 160.227 30.7454 160.324 30.7131C160.437 30.6808 160.623 30.6646 160.881 30.6646H166.865C167.269 30.6646 167.471 30.8665 167.471 31.2703V35.1466C167.471 35.2758 167.455 35.4131 167.422 35.5584C167.406 35.6876 167.325 35.8007 167.18 35.8976L162.625 39.0229L159.646 42.8507V50.7728L162.674 54.6006L167.18 57.7017C167.309 57.7824 167.39 57.8793 167.422 57.9924C167.455 58.1054 167.471 58.2266 167.471 58.3558V62.3532C167.471 62.757 167.269 62.9589 166.865 62.9589H160.881ZM172.77 62.9589C172.367 62.9589 172.165 62.757 172.165 62.3532V31.2703C172.165 30.8665 172.367 30.6646 172.77 30.6646H179.627C180.03 30.6646 180.232 30.8665 180.232 31.2703V62.3532C180.232 62.757 180.03 62.9589 179.627 62.9589H172.77ZM186.635 62.9589C186.231 62.9589 186.029 62.757 186.029 62.3532V31.2703C186.029 30.8665 186.231 30.6646 186.635 30.6646H203.521C203.924 30.6646 204.126 30.8665 204.126 31.2703V36.5033C204.126 36.9071 203.924 37.1089 203.521 37.1089H194.096V43.9893H202.697C203.101 43.9893 203.302 44.1912 203.302 44.595V49.0285C203.302 49.4323 203.101 49.6342 202.697 49.6342H194.096V56.4903H203.521C203.924 56.4903 204.126 56.6922 204.126 57.096V62.3532C204.126 62.757 203.924 62.9589 203.521 62.9589H186.635ZM210.53 62.9589C210.126 62.9589 209.924 62.757 209.924 62.3532V31.2703C209.924 30.8665 210.126 30.6646 210.53 30.6646H224.291C224.678 30.6646 225.001 30.7938 225.26 31.0523L230.105 35.8976C230.38 36.1722 230.517 36.4952 230.517 36.8667V62.3532C230.517 62.757 230.315 62.9589 229.911 62.9589H223.055C222.651 62.9589 222.45 62.757 222.45 62.3532V37.1089H217.992V62.3532C217.992 62.757 217.79 62.9589 217.386 62.9589H210.53ZM241.779 62.9589C241.375 62.9589 241.173 62.757 241.173 62.3532V37.1089H236.933C236.53 37.1089 236.328 36.9071 236.328 36.5033V31.2703C236.328 30.8665 236.53 30.6646 236.933 30.6646H253.48C253.884 30.6646 254.086 30.8665 254.086 31.2703V36.5033C254.086 36.9071 253.884 37.1089 253.48 37.1089H249.241V62.3532C249.241 62.757 249.039 62.9589 248.635 62.9589H241.779ZM260.498 62.9589C260.094 62.9589 259.892 62.757 259.892 62.3532V31.2703C259.892 30.8665 260.094 30.6646 260.498 30.6646H267.354C267.758 30.6646 267.959 30.8665 267.959 31.2703V62.3532C267.959 62.757 267.758 62.9589 267.354 62.9589H260.498ZM274.362 62.9589C273.958 62.9589 273.756 62.757 273.756 62.3532V31.2703C273.756 30.8665 273.958 30.6646 274.362 30.6646H290.957C291.361 30.6646 291.563 30.8665 291.563 31.2703V36.5033C291.563 36.9071 291.361 37.1089 290.957 37.1089H281.824V45.2007H289.746C290.149 45.2007 290.351 45.4026 290.351 45.8063V51.0393C290.351 51.4431 290.149 51.645 289.746 51.645H281.824V62.3532C281.824 62.757 281.622 62.9589 281.218 62.9589H274.362ZM296.033 62.9589C295.63 62.9589 295.428 62.757 295.428 62.3532V31.2703C295.428 30.8665 295.63 30.6646 296.033 30.6646H302.889C303.293 30.6646 303.495 30.8665 303.495 31.2703V62.3532C303.495 62.757 303.293 62.9589 302.889 62.9589H296.033ZM315.518 62.9589C315.13 62.9589 314.807 62.8216 314.549 62.547L309.704 57.7017C309.429 57.4432 309.292 57.1202 309.292 56.7326V36.8667C309.292 36.4952 309.429 36.1722 309.704 35.8976L314.549 31.0523C314.807 30.7938 315.13 30.6646 315.518 30.6646H325.281C325.653 30.6646 325.976 30.7938 326.25 31.0523L331.096 35.8976C331.37 36.1722 331.508 36.4952 331.508 36.8667V56.7326C331.508 57.1202 331.37 57.4432 331.096 57.7017L326.25 62.547C325.976 62.8216 325.653 62.9589 325.281 62.9589H315.518ZM318.086 67.0047C317.682 67.0047 317.48 66.8028 317.48 66.3991V62.9589H323.658L324.724 66.0599C324.805 66.3022 324.765 66.5202 324.603 66.714C324.458 66.9078 324.264 67.0047 324.022 67.0047H318.086ZM318.692 56.4903H322.083C322.762 56.4903 323.101 56.0381 323.101 55.1336V38.4899C323.101 37.5693 322.762 37.1089 322.083 37.1089H318.692C318.03 37.1089 317.698 37.5693 317.698 38.4899V55.1336C317.698 56.0381 318.03 56.4903 318.692 56.4903ZM343.53 62.9589C343.143 62.9589 342.82 62.8216 342.561 62.547L337.716 57.7017C337.441 57.4432 337.304 57.1202 337.304 56.7326V31.2703C337.304 30.8665 337.506 30.6646 337.91 30.6646H344.766C345.17 30.6646 345.371 30.8665 345.371 31.2703V56.0058C345.371 56.3288 345.533 56.4903 345.856 56.4903H349.829V31.2703C349.829 30.8665 350.031 30.6646 350.435 30.6646H357.291C357.695 30.6646 357.897 30.8665 357.897 31.2703V62.3532C357.897 62.757 357.695 62.9589 357.291 62.9589H343.53ZM364.313 62.9589C363.909 62.9589 363.707 62.757 363.707 62.3532V31.2703C363.707 30.8665 363.909 30.6646 364.313 30.6646H381.199C381.603 30.6646 381.805 30.8665 381.805 31.2703V36.5033C381.805 36.9071 381.603 37.1089 381.199 37.1089H371.775V43.9893H380.375C380.779 43.9893 380.981 44.1912 380.981 44.595V49.0285C380.981 49.4323 380.779 49.6342 380.375 49.6342H371.775V56.4903H381.199C381.603 56.4903 381.805 56.6922 381.805 57.096V62.3532C381.805 62.757 381.603 62.9589 381.199 62.9589H364.313Z" fill="#FFF1E9"/>
</svg>
