<svg width="1240" height="279" viewBox="0 0 1240 279" fill="none" xmlns="http://www.w3.org/2000/svg">
<rect x="80.8185" y="40.7006" width="1154.82" height="233.662" fill="#FFF1E9" stroke="black" stroke-width="7.51635"/>
<path d="M272.14 157.532L264.377 120.817H268.94L275.182 153.073L280.06 130.363H284.99L289.92 153.073L296.109 120.817H300.672L293.067 157.532H286.878L282.577 135.555L278.329 157.532H272.14ZM305.992 125.799V121.603H310.188V125.799H305.992ZM305.992 157.532V130.258H310.188V157.532H305.992ZM316.492 130.258H319.744L320.216 131.779L322.366 131.149C323.835 130.695 324.989 130.38 325.828 130.205C326.702 129.995 327.524 129.89 328.293 129.89C329.552 129.89 330.478 130.328 331.073 131.202C331.667 132.076 331.965 133.212 331.965 134.611V157.532H327.769V135.975C327.769 134.961 327.699 134.261 327.559 133.877C327.419 133.457 327.069 133.247 326.51 133.247C326.23 133.247 324.289 133.807 320.688 134.926V157.532H316.492V130.258ZM344.723 157.532C342.52 157.532 340.737 156.885 339.373 155.591C338.009 154.297 337.328 152.566 337.328 150.398V137.338C337.328 135.835 337.73 134.559 338.534 133.51C339.373 132.461 340.405 131.744 341.628 131.359L348.657 128.894V120.817H352.853V157.532H344.723ZM348.657 154.385V132.356L343.989 133.929C343.08 134.209 342.433 134.663 342.048 135.293C341.698 135.887 341.524 136.849 341.524 138.178V150.398C341.524 151.657 341.891 152.636 342.625 153.336C343.359 154.035 344.356 154.385 345.615 154.385H348.657ZM365.82 157.899C363.372 157.899 361.466 157.287 360.103 156.063C358.774 154.804 358.11 153.073 358.11 150.87V136.919C358.11 134.716 358.774 133.002 360.103 131.779C361.466 130.52 363.372 129.89 365.82 129.89C368.267 129.89 370.156 130.52 371.484 131.779C372.848 133.002 373.53 134.716 373.53 136.919V150.87C373.53 153.073 372.848 154.804 371.484 156.063C370.156 157.287 368.267 157.899 365.82 157.899ZM365.82 154.647C366.939 154.647 367.813 154.332 368.442 153.703C369.107 153.038 369.439 152.094 369.439 150.87V136.919C369.439 135.695 369.107 134.768 368.442 134.139C367.813 133.475 366.939 133.142 365.82 133.142C364.701 133.142 363.809 133.475 363.145 134.139C362.515 134.768 362.201 135.695 362.201 136.919V150.87C362.201 152.094 362.515 153.038 363.145 153.703C363.809 154.332 364.701 154.647 365.82 154.647ZM381.661 157.532L376.678 130.258H380.874L383.916 153.126L386.381 137.233H391.731L394.197 153.126L397.239 130.258H401.435L396.452 157.532H392.151L389.056 141.115L385.962 157.532H381.661ZM403.786 154.385H408.245C409.748 154.385 410.832 153.982 411.496 153.178C412.196 152.339 412.545 151.255 412.545 149.926C412.545 148.877 412.231 147.986 411.601 147.251C410.972 146.517 410.028 145.66 408.769 144.681C407.685 143.807 406.811 143.055 406.147 142.426C405.517 141.762 404.958 140.957 404.468 140.013C404.014 139.034 403.786 137.915 403.786 136.657C403.786 134.803 404.398 133.282 405.622 132.093C406.881 130.87 408.559 130.258 410.657 130.258H415.22V133.405H411.444C408.961 133.405 407.72 134.576 407.72 136.919C407.72 137.828 408 138.615 408.559 139.279C409.119 139.943 409.993 140.73 411.182 141.639C412.266 142.478 413.157 143.248 413.857 143.947C414.556 144.611 415.15 145.468 415.64 146.517C416.129 147.531 416.374 148.737 416.374 150.136C416.374 152.619 415.71 154.472 414.381 155.696C413.087 156.92 411.252 157.532 408.874 157.532H403.786V154.385ZM433.536 157.532V124.278H428.972V120.817H438.151V157.532H433.536ZM453.2 157.899C450.613 157.899 448.497 157.339 446.854 156.22C445.245 155.101 444.441 153.493 444.441 151.395V126.429C444.441 124.366 445.228 122.862 446.801 121.918C448.41 120.939 450.543 120.449 453.2 120.449C455.858 120.449 457.973 120.939 459.547 121.918C461.155 122.862 461.959 124.366 461.959 126.429V151.395C461.959 153.493 461.138 155.101 459.494 156.22C457.886 157.339 455.788 157.899 453.2 157.899ZM453.148 154.332C455.945 154.332 457.344 153.301 457.344 151.238V127.32C457.344 125.187 455.945 124.121 453.148 124.121C450.42 124.121 449.057 125.187 449.057 127.32V151.238C449.057 153.301 450.42 154.332 453.148 154.332ZM474.573 154.385H479.032C480.535 154.385 481.619 153.982 482.283 153.178C482.983 152.339 483.332 151.255 483.332 149.926C483.332 148.877 483.018 147.986 482.388 147.251C481.759 146.517 480.815 145.66 479.556 144.681C478.472 143.807 477.598 143.055 476.934 142.426C476.304 141.762 475.745 140.957 475.255 140.013C474.801 139.034 474.573 137.915 474.573 136.657C474.573 134.803 475.185 133.282 476.409 132.093C477.668 130.87 479.346 130.258 481.444 130.258H486.007V133.405H482.231C479.748 133.405 478.507 134.576 478.507 136.919C478.507 137.828 478.787 138.615 479.346 139.279C479.906 139.943 480.78 140.73 481.969 141.639C483.053 142.478 483.944 143.248 484.644 143.947C485.343 144.611 485.937 145.468 486.427 146.517C486.916 147.531 487.161 148.737 487.161 150.136C487.161 152.619 486.497 154.472 485.168 155.696C483.874 156.92 482.039 157.532 479.661 157.532H474.573V154.385ZM502.099 157.532H497.746C495.823 157.532 494.197 156.92 492.868 155.696C491.539 154.437 490.875 152.864 490.875 150.975V136.866C490.875 134.978 491.539 133.405 492.868 132.146C494.232 130.887 495.875 130.258 497.798 130.258H506.348V165.924H502.099V157.532ZM502.152 154.385V133.405H498.638C497.659 133.405 496.819 133.737 496.12 134.401C495.421 135.066 495.071 135.887 495.071 136.866V150.923C495.071 151.902 495.421 152.724 496.12 153.388C496.819 154.052 497.659 154.385 498.638 154.385H502.152ZM515.867 157.899C514.608 157.899 513.664 157.462 513.034 156.588C512.44 155.713 512.143 154.577 512.143 153.178V130.258H516.339V151.815C516.339 152.794 516.409 153.493 516.548 153.913C516.688 154.332 517.02 154.542 517.545 154.542C517.79 154.542 519.765 154.017 523.472 152.968V130.258H527.668V157.532H524.678L523.891 155.748C523.332 155.958 522.912 156.098 522.633 156.168C520.989 156.762 519.66 157.199 518.646 157.479C517.632 157.759 516.706 157.899 515.867 157.899ZM539.535 157.532C538.276 157.532 537.104 157.217 536.02 156.588C534.971 155.958 534.132 155.101 533.503 154.017C532.908 152.933 532.611 151.71 532.611 150.346V147.619C532.611 145.975 533.013 144.594 533.818 143.475C534.657 142.356 535.688 141.569 536.912 141.115L543.416 138.702V136.237C543.416 135.398 543.154 134.716 542.629 134.191C542.14 133.632 541.493 133.352 540.689 133.352H534.762V130.258H541.056C542.979 130.258 544.5 130.835 545.619 131.988C546.773 133.107 547.35 134.646 547.35 136.604V157.532H539.535ZM543.416 154.332V142.006L538.8 143.737C537.891 144.087 537.244 144.559 536.86 145.153C536.51 145.748 536.335 146.692 536.335 147.986V150.923C536.335 151.867 536.685 152.671 537.384 153.336C538.084 154 538.923 154.332 539.902 154.332H543.416ZM560.737 157.532C558.814 157.532 557.293 156.955 556.174 155.801C555.055 154.647 554.495 153.091 554.495 151.133V133.405H551.348V130.258H554.495V122.338L558.691 120.764V130.258H562.887V133.405H558.691V151.5C558.691 152.339 558.918 153.038 559.373 153.598C559.863 154.122 560.509 154.385 561.314 154.385H562.887V157.532H560.737ZM574.669 157.532C572.746 157.532 571.225 156.955 570.106 155.801C568.987 154.647 568.427 153.091 568.427 151.133V133.405H565.28V130.258H568.427V122.338L572.623 120.764V130.258H576.819V133.405H572.623V151.5C572.623 152.339 572.85 153.038 573.305 153.598C573.795 154.122 574.441 154.385 575.246 154.385H576.819V157.532H574.669ZM586.45 157.532C584.527 157.532 582.989 156.955 581.835 155.801C580.716 154.647 580.156 153.091 580.156 151.133V137.181C580.156 134.908 580.786 133.125 582.045 131.831C583.303 130.537 585.174 129.89 587.657 129.89C590.139 129.89 591.993 130.537 593.216 131.831C594.475 133.125 595.105 134.908 595.105 137.181V139.594C595.105 141.062 594.685 142.181 593.846 142.951C593.007 143.685 591.905 144.244 590.541 144.629L584.352 146.36V151.5C584.352 152.339 584.597 153.038 585.087 153.598C585.611 154.122 586.276 154.385 587.08 154.385H592.744V157.532H586.45ZM587.552 142.164C588.706 141.849 589.475 141.622 589.86 141.482C590.279 141.307 590.559 141.062 590.699 140.748C590.839 140.433 590.909 139.908 590.909 139.174V136.289C590.909 135.17 590.611 134.349 590.017 133.824C589.457 133.3 588.671 133.037 587.657 133.037C586.678 133.037 585.873 133.317 585.244 133.877C584.65 134.436 584.352 135.24 584.352 136.289V143.055L587.552 142.164ZM607.222 157.532V120.817H611.418V157.532H607.222ZM623.229 157.532C621.97 157.532 620.799 157.217 619.715 156.588C618.666 155.958 617.827 155.101 617.198 154.017C616.603 152.933 616.306 151.71 616.306 150.346V147.619C616.306 145.975 616.708 144.594 617.512 143.475C618.351 142.356 619.383 141.569 620.607 141.115L627.111 138.702V136.237C627.111 135.398 626.848 134.716 626.324 134.191C625.834 133.632 625.187 133.352 624.383 133.352H618.456V130.258H624.75C626.673 130.258 628.195 130.835 629.313 131.988C630.467 133.107 631.044 134.646 631.044 136.604V157.532H623.229ZM627.111 154.332V142.006L622.495 143.737C621.586 144.087 620.939 144.559 620.554 145.153C620.205 145.748 620.03 146.692 620.03 147.986V150.923C620.03 151.867 620.379 152.671 621.079 153.336C621.778 154 622.617 154.332 623.596 154.332H627.111ZM644.714 130.258H647.966L648.438 131.779L650.589 131.149C652.057 130.695 653.211 130.38 654.05 130.205C654.924 129.995 655.746 129.89 656.515 129.89C658.019 129.89 659.068 130.555 659.662 131.884C660.641 131.534 662.023 131.114 663.806 130.625C665.589 130.135 666.9 129.89 667.74 129.89C668.998 129.89 669.925 130.328 670.52 131.202C671.149 132.076 671.464 133.212 671.464 134.611V157.532H667.268V135.975C667.268 134.961 667.198 134.261 667.058 133.877C666.918 133.457 666.568 133.247 666.009 133.247C665.729 133.247 663.806 133.807 660.239 134.926V157.532H656.043V135.975C656.043 134.961 655.973 134.261 655.834 133.877C655.694 133.457 655.344 133.247 654.785 133.247C654.505 133.247 652.547 133.807 648.91 134.926V157.532H644.714V130.258ZM682.799 157.532C681.54 157.532 680.369 157.217 679.285 156.588C678.236 155.958 677.397 155.101 676.767 154.017C676.173 152.933 675.876 151.71 675.876 150.346V147.619C675.876 145.975 676.278 144.594 677.082 143.475C677.921 142.356 678.953 141.569 680.176 141.115L686.68 138.702V136.237C686.68 135.398 686.418 134.716 685.894 134.191C685.404 133.632 684.757 133.352 683.953 133.352H678.026V130.258H684.32C686.243 130.258 687.764 130.835 688.883 131.988C690.037 133.107 690.614 134.646 690.614 136.604V157.532H682.799ZM686.68 154.332V142.006L682.065 143.737C681.156 144.087 680.509 144.559 680.124 145.153C679.774 145.748 679.6 146.692 679.6 147.986V150.923C679.6 151.867 679.949 152.671 680.649 153.336C681.348 154 682.187 154.332 683.166 154.332H686.68ZM702.165 157.532C700.242 157.532 698.704 156.955 697.55 155.801C696.431 154.647 695.871 153.091 695.871 151.133V137.181C695.871 134.978 696.448 133.282 697.602 132.093C698.756 130.87 700.434 130.258 702.637 130.258H708.459V133.405H702.742C701.938 133.405 701.291 133.684 700.802 134.244C700.312 134.768 700.067 135.45 700.067 136.289V151.5C700.067 152.339 700.312 153.038 700.802 153.598C701.326 154.122 701.99 154.385 702.795 154.385H708.459V157.532H702.165ZM712.121 120.817H716.317V131.674L718.624 130.992C720.058 130.572 721.107 130.293 721.771 130.153C722.471 129.978 723.187 129.89 723.922 129.89C725.181 129.89 726.107 130.328 726.702 131.202C727.296 132.076 727.593 133.212 727.593 134.611V157.532H723.397V135.975C723.397 134.961 723.327 134.261 723.187 133.877C723.048 133.457 722.698 133.247 722.138 133.247C721.859 133.247 719.918 133.807 716.317 134.926V157.532H712.121V120.817ZM733.941 125.799V121.603H738.137V125.799H733.941ZM733.941 157.532V130.258H738.137V157.532H733.941ZM744.441 130.258H747.693L748.165 131.779L750.315 131.149C751.784 130.695 752.938 130.38 753.777 130.205C754.651 129.995 755.473 129.89 756.242 129.89C757.501 129.89 758.427 130.328 759.022 131.202C759.616 132.076 759.914 133.212 759.914 134.611V157.532H755.718V135.975C755.718 134.961 755.648 134.261 755.508 133.877C755.368 133.457 755.018 133.247 754.459 133.247C754.179 133.247 752.238 133.807 748.637 134.926V157.532H744.441V130.258ZM771.203 157.532C769.28 157.532 767.742 156.955 766.588 155.801C765.469 154.647 764.909 153.091 764.909 151.133V137.181C764.909 134.908 765.539 133.125 766.798 131.831C768.056 130.537 769.927 129.89 772.41 129.89C774.892 129.89 776.746 130.537 777.969 131.831C779.228 133.125 779.858 134.908 779.858 137.181V139.594C779.858 141.062 779.438 142.181 778.599 142.951C777.76 143.685 776.658 144.244 775.295 144.629L769.105 146.36V151.5C769.105 152.339 769.35 153.038 769.84 153.598C770.364 154.122 771.029 154.385 771.833 154.385H777.497V157.532H771.203ZM772.305 142.164C773.459 141.849 774.228 141.622 774.613 141.482C775.032 141.307 775.312 141.062 775.452 140.748C775.592 140.433 775.662 139.908 775.662 139.174V136.289C775.662 135.17 775.364 134.349 774.77 133.824C774.211 133.3 773.424 133.037 772.41 133.037C771.431 133.037 770.626 133.317 769.997 133.877C769.403 134.436 769.105 135.24 769.105 136.289V143.055L772.305 142.164ZM797.692 157.532C795.769 157.532 794.23 156.955 793.076 155.801C791.957 154.647 791.398 153.091 791.398 151.133V137.181C791.398 134.978 791.975 133.282 793.129 132.093C794.283 130.87 795.961 130.258 798.164 130.258H803.986V133.405H798.269C797.465 133.405 796.818 133.684 796.328 134.244C795.839 134.768 795.594 135.45 795.594 136.289V151.5C795.594 152.339 795.839 153.038 796.328 153.598C796.853 154.122 797.517 154.385 798.321 154.385H803.986V157.532H797.692ZM814.308 157.899C811.861 157.899 809.955 157.287 808.591 156.063C807.263 154.804 806.598 153.073 806.598 150.87V136.919C806.598 134.716 807.263 133.002 808.591 131.779C809.955 130.52 811.861 129.89 814.308 129.89C816.756 129.89 818.644 130.52 819.973 131.779C821.337 133.002 822.018 134.716 822.018 136.919V150.87C822.018 153.073 821.337 154.804 819.973 156.063C818.644 157.287 816.756 157.899 814.308 157.899ZM814.308 154.647C815.427 154.647 816.301 154.332 816.931 153.703C817.595 153.038 817.927 152.094 817.927 150.87V136.919C817.927 135.695 817.595 134.768 816.931 134.139C816.301 133.475 815.427 133.142 814.308 133.142C813.189 133.142 812.298 133.475 811.633 134.139C811.004 134.768 810.689 135.695 810.689 136.919V150.87C810.689 152.094 811.004 153.038 811.633 153.703C812.298 154.332 813.189 154.647 814.308 154.647ZM827.265 130.258H830.517L830.989 131.779L833.139 131.149C834.608 130.695 835.762 130.38 836.601 130.205C837.475 129.995 838.297 129.89 839.066 129.89C840.569 129.89 841.618 130.555 842.213 131.884C843.192 131.534 844.573 131.114 846.356 130.625C848.14 130.135 849.451 129.89 850.29 129.89C851.549 129.89 852.476 130.328 853.07 131.202C853.699 132.076 854.014 133.212 854.014 134.611V157.532H849.818V135.975C849.818 134.961 849.748 134.261 849.608 133.877C849.469 133.457 849.119 133.247 848.559 133.247C848.28 133.247 846.356 133.807 842.79 134.926V157.532H838.594V135.975C838.594 134.961 838.524 134.261 838.384 133.877C838.244 133.457 837.895 133.247 837.335 133.247C837.055 133.247 835.097 133.807 831.461 134.926V157.532H827.265V130.258ZM859.79 130.258H863.042L863.514 131.779L865.664 131.149C867.133 130.695 868.287 130.38 869.126 130.205C870 129.995 870.822 129.89 871.591 129.89C873.095 129.89 874.144 130.555 874.738 131.884C875.717 131.534 877.098 131.114 878.882 130.625C880.665 130.135 881.976 129.89 882.815 129.89C884.074 129.89 885.001 130.328 885.595 131.202C886.225 132.076 886.539 133.212 886.539 134.611V157.532H882.343V135.975C882.343 134.961 882.273 134.261 882.134 133.877C881.994 133.457 881.644 133.247 881.085 133.247C880.805 133.247 878.882 133.807 875.315 134.926V157.532H871.119V135.975C871.119 134.961 871.049 134.261 870.909 133.877C870.769 133.457 870.42 133.247 869.86 133.247C869.58 133.247 867.622 133.807 863.986 134.926V157.532H859.79V130.258ZM897.77 157.532C895.847 157.532 894.308 156.955 893.154 155.801C892.035 154.647 891.476 153.091 891.476 151.133V137.181C891.476 134.908 892.105 133.125 893.364 131.831C894.623 130.537 896.493 129.89 898.976 129.89C901.459 129.89 903.312 130.537 904.536 131.831C905.795 133.125 906.424 134.908 906.424 137.181V139.594C906.424 141.062 906.004 142.181 905.165 142.951C904.326 143.685 903.225 144.244 901.861 144.629L895.672 146.36V151.5C895.672 152.339 895.917 153.038 896.406 153.598C896.931 154.122 897.595 154.385 898.399 154.385H904.064V157.532H897.77ZM898.871 142.164C900.025 141.849 900.794 141.622 901.179 141.482C901.599 141.307 901.878 141.062 902.018 140.748C902.158 140.433 902.228 139.908 902.228 139.174V136.289C902.228 135.17 901.931 134.349 901.336 133.824C900.777 133.3 899.99 133.037 898.976 133.037C897.997 133.037 897.193 133.317 896.563 133.877C895.969 134.436 895.672 135.24 895.672 136.289V143.055L898.871 142.164ZM921.688 157.899C920.429 157.899 919.485 157.462 918.856 156.588C918.261 155.713 917.964 154.577 917.964 153.178V130.258H922.16V151.815C922.16 152.794 922.23 153.493 922.37 153.913C922.51 154.332 922.842 154.542 923.367 154.542C923.611 154.542 925.587 154.017 929.293 152.968V130.258H933.489V157.532H930.5L929.713 155.748C929.154 155.958 928.734 156.098 928.454 156.168C926.811 156.762 925.482 157.199 924.468 157.479C923.454 157.759 922.527 157.899 921.688 157.899ZM939.797 130.258H943.048L943.521 131.779L945.671 131.149C947.14 130.695 948.293 130.38 949.133 130.205C950.007 129.995 950.829 129.89 951.598 129.89C952.857 129.89 953.783 130.328 954.378 131.202C954.972 132.076 955.269 133.212 955.269 134.611V157.532H951.073V135.975C951.073 134.961 951.003 134.261 950.864 133.877C950.724 133.457 950.374 133.247 949.815 133.247C949.535 133.247 947.594 133.807 943.993 134.926V157.532H939.797V130.258ZM972.874 157.532L966.632 130.258H970.985L975.024 152.234L979.01 130.258H983.364L977.122 157.532H972.874ZM987.278 125.799V121.603H991.474V125.799H987.278ZM987.278 157.532V130.258H991.474V157.532H987.278ZM1003.23 157.532C1001.31 157.532 999.772 156.955 998.618 155.801C997.499 154.647 996.939 153.091 996.939 151.133V137.181C996.939 134.908 997.569 133.125 998.827 131.831C1000.09 130.537 1001.96 129.89 1004.44 129.89C1006.92 129.89 1008.78 130.537 1010 131.831C1011.26 133.125 1011.89 134.908 1011.89 137.181V139.594C1011.89 141.062 1011.47 142.181 1010.63 142.951C1009.79 143.685 1008.69 144.244 1007.32 144.629L1001.14 146.36V151.5C1001.14 152.339 1001.38 153.038 1001.87 153.598C1002.39 154.122 1003.06 154.385 1003.86 154.385H1009.53V157.532H1003.23ZM1004.33 142.164C1005.49 141.849 1006.26 141.622 1006.64 141.482C1007.06 141.307 1007.34 141.062 1007.48 140.748C1007.62 140.433 1007.69 139.908 1007.69 139.174V136.289C1007.69 135.17 1007.39 134.349 1006.8 133.824C1006.24 133.3 1005.45 133.037 1004.44 133.037C1003.46 133.037 1002.66 133.317 1002.03 133.877C1001.43 134.436 1001.14 135.24 1001.14 136.289V143.055L1004.33 142.164ZM1019.26 157.899C1018 157.899 1017.06 157.462 1016.43 156.588C1015.84 155.713 1015.54 154.577 1015.54 153.178V130.258H1019.74V151.815C1019.74 152.794 1019.81 153.493 1019.95 153.913C1020.09 154.332 1020.42 154.542 1020.94 154.542C1021.19 154.542 1023.16 154.017 1026.87 152.968V130.258H1031.06V157.532H1028.08L1027.29 155.748C1026.73 155.958 1026.31 156.098 1026.03 156.168C1024.39 156.762 1023.06 157.199 1022.04 157.479C1021.03 157.759 1020.1 157.899 1019.26 157.899ZM1034.75 157.532L1042.3 143.842L1035.27 130.258H1039.31L1044.24 139.908L1049.23 130.258H1053.26L1046.24 143.842L1053.79 157.532H1049.38L1044.24 147.566L1039.16 157.532H1034.75ZM265.426 214.532V177.817H269.622V214.532H265.426ZM282.535 214.899C280.087 214.899 278.182 214.287 276.818 213.063C275.489 211.804 274.825 210.073 274.825 207.87V193.919C274.825 191.716 275.489 190.002 276.818 188.779C278.182 187.52 280.087 186.89 282.535 186.89C284.983 186.89 286.871 187.52 288.2 188.779C289.563 190.002 290.245 191.716 290.245 193.919V207.87C290.245 210.073 289.563 211.804 288.2 213.063C286.871 214.287 284.983 214.899 282.535 214.899ZM282.535 211.647C283.654 211.647 284.528 211.332 285.157 210.703C285.822 210.038 286.154 209.094 286.154 207.87V193.919C286.154 192.695 285.822 191.768 285.157 191.139C284.528 190.475 283.654 190.142 282.535 190.142C281.416 190.142 280.524 190.475 279.86 191.139C279.231 191.768 278.916 192.695 278.916 193.919V207.87C278.916 209.094 279.231 210.038 279.86 210.703C280.524 211.332 281.416 211.647 282.535 211.647ZM301.261 214.532C299.338 214.532 297.799 213.955 296.645 212.801C295.526 211.647 294.967 210.091 294.967 208.133V194.181C294.967 191.978 295.544 190.282 296.698 189.093C297.852 187.87 299.53 187.258 301.733 187.258H307.555V190.405H301.838C301.034 190.405 300.387 190.684 299.897 191.244C299.408 191.768 299.163 192.45 299.163 193.289V208.5C299.163 209.339 299.408 210.038 299.897 210.598C300.422 211.122 301.086 211.385 301.89 211.385H307.555V214.532H301.261ZM316.776 214.532C315.517 214.532 314.346 214.217 313.262 213.588C312.213 212.958 311.373 212.101 310.744 211.017C310.15 209.933 309.852 208.71 309.852 207.346V204.619C309.852 202.975 310.255 201.594 311.059 200.475C311.898 199.356 312.929 198.569 314.153 198.115L320.657 195.702V193.237C320.657 192.398 320.395 191.716 319.87 191.191C319.381 190.632 318.734 190.352 317.93 190.352H312.003V187.258H318.297C320.22 187.258 321.741 187.835 322.86 188.988C324.014 190.107 324.591 191.646 324.591 193.604V214.532H316.776ZM320.657 211.332V199.006L316.041 200.737C315.132 201.087 314.485 201.559 314.101 202.153C313.751 202.748 313.576 203.692 313.576 204.986V207.923C313.576 208.867 313.926 209.671 314.625 210.336C315.325 211 316.164 211.332 317.143 211.332H320.657ZM337.978 214.532C336.055 214.532 334.534 213.955 333.415 212.801C332.296 211.647 331.736 210.091 331.736 208.133V190.405H328.589V187.258H331.736V179.338L335.932 177.764V187.258H340.128V190.405H335.932V208.5C335.932 209.339 336.16 210.038 336.614 210.598C337.104 211.122 337.751 211.385 338.555 211.385H340.128V214.532H337.978ZM349.864 214.532C348.606 214.532 347.434 214.217 346.35 213.588C345.301 212.958 344.462 212.101 343.833 211.017C343.238 209.933 342.941 208.71 342.941 207.346V204.619C342.941 202.975 343.343 201.594 344.147 200.475C344.987 199.356 346.018 198.569 347.242 198.115L353.746 195.702V193.237C353.746 192.398 353.483 191.716 352.959 191.191C352.469 190.632 351.823 190.352 351.018 190.352H345.091V187.258H351.385C353.309 187.258 354.83 187.835 355.949 188.988C357.102 190.107 357.679 191.646 357.679 193.604V214.532H349.864ZM353.746 211.332V199.006L349.13 200.737C348.221 201.087 347.574 201.559 347.189 202.153C346.84 202.748 346.665 203.692 346.665 204.986V207.923C346.665 208.867 347.015 209.671 347.714 210.336C348.413 211 349.252 211.332 350.232 211.332H353.746ZM363.461 182.799V178.603H367.657V182.799H363.461ZM363.461 214.532V187.258H367.657V214.532H363.461ZM373.961 187.258H377.213L377.685 189.198L378.997 188.569C380.116 188.009 381.042 187.59 381.777 187.31C382.546 187.03 383.315 186.89 384.084 186.89V189.985C383.63 189.985 383.018 190.125 382.249 190.405C381.479 190.649 380.116 191.244 378.157 192.188V214.532H373.961V187.258ZM393.451 214.532C391.528 214.532 389.989 213.955 388.835 212.801C387.716 211.647 387.157 210.091 387.157 208.133V194.181C387.157 191.908 387.786 190.125 389.045 188.831C390.304 187.537 392.174 186.89 394.657 186.89C397.14 186.89 398.993 187.537 400.217 188.831C401.476 190.125 402.105 191.908 402.105 194.181V196.594C402.105 198.062 401.685 199.181 400.846 199.951C400.007 200.685 398.906 201.244 397.542 201.629L391.353 203.36V208.5C391.353 209.339 391.597 210.038 392.087 210.598C392.612 211.122 393.276 211.385 394.08 211.385H399.745V214.532H393.451ZM394.552 199.164C395.706 198.849 396.475 198.622 396.86 198.482C397.28 198.307 397.559 198.062 397.699 197.748C397.839 197.433 397.909 196.908 397.909 196.174V193.289C397.909 192.17 397.612 191.349 397.017 190.824C396.458 190.3 395.671 190.037 394.657 190.037C393.678 190.037 392.874 190.317 392.244 190.877C391.65 191.436 391.353 192.24 391.353 193.289V200.055L394.552 199.164ZM424.397 214.532H420.044C418.121 214.532 416.495 213.92 415.166 212.696C413.838 211.437 413.173 209.864 413.173 207.975V193.866C413.173 191.978 413.838 190.405 415.166 189.146C416.53 187.887 418.173 187.258 420.097 187.258H428.646V222.924H424.397V214.532ZM424.45 211.385V190.405H420.936C419.957 190.405 419.117 190.737 418.418 191.401C417.719 192.066 417.369 192.887 417.369 193.866V207.923C417.369 208.902 417.719 209.724 418.418 210.388C419.117 211.052 419.957 211.385 420.936 211.385H424.45ZM438.165 214.899C436.906 214.899 435.962 214.462 435.332 213.588C434.738 212.713 434.441 211.577 434.441 210.178V187.258H438.637V208.815C438.637 209.794 438.707 210.493 438.847 210.913C438.986 211.332 439.319 211.542 439.843 211.542C440.088 211.542 442.064 211.017 445.77 209.968V187.258H449.966V214.532H446.976L446.19 212.748C445.63 212.958 445.211 213.098 444.931 213.168C443.287 213.762 441.959 214.199 440.945 214.479C439.931 214.759 439.004 214.899 438.165 214.899ZM456.273 182.799V178.603H460.469V182.799H456.273ZM456.273 214.532V187.258H460.469V214.532H456.273ZM474.661 187.258H477.913L478.385 189.198L479.697 188.569C480.815 188.009 481.742 187.59 482.476 187.31C483.246 187.03 484.015 186.89 484.784 186.89V189.985C484.33 189.985 483.718 190.125 482.948 190.405C482.179 190.649 480.815 191.244 478.857 192.188V214.532H474.661V187.258ZM494.151 214.532C492.227 214.532 490.689 213.955 489.535 212.801C488.416 211.647 487.857 210.091 487.857 208.133V194.181C487.857 191.908 488.486 190.125 489.745 188.831C491.004 187.537 492.874 186.89 495.357 186.89C497.84 186.89 499.693 187.537 500.917 188.831C502.175 190.125 502.805 191.908 502.805 194.181V196.594C502.805 198.062 502.385 199.181 501.546 199.951C500.707 200.685 499.605 201.244 498.242 201.629L492.053 203.36V208.5C492.053 209.339 492.297 210.038 492.787 210.598C493.311 211.122 493.976 211.385 494.78 211.385H500.445V214.532H494.151ZM495.252 199.164C496.406 198.849 497.175 198.622 497.56 198.482C497.979 198.307 498.259 198.062 498.399 197.748C498.539 197.433 498.609 196.908 498.609 196.174V193.289C498.609 192.17 498.312 191.349 497.717 190.824C497.158 190.3 496.371 190.037 495.357 190.037C494.378 190.037 493.574 190.317 492.944 190.877C492.35 191.436 492.053 192.24 492.053 193.289V200.055L495.252 199.164ZM508.293 190.719H505.146V187.258H508.293V184.216C508.293 182.257 508.852 180.701 509.971 179.547C511.09 178.394 512.611 177.817 514.534 177.817H516.842V180.964H515.269C514.464 180.964 513.8 181.243 513.276 181.803C512.751 182.362 512.489 183.044 512.489 183.848V187.258H516.737V190.719H512.489V214.532H508.293V190.719ZM523.345 214.899C522.086 214.899 521.142 214.462 520.513 213.588C519.918 212.713 519.621 211.577 519.621 210.178V187.258H523.817V208.815C523.817 209.794 523.887 210.493 524.027 210.913C524.167 211.332 524.499 211.542 525.023 211.542C525.268 211.542 527.244 211.017 530.95 209.968V187.258H535.146V214.532H532.156L531.37 212.748C530.81 212.958 530.391 213.098 530.111 213.168C528.467 213.762 527.139 214.199 526.125 214.479C525.111 214.759 524.184 214.899 523.345 214.899ZM539.88 211.385H544.338C545.841 211.385 546.925 210.982 547.59 210.178C548.289 209.339 548.639 208.255 548.639 206.926C548.639 205.877 548.324 204.986 547.695 204.251C547.065 203.517 546.121 202.66 544.862 201.681C543.778 200.807 542.904 200.055 542.24 199.426C541.611 198.762 541.051 197.957 540.562 197.013C540.107 196.034 539.88 194.915 539.88 193.657C539.88 191.803 540.492 190.282 541.715 189.093C542.974 187.87 544.653 187.258 546.751 187.258H551.314V190.405H547.537C545.055 190.405 543.813 191.576 543.813 193.919C543.813 194.828 544.093 195.615 544.653 196.279C545.212 196.943 546.086 197.73 547.275 198.639C548.359 199.478 549.251 200.248 549.95 200.947C550.649 201.611 551.244 202.468 551.733 203.517C552.223 204.531 552.468 205.737 552.468 207.136C552.468 209.619 551.803 211.472 550.475 212.696C549.181 213.92 547.345 214.532 544.967 214.532H539.88V211.385ZM562.633 214.532C560.71 214.532 559.171 213.955 558.017 212.801C556.898 211.647 556.339 210.091 556.339 208.133V194.181C556.339 191.908 556.968 190.125 558.227 188.831C559.486 187.537 561.356 186.89 563.839 186.89C566.322 186.89 568.175 187.537 569.399 188.831C570.658 190.125 571.287 191.908 571.287 194.181V196.594C571.287 198.062 570.867 199.181 570.028 199.951C569.189 200.685 568.088 201.244 566.724 201.629L560.535 203.36V208.5C560.535 209.339 560.779 210.038 561.269 210.598C561.794 211.122 562.458 211.385 563.262 211.385H568.927V214.532H562.633ZM563.734 199.164C564.888 198.849 565.657 198.622 566.042 198.482C566.462 198.307 566.741 198.062 566.881 197.748C567.021 197.433 567.091 196.908 567.091 196.174V193.289C567.091 192.17 566.794 191.349 566.199 190.824C565.64 190.3 564.853 190.037 563.839 190.037C562.86 190.037 562.056 190.317 561.426 190.877C560.832 191.436 560.535 192.24 560.535 193.289V200.055L563.734 199.164ZM590.275 214.532C588.072 214.532 586.289 213.885 584.925 212.591C583.561 211.297 582.88 209.566 582.88 207.398V194.338C582.88 192.835 583.282 191.559 584.086 190.51C584.925 189.461 585.957 188.744 587.181 188.359L594.209 185.894V177.817H598.405V214.532H590.275ZM594.209 211.385V189.356L589.541 190.929C588.632 191.209 587.985 191.663 587.6 192.293C587.25 192.887 587.076 193.849 587.076 195.178V207.398C587.076 208.657 587.443 209.636 588.177 210.336C588.911 211.035 589.908 211.385 591.167 211.385H594.209ZM610.166 214.532C608.242 214.532 606.704 213.955 605.55 212.801C604.431 211.647 603.872 210.091 603.872 208.133V194.181C603.872 191.908 604.501 190.125 605.76 188.831C607.019 187.537 608.889 186.89 611.372 186.89C613.855 186.89 615.708 187.537 616.932 188.831C618.19 190.125 618.82 191.908 618.82 194.181V196.594C618.82 198.062 618.4 199.181 617.561 199.951C616.722 200.685 615.62 201.244 614.257 201.629L608.068 203.36V208.5C608.068 209.339 608.312 210.038 608.802 210.598C609.326 211.122 609.991 211.385 610.795 211.385H616.46V214.532H610.166ZM611.267 199.164C612.421 198.849 613.19 198.622 613.575 198.482C613.994 198.307 614.274 198.062 614.414 197.748C614.554 197.433 614.624 196.908 614.624 196.174V193.289C614.624 192.17 614.327 191.349 613.732 190.824C613.173 190.3 612.386 190.037 611.372 190.037C610.393 190.037 609.589 190.317 608.959 190.877C608.365 191.436 608.068 192.24 608.068 193.289V200.055L611.267 199.164ZM630.885 187.258H634.136L634.608 189.198L635.92 188.569C637.039 188.009 637.965 187.59 638.7 187.31C639.469 187.03 640.238 186.89 641.007 186.89V189.985C640.553 189.985 639.941 190.125 639.172 190.405C638.402 190.649 637.039 191.244 635.081 192.188V214.532H630.885V187.258ZM650.374 214.532C648.451 214.532 646.912 213.955 645.758 212.801C644.639 211.647 644.08 210.091 644.08 208.133V194.181C644.08 191.908 644.709 190.125 645.968 188.831C647.227 187.537 649.097 186.89 651.58 186.89C654.063 186.89 655.916 187.537 657.14 188.831C658.399 190.125 659.028 191.908 659.028 194.181V196.594C659.028 198.062 658.608 199.181 657.769 199.951C656.93 200.685 655.829 201.244 654.465 201.629L648.276 203.36V208.5C648.276 209.339 648.521 210.038 649.01 210.598C649.535 211.122 650.199 211.385 651.003 211.385H656.668V214.532H650.374ZM651.475 199.164C652.629 198.849 653.398 198.622 653.783 198.482C654.203 198.307 654.482 198.062 654.622 197.748C654.762 197.433 654.832 196.908 654.832 196.174V193.289C654.832 192.17 654.535 191.349 653.94 190.824C653.381 190.3 652.594 190.037 651.58 190.037C650.601 190.037 649.797 190.317 649.167 190.877C648.573 191.436 648.276 192.24 648.276 193.289V200.055L651.475 199.164ZM663.205 187.258H666.457L666.929 188.779L669.079 188.149C670.548 187.695 671.702 187.38 672.541 187.205C673.415 186.995 674.237 186.89 675.006 186.89C676.265 186.89 677.191 187.328 677.786 188.202C678.38 189.076 678.678 190.212 678.678 191.611V214.532H674.482V192.975C674.482 191.961 674.412 191.261 674.272 190.877C674.132 190.457 673.782 190.247 673.223 190.247C672.943 190.247 671.002 190.807 667.401 191.926V214.532H663.205V187.258ZM691.436 214.532C689.233 214.532 687.45 213.885 686.086 212.591C684.722 211.297 684.041 209.566 684.041 207.398V194.338C684.041 192.835 684.443 191.559 685.247 190.51C686.086 189.461 687.118 188.744 688.341 188.359L695.37 185.894V177.817H699.566V214.532H691.436ZM695.37 211.385V189.356L690.702 190.929C689.793 191.209 689.146 191.663 688.761 192.293C688.411 192.887 688.237 193.849 688.237 195.178V207.398C688.237 208.657 688.604 209.636 689.338 210.336C690.072 211.035 691.069 211.385 692.328 211.385H695.37ZM705.872 187.258H709.124L709.596 189.198L710.907 188.569C712.026 188.009 712.952 187.59 713.687 187.31C714.456 187.03 715.225 186.89 715.994 186.89V189.985C715.54 189.985 714.928 190.125 714.159 190.405C713.389 190.649 712.026 191.244 710.068 192.188V214.532H705.872V187.258ZM725.361 214.532C723.438 214.532 721.899 213.955 720.745 212.801C719.626 211.647 719.067 210.091 719.067 208.133V194.181C719.067 191.908 719.696 190.125 720.955 188.831C722.214 187.537 724.085 186.89 726.567 186.89C729.05 186.89 730.903 187.537 732.127 188.831C733.386 190.125 734.015 191.908 734.015 194.181V196.594C734.015 198.062 733.596 199.181 732.756 199.951C731.917 200.685 730.816 201.244 729.452 201.629L723.263 203.36V208.5C723.263 209.339 723.508 210.038 723.997 210.598C724.522 211.122 725.186 211.385 725.99 211.385H731.655V214.532H725.361ZM726.462 199.164C727.616 198.849 728.386 198.622 728.77 198.482C729.19 198.307 729.469 198.062 729.609 197.748C729.749 197.433 729.819 196.908 729.819 196.174V193.289C729.819 192.17 729.522 191.349 728.927 190.824C728.368 190.3 727.581 190.037 726.567 190.037C725.588 190.037 724.784 190.317 724.155 190.877C723.56 191.436 723.263 192.24 723.263 193.289V200.055L726.462 199.164ZM746.132 214.532V177.817H750.328V214.532H746.132ZM762.035 214.532C760.112 214.532 758.573 213.955 757.419 212.801C756.3 211.647 755.741 210.091 755.741 208.133V194.181C755.741 191.908 756.37 190.125 757.629 188.831C758.888 187.537 760.759 186.89 763.241 186.89C765.724 186.89 767.577 187.537 768.801 188.831C770.06 190.125 770.689 191.908 770.689 194.181V196.594C770.689 198.062 770.27 199.181 769.43 199.951C768.591 200.685 767.49 201.244 766.126 201.629L759.937 203.36V208.5C759.937 209.339 760.182 210.038 760.671 210.598C761.196 211.122 761.86 211.385 762.664 211.385H768.329V214.532H762.035ZM763.136 199.164C764.29 198.849 765.06 198.622 765.444 198.482C765.864 198.307 766.143 198.062 766.283 197.748C766.423 197.433 766.493 196.908 766.493 196.174V193.289C766.493 192.17 766.196 191.349 765.602 190.824C765.042 190.3 764.255 190.037 763.241 190.037C762.262 190.037 761.458 190.317 760.829 190.877C760.234 191.436 759.937 192.24 759.937 193.289V200.055L763.136 199.164ZM773.292 211.385H777.751C779.254 211.385 780.338 210.982 781.003 210.178C781.702 209.339 782.052 208.255 782.052 206.926C782.052 205.877 781.737 204.986 781.107 204.251C780.478 203.517 779.534 202.66 778.275 201.681C777.191 200.807 776.317 200.055 775.653 199.426C775.023 198.762 774.464 197.957 773.974 197.013C773.52 196.034 773.292 194.915 773.292 193.657C773.292 191.803 773.904 190.282 775.128 189.093C776.387 187.87 778.065 187.258 780.163 187.258H784.727V190.405H780.95C778.467 190.405 777.226 191.576 777.226 193.919C777.226 194.828 777.506 195.615 778.065 196.279C778.625 196.943 779.499 197.73 780.688 198.639C781.772 199.478 782.663 200.248 783.363 200.947C784.062 201.611 784.657 202.468 785.146 203.517C785.636 204.531 785.88 205.737 785.88 207.136C785.88 209.619 785.216 211.472 783.887 212.696C782.594 213.92 780.758 214.532 778.38 214.532H773.292V211.385ZM804.248 214.532C802.325 214.532 800.786 213.955 799.633 212.801C798.514 211.647 797.954 210.091 797.954 208.133V194.181C797.954 191.978 798.531 190.282 799.685 189.093C800.839 187.87 802.517 187.258 804.72 187.258H810.542V190.405H804.825C804.021 190.405 803.374 190.684 802.884 191.244C802.395 191.768 802.15 192.45 802.15 193.289V208.5C802.15 209.339 802.395 210.038 802.884 210.598C803.409 211.122 804.073 211.385 804.878 211.385H810.542V214.532H804.248ZM814.256 214.532V177.817H818.452V214.532H814.256ZM830.473 185.212L828.742 183.639L834.826 178.446L837.501 180.911L830.473 185.212ZM830.158 214.532C828.235 214.532 826.697 213.955 825.543 212.801C824.424 211.647 823.864 210.091 823.864 208.133V194.181C823.864 191.908 824.494 190.125 825.753 188.831C827.011 187.537 828.882 186.89 831.365 186.89C833.847 186.89 835.701 187.537 836.924 188.831C838.183 190.125 838.813 191.908 838.813 194.181V196.594C838.813 198.062 838.393 199.181 837.554 199.951C836.715 200.685 835.613 201.244 834.25 201.629L828.06 203.36V208.5C828.06 209.339 828.305 210.038 828.795 210.598C829.319 211.122 829.984 211.385 830.788 211.385H836.452V214.532H830.158ZM831.26 199.164C832.414 198.849 833.183 198.622 833.568 198.482C833.987 198.307 834.267 198.062 834.407 197.748C834.547 197.433 834.617 196.908 834.617 196.174V193.289C834.617 192.17 834.319 191.349 833.725 190.824C833.166 190.3 832.379 190.037 831.365 190.037C830.386 190.037 829.581 190.317 828.952 190.877C828.358 191.436 828.06 192.24 828.06 193.289V200.055L831.26 199.164ZM841.416 211.385H845.874C847.378 211.385 848.462 210.982 849.126 210.178C849.825 209.339 850.175 208.255 850.175 206.926C850.175 205.877 849.86 204.986 849.231 204.251C848.602 203.517 847.658 202.66 846.399 201.681C845.315 200.807 844.441 200.055 843.776 199.426C843.147 198.762 842.587 197.957 842.098 197.013C841.643 196.034 841.416 194.915 841.416 193.657C841.416 191.803 842.028 190.282 843.252 189.093C844.511 187.87 846.189 187.258 848.287 187.258H852.85V190.405H849.074C846.591 190.405 845.35 191.576 845.35 193.919C845.35 194.828 845.629 195.615 846.189 196.279C846.748 196.943 847.623 197.73 848.811 198.639C849.895 199.478 850.787 200.248 851.486 200.947C852.186 201.611 852.78 202.468 853.27 203.517C853.759 204.531 854.004 205.737 854.004 207.136C854.004 209.619 853.34 211.472 852.011 212.696C850.717 213.92 848.881 214.532 846.504 214.532H841.416V211.385ZM857.718 214.532V209.129H861.914V214.532H857.718Z" fill="#1E1E1E"/>
<rect width="448.945" height="88.9178" fill="black"/>
<path d="M132.344 62.9589C131.94 62.9589 131.739 62.757 131.739 62.3532V57.7986C131.739 57.5886 131.747 57.419 131.763 57.2898C131.795 57.1606 131.892 57.0556 132.053 56.9749L138.401 54.0677V49.7553L132.15 45.879C131.876 45.7175 131.739 45.4752 131.739 45.1522V36.261C131.739 36.0026 131.755 35.8169 131.787 35.7038C131.819 35.5746 131.94 35.4373 132.15 35.2919L138.522 30.9796C138.684 30.8827 138.829 30.81 138.958 30.7615C139.103 30.6969 139.281 30.6646 139.491 30.6646H146.032C146.436 30.6646 146.638 30.8665 146.638 31.2703V35.3889C146.638 35.7442 146.517 35.9864 146.275 36.1157L139.927 38.7321V43.2141L146.275 46.8481C146.517 46.9611 146.638 47.2196 146.638 47.6233V58.162C146.638 58.2912 146.614 58.4285 146.565 58.5738C146.533 58.7192 146.452 58.8242 146.323 58.8888L138.716 62.6681C138.619 62.7166 138.498 62.7812 138.352 62.862C138.223 62.9266 138.094 62.9589 137.965 62.9589H132.344ZM160.881 62.9589C160.51 62.9589 160.187 62.8539 159.912 62.6439L155.963 59.0341L151.966 53.8254C151.788 53.5993 151.675 53.462 151.627 53.4135C151.578 53.3489 151.554 53.2036 151.554 52.9775V40.6218C151.554 40.3957 151.578 40.2503 151.627 40.1857C151.691 40.1211 151.804 39.9839 151.966 39.7739L155.673 34.977L159.912 30.9796C160.09 30.8342 160.227 30.7454 160.324 30.7131C160.437 30.6808 160.623 30.6646 160.881 30.6646H166.865C167.269 30.6646 167.471 30.8665 167.471 31.2703V35.1466C167.471 35.2758 167.455 35.4131 167.423 35.5584C167.406 35.6876 167.326 35.8007 167.18 35.8976L162.626 39.0229L159.646 42.8507V50.7728L162.674 54.6006L167.18 57.7017C167.31 57.7824 167.39 57.8793 167.423 57.9924C167.455 58.1054 167.471 58.2266 167.471 58.3558V62.3532C167.471 62.757 167.269 62.9589 166.865 62.9589H160.881ZM172.771 62.9589C172.367 62.9589 172.165 62.757 172.165 62.3532V31.2703C172.165 30.8665 172.367 30.6646 172.771 30.6646H179.627C180.031 30.6646 180.232 30.8665 180.232 31.2703V62.3532C180.232 62.757 180.031 62.9589 179.627 62.9589H172.771ZM186.635 62.9589C186.231 62.9589 186.029 62.757 186.029 62.3532V31.2703C186.029 30.8665 186.231 30.6646 186.635 30.6646H203.521C203.925 30.6646 204.126 30.8665 204.126 31.2703V36.5033C204.126 36.9071 203.925 37.1089 203.521 37.1089H194.097V43.9893H202.697C203.101 43.9893 203.303 44.1912 203.303 44.595V49.0285C203.303 49.4323 203.101 49.6342 202.697 49.6342H194.097V56.4903H203.521C203.925 56.4903 204.126 56.6922 204.126 57.096V62.3532C204.126 62.757 203.925 62.9589 203.521 62.9589H186.635ZM210.53 62.9589C210.126 62.9589 209.925 62.757 209.925 62.3532V31.2703C209.925 30.8665 210.126 30.6646 210.53 30.6646H224.291C224.679 30.6646 225.002 30.7938 225.26 31.0523L230.105 35.8976C230.38 36.1722 230.517 36.4952 230.517 36.8667V62.3532C230.517 62.757 230.315 62.9589 229.912 62.9589H223.055C222.652 62.9589 222.45 62.757 222.45 62.3532V37.1089H217.992V62.3532C217.992 62.757 217.79 62.9589 217.386 62.9589H210.53ZM241.779 62.9589C241.375 62.9589 241.173 62.757 241.173 62.3532V37.1089H236.934C236.53 37.1089 236.328 36.9071 236.328 36.5033V31.2703C236.328 30.8665 236.53 30.6646 236.934 30.6646H253.48C253.884 30.6646 254.086 30.8665 254.086 31.2703V36.5033C254.086 36.9071 253.884 37.1089 253.48 37.1089H249.241V62.3532C249.241 62.757 249.039 62.9589 248.635 62.9589H241.779ZM260.498 62.9589C260.094 62.9589 259.892 62.757 259.892 62.3532V31.2703C259.892 30.8665 260.094 30.6646 260.498 30.6646H267.354C267.758 30.6646 267.96 30.8665 267.96 31.2703V62.3532C267.96 62.757 267.758 62.9589 267.354 62.9589H260.498ZM274.362 62.9589C273.958 62.9589 273.756 62.757 273.756 62.3532V31.2703C273.756 30.8665 273.958 30.6646 274.362 30.6646H290.957C291.361 30.6646 291.563 30.8665 291.563 31.2703V36.5033C291.563 36.9071 291.361 37.1089 290.957 37.1089H281.824V45.2007H289.746C290.15 45.2007 290.352 45.4026 290.352 45.8063V51.0393C290.352 51.4431 290.15 51.645 289.746 51.645H281.824V62.3532C281.824 62.757 281.622 62.9589 281.218 62.9589H274.362ZM296.034 62.9589C295.63 62.9589 295.428 62.757 295.428 62.3532V31.2703C295.428 30.8665 295.63 30.6646 296.034 30.6646H302.89C303.293 30.6646 303.495 30.8665 303.495 31.2703V62.3532C303.495 62.757 303.293 62.9589 302.89 62.9589H296.034ZM315.518 62.9589C315.131 62.9589 314.808 62.8216 314.549 62.547L309.704 57.7017C309.429 57.4432 309.292 57.1202 309.292 56.7326V36.8667C309.292 36.4952 309.429 36.1722 309.704 35.8976L314.549 31.0523C314.808 30.7938 315.131 30.6646 315.518 30.6646H325.282C325.653 30.6646 325.976 30.7938 326.251 31.0523L331.096 35.8976C331.371 36.1722 331.508 36.4952 331.508 36.8667V56.7326C331.508 57.1202 331.371 57.4432 331.096 57.7017L326.251 62.547C325.976 62.8216 325.653 62.9589 325.282 62.9589H315.518ZM318.086 67.0047C317.683 67.0047 317.481 66.8028 317.481 66.3991V62.9589H323.658L324.724 66.0599C324.805 66.3022 324.765 66.5202 324.603 66.714C324.458 66.9078 324.264 67.0047 324.022 67.0047H318.086ZM318.692 56.4903H322.084C322.762 56.4903 323.101 56.0381 323.101 55.1336V38.4899C323.101 37.5693 322.762 37.1089 322.084 37.1089H318.692C318.03 37.1089 317.699 37.5693 317.699 38.4899V55.1336C317.699 56.0381 318.03 56.4903 318.692 56.4903ZM343.53 62.9589C343.143 62.9589 342.82 62.8216 342.561 62.547L337.716 57.7017C337.441 57.4432 337.304 57.1202 337.304 56.7326V31.2703C337.304 30.8665 337.506 30.6646 337.91 30.6646H344.766C345.17 30.6646 345.372 30.8665 345.372 31.2703V56.0058C345.372 56.3288 345.533 56.4903 345.856 56.4903H349.829V31.2703C349.829 30.8665 350.031 30.6646 350.435 30.6646H357.291C357.695 30.6646 357.897 30.8665 357.897 31.2703V62.3532C357.897 62.757 357.695 62.9589 357.291 62.9589H343.53ZM364.313 62.9589C363.909 62.9589 363.707 62.757 363.707 62.3532V31.2703C363.707 30.8665 363.909 30.6646 364.313 30.6646H381.199C381.603 30.6646 381.805 30.8665 381.805 31.2703V36.5033C381.805 36.9071 381.603 37.1089 381.199 37.1089H371.775V43.9893H380.375C380.779 43.9893 380.981 44.1912 380.981 44.595V49.0285C380.981 49.4323 380.779 49.6342 380.375 49.6342H371.775V56.4903H381.199C381.603 56.4903 381.805 56.6922 381.805 57.096V62.3532C381.805 62.757 381.603 62.9589 381.199 62.9589H364.313Z" fill="#FFF1E9"/>
</svg>
