<svg width="1240" height="279" viewBox="0 0 1240 279" fill="none" xmlns="http://www.w3.org/2000/svg">
<rect x="80.8185" y="40.7006" width="1154.82" height="233.662" fill="#FFF1E9" stroke="black" stroke-width="7.51635"/>
<path d="M229.647 157.532V124.278H222.304V120.817H241.605V124.278H234.262V157.532H229.647ZM252.473 157.899C250.026 157.899 248.12 157.287 246.756 156.063C245.428 154.804 244.763 153.073 244.763 150.87V136.919C244.763 134.716 245.428 133.002 246.756 131.779C248.12 130.52 250.026 129.89 252.473 129.89C254.921 129.89 256.809 130.52 258.138 131.779C259.502 133.002 260.183 134.716 260.183 136.919V150.87C260.183 153.073 259.502 154.804 258.138 156.063C256.809 157.287 254.921 157.899 252.473 157.899ZM252.473 154.647C253.592 154.647 254.466 154.332 255.096 153.703C255.76 153.038 256.092 152.094 256.092 150.87V136.919C256.092 135.695 255.76 134.768 255.096 134.139C254.466 133.475 253.592 133.142 252.473 133.142C251.354 133.142 250.463 133.475 249.798 134.139C249.169 134.768 248.854 135.695 248.854 136.919V150.87C248.854 152.094 249.169 153.038 249.798 153.703C250.463 154.332 251.354 154.647 252.473 154.647ZM265.43 130.258H268.682L269.154 131.779L271.304 131.149C272.773 130.695 273.927 130.38 274.766 130.205C275.64 129.995 276.462 129.89 277.231 129.89C278.49 129.89 279.416 130.328 280.011 131.202C280.605 132.076 280.902 133.212 280.902 134.611V157.532H276.706V135.975C276.706 134.961 276.636 134.261 276.497 133.877C276.357 133.457 276.007 133.247 275.448 133.247C275.168 133.247 273.227 133.807 269.626 134.926V157.532H265.43V130.258ZM294.625 120.817H298.821V128.999L305.85 131.464C307.074 131.884 308.088 132.618 308.892 133.667C309.731 134.681 310.151 135.94 310.151 137.443V150.923C310.151 152.811 309.486 154.385 308.158 155.643C306.829 156.902 305.203 157.532 303.28 157.532H294.625V120.817ZM302.388 154.385C303.367 154.385 304.206 154.052 304.906 153.388C305.605 152.724 305.955 151.902 305.955 150.923V138.282C305.955 136.954 305.762 135.992 305.378 135.398C305.028 134.768 304.399 134.314 303.49 134.034L298.821 132.461V154.385H302.388ZM321.775 157.899C319.327 157.899 317.422 157.287 316.058 156.063C314.729 154.804 314.065 153.073 314.065 150.87V136.919C314.065 134.716 314.729 133.002 316.058 131.779C317.422 130.52 319.327 129.89 321.775 129.89C324.223 129.89 326.111 130.52 327.44 131.779C328.803 133.002 329.485 134.716 329.485 136.919V150.87C329.485 153.073 328.803 154.804 327.44 156.063C326.111 157.287 324.223 157.899 321.775 157.899ZM321.775 154.647C322.894 154.647 323.768 154.332 324.397 153.703C325.062 153.038 325.394 152.094 325.394 150.87V136.919C325.394 135.695 325.062 134.768 324.397 134.139C323.768 133.475 322.894 133.142 321.775 133.142C320.656 133.142 319.764 133.475 319.1 134.139C318.471 134.768 318.156 135.695 318.156 136.919V150.87C318.156 152.094 318.471 153.038 319.1 153.703C319.764 154.332 320.656 154.647 321.775 154.647ZM337.931 157.899C336.672 157.899 335.728 157.462 335.098 156.588C334.504 155.713 334.207 154.577 334.207 153.178V130.258H338.403V151.815C338.403 152.794 338.473 153.493 338.613 153.913C338.752 154.332 339.085 154.542 339.609 154.542C339.854 154.542 341.83 154.017 345.536 152.968V130.258H349.732V157.532H346.742L345.956 155.748C345.396 155.958 344.977 156.098 344.697 156.168C343.053 156.762 341.725 157.199 340.711 157.479C339.697 157.759 338.77 157.899 337.931 157.899ZM356.092 157.532V120.817H360.288V157.532H356.092ZM373.2 157.899C370.753 157.899 368.847 157.287 367.483 156.063C366.155 154.804 365.49 153.073 365.49 150.87V136.919C365.49 134.716 366.155 133.002 367.483 131.779C368.847 130.52 370.753 129.89 373.2 129.89C375.648 129.89 377.536 130.52 378.865 131.779C380.229 133.002 380.911 134.716 380.911 136.919V150.87C380.911 153.073 380.229 154.804 378.865 156.063C377.536 157.287 375.648 157.899 373.2 157.899ZM373.2 154.647C374.319 154.647 375.194 154.332 375.823 153.703C376.487 153.038 376.82 152.094 376.82 150.87V136.919C376.82 135.695 376.487 134.768 375.823 134.139C375.194 133.475 374.319 133.142 373.2 133.142C372.082 133.142 371.19 133.475 370.526 134.139C369.896 134.768 369.581 135.695 369.581 136.919V150.87C369.581 152.094 369.896 153.038 370.526 153.703C371.19 154.332 372.082 154.647 373.2 154.647ZM393.762 157.532C391.839 157.532 390.318 156.955 389.199 155.801C388.08 154.647 387.521 153.091 387.521 151.133V133.405H384.374V130.258H387.521V122.338L391.717 120.764V130.258H395.913V133.405H391.717V151.5C391.717 152.339 391.944 153.038 392.398 153.598C392.888 154.122 393.535 154.385 394.339 154.385H395.913V157.532H393.762ZM406.98 135.712V130.31H411.176V135.712H406.98ZM406.98 157.532V152.129H411.176V157.532H406.98ZM431.973 157.532C430.05 157.532 428.529 156.955 427.41 155.801C426.291 154.647 425.731 153.091 425.731 151.133V133.405H422.584V130.258H425.731V122.338L429.927 120.764V130.258H434.123V133.405H429.927V151.5C429.927 152.339 430.154 153.038 430.609 153.598C431.099 154.122 431.745 154.385 432.55 154.385H434.123V157.532H431.973ZM438.3 130.258H441.551L442.023 132.198L443.335 131.569C444.454 131.009 445.38 130.59 446.115 130.31C446.884 130.03 447.653 129.89 448.422 129.89V132.985C447.968 132.985 447.356 133.125 446.587 133.405C445.817 133.649 444.454 134.244 442.496 135.188V157.532H438.3V130.258ZM458.995 157.899C456.547 157.899 454.642 157.287 453.278 156.063C451.949 154.804 451.285 153.073 451.285 150.87V136.919C451.285 134.716 451.949 133.002 453.278 131.779C454.642 130.52 456.547 129.89 458.995 129.89C461.443 129.89 463.331 130.52 464.66 131.779C466.023 133.002 466.705 134.716 466.705 136.919V150.87C466.705 153.073 466.023 154.804 464.66 156.063C463.331 157.287 461.443 157.899 458.995 157.899ZM458.995 154.647C460.114 154.647 460.988 154.332 461.618 153.703C462.282 153.038 462.614 152.094 462.614 150.87V136.919C462.614 135.695 462.282 134.768 461.618 134.139C460.988 133.475 460.114 133.142 458.995 133.142C457.876 133.142 456.985 133.475 456.32 134.139C455.691 134.768 455.376 135.695 455.376 136.919V150.87C455.376 152.094 455.691 153.038 456.32 153.703C456.985 154.332 457.876 154.647 458.995 154.647ZM475.151 157.899C473.892 157.899 472.948 157.462 472.319 156.588C471.724 155.713 471.427 154.577 471.427 153.178V130.258H475.623V151.815C475.623 152.794 475.693 153.493 475.833 153.913C475.973 154.332 476.305 154.542 476.829 154.542C477.074 154.542 479.05 154.017 482.756 152.968V130.258H486.952V157.532H483.963L483.176 155.748C482.616 155.958 482.197 156.098 481.917 156.168C480.274 156.762 478.945 157.199 477.931 157.479C476.917 157.759 475.99 157.899 475.151 157.899ZM497.141 157.532L490.899 130.258H495.252L499.291 152.234L503.277 130.258H507.631L501.389 157.532H497.141ZM517 157.532C515.077 157.532 513.538 156.955 512.384 155.801C511.265 154.647 510.706 153.091 510.706 151.133V137.181C510.706 134.908 511.335 133.125 512.594 131.831C513.853 130.537 515.724 129.89 518.206 129.89C520.689 129.89 522.542 130.537 523.766 131.831C525.025 133.125 525.654 134.908 525.654 137.181V139.594C525.654 141.062 525.235 142.181 524.395 142.951C523.556 143.685 522.455 144.244 521.091 144.629L514.902 146.36V151.5C514.902 152.339 515.147 153.038 515.636 153.598C516.161 154.122 516.825 154.385 517.629 154.385H523.294V157.532H517ZM518.101 142.164C519.255 141.849 520.025 141.622 520.409 141.482C520.829 141.307 521.109 141.062 521.248 140.748C521.388 140.433 521.458 139.908 521.458 139.174V136.289C521.458 135.17 521.161 134.349 520.567 133.824C520.007 133.3 519.22 133.037 518.206 133.037C517.227 133.037 516.423 133.317 515.794 133.877C515.199 134.436 514.902 135.24 514.902 136.289V143.055L518.101 142.164ZM529.831 130.258H533.083L533.555 132.198L534.866 131.569C535.985 131.009 536.912 130.59 537.646 130.31C538.415 130.03 539.185 129.89 539.954 129.89V132.985C539.499 132.985 538.887 133.125 538.118 133.405C537.349 133.649 535.985 134.244 534.027 135.188V157.532H529.831V130.258ZM551.806 157.532V120.817H556.002V157.532H551.806ZM567.708 157.532C565.785 157.532 564.247 156.955 563.093 155.801C561.974 154.647 561.414 153.091 561.414 151.133V137.181C561.414 134.908 562.044 133.125 563.303 131.831C564.561 130.537 566.432 129.89 568.915 129.89C571.397 129.89 573.251 130.537 574.475 131.831C575.733 133.125 576.363 134.908 576.363 137.181V139.594C576.363 141.062 575.943 142.181 575.104 142.951C574.265 143.685 573.163 144.244 571.8 144.629L565.61 146.36V151.5C565.61 152.339 565.855 153.038 566.345 153.598C566.869 154.122 567.534 154.385 568.338 154.385H574.002V157.532H567.708ZM568.81 142.164C569.964 141.849 570.733 141.622 571.118 141.482C571.537 141.307 571.817 141.062 571.957 140.748C572.097 140.433 572.167 139.908 572.167 139.174V136.289C572.167 135.17 571.869 134.349 571.275 133.824C570.716 133.3 569.929 133.037 568.915 133.037C567.936 133.037 567.132 133.317 566.502 133.877C565.908 134.436 565.61 135.24 565.61 136.289V143.055L568.81 142.164ZM588.427 130.258H591.679L592.151 131.779L594.302 131.149C595.77 130.695 596.924 130.38 597.764 130.205C598.638 129.995 599.459 129.89 600.229 129.89C601.732 129.89 602.781 130.555 603.376 131.884C604.355 131.534 605.736 131.114 607.519 130.625C609.303 130.135 610.614 129.89 611.453 129.89C612.712 129.89 613.638 130.328 614.233 131.202C614.862 132.076 615.177 133.212 615.177 134.611V157.532H610.981V135.975C610.981 134.961 610.911 134.261 610.771 133.877C610.631 133.457 610.282 133.247 609.722 133.247C609.442 133.247 607.519 133.807 603.953 134.926V157.532H599.757V135.975C599.757 134.961 599.687 134.261 599.547 133.877C599.407 133.457 599.057 133.247 598.498 133.247C598.218 133.247 596.26 133.807 592.623 134.926V157.532H588.427V130.258ZM627.614 157.899C625.166 157.899 623.26 157.287 621.897 156.063C620.568 154.804 619.904 153.073 619.904 150.87V136.919C619.904 134.716 620.568 133.002 621.897 131.779C623.26 130.52 625.166 129.89 627.614 129.89C630.061 129.89 631.95 130.52 633.278 131.779C634.642 133.002 635.324 134.716 635.324 136.919V150.87C635.324 153.073 634.642 154.804 633.278 156.063C631.95 157.287 630.061 157.899 627.614 157.899ZM627.614 154.647C628.733 154.647 629.607 154.332 630.236 153.703C630.901 153.038 631.233 152.094 631.233 150.87V136.919C631.233 135.695 630.901 134.768 630.236 134.139C629.607 133.475 628.733 133.142 627.614 133.142C626.495 133.142 625.603 133.475 624.939 134.139C624.309 134.768 623.995 135.695 623.995 136.919V150.87C623.995 152.094 624.309 153.038 624.939 153.703C625.603 154.332 626.495 154.647 627.614 154.647ZM648.175 157.532C646.252 157.532 644.731 156.955 643.612 155.801C642.493 154.647 641.934 153.091 641.934 151.133V133.405H638.787V130.258H641.934V122.338L646.13 120.764V130.258H650.326V133.405H646.13V151.5C646.13 152.339 646.357 153.038 646.812 153.598C647.301 154.122 647.948 154.385 648.752 154.385H650.326V157.532H648.175ZM669.314 157.532C667.111 157.532 665.327 156.885 663.964 155.591C662.6 154.297 661.918 152.566 661.918 150.398V137.338C661.918 135.835 662.32 134.559 663.124 133.51C663.964 132.461 664.995 131.744 666.219 131.359L673.247 128.894V120.817H677.443V157.532H669.314ZM673.247 154.385V132.356L668.579 133.929C667.67 134.209 667.023 134.663 666.639 135.293C666.289 135.887 666.114 136.849 666.114 138.178V150.398C666.114 151.657 666.481 152.636 667.216 153.336C667.95 154.035 668.946 154.385 670.205 154.385H673.247ZM689.204 157.532C687.281 157.532 685.742 156.955 684.588 155.801C683.469 154.647 682.91 153.091 682.91 151.133V137.181C682.91 134.908 683.539 133.125 684.798 131.831C686.057 130.537 687.928 129.89 690.41 129.89C692.893 129.89 694.746 130.537 695.97 131.831C697.229 133.125 697.858 134.908 697.858 137.181V139.594C697.858 141.062 697.439 142.181 696.599 142.951C695.76 143.685 694.659 144.244 693.295 144.629L687.106 146.36V151.5C687.106 152.339 687.351 153.038 687.84 153.598C688.365 154.122 689.029 154.385 689.833 154.385H695.498V157.532H689.204ZM690.305 142.164C691.459 141.849 692.229 141.622 692.613 141.482C693.033 141.307 693.313 141.062 693.452 140.748C693.592 140.433 693.662 139.908 693.662 139.174V136.289C693.662 135.17 693.365 134.349 692.771 133.824C692.211 133.3 691.424 133.037 690.41 133.037C689.431 133.037 688.627 133.317 687.998 133.877C687.403 134.436 687.106 135.24 687.106 136.289V143.055L690.305 142.164ZM709.923 130.258H718.42C720.343 130.258 721.969 130.887 723.298 132.146C724.661 133.405 725.343 134.978 725.343 136.866V150.975C725.343 152.864 724.679 154.437 723.35 155.696C722.021 156.92 720.395 157.532 718.472 157.532H714.119V165.924H709.923V130.258ZM717.581 154.437C718.56 154.437 719.399 154.105 720.098 153.441C720.798 152.776 721.147 151.954 721.147 150.975V136.866C721.147 135.887 720.798 135.066 720.098 134.401C719.399 133.737 718.56 133.405 717.581 133.405H714.119V154.437H717.581ZM735.868 157.532C734.61 157.532 733.438 157.217 732.354 156.588C731.305 155.958 730.466 155.101 729.837 154.017C729.242 152.933 728.945 151.71 728.945 150.346V147.619C728.945 145.975 729.347 144.594 730.151 143.475C730.991 142.356 732.022 141.569 733.246 141.115L739.75 138.702V136.237C739.75 135.398 739.488 134.716 738.963 134.191C738.473 133.632 737.827 133.352 737.022 133.352H731.096V130.258H737.39C739.313 130.258 740.834 130.835 741.953 131.988C743.107 133.107 743.684 134.646 743.684 136.604V157.532H735.868ZM739.75 154.332V142.006L735.134 143.737C734.225 144.087 733.578 144.559 733.194 145.153C732.844 145.748 732.669 146.692 732.669 147.986V150.923C732.669 151.867 733.019 152.671 733.718 153.336C734.417 154 735.257 154.332 736.236 154.332H739.75ZM747.892 154.385H752.35C753.854 154.385 754.938 153.982 755.602 153.178C756.301 152.339 756.651 151.255 756.651 149.926C756.651 148.877 756.336 147.986 755.707 147.251C755.077 146.517 754.133 145.66 752.875 144.681C751.791 143.807 750.916 143.055 750.252 142.426C749.623 141.762 749.063 140.957 748.574 140.013C748.119 139.034 747.892 137.915 747.892 136.657C747.892 134.803 748.504 133.282 749.728 132.093C750.986 130.87 752.665 130.258 754.763 130.258H759.326V133.405H755.549C753.067 133.405 751.826 134.576 751.826 136.919C751.826 137.828 752.105 138.615 752.665 139.279C753.224 139.943 754.098 140.73 755.287 141.639C756.371 142.478 757.263 143.248 757.962 143.947C758.662 144.611 759.256 145.468 759.745 146.517C760.235 147.531 760.48 148.737 760.48 150.136C760.48 152.619 759.815 154.472 758.487 155.696C757.193 156.92 755.357 157.532 752.979 157.532H747.892V154.385ZM763.617 154.385H768.075C769.578 154.385 770.662 153.982 771.327 153.178C772.026 152.339 772.376 151.255 772.376 149.926C772.376 148.877 772.061 147.986 771.432 147.251C770.802 146.517 769.858 145.66 768.599 144.681C767.515 143.807 766.641 143.055 765.977 142.426C765.347 141.762 764.788 140.957 764.298 140.013C763.844 139.034 763.617 137.915 763.617 136.657C763.617 134.803 764.229 133.282 765.452 132.093C766.711 130.87 768.39 130.258 770.488 130.258H775.051V133.405H771.274C768.792 133.405 767.55 134.576 767.55 136.919C767.55 137.828 767.83 138.615 768.39 139.279C768.949 139.943 769.823 140.73 771.012 141.639C772.096 142.478 772.988 143.248 773.687 143.947C774.386 144.611 774.981 145.468 775.47 146.517C775.96 147.531 776.205 148.737 776.205 150.136C776.205 152.619 775.54 154.472 774.211 155.696C772.918 156.92 771.082 157.532 768.704 157.532H763.617V154.385ZM786.37 157.532C784.446 157.532 782.908 156.955 781.754 155.801C780.635 154.647 780.076 153.091 780.076 151.133V137.181C780.076 134.908 780.705 133.125 781.964 131.831C783.223 130.537 785.093 129.89 787.576 129.89C790.059 129.89 791.912 130.537 793.136 131.831C794.394 133.125 795.024 134.908 795.024 137.181V139.594C795.024 141.062 794.604 142.181 793.765 142.951C792.926 143.685 791.824 144.244 790.461 144.629L784.272 146.36V151.5C784.272 152.339 784.516 153.038 785.006 153.598C785.53 154.122 786.195 154.385 786.999 154.385H792.664V157.532H786.37ZM787.471 142.164C788.625 141.849 789.394 141.622 789.779 141.482C790.198 141.307 790.478 141.062 790.618 140.748C790.758 140.433 790.828 139.908 790.828 139.174V136.289C790.828 135.17 790.531 134.349 789.936 133.824C789.377 133.3 788.59 133.037 787.576 133.037C786.597 133.037 785.793 133.317 785.163 133.877C784.569 134.436 784.272 135.24 784.272 136.289V143.055L787.471 142.164ZM817.316 157.532H812.963C811.04 157.532 809.414 156.92 808.085 155.696C806.756 154.437 806.092 152.864 806.092 150.975V136.866C806.092 134.978 806.756 133.405 808.085 132.146C809.449 130.887 811.092 130.258 813.015 130.258H821.565V165.924H817.316V157.532ZM817.369 154.385V133.405H813.855C812.876 133.405 812.036 133.737 811.337 134.401C810.638 135.066 810.288 135.887 810.288 136.866V150.923C810.288 151.902 810.638 152.724 811.337 153.388C812.036 154.052 812.876 154.385 813.855 154.385H817.369ZM831.084 157.899C829.825 157.899 828.881 157.462 828.251 156.588C827.657 155.713 827.36 154.577 827.36 153.178V130.258H831.556V151.815C831.556 152.794 831.626 153.493 831.766 153.913C831.905 154.332 832.238 154.542 832.762 154.542C833.007 154.542 834.982 154.017 838.689 152.968V130.258H842.885V157.532H839.895L839.109 155.748C838.549 155.958 838.129 156.098 837.85 156.168C836.206 156.762 834.878 157.199 833.864 157.479C832.85 157.759 831.923 157.899 831.084 157.899ZM849.192 125.799V121.603H853.388V125.799H849.192ZM849.192 157.532V130.258H853.388V157.532H849.192ZM867.633 157.532V120.817H871.829V157.532H867.633ZM883.535 157.532C881.612 157.532 880.074 156.955 878.92 155.801C877.801 154.647 877.241 153.091 877.241 151.133V137.181C877.241 134.908 877.871 133.125 879.13 131.831C880.388 130.537 882.259 129.89 884.742 129.89C887.224 129.89 889.078 130.537 890.301 131.831C891.56 133.125 892.19 134.908 892.19 137.181V139.594C892.19 141.062 891.77 142.181 890.931 142.951C890.092 143.685 888.99 144.244 887.626 144.629L881.437 146.36V151.5C881.437 152.339 881.682 153.038 882.172 153.598C882.696 154.122 883.361 154.385 884.165 154.385H889.829V157.532H883.535ZM884.637 142.164C885.791 141.849 886.56 141.622 886.945 141.482C887.364 141.307 887.644 141.062 887.784 140.748C887.924 140.433 887.994 139.908 887.994 139.174V136.289C887.994 135.17 887.696 134.349 887.102 133.824C886.542 133.3 885.756 133.037 884.742 133.037C883.763 133.037 882.958 133.317 882.329 133.877C881.735 134.436 881.437 135.24 881.437 136.289V143.055L884.637 142.164ZM905.566 133.719H902.419V130.258H905.566V127.216C905.566 125.257 906.125 123.701 907.244 122.547C908.363 121.394 909.884 120.817 911.807 120.817H914.115V123.964H912.541C911.737 123.964 911.073 124.243 910.548 124.803C910.024 125.362 909.762 126.044 909.762 126.848V130.258H914.01V133.719H909.762V157.532H905.566V133.719ZM924.079 157.899C921.631 157.899 919.726 157.287 918.362 156.063C917.033 154.804 916.369 153.073 916.369 150.87V136.919C916.369 134.716 917.033 133.002 918.362 131.779C919.726 130.52 921.631 129.89 924.079 129.89C926.527 129.89 928.415 130.52 929.744 131.779C931.107 133.002 931.789 134.716 931.789 136.919V150.87C931.789 153.073 931.107 154.804 929.744 156.063C928.415 157.287 926.527 157.899 924.079 157.899ZM924.079 154.647C925.198 154.647 926.072 154.332 926.702 153.703C927.366 153.038 927.698 152.094 927.698 150.87V136.919C927.698 135.695 927.366 134.768 926.702 134.139C926.072 133.475 925.198 133.142 924.079 133.142C922.96 133.142 922.069 133.475 921.404 134.139C920.775 134.768 920.46 135.695 920.46 136.919V150.87C920.46 152.094 920.775 153.038 921.404 153.703C922.069 154.332 922.96 154.647 924.079 154.647ZM940.235 157.899C938.976 157.899 938.032 157.462 937.403 156.588C936.808 155.713 936.511 154.577 936.511 153.178V130.258H940.707V151.815C940.707 152.794 940.777 153.493 940.917 153.913C941.057 154.332 941.389 154.542 941.913 154.542C942.158 154.542 944.134 154.017 947.84 152.968V130.258H952.036V157.532H949.047L948.26 155.748C947.7 155.958 947.281 156.098 947.001 156.168C945.358 156.762 944.029 157.199 943.015 157.479C942.001 157.759 941.074 157.899 940.235 157.899ZM965.949 157.532C964.025 157.532 962.504 156.955 961.385 155.801C960.267 154.647 959.707 153.091 959.707 151.133V133.405H956.56V130.258H959.707V122.338L963.903 120.764V130.258H968.099V133.405H963.903V151.5C963.903 152.339 964.13 153.038 964.585 153.598C965.074 154.122 965.721 154.385 966.526 154.385H968.099V157.532H965.949ZM987.297 128.212L980.268 123.911L982.943 121.446L989.027 126.639L987.297 128.212ZM985.723 157.532C984.464 157.532 983.293 157.217 982.209 156.588C981.16 155.958 980.321 155.101 979.691 154.017C979.097 152.933 978.8 151.71 978.8 150.346V147.619C978.8 145.975 979.202 144.594 980.006 143.475C980.845 142.356 981.877 141.569 983.101 141.115L989.604 138.702V136.237C989.604 135.398 989.342 134.716 988.818 134.191C988.328 133.632 987.681 133.352 986.877 133.352H980.95V130.258H987.244C989.167 130.258 990.688 130.835 991.807 131.988C992.961 133.107 993.538 134.646 993.538 136.604V157.532H985.723ZM989.604 154.332V142.006L984.989 143.737C984.08 144.087 983.433 144.559 983.048 145.153C982.698 145.748 982.524 146.692 982.524 147.986V150.923C982.524 151.867 982.873 152.671 983.573 153.336C984.272 154 985.111 154.332 986.09 154.332H989.604ZM232.342 214.532V177.817H236.538V214.532H232.342ZM248.35 214.532C247.091 214.532 245.92 214.217 244.836 213.588C243.787 212.958 242.947 212.101 242.318 211.017C241.724 209.933 241.426 208.71 241.426 207.346V204.619C241.426 202.975 241.829 201.594 242.633 200.475C243.472 199.356 244.503 198.569 245.727 198.115L252.231 195.702V193.237C252.231 192.398 251.969 191.716 251.444 191.191C250.955 190.632 250.308 190.352 249.504 190.352H243.577V187.258H249.871C251.794 187.258 253.315 187.835 254.434 188.988C255.588 190.107 256.165 191.646 256.165 193.604V214.532H248.35ZM252.231 211.332V199.006L247.616 200.737C246.706 201.087 246.059 201.559 245.675 202.153C245.325 202.748 245.15 203.692 245.15 204.986V207.923C245.15 208.867 245.5 209.671 246.199 210.336C246.899 211 247.738 211.332 248.717 211.332H252.231ZM269.835 187.258H278.332C280.255 187.258 281.881 187.887 283.209 189.146C284.573 190.405 285.255 191.978 285.255 193.866V207.975C285.255 209.864 284.591 211.437 283.262 212.696C281.933 213.92 280.307 214.532 278.384 214.532H274.031V222.924H269.835V187.258ZM277.492 211.437C278.471 211.437 279.311 211.105 280.01 210.441C280.709 209.776 281.059 208.954 281.059 207.975V193.866C281.059 192.887 280.709 192.066 280.01 191.401C279.311 190.737 278.471 190.405 277.492 190.405H274.031V211.437H277.492ZM296.882 214.899C294.434 214.899 292.528 214.287 291.165 213.063C289.836 211.804 289.171 210.073 289.171 207.87V193.919C289.171 191.716 289.836 190.002 291.165 188.779C292.528 187.52 294.434 186.89 296.882 186.89C299.329 186.89 301.218 187.52 302.546 188.779C303.91 190.002 304.592 191.716 304.592 193.919V207.87C304.592 210.073 303.91 211.804 302.546 213.063C301.218 214.287 299.329 214.899 296.882 214.899ZM296.882 211.647C298.001 211.647 298.875 211.332 299.504 210.703C300.169 210.038 300.501 209.094 300.501 207.87V193.919C300.501 192.695 300.169 191.768 299.504 191.139C298.875 190.475 298.001 190.142 296.882 190.142C295.763 190.142 294.871 190.475 294.207 191.139C293.577 191.768 293.263 192.695 293.263 193.919V207.87C293.263 209.094 293.577 210.038 294.207 210.703C294.871 211.332 295.763 211.647 296.882 211.647ZM309.838 187.258H313.09L313.562 189.198L314.873 188.569C315.992 188.009 316.919 187.59 317.653 187.31C318.422 187.03 319.192 186.89 319.961 186.89V189.985C319.506 189.985 318.894 190.125 318.125 190.405C317.356 190.649 315.992 191.244 314.034 192.188V214.532H309.838V187.258ZM331.478 214.532C329.555 214.532 328.034 213.955 326.915 212.801C325.796 211.647 325.236 210.091 325.236 208.133V190.405H322.089V187.258H325.236V179.338L329.432 177.764V187.258H333.628V190.405H329.432V208.5C329.432 209.339 329.659 210.038 330.114 210.598C330.604 211.122 331.25 211.385 332.055 211.385H333.628V214.532H331.478ZM343.259 214.532C341.336 214.532 339.798 213.955 338.644 212.801C337.525 211.647 336.965 210.091 336.965 208.133V194.181C336.965 191.908 337.595 190.125 338.854 188.831C340.112 187.537 341.983 186.89 344.466 186.89C346.948 186.89 348.802 187.537 350.025 188.831C351.284 190.125 351.914 191.908 351.914 194.181V196.594C351.914 198.062 351.494 199.181 350.655 199.951C349.816 200.685 348.714 201.244 347.35 201.629L341.161 203.36V208.5C341.161 209.339 341.406 210.038 341.896 210.598C342.42 211.122 343.084 211.385 343.889 211.385H349.553V214.532H343.259ZM344.361 199.164C345.515 198.849 346.284 198.622 346.669 198.482C347.088 198.307 347.368 198.062 347.508 197.748C347.648 197.433 347.718 196.908 347.718 196.174V193.289C347.718 192.17 347.42 191.349 346.826 190.824C346.266 190.3 345.48 190.037 344.466 190.037C343.487 190.037 342.682 190.317 342.053 190.877C341.459 191.436 341.161 192.24 341.161 193.289V200.055L344.361 199.164ZM352.891 220.983L355.146 214.532V209.129H359.342V214.479L356.143 220.983H352.891ZM372.138 214.532V177.817H376.754V211.07H387.506V214.532H372.138ZM391.33 182.799V178.603H395.526V182.799H391.33ZM391.33 214.532V187.258H395.526V214.532H391.33ZM401.83 187.258H405.082L405.554 188.779L407.705 188.149C409.173 187.695 410.327 187.38 411.166 187.205C412.041 186.995 412.862 186.89 413.632 186.89C414.89 186.89 415.817 187.328 416.411 188.202C417.006 189.076 417.303 190.212 417.303 191.611V214.532H413.107V192.975C413.107 191.961 413.037 191.261 412.897 190.877C412.757 190.457 412.408 190.247 411.848 190.247C411.569 190.247 409.628 190.807 406.026 191.926V214.532H401.83V187.258ZM426.338 214.899C425.079 214.899 424.135 214.462 423.505 213.588C422.911 212.713 422.614 211.577 422.614 210.178V187.258H426.81V208.815C426.81 209.794 426.88 210.493 427.02 210.913C427.159 211.332 427.492 211.542 428.016 211.542C428.261 211.542 430.236 211.017 433.943 209.968V187.258H438.139V214.532H435.149L434.363 212.748C433.803 212.958 433.383 213.098 433.104 213.168C431.46 213.762 430.132 214.199 429.118 214.479C428.103 214.759 427.177 214.899 426.338 214.899ZM441.824 214.532L449.376 200.842L442.348 187.258H446.387L451.317 196.908L456.3 187.258H460.338L453.31 200.842L460.863 214.532H456.457L451.317 204.566L446.229 214.532H441.824ZM477.716 214.532C476.457 214.532 475.286 214.217 474.202 213.588C473.153 212.958 472.314 212.101 471.684 211.017C471.09 209.933 470.793 208.71 470.793 207.346V204.619C470.793 202.975 471.195 201.594 471.999 200.475C472.838 199.356 473.87 198.569 475.094 198.115L481.597 195.702V193.237C481.597 192.398 481.335 191.716 480.811 191.191C480.321 190.632 479.674 190.352 478.87 190.352H472.943V187.258H479.237C481.16 187.258 482.681 187.835 483.8 188.988C484.954 190.107 485.531 191.646 485.531 193.604V214.532H477.716ZM481.597 211.332V199.006L476.982 200.737C476.073 201.087 475.426 201.559 475.041 202.153C474.692 202.748 474.517 203.692 474.517 204.986V207.923C474.517 208.867 474.866 209.671 475.566 210.336C476.265 211 477.104 211.332 478.083 211.332H481.597ZM498.918 214.532C496.995 214.532 495.474 213.955 494.355 212.801C493.236 211.647 492.677 210.091 492.677 208.133V190.405H489.53V187.258H492.677V179.338L496.873 177.764V187.258H501.069V190.405H496.873V208.5C496.873 209.339 497.1 210.038 497.555 210.598C498.044 211.122 498.691 211.385 499.495 211.385H501.069V214.532H498.918ZM512.85 214.532C510.927 214.532 509.406 213.955 508.287 212.801C507.168 211.647 506.609 210.091 506.609 208.133V190.405H503.462V187.258H506.609V179.338L510.805 177.764V187.258H515.001V190.405H510.805V208.5C510.805 209.339 511.032 210.038 511.487 210.598C511.976 211.122 512.623 211.385 513.427 211.385H515.001V214.532H512.85ZM524.632 214.532C522.709 214.532 521.17 213.955 520.016 212.801C518.897 211.647 518.338 210.091 518.338 208.133V194.181C518.338 191.908 518.967 190.125 520.226 188.831C521.485 187.537 523.356 186.89 525.838 186.89C528.321 186.89 530.174 187.537 531.398 188.831C532.657 190.125 533.286 191.908 533.286 194.181V196.594C533.286 198.062 532.866 199.181 532.027 199.951C531.188 200.685 530.087 201.244 528.723 201.629L522.534 203.36V208.5C522.534 209.339 522.779 210.038 523.268 210.598C523.793 211.122 524.457 211.385 525.261 211.385H530.926V214.532H524.632ZM525.733 199.164C526.887 198.849 527.656 198.622 528.041 198.482C528.461 198.307 528.74 198.062 528.88 197.748C529.02 197.433 529.09 196.908 529.09 196.174V193.289C529.09 192.17 528.793 191.349 528.198 190.824C527.639 190.3 526.852 190.037 525.838 190.037C524.859 190.037 524.055 190.317 523.425 190.877C522.831 191.436 522.534 192.24 522.534 193.289V200.055L525.733 199.164ZM537.463 187.258H540.715L541.187 188.779L543.337 188.149C544.806 187.695 545.96 187.38 546.799 187.205C547.673 186.995 548.495 186.89 549.264 186.89C550.523 186.89 551.449 187.328 552.044 188.202C552.638 189.076 552.936 190.212 552.936 191.611V214.532H548.74V192.975C548.74 191.961 548.67 191.261 548.53 190.877C548.39 190.457 548.04 190.247 547.481 190.247C547.201 190.247 545.26 190.807 541.659 191.926V214.532H537.463V187.258ZM565.694 214.532C563.491 214.532 561.708 213.885 560.344 212.591C558.98 211.297 558.299 209.566 558.299 207.398V194.338C558.299 192.835 558.701 191.559 559.505 190.51C560.344 189.461 561.376 188.744 562.599 188.359L569.628 185.894V177.817H573.824V214.532H565.694ZM569.628 211.385V189.356L564.96 190.929C564.051 191.209 563.404 191.663 563.019 192.293C562.669 192.887 562.495 193.849 562.495 195.178V207.398C562.495 208.657 562.862 209.636 563.596 210.336C564.33 211.035 565.327 211.385 566.586 211.385H569.628ZM587.021 192.712V187.31H591.217V192.712H587.021ZM587.021 214.532V209.129H591.217V214.532H587.021ZM604.461 214.532V177.817H608.657V214.532H604.461ZM614.909 182.799V178.603H619.105V182.799H614.909ZM614.909 214.532V187.258H619.105V214.532H614.909ZM625.409 177.817H629.605V185.999L636.633 188.464C637.857 188.884 638.871 189.618 639.675 190.667C640.514 191.681 640.934 192.94 640.934 194.443V207.923C640.934 209.811 640.27 211.385 638.941 212.643C637.612 213.902 635.986 214.532 634.063 214.532H625.409V177.817ZM633.171 211.385C634.15 211.385 634.99 211.052 635.689 210.388C636.388 209.724 636.738 208.902 636.738 207.923V195.282C636.738 193.954 636.546 192.992 636.161 192.398C635.811 191.768 635.182 191.314 634.273 191.034L629.605 189.461V211.385H633.171ZM645.897 187.258H649.149L649.621 189.198L650.932 188.569C652.051 188.009 652.978 187.59 653.712 187.31C654.481 187.03 655.251 186.89 656.02 186.89V189.985C655.565 189.985 654.953 190.125 654.184 190.405C653.415 190.649 652.051 191.244 650.093 192.188V214.532H645.897V187.258ZM665.386 214.532C663.463 214.532 661.925 213.955 660.771 212.801C659.652 211.647 659.092 210.091 659.092 208.133V194.181C659.092 191.908 659.722 190.125 660.981 188.831C662.239 187.537 664.11 186.89 666.593 186.89C669.075 186.89 670.929 187.537 672.152 188.831C673.411 190.125 674.041 191.908 674.041 194.181V196.594C674.041 198.062 673.621 199.181 672.782 199.951C671.943 200.685 670.841 201.244 669.477 201.629L663.288 203.36V208.5C663.288 209.339 663.533 210.038 664.023 210.598C664.547 211.122 665.211 211.385 666.016 211.385H671.68V214.532H665.386ZM666.488 199.164C667.642 198.849 668.411 198.622 668.796 198.482C669.215 198.307 669.495 198.062 669.635 197.748C669.775 197.433 669.845 196.908 669.845 196.174V193.289C669.845 192.17 669.547 191.349 668.953 190.824C668.393 190.3 667.607 190.037 666.593 190.037C665.614 190.037 664.809 190.317 664.18 190.877C663.586 191.436 663.288 192.24 663.288 193.289V200.055L666.488 199.164ZM691.56 214.532C689.637 214.532 688.098 213.955 686.945 212.801C685.826 211.647 685.266 210.091 685.266 208.133V194.181C685.266 191.908 685.896 190.125 687.154 188.831C688.413 187.537 690.284 186.89 692.766 186.89C695.249 186.89 697.102 187.537 698.326 188.831C699.585 190.125 700.214 191.908 700.214 194.181V196.594C700.214 198.062 699.795 199.181 698.956 199.951C698.116 200.685 697.015 201.244 695.651 201.629L689.462 203.36V208.5C689.462 209.339 689.707 210.038 690.196 210.598C690.721 211.122 691.385 211.385 692.19 211.385H697.854V214.532H691.56ZM692.662 199.164C693.815 198.849 694.585 198.622 694.969 198.482C695.389 198.307 695.669 198.062 695.809 197.748C695.948 197.433 696.018 196.908 696.018 196.174V193.289C696.018 192.17 695.721 191.349 695.127 190.824C694.567 190.3 693.78 190.037 692.766 190.037C691.787 190.037 690.983 190.317 690.354 190.877C689.759 191.436 689.462 192.24 689.462 193.289V200.055L692.662 199.164ZM711.996 214.532C710.073 214.532 708.552 213.955 707.433 212.801C706.314 211.647 705.755 210.091 705.755 208.133V190.405H702.608V187.258H705.755V179.338L709.951 177.764V187.258H714.147V190.405H709.951V208.5C709.951 209.339 710.178 210.038 710.633 210.598C711.122 211.122 711.769 211.385 712.573 211.385H714.147V214.532H711.996ZM733.816 214.532C731.893 214.532 730.372 213.955 729.253 212.801C728.134 211.647 727.575 210.091 727.575 208.133V190.405H724.428V187.258H727.575V179.338L731.771 177.764V187.258H735.967V190.405H731.771V208.5C731.771 209.339 731.998 210.038 732.453 210.598C732.942 211.122 733.589 211.385 734.393 211.385H735.967V214.532H733.816ZM745.703 214.532C744.444 214.532 743.273 214.217 742.189 213.588C741.14 212.958 740.301 212.101 739.671 211.017C739.077 209.933 738.779 208.71 738.779 207.346V204.619C738.779 202.975 739.182 201.594 739.986 200.475C740.825 199.356 741.857 198.569 743.08 198.115L749.584 195.702V193.237C749.584 192.398 749.322 191.716 748.797 191.191C748.308 190.632 747.661 190.352 746.857 190.352H740.93V187.258H747.224C749.147 187.258 750.668 187.835 751.787 188.988C752.941 190.107 753.518 191.646 753.518 193.604V214.532H745.703ZM749.584 211.332V199.006L744.969 200.737C744.059 201.087 743.413 201.559 743.028 202.153C742.678 202.748 742.503 203.692 742.503 204.986V207.923C742.503 208.867 742.853 209.671 743.552 210.336C744.252 211 745.091 211.332 746.07 211.332H749.584ZM759.3 182.799V178.603H763.496V182.799H759.3ZM759.3 214.532V187.258H763.496V214.532H759.3ZM769.852 214.532V177.817H774.048V214.532H769.852ZM780.353 214.532V177.817H784.549V214.532H780.353ZM796.57 185.212L794.839 183.639L800.923 178.446L803.598 180.911L796.57 185.212ZM796.255 214.532C794.332 214.532 792.794 213.955 791.64 212.801C790.521 211.647 789.961 210.091 789.961 208.133V194.181C789.961 191.908 790.591 190.125 791.849 188.831C793.108 187.537 794.979 186.89 797.462 186.89C799.944 186.89 801.797 187.537 803.021 188.831C804.28 190.125 804.909 191.908 804.909 194.181V196.594C804.909 198.062 804.49 199.181 803.651 199.951C802.811 200.685 801.71 201.244 800.346 201.629L794.157 203.36V208.5C794.157 209.339 794.402 210.038 794.892 210.598C795.416 211.122 796.08 211.385 796.885 211.385H802.549V214.532H796.255ZM797.357 199.164C798.511 198.849 799.28 198.622 799.664 198.482C800.084 198.307 800.364 198.062 800.504 197.748C800.644 197.433 800.713 196.908 800.713 196.174V193.289C800.713 192.17 800.416 191.349 799.822 190.824C799.262 190.3 798.476 190.037 797.462 190.037C796.483 190.037 795.678 190.317 795.049 190.877C794.454 191.436 794.157 192.24 794.157 193.289V200.055L797.357 199.164ZM816.974 187.258H825.471C827.394 187.258 829.02 187.887 830.349 189.146C831.713 190.405 832.395 191.978 832.395 193.866V207.975C832.395 209.864 831.73 211.437 830.401 212.696C829.073 213.92 827.447 214.532 825.524 214.532H821.17V222.924H816.974V187.258ZM824.632 211.437C825.611 211.437 826.45 211.105 827.15 210.441C827.849 209.776 828.199 208.954 828.199 207.975V193.866C828.199 192.887 827.849 192.066 827.15 191.401C826.45 190.737 825.611 190.405 824.632 190.405H821.17V211.437H824.632ZM844.021 214.899C841.574 214.899 839.668 214.287 838.304 213.063C836.975 211.804 836.311 210.073 836.311 207.87V193.919C836.311 191.716 836.975 190.002 838.304 188.779C839.668 187.52 841.574 186.89 844.021 186.89C846.469 186.89 848.357 187.52 849.686 188.779C851.05 190.002 851.731 191.716 851.731 193.919V207.87C851.731 210.073 851.05 211.804 849.686 213.063C848.357 214.287 846.469 214.899 844.021 214.899ZM844.021 211.647C845.14 211.647 846.014 211.332 846.644 210.703C847.308 210.038 847.64 209.094 847.64 207.87V193.919C847.64 192.695 847.308 191.768 846.644 191.139C846.014 190.475 845.14 190.142 844.021 190.142C842.902 190.142 842.011 190.475 841.346 191.139C840.717 191.768 840.402 192.695 840.402 193.919V207.87C840.402 209.094 840.717 210.038 841.346 210.703C842.011 211.332 842.902 211.647 844.021 211.647ZM860.177 214.899C858.918 214.899 857.974 214.462 857.345 213.588C856.75 212.713 856.453 211.577 856.453 210.178V187.258H860.649V208.815C860.649 209.794 860.719 210.493 860.859 210.913C860.999 211.332 861.331 211.542 861.855 211.542C862.1 211.542 864.076 211.017 867.782 209.968V187.258H871.978V214.532H868.989L868.202 212.748C867.642 212.958 867.223 213.098 866.943 213.168C865.3 213.762 863.971 214.199 862.957 214.479C861.943 214.759 861.016 214.899 860.177 214.899ZM878.285 187.258H881.537L882.009 189.198L883.321 188.569C884.44 188.009 885.366 187.59 886.1 187.31C886.87 187.03 887.639 186.89 888.408 186.89V189.985C887.954 189.985 887.342 190.125 886.572 190.405C885.803 190.649 884.44 191.244 882.481 192.188V214.532H878.285V187.258ZM907.131 214.532C904.928 214.532 903.145 213.885 901.781 212.591C900.418 211.297 899.736 209.566 899.736 207.398V194.338C899.736 192.835 900.138 191.559 900.942 190.51C901.781 189.461 902.813 188.744 904.037 188.359L911.065 185.894V177.817H915.261V214.532H907.131ZM911.065 211.385V189.356L906.397 190.929C905.488 191.209 904.841 191.663 904.456 192.293C904.107 192.887 903.932 193.849 903.932 195.178V207.398C903.932 208.657 904.299 209.636 905.033 210.336C905.768 211.035 906.764 211.385 908.023 211.385H911.065ZM924.766 214.899C923.508 214.899 922.563 214.462 921.934 213.588C921.34 212.713 921.042 211.577 921.042 210.178V187.258H925.238V208.815C925.238 209.794 925.308 210.493 925.448 210.913C925.588 211.332 925.92 211.542 926.445 211.542C926.689 211.542 928.665 211.017 932.372 209.968V187.258H936.568V214.532H933.578L932.791 212.748C932.232 212.958 931.812 213.098 931.532 213.168C929.889 213.762 928.56 214.199 927.546 214.479C926.532 214.759 925.606 214.899 924.766 214.899ZM942.875 187.258H946.127L946.599 189.198L947.91 188.569C949.029 188.009 949.955 187.59 950.69 187.31C951.459 187.03 952.228 186.89 952.998 186.89V189.985C952.543 189.985 951.931 190.125 951.162 190.405C950.393 190.649 949.029 191.244 947.071 192.188V214.532H942.875V187.258ZM962.364 214.532C960.441 214.532 958.902 213.955 957.748 212.801C956.629 211.647 956.07 210.091 956.07 208.133V194.181C956.07 191.908 956.699 190.125 957.958 188.831C959.217 187.537 961.088 186.89 963.57 186.89C966.053 186.89 967.906 187.537 969.13 188.831C970.389 190.125 971.018 191.908 971.018 194.181V196.594C971.018 198.062 970.599 199.181 969.759 199.951C968.92 200.685 967.819 201.244 966.455 201.629L960.266 203.36V208.5C960.266 209.339 960.511 210.038 961 210.598C961.525 211.122 962.189 211.385 962.993 211.385H968.658V214.532H962.364ZM963.465 199.164C964.619 198.849 965.389 198.622 965.773 198.482C966.193 198.307 966.473 198.062 966.612 197.748C966.752 197.433 966.822 196.908 966.822 196.174V193.289C966.822 192.17 966.525 191.349 965.931 190.824C965.371 190.3 964.584 190.037 963.57 190.037C962.591 190.037 961.787 190.317 961.158 190.877C960.563 191.436 960.266 192.24 960.266 193.289V200.055L963.465 199.164ZM975.195 187.258H978.447L978.919 189.198L980.23 188.569C981.349 188.009 982.276 187.59 983.01 187.31C983.779 187.03 984.549 186.89 985.318 186.89V189.985C984.863 189.985 984.251 190.125 983.482 190.405C982.713 190.649 981.349 191.244 979.391 192.188V214.532H975.195V187.258ZM997.432 205.877V177.817H1001.63V205.877H997.432ZM997.432 214.532V209.129H1001.63V214.532H997.432Z" fill="#1E1E1E"/>
<rect width="448.945" height="88.9178" fill="black"/>
<path d="M132.344 62.9589C131.94 62.9589 131.739 62.757 131.739 62.3532V57.7986C131.739 57.5886 131.747 57.419 131.763 57.2898C131.795 57.1606 131.892 57.0556 132.053 56.9749L138.401 54.0677V49.7553L132.15 45.879C131.876 45.7175 131.739 45.4752 131.739 45.1522V36.261C131.739 36.0026 131.755 35.8169 131.787 35.7038C131.819 35.5746 131.94 35.4373 132.15 35.2919L138.522 30.9796C138.684 30.8827 138.829 30.81 138.958 30.7615C139.103 30.6969 139.281 30.6646 139.491 30.6646H146.032C146.436 30.6646 146.638 30.8665 146.638 31.2703V35.3889C146.638 35.7442 146.517 35.9864 146.275 36.1157L139.927 38.7321V43.2141L146.275 46.8481C146.517 46.9611 146.638 47.2196 146.638 47.6233V58.162C146.638 58.2912 146.614 58.4285 146.565 58.5738C146.533 58.7192 146.452 58.8242 146.323 58.8888L138.716 62.6681C138.619 62.7166 138.498 62.7812 138.352 62.862C138.223 62.9266 138.094 62.9589 137.965 62.9589H132.344ZM160.881 62.9589C160.51 62.9589 160.187 62.8539 159.912 62.6439L155.963 59.0341L151.966 53.8254C151.788 53.5993 151.675 53.462 151.627 53.4135C151.578 53.3489 151.554 53.2036 151.554 52.9775V40.6218C151.554 40.3957 151.578 40.2503 151.627 40.1857C151.691 40.1211 151.804 39.9839 151.966 39.7739L155.673 34.977L159.912 30.9796C160.09 30.8342 160.227 30.7454 160.324 30.7131C160.437 30.6808 160.623 30.6646 160.881 30.6646H166.865C167.269 30.6646 167.471 30.8665 167.471 31.2703V35.1466C167.471 35.2758 167.455 35.4131 167.423 35.5584C167.406 35.6876 167.326 35.8007 167.18 35.8976L162.626 39.0229L159.646 42.8507V50.7728L162.674 54.6006L167.18 57.7017C167.31 57.7824 167.39 57.8793 167.423 57.9924C167.455 58.1054 167.471 58.2266 167.471 58.3558V62.3532C167.471 62.757 167.269 62.9589 166.865 62.9589H160.881ZM172.771 62.9589C172.367 62.9589 172.165 62.757 172.165 62.3532V31.2703C172.165 30.8665 172.367 30.6646 172.771 30.6646H179.627C180.031 30.6646 180.232 30.8665 180.232 31.2703V62.3532C180.232 62.757 180.031 62.9589 179.627 62.9589H172.771ZM186.635 62.9589C186.231 62.9589 186.029 62.757 186.029 62.3532V31.2703C186.029 30.8665 186.231 30.6646 186.635 30.6646H203.521C203.925 30.6646 204.126 30.8665 204.126 31.2703V36.5033C204.126 36.9071 203.925 37.1089 203.521 37.1089H194.097V43.9893H202.697C203.101 43.9893 203.303 44.1912 203.303 44.595V49.0285C203.303 49.4323 203.101 49.6342 202.697 49.6342H194.097V56.4903H203.521C203.925 56.4903 204.126 56.6922 204.126 57.096V62.3532C204.126 62.757 203.925 62.9589 203.521 62.9589H186.635ZM210.53 62.9589C210.126 62.9589 209.925 62.757 209.925 62.3532V31.2703C209.925 30.8665 210.126 30.6646 210.53 30.6646H224.291C224.679 30.6646 225.002 30.7938 225.26 31.0523L230.105 35.8976C230.38 36.1722 230.517 36.4952 230.517 36.8667V62.3532C230.517 62.757 230.315 62.9589 229.912 62.9589H223.055C222.652 62.9589 222.45 62.757 222.45 62.3532V37.1089H217.992V62.3532C217.992 62.757 217.79 62.9589 217.386 62.9589H210.53ZM241.779 62.9589C241.375 62.9589 241.173 62.757 241.173 62.3532V37.1089H236.934C236.53 37.1089 236.328 36.9071 236.328 36.5033V31.2703C236.328 30.8665 236.53 30.6646 236.934 30.6646H253.48C253.884 30.6646 254.086 30.8665 254.086 31.2703V36.5033C254.086 36.9071 253.884 37.1089 253.48 37.1089H249.241V62.3532C249.241 62.757 249.039 62.9589 248.635 62.9589H241.779ZM260.498 62.9589C260.094 62.9589 259.892 62.757 259.892 62.3532V31.2703C259.892 30.8665 260.094 30.6646 260.498 30.6646H267.354C267.758 30.6646 267.96 30.8665 267.96 31.2703V62.3532C267.96 62.757 267.758 62.9589 267.354 62.9589H260.498ZM274.362 62.9589C273.958 62.9589 273.756 62.757 273.756 62.3532V31.2703C273.756 30.8665 273.958 30.6646 274.362 30.6646H290.957C291.361 30.6646 291.563 30.8665 291.563 31.2703V36.5033C291.563 36.9071 291.361 37.1089 290.957 37.1089H281.824V45.2007H289.746C290.15 45.2007 290.352 45.4026 290.352 45.8063V51.0393C290.352 51.4431 290.15 51.645 289.746 51.645H281.824V62.3532C281.824 62.757 281.622 62.9589 281.218 62.9589H274.362ZM296.034 62.9589C295.63 62.9589 295.428 62.757 295.428 62.3532V31.2703C295.428 30.8665 295.63 30.6646 296.034 30.6646H302.89C303.293 30.6646 303.495 30.8665 303.495 31.2703V62.3532C303.495 62.757 303.293 62.9589 302.89 62.9589H296.034ZM315.518 62.9589C315.131 62.9589 314.808 62.8216 314.549 62.547L309.704 57.7017C309.429 57.4432 309.292 57.1202 309.292 56.7326V36.8667C309.292 36.4952 309.429 36.1722 309.704 35.8976L314.549 31.0523C314.808 30.7938 315.131 30.6646 315.518 30.6646H325.282C325.653 30.6646 325.976 30.7938 326.251 31.0523L331.096 35.8976C331.371 36.1722 331.508 36.4952 331.508 36.8667V56.7326C331.508 57.1202 331.371 57.4432 331.096 57.7017L326.251 62.547C325.976 62.8216 325.653 62.9589 325.282 62.9589H315.518ZM318.086 67.0047C317.683 67.0047 317.481 66.8028 317.481 66.3991V62.9589H323.658L324.724 66.0599C324.805 66.3022 324.765 66.5202 324.603 66.714C324.458 66.9078 324.264 67.0047 324.022 67.0047H318.086ZM318.692 56.4903H322.084C322.762 56.4903 323.101 56.0381 323.101 55.1336V38.4899C323.101 37.5693 322.762 37.1089 322.084 37.1089H318.692C318.03 37.1089 317.699 37.5693 317.699 38.4899V55.1336C317.699 56.0381 318.03 56.4903 318.692 56.4903ZM343.53 62.9589C343.143 62.9589 342.82 62.8216 342.561 62.547L337.716 57.7017C337.441 57.4432 337.304 57.1202 337.304 56.7326V31.2703C337.304 30.8665 337.506 30.6646 337.91 30.6646H344.766C345.17 30.6646 345.372 30.8665 345.372 31.2703V56.0058C345.372 56.3288 345.533 56.4903 345.856 56.4903H349.829V31.2703C349.829 30.8665 350.031 30.6646 350.435 30.6646H357.291C357.695 30.6646 357.897 30.8665 357.897 31.2703V62.3532C357.897 62.757 357.695 62.9589 357.291 62.9589H343.53ZM364.313 62.9589C363.909 62.9589 363.707 62.757 363.707 62.3532V31.2703C363.707 30.8665 363.909 30.6646 364.313 30.6646H381.199C381.603 30.6646 381.805 30.8665 381.805 31.2703V36.5033C381.805 36.9071 381.603 37.1089 381.199 37.1089H371.775V43.9893H380.375C380.779 43.9893 380.981 44.1912 380.981 44.595V49.0285C380.981 49.4323 380.779 49.6342 380.375 49.6342H371.775V56.4903H381.199C381.603 56.4903 381.805 56.6922 381.805 57.096V62.3532C381.805 62.757 381.603 62.9589 381.199 62.9589H364.313Z" fill="#FFF1E9"/>
</svg>
