<svg viewBox="0 0 1163 279" fill="none" xmlns="http://www.w3.org/2000/svg">
<rect x="3.75818" y="40.7006" width="1154.82" height="233.662" fill="#FFF1E9" stroke="black" stroke-width="7.51635"/>
<path d="M289.513 176.032C289.11 176.032 288.908 175.83 288.908 175.426V144.343C288.908 143.939 289.11 143.738 289.513 143.738H304.098C304.469 143.738 304.792 143.867 305.067 144.125L309.912 148.97C310.171 149.245 310.3 149.568 310.3 149.94V155.027C310.3 155.189 310.268 155.318 310.203 155.415C310.138 155.512 310.041 155.625 309.912 155.754L306.109 159.146L305.745 160.042L306.109 160.696L309.912 164.088C310.041 164.217 310.138 164.33 310.203 164.427C310.268 164.508 310.3 164.637 310.3 164.815V169.805C310.3 170.193 310.171 170.516 309.912 170.775L305.067 175.62C304.792 175.894 304.469 176.032 304.098 176.032H289.513ZM299.156 170.581C300.496 170.581 301.409 170.314 301.893 169.781C302.394 169.248 302.644 168.239 302.644 166.753C302.644 165.251 302.394 164.233 301.893 163.7C301.409 163.167 300.496 162.901 299.156 162.901C297.831 162.901 296.919 163.167 296.418 163.7C295.933 164.233 295.691 165.251 295.691 166.753C295.691 168.239 295.933 169.248 296.418 169.781C296.919 170.314 297.831 170.581 299.156 170.581ZM299.156 156.844C300.496 156.844 301.409 156.578 301.893 156.045C302.394 155.512 302.644 154.502 302.644 153.016C302.644 151.53 302.394 150.521 301.893 149.988C301.409 149.455 300.496 149.189 299.156 149.189C297.831 149.189 296.919 149.455 296.418 149.988C295.933 150.521 295.691 151.53 295.691 153.016C295.691 154.502 295.933 155.512 296.418 156.045C296.919 156.578 297.831 156.844 299.156 156.844ZM316.837 176.032C316.433 176.032 316.231 175.83 316.231 175.426V149.988C316.231 149.584 316.433 149.382 316.837 149.382H323.281C323.685 149.382 323.886 149.584 323.886 149.988V175.426C323.886 175.83 323.685 176.032 323.281 176.032H316.837ZM316.715 147.372C316.392 147.372 316.231 147.21 316.231 146.887V143.81C316.231 143.487 316.392 143.326 316.715 143.326H323.45C323.741 143.326 323.886 143.487 323.886 143.81V146.887C323.886 147.21 323.741 147.372 323.45 147.372H316.715ZM340.381 176.032C340.219 176.032 340.042 176.008 339.848 175.959C339.67 175.911 339.5 175.87 339.339 175.838L335.027 174.772L330.084 173.125C329.6 172.963 329.358 172.495 329.358 171.719V155.609C329.358 155.221 329.495 154.898 329.769 154.64L334.615 149.794C334.889 149.52 335.212 149.382 335.584 149.382H343.336C343.708 149.382 344.031 149.52 344.305 149.794L349.151 154.64C349.425 154.898 349.563 155.221 349.563 155.609V165.542H336.553L336.383 168.764L339.824 169.902L346.001 170.338C346.276 170.387 346.413 170.573 346.413 170.896V175.426C346.413 175.83 346.211 176.032 345.808 176.032H340.381ZM339.412 161.738H339.872C340.663 161.738 341.293 161.439 341.762 160.842C342.246 160.244 342.488 159.436 342.488 158.419V157.934C342.488 156.933 342.246 156.134 341.762 155.536C341.293 154.938 340.663 154.64 339.872 154.64H339.387C338.612 154.64 337.99 154.938 337.522 155.536C337.07 156.134 336.844 156.933 336.844 157.934V158.419C336.844 159.436 337.07 160.244 337.522 160.842C337.99 161.439 338.62 161.738 339.412 161.738ZM355.211 176.032C354.807 176.032 354.606 175.83 354.606 175.426V149.988C354.606 149.584 354.807 149.382 355.211 149.382H368.173C368.544 149.382 368.867 149.52 369.142 149.794L373.987 154.64C374.262 154.898 374.399 155.221 374.399 155.609V175.426C374.399 175.83 374.197 176.032 373.793 176.032H367.325C366.921 176.032 366.719 175.83 366.719 175.426V156.578C366.719 155.819 366.339 155.439 365.58 155.439H362.285V175.426C362.285 175.83 362.084 176.032 361.68 176.032H355.211ZM386.119 176.032C385.748 176.032 385.425 175.894 385.15 175.62L380.305 170.775C380.03 170.516 379.893 170.193 379.893 169.805V149.988C379.893 149.584 380.095 149.382 380.499 149.382H386.967C387.371 149.382 387.573 149.584 387.573 149.988V169.975H392.006V149.988C392.006 149.584 392.208 149.382 392.612 149.382H399.081C399.484 149.382 399.686 149.584 399.686 149.988V169.805C399.686 170.193 399.549 170.516 399.274 170.775L394.429 175.62C394.171 175.894 393.848 176.032 393.46 176.032H386.119ZM416.184 176.032C416.022 176.032 415.845 176.008 415.651 175.959C415.473 175.911 415.304 175.87 415.142 175.838L410.83 174.772L405.888 173.125C405.403 172.963 405.161 172.495 405.161 171.719V155.609C405.161 155.221 405.298 154.898 405.573 154.64L410.418 149.794C410.692 149.52 411.016 149.382 411.387 149.382H419.14C419.511 149.382 419.834 149.52 420.109 149.794L424.954 154.64C425.229 154.898 425.366 155.221 425.366 155.609V165.542H412.356L412.186 168.764L415.627 169.902L421.804 170.338C422.079 170.387 422.216 170.573 422.216 170.896V175.426C422.216 175.83 422.014 176.032 421.611 176.032H416.184ZM415.215 161.738H415.675C416.467 161.738 417.096 161.439 417.565 160.842C418.049 160.244 418.292 159.436 418.292 158.419V157.934C418.292 156.933 418.049 156.134 417.565 155.536C417.096 154.938 416.467 154.64 415.675 154.64H415.191C414.415 154.64 413.794 154.938 413.325 155.536C412.873 156.134 412.647 156.933 412.647 157.934V158.419C412.647 159.436 412.873 160.244 413.325 160.842C413.794 161.439 414.423 161.738 415.215 161.738ZM431.014 176.032C430.611 176.032 430.409 175.83 430.409 175.426V149.988C430.409 149.584 430.611 149.382 431.014 149.382H443.976C444.347 149.382 444.67 149.52 444.945 149.794L449.79 154.64C450.065 154.898 450.202 155.221 450.202 155.609V175.426C450.202 175.83 450 176.032 449.596 176.032H443.128C442.724 176.032 442.522 175.83 442.522 175.426V156.578C442.522 155.819 442.143 155.439 441.383 155.439H438.089V175.426C438.089 175.83 437.887 176.032 437.483 176.032H431.014ZM462.092 176.032C461.704 176.032 461.381 175.894 461.123 175.62L456.278 170.775C456.003 170.516 455.866 170.193 455.866 169.805V149.988C455.866 149.584 456.068 149.382 456.471 149.382H462.94C463.344 149.382 463.546 149.584 463.546 149.988V168.836C463.546 169.596 463.917 169.975 464.66 169.975H467.979V149.988C467.979 149.584 468.181 149.382 468.585 149.382H475.053C475.457 149.382 475.659 149.584 475.659 149.988V175.426C475.659 175.83 475.457 176.032 475.053 176.032H462.092ZM492.176 176.032C492.015 176.032 491.837 176.008 491.643 175.959C491.466 175.911 491.296 175.87 491.135 175.838L486.822 174.772L481.88 173.125C481.395 172.963 481.153 172.495 481.153 171.719V155.609C481.153 155.221 481.29 154.898 481.565 154.64L486.41 149.794C486.685 149.52 487.008 149.382 487.379 149.382H495.132C495.503 149.382 495.826 149.52 496.101 149.794L500.946 154.64C501.221 154.898 501.358 155.221 501.358 155.609V165.542H488.348L488.179 168.764L491.619 169.902L497.797 170.338C498.071 170.387 498.209 170.573 498.209 170.896V175.426C498.209 175.83 498.007 176.032 497.603 176.032H492.176ZM491.207 161.738H491.668C492.459 161.738 493.089 161.439 493.557 160.842C494.042 160.244 494.284 159.436 494.284 158.419V157.934C494.284 156.933 494.042 156.134 493.557 155.536C493.089 154.938 492.459 154.64 491.668 154.64H491.183C490.408 154.64 489.786 154.938 489.318 155.536C488.865 156.134 488.639 156.933 488.639 157.934V158.419C488.639 159.436 488.865 160.244 489.318 160.842C489.786 161.439 490.416 161.738 491.207 161.738ZM520.171 176.032C519.799 176.032 519.476 175.894 519.202 175.62L514.356 170.775C514.082 170.516 513.944 170.193 513.944 169.805V155.609C513.944 155.221 514.082 154.898 514.356 154.64L519.202 149.794C519.476 149.52 519.799 149.382 520.171 149.382H523.877C524.265 149.382 524.588 149.52 524.846 149.794L526.058 151.006V144.343C526.058 143.939 526.26 143.738 526.663 143.738H533.132C533.536 143.738 533.738 143.939 533.738 144.343V175.426C533.738 175.83 533.536 176.032 533.132 176.032H528.093C527.883 176.032 527.721 175.991 527.608 175.911C527.511 175.83 527.398 175.733 527.269 175.62L526.058 174.409L524.846 175.62C524.588 175.894 524.265 176.032 523.877 176.032H520.171ZM523.005 170.387H524.701C525.218 170.387 525.573 170.282 525.767 170.072C525.961 169.862 526.058 169.491 526.058 168.958V155.027H523.005C522.472 155.027 522.109 155.132 521.915 155.342C521.721 155.552 521.624 155.924 521.624 156.457V168.958C521.624 169.491 521.721 169.862 521.915 170.072C522.109 170.282 522.472 170.387 523.005 170.387ZM545.438 176.032C545.067 176.032 544.744 175.894 544.469 175.62L539.624 170.775C539.349 170.516 539.212 170.193 539.212 169.805V155.609C539.212 155.221 539.349 154.898 539.624 154.64L544.469 149.794C544.744 149.52 545.067 149.382 545.438 149.382H558.4C558.803 149.382 559.005 149.584 559.005 149.988V175.426C559.005 175.83 558.803 176.032 558.4 176.032H553.36C553.151 176.032 552.989 175.991 552.876 175.911C552.779 175.83 552.666 175.733 552.537 175.62L551.325 174.409L550.114 175.62C549.856 175.894 549.533 176.032 549.145 176.032H545.438ZM548.273 170.387H549.969C550.486 170.387 550.841 170.282 551.035 170.072C551.229 169.862 551.325 169.491 551.325 168.958V155.027H548.273C547.74 155.027 547.376 155.132 547.183 155.342C546.989 155.552 546.892 155.924 546.892 156.457V168.958C546.892 169.491 546.989 169.862 547.183 170.072C547.376 170.282 547.74 170.387 548.273 170.387ZM565.255 176.032C564.851 176.032 564.649 175.83 564.649 175.426V149.988C564.649 149.584 564.851 149.382 565.255 149.382H578.216C578.588 149.382 578.911 149.52 579.185 149.794L584.031 154.64C584.305 154.898 584.443 155.221 584.443 155.609V175.426C584.443 175.83 584.241 176.032 583.837 176.032H577.368C576.965 176.032 576.763 175.83 576.763 175.426V156.578C576.763 155.819 576.383 155.439 575.624 155.439H572.329V175.426C572.329 175.83 572.127 176.032 571.724 176.032H565.255ZM589.961 176.032C589.557 176.032 589.355 175.83 589.355 175.426V171.501C589.355 171.13 589.476 170.888 589.719 170.775L594.661 167.843V165.324L589.719 162.659C589.476 162.513 589.355 162.263 589.355 161.908V154.179C589.355 154.002 589.38 153.856 589.428 153.743C589.493 153.63 589.581 153.533 589.695 153.452L594.855 149.673C595.032 149.544 595.178 149.463 595.291 149.431C595.404 149.398 595.517 149.382 595.63 149.382H601.517C601.921 149.382 602.123 149.584 602.123 149.988V153.792C602.123 154.066 602.099 154.252 602.05 154.349C602.018 154.446 601.937 154.526 601.808 154.591L597.229 157.062V159.873L602.123 162.295C602.397 162.408 602.535 162.651 602.535 163.022V170.46C602.535 170.863 602.397 171.186 602.123 171.429L596.963 175.717C596.704 175.927 596.381 176.032 595.993 176.032H589.961ZM615.932 176.032C615.529 176.032 615.327 175.83 615.327 175.426V149.988C615.327 149.584 615.529 149.382 615.932 149.382H626.956C627.327 149.382 627.65 149.52 627.925 149.794L630.905 152.774H631.801L634.781 149.794C635.055 149.52 635.378 149.382 635.75 149.382H641.007C641.379 149.382 641.702 149.52 641.976 149.794L646.822 154.64C647.096 154.898 647.233 155.221 647.233 155.609V175.426C647.233 175.83 647.031 176.032 646.628 176.032H640.159C639.755 176.032 639.553 175.83 639.553 175.426V156.457C639.553 155.778 639.214 155.439 638.536 155.439H635.12V175.426C635.12 175.83 634.918 176.032 634.514 176.032H628.046C627.642 176.032 627.44 175.83 627.44 175.426V156.457C627.44 155.778 627.101 155.439 626.423 155.439H623.007V175.426C623.007 175.83 622.805 176.032 622.401 176.032H615.932ZM658.954 176.032C658.582 176.032 658.259 175.894 657.985 175.62L653.139 170.775C652.865 170.516 652.728 170.193 652.728 169.805V155.609C652.728 155.221 652.865 154.898 653.139 154.64L657.985 149.794C658.259 149.52 658.582 149.382 658.954 149.382H666.295C666.682 149.382 667.005 149.52 667.264 149.794L672.109 154.64C672.383 154.898 672.521 155.221 672.521 155.609V169.805C672.521 170.193 672.383 170.516 672.109 170.775L667.264 175.62C667.005 175.894 666.682 176.032 666.295 176.032H658.954ZM661.788 170.387H663.484C664.001 170.387 664.356 170.282 664.55 170.072C664.744 169.862 664.841 169.491 664.841 168.958V156.457C664.841 155.924 664.744 155.552 664.55 155.342C664.356 155.132 664.001 155.027 663.484 155.027H661.788C661.255 155.027 660.892 155.132 660.698 155.342C660.504 155.552 660.407 155.924 660.407 156.457V168.958C660.407 169.491 660.504 169.862 660.698 170.072C660.892 170.282 661.255 170.387 661.788 170.387ZM678.771 176.032C678.367 176.032 678.165 175.83 678.165 175.426V149.988C678.165 149.584 678.367 149.382 678.771 149.382H691.732C692.103 149.382 692.426 149.52 692.701 149.794L697.546 154.64C697.821 154.898 697.958 155.221 697.958 155.609V175.426C697.958 175.83 697.756 176.032 697.352 176.032H690.884C690.48 176.032 690.278 175.83 690.278 175.426V156.578C690.278 155.819 689.899 155.439 689.14 155.439H685.845V175.426C685.845 175.83 685.643 176.032 685.239 176.032H678.771ZM717.391 176.032C717.02 176.032 716.697 175.894 716.422 175.62L711.577 170.775C711.302 170.516 711.165 170.193 711.165 169.805V155.609C711.165 155.221 711.302 154.898 711.577 154.64L716.422 149.794C716.697 149.52 717.02 149.382 717.391 149.382H730.353C730.756 149.382 730.958 149.584 730.958 149.988V175.426C730.958 175.83 730.756 176.032 730.353 176.032H725.313C725.103 176.032 724.942 175.991 724.829 175.911C724.732 175.83 724.619 175.733 724.49 175.62L723.278 174.409L722.067 175.62C721.809 175.894 721.486 176.032 721.098 176.032H717.391ZM720.226 170.387H721.922C722.439 170.387 722.794 170.282 722.988 170.072C723.182 169.862 723.278 169.491 723.278 168.958V155.027H720.226C719.693 155.027 719.329 155.132 719.136 155.342C718.942 155.552 718.845 155.924 718.845 156.457V168.958C718.845 169.491 718.942 169.862 719.136 170.072C719.329 170.282 719.693 170.387 720.226 170.387ZM742.174 176.032C741.803 176.032 741.48 175.894 741.205 175.62L737.16 171.598C736.901 171.324 736.772 171.001 736.772 170.629V155.027H735.754C735.351 155.027 735.149 154.825 735.149 154.422V149.988C735.149 149.584 735.351 149.382 735.754 149.382H736.772V146.354C736.772 145.95 736.974 145.748 737.378 145.748H743.822C744.226 145.748 744.428 145.95 744.428 146.354V149.382H746.778C747.181 149.382 747.383 149.584 747.383 149.988V154.422C747.383 154.825 747.181 155.027 746.778 155.027H744.428V167.964C744.428 168.271 744.524 168.521 744.718 168.715L747.093 171.114C747.254 171.259 747.335 171.501 747.335 171.841V175.426C747.335 175.83 747.133 176.032 746.729 176.032H742.174ZM762.598 176.032C762.436 176.032 762.258 176.008 762.065 175.959C761.887 175.911 761.717 175.87 761.556 175.838L757.244 174.772L752.301 173.125C751.817 172.963 751.574 172.495 751.574 171.719V155.609C751.574 155.221 751.712 154.898 751.986 154.64L756.832 149.794C757.106 149.52 757.429 149.382 757.801 149.382H765.553C765.925 149.382 766.248 149.52 766.522 149.794L771.368 154.64C771.642 154.898 771.78 155.221 771.78 155.609V165.542H758.77L758.6 168.764L762.04 169.902L768.218 170.338C768.493 170.387 768.63 170.573 768.63 170.896V175.426C768.63 175.83 768.428 176.032 768.024 176.032H762.598ZM761.629 161.738H762.089C762.88 161.738 763.51 161.439 763.979 160.842C764.463 160.244 764.705 159.436 764.705 158.419V157.934C764.705 156.933 764.463 156.134 763.979 155.536C763.51 154.938 762.88 154.64 762.089 154.64H761.604C760.829 154.64 760.207 154.938 759.739 155.536C759.287 156.134 759.061 156.933 759.061 157.934V158.419C759.061 159.436 759.287 160.244 759.739 160.842C760.207 161.439 760.837 161.738 761.629 161.738ZM777.137 176.032C776.734 176.032 776.532 175.83 776.532 175.426V144.343C776.532 143.939 776.734 143.738 777.137 143.738H783.606C784.01 143.738 784.212 143.939 784.212 144.343V175.426C784.212 175.83 784.01 176.032 783.606 176.032H777.137ZM790.157 176.032C789.753 176.032 789.551 175.83 789.551 175.426V149.988C789.551 149.584 789.753 149.382 790.157 149.382H796.601C797.005 149.382 797.207 149.584 797.207 149.988V175.426C797.207 175.83 797.005 176.032 796.601 176.032H790.157ZM790.036 147.372C789.712 147.372 789.551 147.21 789.551 146.887V143.81C789.551 143.487 789.712 143.326 790.036 143.326H796.771C797.061 143.326 797.207 143.487 797.207 143.81V146.887C797.207 147.21 797.061 147.372 796.771 147.372H790.036ZM813.701 176.032C813.539 176.032 813.362 176.008 813.168 175.959C812.99 175.911 812.821 175.87 812.659 175.838L808.347 174.772L803.404 173.125C802.92 172.963 802.678 172.495 802.678 171.719V155.609C802.678 155.221 802.815 154.898 803.09 154.64L807.935 149.794C808.209 149.52 808.532 149.382 808.904 149.382H816.657C817.028 149.382 817.351 149.52 817.626 149.794L822.471 154.64C822.745 154.898 822.883 155.221 822.883 155.609V165.542H809.873L809.703 168.764L813.144 169.902L819.321 170.338C819.596 170.387 819.733 170.573 819.733 170.896V175.426C819.733 175.83 819.531 176.032 819.128 176.032H813.701ZM812.732 161.738H813.192C813.983 161.738 814.613 161.439 815.082 160.842C815.566 160.244 815.809 159.436 815.809 158.419V157.934C815.809 156.933 815.566 156.134 815.082 155.536C814.613 154.938 813.983 154.64 813.192 154.64H812.708C811.932 154.64 811.31 154.938 810.842 155.536C810.39 156.134 810.164 156.933 810.164 157.934V158.419C810.164 159.436 810.39 160.244 810.842 160.842C811.31 161.439 811.94 161.738 812.732 161.738ZM828.531 176.032C828.128 176.032 827.926 175.83 827.926 175.426V149.988C827.926 149.584 828.128 149.382 828.531 149.382H832.214C832.521 149.382 832.787 149.52 833.013 149.794L835.388 152.532L838.028 149.673C838.206 149.479 838.432 149.382 838.707 149.382H841.323C841.727 149.382 841.929 149.584 841.929 149.988V155.197C841.929 155.455 841.913 155.633 841.88 155.73C841.848 155.81 841.759 155.899 841.614 155.996L835.606 160.43V175.426C835.606 175.83 835.404 176.032 835 176.032H828.531ZM858.555 175.838C858.151 175.838 857.949 175.62 857.949 175.184V167.48C857.949 167.044 858.151 166.826 858.555 166.826H866.307C866.711 166.826 866.913 167.044 866.913 167.48V175.184C866.913 175.62 866.711 175.838 866.307 175.838H858.555ZM873.357 175.838C872.954 175.838 872.752 175.62 872.752 175.184V167.48C872.752 167.044 872.954 166.826 873.357 166.826H881.11C881.514 166.826 881.716 167.044 881.716 167.48V175.184C881.716 175.62 881.514 175.838 881.11 175.838H873.357ZM844.455 175.838C844.051 175.838 843.849 175.62 843.849 175.184V167.48C843.849 167.044 844.051 166.826 844.455 166.826H852.207C852.611 166.826 852.813 167.044 852.813 167.48V175.184C852.813 175.62 852.611 175.838 852.207 175.838H844.455Z" fill="#1E1E1E"/>
<rect x="121.503" width="278.209" height="88.9178" fill="black"/>
<path d="M181.62 62.9589C181.217 62.9589 181.015 62.757 181.015 62.3532V36.0672C181.015 35.6957 181.152 35.3727 181.426 35.0981L185.448 31.0523C185.723 30.7938 186.046 30.6646 186.417 30.6646H191.965C192.337 30.6646 192.66 30.7938 192.934 31.0523L197.004 35.1466H198.143L202.213 31.0523C202.488 30.7938 202.811 30.6646 203.182 30.6646H208.706C209.093 30.6646 209.416 30.7938 209.675 31.0523L213.721 35.0981C213.995 35.3727 214.133 35.6957 214.133 36.0672V62.3532C214.133 62.757 213.931 62.9589 213.527 62.9589H206.647C206.243 62.9589 206.041 62.757 206.041 62.3532V37.1089H201.607V62.3532C201.607 62.757 201.405 62.9589 201.002 62.9589H194.146C193.742 62.9589 193.54 62.757 193.54 62.3532V37.1089H189.082V62.3532C189.082 62.757 188.88 62.9589 188.476 62.9589H181.62ZM220.563 62.9589C220.159 62.9589 219.957 62.757 219.957 62.3532V31.2703C219.957 30.8665 220.159 30.6646 220.563 30.6646H237.449C237.853 30.6646 238.055 30.8665 238.055 31.2703V36.5033C238.055 36.9071 237.853 37.1089 237.449 37.1089H228.025V43.9893H236.625C237.029 43.9893 237.231 44.1912 237.231 44.595V49.0285C237.231 49.4323 237.029 49.6342 236.625 49.6342H228.025V56.4903H237.449C237.853 56.4903 238.055 56.6922 238.055 57.096V62.3532C238.055 62.757 237.853 62.9589 237.449 62.9589H220.563ZM226.862 29.4775C226.555 29.6229 226.337 29.5502 226.208 29.2595L225.36 27.4425C225.247 27.1518 225.336 26.9095 225.626 26.7157L231.344 23.009C231.634 22.8313 231.853 22.9363 231.998 23.3239L233.379 26.2069C233.508 26.4815 233.419 26.6995 233.112 26.861L226.862 29.4775ZM253.01 62.9589C252.639 62.9589 252.316 62.8539 252.041 62.6439L248.092 59.0341L244.095 53.8254C243.917 53.5993 243.804 53.462 243.756 53.4135C243.707 53.3489 243.683 53.2036 243.683 52.9775V40.6218C243.683 40.3957 243.707 40.2503 243.756 40.1857C243.82 40.1211 243.933 39.9839 244.095 39.7739L247.802 34.977L252.041 30.9796C252.219 30.8342 252.356 30.7454 252.453 30.7131C252.566 30.6808 252.752 30.6646 253.01 30.6646H258.994C259.398 30.6646 259.6 30.8665 259.6 31.2703V35.1466C259.6 35.2758 259.584 35.4131 259.552 35.5584C259.535 35.6876 259.455 35.8007 259.309 35.8976L254.755 39.0229L251.775 42.8507V50.7728L254.803 54.6006L259.309 57.7017C259.439 57.7824 259.519 57.8793 259.552 57.9924C259.584 58.1054 259.6 58.2266 259.6 58.3558V62.3532C259.6 62.757 259.398 62.9589 258.994 62.9589H253.01ZM264.73 62.9589C264.326 62.9589 264.124 62.757 264.124 62.3532V39.895C264.124 39.6851 264.205 39.4428 264.367 39.1682L270.108 31.028C270.286 30.7858 270.544 30.6646 270.884 30.6646H278.903C279.258 30.6646 279.516 30.7858 279.678 31.028L285.444 39.1682C285.605 39.3943 285.686 39.6366 285.686 39.895V62.3532C285.686 62.757 285.484 62.9589 285.081 62.9589H278.224C277.821 62.9589 277.619 62.757 277.619 62.3532V52.0568H272.216V62.3532C272.216 62.757 272.014 62.9589 271.61 62.9589H264.73ZM274.905 46.8481C276.391 46.8481 277.393 46.5251 277.909 45.879C278.442 45.2168 278.709 43.9651 278.709 42.1239C278.709 40.2826 278.442 39.039 277.909 38.393C277.393 37.7308 276.391 37.3997 274.905 37.3997C273.436 37.3997 272.434 37.7308 271.901 38.393C271.384 39.039 271.126 40.2826 271.126 42.1239C271.126 43.9651 271.384 45.2168 271.901 45.879C272.434 46.5251 273.436 46.8481 274.905 46.8481ZM291.965 62.9589C291.562 62.9589 291.36 62.757 291.36 62.3532V31.2703C291.36 30.8665 291.562 30.6646 291.965 30.6646H305.726C306.114 30.6646 306.437 30.7938 306.695 31.0523L311.541 35.8976C311.815 36.1722 311.952 36.4952 311.952 36.8667V62.3532C311.952 62.757 311.751 62.9589 311.347 62.9589H304.491C304.087 62.9589 303.885 62.757 303.885 62.3532V37.1089H299.427V62.3532C299.427 62.757 299.225 62.9589 298.822 62.9589H291.965ZM323.989 62.9589C323.618 62.9589 323.295 62.8216 323.02 62.547L318.175 57.7017C317.9 57.4432 317.763 57.1202 317.763 56.7326V36.8667C317.763 36.4952 317.9 36.1722 318.175 35.8976L323.02 31.0523C323.295 30.7938 323.618 30.6646 323.989 30.6646H333.511C333.898 30.6646 334.221 30.7938 334.48 31.0523L339.325 35.8976C339.599 36.1722 339.737 36.4952 339.737 36.8667V56.7326C339.737 57.1202 339.599 57.4432 339.325 57.7017L334.48 62.547C334.221 62.8216 333.898 62.9589 333.511 62.9589H323.989ZM326.848 56.4903H330.652C331.33 56.4903 331.669 56.0381 331.669 55.1336V38.4899C331.669 37.5693 331.33 37.1089 330.652 37.1089H326.848C326.186 37.1089 325.855 37.5693 325.855 38.4899V55.1336C325.855 56.0381 326.186 56.4903 326.848 56.4903Z" fill="#FFF1E9"/>
</svg>
