<svg viewBox="0 0 1163 279" fill="none" xmlns="http://www.w3.org/2000/svg">
<rect x="3.75794" y="40.7006" width="1154.82" height="233.662" fill="#FFF1E9" stroke="black" stroke-width="7.51635"/>
<path d="M162.509 145.532C162.106 145.532 161.904 145.33 161.904 144.926V122.468C161.904 122.258 161.984 122.016 162.146 121.741L167.888 113.601C168.065 113.359 168.324 113.238 168.663 113.238H176.682C177.037 113.238 177.296 113.359 177.457 113.601L183.223 121.741C183.385 121.967 183.465 122.209 183.465 122.468V144.926C183.465 145.33 183.264 145.532 182.86 145.532H176.004C175.6 145.532 175.398 145.33 175.398 144.926V134.63H169.995V144.926C169.995 145.33 169.793 145.532 169.39 145.532H162.509ZM172.685 129.421C174.17 129.421 175.172 129.098 175.689 128.452C176.222 127.79 176.488 126.538 176.488 124.697C176.488 122.856 176.222 121.612 175.689 120.966C175.172 120.304 174.17 119.973 172.685 119.973C171.215 119.973 170.213 120.304 169.68 120.966C169.164 121.612 168.905 122.856 168.905 124.697C168.905 126.538 169.164 127.79 169.68 128.452C170.213 129.098 171.215 129.421 172.685 129.421ZM195.196 145.532C194.824 145.532 194.501 145.394 194.227 145.12L189.381 140.275C189.107 140.016 188.969 139.693 188.969 139.305V119.488C188.969 119.084 189.171 118.882 189.575 118.882H196.044C196.447 118.882 196.649 119.084 196.649 119.488V139.475H201.083V119.488C201.083 119.084 201.285 118.882 201.688 118.882H208.157C208.561 118.882 208.763 119.084 208.763 119.488V139.305C208.763 139.693 208.625 140.016 208.351 140.275L203.505 145.12C203.247 145.394 202.924 145.532 202.536 145.532H195.196ZM220.463 145.532C220.092 145.532 219.769 145.394 219.494 145.12L214.649 140.275C214.374 140.016 214.237 139.693 214.237 139.305V125.109C214.237 124.721 214.374 124.398 214.649 124.14L219.494 119.294C219.769 119.02 220.092 118.882 220.463 118.882H233.425C233.828 118.882 234.03 119.084 234.03 119.488V144.926C234.03 145.33 233.828 145.532 233.425 145.532H228.386C228.176 145.532 228.014 145.491 227.901 145.411C227.804 145.33 227.691 145.233 227.562 145.12L226.351 143.909L225.139 145.12C224.881 145.394 224.558 145.532 224.17 145.532H220.463ZM223.298 139.887H224.994C225.511 139.887 225.866 139.782 226.06 139.572C226.254 139.362 226.351 138.991 226.351 138.458V124.527H223.298C222.765 124.527 222.402 124.632 222.208 124.842C222.014 125.052 221.917 125.424 221.917 125.957V138.458C221.917 138.991 222.014 139.362 222.208 139.572C222.402 139.782 222.765 139.887 223.298 139.887ZM240.28 145.532C239.876 145.532 239.674 145.33 239.674 144.926V119.488C239.674 119.084 239.876 118.882 240.28 118.882H253.241C253.613 118.882 253.936 119.02 254.21 119.294L259.056 124.14C259.33 124.398 259.468 124.721 259.468 125.109V144.926C259.468 145.33 259.266 145.532 258.862 145.532H252.393C251.99 145.532 251.788 145.33 251.788 144.926V126.078C251.788 125.319 251.408 124.939 250.649 124.939H247.354V144.926C247.354 145.33 247.152 145.532 246.749 145.532H240.28ZM270.704 145.532C270.332 145.532 270.009 145.394 269.735 145.12L265.689 141.098C265.43 140.824 265.301 140.501 265.301 140.129V124.527H264.283C263.88 124.527 263.678 124.325 263.678 123.922V119.488C263.678 119.084 263.88 118.882 264.283 118.882H265.301V115.854C265.301 115.45 265.503 115.248 265.907 115.248H272.351C272.755 115.248 272.957 115.45 272.957 115.854V118.882H275.307C275.71 118.882 275.912 119.084 275.912 119.488V123.922C275.912 124.325 275.71 124.527 275.307 124.527H272.957V137.464C272.957 137.771 273.054 138.021 273.247 138.215L275.622 140.614C275.783 140.759 275.864 141.001 275.864 141.341V144.926C275.864 145.33 275.662 145.532 275.258 145.532H270.704ZM288.301 145.532C287.897 145.532 287.695 145.33 287.695 144.926V113.843C287.695 113.439 287.897 113.238 288.301 113.238H294.769C295.173 113.238 295.375 113.439 295.375 113.843V144.926C295.375 145.33 295.173 145.532 294.769 145.532H288.301ZM306.771 145.532C306.4 145.532 306.077 145.394 305.802 145.12L300.957 140.275C300.682 140.016 300.545 139.693 300.545 139.305V125.109C300.545 124.721 300.682 124.398 300.957 124.14L305.802 119.294C306.077 119.02 306.4 118.882 306.771 118.882H319.732C320.136 118.882 320.338 119.084 320.338 119.488V144.926C320.338 145.33 320.136 145.532 319.732 145.532H314.693C314.483 145.532 314.322 145.491 314.209 145.411C314.112 145.33 313.999 145.233 313.87 145.12L312.658 143.909L311.447 145.12C311.188 145.394 310.865 145.532 310.478 145.532H306.771ZM309.606 139.887H311.302C311.818 139.887 312.174 139.782 312.367 139.572C312.561 139.362 312.658 138.991 312.658 138.458V124.527H309.606C309.073 124.527 308.709 124.632 308.515 124.842C308.322 125.052 308.225 125.424 308.225 125.957V138.458C308.225 138.991 308.322 139.362 308.515 139.572C308.709 139.782 309.073 139.887 309.606 139.887ZM334.301 145.532C333.897 145.532 333.695 145.33 333.695 144.926V119.488C333.695 119.084 333.897 118.882 334.301 118.882H337.983C338.29 118.882 338.556 119.02 338.783 119.294L341.157 122.032L343.798 119.173C343.975 118.979 344.201 118.882 344.476 118.882H347.092C347.496 118.882 347.698 119.084 347.698 119.488V124.697C347.698 124.955 347.682 125.133 347.65 125.23C347.617 125.31 347.528 125.399 347.383 125.496L341.375 129.93V144.926C341.375 145.33 341.173 145.532 340.769 145.532H334.301ZM361.441 145.532C361.279 145.532 361.102 145.508 360.908 145.459C360.73 145.411 360.561 145.37 360.399 145.338L356.087 144.272L351.145 142.625C350.66 142.463 350.418 141.995 350.418 141.219V125.109C350.418 124.721 350.555 124.398 350.83 124.14L355.675 119.294C355.95 119.02 356.273 118.882 356.644 118.882H364.397C364.768 118.882 365.091 119.02 365.366 119.294L370.211 124.14C370.486 124.398 370.623 124.721 370.623 125.109V135.042H357.613L357.444 138.264L360.884 139.402L367.062 139.838C367.336 139.887 367.473 140.073 367.473 140.396V144.926C367.473 145.33 367.272 145.532 366.868 145.532H361.441ZM360.472 131.238H360.932C361.724 131.238 362.354 130.939 362.822 130.342C363.306 129.744 363.549 128.936 363.549 127.919V127.434C363.549 126.433 363.306 125.634 362.822 125.036C362.354 124.438 361.724 124.14 360.932 124.14H360.448C359.672 124.14 359.051 124.438 358.582 125.036C358.13 125.634 357.904 126.433 357.904 127.434V127.919C357.904 128.936 358.13 129.744 358.582 130.342C359.051 130.939 359.681 131.238 360.472 131.238ZM358.219 117.695C357.912 117.841 357.694 117.768 357.565 117.477L356.717 115.66C356.604 115.369 356.693 115.127 356.983 114.933L362.701 111.227C362.991 111.049 363.21 111.154 363.355 111.542L364.736 114.425C364.865 114.699 364.776 114.917 364.469 115.079L358.219 117.695ZM381.723 145.532C381.351 145.532 381.028 145.394 380.753 145.12L375.908 140.275C375.634 140.016 375.496 139.693 375.496 139.305V119.488C375.496 119.084 375.698 118.882 376.102 118.882H382.57C382.974 118.882 383.176 119.084 383.176 119.488V139.475H387.61V119.488C387.61 119.084 387.812 118.882 388.215 118.882H394.684C395.088 118.882 395.29 119.084 395.29 119.488V139.305C395.29 139.693 395.152 140.016 394.878 140.275L390.032 145.12C389.774 145.394 389.451 145.532 389.063 145.532H381.723ZM406.99 145.532C406.619 145.532 406.296 145.394 406.021 145.12L401.176 140.275C400.901 140.016 400.764 139.693 400.764 139.305V125.109C400.764 124.721 400.901 124.398 401.176 124.14L406.021 119.294C406.296 119.02 406.619 118.882 406.99 118.882H414.331C414.719 118.882 415.042 119.02 415.3 119.294L420.145 124.14C420.42 124.398 420.557 124.721 420.557 125.109V139.305C420.557 139.693 420.42 140.016 420.145 140.275L415.3 145.12C415.042 145.394 414.719 145.532 414.331 145.532H406.99ZM409.825 139.887H411.521C412.037 139.887 412.393 139.782 412.587 139.572C412.78 139.362 412.877 138.991 412.877 138.458V125.957C412.877 125.424 412.78 125.052 412.587 124.842C412.393 124.632 412.037 124.527 411.521 124.527H409.825C409.292 124.527 408.928 124.632 408.735 124.842C408.541 125.052 408.444 125.424 408.444 125.957V138.458C408.444 138.991 408.541 139.362 408.735 139.572C408.928 139.782 409.292 139.887 409.825 139.887ZM426.516 145.532C426.112 145.532 425.911 145.33 425.911 144.926V113.843C425.911 113.439 426.112 113.238 426.516 113.238H432.985C433.389 113.238 433.59 113.439 433.59 113.843V144.926C433.59 145.33 433.389 145.532 432.985 145.532H426.516ZM445.156 145.532C444.768 145.532 444.445 145.394 444.187 145.12L439.342 140.275C439.067 140.016 438.93 139.693 438.93 139.305V119.488C438.93 119.084 439.132 118.882 439.535 118.882H446.004C446.408 118.882 446.61 119.084 446.61 119.488V138.336C446.61 139.096 446.981 139.475 447.724 139.475H451.043V119.488C451.043 119.084 451.245 118.882 451.649 118.882H458.117C458.521 118.882 458.723 119.084 458.723 119.488V144.926C458.723 145.33 458.521 145.532 458.117 145.532H445.156ZM469.959 145.532C469.587 145.532 469.264 145.394 468.99 145.12L464.944 141.098C464.686 140.824 464.556 140.501 464.556 140.129V124.527H463.539C463.135 124.527 462.933 124.325 462.933 123.922V119.488C462.933 119.084 463.135 118.882 463.539 118.882H464.556V115.854C464.556 115.45 464.758 115.248 465.162 115.248H471.606C472.01 115.248 472.212 115.45 472.212 115.854V118.882H474.562C474.966 118.882 475.168 119.084 475.168 119.488V123.922C475.168 124.325 474.966 124.527 474.562 124.527H472.212V137.464C472.212 137.771 472.309 138.021 472.503 138.215L474.877 140.614C475.038 140.759 475.119 141.001 475.119 141.341V144.926C475.119 145.33 474.917 145.532 474.514 145.532H469.959ZM480.134 145.532C479.73 145.532 479.528 145.33 479.528 144.926V119.488C479.528 119.084 479.73 118.882 480.134 118.882H486.578C486.982 118.882 487.184 119.084 487.184 119.488V144.926C487.184 145.33 486.982 145.532 486.578 145.532H480.134ZM480.013 116.872C479.69 116.872 479.528 116.71 479.528 116.387V113.31C479.528 112.987 479.69 112.826 480.013 112.826H486.748C487.039 112.826 487.184 112.987 487.184 113.31V116.387C487.184 116.71 487.039 116.872 486.748 116.872H480.013ZM498.881 145.532C498.51 145.532 498.187 145.394 497.912 145.12L493.067 140.275C492.792 140.016 492.655 139.693 492.655 139.305V125.109C492.655 124.721 492.792 124.398 493.067 124.14L497.912 119.294C498.187 119.02 498.51 118.882 498.881 118.882H506.222C506.61 118.882 506.933 119.02 507.191 119.294L512.037 124.14C512.311 124.398 512.448 124.721 512.448 125.109V139.305C512.448 139.693 512.311 140.016 512.037 140.275L507.191 145.12C506.933 145.394 506.61 145.532 506.222 145.532H498.881ZM501.716 139.887H503.412C503.929 139.887 504.284 139.782 504.478 139.572C504.672 139.362 504.769 138.991 504.769 138.458V125.957C504.769 125.424 504.672 125.052 504.478 124.842C504.284 124.632 503.929 124.527 503.412 124.527H501.716C501.183 124.527 500.82 124.632 500.626 124.842C500.432 125.052 500.335 125.424 500.335 125.957V138.458C500.335 138.991 500.432 139.362 500.626 139.572C500.82 139.782 501.183 139.887 501.716 139.887ZM518.698 145.532C518.294 145.532 518.092 145.33 518.092 144.926V119.488C518.092 119.084 518.294 118.882 518.698 118.882H531.659C532.031 118.882 532.354 119.02 532.629 119.294L537.474 124.14C537.748 124.398 537.886 124.721 537.886 125.109V144.926C537.886 145.33 537.684 145.532 537.28 145.532H530.812C530.408 145.532 530.206 145.33 530.206 144.926V126.078C530.206 125.319 529.826 124.939 529.067 124.939H525.772V144.926C525.772 145.33 525.57 145.532 525.167 145.532H518.698ZM551.868 145.532C551.464 145.532 551.262 145.33 551.262 144.926V113.843C551.262 113.439 551.464 113.238 551.868 113.238H565.629C566.016 113.238 566.339 113.367 566.598 113.625L571.443 118.47C571.718 118.745 571.855 119.068 571.855 119.44V144.926C571.855 145.33 571.653 145.532 571.249 145.532H564.393C563.989 145.532 563.787 145.33 563.787 144.926V119.682H559.33V144.926C559.33 145.33 559.128 145.532 558.724 145.532H551.868ZM578.271 145.532C577.868 145.532 577.666 145.33 577.666 144.926V113.843C577.666 113.439 577.868 113.238 578.271 113.238H585.127C585.531 113.238 585.733 113.439 585.733 113.843V144.926C585.733 145.33 585.531 145.532 585.127 145.532H578.271ZM592.135 145.532C591.732 145.532 591.53 145.33 591.53 144.926V113.843C591.53 113.439 591.732 113.238 592.135 113.238H605.266C605.654 113.238 605.977 113.342 606.235 113.552L611.808 119.076C611.985 119.238 612.09 119.375 612.122 119.488C612.171 119.601 612.195 119.787 612.195 120.045V126.683C612.195 126.893 612.114 127.079 611.953 127.241L609.288 129.833L607.035 131.771L609.7 135.308L612.437 141.171C612.502 141.316 612.55 141.462 612.583 141.607C612.631 141.736 612.655 141.898 612.655 142.092V144.926C612.655 145.33 612.454 145.532 612.05 145.532H605.654C605.299 145.532 605.056 145.37 604.927 145.047L601.027 133.709H599.21V144.926C599.21 145.33 599.008 145.532 598.604 145.532H592.135ZM601.875 127.774C603.215 127.774 604.128 127.499 604.612 126.95C605.097 126.385 605.339 125.335 605.339 123.8C605.339 122.25 605.097 121.2 604.612 120.651C604.128 120.086 603.215 119.803 601.875 119.803C600.55 119.803 599.638 120.086 599.137 120.651C598.636 121.2 598.386 122.25 598.386 123.8C598.386 125.335 598.636 126.385 599.137 126.95C599.638 127.499 600.55 127.774 601.875 127.774ZM616.95 145.532C616.546 145.532 616.344 145.33 616.344 144.926V113.843C616.344 113.439 616.546 113.238 616.95 113.238H631.728C632.116 113.238 632.439 113.367 632.697 113.625L637.542 118.47C637.817 118.745 637.954 119.068 637.954 119.44V139.305C637.954 139.693 637.817 140.016 637.542 140.275L632.697 145.12C632.439 145.394 632.116 145.532 631.728 145.532H616.95ZM624.436 139.063H628.869C629.548 139.063 629.887 138.611 629.887 137.707V121.063C629.887 120.142 629.548 119.682 628.869 119.682H624.436V139.063ZM643.822 149.893C643.386 149.893 643.168 149.675 643.168 149.238V145.847C643.168 145.427 643.386 145.217 643.822 145.217H645.59C646.075 145.217 646.317 145.015 646.317 144.611V143.884H643.216C642.812 143.884 642.61 143.666 642.61 143.23L642.659 137.101C642.659 136.665 642.869 136.447 643.289 136.447H650.969C651.372 136.447 651.574 136.665 651.574 137.101V144.514C651.574 146.323 651.146 147.672 650.29 148.56C649.434 149.448 648.287 149.893 646.85 149.893H643.822ZM670.172 145.532C669.8 145.532 669.477 145.394 669.203 145.12L664.358 140.275C664.083 140.016 663.946 139.693 663.946 139.305V125.109C663.946 124.721 664.083 124.398 664.358 124.14L669.203 119.294C669.477 119.02 669.8 118.882 670.172 118.882H677.513C677.9 118.882 678.223 119.02 678.482 119.294L683.327 124.14C683.602 124.398 683.739 124.721 683.739 125.109V139.305C683.739 139.693 683.602 140.016 683.327 140.275L678.482 145.12C678.223 145.394 677.9 145.532 677.513 145.532H670.172ZM673.006 139.887H674.702C675.219 139.887 675.575 139.782 675.768 139.572C675.962 139.362 676.059 138.991 676.059 138.458V125.957C676.059 125.424 675.962 125.052 675.768 124.842C675.575 124.632 675.219 124.527 674.702 124.527H673.006C672.473 124.527 672.11 124.632 671.916 124.842C671.722 125.052 671.626 125.424 671.626 125.957V138.458C671.626 138.991 671.722 139.362 671.916 139.572C672.11 139.782 672.473 139.887 673.006 139.887ZM689.989 145.532C689.585 145.532 689.383 145.33 689.383 144.926V119.488C689.383 119.084 689.585 118.882 689.989 118.882H702.95C703.321 118.882 703.644 119.02 703.919 119.294L708.764 124.14C709.039 124.398 709.176 124.721 709.176 125.109V144.926C709.176 145.33 708.974 145.532 708.571 145.532H702.102C701.698 145.532 701.496 145.33 701.496 144.926V126.078C701.496 125.319 701.117 124.939 700.358 124.939H697.063V144.926C697.063 145.33 696.861 145.532 696.457 145.532H689.989ZM723.158 145.532C722.755 145.532 722.553 145.33 722.553 144.926V113.843C722.553 113.439 722.755 113.238 723.158 113.238H729.627C730.031 113.238 730.233 113.439 730.233 113.843V120.506L731.444 119.294C731.702 119.02 732.025 118.882 732.413 118.882H736.12C736.491 118.882 736.814 119.02 737.089 119.294L741.934 124.14C742.209 124.398 742.346 124.721 742.346 125.109V139.305C742.346 139.693 742.209 140.016 741.934 140.275L737.089 145.12C736.814 145.394 736.491 145.532 736.12 145.532H723.158ZM730.233 139.887H733.285C733.818 139.887 734.182 139.782 734.375 139.572C734.569 139.362 734.666 138.991 734.666 138.458V125.957C734.666 125.424 734.569 125.052 734.375 124.842C734.182 124.632 733.818 124.527 733.285 124.527H731.589C731.073 124.527 730.717 124.632 730.523 124.842C730.33 125.052 730.233 125.424 730.233 125.957V139.887ZM754.066 145.532C753.695 145.532 753.372 145.394 753.097 145.12L748.252 140.275C747.977 140.016 747.84 139.693 747.84 139.305V125.109C747.84 124.721 747.977 124.398 748.252 124.14L753.097 119.294C753.372 119.02 753.695 118.882 754.066 118.882H767.028C767.432 118.882 767.633 119.084 767.633 119.488V144.926C767.633 145.33 767.432 145.532 767.028 145.532H761.989C761.779 145.532 761.617 145.491 761.504 145.411C761.407 145.33 761.294 145.233 761.165 145.12L759.954 143.909L758.742 145.12C758.484 145.394 758.161 145.532 757.773 145.532H754.066ZM756.901 139.887H758.597C759.114 139.887 759.469 139.782 759.663 139.572C759.857 139.362 759.954 138.991 759.954 138.458V124.527H756.901C756.368 124.527 756.005 124.632 755.811 124.842C755.617 125.052 755.52 125.424 755.52 125.957V138.458C755.52 138.991 755.617 139.362 755.811 139.572C756.005 139.782 756.368 139.887 756.901 139.887ZM773.592 145.532C773.189 145.532 772.987 145.33 772.987 144.926V113.843C772.987 113.439 773.189 113.238 773.592 113.238H780.061C780.465 113.238 780.667 113.439 780.667 113.843V144.926C780.667 145.33 780.465 145.532 780.061 145.532H773.592ZM792.063 145.532C791.691 145.532 791.368 145.394 791.094 145.12L786.248 140.275C785.974 140.016 785.836 139.693 785.836 139.305V125.109C785.836 124.721 785.974 124.398 786.248 124.14L791.094 119.294C791.368 119.02 791.691 118.882 792.063 118.882H805.024C805.428 118.882 805.63 119.084 805.63 119.488V144.926C805.63 145.33 805.428 145.532 805.024 145.532H799.985C799.775 145.532 799.613 145.491 799.5 145.411C799.403 145.33 799.29 145.233 799.161 145.12L797.95 143.909L796.738 145.12C796.48 145.394 796.157 145.532 795.769 145.532H792.063ZM794.897 139.887H796.593C797.11 139.887 797.465 139.782 797.659 139.572C797.853 139.362 797.95 138.991 797.95 138.458V124.527H794.897C794.364 124.527 794.001 124.632 793.807 124.842C793.613 125.052 793.516 125.424 793.516 125.957V138.458C793.516 138.991 793.613 139.362 793.807 139.572C794.001 139.782 794.364 139.887 794.897 139.887ZM811.879 145.532C811.476 145.532 811.274 145.33 811.274 144.926V119.488C811.274 119.084 811.476 118.882 811.879 118.882H824.841C825.212 118.882 825.535 119.02 825.81 119.294L830.655 124.14C830.93 124.398 831.067 124.721 831.067 125.109V144.926C831.067 145.33 830.865 145.532 830.461 145.532H823.993C823.589 145.532 823.387 145.33 823.387 144.926V126.078C823.387 125.319 823.007 124.939 822.248 124.939H818.954V144.926C818.954 145.33 818.752 145.532 818.348 145.532H811.879ZM844.604 145.532C844.281 145.532 843.958 145.427 843.635 145.217L839.686 142.552L836.973 138.191C836.86 137.981 836.763 137.844 836.682 137.779C836.601 137.698 836.561 137.537 836.561 137.295V127.119C836.561 126.877 836.593 126.716 836.658 126.635C836.723 126.554 836.828 126.409 836.973 126.199L839.444 122.08L843.635 119.197C843.781 119.1 843.926 119.028 844.071 118.979C844.217 118.915 844.394 118.882 844.604 118.882H848.796C849.199 118.882 849.401 119.084 849.401 119.488V124.018C849.401 124.148 849.385 124.285 849.353 124.43C849.337 124.576 849.264 124.689 849.135 124.769L846.373 126.15L844.241 128.936V135.405L846.494 137.973L849.135 139.645C849.296 139.742 849.377 139.863 849.377 140.008C849.393 140.137 849.401 140.266 849.401 140.396V144.926C849.401 145.33 849.199 145.532 848.796 145.532H844.604ZM844.071 153.357C843.668 153.357 843.466 153.187 843.466 152.848V152.025C843.466 151.701 843.668 151.54 844.071 151.54H846.809V149.578H844.677C844.273 149.578 844.071 149.376 844.071 148.972V147.397L845.307 145.532H848.578L847.342 147.397H848.917C849.321 147.397 849.522 147.599 849.522 148.003V151.831C849.522 152.121 849.409 152.38 849.183 152.606L848.699 153.09C848.586 153.204 848.465 153.276 848.335 153.309C848.206 153.341 848.077 153.357 847.948 153.357H844.071ZM860.295 145.532C859.923 145.532 859.6 145.394 859.326 145.12L854.481 140.275C854.206 140.016 854.069 139.693 854.069 139.305V125.109C854.069 124.721 854.206 124.398 854.481 124.14L859.326 119.294C859.6 119.02 859.923 118.882 860.295 118.882H873.256C873.66 118.882 873.862 119.084 873.862 119.488V144.926C873.862 145.33 873.66 145.532 873.256 145.532H868.217C868.007 145.532 867.846 145.491 867.733 145.411C867.636 145.33 867.523 145.233 867.393 145.12L866.182 143.909L864.971 145.12C864.712 145.394 864.389 145.532 864.002 145.532H860.295ZM863.129 139.887H864.825C865.342 139.887 865.698 139.782 865.891 139.572C866.085 139.362 866.182 138.991 866.182 138.458V124.527H863.129C862.596 124.527 862.233 124.632 862.039 124.842C861.845 125.052 861.749 125.424 861.749 125.957V138.458C861.749 138.991 861.845 139.362 862.039 139.572C862.233 139.782 862.596 139.887 863.129 139.887ZM880.112 145.532C879.708 145.532 879.506 145.33 879.506 144.926V119.488C879.506 119.084 879.708 118.882 880.112 118.882H886.556C886.96 118.882 887.162 119.084 887.162 119.488V144.926C887.162 145.33 886.96 145.532 886.556 145.532H880.112ZM879.99 116.872C879.667 116.872 879.506 116.71 879.506 116.387V113.31C879.506 112.987 879.667 112.826 879.99 112.826H886.726C887.016 112.826 887.162 112.987 887.162 113.31V116.387C887.162 116.71 887.016 116.872 886.726 116.872H879.99ZM898.374 145.532C898.003 145.532 897.68 145.394 897.405 145.12L893.36 141.098C893.101 140.824 892.972 140.501 892.972 140.129V124.527H891.954C891.551 124.527 891.349 124.325 891.349 123.922V119.488C891.349 119.084 891.551 118.882 891.954 118.882H892.972V115.854C892.972 115.45 893.174 115.248 893.578 115.248H900.022C900.426 115.248 900.628 115.45 900.628 115.854V118.882H902.978C903.381 118.882 903.583 119.084 903.583 119.488V123.922C903.583 124.325 903.381 124.527 902.978 124.527H900.628V137.464C900.628 137.771 900.724 138.021 900.918 138.215L903.292 140.614C903.454 140.759 903.535 141.001 903.535 141.341V144.926C903.535 145.33 903.333 145.532 902.929 145.532H898.374ZM167.645 206.532C167.274 206.532 166.951 206.394 166.676 206.12L162.63 202.098C162.372 201.824 162.243 201.501 162.243 201.129V185.527H161.225C160.822 185.527 160.62 185.325 160.62 184.922V180.488C160.62 180.084 160.822 179.882 161.225 179.882H162.243V176.854C162.243 176.45 162.445 176.248 162.848 176.248H169.293C169.697 176.248 169.898 176.45 169.898 176.854V179.882H172.248C172.652 179.882 172.854 180.084 172.854 180.488V184.922C172.854 185.325 172.652 185.527 172.248 185.527H169.898V198.464C169.898 198.771 169.995 199.021 170.189 199.215L172.563 201.614C172.725 201.759 172.806 202.001 172.806 202.341V205.926C172.806 206.33 172.604 206.532 172.2 206.532H167.645ZM183.272 206.532C182.9 206.532 182.577 206.394 182.303 206.12L177.457 201.275C177.183 201.016 177.045 200.693 177.045 200.305V186.109C177.045 185.721 177.183 185.398 177.457 185.14L182.303 180.294C182.577 180.02 182.9 179.882 183.272 179.882H190.612C191 179.882 191.323 180.02 191.581 180.294L196.427 185.14C196.701 185.398 196.839 185.721 196.839 186.109V200.305C196.839 200.693 196.701 201.016 196.427 201.275L191.581 206.12C191.323 206.394 191 206.532 190.612 206.532H183.272ZM186.106 200.887H187.802C188.319 200.887 188.674 200.782 188.868 200.572C189.062 200.362 189.159 199.991 189.159 199.458V186.957C189.159 186.424 189.062 186.052 188.868 185.842C188.674 185.632 188.319 185.527 187.802 185.527H186.106C185.573 185.527 185.21 185.632 185.016 185.842C184.822 186.052 184.725 186.424 184.725 186.957V199.458C184.725 199.991 184.822 200.362 185.016 200.572C185.21 200.782 185.573 200.887 186.106 200.887ZM208.709 206.532C208.321 206.532 207.998 206.394 207.74 206.12L202.894 201.275C202.62 201.016 202.483 200.693 202.483 200.305V180.488C202.483 180.084 202.685 179.882 203.088 179.882H209.557C209.961 179.882 210.163 180.084 210.163 180.488V199.336C210.163 200.096 210.534 200.475 211.277 200.475H214.596V180.488C214.596 180.084 214.798 179.882 215.202 179.882H221.67C222.074 179.882 222.276 180.084 222.276 180.488V205.926C222.276 206.33 222.074 206.532 221.67 206.532H208.709ZM233.512 206.532C233.14 206.532 232.817 206.394 232.543 206.12L228.497 202.098C228.238 201.824 228.109 201.501 228.109 201.129V185.527H227.092C226.688 185.527 226.486 185.325 226.486 184.922V180.488C226.486 180.084 226.688 179.882 227.092 179.882H228.109V176.854C228.109 176.45 228.311 176.248 228.715 176.248H235.159C235.563 176.248 235.765 176.45 235.765 176.854V179.882H238.115C238.519 179.882 238.721 180.084 238.721 180.488V184.922C238.721 185.325 238.519 185.527 238.115 185.527H235.765V198.464C235.765 198.771 235.862 199.021 236.056 199.215L238.43 201.614C238.591 201.759 238.672 202.001 238.672 202.341V205.926C238.672 206.33 238.47 206.532 238.066 206.532H233.512ZM256.851 206.532C256.479 206.532 256.156 206.394 255.882 206.12L251.036 201.275C250.762 201.016 250.625 200.693 250.625 200.305V186.109C250.625 185.721 250.762 185.398 251.036 185.14L255.882 180.294C256.156 180.02 256.479 179.882 256.851 179.882H269.812C270.216 179.882 270.418 180.084 270.418 180.488V205.926C270.418 206.33 270.216 206.532 269.812 206.532H264.773C264.563 206.532 264.401 206.491 264.288 206.411C264.192 206.33 264.078 206.233 263.949 206.12L262.738 204.909L261.527 206.12C261.268 206.394 260.945 206.532 260.558 206.532H256.851ZM259.685 200.887H261.381C261.898 200.887 262.253 200.782 262.447 200.572C262.641 200.362 262.738 199.991 262.738 199.458V185.527H259.685C259.152 185.527 258.789 185.632 258.595 185.842C258.401 186.052 258.304 186.424 258.304 186.957V199.458C258.304 199.991 258.401 200.362 258.595 200.572C258.789 200.782 259.152 200.887 259.685 200.887ZM265.645 178.695L259.395 176.079C259.088 175.917 258.999 175.699 259.128 175.425L260.509 172.542C260.654 172.154 260.872 172.049 261.163 172.227L266.881 175.933C267.171 176.127 267.26 176.369 267.147 176.66L266.299 178.477C266.186 178.768 265.968 178.841 265.645 178.695ZM284.09 206.532C283.686 206.532 283.484 206.33 283.484 205.926V174.843C283.484 174.439 283.686 174.238 284.09 174.238H290.558C290.962 174.238 291.164 174.439 291.164 174.843V205.926C291.164 206.33 290.962 206.532 290.558 206.532H284.09ZM302.56 206.532C302.188 206.532 301.865 206.394 301.591 206.12L296.745 201.275C296.471 201.016 296.334 200.693 296.334 200.305V186.109C296.334 185.721 296.471 185.398 296.745 185.14L301.591 180.294C301.865 180.02 302.188 179.882 302.56 179.882H315.521C315.925 179.882 316.127 180.084 316.127 180.488V205.926C316.127 206.33 315.925 206.532 315.521 206.532H310.482C310.272 206.532 310.11 206.491 309.997 206.411C309.901 206.33 309.787 206.233 309.658 206.12L308.447 204.909L307.236 206.12C306.977 206.394 306.654 206.532 306.267 206.532H302.56ZM305.394 200.887H307.09C307.607 200.887 307.962 200.782 308.156 200.572C308.35 200.362 308.447 199.991 308.447 199.458V185.527H305.394C304.861 185.527 304.498 185.632 304.304 185.842C304.11 186.052 304.013 186.424 304.013 186.957V199.458C304.013 199.991 304.11 200.362 304.304 200.572C304.498 200.782 304.861 200.887 305.394 200.887ZM330.089 206.532C329.686 206.532 329.484 206.33 329.484 205.926V174.843C329.484 174.439 329.686 174.238 330.089 174.238H336.558C336.962 174.238 337.164 174.439 337.164 174.843V181.506L338.375 180.294C338.633 180.02 338.956 179.882 339.344 179.882H343.051C343.422 179.882 343.745 180.02 344.02 180.294L348.865 185.14C349.14 185.398 349.277 185.721 349.277 186.109V200.305C349.277 200.693 349.14 201.016 348.865 201.275L344.02 206.12C343.745 206.394 343.422 206.532 343.051 206.532H330.089ZM337.164 200.887H340.216C340.749 200.887 341.112 200.782 341.306 200.572C341.5 200.362 341.597 199.991 341.597 199.458V186.957C341.597 186.424 341.5 186.052 341.306 185.842C341.112 185.632 340.749 185.527 340.216 185.527H338.52C338.003 185.527 337.648 185.632 337.454 185.842C337.26 186.052 337.164 186.424 337.164 186.957V200.887ZM365.794 206.532C365.633 206.532 365.455 206.508 365.261 206.459C365.084 206.411 364.914 206.37 364.752 206.338L360.44 205.272L355.498 203.625C355.013 203.463 354.771 202.995 354.771 202.219V186.109C354.771 185.721 354.908 185.398 355.183 185.14L360.028 180.294C360.303 180.02 360.626 179.882 360.997 179.882H368.75C369.121 179.882 369.444 180.02 369.719 180.294L374.564 185.14C374.839 185.398 374.976 185.721 374.976 186.109V196.042H361.966L361.797 199.264L365.237 200.402L371.415 200.838C371.689 200.887 371.827 201.073 371.827 201.396V205.926C371.827 206.33 371.625 206.532 371.221 206.532H365.794ZM364.825 192.238H365.285C366.077 192.238 366.707 191.939 367.175 191.342C367.66 190.744 367.902 189.936 367.902 188.919V188.434C367.902 187.433 367.66 186.634 367.175 186.036C366.707 185.438 366.077 185.14 365.285 185.14H364.801C364.026 185.14 363.404 185.438 362.935 186.036C362.483 186.634 362.257 187.433 362.257 188.434V188.919C362.257 189.936 362.483 190.744 362.935 191.342C363.404 191.939 364.034 192.238 364.825 192.238ZM380.625 206.532C380.221 206.532 380.019 206.33 380.019 205.926V180.488C380.019 180.084 380.221 179.882 380.625 179.882H393.586C393.958 179.882 394.281 180.02 394.555 180.294L399.4 185.14C399.675 185.398 399.812 185.721 399.812 186.109V205.926C399.812 206.33 399.61 206.532 399.207 206.532H392.738C392.334 206.532 392.132 206.33 392.132 205.926V187.078C392.132 186.319 391.753 185.939 390.994 185.939H387.699V205.926C387.699 206.33 387.497 206.532 387.093 206.532H380.625ZM406.082 206.532C405.678 206.532 405.476 206.33 405.476 205.926V180.488C405.476 180.084 405.678 179.882 406.082 179.882H419.043C419.415 179.882 419.738 180.02 420.012 180.294L424.857 185.14C425.132 185.398 425.269 185.721 425.269 186.109V205.926C425.269 206.33 425.067 206.532 424.664 206.532H418.195C417.791 206.532 417.589 206.33 417.589 205.926V187.078C417.589 186.319 417.21 185.939 416.451 185.939H413.156V205.926C413.156 206.33 412.954 206.532 412.55 206.532H406.082ZM441.787 206.532C441.625 206.532 441.447 206.508 441.254 206.459C441.076 206.411 440.906 206.37 440.745 206.338L436.433 205.272L431.49 203.625C431.006 203.463 430.763 202.995 430.763 202.219V186.109C430.763 185.721 430.901 185.398 431.175 185.14L436.021 180.294C436.295 180.02 436.618 179.882 436.99 179.882H444.742C445.114 179.882 445.437 180.02 445.711 180.294L450.557 185.14C450.831 185.398 450.969 185.721 450.969 186.109V196.042H437.959L437.789 199.264L441.229 200.402L447.407 200.838C447.682 200.887 447.819 201.073 447.819 201.396V205.926C447.819 206.33 447.617 206.532 447.213 206.532H441.787ZM440.818 192.238H441.278C442.069 192.238 442.699 191.939 443.168 191.342C443.652 190.744 443.894 189.936 443.894 188.919V188.434C443.894 187.433 443.652 186.634 443.168 186.036C442.699 185.438 442.069 185.14 441.278 185.14H440.793C440.018 185.14 439.396 185.438 438.928 186.036C438.476 186.634 438.25 187.433 438.25 188.434V188.919C438.25 189.936 438.476 190.744 438.928 191.342C439.396 191.939 440.026 192.238 440.818 192.238ZM464.33 213.8C463.926 213.8 463.724 213.598 463.724 213.194V180.488C463.724 180.084 463.926 179.882 464.33 179.882H469.345C469.636 179.882 469.918 180.02 470.193 180.294L471.404 181.506L472.616 180.294C472.874 180.02 473.197 179.882 473.585 179.882H477.291C477.663 179.882 477.986 180.02 478.26 180.294L483.106 185.14C483.38 185.398 483.518 185.721 483.518 186.109V200.305C483.518 200.693 483.38 201.016 483.106 201.275L478.26 206.12C477.986 206.394 477.663 206.532 477.291 206.532H473.585C473.197 206.532 472.874 206.394 472.616 206.12L471.404 204.909V213.194C471.404 213.598 471.202 213.8 470.799 213.8H464.33ZM471.404 200.887H474.457C474.99 200.887 475.353 200.782 475.547 200.572C475.741 200.362 475.838 199.991 475.838 199.458V186.957C475.838 186.424 475.741 186.052 475.547 185.842C475.353 185.632 474.99 185.527 474.457 185.527H472.761C472.244 185.527 471.889 185.632 471.695 185.842C471.501 186.052 471.404 186.424 471.404 186.957V200.887ZM495.238 206.532C494.866 206.532 494.543 206.394 494.269 206.12L489.424 201.275C489.149 201.016 489.012 200.693 489.012 200.305V186.109C489.012 185.721 489.149 185.398 489.424 185.14L494.269 180.294C494.543 180.02 494.866 179.882 495.238 179.882H502.579C502.966 179.882 503.289 180.02 503.548 180.294L508.393 185.14C508.668 185.398 508.805 185.721 508.805 186.109V200.305C508.805 200.693 508.668 201.016 508.393 201.275L503.548 206.12C503.289 206.394 502.966 206.532 502.579 206.532H495.238ZM498.072 200.887H499.768C500.285 200.887 500.641 200.782 500.834 200.572C501.028 200.362 501.125 199.991 501.125 199.458V186.957C501.125 186.424 501.028 186.052 500.834 185.842C500.641 185.632 500.285 185.527 499.768 185.527H498.072C497.54 185.527 497.176 185.632 496.982 185.842C496.788 186.052 496.692 186.424 496.692 186.957V199.458C496.692 199.991 496.788 200.362 496.982 200.572C497.176 200.782 497.54 200.887 498.072 200.887ZM520.675 206.532C520.288 206.532 519.965 206.394 519.706 206.12L514.861 201.275C514.586 201.016 514.449 200.693 514.449 200.305V180.488C514.449 180.084 514.651 179.882 515.055 179.882H521.523C521.927 179.882 522.129 180.084 522.129 180.488V199.336C522.129 200.096 522.5 200.475 523.243 200.475H526.562V180.488C526.562 180.084 526.764 179.882 527.168 179.882H533.637C534.04 179.882 534.242 180.084 534.242 180.488V205.926C534.242 206.33 534.04 206.532 533.637 206.532H520.675ZM540.512 206.532C540.108 206.532 539.906 206.33 539.906 205.926V180.488C539.906 180.084 540.108 179.882 540.512 179.882H544.194C544.501 179.882 544.767 180.02 544.994 180.294L547.368 183.032L550.009 180.173C550.186 179.979 550.412 179.882 550.687 179.882H553.303C553.707 179.882 553.909 180.084 553.909 180.488V185.697C553.909 185.955 553.893 186.133 553.861 186.23C553.828 186.31 553.739 186.399 553.594 186.496L547.586 190.93V205.926C547.586 206.33 547.384 206.532 546.98 206.532H540.512ZM570.738 206.532C570.35 206.532 570.027 206.394 569.768 206.12L564.923 201.275C564.649 201.016 564.511 200.693 564.511 200.305V180.488C564.511 180.084 564.713 179.882 565.117 179.882H571.585C571.989 179.882 572.191 180.084 572.191 180.488V199.336C572.191 200.096 572.563 200.475 573.306 200.475H576.625V180.488C576.625 180.084 576.827 179.882 577.23 179.882H583.699C584.103 179.882 584.305 180.084 584.305 180.488V205.926C584.305 206.33 584.103 206.532 583.699 206.532H570.738ZM590.574 206.532C590.17 206.532 589.968 206.33 589.968 205.926V180.488C589.968 180.084 590.17 179.882 590.574 179.882H603.535C603.907 179.882 604.23 180.02 604.504 180.294L609.35 185.14C609.624 185.398 609.761 185.721 609.761 186.109V205.926C609.761 206.33 609.56 206.532 609.156 206.532H602.687C602.283 206.532 602.082 206.33 602.082 205.926V187.078C602.082 186.319 601.702 185.939 600.943 185.939H597.648V205.926C597.648 206.33 597.446 206.532 597.042 206.532H590.574ZM626.279 206.532C626.117 206.532 625.94 206.508 625.746 206.459C625.568 206.411 625.399 206.37 625.237 206.338L620.925 205.272L615.982 203.625C615.498 203.463 615.256 202.995 615.256 202.219V186.109C615.256 185.721 615.393 185.398 615.668 185.14L620.513 180.294C620.787 180.02 621.11 179.882 621.482 179.882H629.234C629.606 179.882 629.929 180.02 630.204 180.294L635.049 185.14C635.323 185.398 635.461 185.721 635.461 186.109V196.042H622.451L622.281 199.264L625.722 200.402L631.899 200.838C632.174 200.887 632.311 201.073 632.311 201.396V205.926C632.311 206.33 632.109 206.532 631.706 206.532H626.279ZM625.31 192.238H625.77C626.561 192.238 627.191 191.939 627.66 191.342C628.144 190.744 628.387 189.936 628.387 188.919V188.434C628.387 187.433 628.144 186.634 627.66 186.036C627.191 185.438 626.561 185.14 625.77 185.14H625.286C624.51 185.14 623.888 185.438 623.42 186.036C622.968 186.634 622.742 187.433 622.742 188.434V188.919C622.742 189.936 622.968 190.744 623.42 191.342C623.888 191.939 624.518 192.238 625.31 192.238ZM648.071 206.532C647.667 206.532 647.465 206.33 647.465 205.926V202.001C647.465 201.63 647.587 201.388 647.829 201.275L652.771 198.343V195.824L647.829 193.159C647.587 193.013 647.465 192.763 647.465 192.408V184.679C647.465 184.502 647.49 184.356 647.538 184.243C647.603 184.13 647.692 184.033 647.805 183.952L652.965 180.173C653.143 180.044 653.288 179.963 653.401 179.931C653.514 179.898 653.627 179.882 653.74 179.882H659.627C660.031 179.882 660.233 180.084 660.233 180.488V184.292C660.233 184.566 660.209 184.752 660.16 184.849C660.128 184.946 660.047 185.026 659.918 185.091L655.339 187.562V190.373L660.233 192.795C660.507 192.908 660.645 193.151 660.645 193.522V200.96C660.645 201.363 660.507 201.686 660.233 201.929L655.073 206.217C654.814 206.427 654.491 206.532 654.104 206.532H648.071ZM666.33 206.532C665.926 206.532 665.724 206.33 665.724 205.926V180.488C665.724 180.084 665.926 179.882 666.33 179.882H672.774C673.178 179.882 673.38 180.084 673.38 180.488V205.926C673.38 206.33 673.178 206.532 672.774 206.532H666.33ZM666.209 177.872C665.886 177.872 665.724 177.71 665.724 177.387V174.31C665.724 173.987 665.886 173.826 666.209 173.826H672.944C673.234 173.826 673.38 173.987 673.38 174.31V177.387C673.38 177.71 673.234 177.872 672.944 177.872H666.209ZM679.626 206.532C679.222 206.532 679.02 206.33 679.02 205.926V180.488C679.02 180.084 679.222 179.882 679.626 179.882H690.649C691.021 179.882 691.344 180.02 691.618 180.294L694.598 183.274H695.495L698.474 180.294C698.749 180.02 699.072 179.882 699.443 179.882H704.701C705.072 179.882 705.395 180.02 705.67 180.294L710.515 185.14C710.79 185.398 710.927 185.721 710.927 186.109V205.926C710.927 206.33 710.725 206.532 710.321 206.532H703.853C703.449 206.532 703.247 206.33 703.247 205.926V186.957C703.247 186.278 702.908 185.939 702.23 185.939H698.814V205.926C698.814 206.33 698.612 206.532 698.208 206.532H691.739C691.336 206.532 691.134 206.33 691.134 205.926V186.957C691.134 186.278 690.795 185.939 690.116 185.939H686.7V205.926C686.7 206.33 686.498 206.532 686.095 206.532H679.626ZM717.196 213.8C716.793 213.8 716.591 213.598 716.591 213.194V180.488C716.591 180.084 716.793 179.882 717.196 179.882H722.211C722.502 179.882 722.785 180.02 723.059 180.294L724.271 181.506L725.482 180.294C725.74 180.02 726.063 179.882 726.451 179.882H730.158C730.529 179.882 730.852 180.02 731.127 180.294L735.972 185.14C736.247 185.398 736.384 185.721 736.384 186.109V200.305C736.384 200.693 736.247 201.016 735.972 201.275L731.127 206.12C730.852 206.394 730.529 206.532 730.158 206.532H726.451C726.063 206.532 725.74 206.394 725.482 206.12L724.271 204.909V213.194C724.271 213.598 724.069 213.8 723.665 213.8H717.196ZM724.271 200.887H727.323C727.856 200.887 728.22 200.782 728.413 200.572C728.607 200.362 728.704 199.991 728.704 199.458V186.957C728.704 186.424 728.607 186.052 728.413 185.842C728.22 185.632 727.856 185.527 727.323 185.527H725.627C725.11 185.527 724.755 185.632 724.561 185.842C724.368 186.052 724.271 186.424 724.271 186.957V200.887ZM742.363 206.532C741.959 206.532 741.757 206.33 741.757 205.926V174.843C741.757 174.439 741.959 174.238 742.363 174.238H748.831C749.235 174.238 749.437 174.439 749.437 174.843V205.926C749.437 206.33 749.235 206.532 748.831 206.532H742.363ZM765.63 206.532C765.468 206.532 765.291 206.508 765.097 206.459C764.919 206.411 764.75 206.37 764.588 206.338L760.276 205.272L755.333 203.625C754.849 203.463 754.607 202.995 754.607 202.219V186.109C754.607 185.721 754.744 185.398 755.018 185.14L759.864 180.294C760.138 180.02 760.461 179.882 760.833 179.882H768.585C768.957 179.882 769.28 180.02 769.555 180.294L774.4 185.14C774.674 185.398 774.812 185.721 774.812 186.109V196.042H761.802L761.632 199.264L765.073 200.402L771.25 200.838C771.525 200.887 771.662 201.073 771.662 201.396V205.926C771.662 206.33 771.46 206.532 771.057 206.532H765.63ZM764.661 192.238H765.121C765.912 192.238 766.542 191.939 767.011 191.342C767.495 190.744 767.738 189.936 767.738 188.919V188.434C767.738 187.433 767.495 186.634 767.011 186.036C766.542 185.438 765.912 185.14 765.121 185.14H764.637C763.861 185.14 763.239 185.438 762.771 186.036C762.319 186.634 762.093 187.433 762.093 188.434V188.919C762.093 189.936 762.319 190.744 762.771 191.342C763.239 191.939 763.869 192.238 764.661 192.238ZM788.173 206.532C787.769 206.532 787.567 206.33 787.567 205.926V179.64C787.567 179.269 787.705 178.946 787.979 178.671L792.001 174.625C792.276 174.367 792.599 174.238 792.97 174.238H798.518C798.889 174.238 799.212 174.367 799.487 174.625L803.557 178.719H804.696L808.766 174.625C809.04 174.367 809.363 174.238 809.735 174.238H815.259C815.646 174.238 815.969 174.367 816.228 174.625L820.274 178.671C820.548 178.946 820.685 179.269 820.685 179.64V205.926C820.685 206.33 820.484 206.532 820.08 206.532H813.199C812.796 206.532 812.594 206.33 812.594 205.926V180.682H808.16V205.926C808.16 206.33 807.958 206.532 807.555 206.532H800.698C800.295 206.532 800.093 206.33 800.093 205.926V180.682H795.635V205.926C795.635 206.33 795.433 206.532 795.029 206.532H788.173ZM826.946 206.532C826.542 206.532 826.34 206.33 826.34 205.926V183.468C826.34 183.258 826.421 183.016 826.583 182.741L832.324 174.601C832.502 174.359 832.761 174.238 833.1 174.238H841.119C841.474 174.238 841.733 174.359 841.894 174.601L847.66 182.741C847.821 182.967 847.902 183.209 847.902 183.468V205.926C847.902 206.33 847.7 206.532 847.297 206.532H840.44C840.037 206.532 839.835 206.33 839.835 205.926V195.63H834.432V205.926C834.432 206.33 834.23 206.532 833.827 206.532H826.946ZM837.121 190.421C838.607 190.421 839.609 190.098 840.125 189.452C840.658 188.79 840.925 187.538 840.925 185.697C840.925 183.856 840.658 182.612 840.125 181.966C839.609 181.304 838.607 180.973 837.121 180.973C835.652 180.973 834.65 181.304 834.117 181.966C833.6 182.612 833.342 183.856 833.342 185.697C833.342 187.538 833.6 188.79 834.117 189.452C834.65 190.098 835.652 190.421 837.121 190.421ZM852.243 210.578C851.84 210.578 851.638 210.376 851.638 209.972V206.12C851.638 205.813 851.718 205.571 851.88 205.393L855.465 201.808C855.659 201.63 855.756 201.371 855.756 201.032V174.843C855.756 174.439 855.958 174.238 856.362 174.238H863.218C863.622 174.238 863.824 174.439 863.824 174.843V204.424C863.824 204.569 863.808 204.707 863.775 204.836C863.759 204.949 863.686 205.07 863.557 205.199L858.542 210.214C858.3 210.456 858.058 210.578 857.815 210.578H852.243ZM877.935 206.532C877.531 206.532 877.329 206.33 877.329 205.926V180.488C877.329 180.084 877.531 179.882 877.935 179.882H881.618C881.924 179.882 882.191 180.02 882.417 180.294L884.791 183.032L887.432 180.173C887.61 179.979 887.836 179.882 888.11 179.882H890.727C891.131 179.882 891.332 180.084 891.332 180.488V185.697C891.332 185.955 891.316 186.133 891.284 186.23C891.252 186.31 891.163 186.399 891.017 186.496L885.009 190.93V205.926C885.009 206.33 884.807 206.532 884.404 206.532H877.935ZM900.279 206.532C899.907 206.532 899.584 206.394 899.309 206.12L894.464 201.275C894.19 201.016 894.052 200.693 894.052 200.305V186.109C894.052 185.721 894.19 185.398 894.464 185.14L899.309 180.294C899.584 180.02 899.907 179.882 900.279 179.882H913.24C913.644 179.882 913.845 180.084 913.845 180.488V205.926C913.845 206.33 913.644 206.532 913.24 206.532H908.201C907.991 206.532 907.829 206.491 907.716 206.411C907.619 206.33 907.506 206.233 907.377 206.12L906.166 204.909L904.954 206.12C904.696 206.394 904.373 206.532 903.985 206.532H900.279ZM903.113 200.887H904.809C905.326 200.887 905.681 200.782 905.875 200.572C906.069 200.362 906.166 199.991 906.166 199.458V185.527H903.113C902.58 185.527 902.217 185.632 902.023 185.842C901.829 186.052 901.732 186.424 901.732 186.957V199.458C901.732 199.991 901.829 200.362 902.023 200.572C902.217 200.782 902.58 200.887 903.113 200.887ZM925.062 206.532C924.69 206.532 924.367 206.394 924.093 206.12L920.047 202.098C919.788 201.824 919.659 201.501 919.659 201.129V185.527H918.642C918.238 185.527 918.036 185.325 918.036 184.922V180.488C918.036 180.084 918.238 179.882 918.642 179.882H919.659V176.854C919.659 176.45 919.861 176.248 920.265 176.248H926.709C927.113 176.248 927.315 176.45 927.315 176.854V179.882H929.665C930.069 179.882 930.27 180.084 930.27 180.488V184.922C930.27 185.325 930.069 185.527 929.665 185.527H927.315V198.464C927.315 198.771 927.412 199.021 927.605 199.215L929.98 201.614C930.141 201.759 930.222 202.001 930.222 202.341V205.926C930.222 206.33 930.02 206.532 929.616 206.532H925.062ZM945.485 206.532C945.323 206.532 945.146 206.508 944.952 206.459C944.774 206.411 944.605 206.37 944.443 206.338L940.131 205.272L935.188 203.625C934.704 203.463 934.462 202.995 934.462 202.219V186.109C934.462 185.721 934.599 185.398 934.874 185.14L939.719 180.294C939.993 180.02 940.316 179.882 940.688 179.882H948.441C948.812 179.882 949.135 180.02 949.41 180.294L954.255 185.14C954.529 185.398 954.667 185.721 954.667 186.109V196.042H941.657L941.487 199.264L944.928 200.402L951.105 200.838C951.38 200.887 951.517 201.073 951.517 201.396V205.926C951.517 206.33 951.315 206.532 950.912 206.532H945.485ZM944.516 192.238H944.976C945.767 192.238 946.397 191.939 946.866 191.342C947.35 190.744 947.593 189.936 947.593 188.919V188.434C947.593 187.433 947.35 186.634 946.866 186.036C946.397 185.438 945.767 185.14 944.976 185.14H944.492C943.716 185.14 943.094 185.438 942.626 186.036C942.174 186.634 941.948 187.433 941.948 188.434V188.919C941.948 189.936 942.174 190.744 942.626 191.342C943.094 191.939 943.724 192.238 944.516 192.238ZM942.263 178.695C941.956 178.841 941.738 178.768 941.609 178.477L940.761 176.66C940.648 176.369 940.736 176.127 941.027 175.933L946.745 172.227C947.035 172.049 947.253 172.154 947.399 172.542L948.78 175.425C948.909 175.699 948.82 175.917 948.513 176.079L942.263 178.695ZM970.563 206.532C970.402 206.532 970.224 206.508 970.03 206.459C969.853 206.411 969.683 206.37 969.522 206.338L965.209 205.272L960.267 203.625C959.782 203.463 959.54 202.995 959.54 202.219V186.109C959.54 185.721 959.677 185.398 959.952 185.14L964.797 180.294C965.072 180.02 965.395 179.882 965.766 179.882H973.519C973.89 179.882 974.213 180.02 974.488 180.294L979.333 185.14C979.608 185.398 979.745 185.721 979.745 186.109V196.042H966.735L966.566 199.264L970.006 200.402L976.184 200.838C976.458 200.887 976.596 201.073 976.596 201.396V205.926C976.596 206.33 976.394 206.532 975.99 206.532H970.563ZM969.594 192.238H970.055C970.846 192.238 971.476 191.939 971.944 191.342C972.429 190.744 972.671 189.936 972.671 188.919V188.434C972.671 187.433 972.429 186.634 971.944 186.036C971.476 185.438 970.846 185.14 970.055 185.14H969.57C968.795 185.14 968.173 185.438 967.705 186.036C967.252 186.634 967.026 187.433 967.026 188.434V188.919C967.026 189.936 967.252 190.744 967.705 191.342C968.173 191.939 968.803 192.238 969.594 192.238ZM984.425 206.338C984.021 206.338 983.819 206.12 983.819 205.684V197.98C983.819 197.544 984.021 197.326 984.425 197.326H992.177C992.581 197.326 992.783 197.544 992.783 197.98V205.684C992.783 206.12 992.581 206.338 992.177 206.338H984.425Z" fill="#1E1E1E"/>
<rect x="121.503" width="278.209" height="88.9178" fill="black"/>
<path d="M181.62 62.9589C181.217 62.9589 181.015 62.757 181.015 62.3532V36.0672C181.015 35.6957 181.152 35.3727 181.426 35.0981L185.448 31.0523C185.723 30.7938 186.046 30.6646 186.417 30.6646H191.965C192.337 30.6646 192.66 30.7938 192.934 31.0523L197.004 35.1466H198.143L202.213 31.0523C202.488 30.7938 202.811 30.6646 203.182 30.6646H208.706C209.093 30.6646 209.416 30.7938 209.675 31.0523L213.721 35.0981C213.995 35.3727 214.133 35.6957 214.133 36.0672V62.3532C214.133 62.757 213.931 62.9589 213.527 62.9589H206.647C206.243 62.9589 206.041 62.757 206.041 62.3532V37.1089H201.607V62.3532C201.607 62.757 201.405 62.9589 201.002 62.9589H194.146C193.742 62.9589 193.54 62.757 193.54 62.3532V37.1089H189.082V62.3532C189.082 62.757 188.88 62.9589 188.476 62.9589H181.62ZM220.563 62.9589C220.159 62.9589 219.957 62.757 219.957 62.3532V31.2703C219.957 30.8665 220.159 30.6646 220.563 30.6646H237.449C237.853 30.6646 238.055 30.8665 238.055 31.2703V36.5033C238.055 36.9071 237.853 37.1089 237.449 37.1089H228.025V43.9893H236.625C237.029 43.9893 237.231 44.1912 237.231 44.595V49.0285C237.231 49.4323 237.029 49.6342 236.625 49.6342H228.025V56.4903H237.449C237.853 56.4903 238.055 56.6922 238.055 57.096V62.3532C238.055 62.757 237.853 62.9589 237.449 62.9589H220.563ZM226.862 29.4775C226.555 29.6229 226.337 29.5502 226.208 29.2595L225.36 27.4425C225.247 27.1518 225.336 26.9095 225.626 26.7157L231.344 23.009C231.634 22.8313 231.853 22.9363 231.998 23.3239L233.379 26.2069C233.508 26.4815 233.419 26.6995 233.112 26.861L226.862 29.4775ZM253.01 62.9589C252.639 62.9589 252.316 62.8539 252.041 62.6439L248.092 59.0341L244.095 53.8254C243.917 53.5993 243.804 53.462 243.756 53.4135C243.707 53.3489 243.683 53.2036 243.683 52.9775V40.6218C243.683 40.3957 243.707 40.2503 243.756 40.1857C243.82 40.1211 243.933 39.9839 244.095 39.7739L247.802 34.977L252.041 30.9796C252.219 30.8342 252.356 30.7454 252.453 30.7131C252.566 30.6808 252.752 30.6646 253.01 30.6646H258.994C259.398 30.6646 259.6 30.8665 259.6 31.2703V35.1466C259.6 35.2758 259.584 35.4131 259.552 35.5584C259.535 35.6876 259.455 35.8007 259.309 35.8976L254.755 39.0229L251.775 42.8507V50.7728L254.803 54.6006L259.309 57.7017C259.439 57.7824 259.519 57.8793 259.552 57.9924C259.584 58.1054 259.6 58.2266 259.6 58.3558V62.3532C259.6 62.757 259.398 62.9589 258.994 62.9589H253.01ZM264.73 62.9589C264.326 62.9589 264.124 62.757 264.124 62.3532V39.895C264.124 39.6851 264.205 39.4428 264.367 39.1682L270.108 31.028C270.286 30.7858 270.544 30.6646 270.884 30.6646H278.903C279.258 30.6646 279.516 30.7858 279.678 31.028L285.444 39.1682C285.605 39.3943 285.686 39.6366 285.686 39.895V62.3532C285.686 62.757 285.484 62.9589 285.081 62.9589H278.224C277.821 62.9589 277.619 62.757 277.619 62.3532V52.0568H272.216V62.3532C272.216 62.757 272.014 62.9589 271.61 62.9589H264.73ZM274.905 46.8481C276.391 46.8481 277.393 46.5251 277.909 45.879C278.442 45.2168 278.709 43.9651 278.709 42.1239C278.709 40.2826 278.442 39.039 277.909 38.393C277.393 37.7308 276.391 37.3997 274.905 37.3997C273.436 37.3997 272.434 37.7308 271.901 38.393C271.384 39.039 271.126 40.2826 271.126 42.1239C271.126 43.9651 271.384 45.2168 271.901 45.879C272.434 46.5251 273.436 46.8481 274.905 46.8481ZM291.965 62.9589C291.562 62.9589 291.36 62.757 291.36 62.3532V31.2703C291.36 30.8665 291.562 30.6646 291.965 30.6646H305.726C306.114 30.6646 306.437 30.7938 306.695 31.0523L311.541 35.8976C311.815 36.1722 311.952 36.4952 311.952 36.8667V62.3532C311.952 62.757 311.751 62.9589 311.347 62.9589H304.491C304.087 62.9589 303.885 62.757 303.885 62.3532V37.1089H299.427V62.3532C299.427 62.757 299.225 62.9589 298.822 62.9589H291.965ZM323.989 62.9589C323.618 62.9589 323.295 62.8216 323.02 62.547L318.175 57.7017C317.9 57.4432 317.763 57.1202 317.763 56.7326V36.8667C317.763 36.4952 317.9 36.1722 318.175 35.8976L323.02 31.0523C323.295 30.7938 323.618 30.6646 323.989 30.6646H333.511C333.898 30.6646 334.221 30.7938 334.48 31.0523L339.325 35.8976C339.599 36.1722 339.737 36.4952 339.737 36.8667V56.7326C339.737 57.1202 339.599 57.4432 339.325 57.7017L334.48 62.547C334.221 62.8216 333.898 62.9589 333.511 62.9589H323.989ZM326.848 56.4903H330.652C331.33 56.4903 331.669 56.0381 331.669 55.1336V38.4899C331.669 37.5693 331.33 37.1089 330.652 37.1089H326.848C326.186 37.1089 325.855 37.5693 325.855 38.4899V55.1336C325.855 56.0381 326.186 56.4903 326.848 56.4903Z" fill="#FFF1E9"/>
</svg>
