<svg viewBox="0 0 1163 279" fill="none" xmlns="http://www.w3.org/2000/svg">
<rect x="3.75794" y="40.7006" width="1154.82" height="233.662" fill="#FFF1E9" stroke="black" stroke-width="7.51635"/>
<path d="M162.679 145.532C162.275 145.532 162.073 145.33 162.073 144.926V118.64C162.073 118.269 162.211 117.946 162.485 117.671L166.507 113.625C166.781 113.367 167.104 113.238 167.476 113.238H173.024C173.395 113.238 173.718 113.367 173.993 113.625L178.063 117.719H179.202L183.272 113.625C183.546 113.367 183.869 113.238 184.241 113.238H189.764C190.152 113.238 190.475 113.367 190.733 113.625L194.779 117.671C195.054 117.946 195.191 118.269 195.191 118.64V144.926C195.191 145.33 194.989 145.532 194.585 145.532H187.705C187.301 145.532 187.099 145.33 187.099 144.926V119.682H182.666V144.926C182.666 145.33 182.464 145.532 182.06 145.532H175.204C174.8 145.532 174.598 145.33 174.598 144.926V119.682H170.141V144.926C170.141 145.33 169.939 145.532 169.535 145.532H162.679ZM207.072 145.532C206.701 145.532 206.378 145.394 206.103 145.12L201.258 140.275C200.983 140.016 200.846 139.693 200.846 139.305V125.109C200.846 124.721 200.983 124.398 201.258 124.14L206.103 119.294C206.378 119.02 206.701 118.882 207.072 118.882H220.034C220.438 118.882 220.639 119.084 220.639 119.488V144.926C220.639 145.33 220.438 145.532 220.034 145.532H214.995C214.785 145.532 214.623 145.491 214.51 145.411C214.413 145.33 214.3 145.233 214.171 145.12L212.96 143.909L211.748 145.12C211.49 145.394 211.167 145.532 210.779 145.532H207.072ZM209.907 139.887H211.603C212.12 139.887 212.475 139.782 212.669 139.572C212.863 139.362 212.96 138.991 212.96 138.458V124.527H209.907C209.374 124.527 209.011 124.632 208.817 124.842C208.623 125.052 208.526 125.424 208.526 125.957V138.458C208.526 138.991 208.623 139.362 208.817 139.572C209.011 139.782 209.374 139.887 209.907 139.887ZM226.889 145.532C226.485 145.532 226.284 145.33 226.284 144.926V119.488C226.284 119.084 226.485 118.882 226.889 118.882H233.333C233.737 118.882 233.939 119.084 233.939 119.488V144.926C233.939 145.33 233.737 145.532 233.333 145.532H226.889ZM226.768 116.872C226.445 116.872 226.284 116.71 226.284 116.387V113.31C226.284 112.987 226.445 112.826 226.768 112.826H233.503C233.794 112.826 233.939 112.987 233.939 113.31V116.387C233.939 116.71 233.794 116.872 233.503 116.872H226.768ZM240.185 145.532C239.782 145.532 239.58 145.33 239.58 144.926V119.488C239.58 119.084 239.782 118.882 240.185 118.882H253.147C253.518 118.882 253.841 119.02 254.116 119.294L258.961 124.14C259.236 124.398 259.373 124.721 259.373 125.109V144.926C259.373 145.33 259.171 145.532 258.767 145.532H252.299C251.895 145.532 251.693 145.33 251.693 144.926V126.078C251.693 125.319 251.314 124.939 250.555 124.939H247.26V144.926C247.26 145.33 247.058 145.532 246.654 145.532H240.185ZM270.609 145.532C270.237 145.532 269.914 145.394 269.64 145.12L265.594 141.098C265.336 140.824 265.206 140.501 265.206 140.129V124.527H264.189C263.785 124.527 263.583 124.325 263.583 123.922V119.488C263.583 119.084 263.785 118.882 264.189 118.882H265.206V115.854C265.206 115.45 265.408 115.248 265.812 115.248H272.256C272.66 115.248 272.862 115.45 272.862 115.854V118.882H275.212C275.616 118.882 275.818 119.084 275.818 119.488V123.922C275.818 124.325 275.616 124.527 275.212 124.527H272.862V137.464C272.862 137.771 272.959 138.021 273.153 138.215L275.527 140.614C275.688 140.759 275.769 141.001 275.769 141.341V144.926C275.769 145.33 275.567 145.532 275.164 145.532H270.609ZM291.032 145.532C290.871 145.532 290.693 145.508 290.499 145.459C290.321 145.411 290.152 145.37 289.99 145.338L285.678 144.272L280.736 142.625C280.251 142.463 280.009 141.995 280.009 141.219V125.109C280.009 124.721 280.146 124.398 280.421 124.14L285.266 119.294C285.541 119.02 285.864 118.882 286.235 118.882H293.988C294.359 118.882 294.682 119.02 294.957 119.294L299.802 124.14C300.077 124.398 300.214 124.721 300.214 125.109V135.042H287.204L287.035 138.264L290.475 139.402L296.653 139.838C296.927 139.887 297.065 140.073 297.065 140.396V144.926C297.065 145.33 296.863 145.532 296.459 145.532H291.032ZM290.063 131.238H290.523C291.315 131.238 291.945 130.939 292.413 130.342C292.898 129.744 293.14 128.936 293.14 127.919V127.434C293.14 126.433 292.898 125.634 292.413 125.036C291.945 124.438 291.315 124.14 290.523 124.14H290.039C289.264 124.14 288.642 124.438 288.173 125.036C287.721 125.634 287.495 126.433 287.495 127.434V127.919C287.495 128.936 287.721 129.744 288.173 130.342C288.642 130.939 289.272 131.238 290.063 131.238ZM305.863 145.532C305.459 145.532 305.257 145.33 305.257 144.926V119.488C305.257 119.084 305.459 118.882 305.863 118.882H318.824C319.195 118.882 319.518 119.02 319.793 119.294L324.638 124.14C324.913 124.398 325.05 124.721 325.05 125.109V144.926C325.05 145.33 324.848 145.532 324.445 145.532H317.976C317.572 145.532 317.37 145.33 317.37 144.926V126.078C317.37 125.319 316.991 124.939 316.232 124.939H312.937V144.926C312.937 145.33 312.735 145.532 312.331 145.532H305.863ZM336.771 145.532C336.399 145.532 336.076 145.394 335.802 145.12L330.956 140.275C330.682 140.016 330.544 139.693 330.544 139.305V125.109C330.544 124.721 330.682 124.398 330.956 124.14L335.802 119.294C336.076 119.02 336.399 118.882 336.771 118.882H349.732C350.136 118.882 350.338 119.084 350.338 119.488V144.926C350.338 145.33 350.136 145.532 349.732 145.532H344.693C344.483 145.532 344.321 145.491 344.208 145.411C344.111 145.33 343.998 145.233 343.869 145.12L342.658 143.909L341.446 145.12C341.188 145.394 340.865 145.532 340.477 145.532H336.771ZM339.605 139.887H341.301C341.818 139.887 342.173 139.782 342.367 139.572C342.561 139.362 342.658 138.991 342.658 138.458V124.527H339.605C339.072 124.527 338.709 124.632 338.515 124.842C338.321 125.052 338.224 125.424 338.224 125.957V138.458C338.224 138.991 338.321 139.362 338.515 139.572C338.709 139.782 339.072 139.887 339.605 139.887ZM356.587 145.532C356.184 145.532 355.982 145.33 355.982 144.926V119.488C355.982 119.084 356.184 118.882 356.587 118.882H369.549C369.92 118.882 370.243 119.02 370.518 119.294L375.363 124.14C375.638 124.398 375.775 124.721 375.775 125.109V144.926C375.775 145.33 375.573 145.532 375.169 145.532H368.701C368.297 145.532 368.095 145.33 368.095 144.926V126.078C368.095 125.319 367.715 124.939 366.956 124.939H363.662V144.926C363.662 145.33 363.46 145.532 363.056 145.532H356.587ZM387.011 145.532C386.639 145.532 386.316 145.394 386.042 145.12L381.996 141.098C381.737 140.824 381.608 140.501 381.608 140.129V124.527H380.591C380.187 124.527 379.985 124.325 379.985 123.922V119.488C379.985 119.084 380.187 118.882 380.591 118.882H381.608V115.854C381.608 115.45 381.81 115.248 382.214 115.248H388.658C389.062 115.248 389.264 115.45 389.264 115.854V118.882H391.614C392.018 118.882 392.22 119.084 392.22 119.488V123.922C392.22 124.325 392.018 124.527 391.614 124.527H389.264V137.464C389.264 137.771 389.361 138.021 389.555 138.215L391.929 140.614C392.09 140.759 392.171 141.001 392.171 141.341V144.926C392.171 145.33 391.969 145.532 391.565 145.532H387.011ZM396.823 149.893C396.387 149.893 396.168 149.675 396.168 149.238V145.847C396.168 145.427 396.387 145.217 396.823 145.217H398.591C399.076 145.217 399.318 145.015 399.318 144.611V143.884H396.217C395.813 143.884 395.611 143.666 395.611 143.23L395.66 137.101C395.66 136.665 395.87 136.447 396.29 136.447H403.969C404.373 136.447 404.575 136.665 404.575 137.101V144.514C404.575 146.323 404.147 147.672 403.291 148.56C402.435 149.448 401.288 149.893 399.851 149.893H396.823ZM415.784 149.578C415.38 149.578 415.178 149.376 415.178 148.972V145.12C415.178 144.813 415.259 144.571 415.42 144.393L419.006 140.808C419.2 140.63 419.297 140.371 419.297 140.032V113.843C419.297 113.439 419.499 113.238 419.902 113.238H426.759C427.162 113.238 427.364 113.439 427.364 113.843V143.424C427.364 143.569 427.348 143.707 427.316 143.836C427.3 143.949 427.227 144.07 427.098 144.199L422.083 149.214C421.84 149.456 421.598 149.578 421.356 149.578H415.784ZM433.399 123.243C432.963 123.243 432.745 123.025 432.745 122.589V119.197C432.745 118.777 432.963 118.567 433.399 118.567H435.168C435.652 118.567 435.895 118.366 435.895 117.962V117.235H432.794C432.39 117.235 432.188 117.017 432.188 116.581L432.236 110.451C432.236 110.015 432.446 109.797 432.866 109.797H440.546C440.95 109.797 441.152 110.015 441.152 110.451V117.865C441.152 119.674 440.724 121.022 439.868 121.911C439.012 122.799 437.865 123.243 436.428 123.243H433.399ZM452.037 145.532C451.665 145.532 451.342 145.394 451.068 145.12L446.222 140.275C445.948 140.016 445.811 139.693 445.811 139.305V125.109C445.811 124.721 445.948 124.398 446.222 124.14L451.068 119.294C451.342 119.02 451.665 118.882 452.037 118.882H464.998C465.402 118.882 465.604 119.084 465.604 119.488V144.926C465.604 145.33 465.402 145.532 464.998 145.532H459.959C459.749 145.532 459.587 145.491 459.474 145.411C459.378 145.33 459.264 145.233 459.135 145.12L457.924 143.909L456.713 145.12C456.454 145.394 456.131 145.532 455.744 145.532H452.037ZM454.871 139.887H456.567C457.084 139.887 457.439 139.782 457.633 139.572C457.827 139.362 457.924 138.991 457.924 138.458V124.527H454.871C454.338 124.527 453.975 124.632 453.781 124.842C453.587 125.052 453.49 125.424 453.49 125.957V138.458C453.49 138.991 453.587 139.362 453.781 139.572C453.975 139.782 454.338 139.887 454.871 139.887ZM471.854 145.532C471.45 145.532 471.248 145.33 471.248 144.926V119.488C471.248 119.084 471.45 118.882 471.854 118.882H475.536C475.843 118.882 476.109 119.02 476.335 119.294L478.71 122.032L481.35 119.173C481.528 118.979 481.754 118.882 482.029 118.882H484.645C485.049 118.882 485.251 119.084 485.251 119.488V124.697C485.251 124.955 485.235 125.133 485.202 125.23C485.17 125.31 485.081 125.399 484.936 125.496L478.928 129.93V144.926C478.928 145.33 478.726 145.532 478.322 145.532H471.854ZM488.746 145.532C488.342 145.532 488.14 145.33 488.14 144.926V119.488C488.14 119.084 488.342 118.882 488.746 118.882H492.428C492.735 118.882 493.002 119.02 493.228 119.294L495.602 122.032L498.243 119.173C498.421 118.979 498.647 118.882 498.921 118.882H501.538C501.941 118.882 502.143 119.084 502.143 119.488V124.697C502.143 124.955 502.127 125.133 502.095 125.23C502.063 125.31 501.974 125.399 501.828 125.496L495.82 129.93V144.926C495.82 145.33 495.618 145.532 495.215 145.532H488.746ZM511.089 145.532C510.718 145.532 510.395 145.394 510.12 145.12L505.275 140.275C505 140.016 504.863 139.693 504.863 139.305V125.109C504.863 124.721 505 124.398 505.275 124.14L510.12 119.294C510.395 119.02 510.718 118.882 511.089 118.882H524.051C524.455 118.882 524.656 119.084 524.656 119.488V144.926C524.656 145.33 524.455 145.532 524.051 145.532H519.012C518.802 145.532 518.64 145.491 518.527 145.411C518.43 145.33 518.317 145.233 518.188 145.12L516.977 143.909L515.765 145.12C515.507 145.394 515.184 145.532 514.796 145.532H511.089ZM513.924 139.887H515.62C516.137 139.887 516.492 139.782 516.686 139.572C516.88 139.362 516.977 138.991 516.977 138.458V124.527H513.924C513.391 124.527 513.028 124.632 512.834 124.842C512.64 125.052 512.543 125.424 512.543 125.957V138.458C512.543 138.991 512.64 139.362 512.834 139.572C513.028 139.782 513.391 139.887 513.924 139.887ZM538.174 145.532C537.851 145.532 537.528 145.427 537.205 145.217L533.256 142.552L530.543 138.191C530.43 137.981 530.333 137.844 530.252 137.779C530.171 137.698 530.131 137.537 530.131 137.295V127.119C530.131 126.877 530.163 126.716 530.228 126.635C530.292 126.554 530.397 126.409 530.543 126.199L533.014 122.08L537.205 119.197C537.35 119.1 537.496 119.028 537.641 118.979C537.787 118.915 537.964 118.882 538.174 118.882H542.365C542.769 118.882 542.971 119.084 542.971 119.488V124.018C542.971 124.148 542.955 124.285 542.923 124.43C542.906 124.576 542.834 124.689 542.705 124.769L539.943 126.15L537.811 128.936V135.405L540.064 137.973L542.705 139.645C542.866 139.742 542.947 139.863 542.947 140.008C542.963 140.137 542.971 140.266 542.971 140.396V144.926C542.971 145.33 542.769 145.532 542.365 145.532H538.174ZM548.414 145.532C548.01 145.532 547.808 145.33 547.808 144.926V113.843C547.808 113.439 548.01 113.238 548.414 113.238H554.882C555.286 113.238 555.488 113.439 555.488 113.843V118.882H561.375C561.747 118.882 562.07 119.02 562.344 119.294L567.189 124.14C567.464 124.398 567.601 124.721 567.601 125.109V144.926C567.601 145.33 567.399 145.532 566.996 145.532H560.527C560.123 145.532 559.921 145.33 559.921 144.926V125.957C559.921 125.278 559.582 124.939 558.904 124.939H555.488V144.926C555.488 145.33 555.286 145.532 554.882 145.532H548.414ZM584.119 145.532C583.957 145.532 583.779 145.508 583.586 145.459C583.408 145.411 583.238 145.37 583.077 145.338L578.765 144.272L573.822 142.625C573.338 142.463 573.095 141.995 573.095 141.219V125.109C573.095 124.721 573.233 124.398 573.507 124.14L578.353 119.294C578.627 119.02 578.95 118.882 579.322 118.882H587.074C587.446 118.882 587.769 119.02 588.043 119.294L592.889 124.14C593.163 124.398 593.301 124.721 593.301 125.109V135.042H580.291L580.121 138.264L583.561 139.402L589.739 139.838C590.014 139.887 590.151 140.073 590.151 140.396V144.926C590.151 145.33 589.949 145.532 589.545 145.532H584.119ZM583.15 131.238H583.61C584.401 131.238 585.031 130.939 585.5 130.342C585.984 129.744 586.226 128.936 586.226 127.919V127.434C586.226 126.433 585.984 125.634 585.5 125.036C585.031 124.438 584.401 124.14 583.61 124.14H583.125C582.35 124.14 581.728 124.438 581.26 125.036C580.808 125.634 580.582 126.433 580.582 127.434V127.919C580.582 128.936 580.808 129.744 581.26 130.342C581.728 130.939 582.358 131.238 583.15 131.238ZM606.371 145.532C605.967 145.532 605.766 145.33 605.766 144.926V113.843C605.766 113.439 605.967 113.238 606.371 113.238H612.84C613.244 113.238 613.445 113.439 613.445 113.843V144.926C613.445 145.33 613.244 145.532 612.84 145.532H606.371ZM629.638 145.532C629.477 145.532 629.299 145.508 629.105 145.459C628.928 145.411 628.758 145.37 628.597 145.338L624.284 144.272L619.342 142.625C618.857 142.463 618.615 141.995 618.615 141.219V125.109C618.615 124.721 618.752 124.398 619.027 124.14L623.872 119.294C624.147 119.02 624.47 118.882 624.841 118.882H632.594C632.966 118.882 633.289 119.02 633.563 119.294L638.408 124.14C638.683 124.398 638.82 124.721 638.82 125.109V135.042H625.811L625.641 138.264L629.081 139.402L635.259 139.838C635.534 139.887 635.671 140.073 635.671 140.396V144.926C635.671 145.33 635.469 145.532 635.065 145.532H629.638ZM628.669 131.238H629.13C629.921 131.238 630.551 130.939 631.019 130.342C631.504 129.744 631.746 128.936 631.746 127.919V127.434C631.746 126.433 631.504 125.634 631.019 125.036C630.551 124.438 629.921 124.14 629.13 124.14H628.645C627.87 124.14 627.248 124.438 626.78 125.036C626.327 125.634 626.101 126.433 626.101 127.434V127.919C626.101 128.936 626.327 129.744 626.78 130.342C627.248 130.939 627.878 131.238 628.669 131.238ZM643.718 145.532C643.314 145.532 643.112 145.33 643.112 144.926V141.001C643.112 140.63 643.233 140.388 643.476 140.275L648.418 137.343V134.824L643.476 132.159C643.233 132.013 643.112 131.763 643.112 131.408V123.679C643.112 123.502 643.136 123.356 643.185 123.243C643.25 123.13 643.338 123.033 643.451 122.952L648.612 119.173C648.789 119.044 648.935 118.963 649.048 118.931C649.161 118.898 649.274 118.882 649.387 118.882H655.274C655.678 118.882 655.88 119.084 655.88 119.488V123.292C655.88 123.566 655.855 123.752 655.807 123.849C655.775 123.946 655.694 124.026 655.565 124.091L650.986 126.562V129.373L655.88 131.795C656.154 131.908 656.292 132.151 656.292 132.522V139.96C656.292 140.363 656.154 140.686 655.88 140.929L650.719 145.217C650.461 145.427 650.138 145.532 649.75 145.532H643.718ZM669.689 145.532C669.286 145.532 669.084 145.33 669.084 144.926V113.843C669.084 113.439 669.286 113.238 669.689 113.238H676.158C676.562 113.238 676.764 113.439 676.764 113.843V120.506L677.975 119.294C678.233 119.02 678.556 118.882 678.944 118.882H682.651C683.022 118.882 683.345 119.02 683.62 119.294L688.465 124.14C688.74 124.398 688.877 124.721 688.877 125.109V139.305C688.877 139.693 688.74 140.016 688.465 140.275L683.62 145.12C683.345 145.394 683.022 145.532 682.651 145.532H669.689ZM676.764 139.887H679.816C680.349 139.887 680.712 139.782 680.906 139.572C681.1 139.362 681.197 138.991 681.197 138.458V125.957C681.197 125.424 681.1 125.052 680.906 124.842C680.712 124.632 680.349 124.527 679.816 124.527H678.12C677.603 124.527 677.248 124.632 677.054 124.842C676.86 125.052 676.764 125.424 676.764 125.957V139.887ZM700.597 145.532C700.226 145.532 699.903 145.394 699.628 145.12L694.783 140.275C694.508 140.016 694.371 139.693 694.371 139.305V125.109C694.371 124.721 694.508 124.398 694.783 124.14L699.628 119.294C699.903 119.02 700.226 118.882 700.597 118.882H707.938C708.326 118.882 708.649 119.02 708.907 119.294L713.752 124.14C714.027 124.398 714.164 124.721 714.164 125.109V139.305C714.164 139.693 714.027 140.016 713.752 140.275L708.907 145.12C708.649 145.394 708.326 145.532 707.938 145.532H700.597ZM703.432 139.887H705.128C705.645 139.887 706 139.782 706.194 139.572C706.387 139.362 706.484 138.991 706.484 138.458V125.957C706.484 125.424 706.387 125.052 706.194 124.842C706 124.632 705.645 124.527 705.128 124.527H703.432C702.899 124.527 702.535 124.632 702.342 124.842C702.148 125.052 702.051 125.424 702.051 125.957V138.458C702.051 138.991 702.148 139.362 702.342 139.572C702.535 139.782 702.899 139.887 703.432 139.887ZM720.414 145.532C720.01 145.532 719.808 145.33 719.808 144.926V119.488C719.808 119.084 720.01 118.882 720.414 118.882H733.375C733.747 118.882 734.07 119.02 734.344 119.294L739.19 124.14C739.464 124.398 739.602 124.721 739.602 125.109V144.926C739.602 145.33 739.4 145.532 738.996 145.532H732.527C732.124 145.532 731.922 145.33 731.922 144.926V126.078C731.922 125.319 731.542 124.939 730.783 124.939H727.488V144.926C727.488 145.33 727.286 145.532 726.883 145.532H720.414ZM745.871 145.532C745.467 145.532 745.265 145.33 745.265 144.926V119.488C745.265 119.084 745.467 118.882 745.871 118.882H758.832C759.204 118.882 759.527 119.02 759.801 119.294L764.647 124.14C764.921 124.398 765.059 124.721 765.059 125.109V144.926C765.059 145.33 764.857 145.532 764.453 145.532H757.984C757.581 145.532 757.379 145.33 757.379 144.926V126.078C757.379 125.319 756.999 124.939 756.24 124.939H752.945V144.926C752.945 145.33 752.743 145.532 752.34 145.532H745.871ZM781.576 145.532C781.414 145.532 781.237 145.508 781.043 145.459C780.865 145.411 780.696 145.37 780.534 145.338L776.222 144.272L771.28 142.625C770.795 142.463 770.553 141.995 770.553 141.219V125.109C770.553 124.721 770.69 124.398 770.965 124.14L775.81 119.294C776.085 119.02 776.408 118.882 776.779 118.882H784.532C784.903 118.882 785.226 119.02 785.501 119.294L790.346 124.14C790.621 124.398 790.758 124.721 790.758 125.109V135.042H777.748L777.578 138.264L781.019 139.402L787.197 139.838C787.471 139.887 787.608 140.073 787.608 140.396V144.926C787.608 145.33 787.406 145.532 787.003 145.532H781.576ZM780.607 131.238H781.067C781.859 131.238 782.488 130.939 782.957 130.342C783.441 129.744 783.684 128.936 783.684 127.919V127.434C783.684 126.433 783.441 125.634 782.957 125.036C782.488 124.438 781.859 124.14 781.067 124.14H780.583C779.807 124.14 779.186 124.438 778.717 125.036C778.265 125.634 778.039 126.433 778.039 127.434V127.919C778.039 128.936 778.265 129.744 778.717 130.342C779.186 130.939 779.815 131.238 780.607 131.238ZM795.655 145.532C795.252 145.532 795.05 145.33 795.05 144.926V141.001C795.05 140.63 795.171 140.388 795.413 140.275L800.355 137.343V134.824L795.413 132.159C795.171 132.013 795.05 131.763 795.05 131.408V123.679C795.05 123.502 795.074 123.356 795.122 123.243C795.187 123.13 795.276 123.033 795.389 122.952L800.549 119.173C800.727 119.044 800.872 118.963 800.985 118.931C801.098 118.898 801.211 118.882 801.324 118.882H807.212C807.615 118.882 807.817 119.084 807.817 119.488V123.292C807.817 123.566 807.793 123.752 807.745 123.849C807.712 123.946 807.631 124.026 807.502 124.091L802.923 126.562V129.373L807.817 131.795C808.092 131.908 808.229 132.151 808.229 132.522V139.96C808.229 140.363 808.092 140.686 807.817 140.929L802.657 145.217C802.399 145.427 802.075 145.532 801.688 145.532H795.655ZM821.627 152.8C821.223 152.8 821.021 152.598 821.021 152.194V119.488C821.021 119.084 821.223 118.882 821.627 118.882H826.642C826.932 118.882 827.215 119.02 827.49 119.294L828.701 120.506L829.912 119.294C830.171 119.02 830.494 118.882 830.881 118.882H834.588C834.96 118.882 835.283 119.02 835.557 119.294L840.403 124.14C840.677 124.398 840.814 124.721 840.814 125.109V139.305C840.814 139.693 840.677 140.016 840.403 140.275L835.557 145.12C835.283 145.394 834.96 145.532 834.588 145.532H830.881C830.494 145.532 830.171 145.394 829.912 145.12L828.701 143.909V152.194C828.701 152.598 828.499 152.8 828.095 152.8H821.627ZM828.701 139.887H831.754C832.287 139.887 832.65 139.782 832.844 139.572C833.038 139.362 833.135 138.991 833.135 138.458V125.957C833.135 125.424 833.038 125.052 832.844 124.842C832.65 124.632 832.287 124.527 831.754 124.527H830.058C829.541 124.527 829.186 124.632 828.992 124.842C828.798 125.052 828.701 125.424 828.701 125.957V139.887ZM847.084 145.532C846.68 145.532 846.478 145.33 846.478 144.926V119.488C846.478 119.084 846.68 118.882 847.084 118.882H853.528C853.932 118.882 854.134 119.084 854.134 119.488V144.926C854.134 145.33 853.932 145.532 853.528 145.532H847.084ZM846.963 116.872C846.64 116.872 846.478 116.71 846.478 116.387V113.31C846.478 112.987 846.64 112.826 846.963 112.826H853.698C853.988 112.826 854.134 112.987 854.134 113.31V116.387C854.134 116.71 853.988 116.872 853.698 116.872H846.963ZM870.628 145.532C870.467 145.532 870.289 145.508 870.095 145.459C869.917 145.411 869.748 145.37 869.586 145.338L865.274 144.272L860.332 142.625C859.847 142.463 859.605 141.995 859.605 141.219V125.109C859.605 124.721 859.742 124.398 860.017 124.14L864.862 119.294C865.137 119.02 865.46 118.882 865.831 118.882H873.584C873.955 118.882 874.278 119.02 874.553 119.294L879.398 124.14C879.673 124.398 879.81 124.721 879.81 125.109V135.042H866.8L866.631 138.264L870.071 139.402L876.249 139.838C876.523 139.887 876.66 140.073 876.66 140.396V144.926C876.66 145.33 876.459 145.532 876.055 145.532H870.628ZM869.659 131.238H870.119C870.911 131.238 871.541 130.939 872.009 130.342C872.493 129.744 872.736 128.936 872.736 127.919V127.434C872.736 126.433 872.493 125.634 872.009 125.036C871.541 124.438 870.911 124.14 870.119 124.14H869.635C868.859 124.14 868.238 124.438 867.769 125.036C867.317 125.634 867.091 126.433 867.091 127.434V127.919C867.091 128.936 867.317 129.744 867.769 130.342C868.238 130.939 868.868 131.238 869.659 131.238ZM872.397 117.695L866.146 115.079C865.839 114.917 865.75 114.699 865.88 114.425L867.261 111.542C867.406 111.154 867.624 111.049 867.915 111.227L873.632 114.933C873.923 115.127 874.012 115.369 873.899 115.66L873.051 117.477C872.938 117.768 872.72 117.841 872.397 117.695ZM892.727 145.532C892.404 145.532 892.081 145.427 891.758 145.217L887.809 142.552L885.095 138.191C884.982 137.981 884.885 137.844 884.804 137.779C884.724 137.698 884.683 137.537 884.683 137.295V127.119C884.683 126.877 884.716 126.716 884.78 126.635C884.845 126.554 884.95 126.409 885.095 126.199L887.566 122.08L891.758 119.197C891.903 119.1 892.048 119.028 892.194 118.979C892.339 118.915 892.517 118.882 892.727 118.882H896.918C897.322 118.882 897.523 119.084 897.523 119.488V124.018C897.523 124.148 897.507 124.285 897.475 124.43C897.459 124.576 897.386 124.689 897.257 124.769L894.495 126.15L892.363 128.936V135.405L894.616 137.973L897.257 139.645C897.418 139.742 897.499 139.863 897.499 140.008C897.515 140.137 897.523 140.266 897.523 140.396V144.926C897.523 145.33 897.322 145.532 896.918 145.532H892.727ZM913.214 145.532C913.053 145.532 912.875 145.508 912.681 145.459C912.503 145.411 912.334 145.37 912.172 145.338L907.86 144.272L902.918 142.625C902.433 142.463 902.191 141.995 902.191 141.219V125.109C902.191 124.721 902.328 124.398 902.603 124.14L907.448 119.294C907.723 119.02 908.046 118.882 908.417 118.882H916.17C916.541 118.882 916.864 119.02 917.139 119.294L921.984 124.14C922.259 124.398 922.396 124.721 922.396 125.109V135.042H909.386L909.217 138.264L912.657 139.402L918.835 139.838C919.109 139.887 919.247 140.073 919.247 140.396V144.926C919.247 145.33 919.045 145.532 918.641 145.532H913.214ZM912.245 131.238H912.705C913.497 131.238 914.127 130.939 914.595 130.342C915.08 129.744 915.322 128.936 915.322 127.919V127.434C915.322 126.433 915.08 125.634 914.595 125.036C914.127 124.438 913.497 124.14 912.705 124.14H912.221C911.446 124.14 910.824 124.438 910.355 125.036C909.903 125.634 909.677 126.433 909.677 127.434V127.919C909.677 128.936 909.903 129.744 910.355 130.342C910.824 130.939 911.454 131.238 912.245 131.238ZM927.294 145.532C926.89 145.532 926.688 145.33 926.688 144.926V141.001C926.688 140.63 926.809 140.388 927.051 140.275L931.994 137.343V134.824L927.051 132.159C926.809 132.013 926.688 131.763 926.688 131.408V123.679C926.688 123.502 926.712 123.356 926.761 123.243C926.825 123.13 926.914 123.033 927.027 122.952L932.187 119.173C932.365 119.044 932.51 118.963 932.623 118.931C932.737 118.898 932.85 118.882 932.963 118.882H938.85C939.254 118.882 939.455 119.084 939.455 119.488V123.292C939.455 123.566 939.431 123.752 939.383 123.849C939.35 123.946 939.27 124.026 939.14 124.091L934.562 126.562V129.373L939.455 131.795C939.73 131.908 939.867 132.151 939.867 132.522V139.96C939.867 140.363 939.73 140.686 939.455 140.929L934.295 145.217C934.037 145.427 933.714 145.532 933.326 145.532H927.294ZM945.189 149.893C944.753 149.893 944.535 149.675 944.535 149.238V145.847C944.535 145.427 944.753 145.217 945.189 145.217H946.957C947.442 145.217 947.684 145.015 947.684 144.611V143.884H944.583C944.179 143.884 943.977 143.666 943.977 143.23L944.026 137.101C944.026 136.665 944.236 136.447 944.656 136.447H952.336C952.739 136.447 952.941 136.665 952.941 137.101V144.514C952.941 146.323 952.513 147.672 951.657 148.56C950.801 149.448 949.655 149.893 948.217 149.893H945.189ZM158.27 214.599C157.898 214.599 157.712 214.397 157.712 213.994V210.214C157.712 209.923 157.834 209.746 158.076 209.681L160.014 209.003L161.346 207.501C161.492 207.355 161.581 207.226 161.613 207.113C161.645 207 161.661 206.863 161.661 206.701V180.488C161.661 180.084 161.863 179.882 162.267 179.882H168.736C169.139 179.882 169.341 180.084 169.341 180.488V208.349C169.341 208.753 169.204 209.1 168.929 209.39L166.071 212.516L162.994 214.236C162.59 214.478 162.186 214.599 161.783 214.599H158.27ZM162.146 177.872C161.823 177.872 161.661 177.71 161.661 177.387V174.31C161.661 173.987 161.823 173.826 162.146 173.826H168.881C169.172 173.826 169.317 173.987 169.317 174.31V177.387C169.317 177.71 169.172 177.872 168.881 177.872H162.146ZM185.845 206.532C185.683 206.532 185.505 206.508 185.312 206.459C185.134 206.411 184.964 206.37 184.803 206.338L180.49 205.272L175.548 203.625C175.064 203.463 174.821 202.995 174.821 202.219V186.109C174.821 185.721 174.959 185.398 175.233 185.14L180.079 180.294C180.353 180.02 180.676 179.882 181.048 179.882H188.8C189.172 179.882 189.495 180.02 189.769 180.294L194.615 185.14C194.889 185.398 195.026 185.721 195.026 186.109V196.042H182.017L181.847 199.264L185.287 200.402L191.465 200.838C191.74 200.887 191.877 201.073 191.877 201.396V205.926C191.877 206.33 191.675 206.532 191.271 206.532H185.845ZM184.875 192.238H185.336C186.127 192.238 186.757 191.939 187.225 191.342C187.71 190.744 187.952 189.936 187.952 188.919V188.434C187.952 187.433 187.71 186.634 187.225 186.036C186.757 185.438 186.127 185.14 185.336 185.14H184.851C184.076 185.14 183.454 185.438 182.986 186.036C182.534 186.634 182.307 187.433 182.307 188.434V188.919C182.307 189.936 182.534 190.744 182.986 191.342C183.454 191.939 184.084 192.238 184.875 192.238ZM208.388 206.532C207.984 206.532 207.782 206.33 207.782 205.926V180.488C207.782 180.084 207.984 179.882 208.388 179.882H212.07C212.377 179.882 212.644 180.02 212.87 180.294L215.244 183.032L217.885 180.173C218.062 179.979 218.289 179.882 218.563 179.882H221.18C221.583 179.882 221.785 180.084 221.785 180.488V185.697C221.785 185.955 221.769 186.133 221.737 186.23C221.705 186.31 221.616 186.399 221.47 186.496L215.462 190.93V205.926C215.462 206.33 215.26 206.532 214.856 206.532H208.388ZM235.528 206.532C235.367 206.532 235.189 206.508 234.995 206.459C234.818 206.411 234.648 206.37 234.487 206.338L230.174 205.272L225.232 203.625C224.747 203.463 224.505 202.995 224.505 202.219V186.109C224.505 185.721 224.642 185.398 224.917 185.14L229.762 180.294C230.037 180.02 230.36 179.882 230.731 179.882H238.484C238.855 179.882 239.178 180.02 239.453 180.294L244.298 185.14C244.573 185.398 244.71 185.721 244.71 186.109V196.042H231.7L231.531 199.264L234.971 200.402L241.149 200.838C241.423 200.887 241.561 201.073 241.561 201.396V205.926C241.561 206.33 241.359 206.532 240.955 206.532H235.528ZM234.559 192.238H235.02C235.811 192.238 236.441 191.939 236.909 191.342C237.394 190.744 237.636 189.936 237.636 188.919V188.434C237.636 187.433 237.394 186.634 236.909 186.036C236.441 185.438 235.811 185.14 235.02 185.14H234.535C233.76 185.14 233.138 185.438 232.67 186.036C232.217 186.634 231.991 187.433 231.991 188.434V188.919C231.991 189.936 232.217 190.744 232.67 191.342C233.138 191.939 233.768 192.238 234.559 192.238ZM257.627 206.532C257.304 206.532 256.981 206.427 256.658 206.217L252.709 203.552L249.995 199.191C249.882 198.981 249.785 198.844 249.705 198.779C249.624 198.698 249.584 198.537 249.584 198.295V188.119C249.584 187.877 249.616 187.716 249.68 187.635C249.745 187.554 249.85 187.409 249.995 187.199L252.467 183.08L256.658 180.197C256.803 180.1 256.948 180.028 257.094 179.979C257.239 179.915 257.417 179.882 257.627 179.882H261.818C262.222 179.882 262.424 180.084 262.424 180.488V185.018C262.424 185.148 262.408 185.285 262.375 185.43C262.359 185.576 262.286 185.689 262.157 185.769L259.395 187.15L257.263 189.936V196.405L259.517 198.973L262.157 200.645C262.319 200.742 262.399 200.863 262.399 201.008C262.416 201.137 262.424 201.266 262.424 201.396V205.926C262.424 206.33 262.222 206.532 261.818 206.532H257.627ZM273.317 206.532C272.946 206.532 272.623 206.394 272.348 206.12L267.503 201.275C267.228 201.016 267.091 200.693 267.091 200.305V186.109C267.091 185.721 267.228 185.398 267.503 185.14L272.348 180.294C272.623 180.02 272.946 179.882 273.317 179.882H280.658C281.046 179.882 281.369 180.02 281.627 180.294L286.473 185.14C286.747 185.398 286.884 185.721 286.884 186.109V200.305C286.884 200.693 286.747 201.016 286.473 201.275L281.627 206.12C281.369 206.394 281.046 206.532 280.658 206.532H273.317ZM276.152 200.887H277.848C278.365 200.887 278.72 200.782 278.914 200.572C279.108 200.362 279.205 199.991 279.205 199.458V186.957C279.205 186.424 279.108 186.052 278.914 185.842C278.72 185.632 278.365 185.527 277.848 185.527H276.152C275.619 185.527 275.256 185.632 275.062 185.842C274.868 186.052 274.771 186.424 274.771 186.957V199.458C274.771 199.991 274.868 200.362 275.062 200.572C275.256 200.782 275.619 200.887 276.152 200.887ZM292.843 206.532C292.44 206.532 292.238 206.33 292.238 205.926V174.843C292.238 174.439 292.44 174.238 292.843 174.238H299.312C299.716 174.238 299.918 174.439 299.918 174.843V205.926C299.918 206.33 299.716 206.532 299.312 206.532H292.843ZM305.572 206.532C305.168 206.532 304.966 206.33 304.966 205.926V174.843C304.966 174.439 305.168 174.238 305.572 174.238H312.04C312.444 174.238 312.646 174.439 312.646 174.843V205.926C312.646 206.33 312.444 206.532 312.04 206.532H305.572ZM328.839 206.532C328.677 206.532 328.5 206.508 328.306 206.459C328.128 206.411 327.959 206.37 327.797 206.338L323.485 205.272L318.543 203.625C318.058 203.463 317.816 202.995 317.816 202.219V186.109C317.816 185.721 317.953 185.398 318.228 185.14L323.073 180.294C323.348 180.02 323.671 179.882 324.042 179.882H331.795C332.166 179.882 332.489 180.02 332.764 180.294L337.609 185.14C337.884 185.398 338.021 185.721 338.021 186.109V196.042H325.011L324.842 199.264L328.282 200.402L334.46 200.838C334.734 200.887 334.871 201.073 334.871 201.396V205.926C334.871 206.33 334.67 206.532 334.266 206.532H328.839ZM327.87 192.238H328.33C329.122 192.238 329.752 191.939 330.22 191.342C330.704 190.744 330.947 189.936 330.947 188.919V188.434C330.947 187.433 330.704 186.634 330.22 186.036C329.752 185.438 329.122 185.14 328.33 185.14H327.846C327.07 185.14 326.449 185.438 325.98 186.036C325.528 186.634 325.302 187.433 325.302 188.434V188.919C325.302 189.936 325.528 190.744 325.98 191.342C326.449 191.939 327.079 192.238 327.87 192.238ZM356.349 206.532C355.977 206.532 355.654 206.394 355.38 206.12L351.334 202.098C351.075 201.824 350.946 201.501 350.946 201.129V185.527H349.929C349.525 185.527 349.323 185.325 349.323 184.922V180.488C349.323 180.084 349.525 179.882 349.929 179.882H350.946V176.854C350.946 176.45 351.148 176.248 351.552 176.248H357.996C358.4 176.248 358.602 176.45 358.602 176.854V179.882H360.952C361.356 179.882 361.558 180.084 361.558 180.488V184.922C361.558 185.325 361.356 185.527 360.952 185.527H358.602V198.464C358.602 198.771 358.699 199.021 358.893 199.215L361.267 201.614C361.428 201.759 361.509 202.001 361.509 202.341V205.926C361.509 206.33 361.307 206.532 360.903 206.532H356.349ZM371.975 206.532C371.604 206.532 371.281 206.394 371.006 206.12L366.161 201.275C365.886 201.016 365.749 200.693 365.749 200.305V186.109C365.749 185.721 365.886 185.398 366.161 185.14L371.006 180.294C371.281 180.02 371.604 179.882 371.975 179.882H379.316C379.703 179.882 380.026 180.02 380.285 180.294L385.13 185.14C385.405 185.398 385.542 185.721 385.542 186.109V200.305C385.542 200.693 385.405 201.016 385.13 201.275L380.285 206.12C380.026 206.394 379.703 206.532 379.316 206.532H371.975ZM374.81 200.887H376.505C377.022 200.887 377.378 200.782 377.571 200.572C377.765 200.362 377.862 199.991 377.862 199.458V186.957C377.862 186.424 377.765 186.052 377.571 185.842C377.378 185.632 377.022 185.527 376.505 185.527H374.81C374.277 185.527 373.913 185.632 373.719 185.842C373.526 186.052 373.429 186.424 373.429 186.957V199.458C373.429 199.991 373.526 200.362 373.719 200.572C373.913 200.782 374.277 200.887 374.81 200.887ZM397.412 206.532C397.025 206.532 396.702 206.394 396.443 206.12L391.598 201.275C391.323 201.016 391.186 200.693 391.186 200.305V180.488C391.186 180.084 391.388 179.882 391.792 179.882H398.26C398.664 179.882 398.866 180.084 398.866 180.488V199.336C398.866 200.096 399.237 200.475 399.98 200.475H403.299V180.488C403.299 180.084 403.501 179.882 403.905 179.882H410.374C410.777 179.882 410.979 180.084 410.979 180.488V205.926C410.979 206.33 410.777 206.532 410.374 206.532H397.412ZM422.215 206.532C421.844 206.532 421.521 206.394 421.246 206.12L417.2 202.098C416.942 201.824 416.813 201.501 416.813 201.129V185.527H415.795C415.391 185.527 415.189 185.325 415.189 184.922V180.488C415.189 180.084 415.391 179.882 415.795 179.882H416.813V176.854C416.813 176.45 417.015 176.248 417.418 176.248H423.863C424.266 176.248 424.468 176.45 424.468 176.854V179.882H426.818C427.222 179.882 427.424 180.084 427.424 180.488V184.922C427.424 185.325 427.222 185.527 426.818 185.527H424.468V198.464C424.468 198.771 424.565 199.021 424.759 199.215L427.133 201.614C427.295 201.759 427.376 202.001 427.376 202.341V205.926C427.376 206.33 427.174 206.532 426.77 206.532H422.215ZM432.027 210.893C431.591 210.893 431.373 210.675 431.373 210.238V206.847C431.373 206.427 431.591 206.217 432.027 206.217H433.796C434.28 206.217 434.522 206.015 434.522 205.611V204.884H431.421C431.018 204.884 430.816 204.666 430.816 204.23L430.864 198.101C430.864 197.665 431.074 197.447 431.494 197.447H439.174C439.578 197.447 439.78 197.665 439.78 198.101V205.514C439.78 207.323 439.352 208.672 438.496 209.56C437.64 210.448 436.493 210.893 435.055 210.893H432.027ZM463.174 206.532C463.013 206.532 462.835 206.508 462.641 206.459C462.464 206.411 462.294 206.37 462.133 206.338L457.82 205.272L452.878 203.625C452.393 203.463 452.151 202.995 452.151 202.219V186.109C452.151 185.721 452.288 185.398 452.563 185.14L457.408 180.294C457.683 180.02 458.006 179.882 458.377 179.882H466.13C466.501 179.882 466.824 180.02 467.099 180.294L471.944 185.14C472.219 185.398 472.356 185.721 472.356 186.109V196.042H459.346L459.177 199.264L462.617 200.402L468.795 200.838C469.069 200.887 469.207 201.073 469.207 201.396V205.926C469.207 206.33 469.005 206.532 468.601 206.532H463.174ZM462.205 192.238H462.666C463.457 192.238 464.087 191.939 464.555 191.342C465.04 190.744 465.282 189.936 465.282 188.919V188.434C465.282 187.433 465.04 186.634 464.555 186.036C464.087 185.438 463.457 185.14 462.666 185.14H462.181C461.406 185.14 460.784 185.438 460.316 186.036C459.863 186.634 459.637 187.433 459.637 188.434V188.919C459.637 189.936 459.863 190.744 460.316 191.342C460.784 191.939 461.414 192.238 462.205 192.238ZM482.971 206.532C482.6 206.532 482.277 206.394 482.002 206.12L477.956 202.098C477.698 201.824 477.569 201.501 477.569 201.129V185.527H476.551C476.147 185.527 475.946 185.325 475.946 184.922V180.488C475.946 180.084 476.147 179.882 476.551 179.882H477.569V176.854C477.569 176.45 477.771 176.248 478.174 176.248H484.619C485.022 176.248 485.224 176.45 485.224 176.854V179.882H487.574C487.978 179.882 488.18 180.084 488.18 180.488V184.922C488.18 185.325 487.978 185.527 487.574 185.527H485.224V198.464C485.224 198.771 485.321 199.021 485.515 199.215L487.889 201.614C488.051 201.759 488.132 202.001 488.132 202.341V205.926C488.132 206.33 487.93 206.532 487.526 206.532H482.971ZM500.569 206.532C500.165 206.532 499.963 206.33 499.963 205.926V174.843C499.963 174.439 500.165 174.238 500.569 174.238H507.037C507.441 174.238 507.643 174.439 507.643 174.843V205.926C507.643 206.33 507.441 206.532 507.037 206.532H500.569ZM519.039 206.532C518.667 206.532 518.344 206.394 518.07 206.12L513.224 201.275C512.95 201.016 512.813 200.693 512.813 200.305V186.109C512.813 185.721 512.95 185.398 513.224 185.14L518.07 180.294C518.344 180.02 518.667 179.882 519.039 179.882H532C532.404 179.882 532.606 180.084 532.606 180.488V205.926C532.606 206.33 532.404 206.532 532 206.532H526.961C526.751 206.532 526.59 206.491 526.476 206.411C526.38 206.33 526.266 206.233 526.137 206.12L524.926 204.909L523.715 206.12C523.456 206.394 523.133 206.532 522.746 206.532H519.039ZM521.873 200.887H523.569C524.086 200.887 524.441 200.782 524.635 200.572C524.829 200.362 524.926 199.991 524.926 199.458V185.527H521.873C521.34 185.527 520.977 185.632 520.783 185.842C520.589 186.052 520.492 186.424 520.492 186.957V199.458C520.492 199.991 520.589 200.362 520.783 200.572C520.977 200.782 521.34 200.887 521.873 200.887ZM546.568 206.532C546.165 206.532 545.963 206.33 545.963 205.926V180.488C545.963 180.084 546.165 179.882 546.568 179.882H557.592C557.963 179.882 558.286 180.02 558.561 180.294L561.54 183.274H562.437L565.417 180.294C565.691 180.02 566.014 179.882 566.386 179.882H571.643C572.014 179.882 572.338 180.02 572.612 180.294L577.457 185.14C577.732 185.398 577.869 185.721 577.869 186.109V205.926C577.869 206.33 577.667 206.532 577.264 206.532H570.795C570.391 206.532 570.189 206.33 570.189 205.926V186.957C570.189 186.278 569.85 185.939 569.172 185.939H565.756V205.926C565.756 206.33 565.554 206.532 565.15 206.532H558.682C558.278 206.532 558.076 206.33 558.076 205.926V186.957C558.076 186.278 557.737 185.939 557.059 185.939H553.643V205.926C553.643 206.33 553.441 206.532 553.037 206.532H546.568ZM589.59 206.532C589.218 206.532 588.895 206.394 588.621 206.12L583.775 201.275C583.501 201.016 583.363 200.693 583.363 200.305V186.109C583.363 185.721 583.501 185.398 583.775 185.14L588.621 180.294C588.895 180.02 589.218 179.882 589.59 179.882H602.551C602.955 179.882 603.157 180.084 603.157 180.488V205.926C603.157 206.33 602.955 206.532 602.551 206.532H597.512C597.302 206.532 597.14 206.491 597.027 206.411C596.93 206.33 596.817 206.233 596.688 206.12L595.477 204.909L594.265 206.12C594.007 206.394 593.684 206.532 593.296 206.532H589.59ZM592.424 200.887H594.12C594.637 200.887 594.992 200.782 595.186 200.572C595.38 200.362 595.477 199.991 595.477 199.458V185.527H592.424C591.891 185.527 591.528 185.632 591.334 185.842C591.14 186.052 591.043 186.424 591.043 186.957V199.458C591.043 199.991 591.14 200.362 591.334 200.572C591.528 200.782 591.891 200.887 592.424 200.887ZM616.674 206.532C616.351 206.532 616.028 206.427 615.705 206.217L611.756 203.552L609.043 199.191C608.93 198.981 608.833 198.844 608.752 198.779C608.672 198.698 608.631 198.537 608.631 198.295V188.119C608.631 187.877 608.663 187.716 608.728 187.635C608.793 187.554 608.898 187.409 609.043 187.199L611.514 183.08L615.705 180.197C615.851 180.1 615.996 180.028 616.141 179.979C616.287 179.915 616.464 179.882 616.674 179.882H620.866C621.269 179.882 621.471 180.084 621.471 180.488V185.018C621.471 185.148 621.455 185.285 621.423 185.43C621.407 185.576 621.334 185.689 621.205 185.769L618.443 187.15L616.311 189.936V196.405L618.564 198.973L621.205 200.645C621.366 200.742 621.447 200.863 621.447 201.008C621.463 201.137 621.471 201.266 621.471 201.396V205.926C621.471 206.33 621.269 206.532 620.866 206.532H616.674ZM626.914 206.532C626.51 206.532 626.308 206.33 626.308 205.926V174.843C626.308 174.439 626.51 174.238 626.914 174.238H633.383C633.786 174.238 633.988 174.439 633.988 174.843V179.882H639.875C640.247 179.882 640.57 180.02 640.844 180.294L645.69 185.14C645.964 185.398 646.102 185.721 646.102 186.109V205.926C646.102 206.33 645.9 206.532 645.496 206.532H639.027C638.624 206.532 638.422 206.33 638.422 205.926V186.957C638.422 186.278 638.083 185.939 637.404 185.939H633.988V205.926C633.988 206.33 633.786 206.532 633.383 206.532H626.914ZM652.371 206.532C651.967 206.532 651.765 206.33 651.765 205.926V180.488C651.765 180.084 651.967 179.882 652.371 179.882H658.815C659.219 179.882 659.421 180.084 659.421 180.488V205.926C659.421 206.33 659.219 206.532 658.815 206.532H652.371ZM652.25 177.872C651.927 177.872 651.765 177.71 651.765 177.387V174.31C651.765 173.987 651.927 173.826 652.25 173.826H658.985C659.276 173.826 659.421 173.987 659.421 174.31V177.387C659.421 177.71 659.276 177.872 658.985 177.872H652.25ZM665.667 206.532C665.264 206.532 665.062 206.33 665.062 205.926V180.488C665.062 180.084 665.264 179.882 665.667 179.882H678.629C679 179.882 679.323 180.02 679.598 180.294L684.443 185.14C684.718 185.398 684.855 185.721 684.855 186.109V205.926C684.855 206.33 684.653 206.532 684.249 206.532H677.781C677.377 206.532 677.175 206.33 677.175 205.926V187.078C677.175 186.319 676.795 185.939 676.036 185.939H672.741V205.926C672.741 206.33 672.54 206.532 672.136 206.532H665.667ZM701.372 206.532C701.211 206.532 701.033 206.508 700.839 206.459C700.662 206.411 700.492 206.37 700.33 206.338L696.018 205.272L691.076 203.625C690.591 203.463 690.349 202.995 690.349 202.219V186.109C690.349 185.721 690.486 185.398 690.761 185.14L695.606 180.294C695.881 180.02 696.204 179.882 696.575 179.882H704.328C704.699 179.882 705.022 180.02 705.297 180.294L710.142 185.14C710.417 185.398 710.554 185.721 710.554 186.109V196.042H697.544L697.375 199.264L700.815 200.402L706.993 200.838C707.267 200.887 707.405 201.073 707.405 201.396V205.926C707.405 206.33 707.203 206.532 706.799 206.532H701.372ZM700.403 192.238H700.863C701.655 192.238 702.285 191.939 702.753 191.342C703.238 190.744 703.48 189.936 703.48 188.919V188.434C703.48 187.433 703.238 186.634 702.753 186.036C702.285 185.438 701.655 185.14 700.863 185.14H700.379C699.604 185.14 698.982 185.438 698.513 186.036C698.061 186.634 697.835 187.433 697.835 188.434V188.919C697.835 189.936 698.061 190.744 698.513 191.342C698.982 191.939 699.612 192.238 700.403 192.238ZM723.916 206.532C723.512 206.532 723.31 206.33 723.31 205.926V180.488C723.31 180.084 723.512 179.882 723.916 179.882H727.598C727.905 179.882 728.171 180.02 728.397 180.294L730.772 183.032L733.412 180.173C733.59 179.979 733.816 179.882 734.091 179.882H736.707C737.111 179.882 737.313 180.084 737.313 180.488V185.697C737.313 185.955 737.297 186.133 737.264 186.23C737.232 186.31 737.143 186.399 736.998 186.496L730.99 190.93V205.926C730.99 206.33 730.788 206.532 730.384 206.532H723.916ZM751.056 206.532C750.894 206.532 750.717 206.508 750.523 206.459C750.345 206.411 750.176 206.37 750.014 206.338L745.702 205.272L740.76 203.625C740.275 203.463 740.033 202.995 740.033 202.219V186.109C740.033 185.721 740.17 185.398 740.445 185.14L745.29 180.294C745.564 180.02 745.888 179.882 746.259 179.882H754.012C754.383 179.882 754.706 180.02 754.981 180.294L759.826 185.14C760.101 185.398 760.238 185.721 760.238 186.109V196.042H747.228L747.058 199.264L750.499 200.402L756.676 200.838C756.951 200.887 757.088 201.073 757.088 201.396V205.926C757.088 206.33 756.886 206.532 756.483 206.532H751.056ZM750.087 192.238H750.547C751.339 192.238 751.968 191.939 752.437 191.342C752.921 190.744 753.164 189.936 753.164 188.919V188.434C753.164 187.433 752.921 186.634 752.437 186.036C751.968 185.438 751.339 185.14 750.547 185.14H750.063C749.287 185.14 748.666 185.438 748.197 186.036C747.745 186.634 747.519 187.433 747.519 188.434V188.919C747.519 189.936 747.745 190.744 748.197 191.342C748.666 191.939 749.295 192.238 750.087 192.238ZM765.886 213.8C765.483 213.8 765.281 213.598 765.281 213.194V180.488C765.281 180.084 765.483 179.882 765.886 179.882H770.901C771.192 179.882 771.475 180.02 771.749 180.294L772.961 181.506L774.172 180.294C774.43 180.02 774.753 179.882 775.141 179.882H778.848C779.219 179.882 779.542 180.02 779.817 180.294L784.662 185.14C784.937 185.398 785.074 185.721 785.074 186.109V200.305C785.074 200.693 784.937 201.016 784.662 201.275L779.817 206.12C779.542 206.394 779.219 206.532 778.848 206.532H775.141C774.753 206.532 774.43 206.394 774.172 206.12L772.961 204.909V213.194C772.961 213.598 772.759 213.8 772.355 213.8H765.886ZM772.961 200.887H776.013C776.546 200.887 776.91 200.782 777.103 200.572C777.297 200.362 777.394 199.991 777.394 199.458V186.957C777.394 186.424 777.297 186.052 777.103 185.842C776.91 185.632 776.546 185.527 776.013 185.527H774.317C773.8 185.527 773.445 185.632 773.251 185.842C773.058 186.052 772.961 186.424 772.961 186.957V200.887ZM796.794 206.532C796.423 206.532 796.1 206.394 795.825 206.12L790.98 201.275C790.705 201.016 790.568 200.693 790.568 200.305V186.109C790.568 185.721 790.705 185.398 790.98 185.14L795.825 180.294C796.1 180.02 796.423 179.882 796.794 179.882H809.756C810.16 179.882 810.361 180.084 810.361 180.488V205.926C810.361 206.33 810.16 206.532 809.756 206.532H804.717C804.507 206.532 804.345 206.491 804.232 206.411C804.135 206.33 804.022 206.233 803.893 206.12L802.682 204.909L801.47 206.12C801.212 206.394 800.889 206.532 800.501 206.532H796.794ZM799.629 200.887H801.325C801.842 200.887 802.197 200.782 802.391 200.572C802.585 200.362 802.682 199.991 802.682 199.458V185.527H799.629C799.096 185.527 798.733 185.632 798.539 185.842C798.345 186.052 798.248 186.424 798.248 186.957V199.458C798.248 199.991 798.345 200.362 798.539 200.572C798.733 200.782 799.096 200.887 799.629 200.887ZM816.611 206.532C816.207 206.532 816.005 206.33 816.005 205.926V180.488C816.005 180.084 816.207 179.882 816.611 179.882H820.294C820.6 179.882 820.867 180.02 821.093 180.294L823.467 183.032L826.108 180.173C826.286 179.979 826.512 179.882 826.786 179.882H829.403C829.807 179.882 830.009 180.084 830.009 180.488V185.697C830.009 185.955 829.992 186.133 829.96 186.23C829.928 186.31 829.839 186.399 829.694 186.496L823.685 190.93V205.926C823.685 206.33 823.483 206.532 823.08 206.532H816.611ZM838.47 206.532C838.099 206.532 837.776 206.394 837.501 206.12L833.455 202.098C833.197 201.824 833.068 201.501 833.068 201.129V185.527H832.05C831.646 185.527 831.444 185.325 831.444 184.922V180.488C831.444 180.084 831.646 179.882 832.05 179.882H833.068V176.854C833.068 176.45 833.269 176.248 833.673 176.248H840.117C840.521 176.248 840.723 176.45 840.723 176.854V179.882H843.073C843.477 179.882 843.679 180.084 843.679 180.488V184.922C843.679 185.325 843.477 185.527 843.073 185.527H840.723V198.464C840.723 198.771 840.82 199.021 841.014 199.215L843.388 201.614C843.55 201.759 843.63 202.001 843.63 202.341V205.926C843.63 206.33 843.428 206.532 843.025 206.532H838.47ZM847.676 206.338C847.272 206.338 847.071 206.12 847.071 205.684V197.98C847.071 197.544 847.272 197.326 847.676 197.326H855.429C855.833 197.326 856.034 197.544 856.034 197.98V205.684C856.034 206.12 855.833 206.338 855.429 206.338H847.676Z" fill="#1E1E1E"/>
<rect x="121.503" width="278.209" height="88.9178" fill="black"/>
<path d="M181.62 62.9589C181.217 62.9589 181.015 62.757 181.015 62.3532V36.0672C181.015 35.6957 181.152 35.3727 181.426 35.0981L185.448 31.0523C185.723 30.7938 186.046 30.6646 186.417 30.6646H191.965C192.337 30.6646 192.66 30.7938 192.934 31.0523L197.004 35.1466H198.143L202.213 31.0523C202.488 30.7938 202.811 30.6646 203.182 30.6646H208.706C209.093 30.6646 209.416 30.7938 209.675 31.0523L213.721 35.0981C213.995 35.3727 214.133 35.6957 214.133 36.0672V62.3532C214.133 62.757 213.931 62.9589 213.527 62.9589H206.647C206.243 62.9589 206.041 62.757 206.041 62.3532V37.1089H201.607V62.3532C201.607 62.757 201.405 62.9589 201.002 62.9589H194.146C193.742 62.9589 193.54 62.757 193.54 62.3532V37.1089H189.082V62.3532C189.082 62.757 188.88 62.9589 188.476 62.9589H181.62ZM220.563 62.9589C220.159 62.9589 219.957 62.757 219.957 62.3532V31.2703C219.957 30.8665 220.159 30.6646 220.563 30.6646H237.449C237.853 30.6646 238.055 30.8665 238.055 31.2703V36.5033C238.055 36.9071 237.853 37.1089 237.449 37.1089H228.025V43.9893H236.625C237.029 43.9893 237.231 44.1912 237.231 44.595V49.0285C237.231 49.4323 237.029 49.6342 236.625 49.6342H228.025V56.4903H237.449C237.853 56.4903 238.055 56.6922 238.055 57.096V62.3532C238.055 62.757 237.853 62.9589 237.449 62.9589H220.563ZM226.862 29.4775C226.555 29.6229 226.337 29.5502 226.208 29.2595L225.36 27.4425C225.247 27.1518 225.336 26.9095 225.626 26.7157L231.344 23.009C231.634 22.8313 231.853 22.9363 231.998 23.3239L233.379 26.2069C233.508 26.4815 233.419 26.6995 233.112 26.861L226.862 29.4775ZM253.01 62.9589C252.639 62.9589 252.316 62.8539 252.041 62.6439L248.092 59.0341L244.095 53.8254C243.917 53.5993 243.804 53.462 243.756 53.4135C243.707 53.3489 243.683 53.2036 243.683 52.9775V40.6218C243.683 40.3957 243.707 40.2503 243.756 40.1857C243.82 40.1211 243.933 39.9839 244.095 39.7739L247.802 34.977L252.041 30.9796C252.219 30.8342 252.356 30.7454 252.453 30.7131C252.566 30.6808 252.752 30.6646 253.01 30.6646H258.994C259.398 30.6646 259.6 30.8665 259.6 31.2703V35.1466C259.6 35.2758 259.584 35.4131 259.552 35.5584C259.535 35.6876 259.455 35.8007 259.309 35.8976L254.755 39.0229L251.775 42.8507V50.7728L254.803 54.6006L259.309 57.7017C259.439 57.7824 259.519 57.8793 259.552 57.9924C259.584 58.1054 259.6 58.2266 259.6 58.3558V62.3532C259.6 62.757 259.398 62.9589 258.994 62.9589H253.01ZM264.73 62.9589C264.326 62.9589 264.124 62.757 264.124 62.3532V39.895C264.124 39.6851 264.205 39.4428 264.367 39.1682L270.108 31.028C270.286 30.7858 270.544 30.6646 270.884 30.6646H278.903C279.258 30.6646 279.516 30.7858 279.678 31.028L285.444 39.1682C285.605 39.3943 285.686 39.6366 285.686 39.895V62.3532C285.686 62.757 285.484 62.9589 285.081 62.9589H278.224C277.821 62.9589 277.619 62.757 277.619 62.3532V52.0568H272.216V62.3532C272.216 62.757 272.014 62.9589 271.61 62.9589H264.73ZM274.905 46.8481C276.391 46.8481 277.393 46.5251 277.909 45.879C278.442 45.2168 278.709 43.9651 278.709 42.1239C278.709 40.2826 278.442 39.039 277.909 38.393C277.393 37.7308 276.391 37.3997 274.905 37.3997C273.436 37.3997 272.434 37.7308 271.901 38.393C271.384 39.039 271.126 40.2826 271.126 42.1239C271.126 43.9651 271.384 45.2168 271.901 45.879C272.434 46.5251 273.436 46.8481 274.905 46.8481ZM291.965 62.9589C291.562 62.9589 291.36 62.757 291.36 62.3532V31.2703C291.36 30.8665 291.562 30.6646 291.965 30.6646H305.726C306.114 30.6646 306.437 30.7938 306.695 31.0523L311.541 35.8976C311.815 36.1722 311.952 36.4952 311.952 36.8667V62.3532C311.952 62.757 311.751 62.9589 311.347 62.9589H304.491C304.087 62.9589 303.885 62.757 303.885 62.3532V37.1089H299.427V62.3532C299.427 62.757 299.225 62.9589 298.822 62.9589H291.965ZM323.989 62.9589C323.618 62.9589 323.295 62.8216 323.02 62.547L318.175 57.7017C317.9 57.4432 317.763 57.1202 317.763 56.7326V36.8667C317.763 36.4952 317.9 36.1722 318.175 35.8976L323.02 31.0523C323.295 30.7938 323.618 30.6646 323.989 30.6646H333.511C333.898 30.6646 334.221 30.7938 334.48 31.0523L339.325 35.8976C339.599 36.1722 339.737 36.4952 339.737 36.8667V56.7326C339.737 57.1202 339.599 57.4432 339.325 57.7017L334.48 62.547C334.221 62.8216 333.898 62.9589 333.511 62.9589H323.989ZM326.848 56.4903H330.652C331.33 56.4903 331.669 56.0381 331.669 55.1336V38.4899C331.669 37.5693 331.33 37.1089 330.652 37.1089H326.848C326.186 37.1089 325.855 37.5693 325.855 38.4899V55.1336C325.855 56.0381 326.186 56.4903 326.848 56.4903Z" fill="#FFF1E9"/>
</svg>
