<svg viewBox="0 0 1163 279" fill="none" xmlns="http://www.w3.org/2000/svg">
<rect x="3.75794" y="40.7006" width="1154.82" height="233.662" fill="#FFF1E9" stroke="black" stroke-width="7.51635"/>
<path d="M212.509 145.532C212.106 145.532 211.904 145.33 211.904 144.926V122.468C211.904 122.258 211.984 122.016 212.146 121.741L217.888 113.601C218.065 113.359 218.324 113.238 218.663 113.238H226.682C227.037 113.238 227.296 113.359 227.457 113.601L233.223 121.741C233.385 121.967 233.465 122.209 233.465 122.468V144.926C233.465 145.33 233.264 145.532 232.86 145.532H226.004C225.6 145.532 225.398 145.33 225.398 144.926V134.63H219.995V144.926C219.995 145.33 219.793 145.532 219.39 145.532H212.509ZM222.685 129.421C224.17 129.421 225.172 129.098 225.689 128.452C226.222 127.79 226.488 126.538 226.488 124.697C226.488 122.856 226.222 121.612 225.689 120.966C225.172 120.304 224.17 119.973 222.685 119.973C221.215 119.973 220.213 120.304 219.68 120.966C219.164 121.612 218.905 122.856 218.905 124.697C218.905 126.538 219.164 127.79 219.68 128.452C220.213 129.098 221.215 129.421 222.685 129.421ZM225.18 112.05L218.929 109.434C218.623 109.272 218.534 109.054 218.663 108.78L220.044 105.897C220.189 105.509 220.407 105.404 220.698 105.582L226.415 109.289C226.706 109.482 226.795 109.725 226.682 110.015L225.834 111.832C225.721 112.123 225.503 112.196 225.18 112.05ZM252.424 145.532C252.052 145.532 251.729 145.394 251.455 145.12L247.409 141.098C247.151 140.824 247.021 140.501 247.021 140.129V124.527H246.004C245.6 124.527 245.398 124.325 245.398 123.922V119.488C245.398 119.084 245.6 118.882 246.004 118.882H247.021V115.854C247.021 115.45 247.223 115.248 247.627 115.248H254.071C254.475 115.248 254.677 115.45 254.677 115.854V118.882H257.027C257.431 118.882 257.633 119.084 257.633 119.488V123.922C257.633 124.325 257.431 124.527 257.027 124.527H254.677V137.464C254.677 137.771 254.774 138.021 254.968 138.215L257.342 140.614C257.504 140.759 257.584 141.001 257.584 141.341V144.926C257.584 145.33 257.382 145.532 256.979 145.532H252.424ZM268.05 145.532C267.679 145.532 267.356 145.394 267.081 145.12L262.236 140.275C261.961 140.016 261.824 139.693 261.824 139.305V125.109C261.824 124.721 261.961 124.398 262.236 124.14L267.081 119.294C267.356 119.02 267.679 118.882 268.05 118.882H275.391C275.779 118.882 276.102 119.02 276.36 119.294L281.205 124.14C281.48 124.398 281.617 124.721 281.617 125.109V139.305C281.617 139.693 281.48 140.016 281.205 140.275L276.36 145.12C276.102 145.394 275.779 145.532 275.391 145.532H268.05ZM270.885 139.887H272.581C273.097 139.887 273.453 139.782 273.647 139.572C273.84 139.362 273.937 138.991 273.937 138.458V125.957C273.937 125.424 273.84 125.052 273.647 124.842C273.453 124.632 273.097 124.527 272.581 124.527H270.885C270.352 124.527 269.988 124.632 269.795 124.842C269.601 125.052 269.504 125.424 269.504 125.957V138.458C269.504 138.991 269.601 139.362 269.795 139.572C269.988 139.782 270.352 139.887 270.885 139.887ZM287.867 145.532C287.463 145.532 287.261 145.33 287.261 144.926V119.488C287.261 119.084 287.463 118.882 287.867 118.882H294.311C294.715 118.882 294.917 119.084 294.917 119.488V144.926C294.917 145.33 294.715 145.532 294.311 145.532H287.867ZM287.746 116.872C287.423 116.872 287.261 116.71 287.261 116.387V113.31C287.261 112.987 287.423 112.826 287.746 112.826H294.481C294.772 112.826 294.917 112.987 294.917 113.31V116.387C294.917 116.71 294.772 116.872 294.481 116.872H287.746ZM314.327 145.532C313.956 145.532 313.633 145.394 313.358 145.12L308.513 140.275C308.238 140.016 308.101 139.693 308.101 139.305V125.109C308.101 124.721 308.238 124.398 308.513 124.14L313.358 119.294C313.633 119.02 313.956 118.882 314.327 118.882H318.034C318.421 118.882 318.744 119.02 319.003 119.294L320.214 120.506V113.843C320.214 113.439 320.416 113.238 320.82 113.238H327.288C327.692 113.238 327.894 113.439 327.894 113.843V144.926C327.894 145.33 327.692 145.532 327.288 145.532H322.249C322.039 145.532 321.878 145.491 321.765 145.411C321.668 145.33 321.555 145.233 321.425 145.12L320.214 143.909L319.003 145.12C318.744 145.394 318.421 145.532 318.034 145.532H314.327ZM317.162 139.887H318.857C319.374 139.887 319.73 139.782 319.923 139.572C320.117 139.362 320.214 138.991 320.214 138.458V124.527H317.162C316.629 124.527 316.265 124.632 316.071 124.842C315.878 125.052 315.781 125.424 315.781 125.957V138.458C315.781 138.991 315.878 139.362 316.071 139.572C316.265 139.782 316.629 139.887 317.162 139.887ZM344.392 145.532C344.23 145.532 344.052 145.508 343.859 145.459C343.681 145.411 343.511 145.37 343.35 145.338L339.038 144.272L334.095 142.625C333.611 142.463 333.368 141.995 333.368 141.219V125.109C333.368 124.721 333.506 124.398 333.78 124.14L338.626 119.294C338.9 119.02 339.223 118.882 339.595 118.882H347.347C347.719 118.882 348.042 119.02 348.316 119.294L353.162 124.14C353.436 124.398 353.574 124.721 353.574 125.109V135.042H340.564L340.394 138.264L343.834 139.402L350.012 139.838C350.287 139.887 350.424 140.073 350.424 140.396V144.926C350.424 145.33 350.222 145.532 349.818 145.532H344.392ZM343.423 131.238H343.883C344.674 131.238 345.304 130.939 345.773 130.342C346.257 129.744 346.499 128.936 346.499 127.919V127.434C346.499 126.433 346.257 125.634 345.773 125.036C345.304 124.438 344.674 124.14 343.883 124.14H343.398C342.623 124.14 342.001 124.438 341.533 125.036C341.081 125.634 340.855 126.433 340.855 127.434V127.919C340.855 128.936 341.081 129.744 341.533 130.342C342.001 130.939 342.631 131.238 343.423 131.238ZM371.901 145.532C371.53 145.532 371.207 145.394 370.932 145.12L366.887 141.098C366.628 140.824 366.499 140.501 366.499 140.129V124.527H365.481C365.078 124.527 364.876 124.325 364.876 123.922V119.488C364.876 119.084 365.078 118.882 365.481 118.882H366.499V115.854C366.499 115.45 366.701 115.248 367.105 115.248H373.549C373.953 115.248 374.155 115.45 374.155 115.854V118.882H376.505C376.908 118.882 377.11 119.084 377.11 119.488V123.922C377.11 124.325 376.908 124.527 376.505 124.527H374.155V137.464C374.155 137.771 374.251 138.021 374.445 138.215L376.819 140.614C376.981 140.759 377.062 141.001 377.062 141.341V144.926C377.062 145.33 376.86 145.532 376.456 145.532H371.901ZM381.713 123.243C381.277 123.243 381.059 123.025 381.059 122.589V119.197C381.059 118.777 381.277 118.567 381.713 118.567H383.482C383.966 118.567 384.209 118.366 384.209 117.962V117.235H381.108C380.704 117.235 380.502 117.017 380.502 116.581L380.55 110.451C380.55 110.015 380.76 109.797 381.18 109.797H388.86C389.264 109.797 389.466 110.015 389.466 110.451V117.865C389.466 119.674 389.038 121.022 388.182 121.911C387.326 122.799 386.179 123.243 384.742 123.243H381.713ZM401.271 153.599C400.868 153.599 400.666 153.397 400.666 152.994V149.214C400.666 148.907 400.787 148.73 401.029 148.681L404.59 147.785L407.086 146.452C407.328 146.323 407.449 146.073 407.449 145.701V141.728L405.196 143.836C404.922 144.11 404.599 144.248 404.227 144.248L400.109 144.393C399.737 144.393 399.414 144.264 399.139 144.005L394.706 139.548C394.431 139.289 394.294 138.966 394.294 138.579V119.488C394.294 119.084 394.496 118.882 394.9 118.882H401.368C401.772 118.882 401.974 119.084 401.974 119.488V137.731C401.974 138.264 402.071 138.635 402.265 138.845C402.459 139.055 402.814 139.16 403.331 139.16H406.408V119.488C406.408 119.084 406.609 118.882 407.013 118.882H413.482C413.885 118.882 414.087 119.084 414.087 119.488V148.609C414.087 149.093 413.95 149.416 413.676 149.578L410.453 151.637L406.359 153.333C406.117 153.43 405.931 153.494 405.802 153.527C405.689 153.575 405.503 153.599 405.245 153.599H401.271ZM435.338 145.532C435.015 145.532 434.692 145.427 434.369 145.217L430.42 142.552L427.706 138.191C427.593 137.981 427.496 137.844 427.415 137.779C427.335 137.698 427.294 137.537 427.294 137.295V127.119C427.294 126.877 427.327 126.716 427.391 126.635C427.456 126.554 427.561 126.409 427.706 126.199L430.177 122.08L434.369 119.197C434.514 119.1 434.659 119.028 434.805 118.979C434.95 118.915 435.128 118.882 435.338 118.882H439.529C439.933 118.882 440.134 119.084 440.134 119.488V124.018C440.134 124.148 440.118 124.285 440.086 124.43C440.07 124.576 439.997 124.689 439.868 124.769L437.106 126.15L434.974 128.936V135.405L437.227 137.973L439.868 139.645C440.03 139.742 440.11 139.863 440.11 140.008C440.126 140.137 440.134 140.266 440.134 140.396V144.926C440.134 145.33 439.933 145.532 439.529 145.532H435.338ZM451.028 145.532C450.657 145.532 450.334 145.394 450.059 145.12L445.214 140.275C444.939 140.016 444.802 139.693 444.802 139.305V125.109C444.802 124.721 444.939 124.398 445.214 124.14L450.059 119.294C450.334 119.02 450.657 118.882 451.028 118.882H458.369C458.757 118.882 459.08 119.02 459.338 119.294L464.183 124.14C464.458 124.398 464.595 124.721 464.595 125.109V139.305C464.595 139.693 464.458 140.016 464.183 140.275L459.338 145.12C459.08 145.394 458.757 145.532 458.369 145.532H451.028ZM453.863 139.887H455.559C456.075 139.887 456.431 139.782 456.625 139.572C456.818 139.362 456.915 138.991 456.915 138.458V125.957C456.915 125.424 456.818 125.052 456.625 124.842C456.431 124.632 456.075 124.527 455.559 124.527H453.863C453.33 124.527 452.966 124.632 452.773 124.842C452.579 125.052 452.482 125.424 452.482 125.957V138.458C452.482 138.991 452.579 139.362 452.773 139.572C452.966 139.782 453.33 139.887 453.863 139.887ZM470.554 145.532C470.15 145.532 469.949 145.33 469.949 144.926V113.843C469.949 113.439 470.15 113.238 470.554 113.238H477.023C477.426 113.238 477.628 113.439 477.628 113.843V144.926C477.628 145.33 477.426 145.532 477.023 145.532H470.554ZM483.283 145.532C482.879 145.532 482.677 145.33 482.677 144.926V113.843C482.677 113.439 482.879 113.238 483.283 113.238H489.751C490.155 113.238 490.357 113.439 490.357 113.843V144.926C490.357 145.33 490.155 145.532 489.751 145.532H483.283ZM506.55 145.532C506.388 145.532 506.211 145.508 506.017 145.459C505.839 145.411 505.67 145.37 505.508 145.338L501.196 144.272L496.253 142.625C495.769 142.463 495.527 141.995 495.527 141.219V125.109C495.527 124.721 495.664 124.398 495.939 124.14L500.784 119.294C501.058 119.02 501.381 118.882 501.753 118.882H509.505C509.877 118.882 510.2 119.02 510.475 119.294L515.32 124.14C515.594 124.398 515.732 124.721 515.732 125.109V135.042H502.722L502.552 138.264L505.993 139.402L512.17 139.838C512.445 139.887 512.582 140.073 512.582 140.396V144.926C512.582 145.33 512.38 145.532 511.977 145.532H506.55ZM505.581 131.238H506.041C506.832 131.238 507.462 130.939 507.931 130.342C508.415 129.744 508.658 128.936 508.658 127.919V127.434C508.658 126.433 508.415 125.634 507.931 125.036C507.462 124.438 506.832 124.14 506.041 124.14H505.557C504.781 124.14 504.159 124.438 503.691 125.036C503.239 125.634 503.013 126.433 503.013 127.434V127.919C503.013 128.936 503.239 129.744 503.691 130.342C504.159 130.939 504.789 131.238 505.581 131.238ZM521.38 145.532C520.977 145.532 520.775 145.33 520.775 144.926V119.488C520.775 119.084 520.977 118.882 521.38 118.882H525.063C525.37 118.882 525.636 119.02 525.862 119.294L528.237 122.032L530.877 119.173C531.055 118.979 531.281 118.882 531.556 118.882H534.172C534.576 118.882 534.778 119.084 534.778 119.488V124.697C534.778 124.955 534.762 125.133 534.729 125.23C534.697 125.31 534.608 125.399 534.463 125.496L528.455 129.93V144.926C528.455 145.33 528.253 145.532 527.849 145.532H521.38ZM545.017 145.508C544.613 145.508 544.411 145.289 544.411 144.853V137.149C544.411 136.713 544.613 136.495 545.017 136.495H552.769C553.173 136.495 553.375 136.713 553.375 137.149V144.853C553.375 145.289 553.173 145.508 552.769 145.508H545.017ZM545.017 128.791C544.613 128.791 544.411 128.573 544.411 128.137V120.433C544.411 119.997 544.613 119.779 545.017 119.779H552.769C553.173 119.779 553.375 119.997 553.375 120.433V128.137C553.375 128.573 553.173 128.791 552.769 128.791H545.017ZM567.176 145.532C566.772 145.532 566.57 145.33 566.57 144.926V119.44C566.57 119.068 566.699 118.745 566.958 118.47L571.803 113.625C572.078 113.367 572.401 113.238 572.772 113.238H577.981C578.385 113.238 578.586 113.439 578.586 113.843V119.488C578.586 119.892 578.385 120.094 577.981 120.094H574.226V144.926C574.226 145.33 574.024 145.532 573.62 145.532H567.176ZM565.068 130.39C564.664 130.39 564.462 130.188 564.462 129.784V125.351C564.462 124.947 564.664 124.745 565.068 124.745H577.981C578.385 124.745 578.586 124.947 578.586 125.351V129.784C578.586 130.188 578.385 130.39 577.981 130.39H565.068ZM589.007 145.532C588.635 145.532 588.312 145.394 588.038 145.12L583.193 140.275C582.918 140.016 582.781 139.693 582.781 139.305V125.109C582.781 124.721 582.918 124.398 583.193 124.14L588.038 119.294C588.312 119.02 588.635 118.882 589.007 118.882H596.348C596.735 118.882 597.058 119.02 597.317 119.294L602.162 124.14C602.437 124.398 602.574 124.721 602.574 125.109V139.305C602.574 139.693 602.437 140.016 602.162 140.275L597.317 145.12C597.058 145.394 596.735 145.532 596.348 145.532H589.007ZM591.841 139.887H593.537C594.054 139.887 594.41 139.782 594.603 139.572C594.797 139.362 594.894 138.991 594.894 138.458V125.957C594.894 125.424 594.797 125.052 594.603 124.842C594.41 124.632 594.054 124.527 593.537 124.527H591.841C591.308 124.527 590.945 124.632 590.751 124.842C590.557 125.052 590.461 125.424 590.461 125.957V138.458C590.461 138.991 590.557 139.362 590.751 139.572C590.945 139.782 591.308 139.887 591.841 139.887ZM614.444 145.532C614.057 145.532 613.734 145.394 613.475 145.12L608.63 140.275C608.355 140.016 608.218 139.693 608.218 139.305V119.488C608.218 119.084 608.42 118.882 608.824 118.882H615.292C615.696 118.882 615.898 119.084 615.898 119.488V138.336C615.898 139.096 616.269 139.475 617.012 139.475H620.331V119.488C620.331 119.084 620.533 118.882 620.937 118.882H627.406C627.809 118.882 628.011 119.084 628.011 119.488V144.926C628.011 145.33 627.809 145.532 627.406 145.532H614.444ZM634.281 145.532C633.877 145.532 633.675 145.33 633.675 144.926V119.488C633.675 119.084 633.877 118.882 634.281 118.882H640.725C641.129 118.882 641.331 119.084 641.331 119.488V144.926C641.331 145.33 641.129 145.532 640.725 145.532H634.281ZM634.16 116.872C633.836 116.872 633.675 116.71 633.675 116.387V113.31C633.675 112.987 633.836 112.826 634.16 112.826H640.895C641.185 112.826 641.331 112.987 641.331 113.31V116.387C641.331 116.71 641.185 116.872 640.895 116.872H634.16ZM647.286 145.532C646.882 145.532 646.681 145.33 646.681 144.926V113.843C646.681 113.439 646.882 113.238 647.286 113.238H653.755C654.159 113.238 654.36 113.439 654.36 113.843V144.926C654.36 145.33 654.159 145.532 653.755 145.532H647.286ZM660.015 145.532C659.611 145.532 659.409 145.33 659.409 144.926V113.843C659.409 113.439 659.611 113.238 660.015 113.238H666.483C666.887 113.238 667.089 113.439 667.089 113.843V144.926C667.089 145.33 666.887 145.532 666.483 145.532H660.015ZM683.282 145.532C683.12 145.532 682.943 145.508 682.749 145.459C682.571 145.411 682.402 145.37 682.24 145.338L677.928 144.272L672.985 142.625C672.501 142.463 672.259 141.995 672.259 141.219V125.109C672.259 124.721 672.396 124.398 672.671 124.14L677.516 119.294C677.79 119.02 678.113 118.882 678.485 118.882H686.237C686.609 118.882 686.932 119.02 687.207 119.294L692.052 124.14C692.326 124.398 692.464 124.721 692.464 125.109V135.042H679.454L679.284 138.264L682.725 139.402L688.902 139.838C689.177 139.887 689.314 140.073 689.314 140.396V144.926C689.314 145.33 689.112 145.532 688.709 145.532H683.282ZM682.313 131.238H682.773C683.564 131.238 684.194 130.939 684.663 130.342C685.147 129.744 685.39 128.936 685.39 127.919V127.434C685.39 126.433 685.147 125.634 684.663 125.036C684.194 124.438 683.564 124.14 682.773 124.14H682.289C681.513 124.14 680.891 124.438 680.423 125.036C679.971 125.634 679.745 126.433 679.745 127.434V127.919C679.745 128.936 679.971 129.744 680.423 130.342C680.891 130.939 681.521 131.238 682.313 131.238ZM705.534 145.532C705.131 145.532 704.929 145.33 704.929 144.926V113.843C704.929 113.439 705.131 113.238 705.534 113.238H712.003C712.407 113.238 712.609 113.439 712.609 113.843V144.926C712.609 145.33 712.407 145.532 712.003 145.532H705.534ZM728.802 145.532C728.64 145.532 728.462 145.508 728.269 145.459C728.091 145.411 727.921 145.37 727.76 145.338L723.447 144.272L718.505 142.625C718.021 142.463 717.778 141.995 717.778 141.219V125.109C717.778 124.721 717.916 124.398 718.19 124.14L723.036 119.294C723.31 119.02 723.633 118.882 724.005 118.882H731.757C732.129 118.882 732.452 119.02 732.726 119.294L737.572 124.14C737.846 124.398 737.984 124.721 737.984 125.109V135.042H724.974L724.804 138.264L728.244 139.402L734.422 139.838C734.697 139.887 734.834 140.073 734.834 140.396V144.926C734.834 145.33 734.632 145.532 734.228 145.532H728.802ZM727.833 131.238H728.293C729.084 131.238 729.714 130.939 730.183 130.342C730.667 129.744 730.909 128.936 730.909 127.919V127.434C730.909 126.433 730.667 125.634 730.183 125.036C729.714 124.438 729.084 124.14 728.293 124.14H727.808C727.033 124.14 726.411 124.438 725.943 125.036C725.491 125.634 725.264 126.433 725.264 127.434V127.919C725.264 128.936 725.491 129.744 725.943 130.342C726.411 130.939 727.041 131.238 727.833 131.238ZM742.881 145.532C742.477 145.532 742.275 145.33 742.275 144.926V141.001C742.275 140.63 742.397 140.388 742.639 140.275L747.581 137.343V134.824L742.639 132.159C742.397 132.013 742.275 131.763 742.275 131.408V123.679C742.275 123.502 742.3 123.356 742.348 123.243C742.413 123.13 742.502 123.033 742.615 122.952L747.775 119.173C747.953 119.044 748.098 118.963 748.211 118.931C748.324 118.898 748.437 118.882 748.55 118.882H754.437C754.841 118.882 755.043 119.084 755.043 119.488V123.292C755.043 123.566 755.019 123.752 754.97 123.849C754.938 123.946 754.857 124.026 754.728 124.091L750.149 126.562V129.373L755.043 131.795C755.317 131.908 755.455 132.151 755.455 132.522V139.96C755.455 140.363 755.317 140.686 755.043 140.929L749.883 145.217C749.624 145.427 749.301 145.532 748.914 145.532H742.881ZM776.121 145.532C775.798 145.532 775.475 145.427 775.151 145.217L771.203 142.552L768.489 138.191C768.376 137.981 768.279 137.844 768.198 137.779C768.118 137.698 768.077 137.537 768.077 137.295V127.119C768.077 126.877 768.11 126.716 768.174 126.635C768.239 126.554 768.344 126.409 768.489 126.199L770.96 122.08L775.151 119.197C775.297 119.1 775.442 119.028 775.588 118.979C775.733 118.915 775.911 118.882 776.121 118.882H780.312C780.716 118.882 780.917 119.084 780.917 119.488V124.018C780.917 124.148 780.901 124.285 780.869 124.43C780.853 124.576 780.78 124.689 780.651 124.769L777.889 126.15L775.757 128.936V135.405L778.01 137.973L780.651 139.645C780.812 139.742 780.893 139.863 780.893 140.008C780.909 140.137 780.917 140.266 780.917 140.396V144.926C780.917 145.33 780.716 145.532 780.312 145.532H776.121ZM791.811 145.532C791.44 145.532 791.117 145.394 790.842 145.12L785.997 140.275C785.722 140.016 785.585 139.693 785.585 139.305V125.109C785.585 124.721 785.722 124.398 785.997 124.14L790.842 119.294C791.117 119.02 791.44 118.882 791.811 118.882H804.772C805.176 118.882 805.378 119.084 805.378 119.488V144.926C805.378 145.33 805.176 145.532 804.772 145.532H799.733C799.523 145.532 799.362 145.491 799.249 145.411C799.152 145.33 799.039 145.233 798.91 145.12L797.698 143.909L796.487 145.12C796.228 145.394 795.905 145.532 795.518 145.532H791.811ZM794.646 139.887H796.342C796.858 139.887 797.214 139.782 797.407 139.572C797.601 139.362 797.698 138.991 797.698 138.458V124.527H794.646C794.113 124.527 793.749 124.632 793.555 124.842C793.362 125.052 793.265 125.424 793.265 125.957V138.458C793.265 138.991 793.362 139.362 793.555 139.572C793.749 139.782 794.113 139.887 794.646 139.887ZM811.628 145.532C811.224 145.532 811.022 145.33 811.022 144.926V119.488C811.022 119.084 811.224 118.882 811.628 118.882H815.31C815.617 118.882 815.884 119.02 816.11 119.294L818.484 122.032L821.125 119.173C821.302 118.979 821.528 118.882 821.803 118.882H824.42C824.823 118.882 825.025 119.084 825.025 119.488V124.697C825.025 124.955 825.009 125.133 824.977 125.23C824.944 125.31 824.856 125.399 824.71 125.496L818.702 129.93V144.926C818.702 145.33 818.5 145.532 818.096 145.532H811.628ZM835.788 145.532C835.465 145.532 835.142 145.427 834.819 145.217L830.87 142.552L828.157 138.191C828.044 137.981 827.947 137.844 827.866 137.779C827.785 137.698 827.745 137.537 827.745 137.295V127.119C827.745 126.877 827.777 126.716 827.842 126.635C827.907 126.554 828.012 126.409 828.157 126.199L830.628 122.08L834.819 119.197C834.965 119.1 835.11 119.028 835.255 118.979C835.401 118.915 835.578 118.882 835.788 118.882H839.98C840.383 118.882 840.585 119.084 840.585 119.488V124.018C840.585 124.148 840.569 124.285 840.537 124.43C840.521 124.576 840.448 124.689 840.319 124.769L837.557 126.15L835.425 128.936V135.405L837.678 137.973L840.319 139.645C840.48 139.742 840.561 139.863 840.561 140.008C840.577 140.137 840.585 140.266 840.585 140.396V144.926C840.585 145.33 840.383 145.532 839.98 145.532H835.788ZM851.479 145.532C851.107 145.532 850.784 145.394 850.51 145.12L845.664 140.275C845.39 140.016 845.253 139.693 845.253 139.305V125.109C845.253 124.721 845.39 124.398 845.664 124.14L850.51 119.294C850.784 119.02 851.107 118.882 851.479 118.882H864.44C864.844 118.882 865.046 119.084 865.046 119.488V144.926C865.046 145.33 864.844 145.532 864.44 145.532H859.401C859.191 145.532 859.03 145.491 858.917 145.411C858.82 145.33 858.707 145.233 858.577 145.12L857.366 143.909L856.155 145.12C855.896 145.394 855.573 145.532 855.186 145.532H851.479ZM854.313 139.887H856.009C856.526 139.887 856.881 139.782 857.075 139.572C857.269 139.362 857.366 138.991 857.366 138.458V124.527H854.313C853.78 124.527 853.417 124.632 853.223 124.842C853.029 125.052 852.933 125.424 852.933 125.957V138.458C852.933 138.991 853.029 139.362 853.223 139.572C853.417 139.782 853.78 139.887 854.313 139.887ZM870.545 145.532C870.141 145.532 869.939 145.33 869.939 144.926V141.001C869.939 140.63 870.06 140.388 870.302 140.275L875.245 137.343V134.824L870.302 132.159C870.06 132.013 869.939 131.763 869.939 131.408V123.679C869.939 123.502 869.963 123.356 870.012 123.243C870.076 123.13 870.165 123.033 870.278 122.952L875.438 119.173C875.616 119.044 875.761 118.963 875.874 118.931C875.987 118.898 876.101 118.882 876.214 118.882H882.101C882.504 118.882 882.706 119.084 882.706 119.488V123.292C882.706 123.566 882.682 123.752 882.634 123.849C882.601 123.946 882.521 124.026 882.391 124.091L877.813 126.562V129.373L882.706 131.795C882.981 131.908 883.118 132.151 883.118 132.522V139.96C883.118 140.363 882.981 140.686 882.706 140.929L877.546 145.217C877.288 145.427 876.965 145.532 876.577 145.532H870.545ZM888.052 145.532C887.648 145.532 887.447 145.33 887.447 144.926V141.001C887.447 140.63 887.568 140.388 887.81 140.275L892.752 137.343V134.824L887.81 132.159C887.568 132.013 887.447 131.763 887.447 131.408V123.679C887.447 123.502 887.471 123.356 887.519 123.243C887.584 123.13 887.673 123.033 887.786 122.952L892.946 119.173C893.124 119.044 893.269 118.963 893.382 118.931C893.495 118.898 893.608 118.882 893.721 118.882H899.608C900.012 118.882 900.214 119.084 900.214 119.488V123.292C900.214 123.566 900.19 123.752 900.141 123.849C900.109 123.946 900.028 124.026 899.899 124.091L895.32 126.562V129.373L900.214 131.795C900.489 131.908 900.626 132.151 900.626 132.522V139.96C900.626 140.363 900.489 140.686 900.214 140.929L895.054 145.217C894.795 145.427 894.472 145.532 894.085 145.532H888.052ZM916.559 145.532C916.397 145.532 916.22 145.508 916.026 145.459C915.848 145.411 915.678 145.37 915.517 145.338L911.205 144.272L906.262 142.625C905.778 142.463 905.536 141.995 905.536 141.219V125.109C905.536 124.721 905.673 124.398 905.947 124.14L910.793 119.294C911.067 119.02 911.39 118.882 911.762 118.882H919.514C919.886 118.882 920.209 119.02 920.483 119.294L925.329 124.14C925.603 124.398 925.741 124.721 925.741 125.109V135.042H912.731L912.561 138.264L916.001 139.402L922.179 139.838C922.454 139.887 922.591 140.073 922.591 140.396V144.926C922.591 145.33 922.389 145.532 921.985 145.532H916.559ZM915.59 131.238H916.05C916.841 131.238 917.471 130.939 917.94 130.342C918.424 129.744 918.666 128.936 918.666 127.919V127.434C918.666 126.433 918.424 125.634 917.94 125.036C917.471 124.438 916.841 124.14 916.05 124.14H915.565C914.79 124.14 914.168 124.438 913.7 125.036C913.248 125.634 913.022 126.433 913.022 127.434V127.919C913.022 128.936 913.248 129.744 913.7 130.342C914.168 130.939 914.798 131.238 915.59 131.238ZM930.638 145.532C930.234 145.532 930.033 145.33 930.033 144.926V141.001C930.033 140.63 930.154 140.388 930.396 140.275L935.338 137.343V134.824L930.396 132.159C930.154 132.013 930.033 131.763 930.033 131.408V123.679C930.033 123.502 930.057 123.356 930.105 123.243C930.17 123.13 930.259 123.033 930.372 122.952L935.532 119.173C935.71 119.044 935.855 118.963 935.968 118.931C936.081 118.898 936.194 118.882 936.307 118.882H942.194C942.598 118.882 942.8 119.084 942.8 119.488V123.292C942.8 123.566 942.776 123.752 942.727 123.849C942.695 123.946 942.614 124.026 942.485 124.091L937.906 126.562V129.373L942.8 131.795C943.075 131.908 943.212 132.151 943.212 132.522V139.96C943.212 140.363 943.075 140.686 942.8 140.929L937.64 145.217C937.381 145.427 937.058 145.532 936.671 145.532H930.638ZM222.927 206.532C222.765 206.532 222.588 206.508 222.394 206.459C222.216 206.411 222.047 206.37 221.885 206.338L217.573 205.272L212.63 203.625C212.146 203.463 211.904 202.995 211.904 202.219V186.109C211.904 185.721 212.041 185.398 212.315 185.14L217.161 180.294C217.435 180.02 217.758 179.882 218.13 179.882H225.882C226.254 179.882 226.577 180.02 226.852 180.294L231.697 185.14C231.971 185.398 232.109 185.721 232.109 186.109V196.042H219.099L218.929 199.264L222.37 200.402L228.547 200.838C228.822 200.887 228.959 201.073 228.959 201.396V205.926C228.959 206.33 228.757 206.532 228.354 206.532H222.927ZM221.958 192.238H222.418C223.209 192.238 223.839 191.939 224.308 191.342C224.792 190.744 225.035 189.936 225.035 188.919V188.434C225.035 187.433 224.792 186.634 224.308 186.036C223.839 185.438 223.209 185.14 222.418 185.14H221.933C221.158 185.14 220.536 185.438 220.068 186.036C219.616 186.634 219.39 187.433 219.39 188.434V188.919C219.39 189.936 219.616 190.744 220.068 191.342C220.536 191.939 221.166 192.238 221.958 192.238ZM242.724 206.532C242.352 206.532 242.029 206.394 241.755 206.12L237.709 202.098C237.45 201.824 237.321 201.501 237.321 201.129V185.527H236.304C235.9 185.527 235.698 185.325 235.698 184.922V180.488C235.698 180.084 235.9 179.882 236.304 179.882H237.321V176.854C237.321 176.45 237.523 176.248 237.927 176.248H244.371C244.775 176.248 244.977 176.45 244.977 176.854V179.882H247.327C247.731 179.882 247.933 180.084 247.933 180.488V184.922C247.933 185.325 247.731 185.527 247.327 185.527H244.977V198.464C244.977 198.771 245.074 199.021 245.268 199.215L247.642 201.614C247.803 201.759 247.884 202.001 247.884 202.341V205.926C247.884 206.33 247.682 206.532 247.278 206.532H242.724ZM260.612 206.532C260.208 206.532 260.006 206.33 260.006 205.926V180.488C260.006 180.084 260.208 179.882 260.612 179.882H264.294C264.601 179.882 264.868 180.02 265.094 180.294L267.468 183.032L270.109 180.173C270.286 179.979 270.512 179.882 270.787 179.882H273.404C273.807 179.882 274.009 180.084 274.009 180.488V185.697C274.009 185.955 273.993 186.133 273.961 186.23C273.928 186.31 273.84 186.399 273.694 186.496L267.686 190.93V205.926C267.686 206.33 267.484 206.532 267.08 206.532H260.612ZM287.752 206.532C287.591 206.532 287.413 206.508 287.219 206.459C287.042 206.411 286.872 206.37 286.71 206.338L282.398 205.272L277.456 203.625C276.971 203.463 276.729 202.995 276.729 202.219V186.109C276.729 185.721 276.866 185.398 277.141 185.14L281.986 180.294C282.261 180.02 282.584 179.882 282.955 179.882H290.708C291.079 179.882 291.402 180.02 291.677 180.294L296.522 185.14C296.797 185.398 296.934 185.721 296.934 186.109V196.042H283.924L283.755 199.264L287.195 200.402L293.373 200.838C293.647 200.887 293.785 201.073 293.785 201.396V205.926C293.785 206.33 293.583 206.532 293.179 206.532H287.752ZM286.783 192.238H287.243C288.035 192.238 288.665 191.939 289.133 191.342C289.618 190.744 289.86 189.936 289.86 188.919V188.434C289.86 187.433 289.618 186.634 289.133 186.036C288.665 185.438 288.035 185.14 287.243 185.14H286.759C285.984 185.14 285.362 185.438 284.893 186.036C284.441 186.634 284.215 187.433 284.215 188.434V188.919C284.215 189.936 284.441 190.744 284.893 191.342C285.362 191.939 285.992 192.238 286.783 192.238ZM284.53 178.695C284.223 178.841 284.005 178.768 283.876 178.477L283.028 176.66C282.915 176.369 283.004 176.127 283.294 175.933L289.012 172.227C289.303 172.049 289.521 172.154 289.666 172.542L291.047 175.425C291.176 175.699 291.087 175.917 290.781 176.079L284.53 178.695ZM308.203 206.532C307.816 206.532 307.493 206.394 307.234 206.12L302.389 201.275C302.114 201.016 301.977 200.693 301.977 200.305V180.488C301.977 180.084 302.179 179.882 302.583 179.882H309.051C309.455 179.882 309.657 180.084 309.657 180.488V199.336C309.657 200.096 310.028 200.475 310.771 200.475H314.09V180.488C314.09 180.084 314.292 179.882 314.696 179.882H321.165C321.568 179.882 321.77 180.084 321.77 180.488V205.926C321.77 206.33 321.568 206.532 321.165 206.532H308.203ZM328.04 206.532C327.636 206.532 327.434 206.33 327.434 205.926V180.488C327.434 180.084 327.636 179.882 328.04 179.882H341.001C341.373 179.882 341.696 180.02 341.97 180.294L346.815 185.14C347.09 185.398 347.227 185.721 347.227 186.109V205.926C347.227 206.33 347.025 206.532 346.622 206.532H340.153C339.749 206.532 339.547 206.33 339.547 205.926V187.078C339.547 186.319 339.168 185.939 338.409 185.939H335.114V205.926C335.114 206.33 334.912 206.532 334.508 206.532H328.04ZM353.497 206.532C353.093 206.532 352.891 206.33 352.891 205.926V180.488C352.891 180.084 353.093 179.882 353.497 179.882H359.941C360.345 179.882 360.547 180.084 360.547 180.488V205.926C360.547 206.33 360.345 206.532 359.941 206.532H353.497ZM353.376 177.872C353.053 177.872 352.891 177.71 352.891 177.387V174.31C352.891 173.987 353.053 173.826 353.376 173.826H360.111C360.401 173.826 360.547 173.987 360.547 174.31V177.387C360.547 177.71 360.401 177.872 360.111 177.872H353.376ZM366.042 206.532C365.638 206.532 365.436 206.33 365.436 205.926V202.001C365.436 201.63 365.557 201.388 365.8 201.275L370.742 198.343V195.824L365.8 193.159C365.557 193.013 365.436 192.763 365.436 192.408V184.679C365.436 184.502 365.461 184.356 365.509 184.243C365.574 184.13 365.662 184.033 365.776 183.952L370.936 180.173C371.113 180.044 371.259 179.963 371.372 179.931C371.485 179.898 371.598 179.882 371.711 179.882H377.598C378.002 179.882 378.204 180.084 378.204 180.488V184.292C378.204 184.566 378.18 184.752 378.131 184.849C378.099 184.946 378.018 185.026 377.889 185.091L373.31 187.562V190.373L378.204 192.795C378.478 192.908 378.616 193.151 378.616 193.522V200.96C378.616 201.363 378.478 201.686 378.204 201.929L373.044 206.217C372.785 206.427 372.462 206.532 372.074 206.532H366.042ZM391.723 206.532C391.319 206.532 391.117 206.33 391.117 205.926V174.843C391.117 174.439 391.319 174.238 391.723 174.238H398.191C398.595 174.238 398.797 174.439 398.797 174.843V205.926C398.797 206.33 398.595 206.532 398.191 206.532H391.723ZM414.99 206.532C414.828 206.532 414.651 206.508 414.457 206.459C414.279 206.411 414.11 206.37 413.948 206.338L409.636 205.272L404.693 203.625C404.209 203.463 403.967 202.995 403.967 202.219V186.109C403.967 185.721 404.104 185.398 404.379 185.14L409.224 180.294C409.498 180.02 409.821 179.882 410.193 179.882H417.945C418.317 179.882 418.64 180.02 418.915 180.294L423.76 185.14C424.034 185.398 424.172 185.721 424.172 186.109V196.042H411.162L410.992 199.264L414.433 200.402L420.61 200.838C420.885 200.887 421.022 201.073 421.022 201.396V205.926C421.022 206.33 420.82 206.532 420.417 206.532H414.99ZM414.021 192.238H414.481C415.272 192.238 415.902 191.939 416.371 191.342C416.855 190.744 417.098 189.936 417.098 188.919V188.434C417.098 187.433 416.855 186.634 416.371 186.036C415.902 185.438 415.272 185.14 414.481 185.14H413.997C413.221 185.14 412.599 185.438 412.131 186.036C411.679 186.634 411.453 187.433 411.453 188.434V188.919C411.453 189.936 411.679 190.744 412.131 191.342C412.599 191.939 413.229 192.238 414.021 192.238ZM429.069 206.532C428.666 206.532 428.464 206.33 428.464 205.926V202.001C428.464 201.63 428.585 201.388 428.827 201.275L433.769 198.343V195.824L428.827 193.159C428.585 193.013 428.464 192.763 428.464 192.408V184.679C428.464 184.502 428.488 184.356 428.536 184.243C428.601 184.13 428.69 184.033 428.803 183.952L433.963 180.173C434.141 180.044 434.286 179.963 434.399 179.931C434.512 179.898 434.625 179.882 434.738 179.882H440.625C441.029 179.882 441.231 180.084 441.231 180.488V184.292C441.231 184.566 441.207 184.752 441.158 184.849C441.126 184.946 441.045 185.026 440.916 185.091L436.337 187.562V190.373L441.231 192.795C441.506 192.908 441.643 193.151 441.643 193.522V200.96C441.643 201.363 441.506 201.686 441.231 201.929L436.071 206.217C435.812 206.427 435.489 206.532 435.102 206.532H429.069ZM455.041 213.8C454.637 213.8 454.435 213.598 454.435 213.194V180.488C454.435 180.084 454.637 179.882 455.041 179.882H460.056C460.346 179.882 460.629 180.02 460.904 180.294L462.115 181.506L463.326 180.294C463.585 180.02 463.908 179.882 464.295 179.882H468.002C468.374 179.882 468.697 180.02 468.971 180.294L473.816 185.14C474.091 185.398 474.228 185.721 474.228 186.109V200.305C474.228 200.693 474.091 201.016 473.816 201.275L468.971 206.12C468.697 206.394 468.374 206.532 468.002 206.532H464.295C463.908 206.532 463.585 206.394 463.326 206.12L462.115 204.909V213.194C462.115 213.598 461.913 213.8 461.509 213.8H455.041ZM462.115 200.887H465.168C465.701 200.887 466.064 200.782 466.258 200.572C466.452 200.362 466.548 199.991 466.548 199.458V186.957C466.548 186.424 466.452 186.052 466.258 185.842C466.064 185.632 465.701 185.527 465.168 185.527H463.472C462.955 185.527 462.599 185.632 462.406 185.842C462.212 186.052 462.115 186.424 462.115 186.957V200.887ZM480.498 206.532C480.094 206.532 479.892 206.33 479.892 205.926V180.488C479.892 180.084 480.094 179.882 480.498 179.882H486.942C487.346 179.882 487.548 180.084 487.548 180.488V205.926C487.548 206.33 487.346 206.532 486.942 206.532H480.498ZM480.377 177.872C480.054 177.872 479.892 177.71 479.892 177.387V174.31C479.892 173.987 480.054 173.826 480.377 173.826H487.112C487.402 173.826 487.548 173.987 487.548 174.31V177.387C487.548 177.71 487.402 177.872 487.112 177.872H480.377ZM504.042 206.532C503.88 206.532 503.703 206.508 503.509 206.459C503.331 206.411 503.162 206.37 503 206.338L498.688 205.272L493.746 203.625C493.261 203.463 493.019 202.995 493.019 202.219V186.109C493.019 185.721 493.156 185.398 493.431 185.14L498.276 180.294C498.551 180.02 498.874 179.882 499.245 179.882H506.998C507.369 179.882 507.692 180.02 507.967 180.294L512.812 185.14C513.087 185.398 513.224 185.721 513.224 186.109V196.042H500.214L500.045 199.264L503.485 200.402L509.663 200.838C509.937 200.887 510.074 201.073 510.074 201.396V205.926C510.074 206.33 509.873 206.532 509.469 206.532H504.042ZM503.073 192.238H503.533C504.325 192.238 504.954 191.939 505.423 191.342C505.907 190.744 506.15 189.936 506.15 188.919V188.434C506.15 187.433 505.907 186.634 505.423 186.036C504.954 185.438 504.325 185.14 503.533 185.14H503.049C502.273 185.14 501.652 185.438 501.183 186.036C500.731 186.634 500.505 187.433 500.505 188.434V188.919C500.505 189.936 500.731 190.744 501.183 191.342C501.652 191.939 502.281 192.238 503.073 192.238ZM505.81 178.695L499.56 176.079C499.253 175.917 499.164 175.699 499.293 175.425L500.674 172.542C500.82 172.154 501.038 172.049 501.329 172.227L507.046 175.933C507.337 176.127 507.426 176.369 507.313 176.66L506.465 178.477C506.352 178.768 506.134 178.841 505.81 178.695ZM526.141 206.532C525.817 206.532 525.494 206.427 525.171 206.217L521.222 203.552L518.509 199.191C518.396 198.981 518.299 198.844 518.218 198.779C518.138 198.698 518.097 198.537 518.097 198.295V188.119C518.097 187.877 518.13 187.716 518.194 187.635C518.259 187.554 518.364 187.409 518.509 187.199L520.98 183.08L525.171 180.197C525.317 180.1 525.462 180.028 525.608 179.979C525.753 179.915 525.931 179.882 526.141 179.882H530.332C530.736 179.882 530.937 180.084 530.937 180.488V185.018C530.937 185.148 530.921 185.285 530.889 185.43C530.873 185.576 530.8 185.689 530.671 185.769L527.909 187.15L525.777 189.936V196.405L528.03 198.973L530.671 200.645C530.832 200.742 530.913 200.863 530.913 201.008C530.929 201.137 530.937 201.266 530.937 201.396V205.926C530.937 206.33 530.736 206.532 530.332 206.532H526.141ZM546.628 206.532C546.466 206.532 546.289 206.508 546.095 206.459C545.917 206.411 545.748 206.37 545.586 206.338L541.274 205.272L536.332 203.625C535.847 203.463 535.605 202.995 535.605 202.219V186.109C535.605 185.721 535.742 185.398 536.017 185.14L540.862 180.294C541.137 180.02 541.46 179.882 541.831 179.882H549.584C549.955 179.882 550.278 180.02 550.553 180.294L555.398 185.14C555.673 185.398 555.81 185.721 555.81 186.109V196.042H542.8L542.631 199.264L546.071 200.402L552.249 200.838C552.523 200.887 552.66 201.073 552.66 201.396V205.926C552.66 206.33 552.459 206.532 552.055 206.532H546.628ZM545.659 192.238H546.119C546.911 192.238 547.541 191.939 548.009 191.342C548.493 190.744 548.736 189.936 548.736 188.919V188.434C548.736 187.433 548.493 186.634 548.009 186.036C547.541 185.438 546.911 185.14 546.119 185.14H545.635C544.859 185.14 544.238 185.438 543.769 186.036C543.317 186.634 543.091 187.433 543.091 188.434V188.919C543.091 189.936 543.317 190.744 543.769 191.342C544.238 191.939 544.868 192.238 545.659 192.238ZM560.707 206.532C560.304 206.532 560.102 206.33 560.102 205.926V202.001C560.102 201.63 560.223 201.388 560.465 201.275L565.407 198.343V195.824L560.465 193.159C560.223 193.013 560.102 192.763 560.102 192.408V184.679C560.102 184.502 560.126 184.356 560.175 184.243C560.239 184.13 560.328 184.033 560.441 183.952L565.601 180.173C565.779 180.044 565.924 179.963 566.037 179.931C566.15 179.898 566.263 179.882 566.377 179.882H572.264C572.667 179.882 572.869 180.084 572.869 180.488V184.292C572.869 184.566 572.845 184.752 572.797 184.849C572.764 184.946 572.684 185.026 572.554 185.091L567.976 187.562V190.373L572.869 192.795C573.144 192.908 573.281 193.151 573.281 193.522V200.96C573.281 201.363 573.144 201.686 572.869 201.929L567.709 206.217C567.451 206.427 567.128 206.532 566.74 206.532H560.707ZM593.947 206.532C593.624 206.532 593.301 206.427 592.978 206.217L589.029 203.552L586.316 199.191C586.202 198.981 586.106 198.844 586.025 198.779C585.944 198.698 585.904 198.537 585.904 198.295V188.119C585.904 187.877 585.936 187.716 586.001 187.635C586.065 187.554 586.17 187.409 586.316 187.199L588.787 183.08L592.978 180.197C593.123 180.1 593.269 180.028 593.414 179.979C593.559 179.915 593.737 179.882 593.947 179.882H598.138C598.542 179.882 598.744 180.084 598.744 180.488V185.018C598.744 185.148 598.728 185.285 598.695 185.43C598.679 185.576 598.607 185.689 598.477 185.769L595.715 187.15L593.584 189.936V196.405L595.837 198.973L598.477 200.645C598.639 200.742 598.72 200.863 598.72 201.008C598.736 201.137 598.744 201.266 598.744 201.396V205.926C598.744 206.33 598.542 206.532 598.138 206.532H593.947ZM609.638 206.532C609.266 206.532 608.943 206.394 608.668 206.12L603.823 201.275C603.549 201.016 603.411 200.693 603.411 200.305V186.109C603.411 185.721 603.549 185.398 603.823 185.14L608.668 180.294C608.943 180.02 609.266 179.882 609.638 179.882H616.978C617.366 179.882 617.689 180.02 617.947 180.294L622.793 185.14C623.067 185.398 623.204 185.721 623.204 186.109V200.305C623.204 200.693 623.067 201.016 622.793 201.275L617.947 206.12C617.689 206.394 617.366 206.532 616.978 206.532H609.638ZM612.472 200.887H614.168C614.685 200.887 615.04 200.782 615.234 200.572C615.428 200.362 615.525 199.991 615.525 199.458V186.957C615.525 186.424 615.428 186.052 615.234 185.842C615.04 185.632 614.685 185.527 614.168 185.527H612.472C611.939 185.527 611.576 185.632 611.382 185.842C611.188 186.052 611.091 186.424 611.091 186.957V199.458C611.091 199.991 611.188 200.362 611.382 200.572C611.576 200.782 611.939 200.887 612.472 200.887ZM629.454 206.532C629.05 206.532 628.849 206.33 628.849 205.926V180.488C628.849 180.084 629.05 179.882 629.454 179.882H633.137C633.444 179.882 633.71 180.02 633.936 180.294L636.31 183.032L638.951 180.173C639.129 179.979 639.355 179.882 639.629 179.882H642.246C642.65 179.882 642.852 180.084 642.852 180.488V185.697C642.852 185.955 642.835 186.133 642.803 186.23C642.771 186.31 642.682 186.399 642.537 186.496L636.528 190.93V205.926C636.528 206.33 636.327 206.532 635.923 206.532H629.454ZM646.347 206.532C645.943 206.532 645.741 206.33 645.741 205.926V180.488C645.741 180.084 645.943 179.882 646.347 179.882H650.029C650.336 179.882 650.603 180.02 650.829 180.294L653.203 183.032L655.844 180.173C656.021 179.979 656.247 179.882 656.522 179.882H659.138C659.542 179.882 659.744 180.084 659.744 180.488V185.697C659.744 185.955 659.728 186.133 659.696 186.23C659.663 186.31 659.574 186.399 659.429 186.496L653.421 190.93V205.926C653.421 206.33 653.219 206.532 652.815 206.532H646.347ZM673.487 206.532C673.326 206.532 673.148 206.508 672.954 206.459C672.776 206.411 672.607 206.37 672.445 206.338L668.133 205.272L663.191 203.625C662.706 203.463 662.464 202.995 662.464 202.219V186.109C662.464 185.721 662.601 185.398 662.876 185.14L667.721 180.294C667.996 180.02 668.319 179.882 668.69 179.882H676.443C676.814 179.882 677.137 180.02 677.412 180.294L682.257 185.14C682.532 185.398 682.669 185.721 682.669 186.109V196.042H669.659L669.49 199.264L672.93 200.402L679.108 200.838C679.382 200.887 679.52 201.073 679.52 201.396V205.926C679.52 206.33 679.318 206.532 678.914 206.532H673.487ZM672.518 192.238H672.978C673.77 192.238 674.4 191.939 674.868 191.342C675.353 190.744 675.595 189.936 675.595 188.919V188.434C675.595 187.433 675.353 186.634 674.868 186.036C674.4 185.438 673.77 185.14 672.978 185.14H672.494C671.719 185.14 671.097 185.438 670.628 186.036C670.176 186.634 669.95 187.433 669.95 188.434V188.919C669.95 189.936 670.176 190.744 670.628 191.342C671.097 191.939 671.727 192.238 672.518 192.238ZM687.567 206.532C687.163 206.532 686.961 206.33 686.961 205.926V202.001C686.961 201.63 687.082 201.388 687.324 201.275L692.267 198.343V195.824L687.324 193.159C687.082 193.013 686.961 192.763 686.961 192.408V184.679C686.961 184.502 686.985 184.356 687.034 184.243C687.098 184.13 687.187 184.033 687.3 183.952L692.46 180.173C692.638 180.044 692.783 179.963 692.896 179.931C693.01 179.898 693.123 179.882 693.236 179.882H699.123C699.526 179.882 699.728 180.084 699.728 180.488V184.292C699.728 184.566 699.704 184.752 699.656 184.849C699.623 184.946 699.543 185.026 699.413 185.091L694.835 187.562V190.373L699.728 192.795C700.003 192.908 700.14 193.151 700.14 193.522V200.96C700.14 201.363 700.003 201.686 699.728 201.929L694.568 206.217C694.31 206.427 693.987 206.532 693.599 206.532H687.567ZM705.825 213.8C705.421 213.8 705.22 213.598 705.22 213.194V180.488C705.22 180.084 705.421 179.882 705.825 179.882H710.84C711.131 179.882 711.413 180.02 711.688 180.294L712.899 181.506L714.111 180.294C714.369 180.02 714.692 179.882 715.08 179.882H718.786C719.158 179.882 719.481 180.02 719.756 180.294L724.601 185.14C724.875 185.398 725.013 185.721 725.013 186.109V200.305C725.013 200.693 724.875 201.016 724.601 201.275L719.756 206.12C719.481 206.394 719.158 206.532 718.786 206.532H715.08C714.692 206.532 714.369 206.394 714.111 206.12L712.899 204.909V213.194C712.899 213.598 712.698 213.8 712.294 213.8H705.825ZM712.899 200.887H715.952C716.485 200.887 716.848 200.782 717.042 200.572C717.236 200.362 717.333 199.991 717.333 199.458V186.957C717.333 186.424 717.236 186.052 717.042 185.842C716.848 185.632 716.485 185.527 715.952 185.527H714.256C713.739 185.527 713.384 185.632 713.19 185.842C712.996 186.052 712.899 186.424 712.899 186.957V200.887ZM736.733 206.532C736.362 206.532 736.039 206.394 735.764 206.12L730.919 201.275C730.644 201.016 730.507 200.693 730.507 200.305V186.109C730.507 185.721 730.644 185.398 730.919 185.14L735.764 180.294C736.039 180.02 736.362 179.882 736.733 179.882H744.074C744.461 179.882 744.785 180.02 745.043 180.294L749.888 185.14C750.163 185.398 750.3 185.721 750.3 186.109V200.305C750.3 200.693 750.163 201.016 749.888 201.275L745.043 206.12C744.785 206.394 744.461 206.532 744.074 206.532H736.733ZM739.568 200.887H741.264C741.78 200.887 742.136 200.782 742.33 200.572C742.523 200.362 742.62 199.991 742.62 199.458V186.957C742.62 186.424 742.523 186.052 742.33 185.842C742.136 185.632 741.78 185.527 741.264 185.527H739.568C739.035 185.527 738.671 185.632 738.477 185.842C738.284 186.052 738.187 186.424 738.187 186.957V199.458C738.187 199.991 738.284 200.362 738.477 200.572C738.671 200.782 739.035 200.887 739.568 200.887ZM756.55 206.532C756.146 206.532 755.944 206.33 755.944 205.926V180.488C755.944 180.084 756.146 179.882 756.55 179.882H769.511C769.883 179.882 770.206 180.02 770.48 180.294L775.326 185.14C775.6 185.398 775.737 185.721 775.737 186.109V205.926C775.737 206.33 775.536 206.532 775.132 206.532H768.663C768.26 206.532 768.058 206.33 768.058 205.926V187.078C768.058 186.319 767.678 185.939 766.919 185.939H763.624V205.926C763.624 206.33 763.422 206.532 763.018 206.532H756.55ZM787.458 206.532C787.086 206.532 786.763 206.394 786.489 206.12L781.643 201.275C781.369 201.016 781.232 200.693 781.232 200.305V186.109C781.232 185.721 781.369 185.398 781.643 185.14L786.489 180.294C786.763 180.02 787.086 179.882 787.458 179.882H791.165C791.552 179.882 791.875 180.02 792.134 180.294L793.345 181.506V174.843C793.345 174.439 793.547 174.238 793.951 174.238H800.419C800.823 174.238 801.025 174.439 801.025 174.843V205.926C801.025 206.33 800.823 206.532 800.419 206.532H795.38C795.17 206.532 795.009 206.491 794.896 206.411C794.799 206.33 794.686 206.233 794.556 206.12L793.345 204.909L792.134 206.12C791.875 206.394 791.552 206.532 791.165 206.532H787.458ZM790.292 200.887H791.988C792.505 200.887 792.86 200.782 793.054 200.572C793.248 200.362 793.345 199.991 793.345 199.458V185.527H790.292C789.759 185.527 789.396 185.632 789.202 185.842C789.008 186.052 788.912 186.424 788.912 186.957V199.458C788.912 199.991 789.008 200.362 789.202 200.572C789.396 200.782 789.759 200.887 790.292 200.887ZM812.726 206.532C812.354 206.532 812.031 206.394 811.757 206.12L806.911 201.275C806.637 201.016 806.499 200.693 806.499 200.305V186.109C806.499 185.721 806.637 185.398 806.911 185.14L811.757 180.294C812.031 180.02 812.354 179.882 812.726 179.882H825.687C826.091 179.882 826.293 180.084 826.293 180.488V205.926C826.293 206.33 826.091 206.532 825.687 206.532H820.648C820.438 206.532 820.276 206.491 820.163 206.411C820.066 206.33 819.953 206.233 819.824 206.12L818.613 204.909L817.401 206.12C817.143 206.394 816.82 206.532 816.432 206.532H812.726ZM815.56 200.887H817.256C817.773 200.887 818.128 200.782 818.322 200.572C818.516 200.362 818.613 199.991 818.613 199.458V185.527H815.56C815.027 185.527 814.664 185.632 814.47 185.842C814.276 186.052 814.179 186.424 814.179 186.957V199.458C814.179 199.991 814.276 200.362 814.47 200.572C814.664 200.782 815.027 200.887 815.56 200.887ZM832.542 206.532C832.139 206.532 831.937 206.33 831.937 205.926V180.488C831.937 180.084 832.139 179.882 832.542 179.882H845.504C845.875 179.882 846.198 180.02 846.473 180.294L851.318 185.14C851.593 185.398 851.73 185.721 851.73 186.109V205.926C851.73 206.33 851.528 206.532 851.124 206.532H844.656C844.252 206.532 844.05 206.33 844.05 205.926V187.078C844.05 186.319 843.67 185.939 842.911 185.939H839.616V205.926C839.616 206.33 839.415 206.532 839.011 206.532H832.542ZM862.966 206.532C862.594 206.532 862.271 206.394 861.997 206.12L857.951 202.098C857.692 201.824 857.563 201.501 857.563 201.129V185.527H856.546C856.142 185.527 855.94 185.325 855.94 184.922V180.488C855.94 180.084 856.142 179.882 856.546 179.882H857.563V176.854C857.563 176.45 857.765 176.248 858.169 176.248H864.613C865.017 176.248 865.219 176.45 865.219 176.854V179.882H867.569C867.973 179.882 868.175 180.084 868.175 180.488V184.922C868.175 185.325 867.973 185.527 867.569 185.527H865.219V198.464C865.219 198.771 865.316 199.021 865.51 199.215L867.884 201.614C868.045 201.759 868.126 202.001 868.126 202.341V205.926C868.126 206.33 867.924 206.532 867.52 206.532H862.966ZM883.389 206.532C883.227 206.532 883.05 206.508 882.856 206.459C882.678 206.411 882.509 206.37 882.347 206.338L878.035 205.272L873.093 203.625C872.608 203.463 872.366 202.995 872.366 202.219V186.109C872.366 185.721 872.503 185.398 872.778 185.14L877.623 180.294C877.898 180.02 878.221 179.882 878.592 179.882H886.345C886.716 179.882 887.039 180.02 887.314 180.294L892.159 185.14C892.434 185.398 892.571 185.721 892.571 186.109V196.042H879.561L879.391 199.264L882.832 200.402L889.009 200.838C889.284 200.887 889.421 201.073 889.421 201.396V205.926C889.421 206.33 889.219 206.532 888.816 206.532H883.389ZM882.42 192.238H882.88C883.672 192.238 884.301 191.939 884.77 191.342C885.254 190.744 885.497 189.936 885.497 188.919V188.434C885.497 187.433 885.254 186.634 884.77 186.036C884.301 185.438 883.672 185.14 882.88 185.14H882.396C881.62 185.14 880.999 185.438 880.53 186.036C880.078 186.634 879.852 187.433 879.852 188.434V188.919C879.852 189.936 880.078 190.744 880.53 191.342C880.999 191.939 881.628 192.238 882.42 192.238ZM897.468 206.532C897.065 206.532 896.863 206.33 896.863 205.926V202.001C896.863 201.63 896.984 201.388 897.226 201.275L902.168 198.343V195.824L897.226 193.159C896.984 193.013 896.863 192.763 896.863 192.408V184.679C896.863 184.502 896.887 184.356 896.935 184.243C897 184.13 897.089 184.033 897.202 183.952L902.362 180.173C902.54 180.044 902.685 179.963 902.798 179.931C902.911 179.898 903.024 179.882 903.137 179.882H909.025C909.428 179.882 909.63 180.084 909.63 180.488V184.292C909.63 184.566 909.606 184.752 909.558 184.849C909.525 184.946 909.444 185.026 909.315 185.091L904.736 187.562V190.373L909.63 192.795C909.905 192.908 910.042 193.151 910.042 193.522V200.96C910.042 201.363 909.905 201.686 909.63 201.929L904.47 206.217C904.211 206.427 903.888 206.532 903.501 206.532H897.468ZM923.755 194.225C923.399 194.225 923.198 194.031 923.149 193.643L921.865 174.867C921.817 174.447 922.019 174.238 922.471 174.238H931.507C931.96 174.238 932.161 174.447 932.113 174.867L930.829 193.643C930.781 194.031 930.579 194.225 930.223 194.225H923.755ZM923.125 206.338C922.721 206.338 922.519 206.12 922.519 205.684V197.98C922.519 197.544 922.721 197.326 923.125 197.326H930.877C931.281 197.326 931.483 197.544 931.483 197.98V205.684C931.483 206.12 931.281 206.338 930.877 206.338H923.125Z" fill="#1E1E1E"/>
<rect x="121.503" width="278.209" height="88.9178" fill="black"/>
<path d="M181.62 62.9589C181.217 62.9589 181.015 62.757 181.015 62.3532V36.0672C181.015 35.6957 181.152 35.3727 181.426 35.0981L185.448 31.0523C185.723 30.7938 186.046 30.6646 186.417 30.6646H191.965C192.337 30.6646 192.66 30.7938 192.934 31.0523L197.004 35.1466H198.143L202.213 31.0523C202.488 30.7938 202.811 30.6646 203.182 30.6646H208.706C209.093 30.6646 209.416 30.7938 209.675 31.0523L213.721 35.0981C213.995 35.3727 214.133 35.6957 214.133 36.0672V62.3532C214.133 62.757 213.931 62.9589 213.527 62.9589H206.647C206.243 62.9589 206.041 62.757 206.041 62.3532V37.1089H201.607V62.3532C201.607 62.757 201.405 62.9589 201.002 62.9589H194.146C193.742 62.9589 193.54 62.757 193.54 62.3532V37.1089H189.082V62.3532C189.082 62.757 188.88 62.9589 188.476 62.9589H181.62ZM220.563 62.9589C220.159 62.9589 219.957 62.757 219.957 62.3532V31.2703C219.957 30.8665 220.159 30.6646 220.563 30.6646H237.449C237.853 30.6646 238.055 30.8665 238.055 31.2703V36.5033C238.055 36.9071 237.853 37.1089 237.449 37.1089H228.025V43.9893H236.625C237.029 43.9893 237.231 44.1912 237.231 44.595V49.0285C237.231 49.4323 237.029 49.6342 236.625 49.6342H228.025V56.4903H237.449C237.853 56.4903 238.055 56.6922 238.055 57.096V62.3532C238.055 62.757 237.853 62.9589 237.449 62.9589H220.563ZM226.862 29.4775C226.555 29.6229 226.337 29.5502 226.208 29.2595L225.36 27.4425C225.247 27.1518 225.336 26.9095 225.626 26.7157L231.344 23.009C231.634 22.8313 231.853 22.9363 231.998 23.3239L233.379 26.2069C233.508 26.4815 233.419 26.6995 233.112 26.861L226.862 29.4775ZM253.01 62.9589C252.639 62.9589 252.316 62.8539 252.041 62.6439L248.092 59.0341L244.095 53.8254C243.917 53.5993 243.804 53.462 243.756 53.4135C243.707 53.3489 243.683 53.2036 243.683 52.9775V40.6218C243.683 40.3957 243.707 40.2503 243.756 40.1857C243.82 40.1211 243.933 39.9839 244.095 39.7739L247.802 34.977L252.041 30.9796C252.219 30.8342 252.356 30.7454 252.453 30.7131C252.566 30.6808 252.752 30.6646 253.01 30.6646H258.994C259.398 30.6646 259.6 30.8665 259.6 31.2703V35.1466C259.6 35.2758 259.584 35.4131 259.552 35.5584C259.535 35.6876 259.455 35.8007 259.309 35.8976L254.755 39.0229L251.775 42.8507V50.7728L254.803 54.6006L259.309 57.7017C259.439 57.7824 259.519 57.8793 259.552 57.9924C259.584 58.1054 259.6 58.2266 259.6 58.3558V62.3532C259.6 62.757 259.398 62.9589 258.994 62.9589H253.01ZM264.73 62.9589C264.326 62.9589 264.124 62.757 264.124 62.3532V39.895C264.124 39.6851 264.205 39.4428 264.367 39.1682L270.108 31.028C270.286 30.7858 270.544 30.6646 270.884 30.6646H278.903C279.258 30.6646 279.516 30.7858 279.678 31.028L285.444 39.1682C285.605 39.3943 285.686 39.6366 285.686 39.895V62.3532C285.686 62.757 285.484 62.9589 285.081 62.9589H278.224C277.821 62.9589 277.619 62.757 277.619 62.3532V52.0568H272.216V62.3532C272.216 62.757 272.014 62.9589 271.61 62.9589H264.73ZM274.905 46.8481C276.391 46.8481 277.393 46.5251 277.909 45.879C278.442 45.2168 278.709 43.9651 278.709 42.1239C278.709 40.2826 278.442 39.039 277.909 38.393C277.393 37.7308 276.391 37.3997 274.905 37.3997C273.436 37.3997 272.434 37.7308 271.901 38.393C271.384 39.039 271.126 40.2826 271.126 42.1239C271.126 43.9651 271.384 45.2168 271.901 45.879C272.434 46.5251 273.436 46.8481 274.905 46.8481ZM291.965 62.9589C291.562 62.9589 291.36 62.757 291.36 62.3532V31.2703C291.36 30.8665 291.562 30.6646 291.965 30.6646H305.726C306.114 30.6646 306.437 30.7938 306.695 31.0523L311.541 35.8976C311.815 36.1722 311.952 36.4952 311.952 36.8667V62.3532C311.952 62.757 311.751 62.9589 311.347 62.9589H304.491C304.087 62.9589 303.885 62.757 303.885 62.3532V37.1089H299.427V62.3532C299.427 62.757 299.225 62.9589 298.822 62.9589H291.965ZM323.989 62.9589C323.618 62.9589 323.295 62.8216 323.02 62.547L318.175 57.7017C317.9 57.4432 317.763 57.1202 317.763 56.7326V36.8667C317.763 36.4952 317.9 36.1722 318.175 35.8976L323.02 31.0523C323.295 30.7938 323.618 30.6646 323.989 30.6646H333.511C333.898 30.6646 334.221 30.7938 334.48 31.0523L339.325 35.8976C339.599 36.1722 339.737 36.4952 339.737 36.8667V56.7326C339.737 57.1202 339.599 57.4432 339.325 57.7017L334.48 62.547C334.221 62.8216 333.898 62.9589 333.511 62.9589H323.989ZM326.848 56.4903H330.652C331.33 56.4903 331.669 56.0381 331.669 55.1336V38.4899C331.669 37.5693 331.33 37.1089 330.652 37.1089H326.848C326.186 37.1089 325.855 37.5693 325.855 38.4899V55.1336C325.855 56.0381 326.186 56.4903 326.848 56.4903Z" fill="#FFF1E9"/>
</svg>
