<svg width="52" height="60" viewBox="0 0 52 60" fill="none" xmlns="http://www.w3.org/2000/svg">
<g clip-path="url(#clip0_2_35319)">
<path d="M25.0716 59.8589C17.354 59.1642 14.8774 52.7582 11.2411 47.2499C7.9226 42.2227 4.34503 37.3445 1.01813 32.3455C-2.39993 27.2104 3.43955 21.2209 8.87845 24.0854L14.9014 28.7781V5.3508C14.9014 3.2444 17.065 0.905657 19.0631 0.301316C23.0916 -0.916756 26.4449 1.69541 26.8622 5.58901C26.8778 5.73687 26.9857 5.89999 26.9857 5.93519V9.61522C30.3091 8.15424 34.31 10.1679 35.1243 13.5886C38.6119 12.1523 42.6045 13.9418 43.5003 17.5609C47.0419 16.0741 51.0908 17.981 51.916 21.6692L51.9987 48.5876C51.3835 54.475 46.5886 59.0891 40.6268 59.8589C35.6208 59.5268 30.0056 60.3037 25.0716 59.8589ZM35.243 28.3111H31.8334L31.6535 28.1362V14.4652C31.6535 14.403 31.4112 13.9418 31.3465 13.8292C30.5261 12.3788 28.4345 12.272 27.4151 13.598C27.3156 13.7271 26.9857 14.2423 26.9857 14.3479V28.1351L26.8058 28.3099H23.455L23.2751 28.1351V5.3508C23.2751 5.29916 22.9644 4.65258 22.8973 4.55166C22.1837 3.49201 20.639 3.25027 19.574 3.9567C19.3089 4.13273 18.6085 4.95533 18.6085 5.23462V36.2567C18.118 36.0584 17.6503 35.6453 17.2353 35.3191C14.189 32.924 11.2219 30.2896 8.13488 27.9637C7.28696 27.3254 6.80483 26.8008 5.6247 26.9088C4.38341 27.0226 3.55109 28.2606 3.64943 29.42C3.71779 30.2239 5.24452 31.9348 5.78301 32.714C7.19701 34.7617 8.60621 36.8188 9.99502 38.883C12.9477 43.2694 15.7889 48.3518 18.87 52.5341C20.5922 54.8716 23.0028 56.1272 25.9615 56.3584C34.1301 55.7365 46.6773 59.4189 48.3864 48.218L48.4068 22.7558C48.2928 20.7433 45.6783 19.8245 44.2859 21.3113C43.9849 21.6317 43.6155 22.4613 43.6155 22.8767V28.3099H40.2058L40.0259 28.1351V18.4374C40.0259 18.3858 39.7165 17.7404 39.6481 17.6383C38.6479 16.1339 36.1941 16.3721 35.5033 17.9939C35.4541 18.1089 35.2394 18.8423 35.2394 18.9045V28.3099L35.243 28.3111Z" fill="black"/>
<path d="M35.2153 28.3005V18.895C35.2153 18.8316 35.43 18.0982 35.4792 17.9844C36.17 16.3627 38.6238 16.1244 39.624 17.6288C39.6924 17.7309 40.0018 18.3763 40.0018 18.428V28.1256L40.1817 28.3005H43.5914V22.8672C43.5914 22.4518 43.9607 21.6222 44.2618 21.3018C45.6542 19.815 48.2687 20.7327 48.3826 22.7464L48.3622 48.2085C46.6532 59.4094 34.106 55.727 25.9374 56.349C22.9787 56.1178 20.5681 54.8622 18.8458 52.5246C15.7648 48.3423 12.9236 43.26 9.97089 38.8735C8.58208 36.8094 7.17289 34.7522 5.75889 32.7045C5.2204 31.9253 3.69367 30.2144 3.6253 29.4106C3.52696 28.25 4.35929 27.0131 5.60058 26.8993C6.78071 26.7914 7.26403 27.3159 8.11075 27.9543C11.1966 30.2801 14.1649 32.9146 17.2112 35.3096C17.6261 35.6359 18.0939 36.0489 18.5844 36.2473V5.22398C18.5844 4.9447 19.2848 4.12209 19.5498 3.94606C20.6148 3.23963 22.1596 3.48137 22.8731 4.54102C22.9415 4.64194 23.2509 5.28852 23.2509 5.34016V28.1244L23.4308 28.2993H26.7817L26.9616 28.1244V14.3372C26.9616 14.2316 27.2914 13.7165 27.391 13.5874C28.4104 12.2613 30.502 12.367 31.3223 13.8185C31.3859 13.9312 31.6294 14.3924 31.6294 14.4546V28.1256L31.8093 28.3005H35.2189H35.2153Z" fill="#F4E3CF"/>
<path d="M29.9614 36.7388C29.9614 34.5296 31.7523 32.7388 33.9614 32.7388H44.1416V45.4657C44.1416 48.7794 41.4553 51.4657 38.1416 51.4657H29.9614V36.7388Z" fill="#F7EFE8"/>
</g>
<defs>
<clipPath id="clip0_2_35319">
<rect width="52" height="60" fill="white"/>
</clipPath>
</defs>
</svg>
