<svg width="1240" height="279" viewBox="0 0 1240 279" fill="none" xmlns="http://www.w3.org/2000/svg">
<rect x="80.8187" y="40.7006" width="1154.82" height="233.662" fill="#FFF1E9" stroke="black" stroke-width="7.51635"/>
<path d="M203.449 156.107H204.708C207.016 156.107 208.17 154.831 208.17 152.279V122.959H212.785V152.488C212.785 154.482 212.191 156.177 211.002 157.576C209.813 158.975 208.275 159.674 206.386 159.674H203.449V156.107ZM223.663 159.674C221.74 159.674 220.202 159.097 219.048 157.943C217.929 156.789 217.369 155.233 217.369 153.275V139.323C217.369 137.051 217.999 135.267 219.258 133.974C220.516 132.68 222.387 132.033 224.87 132.033C227.352 132.033 229.206 132.68 230.429 133.974C231.688 135.267 232.318 137.051 232.318 139.323V141.736C232.318 143.205 231.898 144.324 231.059 145.093C230.22 145.827 229.118 146.387 227.754 146.771L221.565 148.502V153.642C221.565 154.482 221.81 155.181 222.3 155.74C222.824 156.265 223.489 156.527 224.293 156.527H229.957V159.674H223.663ZM224.765 144.306C225.919 143.992 226.688 143.764 227.073 143.624C227.492 143.45 227.772 143.205 227.912 142.89C228.052 142.575 228.122 142.051 228.122 141.317V138.432C228.122 137.313 227.824 136.491 227.23 135.967C226.671 135.442 225.884 135.18 224.87 135.18C223.891 135.18 223.086 135.46 222.457 136.019C221.863 136.579 221.565 137.383 221.565 138.432V145.198L224.765 144.306ZM251.988 159.674C250.064 159.674 248.543 159.097 247.424 157.943C246.306 156.789 245.746 155.233 245.746 153.275V135.547H242.599V132.4H245.746V124.48L249.942 122.907V132.4H254.138V135.547H249.942V153.642C249.942 154.482 250.169 155.181 250.624 155.74C251.113 156.265 251.76 156.527 252.565 156.527H254.138V159.674H251.988ZM263.769 159.674C261.846 159.674 260.307 159.097 259.154 157.943C258.035 156.789 257.475 155.233 257.475 153.275V139.323C257.475 137.051 258.105 135.267 259.363 133.974C260.622 132.68 262.493 132.033 264.976 132.033C267.458 132.033 269.311 132.68 270.535 133.974C271.794 135.267 272.423 137.051 272.423 139.323V141.736C272.423 143.205 272.004 144.324 271.165 145.093C270.325 145.827 269.224 146.387 267.86 146.771L261.671 148.502V153.642C261.671 154.482 261.916 155.181 262.405 155.74C262.93 156.265 263.594 156.527 264.399 156.527H270.063V159.674H263.769ZM264.871 144.306C266.025 143.992 266.794 143.764 267.178 143.624C267.598 143.45 267.878 143.205 268.018 142.89C268.158 142.575 268.227 142.051 268.227 141.317V138.432C268.227 137.313 267.93 136.491 267.336 135.967C266.776 135.442 265.99 135.18 264.976 135.18C263.996 135.18 263.192 135.46 262.563 136.019C261.968 136.579 261.671 137.383 261.671 138.432V145.198L264.871 144.306ZM284.488 132.4H292.985C294.908 132.4 296.534 133.029 297.863 134.288C299.227 135.547 299.908 137.121 299.908 139.009V153.118C299.908 155.006 299.244 156.58 297.915 157.838C296.587 159.062 294.961 159.674 293.038 159.674H288.684V168.066H284.488V132.4ZM292.146 156.58C293.125 156.58 293.964 156.247 294.663 155.583C295.363 154.919 295.712 154.097 295.712 153.118V139.009C295.712 138.03 295.363 137.208 294.663 136.544C293.964 135.879 293.125 135.547 292.146 135.547H288.684V156.58H292.146ZM304.874 132.4H308.126L308.598 134.341L309.909 133.711C311.028 133.152 311.955 132.732 312.689 132.453C313.458 132.173 314.228 132.033 314.997 132.033V135.127C314.542 135.127 313.93 135.267 313.161 135.547C312.392 135.792 311.028 136.386 309.07 137.33V159.674H304.874V132.4ZM324.678 130.355L322.947 128.781L329.031 123.588L331.706 126.054L324.678 130.355ZM324.363 159.674C322.44 159.674 320.902 159.097 319.748 157.943C318.629 156.789 318.069 155.233 318.069 153.275V139.323C318.069 137.051 318.699 135.267 319.957 133.974C321.216 132.68 323.087 132.033 325.57 132.033C328.052 132.033 329.905 132.68 331.129 133.974C332.388 135.267 333.018 137.051 333.018 139.323V141.736C333.018 143.205 332.598 144.324 331.759 145.093C330.92 145.827 329.818 146.387 328.454 146.771L322.265 148.502V153.642C322.265 154.482 322.51 155.181 323 155.74C323.524 156.265 324.188 156.527 324.993 156.527H330.657V159.674H324.363ZM325.465 144.306C326.619 143.992 327.388 143.764 327.773 143.624C328.192 143.45 328.472 143.205 328.612 142.89C328.752 142.575 328.822 142.051 328.822 141.317V138.432C328.822 137.313 328.524 136.491 327.93 135.967C327.37 135.442 326.584 135.18 325.57 135.18C324.591 135.18 323.786 135.46 323.157 136.019C322.562 136.579 322.265 137.383 322.265 138.432V145.198L325.465 144.306ZM335.621 156.527H340.079C341.583 156.527 342.667 156.125 343.331 155.321C344.03 154.482 344.38 153.398 344.38 152.069C344.38 151.02 344.065 150.128 343.436 149.394C342.806 148.66 341.862 147.803 340.604 146.824C339.52 145.95 338.645 145.198 337.981 144.568C337.352 143.904 336.792 143.1 336.303 142.156C335.848 141.177 335.621 140.058 335.621 138.799C335.621 136.946 336.233 135.425 337.457 134.236C338.715 133.012 340.394 132.4 342.492 132.4H347.055V135.547H343.278C340.796 135.547 339.555 136.718 339.555 139.061C339.555 139.97 339.834 140.757 340.394 141.421C340.953 142.086 341.827 142.873 343.016 143.782C344.1 144.621 344.992 145.39 345.691 146.09C346.391 146.754 346.985 147.611 347.474 148.66C347.964 149.674 348.209 150.88 348.209 152.279C348.209 154.761 347.544 156.614 346.216 157.838C344.922 159.062 343.086 159.674 340.708 159.674H335.621V156.527ZM358.374 159.674C356.451 159.674 354.912 159.097 353.758 157.943C352.639 156.789 352.08 155.233 352.08 153.275V139.323C352.08 137.051 352.709 135.267 353.968 133.974C355.227 132.68 357.098 132.033 359.58 132.033C362.063 132.033 363.916 132.68 365.14 133.974C366.399 135.267 367.028 137.051 367.028 139.323V141.736C367.028 143.205 366.608 144.324 365.769 145.093C364.93 145.827 363.829 146.387 362.465 146.771L356.276 148.502V153.642C356.276 154.482 356.521 155.181 357.01 155.74C357.535 156.265 358.199 156.527 359.003 156.527H364.668V159.674H358.374ZM359.475 144.306C360.629 143.992 361.398 143.764 361.783 143.624C362.203 143.45 362.482 143.205 362.622 142.89C362.762 142.575 362.832 142.051 362.832 141.317V138.432C362.832 137.313 362.535 136.491 361.94 135.967C361.381 135.442 360.594 135.18 359.58 135.18C358.601 135.18 357.797 135.46 357.167 136.019C356.573 136.579 356.276 137.383 356.276 138.432V145.198L359.475 144.306ZM371.205 132.4H374.457L374.929 133.921L377.079 133.292C378.548 132.837 379.702 132.522 380.541 132.348C381.415 132.138 382.237 132.033 383.006 132.033C384.265 132.033 385.191 132.47 385.786 133.344C386.38 134.218 386.678 135.355 386.678 136.753V159.674H382.482V138.117C382.482 137.103 382.412 136.404 382.272 136.019C382.132 135.6 381.782 135.39 381.223 135.39C380.943 135.39 379.002 135.949 375.401 137.068V159.674H371.205V132.4ZM400.118 159.674C398.195 159.674 396.674 159.097 395.555 157.943C394.436 156.789 393.876 155.233 393.876 153.275V135.547H390.729V132.4H393.876V124.48L398.072 122.907V132.4H402.268V135.547H398.072V153.642C398.072 154.482 398.3 155.181 398.754 155.74C399.244 156.265 399.891 156.527 400.695 156.527H402.268V159.674H400.118ZM411.899 159.674C409.976 159.674 408.438 159.097 407.284 157.943C406.165 156.789 405.605 155.233 405.605 153.275V139.323C405.605 137.051 406.235 135.267 407.494 133.974C408.752 132.68 410.623 132.033 413.106 132.033C415.588 132.033 417.442 132.68 418.666 133.974C419.924 135.267 420.554 137.051 420.554 139.323V141.736C420.554 143.205 420.134 144.324 419.295 145.093C418.456 145.827 417.354 146.387 415.991 146.771L409.801 148.502V153.642C409.801 154.482 410.046 155.181 410.536 155.74C411.06 156.265 411.725 156.527 412.529 156.527H418.193V159.674H411.899ZM413.001 144.306C414.155 143.992 414.924 143.764 415.309 143.624C415.728 143.45 416.008 143.205 416.148 142.89C416.288 142.575 416.358 142.051 416.358 141.317V138.432C416.358 137.313 416.06 136.491 415.466 135.967C414.907 135.442 414.12 135.18 413.106 135.18C412.127 135.18 411.323 135.46 410.693 136.019C410.099 136.579 409.801 137.383 409.801 138.432V145.198L413.001 144.306ZM440.224 159.674C438.301 159.674 436.779 159.097 435.661 157.943C434.542 156.789 433.982 155.233 433.982 153.275V135.547H430.835V132.4H433.982V124.48L438.178 122.907V132.4H442.374V135.547H438.178V153.642C438.178 154.482 438.405 155.181 438.86 155.74C439.35 156.265 439.996 156.527 440.801 156.527H442.374V159.674H440.224ZM446.55 132.4H449.802L450.274 134.341L451.586 133.711C452.705 133.152 453.631 132.732 454.366 132.453C455.135 132.173 455.904 132.033 456.673 132.033V135.127C456.219 135.127 455.607 135.267 454.838 135.547C454.068 135.792 452.705 136.386 450.746 137.33V159.674H446.55V132.4ZM467.246 160.041C464.798 160.041 462.893 159.429 461.529 158.205C460.2 156.947 459.536 155.216 459.536 153.013V139.061C459.536 136.858 460.2 135.145 461.529 133.921C462.893 132.662 464.798 132.033 467.246 132.033C469.694 132.033 471.582 132.662 472.911 133.921C474.274 135.145 474.956 136.858 474.956 139.061V153.013C474.956 155.216 474.274 156.947 472.911 158.205C471.582 159.429 469.694 160.041 467.246 160.041ZM467.246 156.789C468.365 156.789 469.239 156.475 469.869 155.845C470.533 155.181 470.865 154.237 470.865 153.013V139.061C470.865 137.837 470.533 136.911 469.869 136.281C469.239 135.617 468.365 135.285 467.246 135.285C466.127 135.285 465.236 135.617 464.571 136.281C463.942 136.911 463.627 137.837 463.627 139.061V153.013C463.627 154.237 463.942 155.181 464.571 155.845C465.236 156.475 466.127 156.789 467.246 156.789ZM480.202 127.942V123.746H484.398V127.942H480.202ZM480.202 159.674V132.4H484.398V159.674H480.202ZM489.129 156.527H493.587C495.091 156.527 496.175 156.125 496.839 155.321C497.539 154.482 497.888 153.398 497.888 152.069C497.888 151.02 497.574 150.128 496.944 149.394C496.315 148.66 495.371 147.803 494.112 146.824C493.028 145.95 492.154 145.198 491.489 144.568C490.86 143.904 490.301 143.1 489.811 142.156C489.357 141.177 489.129 140.058 489.129 138.799C489.129 136.946 489.741 135.425 490.965 134.236C492.224 133.012 493.902 132.4 496 132.4H500.563V135.547H496.787C494.304 135.547 493.063 136.718 493.063 139.061C493.063 139.97 493.343 140.757 493.902 141.421C494.462 142.086 495.336 142.873 496.525 143.782C497.609 144.621 498.5 145.39 499.2 146.09C499.899 146.754 500.493 147.611 500.983 148.66C501.472 149.674 501.717 150.88 501.717 152.279C501.717 154.761 501.053 156.614 499.724 157.838C498.43 159.062 496.595 159.674 494.217 159.674H489.129V156.527ZM520.085 159.674C518.162 159.674 516.623 159.097 515.469 157.943C514.35 156.789 513.791 155.233 513.791 153.275V139.323C513.791 137.121 514.368 135.425 515.522 134.236C516.676 133.012 518.354 132.4 520.557 132.4H526.379V135.547H520.662C519.858 135.547 519.211 135.827 518.721 136.386C518.232 136.911 517.987 137.593 517.987 138.432V153.642C517.987 154.482 518.232 155.181 518.721 155.74C519.246 156.265 519.91 156.527 520.714 156.527H526.379V159.674H520.085ZM530.04 122.959H534.236V133.816L536.544 133.134C537.978 132.715 539.027 132.435 539.691 132.295C540.39 132.12 541.107 132.033 541.841 132.033C543.1 132.033 544.027 132.47 544.621 133.344C545.216 134.218 545.513 135.355 545.513 136.753V159.674H541.317V138.117C541.317 137.103 541.247 136.404 541.107 136.019C540.967 135.6 540.618 135.39 540.058 135.39C539.778 135.39 537.838 135.949 534.236 137.068V159.674H530.04V122.959ZM557.315 159.674C555.392 159.674 553.853 159.097 552.699 157.943C551.58 156.789 551.021 155.233 551.021 153.275V139.323C551.021 137.051 551.65 135.267 552.909 133.974C554.168 132.68 556.039 132.033 558.521 132.033C561.004 132.033 562.857 132.68 564.081 133.974C565.34 135.267 565.969 137.051 565.969 139.323V141.736C565.969 143.205 565.55 144.324 564.71 145.093C563.871 145.827 562.77 146.387 561.406 146.771L555.217 148.502V153.642C555.217 154.482 555.462 155.181 555.951 155.74C556.476 156.265 557.14 156.527 557.944 156.527H563.609V159.674H557.315ZM558.416 144.306C559.57 143.992 560.34 143.764 560.724 143.624C561.144 143.45 561.424 143.205 561.563 142.89C561.703 142.575 561.773 142.051 561.773 141.317V138.432C561.773 137.313 561.476 136.491 560.882 135.967C560.322 135.442 559.535 135.18 558.521 135.18C557.542 135.18 556.738 135.46 556.109 136.019C555.514 136.579 555.217 137.383 555.217 138.432V145.198L558.416 144.306ZM570.146 132.4H573.398L573.87 133.921L576.02 133.292C577.489 132.837 578.643 132.522 579.482 132.348C580.356 132.138 581.178 132.033 581.947 132.033C583.451 132.033 584.5 132.697 585.094 134.026C586.073 133.676 587.455 133.257 589.238 132.767C591.021 132.278 592.332 132.033 593.172 132.033C594.43 132.033 595.357 132.47 595.951 133.344C596.581 134.218 596.896 135.355 596.896 136.753V159.674H592.7V138.117C592.7 137.103 592.63 136.404 592.49 136.019C592.35 135.6 592 135.39 591.441 135.39C591.161 135.39 589.238 135.949 585.671 137.068V159.674H581.475V138.117C581.475 137.103 581.405 136.404 581.265 136.019C581.126 135.6 580.776 135.39 580.216 135.39C579.937 135.39 577.979 135.949 574.342 137.068V159.674H570.146V132.4ZM602.671 127.942V123.746H606.867V127.942H602.671ZM602.671 159.674V132.4H606.867V159.674H602.671ZM613.171 132.4H616.423L616.895 133.921L619.046 133.292C620.514 132.837 621.668 132.522 622.508 132.348C623.382 132.138 624.203 132.033 624.973 132.033C626.231 132.033 627.158 132.47 627.753 133.344C628.347 134.218 628.644 135.355 628.644 136.753V159.674H624.448V138.117C624.448 137.103 624.378 136.404 624.238 136.019C624.098 135.6 623.749 135.39 623.189 135.39C622.91 135.39 620.969 135.949 617.367 137.068V159.674H613.171V132.4ZM632.906 156.527H637.364C638.868 156.527 639.952 156.125 640.616 155.321C641.315 154.482 641.665 153.398 641.665 152.069C641.665 151.02 641.35 150.128 640.721 149.394C640.091 148.66 639.147 147.803 637.888 146.824C636.805 145.95 635.93 145.198 635.266 144.568C634.637 143.904 634.077 143.1 633.588 142.156C633.133 141.177 632.906 140.058 632.906 138.799C632.906 136.946 633.518 135.425 634.741 134.236C636 133.012 637.679 132.4 639.777 132.4H644.34V135.547H640.563C638.081 135.547 636.839 136.718 636.839 139.061C636.839 139.97 637.119 140.757 637.679 141.421C638.238 142.086 639.112 142.873 640.301 143.782C641.385 144.621 642.277 145.39 642.976 146.09C643.675 146.754 644.27 147.611 644.759 148.66C645.249 149.674 645.494 150.88 645.494 152.279C645.494 154.761 644.829 156.614 643.501 157.838C642.207 159.062 640.371 159.674 637.993 159.674H632.906V156.527ZM657.095 137.855V132.453H661.291V137.855H657.095ZM657.095 159.674V154.272H661.291V159.674H657.095ZM674.483 132.4H677.735L678.207 133.921L680.357 133.292C681.826 132.837 682.98 132.522 683.819 132.348C684.693 132.138 685.515 132.033 686.284 132.033C687.787 132.033 688.836 132.697 689.431 134.026C690.41 133.676 691.791 133.257 693.574 132.767C695.358 132.278 696.669 132.033 697.508 132.033C698.767 132.033 699.694 132.47 700.288 133.344C700.917 134.218 701.232 135.355 701.232 136.753V159.674H697.036V138.117C697.036 137.103 696.966 136.404 696.826 136.019C696.686 135.6 696.337 135.39 695.777 135.39C695.498 135.39 693.574 135.949 690.008 137.068V159.674H685.812V138.117C685.812 137.103 685.742 136.404 685.602 136.019C685.462 135.6 685.112 135.39 684.553 135.39C684.273 135.39 682.315 135.949 678.679 137.068V159.674H674.483V132.4ZM713.669 160.041C711.221 160.041 709.316 159.429 707.952 158.205C706.623 156.947 705.959 155.216 705.959 153.013V139.061C705.959 136.858 706.623 135.145 707.952 133.921C709.316 132.662 711.221 132.033 713.669 132.033C716.117 132.033 718.005 132.662 719.333 133.921C720.697 135.145 721.379 136.858 721.379 139.061V153.013C721.379 155.216 720.697 156.947 719.333 158.205C718.005 159.429 716.117 160.041 713.669 160.041ZM713.669 156.789C714.788 156.789 715.662 156.475 716.291 155.845C716.956 155.181 717.288 154.237 717.288 153.013V139.061C717.288 137.837 716.956 136.911 716.291 136.281C715.662 135.617 714.788 135.285 713.669 135.285C712.55 135.285 711.658 135.617 710.994 136.281C710.365 136.911 710.05 137.837 710.05 139.061V153.013C710.05 154.237 710.365 155.181 710.994 155.845C711.658 156.475 712.55 156.789 713.669 156.789ZM726.625 122.959H730.821V131.141L737.85 133.606C739.073 134.026 740.087 134.76 740.892 135.809C741.731 136.823 742.15 138.082 742.15 139.586V153.065C742.15 154.954 741.486 156.527 740.157 157.786C738.829 159.045 737.203 159.674 735.28 159.674H726.625V122.959ZM734.388 156.527C735.367 156.527 736.206 156.195 736.905 155.531C737.605 154.866 737.954 154.044 737.954 153.065V140.425C737.954 139.096 737.762 138.135 737.378 137.54C737.028 136.911 736.398 136.456 735.489 136.176L730.821 134.603V156.527H734.388ZM747.114 127.942V123.746H751.31V127.942H747.114ZM747.114 159.674V132.4H751.31V159.674H747.114ZM757.666 159.674V122.959H761.862V159.674H757.666ZM768.114 127.942V123.746H772.31V127.942H768.114ZM768.114 159.674V132.4H772.31V159.674H768.114ZM777.041 156.527H781.499C783.003 156.527 784.087 156.125 784.751 155.321C785.45 154.482 785.8 153.398 785.8 152.069C785.8 151.02 785.485 150.128 784.856 149.394C784.226 148.66 783.282 147.803 782.024 146.824C780.94 145.95 780.065 145.198 779.401 144.568C778.772 143.904 778.212 143.1 777.723 142.156C777.268 141.177 777.041 140.058 777.041 138.799C777.041 136.946 777.653 135.425 778.877 134.236C780.135 133.012 781.814 132.4 783.912 132.4H788.475V135.547H784.698C782.216 135.547 780.975 136.718 780.975 139.061C780.975 139.97 781.254 140.757 781.814 141.421C782.373 142.086 783.247 142.873 784.436 143.782C785.52 144.621 786.412 145.39 787.111 146.09C787.811 146.754 788.405 147.611 788.894 148.66C789.384 149.674 789.629 150.88 789.629 152.279C789.629 154.761 788.964 156.614 787.636 157.838C786.342 159.062 784.506 159.674 782.128 159.674H777.041V156.527ZM799.899 159.674C798.64 159.674 797.469 159.359 796.385 158.73C795.336 158.101 794.496 157.244 793.867 156.16C793.273 155.076 792.975 153.852 792.975 152.488V149.761C792.975 148.118 793.377 146.736 794.182 145.617C795.021 144.499 796.052 143.712 797.276 143.257L803.78 140.845V138.379C803.78 137.54 803.518 136.858 802.993 136.334C802.504 135.774 801.857 135.495 801.053 135.495H795.126V132.4H801.42C803.343 132.4 804.864 132.977 805.983 134.131C807.137 135.25 807.714 136.788 807.714 138.747V159.674H799.899ZM803.78 156.475V144.149L799.164 145.88C798.255 146.229 797.608 146.701 797.224 147.296C796.874 147.89 796.699 148.834 796.699 150.128V153.065C796.699 154.009 797.049 154.814 797.748 155.478C798.448 156.142 799.287 156.475 800.266 156.475H803.78ZM821.101 159.674C819.178 159.674 817.657 159.097 816.538 157.943C815.419 156.789 814.859 155.233 814.859 153.275V135.547H811.712V132.4H814.859V124.48L819.055 122.907V132.4H823.251V135.547H819.055V153.642C819.055 154.482 819.283 155.181 819.737 155.74C820.227 156.265 820.874 156.527 821.678 156.527H823.251V159.674H821.101ZM827.428 127.942V123.746H831.624V127.942H827.428ZM827.428 159.674V132.4H831.624V159.674H827.428ZM844.589 160.041C842.141 160.041 840.236 159.429 838.872 158.205C837.543 156.947 836.879 155.216 836.879 153.013V139.061C836.879 136.858 837.543 135.145 838.872 133.921C840.236 132.662 842.141 132.033 844.589 132.033C847.037 132.033 848.925 132.662 850.254 133.921C851.617 135.145 852.299 136.858 852.299 139.061V153.013C852.299 155.216 851.617 156.947 850.254 158.205C848.925 159.429 847.037 160.041 844.589 160.041ZM844.589 156.789C845.708 156.789 846.582 156.475 847.212 155.845C847.876 155.181 848.208 154.237 848.208 153.013V139.061C848.208 137.837 847.876 136.911 847.212 136.281C846.582 135.617 845.708 135.285 844.589 135.285C843.47 135.285 842.578 135.617 841.914 136.281C841.285 136.911 840.97 137.837 840.97 139.061V153.013C840.97 154.237 841.285 155.181 841.914 155.845C842.578 156.475 843.47 156.789 844.589 156.789ZM857.545 132.4H860.797L861.269 133.921L863.42 133.292C864.888 132.837 866.042 132.522 866.881 132.348C867.756 132.138 868.577 132.033 869.347 132.033C870.605 132.033 871.532 132.47 872.126 133.344C872.721 134.218 873.018 135.355 873.018 136.753V159.674H868.822V138.117C868.822 137.103 868.752 136.404 868.612 136.019C868.472 135.6 868.123 135.39 867.563 135.39C867.284 135.39 865.343 135.949 861.741 137.068V159.674H857.545V132.4ZM875.654 166.125L877.909 159.674V154.272H882.105V159.622L878.906 166.125H875.654ZM211.422 216.674C209.498 216.674 207.96 216.097 206.806 214.943C205.687 213.789 205.128 212.233 205.128 210.275V196.323C205.128 194.051 205.757 192.267 207.016 190.974C208.275 189.68 210.145 189.033 212.628 189.033C215.111 189.033 216.964 189.68 218.188 190.974C219.446 192.267 220.076 194.051 220.076 196.323V198.736C220.076 200.205 219.656 201.324 218.817 202.093C217.978 202.827 216.876 203.387 215.513 203.771L209.324 205.502V210.642C209.324 211.482 209.568 212.181 210.058 212.74C210.582 213.265 211.247 213.527 212.051 213.527H217.716V216.674H211.422ZM212.523 201.306C213.677 200.992 214.446 200.764 214.831 200.624C215.25 200.45 215.53 200.205 215.67 199.89C215.81 199.575 215.88 199.051 215.88 198.317V195.432C215.88 194.313 215.583 193.491 214.988 192.967C214.429 192.442 213.642 192.18 212.628 192.18C211.649 192.18 210.845 192.46 210.215 193.019C209.621 193.579 209.324 194.383 209.324 195.432V202.198L212.523 201.306ZM221.63 216.674L229.183 202.985L222.155 189.4H226.193L231.124 199.051L236.106 189.4H240.145L233.117 202.985L240.669 216.674H236.264L231.124 206.709L226.036 216.674H221.63ZM244.075 189.4H252.572C254.495 189.4 256.121 190.029 257.45 191.288C258.813 192.547 259.495 194.121 259.495 196.009V210.118C259.495 212.006 258.831 213.58 257.502 214.838C256.173 216.062 254.548 216.674 252.624 216.674H248.271V225.066H244.075V189.4ZM251.733 213.58C252.712 213.58 253.551 213.247 254.25 212.583C254.95 211.919 255.299 211.097 255.299 210.118V196.009C255.299 195.03 254.95 194.208 254.25 193.544C253.551 192.879 252.712 192.547 251.733 192.547H248.271V213.58H251.733ZM270.23 187.355L268.5 185.781L274.584 180.588L277.259 183.054L270.23 187.355ZM269.916 216.674C267.992 216.674 266.454 216.097 265.3 214.943C264.181 213.789 263.622 212.233 263.622 210.275V196.323C263.622 194.051 264.251 192.267 265.51 190.974C266.769 189.68 268.639 189.033 271.122 189.033C273.605 189.033 275.458 189.68 276.682 190.974C277.941 192.267 278.57 194.051 278.57 196.323V198.736C278.57 200.205 278.15 201.324 277.311 202.093C276.472 202.827 275.37 203.387 274.007 203.771L267.818 205.502V210.642C267.818 211.482 268.062 212.181 268.552 212.74C269.076 213.265 269.741 213.527 270.545 213.527H276.21V216.674H269.916ZM271.017 201.306C272.171 200.992 272.94 200.764 273.325 200.624C273.745 200.45 274.024 200.205 274.164 199.89C274.304 199.575 274.374 199.051 274.374 198.317V195.432C274.374 194.313 274.077 193.491 273.482 192.967C272.923 192.442 272.136 192.18 271.122 192.18C270.143 192.18 269.339 192.46 268.709 193.019C268.115 193.579 267.818 194.383 267.818 195.432V202.198L271.017 201.306ZM282.747 189.4H285.999L286.471 191.341L287.782 190.711C288.901 190.152 289.827 189.732 290.562 189.453C291.331 189.173 292.1 189.033 292.87 189.033V192.127C292.415 192.127 291.803 192.267 291.034 192.547C290.264 192.792 288.901 193.386 286.943 194.33V216.674H282.747V189.4ZM296.781 184.942V180.746H300.977V184.942H296.781ZM296.781 216.674V189.4H300.977V216.674H296.781ZM307.281 189.4H310.533L311.005 190.921L313.156 190.292C314.624 189.837 315.778 189.522 316.617 189.348C317.492 189.138 318.313 189.033 319.083 189.033C320.586 189.033 321.635 189.697 322.23 191.026C323.209 190.676 324.59 190.257 326.373 189.767C328.156 189.278 329.468 189.033 330.307 189.033C331.566 189.033 332.492 189.47 333.087 190.344C333.716 191.218 334.031 192.355 334.031 193.753V216.674H329.835V195.117C329.835 194.103 329.765 193.404 329.625 193.019C329.485 192.6 329.136 192.39 328.576 192.39C328.296 192.39 326.373 192.949 322.807 194.068V216.674H318.611V195.117C318.611 194.103 318.541 193.404 318.401 193.019C318.261 192.6 317.911 192.39 317.352 192.39C317.072 192.39 315.114 192.949 311.477 194.068V216.674H307.281V189.4ZM345.261 216.674C343.338 216.674 341.8 216.097 340.646 214.943C339.527 213.789 338.967 212.233 338.967 210.275V196.323C338.967 194.051 339.597 192.267 340.856 190.974C342.114 189.68 343.985 189.033 346.468 189.033C348.95 189.033 350.804 189.68 352.027 190.974C353.286 192.267 353.916 194.051 353.916 196.323V198.736C353.916 200.205 353.496 201.324 352.657 202.093C351.818 202.827 350.716 203.387 349.352 203.771L343.163 205.502V210.642C343.163 211.482 343.408 212.181 343.898 212.74C344.422 213.265 345.086 213.527 345.891 213.527H351.555V216.674H345.261ZM346.363 201.306C347.517 200.992 348.286 200.764 348.671 200.624C349.09 200.45 349.37 200.205 349.51 199.89C349.65 199.575 349.72 199.051 349.72 198.317V195.432C349.72 194.313 349.422 193.491 348.828 192.967C348.268 192.442 347.482 192.18 346.468 192.18C345.489 192.18 344.684 192.46 344.055 193.019C343.461 193.579 343.163 194.383 343.163 195.432V202.198L346.363 201.306ZM358.092 189.4H361.344L361.816 190.921L363.967 190.292C365.435 189.837 366.589 189.522 367.428 189.348C368.303 189.138 369.124 189.033 369.894 189.033C371.152 189.033 372.079 189.47 372.673 190.344C373.268 191.218 373.565 192.355 373.565 193.753V216.674H369.369V195.117C369.369 194.103 369.299 193.404 369.159 193.019C369.019 192.6 368.67 192.39 368.11 192.39C367.831 192.39 365.89 192.949 362.288 194.068V216.674H358.092V189.4ZM387.005 216.674C385.082 216.674 383.561 216.097 382.442 214.943C381.323 213.789 380.764 212.233 380.764 210.275V192.547H377.617V189.4H380.764V181.48L384.96 179.907V189.4H389.156V192.547H384.96V210.642C384.96 211.482 385.187 212.181 385.642 212.74C386.131 213.265 386.778 213.527 387.582 213.527H389.156V216.674H387.005ZM398.892 216.674C397.633 216.674 396.462 216.359 395.378 215.73C394.329 215.101 393.49 214.244 392.86 213.16C392.266 212.076 391.968 210.852 391.968 209.488V206.761C391.968 205.118 392.371 203.736 393.175 202.617C394.014 201.499 395.046 200.712 396.269 200.257L402.773 197.845V195.379C402.773 194.54 402.511 193.858 401.986 193.334C401.497 192.774 400.85 192.495 400.046 192.495H394.119V189.4H400.413C402.336 189.4 403.857 189.977 404.976 191.131C406.13 192.25 406.707 193.788 406.707 195.747V216.674H398.892ZM402.773 213.475V201.149L398.158 202.88C397.248 203.229 396.602 203.701 396.217 204.296C395.867 204.89 395.692 205.834 395.692 207.128V210.065C395.692 211.009 396.042 211.814 396.741 212.478C397.441 213.142 398.28 213.475 399.259 213.475H402.773ZM420.094 216.674C418.171 216.674 416.65 216.097 415.531 214.943C414.412 213.789 413.852 212.233 413.852 210.275V192.547H410.705V189.4H413.852V181.48L418.048 179.907V189.4H422.244V192.547H418.048V210.642C418.048 211.482 418.276 212.181 418.73 212.74C419.22 213.265 419.867 213.527 420.671 213.527H422.244V216.674H420.094ZM426.421 184.942V180.746H430.617V184.942H426.421ZM426.421 216.674V189.4H430.617V216.674H426.421ZM443.582 217.041C441.134 217.041 439.229 216.429 437.865 215.205C436.536 213.947 435.872 212.216 435.872 210.013V196.061C435.872 193.858 436.536 192.145 437.865 190.921C439.229 189.662 441.134 189.033 443.582 189.033C446.03 189.033 447.918 189.662 449.247 190.921C450.61 192.145 451.292 193.858 451.292 196.061V210.013C451.292 212.216 450.61 213.947 449.247 215.205C447.918 216.429 446.03 217.041 443.582 217.041ZM443.582 213.789C444.701 213.789 445.575 213.475 446.205 212.845C446.869 212.181 447.201 211.237 447.201 210.013V196.061C447.201 194.837 446.869 193.911 446.205 193.281C445.575 192.617 444.701 192.285 443.582 192.285C442.463 192.285 441.572 192.617 440.907 193.281C440.278 193.911 439.963 194.837 439.963 196.061V210.013C439.963 211.237 440.278 212.181 440.907 212.845C441.572 213.475 442.463 213.789 443.582 213.789ZM456.539 189.4H459.79L460.262 190.921L462.413 190.292C463.882 189.837 465.035 189.522 465.875 189.348C466.749 189.138 467.57 189.033 468.34 189.033C469.599 189.033 470.525 189.47 471.12 190.344C471.714 191.218 472.011 192.355 472.011 193.753V216.674H467.815V195.117C467.815 194.103 467.745 193.404 467.605 193.019C467.466 192.6 467.116 192.39 466.556 192.39C466.277 192.39 464.336 192.949 460.735 194.068V216.674H456.539V189.4ZM474.647 223.125L476.902 216.674V211.272H481.098V216.622L477.899 223.125H474.647ZM493.213 184.942V180.746H497.409V184.942H493.213ZM493.213 216.674V189.4H497.409V216.674H493.213ZM503.713 189.4H506.965L507.437 190.921L509.587 190.292C511.056 189.837 512.21 189.522 513.049 189.348C513.923 189.138 514.745 189.033 515.514 189.033C516.773 189.033 517.699 189.47 518.294 190.344C518.888 191.218 519.186 192.355 519.186 193.753V216.674H514.99V195.117C514.99 194.103 514.92 193.404 514.78 193.019C514.64 192.6 514.29 192.39 513.731 192.39C513.451 192.39 511.51 192.949 507.909 194.068V216.674H503.713V189.4ZM532.626 216.674C530.703 216.674 529.182 216.097 528.063 214.943C526.944 213.789 526.384 212.233 526.384 210.275V192.547H523.237V189.4H526.384V181.48L530.58 179.907V189.4H534.776V192.547H530.58V210.642C530.58 211.482 530.808 212.181 531.262 212.74C531.752 213.265 532.399 213.527 533.203 213.527H534.776V216.674H532.626ZM544.722 187.355L542.991 185.781L549.075 180.588L551.75 183.054L544.722 187.355ZM544.407 216.674C542.484 216.674 540.946 216.097 539.792 214.943C538.673 213.789 538.113 212.233 538.113 210.275V196.323C538.113 194.051 538.743 192.267 540.002 190.974C541.26 189.68 543.131 189.033 545.614 189.033C548.096 189.033 549.95 189.68 551.173 190.974C552.432 192.267 553.062 194.051 553.062 196.323V198.736C553.062 200.205 552.642 201.324 551.803 202.093C550.964 202.827 549.862 203.387 548.499 203.771L542.309 205.502V210.642C542.309 211.482 542.554 212.181 543.044 212.74C543.568 213.265 544.233 213.527 545.037 213.527H550.701V216.674H544.407ZM545.509 201.306C546.663 200.992 547.432 200.764 547.817 200.624C548.236 200.45 548.516 200.205 548.656 199.89C548.796 199.575 548.866 199.051 548.866 198.317V195.432C548.866 194.313 548.568 193.491 547.974 192.967C547.415 192.442 546.628 192.18 545.614 192.18C544.635 192.18 543.83 192.46 543.201 193.019C542.607 193.579 542.309 194.383 542.309 195.432V202.198L545.509 201.306ZM559.441 221.919H564.844C565.648 221.919 566.277 221.639 566.732 221.08C567.221 220.555 567.466 219.874 567.466 219.034V216.727H563.113C561.19 216.727 559.564 216.097 558.235 214.838C556.906 213.58 556.242 212.006 556.242 210.118V196.009C556.242 194.121 556.906 192.547 558.235 191.288C559.599 190.029 561.242 189.4 563.165 189.4H571.715V218.667C571.715 220.625 571.173 222.181 570.089 223.335C569.04 224.489 567.554 225.066 565.63 225.066H559.441V221.919ZM567.519 213.58V192.547H564.004C563.025 192.547 562.186 192.879 561.487 193.544C560.788 194.208 560.438 195.03 560.438 196.009V210.118C560.438 211.097 560.788 211.919 561.487 212.583C562.186 213.247 563.025 213.58 564.004 213.58H567.519ZM577.471 189.4H580.722L581.195 191.341L582.506 190.711C583.625 190.152 584.551 189.732 585.286 189.453C586.055 189.173 586.824 189.033 587.593 189.033V192.127C587.139 192.127 586.527 192.267 585.758 192.547C584.988 192.792 583.625 193.386 581.667 194.33V216.674H577.471V189.4ZM597.065 216.674C595.806 216.674 594.635 216.359 593.551 215.73C592.502 215.101 591.662 214.244 591.033 213.16C590.439 212.076 590.141 210.852 590.141 209.488V206.761C590.141 205.118 590.543 203.736 591.348 202.617C592.187 201.499 593.218 200.712 594.442 200.257L600.946 197.845V195.379C600.946 194.54 600.684 193.858 600.159 193.334C599.67 192.774 599.023 192.495 598.219 192.495H592.292V189.4H598.586C600.509 189.4 602.03 189.977 603.149 191.131C604.303 192.25 604.88 193.788 604.88 195.747V216.674H597.065ZM600.946 213.475V201.149L596.33 202.88C595.421 203.229 594.774 203.701 594.39 204.296C594.04 204.89 593.865 205.834 593.865 207.128V210.065C593.865 211.009 594.215 211.814 594.914 212.478C595.614 213.142 596.453 213.475 597.432 213.475H600.946ZM618.267 216.674C616.344 216.674 614.823 216.097 613.704 214.943C612.585 213.789 612.025 212.233 612.025 210.275V192.547H608.878V189.4H612.025V181.48L616.221 179.907V189.4H620.417V192.547H616.221V210.642C616.221 211.482 616.449 212.181 616.903 212.74C617.393 213.265 618.04 213.527 618.844 213.527H620.417V216.674H618.267ZM624.594 184.942V180.746H628.79V184.942H624.594ZM624.594 216.674V189.4H628.79V216.674H624.594ZM641.755 217.041C639.307 217.041 637.402 216.429 636.038 215.205C634.709 213.947 634.045 212.216 634.045 210.013V196.061C634.045 193.858 634.709 192.145 636.038 190.921C637.402 189.662 639.307 189.033 641.755 189.033C644.203 189.033 646.091 189.662 647.42 190.921C648.783 192.145 649.465 193.858 649.465 196.061V210.013C649.465 212.216 648.783 213.947 647.42 215.205C646.091 216.429 644.203 217.041 641.755 217.041ZM641.755 213.789C642.874 213.789 643.748 213.475 644.378 212.845C645.042 212.181 645.374 211.237 645.374 210.013V196.061C645.374 194.837 645.042 193.911 644.378 193.281C643.748 192.617 642.874 192.285 641.755 192.285C640.636 192.285 639.744 192.617 639.08 193.281C638.451 193.911 638.136 194.837 638.136 196.061V210.013C638.136 211.237 638.451 212.181 639.08 212.845C639.744 213.475 640.636 213.789 641.755 213.789ZM654.711 189.4H657.963L658.435 190.921L660.586 190.292C662.054 189.837 663.208 189.522 664.048 189.348C664.922 189.138 665.743 189.033 666.513 189.033C667.771 189.033 668.698 189.47 669.293 190.344C669.887 191.218 670.184 192.355 670.184 193.753V216.674H665.988V195.117C665.988 194.103 665.918 193.404 665.778 193.019C665.639 192.6 665.289 192.39 664.729 192.39C664.45 192.39 662.509 192.949 658.907 194.068V216.674H654.711V189.4ZM675.023 216.674V211.272H679.219V216.674H675.023ZM698.27 216.674V183.421H690.927V179.959H710.228V183.421H702.885V216.674H698.27ZM714.435 189.4H717.687L718.159 191.341L719.47 190.711C720.589 190.152 721.516 189.732 722.25 189.453C723.019 189.173 723.788 189.033 724.558 189.033V192.127C724.103 192.127 723.491 192.267 722.722 192.547C721.953 192.792 720.589 193.386 718.631 194.33V216.674H714.435V189.4ZM735.13 217.041C732.683 217.041 730.777 216.429 729.413 215.205C728.085 213.947 727.42 212.216 727.42 210.013V196.061C727.42 193.858 728.085 192.145 729.413 190.921C730.777 189.662 732.683 189.033 735.13 189.033C737.578 189.033 739.466 189.662 740.795 190.921C742.159 192.145 742.841 193.858 742.841 196.061V210.013C742.841 212.216 742.159 213.947 740.795 215.205C739.466 216.429 737.578 217.041 735.13 217.041ZM735.13 213.789C736.249 213.789 737.123 213.475 737.753 212.845C738.417 212.181 738.749 211.237 738.749 210.013V196.061C738.749 194.837 738.417 193.911 737.753 193.281C737.123 192.617 736.249 192.285 735.13 192.285C734.011 192.285 733.12 192.617 732.455 193.281C731.826 193.911 731.511 194.837 731.511 196.061V210.013C731.511 211.237 731.826 212.181 732.455 212.845C733.12 213.475 734.011 213.789 735.13 213.789ZM748.087 184.942V180.746H752.283V184.942H748.087ZM748.087 216.674V189.4H752.283V216.674H748.087ZM757.014 213.527H761.472C762.975 213.527 764.059 213.125 764.724 212.321C765.423 211.482 765.773 210.398 765.773 209.069C765.773 208.02 765.458 207.128 764.829 206.394C764.199 205.66 763.255 204.803 761.996 203.824C760.912 202.95 760.038 202.198 759.374 201.568C758.744 200.904 758.185 200.1 757.695 199.156C757.241 198.177 757.014 197.058 757.014 195.799C757.014 193.946 757.625 192.425 758.849 191.236C760.108 190.012 761.786 189.4 763.884 189.4H768.448V192.547H764.671C762.189 192.547 760.947 193.718 760.947 196.061C760.947 196.97 761.227 197.757 761.786 198.421C762.346 199.086 763.22 199.873 764.409 200.782C765.493 201.621 766.385 202.39 767.084 203.09C767.783 203.754 768.378 204.611 768.867 205.66C769.357 206.674 769.602 207.88 769.602 209.279C769.602 211.761 768.937 213.614 767.608 214.838C766.315 216.062 764.479 216.674 762.101 216.674H757.014V213.527ZM783.144 184.942V180.746H787.34V184.942H783.144ZM779.315 221.919H780.574C781.378 221.919 782.007 221.639 782.462 221.08C782.952 220.555 783.196 219.874 783.196 219.034V189.4H787.392V218.667C787.392 220.625 786.833 222.181 785.714 223.335C784.595 224.489 783.074 225.066 781.151 225.066H779.315V221.919ZM799.233 216.674C797.974 216.674 796.803 216.359 795.719 215.73C794.67 215.101 793.831 214.244 793.201 213.16C792.607 212.076 792.309 210.852 792.309 209.488V206.761C792.309 205.118 792.712 203.736 793.516 202.617C794.355 201.499 795.387 200.712 796.61 200.257L803.114 197.845V195.379C803.114 194.54 802.852 193.858 802.327 193.334C801.838 192.774 801.191 192.495 800.387 192.495H794.46V189.4H800.754C802.677 189.4 804.198 189.977 805.317 191.131C806.471 192.25 807.048 193.788 807.048 195.747V216.674H799.233ZM803.114 213.475V201.149L798.499 202.88C797.589 203.229 796.943 203.701 796.558 204.296C796.208 204.89 796.033 205.834 796.033 207.128V210.065C796.033 211.009 796.383 211.814 797.082 212.478C797.782 213.142 798.621 213.475 799.6 213.475H803.114ZM812.882 216.674V179.959H817.078V216.674H812.882ZM829.991 217.041C827.543 217.041 825.638 216.429 824.274 215.205C822.945 213.947 822.281 212.216 822.281 210.013V196.061C822.281 193.858 822.945 192.145 824.274 190.921C825.638 189.662 827.543 189.033 829.991 189.033C832.439 189.033 834.327 189.662 835.656 190.921C837.019 192.145 837.701 193.858 837.701 196.061V210.013C837.701 212.216 837.019 213.947 835.656 215.205C834.327 216.429 832.439 217.041 829.991 217.041ZM829.991 213.789C831.11 213.789 831.984 213.475 832.614 212.845C833.278 212.181 833.61 211.237 833.61 210.013V196.061C833.61 194.837 833.278 193.911 832.614 193.281C831.984 192.617 831.11 192.285 829.991 192.285C828.872 192.285 827.981 192.617 827.316 193.281C826.687 193.911 826.372 194.837 826.372 196.061V210.013C826.372 211.237 826.687 212.181 827.316 212.845C827.981 213.475 828.872 213.789 829.991 213.789ZM842.947 189.4H846.199L846.671 190.921L848.822 190.292C850.29 189.837 851.444 189.522 852.284 189.348C853.158 189.138 853.979 189.033 854.749 189.033C856.008 189.033 856.934 189.47 857.529 190.344C858.123 191.218 858.42 192.355 858.42 193.753V216.674H854.224V195.117C854.224 194.103 854.154 193.404 854.014 193.019C853.875 192.6 853.525 192.39 852.965 192.39C852.686 192.39 850.745 192.949 847.143 194.068V216.674H842.947V189.4ZM862.682 213.527H867.14C868.644 213.527 869.728 213.125 870.392 212.321C871.091 211.482 871.441 210.398 871.441 209.069C871.441 208.02 871.126 207.128 870.497 206.394C869.867 205.66 868.923 204.803 867.665 203.824C866.581 202.95 865.706 202.198 865.042 201.568C864.413 200.904 863.853 200.1 863.364 199.156C862.909 198.177 862.682 197.058 862.682 195.799C862.682 193.946 863.294 192.425 864.518 191.236C865.776 190.012 867.455 189.4 869.553 189.4H874.116V192.547H870.34C867.857 192.547 866.616 193.718 866.616 196.061C866.616 196.97 866.895 197.757 867.455 198.421C868.014 199.086 868.888 199.873 870.077 200.782C871.161 201.621 872.053 202.39 872.752 203.09C873.452 203.754 874.046 204.611 874.536 205.66C875.025 206.674 875.27 207.88 875.27 209.279C875.27 211.761 874.605 213.614 873.277 214.838C871.983 216.062 870.147 216.674 867.769 216.674H862.682V213.527ZM876.781 223.125L879.036 216.674V211.272H883.232V216.622L880.033 223.125H876.781ZM902.952 216.674C901.028 216.674 899.507 216.097 898.388 214.943C897.269 213.789 896.71 212.233 896.71 210.275V192.547H893.563V189.4H896.71V181.48L900.906 179.907V189.4H905.102V192.547H900.906V210.642C900.906 211.482 901.133 212.181 901.588 212.74C902.077 213.265 902.724 213.527 903.528 213.527H905.102V216.674H902.952ZM909.278 189.4H912.53L913.002 191.341L914.313 190.711C915.432 190.152 916.359 189.732 917.093 189.453C917.863 189.173 918.632 189.033 919.401 189.033V192.127C918.947 192.127 918.335 192.267 917.565 192.547C916.796 192.792 915.432 193.386 913.474 194.33V216.674H909.278V189.4ZM929.974 217.041C927.526 217.041 925.621 216.429 924.257 215.205C922.928 213.947 922.264 212.216 922.264 210.013V196.061C922.264 193.858 922.928 192.145 924.257 190.921C925.621 189.662 927.526 189.033 929.974 189.033C932.422 189.033 934.31 189.662 935.639 190.921C937.002 192.145 937.684 193.858 937.684 196.061V210.013C937.684 212.216 937.002 213.947 935.639 215.205C934.31 216.429 932.422 217.041 929.974 217.041ZM929.974 213.789C931.093 213.789 931.967 213.475 932.596 212.845C933.261 212.181 933.593 211.237 933.593 210.013V196.061C933.593 194.837 933.261 193.911 932.596 193.281C931.967 192.617 931.093 192.285 929.974 192.285C928.855 192.285 927.963 192.617 927.299 193.281C926.67 193.911 926.355 194.837 926.355 196.061V210.013C926.355 211.237 926.67 212.181 927.299 212.845C927.963 213.475 928.855 213.789 929.974 213.789ZM942.93 184.942V180.746H947.126V184.942H942.93ZM942.93 216.674V189.4H947.126V216.674H942.93ZM951.857 213.527H956.315C957.819 213.527 958.903 213.125 959.567 212.321C960.267 211.482 960.616 210.398 960.616 209.069C960.616 208.02 960.302 207.128 959.672 206.394C959.043 205.66 958.099 204.803 956.84 203.824C955.756 202.95 954.882 202.198 954.217 201.568C953.588 200.904 953.028 200.1 952.539 199.156C952.084 198.177 951.857 197.058 951.857 195.799C951.857 193.946 952.469 192.425 953.693 191.236C954.952 190.012 956.63 189.4 958.728 189.4H963.291V192.547H959.515C957.032 192.547 955.791 193.718 955.791 196.061C955.791 196.97 956.071 197.757 956.63 198.421C957.189 199.086 958.064 199.873 959.253 200.782C960.336 201.621 961.228 202.39 961.927 203.09C962.627 203.754 963.221 204.611 963.711 205.66C964.2 206.674 964.445 207.88 964.445 209.279C964.445 211.761 963.781 213.614 962.452 214.838C961.158 216.062 959.322 216.674 956.945 216.674H951.857V213.527ZM978.355 192.862H975.208V189.4H978.355V186.358C978.355 184.4 978.914 182.844 980.033 181.69C981.152 180.536 982.673 179.959 984.596 179.959H986.904V183.106H985.33C984.526 183.106 983.862 183.386 983.337 183.945C982.813 184.505 982.551 185.187 982.551 185.991V189.4H986.799V192.862H982.551V216.674H978.355V192.862ZM995.767 216.674C994.508 216.674 993.337 216.359 992.253 215.73C991.204 215.101 990.364 214.244 989.735 213.16C989.141 212.076 988.843 210.852 988.843 209.488V206.761C988.843 205.118 989.245 203.736 990.05 202.617C990.889 201.499 991.92 200.712 993.144 200.257L999.648 197.845V195.379C999.648 194.54 999.386 193.858 998.861 193.334C998.372 192.774 997.725 192.495 996.921 192.495H990.994V189.4H997.288C999.211 189.4 1000.73 189.977 1001.85 191.131C1003 192.25 1003.58 193.788 1003.58 195.747V216.674H995.767ZM999.648 213.475V201.149L995.032 202.88C994.123 203.229 993.476 203.701 993.092 204.296C992.742 204.89 992.567 205.834 992.567 207.128V210.065C992.567 211.009 992.917 211.814 993.616 212.478C994.316 213.142 995.155 213.475 996.134 213.475H999.648ZM1017.81 218.352C1019.07 218.352 1020.03 218.58 1020.69 219.034C1021.36 219.489 1021.69 220.311 1021.69 221.499C1021.69 223.877 1020.33 225.066 1017.6 225.066H1011.99V222.601H1016.18C1016.99 222.601 1017.58 222.514 1017.97 222.339C1018.35 222.164 1018.54 221.867 1018.54 221.447C1018.54 220.992 1018.4 220.695 1018.12 220.555C1017.84 220.416 1017.39 220.346 1016.76 220.346H1014.03L1014.92 216.674H1015.13C1013.21 216.674 1011.67 216.097 1010.52 214.943C1009.4 213.789 1008.84 212.233 1008.84 210.275V196.323C1008.84 194.121 1009.42 192.425 1010.57 191.236C1011.72 190.012 1013.4 189.4 1015.61 189.4H1021.43V192.547H1015.71C1014.91 192.547 1014.26 192.827 1013.77 193.386C1013.28 193.911 1013.04 194.593 1013.04 195.432V210.642C1013.04 211.482 1013.28 212.181 1013.77 212.74C1014.29 213.265 1014.96 213.527 1015.76 213.527H1021.43V216.674H1018.18L1017.81 218.352ZM1031.75 217.041C1029.3 217.041 1027.4 216.429 1026.03 215.205C1024.7 213.947 1024.04 212.216 1024.04 210.013V196.061C1024.04 193.858 1024.7 192.145 1026.03 190.921C1027.4 189.662 1029.3 189.033 1031.75 189.033C1034.2 189.033 1036.09 189.662 1037.41 190.921C1038.78 192.145 1039.46 193.858 1039.46 196.061V210.013C1039.46 212.216 1038.78 213.947 1037.41 215.205C1036.09 216.429 1034.2 217.041 1031.75 217.041ZM1031.75 213.789C1032.87 213.789 1033.74 213.475 1034.37 212.845C1035.04 212.181 1035.37 211.237 1035.37 210.013V196.061C1035.37 194.837 1035.04 193.911 1034.37 193.281C1033.74 192.617 1032.87 192.285 1031.75 192.285C1030.63 192.285 1029.74 192.617 1029.07 193.281C1028.45 193.911 1028.13 194.837 1028.13 196.061V210.013C1028.13 211.237 1028.45 212.181 1029.07 212.845C1029.74 213.475 1030.63 213.789 1031.75 213.789ZM1044.71 189.4H1047.96L1048.43 190.921L1050.58 190.292C1052.05 189.837 1053.2 189.522 1054.04 189.348C1054.92 189.138 1055.74 189.033 1056.51 189.033C1057.77 189.033 1058.69 189.47 1059.29 190.344C1059.88 191.218 1060.18 192.355 1060.18 193.753V216.674H1055.98V195.117C1055.98 194.103 1055.91 193.404 1055.77 193.019C1055.63 192.6 1055.28 192.39 1054.72 192.39C1054.44 192.39 1052.5 192.949 1048.9 194.068V216.674H1044.71V189.4ZM1064.44 213.527H1068.9C1070.4 213.527 1071.49 213.125 1072.15 212.321C1072.85 211.482 1073.2 210.398 1073.2 209.069C1073.2 208.02 1072.88 207.128 1072.26 206.394C1071.63 205.66 1070.68 204.803 1069.42 203.824C1068.34 202.95 1067.46 202.198 1066.8 201.568C1066.17 200.904 1065.61 200.1 1065.12 199.156C1064.67 198.177 1064.44 197.058 1064.44 195.799C1064.44 193.946 1065.05 192.425 1066.28 191.236C1067.53 190.012 1069.21 189.4 1071.31 189.4H1075.87V192.547H1072.1C1069.62 192.547 1068.37 193.718 1068.37 196.061C1068.37 196.97 1068.65 197.757 1069.21 198.421C1069.77 199.086 1070.65 199.873 1071.84 200.782C1072.92 201.621 1073.81 202.39 1074.51 203.09C1075.21 203.754 1075.8 204.611 1076.29 205.66C1076.78 206.674 1077.03 207.88 1077.03 209.279C1077.03 211.761 1076.36 213.614 1075.04 214.838C1073.74 216.062 1071.91 216.674 1069.53 216.674H1064.44V213.527ZM1096.55 216.674C1094.35 216.674 1092.56 216.027 1091.2 214.733C1089.84 213.44 1089.15 211.709 1089.15 209.541V196.481C1089.15 194.977 1089.56 193.701 1090.36 192.652C1091.2 191.603 1092.23 190.886 1093.46 190.502L1100.48 188.036V179.959H1104.68V216.674H1096.55ZM1100.48 213.527V191.498L1095.82 193.072C1094.91 193.351 1094.26 193.806 1093.87 194.435C1093.53 195.03 1093.35 195.991 1093.35 197.32V209.541C1093.35 210.8 1093.72 211.779 1094.45 212.478C1095.19 213.177 1096.18 213.527 1097.44 213.527H1100.48ZM1109.25 189.925L1109.67 179.959H1114.13L1113.45 189.925H1109.25ZM1124.02 216.674C1122.76 216.674 1121.59 216.359 1120.51 215.73C1119.46 215.101 1118.62 214.244 1117.99 213.16C1117.4 212.076 1117.1 210.852 1117.1 209.488V206.761C1117.1 205.118 1117.5 203.736 1118.31 202.617C1119.15 201.499 1120.18 200.712 1121.4 200.257L1127.9 197.845V195.379C1127.9 194.54 1127.64 193.858 1127.12 193.334C1126.63 192.774 1125.98 192.495 1125.18 192.495H1119.25V189.4H1125.54C1127.47 189.4 1128.99 189.977 1130.11 191.131C1131.26 192.25 1131.84 193.788 1131.84 195.747V216.674H1124.02ZM1127.9 213.475V201.149L1123.29 202.88C1122.38 203.229 1121.73 203.701 1121.35 204.296C1121 204.89 1120.82 205.834 1120.82 207.128V210.065C1120.82 211.009 1121.17 211.814 1121.87 212.478C1122.57 213.142 1123.41 213.475 1124.39 213.475H1127.9ZM1139.82 221.919H1145.23C1146.03 221.919 1146.66 221.639 1147.11 221.08C1147.6 220.555 1147.85 219.874 1147.85 219.034V216.727H1143.49C1141.57 216.727 1139.95 216.097 1138.62 214.838C1137.29 213.58 1136.62 212.006 1136.62 210.118V196.009C1136.62 194.121 1137.29 192.547 1138.62 191.288C1139.98 190.029 1141.62 189.4 1143.55 189.4H1152.1V218.667C1152.1 220.625 1151.55 222.181 1150.47 223.335C1149.42 224.489 1147.94 225.066 1146.01 225.066H1139.82V221.919ZM1147.9 213.58V192.547H1144.39C1143.41 192.547 1142.57 192.879 1141.87 193.544C1141.17 194.208 1140.82 195.03 1140.82 196.009V210.118C1140.82 211.097 1141.17 211.919 1141.87 212.583C1142.57 213.247 1143.41 213.58 1144.39 213.58H1147.9ZM1157.85 184.942V180.746H1162.05V184.942H1157.85ZM1157.85 216.674V189.4H1162.05V216.674H1157.85ZM1168.35 189.4H1171.6L1172.08 191.341L1173.39 190.711C1174.51 190.152 1175.43 189.732 1176.17 189.453C1176.94 189.173 1177.71 189.033 1178.48 189.033V192.127C1178.02 192.127 1177.41 192.267 1176.64 192.547C1175.87 192.792 1174.51 193.386 1172.55 194.33V216.674H1168.35V189.4ZM1181.39 216.674V211.272H1185.59V216.674H1181.39Z" fill="#1E1E1E"/>
<rect width="448.945" height="88.9178" fill="black"/>
<path d="M160.606 60.9281C160.202 60.9281 160 60.7262 160 60.3224V55.7678C160 55.5578 160.008 55.3883 160.024 55.259C160.057 55.1298 160.154 55.0249 160.315 54.9441L166.663 52.0369V47.7245L160.412 43.8483C160.138 43.6867 160 43.4445 160 43.1215V34.2303C160 33.9718 160.016 33.7861 160.049 33.673C160.081 33.5438 160.202 33.4065 160.412 33.2612L166.784 28.9488C166.945 28.8519 167.091 28.7792 167.22 28.7308C167.365 28.6662 167.543 28.6339 167.753 28.6339H174.294C174.698 28.6339 174.9 28.8358 174.9 29.2395V33.3581C174.9 33.7134 174.779 33.9557 174.536 34.0849L168.189 36.7014V41.1833L174.536 44.8173C174.779 44.9304 174.9 45.1888 174.9 45.5926V56.1312C174.9 56.2604 174.875 56.3977 174.827 56.5431C174.795 56.6884 174.714 56.7934 174.585 56.858L166.978 60.6374C166.881 60.6858 166.759 60.7504 166.614 60.8312C166.485 60.8958 166.356 60.9281 166.226 60.9281H160.606ZM185.436 60.9281C185.033 60.9281 184.831 60.7262 184.831 60.3224V35.0782H180.591C180.187 35.0782 179.985 34.8763 179.985 34.4725V29.2395C179.985 28.8358 180.187 28.6339 180.591 28.6339H197.138C197.542 28.6339 197.744 28.8358 197.744 29.2395V34.4725C197.744 34.8763 197.542 35.0782 197.138 35.0782H192.898V60.3224C192.898 60.7262 192.696 60.9281 192.293 60.9281H185.436ZM204.155 60.9281C203.752 60.9281 203.55 60.7262 203.55 60.3224V29.2395C203.55 28.8358 203.752 28.6339 204.155 28.6339H217.286C217.674 28.6339 217.997 28.7389 218.255 28.9488L223.827 34.4725C224.005 34.634 224.11 34.7713 224.142 34.8844C224.191 34.9974 224.215 35.1832 224.215 35.4416V42.0797C224.215 42.2897 224.134 42.4754 223.973 42.6369L221.308 45.2292L219.055 47.1673L221.72 50.7044L224.457 56.5673C224.522 56.7127 224.57 56.858 224.603 57.0034C224.651 57.1326 224.675 57.2941 224.675 57.4879V60.3224C224.675 60.7262 224.473 60.9281 224.07 60.9281H217.674C217.319 60.9281 217.076 60.7666 216.947 60.4436L213.047 49.1055H211.23V60.3224C211.23 60.7262 211.028 60.9281 210.624 60.9281H204.155ZM213.894 43.1699C215.235 43.1699 216.148 42.8953 216.632 42.3462C217.117 41.7809 217.359 40.7311 217.359 39.1967C217.359 37.6462 217.117 36.5964 216.632 36.0473C216.148 35.482 215.235 35.1993 213.894 35.1993C212.57 35.1993 211.658 35.482 211.157 36.0473C210.656 36.5964 210.406 37.6462 210.406 39.1967C210.406 40.7311 210.656 41.7809 211.157 42.3462C211.658 42.8953 212.57 43.1699 213.894 43.1699ZM228.97 60.9281C228.566 60.9281 228.364 60.7262 228.364 60.3224V37.8643C228.364 37.6543 228.445 37.412 228.606 37.1375L234.348 28.9973C234.526 28.755 234.784 28.6339 235.123 28.6339H243.142C243.498 28.6339 243.756 28.755 243.917 28.9973L249.683 37.1375C249.845 37.3636 249.926 37.6058 249.926 37.8643V60.3224C249.926 60.7262 249.724 60.9281 249.32 60.9281H242.464C242.06 60.9281 241.858 60.7262 241.858 60.3224V50.0261H236.456V60.3224C236.456 60.7262 236.254 60.9281 235.85 60.9281H228.97ZM239.145 44.8173C240.631 44.8173 241.632 44.4943 242.149 43.8483C242.682 43.1861 242.948 41.9343 242.948 40.0931C242.948 38.2519 242.682 37.0082 242.149 36.3622C241.632 35.7 240.631 35.3689 239.145 35.3689C237.675 35.3689 236.674 35.7 236.141 36.3622C235.624 37.0082 235.365 38.2519 235.365 40.0931C235.365 41.9343 235.624 43.1861 236.141 43.8483C236.674 44.4943 237.675 44.8173 239.145 44.8173ZM261.05 60.9281C260.646 60.9281 260.445 60.7262 260.445 60.3224V35.0782H256.205C255.801 35.0782 255.599 34.8763 255.599 34.4725V29.2395C255.599 28.8358 255.801 28.6339 256.205 28.6339H272.752C273.156 28.6339 273.357 28.8358 273.357 29.2395V34.4725C273.357 34.8763 273.156 35.0782 272.752 35.0782H268.512V60.3224C268.512 60.7262 268.31 60.9281 267.906 60.9281H261.05ZM279.769 60.9281C279.365 60.9281 279.164 60.7262 279.164 60.3224V29.2395C279.164 28.8358 279.365 28.6339 279.769 28.6339H296.655C297.059 28.6339 297.261 28.8358 297.261 29.2395V34.4725C297.261 34.8763 297.059 35.0782 296.655 35.0782H287.231V41.9586H295.832C296.235 41.9586 296.437 42.1605 296.437 42.5642V46.9977C296.437 47.4015 296.235 47.6034 295.832 47.6034H287.231V54.4596H296.655C297.059 54.4596 297.261 54.6615 297.261 55.0652V60.3224C297.261 60.7262 297.059 60.9281 296.655 60.9281H279.769ZM291.059 27.4468L284.808 24.8303C284.501 24.6688 284.413 24.4507 284.542 24.1762L285.923 21.2932C286.068 20.9056 286.286 20.8006 286.577 20.9782L292.294 24.6849C292.585 24.8787 292.674 25.121 292.561 25.4117L291.713 27.2287C291.6 27.5194 291.382 27.5921 291.059 27.4468ZM309.285 60.9281C308.898 60.9281 308.575 60.7908 308.316 60.5162L303.471 55.6709C303.196 55.4125 303.059 55.0895 303.059 54.7018V34.8359C303.059 34.4644 303.196 34.1414 303.471 33.8668L308.316 29.0215C308.575 28.7631 308.898 28.6339 309.285 28.6339H323.603C324.007 28.6339 324.209 28.8358 324.209 29.2395V34.4725C324.209 34.8763 324.007 35.0782 323.603 35.0782H311.95C311.724 35.0782 311.53 35.1589 311.369 35.3205C311.207 35.482 311.127 35.6758 311.127 35.9019V53.6116C311.127 53.8377 311.207 54.0316 311.369 54.1931C311.53 54.3546 311.724 54.4353 311.95 54.4353H317.183V47.9668H314.082C313.678 47.9668 313.477 47.7649 313.477 47.3611V42.1524C313.477 41.7486 313.678 41.5467 314.082 41.5467H324.015C324.419 41.5467 324.621 41.7486 324.621 42.1524V54.7018C324.621 55.0895 324.484 55.4125 324.209 55.6709L319.364 60.5162C319.105 60.7908 318.782 60.9281 318.395 60.9281H309.285ZM330.305 60.9281C329.901 60.9281 329.699 60.7262 329.699 60.3224V29.2395C329.699 28.8358 329.901 28.6339 330.305 28.6339H347.191C347.594 28.6339 347.796 28.8358 347.796 29.2395V34.4725C347.796 34.8763 347.594 35.0782 347.191 35.0782H337.766V41.9586H346.367C346.771 41.9586 346.973 42.1605 346.973 42.5642V46.9977C346.973 47.4015 346.771 47.6034 346.367 47.6034H337.766V54.4596H347.191C347.594 54.4596 347.796 54.6615 347.796 55.0652V60.3224C347.796 60.7262 347.594 60.9281 347.191 60.9281H330.305Z" fill="#FFF1E9"/>
</svg>
