<svg width="1240" height="279" viewBox="0 0 1240 279" fill="none" xmlns="http://www.w3.org/2000/svg">
<rect x="80.8187" y="40.7006" width="1154.82" height="233.662" fill="#FFF1E9" stroke="black" stroke-width="7.51635"/>
<path d="M211.689 156.107H212.948C215.256 156.107 216.41 154.831 216.41 152.279V122.959H221.025V152.488C221.025 154.482 220.431 156.177 219.242 157.576C218.053 158.975 216.515 159.674 214.626 159.674H211.689V156.107ZM231.903 159.674C229.98 159.674 228.442 159.097 227.288 157.943C226.169 156.789 225.609 155.233 225.609 153.275V139.323C225.609 137.051 226.239 135.267 227.498 133.974C228.756 132.68 230.627 132.033 233.11 132.033C235.592 132.033 237.446 132.68 238.669 133.974C239.928 135.267 240.558 137.051 240.558 139.323V141.736C240.558 143.205 240.138 144.324 239.299 145.093C238.46 145.827 237.358 146.387 235.995 146.771L229.805 148.502V153.642C229.805 154.482 230.05 155.181 230.54 155.74C231.064 156.265 231.729 156.527 232.533 156.527H238.197V159.674H231.903ZM233.005 144.306C234.159 143.992 234.928 143.764 235.313 143.624C235.732 143.45 236.012 143.205 236.152 142.89C236.292 142.575 236.362 142.051 236.362 141.317V138.432C236.362 137.313 236.064 136.491 235.47 135.967C234.911 135.442 234.124 135.18 233.11 135.18C232.131 135.18 231.326 135.46 230.697 136.019C230.103 136.579 229.805 137.383 229.805 138.432V145.198L233.005 144.306ZM260.228 159.674C258.304 159.674 256.783 159.097 255.664 157.943C254.546 156.789 253.986 155.233 253.986 153.275V135.547H250.839V132.4H253.986V124.48L258.182 122.907V132.4H262.378V135.547H258.182V153.642C258.182 154.482 258.409 155.181 258.864 155.74C259.353 156.265 260 156.527 260.805 156.527H262.378V159.674H260.228ZM272.009 159.674C270.086 159.674 268.548 159.097 267.394 157.943C266.275 156.789 265.715 155.233 265.715 153.275V139.323C265.715 137.051 266.345 135.267 267.603 133.974C268.862 132.68 270.733 132.033 273.216 132.033C275.698 132.033 277.551 132.68 278.775 133.974C280.034 135.267 280.663 137.051 280.663 139.323V141.736C280.663 143.205 280.244 144.324 279.405 145.093C278.565 145.827 277.464 146.387 276.1 146.771L269.911 148.502V153.642C269.911 154.482 270.156 155.181 270.646 155.74C271.17 156.265 271.834 156.527 272.639 156.527H278.303V159.674H272.009ZM273.111 144.306C274.265 143.992 275.034 143.764 275.418 143.624C275.838 143.45 276.118 143.205 276.258 142.89C276.398 142.575 276.467 142.051 276.467 141.317V138.432C276.467 137.313 276.17 136.491 275.576 135.967C275.016 135.442 274.23 135.18 273.216 135.18C272.237 135.18 271.432 135.46 270.803 136.019C270.208 136.579 269.911 137.383 269.911 138.432V145.198L273.111 144.306ZM292.728 132.4H295.98L296.452 133.921L298.603 133.292C300.071 132.837 301.225 132.522 302.064 132.348C302.938 132.138 303.76 132.033 304.529 132.033C306.033 132.033 307.082 132.697 307.676 134.026C308.656 133.676 310.037 133.257 311.82 132.767C313.603 132.278 314.915 132.033 315.754 132.033C317.013 132.033 317.939 132.47 318.534 133.344C319.163 134.218 319.478 135.355 319.478 136.753V159.674H315.282V138.117C315.282 137.103 315.212 136.404 315.072 136.019C314.932 135.6 314.582 135.39 314.023 135.39C313.743 135.39 311.82 135.949 308.253 137.068V159.674H304.057V138.117C304.057 137.103 303.987 136.404 303.848 136.019C303.708 135.6 303.358 135.39 302.799 135.39C302.519 135.39 300.561 135.949 296.924 137.068V159.674H292.728V132.4ZM331.914 160.041C329.467 160.041 327.561 159.429 326.197 158.205C324.869 156.947 324.204 155.216 324.204 153.013V139.061C324.204 136.858 324.869 135.145 326.197 133.921C327.561 132.662 329.467 132.033 331.914 132.033C334.362 132.033 336.25 132.662 337.579 133.921C338.943 135.145 339.625 136.858 339.625 139.061V153.013C339.625 155.216 338.943 156.947 337.579 158.205C336.25 159.429 334.362 160.041 331.914 160.041ZM331.914 156.789C333.033 156.789 333.908 156.475 334.537 155.845C335.201 155.181 335.534 154.237 335.534 153.013V139.061C335.534 137.837 335.201 136.911 334.537 136.281C333.908 135.617 333.033 135.285 331.914 135.285C330.796 135.285 329.904 135.617 329.24 136.281C328.61 136.911 328.295 137.837 328.295 139.061V153.013C328.295 154.237 328.61 155.181 329.24 155.845C329.904 156.475 330.796 156.789 331.914 156.789ZM344.871 132.4H348.123L348.595 133.921L350.745 133.292C352.214 132.837 353.368 132.522 354.207 132.348C355.081 132.138 355.903 132.033 356.672 132.033C357.931 132.033 358.858 132.47 359.452 133.344C360.046 134.218 360.344 135.355 360.344 136.753V159.674H356.148V138.117C356.148 137.103 356.078 136.404 355.938 136.019C355.798 135.6 355.448 135.39 354.889 135.39C354.609 135.39 352.668 135.949 349.067 137.068V159.674H344.871V132.4ZM373.784 159.674C371.861 159.674 370.34 159.097 369.221 157.943C368.102 156.789 367.542 155.233 367.542 153.275V135.547H364.395V132.4H367.542V124.48L371.738 122.907V132.4H375.934V135.547H371.738V153.642C371.738 154.482 371.966 155.181 372.42 155.74C372.91 156.265 373.557 156.527 374.361 156.527H375.934V159.674H373.784ZM380.111 132.4H383.363L383.835 134.341L385.146 133.711C386.265 133.152 387.191 132.732 387.926 132.453C388.695 132.173 389.464 132.033 390.234 132.033V135.127C389.779 135.127 389.167 135.267 388.398 135.547C387.629 135.792 386.265 136.386 384.307 137.33V159.674H380.111V132.4ZM399.6 159.674C397.677 159.674 396.138 159.097 394.984 157.943C393.865 156.789 393.306 155.233 393.306 153.275V139.323C393.306 137.051 393.935 135.267 395.194 133.974C396.453 132.68 398.324 132.033 400.806 132.033C403.289 132.033 405.142 132.68 406.366 133.974C407.625 135.267 408.254 137.051 408.254 139.323V141.736C408.254 143.205 407.835 144.324 406.995 145.093C406.156 145.827 405.055 146.387 403.691 146.771L397.502 148.502V153.642C397.502 154.482 397.747 155.181 398.236 155.74C398.761 156.265 399.425 156.527 400.229 156.527H405.894V159.674H399.6ZM400.701 144.306C401.855 143.992 402.625 143.764 403.009 143.624C403.429 143.45 403.709 143.205 403.848 142.89C403.988 142.575 404.058 142.051 404.058 141.317V138.432C404.058 137.313 403.761 136.491 403.167 135.967C402.607 135.442 401.82 135.18 400.806 135.18C399.827 135.18 399.023 135.46 398.394 136.019C397.799 136.579 397.502 137.383 397.502 138.432V145.198L400.701 144.306ZM427.242 159.674C425.039 159.674 423.256 159.027 421.892 157.733C420.529 156.44 419.847 154.709 419.847 152.541V139.481C419.847 137.977 420.249 136.701 421.053 135.652C421.892 134.603 422.924 133.886 424.148 133.502L431.176 131.036V122.959H435.372V159.674H427.242ZM431.176 156.527V134.498L426.508 136.072C425.599 136.351 424.952 136.806 424.567 137.435C424.218 138.03 424.043 138.991 424.043 140.32V152.541C424.043 153.8 424.41 154.779 425.144 155.478C425.879 156.177 426.875 156.527 428.134 156.527H431.176ZM447.133 159.674C445.21 159.674 443.671 159.097 442.517 157.943C441.398 156.789 440.839 155.233 440.839 153.275V139.323C440.839 137.051 441.468 135.267 442.727 133.974C443.986 132.68 445.857 132.033 448.339 132.033C450.822 132.033 452.675 132.68 453.899 133.974C455.158 135.267 455.787 137.051 455.787 139.323V141.736C455.787 143.205 455.367 144.324 454.528 145.093C453.689 145.827 452.588 146.387 451.224 146.771L445.035 148.502V153.642C445.035 154.482 445.28 155.181 445.769 155.74C446.294 156.265 446.958 156.527 447.762 156.527H453.427V159.674H447.133ZM448.234 144.306C449.388 143.992 450.157 143.764 450.542 143.624C450.962 143.45 451.241 143.205 451.381 142.89C451.521 142.575 451.591 142.051 451.591 141.317V138.432C451.591 137.313 451.294 136.491 450.699 135.967C450.14 135.442 449.353 135.18 448.339 135.18C447.36 135.18 446.556 135.46 445.926 136.019C445.332 136.579 445.035 137.383 445.035 138.432V145.198L448.234 144.306ZM458.39 156.527H462.849C464.352 156.527 465.436 156.125 466.1 155.321C466.8 154.482 467.149 153.398 467.149 152.069C467.149 151.02 466.835 150.128 466.205 149.394C465.576 148.66 464.632 147.803 463.373 146.824C462.289 145.95 461.415 145.198 460.751 144.568C460.121 143.904 459.562 143.1 459.072 142.156C458.618 141.177 458.39 140.058 458.39 138.799C458.39 136.946 459.002 135.425 460.226 134.236C461.485 133.012 463.163 132.4 465.261 132.4H469.824V135.547H466.048C463.565 135.547 462.324 136.718 462.324 139.061C462.324 139.97 462.604 140.757 463.163 141.421C463.723 142.086 464.597 142.873 465.786 143.782C466.87 144.621 467.761 145.39 468.461 146.09C469.16 146.754 469.754 147.611 470.244 148.66C470.734 149.674 470.978 150.88 470.978 152.279C470.978 154.761 470.314 156.614 468.985 157.838C467.691 159.062 465.856 159.674 463.478 159.674H458.39V156.527ZM489.136 159.674C487.877 159.674 486.706 159.359 485.622 158.73C484.573 158.101 483.734 157.244 483.104 156.16C482.51 155.076 482.213 153.852 482.213 152.488V149.761C482.213 148.118 482.615 146.736 483.419 145.617C484.258 144.499 485.29 143.712 486.514 143.257L493.018 140.845V138.379C493.018 137.54 492.755 136.858 492.231 136.334C491.741 135.774 491.094 135.495 490.29 135.495H484.363V132.4H490.657C492.58 132.4 494.102 132.977 495.22 134.131C496.374 135.25 496.951 136.788 496.951 138.747V159.674H489.136ZM493.018 156.475V144.149L488.402 145.88C487.493 146.229 486.846 146.701 486.461 147.296C486.112 147.89 485.937 148.834 485.937 150.128V153.065C485.937 154.009 486.286 154.814 486.986 155.478C487.685 156.142 488.524 156.475 489.503 156.475H493.018ZM508.503 159.674C506.579 159.674 505.041 159.097 503.887 157.943C502.768 156.789 502.209 155.233 502.209 153.275V139.323C502.209 137.121 502.786 135.425 503.939 134.236C505.093 133.012 506.772 132.4 508.975 132.4H514.797V135.547H509.08C508.275 135.547 507.628 135.827 507.139 136.386C506.649 136.911 506.405 137.593 506.405 138.432V153.642C506.405 154.482 506.649 155.181 507.139 155.74C507.663 156.265 508.328 156.527 509.132 156.527H514.797V159.674H508.503ZM526.063 159.674C524.14 159.674 522.619 159.097 521.5 157.943C520.381 156.789 519.822 155.233 519.822 153.275V135.547H516.675V132.4H519.822V124.48L524.018 122.907V132.4H528.214V135.547H524.018V153.642C524.018 154.482 524.245 155.181 524.699 155.74C525.189 156.265 525.836 156.527 526.64 156.527H528.214V159.674H526.063ZM532.39 127.942V123.746H536.586V127.942H532.39ZM532.39 159.674V132.4H536.586V159.674H532.39ZM549.551 160.041C547.104 160.041 545.198 159.429 543.834 158.205C542.506 156.947 541.841 155.216 541.841 153.013V139.061C541.841 136.858 542.506 135.145 543.834 133.921C545.198 132.662 547.104 132.033 549.551 132.033C551.999 132.033 553.887 132.662 555.216 133.921C556.58 135.145 557.261 136.858 557.261 139.061V153.013C557.261 155.216 556.58 156.947 555.216 158.205C553.887 159.429 551.999 160.041 549.551 160.041ZM549.551 156.789C550.67 156.789 551.544 156.475 552.174 155.845C552.838 155.181 553.17 154.237 553.17 153.013V139.061C553.17 137.837 552.838 136.911 552.174 136.281C551.544 135.617 550.67 135.285 549.551 135.285C548.432 135.285 547.541 135.617 546.876 136.281C546.247 136.911 545.932 137.837 545.932 139.061V153.013C545.932 154.237 546.247 155.181 546.876 155.845C547.541 156.475 548.432 156.789 549.551 156.789ZM562.508 132.4H565.76L566.232 133.921L568.382 133.292C569.851 132.837 571.005 132.522 571.844 132.348C572.718 132.138 573.54 132.033 574.309 132.033C575.568 132.033 576.494 132.47 577.089 133.344C577.683 134.218 577.98 135.355 577.98 136.753V159.674H573.784V138.117C573.784 137.103 573.714 136.404 573.575 136.019C573.435 135.6 573.085 135.39 572.526 135.39C572.246 135.39 570.305 135.949 566.704 137.068V159.674H562.508V132.4ZM582.242 156.527H586.7C588.204 156.527 589.288 156.125 589.952 155.321C590.651 154.482 591.001 153.398 591.001 152.069C591.001 151.02 590.686 150.128 590.057 149.394C589.428 148.66 588.484 147.803 587.225 146.824C586.141 145.95 585.267 145.198 584.602 144.568C583.973 143.904 583.413 143.1 582.924 142.156C582.469 141.177 582.242 140.058 582.242 138.799C582.242 136.946 582.854 135.425 584.078 134.236C585.337 133.012 587.015 132.4 589.113 132.4H593.676V135.547H589.9C587.417 135.547 586.176 136.718 586.176 139.061C586.176 139.97 586.455 140.757 587.015 141.421C587.574 142.086 588.449 142.873 589.637 143.782C590.721 144.621 591.613 145.39 592.312 146.09C593.012 146.754 593.606 147.611 594.096 148.66C594.585 149.674 594.83 150.88 594.83 152.279C594.83 154.761 594.166 156.614 592.837 157.838C591.543 159.062 589.707 159.674 587.33 159.674H582.242V156.527ZM617.656 159.674H613.303C611.379 159.674 609.754 159.062 608.425 157.838C607.096 156.58 606.432 155.006 606.432 153.118V139.009C606.432 137.121 607.096 135.547 608.425 134.288C609.788 133.029 611.432 132.4 613.355 132.4H621.904V168.066H617.656V159.674ZM617.708 156.527V135.547H614.194C613.215 135.547 612.376 135.879 611.677 136.544C610.977 137.208 610.628 138.03 610.628 139.009V153.065C610.628 154.044 610.977 154.866 611.677 155.531C612.376 156.195 613.215 156.527 614.194 156.527H617.708ZM631.423 160.041C630.164 160.041 629.22 159.604 628.591 158.73C627.997 157.856 627.699 156.719 627.699 155.321V132.4H631.895V153.957C631.895 154.936 631.965 155.635 632.105 156.055C632.245 156.475 632.577 156.684 633.102 156.684C633.346 156.684 635.322 156.16 639.029 155.111V132.4H643.225V159.674H640.235L639.448 157.891C638.889 158.101 638.469 158.24 638.189 158.31C636.546 158.905 635.217 159.342 634.203 159.622C633.189 159.901 632.262 160.041 631.423 160.041ZM654.986 159.674C653.063 159.674 651.525 159.097 650.371 157.943C649.252 156.789 648.692 155.233 648.692 153.275V139.323C648.692 137.051 649.322 135.267 650.581 133.974C651.839 132.68 653.71 132.033 656.193 132.033C658.675 132.033 660.529 132.68 661.752 133.974C663.011 135.267 663.641 137.051 663.641 139.323V141.736C663.641 143.205 663.221 144.324 662.382 145.093C661.543 145.827 660.441 146.387 659.078 146.771L652.888 148.502V153.642C652.888 154.482 653.133 155.181 653.623 155.74C654.147 156.265 654.812 156.527 655.616 156.527H661.28V159.674H654.986ZM656.088 144.306C657.242 143.992 658.011 143.764 658.396 143.624C658.815 143.45 659.095 143.205 659.235 142.89C659.375 142.575 659.445 142.051 659.445 141.317V138.432C659.445 137.313 659.147 136.491 658.553 135.967C657.994 135.442 657.207 135.18 656.193 135.18C655.214 135.18 654.409 135.46 653.78 136.019C653.186 136.579 652.888 137.383 652.888 138.432V145.198L656.088 144.306ZM676.65 127.942V123.746H680.846V127.942H676.65ZM672.821 164.919H674.079C674.884 164.919 675.513 164.639 675.968 164.08C676.457 163.555 676.702 162.874 676.702 162.034V132.4H680.898V161.667C680.898 163.625 680.338 165.181 679.22 166.335C678.101 167.489 676.58 168.066 674.656 168.066H672.821V164.919ZM685.448 132.925L685.868 122.959H690.326L689.644 132.925H685.448ZM700.217 159.674C698.958 159.674 697.787 159.359 696.703 158.73C695.654 158.101 694.814 157.244 694.185 156.16C693.591 155.076 693.293 153.852 693.293 152.488V149.761C693.293 148.118 693.695 146.736 694.5 145.617C695.339 144.499 696.37 143.712 697.594 143.257L704.098 140.845V138.379C704.098 137.54 703.836 136.858 703.311 136.334C702.822 135.774 702.175 135.495 701.371 135.495H695.444V132.4H701.738C703.661 132.4 705.182 132.977 706.301 134.131C707.455 135.25 708.032 136.788 708.032 138.747V159.674H700.217ZM704.098 156.475V144.149L699.482 145.88C698.573 146.229 697.926 146.701 697.542 147.296C697.192 147.89 697.017 148.834 697.017 150.128V153.065C697.017 154.009 697.367 154.814 698.066 155.478C698.766 156.142 699.605 156.475 700.584 156.475H704.098ZM713.814 127.942V123.746H718.01V127.942H713.814ZM713.814 159.674V132.4H718.01V159.674H713.814ZM732.202 132.4H735.454L735.926 133.921L738.076 133.292C739.545 132.837 740.699 132.522 741.538 132.348C742.412 132.138 743.234 132.033 744.003 132.033C745.507 132.033 746.556 132.697 747.15 134.026C748.129 133.676 749.51 133.257 751.294 132.767C753.077 132.278 754.388 132.033 755.227 132.033C756.486 132.033 757.413 132.47 758.007 133.344C758.637 134.218 758.951 135.355 758.951 136.753V159.674H754.755V138.117C754.755 137.103 754.685 136.404 754.546 136.019C754.406 135.6 754.056 135.39 753.497 135.39C753.217 135.39 751.294 135.949 747.727 137.068V159.674H743.531V138.117C743.531 137.103 743.461 136.404 743.321 136.019C743.181 135.6 742.832 135.39 742.272 135.39C741.993 135.39 740.034 135.949 736.398 137.068V159.674H732.202V132.4ZM770.182 159.674C768.259 159.674 766.72 159.097 765.566 157.943C764.447 156.789 763.888 155.233 763.888 153.275V139.323C763.888 137.051 764.517 135.267 765.776 133.974C767.035 132.68 768.906 132.033 771.388 132.033C773.871 132.033 775.724 132.68 776.948 133.974C778.207 135.267 778.836 137.051 778.836 139.323V141.736C778.836 143.205 778.416 144.324 777.577 145.093C776.738 145.827 775.637 146.387 774.273 146.771L768.084 148.502V153.642C768.084 154.482 768.329 155.181 768.818 155.74C769.343 156.265 770.007 156.527 770.811 156.527H776.476V159.674H770.182ZM771.283 144.306C772.437 143.992 773.206 143.764 773.591 143.624C774.011 143.45 774.29 143.205 774.43 142.89C774.57 142.575 774.64 142.051 774.64 141.317V138.432C774.64 137.313 774.343 136.491 773.748 135.967C773.189 135.442 772.402 135.18 771.388 135.18C770.409 135.18 769.605 135.46 768.975 136.019C768.381 136.579 768.084 137.383 768.084 138.432V145.198L771.283 144.306ZM783.013 132.4H786.265L786.737 133.921L788.887 133.292C790.356 132.837 791.51 132.522 792.349 132.348C793.223 132.138 794.045 132.033 794.814 132.033C796.073 132.033 796.999 132.47 797.594 133.344C798.188 134.218 798.486 135.355 798.486 136.753V159.674H794.29V138.117C794.29 137.103 794.22 136.404 794.08 136.019C793.94 135.6 793.59 135.39 793.031 135.39C792.751 135.39 790.81 135.949 787.209 137.068V159.674H783.013V132.4ZM810.09 130.355L808.359 128.781L814.443 123.588L817.118 126.054L810.09 130.355ZM809.775 159.674C807.852 159.674 806.314 159.097 805.16 157.943C804.041 156.789 803.481 155.233 803.481 153.275V139.323C803.481 137.051 804.111 135.267 805.37 133.974C806.628 132.68 808.499 132.033 810.982 132.033C813.464 132.033 815.318 132.68 816.541 133.974C817.8 135.267 818.43 137.051 818.43 139.323V141.736C818.43 143.205 818.01 144.324 817.171 145.093C816.332 145.827 815.23 146.387 813.866 146.771L807.677 148.502V153.642C807.677 154.482 807.922 155.181 808.412 155.74C808.936 156.265 809.601 156.527 810.405 156.527H816.069V159.674H809.775ZM810.877 144.306C812.031 143.992 812.8 143.764 813.185 143.624C813.604 143.45 813.884 143.205 814.024 142.89C814.164 142.575 814.234 142.051 814.234 141.317V138.432C814.234 137.313 813.936 136.491 813.342 135.967C812.783 135.442 811.996 135.18 810.982 135.18C810.003 135.18 809.198 135.46 808.569 136.019C807.975 136.579 807.677 137.383 807.677 138.432V145.198L810.877 144.306ZM828.061 159.674C826.138 159.674 824.6 159.097 823.446 157.943C822.327 156.789 821.767 155.233 821.767 153.275V139.323C821.767 137.051 822.397 135.267 823.655 133.974C824.914 132.68 826.785 132.033 829.268 132.033C831.75 132.033 833.603 132.68 834.827 133.974C836.086 135.267 836.715 137.051 836.715 139.323V141.736C836.715 143.205 836.296 144.324 835.457 145.093C834.617 145.827 833.516 146.387 832.152 146.771L825.963 148.502V153.642C825.963 154.482 826.208 155.181 826.698 155.74C827.222 156.265 827.886 156.527 828.691 156.527H834.355V159.674H828.061ZM829.163 144.306C830.317 143.992 831.086 143.764 831.47 143.624C831.89 143.45 832.17 143.205 832.31 142.89C832.45 142.575 832.519 142.051 832.519 141.317V138.432C832.519 137.313 832.222 136.491 831.628 135.967C831.068 135.442 830.282 135.18 829.268 135.18C828.288 135.18 827.484 135.46 826.855 136.019C826.26 136.579 825.963 137.383 825.963 138.432V145.198L829.163 144.306ZM839.319 156.527H843.777C845.28 156.527 846.364 156.125 847.029 155.321C847.728 154.482 848.078 153.398 848.078 152.069C848.078 151.02 847.763 150.128 847.134 149.394C846.504 148.66 845.56 147.803 844.301 146.824C843.217 145.95 842.343 145.198 841.679 144.568C841.05 143.904 840.49 143.1 840.001 142.156C839.546 141.177 839.319 140.058 839.319 138.799C839.319 136.946 839.931 135.425 841.154 134.236C842.413 133.012 844.092 132.4 846.19 132.4H850.753V135.547H846.976C844.494 135.547 843.252 136.718 843.252 139.061C843.252 139.97 843.532 140.757 844.092 141.421C844.651 142.086 845.525 142.873 846.714 143.782C847.798 144.621 848.69 145.39 849.389 146.09C850.088 146.754 850.683 147.611 851.172 148.66C851.662 149.674 851.907 150.88 851.907 152.279C851.907 154.761 851.242 156.614 849.914 157.838C848.62 159.062 846.784 159.674 844.406 159.674H839.319V156.527ZM863.508 137.855V132.453H867.704V137.855H863.508ZM863.508 159.674V154.272H867.704V159.674H863.508ZM880.896 132.4H884.147L884.619 134.341L885.931 133.711C887.05 133.152 887.976 132.732 888.711 132.453C889.48 132.173 890.249 132.033 891.018 132.033V135.127C890.564 135.127 889.952 135.267 889.183 135.547C888.413 135.792 887.05 136.386 885.092 137.33V159.674H880.896V132.4ZM900.49 159.674C899.231 159.674 898.06 159.359 896.976 158.73C895.927 158.101 895.087 157.244 894.458 156.16C893.864 155.076 893.566 153.852 893.566 152.488V149.761C893.566 148.118 893.968 146.736 894.773 145.617C895.612 144.499 896.643 143.712 897.867 143.257L904.371 140.845V138.379C904.371 137.54 904.109 136.858 903.584 136.334C903.095 135.774 902.448 135.495 901.644 135.495H895.717V132.4H902.011C903.934 132.4 905.455 132.977 906.574 134.131C907.728 135.25 908.305 136.788 908.305 138.747V159.674H900.49ZM904.371 156.475V144.149L899.755 145.88C898.846 146.229 898.199 146.701 897.815 147.296C897.465 147.89 897.29 148.834 897.29 150.128V153.065C897.29 154.009 897.64 154.814 898.339 155.478C899.039 156.142 899.878 156.475 900.857 156.475H904.371ZM912.513 156.527H916.971C918.475 156.527 919.559 156.125 920.223 155.321C920.923 154.482 921.272 153.398 921.272 152.069C921.272 151.02 920.958 150.128 920.328 149.394C919.699 148.66 918.755 147.803 917.496 146.824C916.412 145.95 915.538 145.198 914.873 144.568C914.244 143.904 913.684 143.1 913.195 142.156C912.74 141.177 912.513 140.058 912.513 138.799C912.513 136.946 913.125 135.425 914.349 134.236C915.608 133.012 917.286 132.4 919.384 132.4H923.947V135.547H920.171C917.688 135.547 916.447 136.718 916.447 139.061C916.447 139.97 916.727 140.757 917.286 141.421C917.845 142.086 918.72 142.873 919.909 143.782C920.992 144.621 921.884 145.39 922.583 146.09C923.283 146.754 923.877 147.611 924.367 148.66C924.856 149.674 925.101 150.88 925.101 152.279C925.101 154.761 924.437 156.614 923.108 157.838C921.814 159.062 919.978 159.674 917.601 159.674H912.513V156.527ZM928.238 156.527H932.696C934.2 156.527 935.284 156.125 935.948 155.321C936.647 154.482 936.997 153.398 936.997 152.069C936.997 151.02 936.682 150.128 936.053 149.394C935.423 148.66 934.479 147.803 933.221 146.824C932.137 145.95 931.262 145.198 930.598 144.568C929.969 143.904 929.409 143.1 928.92 142.156C928.465 141.177 928.238 140.058 928.238 138.799C928.238 136.946 928.85 135.425 930.074 134.236C931.332 133.012 933.011 132.4 935.109 132.4H939.672V135.547H935.896C933.413 135.547 932.172 136.718 932.172 139.061C932.172 139.97 932.451 140.757 933.011 141.421C933.57 142.086 934.444 142.873 935.633 143.782C936.717 144.621 937.609 145.39 938.308 146.09C939.008 146.754 939.602 147.611 940.092 148.66C940.581 149.674 940.826 150.88 940.826 152.279C940.826 154.761 940.161 156.614 938.833 157.838C937.539 159.062 935.703 159.674 933.325 159.674H928.238V156.527ZM950.991 159.674C949.068 159.674 947.529 159.097 946.375 157.943C945.256 156.789 944.697 155.233 944.697 153.275V139.323C944.697 137.051 945.326 135.267 946.585 133.974C947.844 132.68 949.715 132.033 952.197 132.033C954.68 132.033 956.533 132.68 957.757 133.974C959.016 135.267 959.645 137.051 959.645 139.323V141.736C959.645 143.205 959.226 144.324 958.386 145.093C957.547 145.827 956.446 146.387 955.082 146.771L948.893 148.502V153.642C948.893 154.482 949.138 155.181 949.627 155.74C950.152 156.265 950.816 156.527 951.62 156.527H957.285V159.674H950.991ZM952.092 144.306C953.246 143.992 954.016 143.764 954.4 143.624C954.82 143.45 955.099 143.205 955.239 142.89C955.379 142.575 955.449 142.051 955.449 141.317V138.432C955.449 137.313 955.152 136.491 954.557 135.967C953.998 135.442 953.211 135.18 952.197 135.18C951.218 135.18 950.414 135.46 949.785 136.019C949.19 136.579 948.893 137.383 948.893 138.432V145.198L952.092 144.306ZM963.822 132.4H967.074L967.546 133.921L969.696 133.292C971.165 132.837 972.319 132.522 973.158 132.348C974.032 132.138 974.854 132.033 975.623 132.033C977.127 132.033 978.176 132.697 978.77 134.026C979.749 133.676 981.13 133.257 982.914 132.767C984.697 132.278 986.008 132.033 986.847 132.033C988.106 132.033 989.033 132.47 989.627 133.344C990.257 134.218 990.571 135.355 990.571 136.753V159.674H986.375V138.117C986.375 137.103 986.305 136.404 986.166 136.019C986.026 135.6 985.676 135.39 985.117 135.39C984.837 135.39 982.914 135.949 979.347 137.068V159.674H975.151V138.117C975.151 137.103 975.081 136.404 974.941 136.019C974.801 135.6 974.452 135.39 973.892 135.39C973.613 135.39 971.654 135.949 968.018 137.068V159.674H963.822V132.4ZM996.347 122.959H1000.54V131.141L1007.57 133.606C1008.8 134.026 1009.81 134.76 1010.61 135.809C1011.45 136.823 1011.87 138.082 1011.87 139.586V153.065C1011.87 154.954 1011.21 156.527 1009.88 157.786C1008.55 159.045 1006.92 159.674 1005 159.674H996.347V122.959ZM1004.11 156.527C1005.09 156.527 1005.93 156.195 1006.63 155.531C1007.33 154.866 1007.68 154.044 1007.68 153.065V140.425C1007.68 139.096 1007.48 138.135 1007.1 137.54C1006.75 136.911 1006.12 136.456 1005.21 136.176L1000.54 134.603V156.527H1004.11ZM1016.89 159.674V122.959H1021.08V159.674H1016.89ZM1032.79 159.674C1030.87 159.674 1029.33 159.097 1028.17 157.943C1027.06 156.789 1026.5 155.233 1026.5 153.275V139.323C1026.5 137.051 1027.13 135.267 1028.38 133.974C1029.64 132.68 1031.51 132.033 1034 132.033C1036.48 132.033 1038.33 132.68 1039.56 133.974C1040.82 135.267 1041.44 137.051 1041.44 139.323V141.736C1041.44 143.205 1041.02 144.324 1040.19 145.093C1039.35 145.827 1038.25 146.387 1036.88 146.771L1030.69 148.502V153.642C1030.69 154.482 1030.94 155.181 1031.43 155.74C1031.95 156.265 1032.62 156.527 1033.42 156.527H1039.08V159.674H1032.79ZM1033.89 144.306C1035.05 143.992 1035.81 143.764 1036.2 143.624C1036.62 143.45 1036.9 143.205 1037.04 142.89C1037.18 142.575 1037.25 142.051 1037.25 141.317V138.432C1037.25 137.313 1036.95 136.491 1036.36 135.967C1035.8 135.442 1035.01 135.18 1034 135.18C1033.02 135.18 1032.21 135.46 1031.58 136.019C1030.99 136.579 1030.69 137.383 1030.69 138.432V145.198L1033.89 144.306ZM1045.62 132.4H1048.87L1049.35 134.341L1050.66 133.711C1051.78 133.152 1052.7 132.732 1053.44 132.453C1054.21 132.173 1054.97 132.033 1055.74 132.033V135.127C1055.29 135.127 1054.68 135.267 1053.91 135.547C1053.14 135.792 1051.78 136.386 1049.82 137.33V159.674H1045.62V132.4ZM1056.46 166.125L1058.71 159.674V154.272H1062.91V159.622L1059.71 166.125H1056.46ZM1082.63 159.674C1080.7 159.674 1079.18 159.097 1078.06 157.943C1076.95 156.789 1076.39 155.233 1076.39 153.275V135.547H1073.24V132.4H1076.39V124.48L1080.58 122.907V132.4H1084.78V135.547H1080.58V153.642C1080.58 154.482 1080.81 155.181 1081.26 155.74C1081.75 156.265 1082.4 156.527 1083.2 156.527H1084.78V159.674H1082.63ZM1094.41 159.674C1092.49 159.674 1090.95 159.097 1089.79 157.943C1088.67 156.789 1088.11 155.233 1088.11 153.275V139.323C1088.11 137.051 1088.74 135.267 1090 133.974C1091.26 132.68 1093.13 132.033 1095.62 132.033C1098.1 132.033 1099.95 132.68 1101.17 133.974C1102.43 135.267 1103.06 137.051 1103.06 139.323V141.736C1103.06 143.205 1102.64 144.324 1101.8 145.093C1100.97 145.827 1099.86 146.387 1098.5 146.771L1092.31 148.502V153.642C1092.31 154.482 1092.56 155.181 1093.05 155.74C1093.57 156.265 1094.23 156.527 1095.04 156.527H1100.7V159.674H1094.41ZM1095.51 144.306C1096.66 143.992 1097.43 143.764 1097.82 143.624C1098.24 143.45 1098.52 143.205 1098.66 142.89C1098.8 142.575 1098.87 142.051 1098.87 141.317V138.432C1098.87 137.313 1098.57 136.491 1097.98 135.967C1097.42 135.442 1096.63 135.18 1095.62 135.18C1094.64 135.18 1093.83 135.46 1093.2 136.019C1092.61 136.579 1092.31 137.383 1092.31 138.432V145.198L1095.51 144.306ZM1105.67 156.527H1110.12C1111.63 156.527 1112.71 156.125 1113.38 155.321C1114.08 154.482 1114.43 153.398 1114.43 152.069C1114.43 151.02 1114.11 150.128 1113.48 149.394C1112.85 148.66 1111.91 147.803 1110.65 146.824C1109.57 145.95 1108.69 145.198 1108.03 144.568C1107.4 143.904 1106.84 143.1 1106.35 142.156C1105.89 141.177 1105.67 140.058 1105.67 138.799C1105.67 136.946 1106.28 135.425 1107.5 134.236C1108.76 133.012 1110.44 132.4 1112.54 132.4H1117.1V135.547H1113.32C1110.84 135.547 1109.6 136.718 1109.6 139.061C1109.6 139.97 1109.88 140.757 1110.44 141.421C1111 142.086 1111.87 142.873 1113.06 143.782C1114.15 144.621 1115.04 145.39 1115.74 146.09C1116.44 146.754 1117.03 147.611 1117.52 148.66C1118.01 149.674 1118.25 150.88 1118.25 152.279C1118.25 154.761 1117.59 156.614 1116.26 157.838C1114.97 159.062 1113.13 159.674 1110.75 159.674H1105.67V156.527ZM1130.57 159.674C1128.65 159.674 1127.13 159.097 1126.01 157.943C1124.89 156.789 1124.33 155.233 1124.33 153.275V135.547H1121.18V132.4H1124.33V124.48L1128.52 122.907V132.4H1132.72V135.547H1128.52V153.642C1128.52 154.482 1128.75 155.181 1129.21 155.74C1129.7 156.265 1130.34 156.527 1131.15 156.527H1132.72V159.674H1130.57ZM1142.35 159.674C1140.43 159.674 1138.89 159.097 1137.74 157.943C1136.62 156.789 1136.06 155.233 1136.06 153.275V139.323C1136.06 137.051 1136.69 135.267 1137.95 133.974C1139.2 132.68 1141.08 132.033 1143.56 132.033C1146.04 132.033 1147.89 132.68 1149.12 133.974C1150.38 135.267 1151.01 137.051 1151.01 139.323V141.736C1151.01 143.205 1150.59 144.324 1149.75 145.093C1148.91 145.827 1147.81 146.387 1146.44 146.771L1140.25 148.502V153.642C1140.25 154.482 1140.5 155.181 1140.99 155.74C1141.51 156.265 1142.18 156.527 1142.98 156.527H1148.65V159.674H1142.35ZM1143.45 144.306C1144.61 143.992 1145.38 143.764 1145.76 143.624C1146.18 143.45 1146.46 143.205 1146.6 142.89C1146.74 142.575 1146.81 142.051 1146.81 141.317V138.432C1146.81 137.313 1146.51 136.491 1145.92 135.967C1145.36 135.442 1144.57 135.18 1143.56 135.18C1142.58 135.18 1141.77 135.46 1141.15 136.019C1140.55 136.579 1140.25 137.383 1140.25 138.432V145.198L1143.45 144.306ZM1155.18 132.4H1158.43L1158.91 134.341L1160.22 133.711C1161.34 133.152 1162.26 132.732 1163 132.453C1163.77 132.173 1164.54 132.033 1165.31 132.033V135.127C1164.85 135.127 1164.24 135.267 1163.47 135.547C1162.7 135.792 1161.34 136.386 1159.38 137.33V159.674H1155.18V132.4ZM1166.02 166.125L1168.27 159.674V154.272H1172.47V159.622L1169.27 166.125H1166.02ZM221.812 216.674C219.889 216.674 218.368 216.097 217.249 214.943C216.13 213.789 215.571 212.233 215.571 210.275V192.547H212.424V189.4H215.571V181.48L219.767 179.907V189.4H223.963V192.547H219.767V210.642C219.767 211.482 219.994 212.181 220.448 212.74C220.938 213.265 221.585 213.527 222.389 213.527H223.963V216.674H221.812ZM228.139 189.4H231.391L231.863 191.341L233.174 190.711C234.293 190.152 235.22 189.732 235.954 189.453C236.723 189.173 237.492 189.033 238.262 189.033V192.127C237.807 192.127 237.195 192.267 236.426 192.547C235.657 192.792 234.293 193.386 232.335 194.33V216.674H228.139V189.4ZM247.733 216.674C246.474 216.674 245.303 216.359 244.219 215.73C243.17 215.101 242.331 214.244 241.701 213.16C241.107 212.076 240.81 210.852 240.81 209.488V206.761C240.81 205.118 241.212 203.736 242.016 202.617C242.855 201.499 243.887 200.712 245.111 200.257L251.614 197.845V195.379C251.614 194.54 251.352 193.858 250.828 193.334C250.338 192.774 249.691 192.495 248.887 192.495H242.96V189.4H249.254C251.177 189.4 252.698 189.977 253.817 191.131C254.971 192.25 255.548 193.788 255.548 195.747V216.674H247.733ZM251.614 213.475V201.149L246.999 202.88C246.09 203.229 245.443 203.701 245.058 204.296C244.708 204.89 244.534 205.834 244.534 207.128V210.065C244.534 211.009 244.883 211.814 245.583 212.478C246.282 213.142 247.121 213.475 248.1 213.475H251.614ZM261.33 189.4H264.582L265.054 190.921L267.204 190.292C268.673 189.837 269.827 189.522 270.666 189.348C271.54 189.138 272.362 189.033 273.131 189.033C274.39 189.033 275.317 189.47 275.911 190.344C276.505 191.218 276.803 192.355 276.803 193.753V216.674H272.607V195.117C272.607 194.103 272.537 193.404 272.397 193.019C272.257 192.6 271.907 192.39 271.348 192.39C271.068 192.39 269.127 192.949 265.526 194.068V216.674H261.33V189.4ZM281.064 213.527H285.522C287.026 213.527 288.11 213.125 288.774 212.321C289.474 211.482 289.823 210.398 289.823 209.069C289.823 208.02 289.509 207.128 288.879 206.394C288.25 205.66 287.306 204.803 286.047 203.824C284.963 202.95 284.089 202.198 283.424 201.568C282.795 200.904 282.236 200.1 281.746 199.156C281.292 198.177 281.064 197.058 281.064 195.799C281.064 193.946 281.676 192.425 282.9 191.236C284.159 190.012 285.837 189.4 287.935 189.4H292.498V192.547H288.722C286.239 192.547 284.998 193.718 284.998 196.061C284.998 196.97 285.278 197.757 285.837 198.421C286.397 199.086 287.271 199.873 288.46 200.782C289.544 201.621 290.435 202.39 291.135 203.09C291.834 203.754 292.428 204.611 292.918 205.66C293.407 206.674 293.652 207.88 293.652 209.279C293.652 211.761 292.988 213.614 291.659 214.838C290.365 216.062 288.53 216.674 286.152 216.674H281.064V213.527ZM299.674 192.862H296.527V189.4H299.674V186.358C299.674 184.4 300.233 182.844 301.352 181.69C302.471 180.536 303.992 179.959 305.915 179.959H308.223V183.106H306.65C305.845 183.106 305.181 183.386 304.656 183.945C304.132 184.505 303.87 185.187 303.87 185.991V189.4H308.118V192.862H303.87V216.674H299.674V192.862ZM318.187 217.041C315.74 217.041 313.834 216.429 312.47 215.205C311.142 213.947 310.477 212.216 310.477 210.013V196.061C310.477 193.858 311.142 192.145 312.47 190.921C313.834 189.662 315.74 189.033 318.187 189.033C320.635 189.033 322.523 189.662 323.852 190.921C325.216 192.145 325.898 193.858 325.898 196.061V210.013C325.898 212.216 325.216 213.947 323.852 215.205C322.523 216.429 320.635 217.041 318.187 217.041ZM318.187 213.789C319.306 213.789 320.18 213.475 320.81 212.845C321.474 212.181 321.806 211.237 321.806 210.013V196.061C321.806 194.837 321.474 193.911 320.81 193.281C320.18 192.617 319.306 192.285 318.187 192.285C317.068 192.285 316.177 192.617 315.512 193.281C314.883 193.911 314.568 194.837 314.568 196.061V210.013C314.568 211.237 314.883 212.181 315.512 212.845C316.177 213.475 317.068 213.789 318.187 213.789ZM331.144 189.4H334.396L334.868 191.341L336.179 190.711C337.298 190.152 338.224 189.732 338.959 189.453C339.728 189.173 340.497 189.033 341.267 189.033V192.127C340.812 192.127 340.2 192.267 339.431 192.547C338.662 192.792 337.298 193.386 335.34 194.33V216.674H331.144V189.4ZM345.178 189.4H348.43L348.902 190.921L351.053 190.292C352.521 189.837 353.675 189.522 354.514 189.348C355.388 189.138 356.21 189.033 356.979 189.033C358.483 189.033 359.532 189.697 360.126 191.026C361.106 190.676 362.487 190.257 364.27 189.767C366.053 189.278 367.365 189.033 368.204 189.033C369.463 189.033 370.389 189.47 370.984 190.344C371.613 191.218 371.928 192.355 371.928 193.753V216.674H367.732V195.117C367.732 194.103 367.662 193.404 367.522 193.019C367.382 192.6 367.032 192.39 366.473 192.39C366.193 192.39 364.27 192.949 360.703 194.068V216.674H356.507V195.117C356.507 194.103 356.437 193.404 356.298 193.019C356.158 192.6 355.808 192.39 355.249 192.39C354.969 192.39 353.011 192.949 349.374 194.068V216.674H345.178V189.4ZM383.158 216.674C381.235 216.674 379.696 216.097 378.543 214.943C377.424 213.789 376.864 212.233 376.864 210.275V196.323C376.864 194.051 377.494 192.267 378.752 190.974C380.011 189.68 381.882 189.033 384.365 189.033C386.847 189.033 388.7 189.68 389.924 190.974C391.183 192.267 391.812 194.051 391.812 196.323V198.736C391.812 200.205 391.393 201.324 390.554 202.093C389.714 202.827 388.613 203.387 387.249 203.771L381.06 205.502V210.642C381.06 211.482 381.305 212.181 381.794 212.74C382.319 213.265 382.983 213.527 383.788 213.527H389.452V216.674H383.158ZM384.26 201.306C385.414 200.992 386.183 200.764 386.567 200.624C386.987 200.45 387.267 200.205 387.407 199.89C387.546 199.575 387.616 199.051 387.616 198.317V195.432C387.616 194.313 387.319 193.491 386.725 192.967C386.165 192.442 385.379 192.18 384.365 192.18C383.385 192.18 382.581 192.46 381.952 193.019C381.357 193.579 381.06 194.383 381.06 195.432V202.198L384.26 201.306ZM395.989 189.4H399.241L399.713 191.341L401.024 190.711C402.143 190.152 403.07 189.732 403.804 189.453C404.573 189.173 405.343 189.033 406.112 189.033V192.127C405.657 192.127 405.046 192.267 404.276 192.547C403.507 192.792 402.143 193.386 400.185 194.33V216.674H395.989V189.4ZM409.027 216.674V211.272H413.223V216.674H409.027ZM424.931 216.674L433.218 179.959H440.194L448.166 216.674H443.865L441.295 205.869H431.749L429.389 216.674H424.931ZM432.536 202.303H440.509L436.732 183.421H436.365L432.536 202.303ZM436.732 177.914L429.704 173.613L432.379 171.147L438.463 176.34L436.732 177.914ZM467.876 216.674C465.953 216.674 464.432 216.097 463.313 214.943C462.194 213.789 461.635 212.233 461.635 210.275V192.547H458.488V189.4H461.635V181.48L465.831 179.907V189.4H470.027V192.547H465.831V210.642C465.831 211.482 466.058 212.181 466.513 212.74C467.002 213.265 467.649 213.527 468.453 213.527H470.027V216.674H467.876ZM480.864 217.041C478.417 217.041 476.511 216.429 475.147 215.205C473.819 213.947 473.154 212.216 473.154 210.013V196.061C473.154 193.858 473.819 192.145 475.147 190.921C476.511 189.662 478.417 189.033 480.864 189.033C483.312 189.033 485.2 189.662 486.529 190.921C487.893 192.145 488.574 193.858 488.574 196.061V210.013C488.574 212.216 487.893 213.947 486.529 215.205C485.2 216.429 483.312 217.041 480.864 217.041ZM480.864 213.789C481.983 213.789 482.857 213.475 483.487 212.845C484.151 212.181 484.483 211.237 484.483 210.013V196.061C484.483 194.837 484.151 193.911 483.487 193.281C482.857 192.617 481.983 192.285 480.864 192.285C479.745 192.285 478.854 192.617 478.189 193.281C477.56 193.911 477.245 194.837 477.245 196.061V210.013C477.245 211.237 477.56 212.181 478.189 212.845C478.854 213.475 479.745 213.789 480.864 213.789ZM493.821 184.942V180.746H498.017V184.942H493.821ZM493.821 216.674V189.4H498.017V216.674H493.821ZM519.132 216.674C516.929 216.674 515.146 216.027 513.782 214.733C512.419 213.44 511.737 211.709 511.737 209.541V196.481C511.737 194.977 512.139 193.701 512.943 192.652C513.782 191.603 514.814 190.886 516.038 190.502L523.066 188.036V179.959H527.262V216.674H519.132ZM523.066 213.527V191.498L518.398 193.072C517.489 193.351 516.842 193.806 516.457 194.435C516.108 195.03 515.933 195.991 515.933 197.32V209.541C515.933 210.8 516.3 211.779 517.034 212.478C517.769 213.177 518.765 213.527 520.024 213.527H523.066ZM539.023 216.674C537.1 216.674 535.561 216.097 534.407 214.943C533.288 213.789 532.729 212.233 532.729 210.275V196.323C532.729 194.051 533.358 192.267 534.617 190.974C535.876 189.68 537.746 189.033 540.229 189.033C542.712 189.033 544.565 189.68 545.789 190.974C547.048 192.267 547.677 194.051 547.677 196.323V198.736C547.677 200.205 547.257 201.324 546.418 202.093C545.579 202.827 544.478 203.387 543.114 203.771L536.925 205.502V210.642C536.925 211.482 537.17 212.181 537.659 212.74C538.184 213.265 538.848 213.527 539.652 213.527H545.317V216.674H539.023ZM540.124 201.306C541.278 200.992 542.047 200.764 542.432 200.624C542.852 200.45 543.131 200.205 543.271 199.89C543.411 199.575 543.481 199.051 543.481 198.317V195.432C543.481 194.313 543.184 193.491 542.589 192.967C542.03 192.442 541.243 192.18 540.229 192.18C539.25 192.18 538.446 192.46 537.816 193.019C537.222 193.579 536.925 194.383 536.925 195.432V202.198L540.124 201.306ZM560.686 184.942V180.746H564.882V184.942H560.686ZM556.857 221.919H558.116C558.92 221.919 559.549 221.639 560.004 221.08C560.494 220.555 560.738 219.874 560.738 219.034V189.4H564.934V218.667C564.934 220.625 564.375 222.181 563.256 223.335C562.137 224.489 560.616 225.066 558.693 225.066H556.857V221.919ZM574.415 217.041C573.156 217.041 572.212 216.604 571.582 215.73C570.988 214.856 570.691 213.719 570.691 212.321V189.4H574.887V210.957C574.887 211.936 574.957 212.635 575.096 213.055C575.236 213.475 575.569 213.684 576.093 213.684C576.338 213.684 578.313 213.16 582.02 212.111V189.4H586.216V216.674H583.226L582.439 214.891C581.88 215.101 581.46 215.24 581.181 215.31C579.537 215.905 578.209 216.342 577.194 216.622C576.18 216.901 575.254 217.041 574.415 217.041ZM594.726 221.919H600.128C600.932 221.919 601.562 221.639 602.016 221.08C602.506 220.555 602.751 219.874 602.751 219.034V216.727H598.397C596.474 216.727 594.848 216.097 593.52 214.838C592.191 213.58 591.526 212.006 591.526 210.118V196.009C591.526 194.121 592.191 192.547 593.52 191.288C594.883 190.029 596.527 189.4 598.45 189.4H606.999V218.667C606.999 220.625 606.457 222.181 605.373 223.335C604.324 224.489 602.838 225.066 600.915 225.066H594.726V221.919ZM602.803 213.58V192.547H599.289C598.31 192.547 597.471 192.879 596.771 193.544C596.072 194.208 595.722 195.03 595.722 196.009V210.118C595.722 211.097 596.072 211.919 596.771 212.583C597.471 213.247 598.31 213.58 599.289 213.58H602.803ZM618.21 216.674C616.287 216.674 614.748 216.097 613.594 214.943C612.475 213.789 611.916 212.233 611.916 210.275V196.323C611.916 194.051 612.545 192.267 613.804 190.974C615.063 189.68 616.934 189.033 619.416 189.033C621.899 189.033 623.752 189.68 624.976 190.974C626.235 192.267 626.864 194.051 626.864 196.323V198.736C626.864 200.205 626.445 201.324 625.605 202.093C624.766 202.827 623.665 203.387 622.301 203.771L616.112 205.502V210.642C616.112 211.482 616.357 212.181 616.846 212.74C617.371 213.265 618.035 213.527 618.839 213.527H624.504V216.674H618.21ZM619.311 201.306C620.465 200.992 621.235 200.764 621.619 200.624C622.039 200.45 622.319 200.205 622.458 199.89C622.598 199.575 622.668 199.051 622.668 198.317V195.432C622.668 194.313 622.371 193.491 621.777 192.967C621.217 192.442 620.43 192.18 619.416 192.18C618.437 192.18 617.633 192.46 617.004 193.019C616.409 193.579 616.112 194.383 616.112 195.432V202.198L619.311 201.306ZM631.041 189.4H634.293L634.765 191.341L636.076 190.711C637.195 190.152 638.122 189.732 638.856 189.453C639.625 189.173 640.395 189.033 641.164 189.033V192.127C640.709 192.127 640.097 192.267 639.328 192.547C638.559 192.792 637.195 193.386 635.237 194.33V216.674H631.041V189.4ZM660.097 187.355L653.068 183.054L655.743 180.588L661.827 185.781L660.097 187.355ZM658.523 216.674C657.264 216.674 656.093 216.359 655.009 215.73C653.96 215.101 653.121 214.244 652.491 213.16C651.897 212.076 651.6 210.852 651.6 209.488V206.761C651.6 205.118 652.002 203.736 652.806 202.617C653.645 201.499 654.677 200.712 655.901 200.257L662.404 197.845V195.379C662.404 194.54 662.142 193.858 661.618 193.334C661.128 192.774 660.481 192.495 659.677 192.495H653.75V189.4H660.044C661.967 189.4 663.488 189.977 664.607 191.131C665.761 192.25 666.338 193.788 666.338 195.747V216.674H658.523ZM662.404 213.475V201.149L657.789 202.88C656.88 203.229 656.233 203.701 655.848 204.296C655.498 204.89 655.324 205.834 655.324 207.128V210.065C655.324 211.009 655.673 211.814 656.373 212.478C657.072 213.142 657.911 213.475 658.89 213.475H662.404ZM690.236 216.674H685.882C683.959 216.674 682.333 216.062 681.004 214.838C679.676 213.58 679.011 212.006 679.011 210.118V196.009C679.011 194.121 679.676 192.547 681.004 191.288C682.368 190.029 684.012 189.4 685.935 189.4H694.484V225.066H690.236V216.674ZM690.288 213.527V192.547H686.774C685.795 192.547 684.956 192.879 684.256 193.544C683.557 194.208 683.207 195.03 683.207 196.009V210.065C683.207 211.044 683.557 211.866 684.256 212.531C684.956 213.195 685.795 213.527 686.774 213.527H690.288ZM704.003 217.041C702.744 217.041 701.8 216.604 701.171 215.73C700.576 214.856 700.279 213.719 700.279 212.321V189.4H704.475V210.957C704.475 211.936 704.545 212.635 704.685 213.055C704.825 213.475 705.157 213.684 705.681 213.684C705.926 213.684 707.902 213.16 711.608 212.111V189.4H715.804V216.674H712.815L712.028 214.891C711.468 215.101 711.049 215.24 710.769 215.31C709.126 215.905 707.797 216.342 706.783 216.622C705.769 216.901 704.842 217.041 704.003 217.041ZM727.566 216.674C725.643 216.674 724.104 216.097 722.951 214.943C721.832 213.789 721.272 212.233 721.272 210.275V196.323C721.272 194.051 721.902 192.267 723.16 190.974C724.419 189.68 726.29 189.033 728.773 189.033C731.255 189.033 733.108 189.68 734.332 190.974C735.591 192.267 736.22 194.051 736.22 196.323V198.736C736.22 200.205 735.801 201.324 734.962 202.093C734.122 202.827 733.021 203.387 731.657 203.771L725.468 205.502V210.642C725.468 211.482 725.713 212.181 726.202 212.74C726.727 213.265 727.391 213.527 728.196 213.527H733.86V216.674H727.566ZM728.668 201.306C729.822 200.992 730.591 200.764 730.975 200.624C731.395 200.45 731.675 200.205 731.815 199.89C731.954 199.575 732.024 199.051 732.024 198.317V195.432C732.024 194.313 731.727 193.491 731.133 192.967C730.573 192.442 729.787 192.18 728.773 192.18C727.793 192.18 726.989 192.46 726.36 193.019C725.765 193.579 725.468 194.383 725.468 195.432V202.198L728.668 201.306ZM740.45 216.674V179.959H744.646V216.674H740.45ZM759.729 184.942V180.746H763.925V184.942H759.729ZM755.901 221.919H757.159C757.964 221.919 758.593 221.639 759.048 221.08C759.537 220.555 759.782 219.874 759.782 219.034V189.4H763.978V218.667C763.978 220.625 763.418 222.181 762.3 223.335C761.181 224.489 759.66 225.066 757.736 225.066H755.901V221.919ZM775.819 216.674C774.56 216.674 773.388 216.359 772.304 215.73C771.255 215.101 770.416 214.244 769.787 213.16C769.192 212.076 768.895 210.852 768.895 209.488V206.761C768.895 205.118 769.297 203.736 770.101 202.617C770.941 201.499 771.972 200.712 773.196 200.257L779.7 197.845V195.379C779.7 194.54 779.438 193.858 778.913 193.334C778.424 192.774 777.777 192.495 776.972 192.495H771.046V189.4H777.34C779.263 189.4 780.784 189.977 781.903 191.131C783.057 192.25 783.634 193.788 783.634 195.747V216.674H775.819ZM779.7 213.475V201.149L775.084 202.88C774.175 203.229 773.528 203.701 773.144 204.296C772.794 204.89 772.619 205.834 772.619 207.128V210.065C772.619 211.009 772.969 211.814 773.668 212.478C774.367 213.142 775.207 213.475 776.186 213.475H779.7ZM789.468 216.674V179.959H793.664V216.674H789.468ZM806.577 217.041C804.129 217.041 802.223 216.429 800.86 215.205C799.531 213.947 798.867 212.216 798.867 210.013V196.061C798.867 193.858 799.531 192.145 800.86 190.921C802.223 189.662 804.129 189.033 806.577 189.033C809.024 189.033 810.913 189.662 812.241 190.921C813.605 192.145 814.287 193.858 814.287 196.061V210.013C814.287 212.216 813.605 213.947 812.241 215.205C810.913 216.429 809.024 217.041 806.577 217.041ZM806.577 213.789C807.696 213.789 808.57 213.475 809.199 212.845C809.864 212.181 810.196 211.237 810.196 210.013V196.061C810.196 194.837 809.864 193.911 809.199 193.281C808.57 192.617 807.696 192.285 806.577 192.285C805.458 192.285 804.566 192.617 803.902 193.281C803.272 193.911 802.958 194.837 802.958 196.061V210.013C802.958 211.237 803.272 212.181 803.902 212.845C804.566 213.475 805.458 213.789 806.577 213.789ZM819.533 189.4H822.785L823.257 190.921L825.408 190.292C826.876 189.837 828.03 189.522 828.869 189.348C829.743 189.138 830.565 189.033 831.334 189.033C832.593 189.033 833.52 189.47 834.114 190.344C834.709 191.218 835.006 192.355 835.006 193.753V216.674H830.81V195.117C830.81 194.103 830.74 193.404 830.6 193.019C830.46 192.6 830.111 192.39 829.551 192.39C829.271 192.39 827.331 192.949 823.729 194.068V216.674H819.533V189.4ZM854.184 216.674C852.261 216.674 850.722 216.097 849.568 214.943C848.449 213.789 847.89 212.233 847.89 210.275V196.323C847.89 194.051 848.519 192.267 849.778 190.974C851.037 189.68 852.907 189.033 855.39 189.033C857.873 189.033 859.726 189.68 860.95 190.974C862.209 192.267 862.838 194.051 862.838 196.323V198.736C862.838 200.205 862.418 201.324 861.579 202.093C860.74 202.827 859.639 203.387 858.275 203.771L852.086 205.502V210.642C852.086 211.482 852.331 212.181 852.82 212.74C853.345 213.265 854.009 213.527 854.813 213.527H860.478V216.674H854.184ZM855.285 201.306C856.439 200.992 857.208 200.764 857.593 200.624C858.013 200.45 858.292 200.205 858.432 199.89C858.572 199.575 858.642 199.051 858.642 198.317V195.432C858.642 194.313 858.345 193.491 857.75 192.967C857.191 192.442 856.404 192.18 855.39 192.18C854.411 192.18 853.607 192.46 852.977 193.019C852.383 193.579 852.086 194.383 852.086 195.432V202.198L855.285 201.306ZM867.067 216.674V179.959H871.263V216.674H867.067ZM877.567 216.674V179.959H881.763V216.674H877.567ZM893.47 216.674C891.547 216.674 890.008 216.097 888.854 214.943C887.735 213.789 887.176 212.233 887.176 210.275V196.323C887.176 194.051 887.805 192.267 889.064 190.974C890.323 189.68 892.194 189.033 894.676 189.033C897.159 189.033 899.012 189.68 900.236 190.974C901.495 192.267 902.124 194.051 902.124 196.323V198.736C902.124 200.205 901.705 201.324 900.865 202.093C900.026 202.827 898.925 203.387 897.561 203.771L891.372 205.502V210.642C891.372 211.482 891.617 212.181 892.106 212.74C892.631 213.265 893.295 213.527 894.099 213.527H899.764V216.674H893.47ZM894.571 201.306C895.725 200.992 896.495 200.764 896.879 200.624C897.299 200.45 897.579 200.205 897.718 199.89C897.858 199.575 897.928 199.051 897.928 198.317V195.432C897.928 194.313 897.631 193.491 897.037 192.967C896.477 192.442 895.69 192.18 894.676 192.18C893.697 192.18 892.893 192.46 892.264 193.019C891.669 193.579 891.372 194.383 891.372 195.432V202.198L894.571 201.306ZM904.727 213.527H909.186C910.689 213.527 911.773 213.125 912.438 212.321C913.137 211.482 913.487 210.398 913.487 209.069C913.487 208.02 913.172 207.128 912.543 206.394C911.913 205.66 910.969 204.803 909.71 203.824C908.626 202.95 907.752 202.198 907.088 201.568C906.458 200.904 905.899 200.1 905.409 199.156C904.955 198.177 904.727 197.058 904.727 195.799C904.727 193.946 905.339 192.425 906.563 191.236C907.822 190.012 909.5 189.4 911.598 189.4H916.162V192.547H912.385C909.903 192.547 908.661 193.718 908.661 196.061C908.661 196.97 908.941 197.757 909.5 198.421C910.06 199.086 910.934 199.873 912.123 200.782C913.207 201.621 914.099 202.39 914.798 203.09C915.497 203.754 916.092 204.611 916.581 205.66C917.071 206.674 917.315 207.88 917.315 209.279C917.315 211.761 916.651 213.614 915.322 214.838C914.029 216.062 912.193 216.674 909.815 216.674H904.727V213.527ZM935.473 216.674C934.215 216.674 933.043 216.359 931.959 215.73C930.91 215.101 930.071 214.244 929.442 213.16C928.847 212.076 928.55 210.852 928.55 209.488V206.761C928.55 205.118 928.952 203.736 929.756 202.617C930.596 201.499 931.627 200.712 932.851 200.257L939.355 197.845V195.379C939.355 194.54 939.093 193.858 938.568 193.334C938.079 192.774 937.432 192.495 936.627 192.495H930.701V189.4H936.995C938.918 189.4 940.439 189.977 941.558 191.131C942.712 192.25 943.289 193.788 943.289 195.747V216.674H935.473ZM939.355 213.475V201.149L934.739 202.88C933.83 203.229 933.183 203.701 932.799 204.296C932.449 204.89 932.274 205.834 932.274 207.128V210.065C932.274 211.009 932.624 211.814 933.323 212.478C934.022 213.142 934.862 213.475 935.841 213.475H939.355ZM949.07 189.4H957.567C959.49 189.4 961.116 190.029 962.445 191.288C963.809 192.547 964.491 194.121 964.491 196.009V210.118C964.491 212.006 963.826 213.58 962.497 214.838C961.169 216.062 959.543 216.674 957.62 216.674H953.266V225.066H949.07V189.4ZM956.728 213.58C957.707 213.58 958.546 213.247 959.246 212.583C959.945 211.919 960.295 211.097 960.295 210.118V196.009C960.295 195.03 959.945 194.208 959.246 193.544C958.546 192.879 957.707 192.547 956.728 192.547H953.266V213.58H956.728ZM969.456 189.4H977.953C979.876 189.4 981.502 190.029 982.831 191.288C984.195 192.547 984.876 194.121 984.876 196.009V210.118C984.876 212.006 984.212 213.58 982.883 214.838C981.555 216.062 979.929 216.674 978.005 216.674H973.652V225.066H969.456V189.4ZM977.114 213.58C978.093 213.58 978.932 213.247 979.631 212.583C980.331 211.919 980.68 211.097 980.68 210.118V196.009C980.68 195.03 980.331 194.208 979.631 193.544C978.932 192.879 978.093 192.547 977.114 192.547H973.652V213.58H977.114ZM995.402 216.674C994.143 216.674 992.972 216.359 991.888 215.73C990.839 215.101 989.999 214.244 989.37 213.16C988.776 212.076 988.478 210.852 988.478 209.488V206.761C988.478 205.118 988.88 203.736 989.685 202.617C990.524 201.499 991.555 200.712 992.779 200.257L999.283 197.845V195.379C999.283 194.54 999.021 193.858 998.496 193.334C998.007 192.774 997.36 192.495 996.556 192.495H990.629V189.4H996.923C998.846 189.4 1000.37 189.977 1001.49 191.131C1002.64 192.25 1003.22 193.788 1003.22 195.747V216.674H995.402ZM999.283 213.475V201.149L994.667 202.88C993.758 203.229 993.111 203.701 992.727 204.296C992.377 204.89 992.202 205.834 992.202 207.128V210.065C992.202 211.009 992.552 211.814 993.251 212.478C993.951 213.142 994.79 213.475 995.769 213.475H999.283ZM1009 189.4H1012.25L1012.72 191.341L1014.03 190.711C1015.15 190.152 1016.08 189.732 1016.81 189.453C1017.58 189.173 1018.35 189.033 1019.12 189.033V192.127C1018.67 192.127 1018.05 192.267 1017.29 192.547C1016.52 192.792 1015.15 193.386 1013.19 194.33V216.674H1009V189.4ZM1030.64 216.674C1028.72 216.674 1027.19 216.097 1026.08 214.943C1024.96 213.789 1024.4 212.233 1024.4 210.275V192.547H1021.25V189.4H1024.4V181.48L1028.59 179.907V189.4H1032.79V192.547H1028.59V210.642C1028.59 211.482 1028.82 212.181 1029.27 212.74C1029.76 213.265 1030.41 213.527 1031.22 213.527H1032.79V216.674H1030.64ZM1036.97 184.942V180.746H1041.16V184.942H1036.97ZM1036.97 216.674V189.4H1041.16V216.674H1036.97ZM1052.92 216.674C1051 216.674 1049.46 216.097 1048.3 214.943C1047.19 213.789 1046.63 212.233 1046.63 210.275V196.323C1046.63 194.051 1047.26 192.267 1048.51 190.974C1049.77 189.68 1051.64 189.033 1054.13 189.033C1056.61 189.033 1058.46 189.68 1059.69 190.974C1060.94 192.267 1061.57 194.051 1061.57 196.323V198.736C1061.57 200.205 1061.15 201.324 1060.32 202.093C1059.48 202.827 1058.37 203.387 1057.01 203.771L1050.82 205.502V210.642C1050.82 211.482 1051.07 212.181 1051.56 212.74C1052.08 213.265 1052.75 213.527 1053.55 213.527H1059.21V216.674H1052.92ZM1054.02 201.306C1055.18 200.992 1055.94 200.764 1056.33 200.624C1056.75 200.45 1057.03 200.205 1057.17 199.89C1057.31 199.575 1057.38 199.051 1057.38 198.317V195.432C1057.38 194.313 1057.08 193.491 1056.49 192.967C1055.93 192.442 1055.14 192.18 1054.13 192.18C1053.15 192.18 1052.34 192.46 1051.71 193.019C1051.12 193.579 1050.82 194.383 1050.82 195.432V202.198L1054.02 201.306ZM1065.75 189.4H1069L1069.48 190.921L1071.63 190.292C1073.09 189.837 1074.25 189.522 1075.09 189.348C1075.96 189.138 1076.78 189.033 1077.55 189.033C1078.81 189.033 1079.74 189.47 1080.33 190.344C1080.93 191.218 1081.22 192.355 1081.22 193.753V216.674H1077.03V195.117C1077.03 194.103 1076.96 193.404 1076.82 193.019C1076.68 192.6 1076.33 192.39 1075.77 192.39C1075.49 192.39 1073.55 192.949 1069.95 194.068V216.674H1065.75V189.4ZM1087.06 189.4H1090.31L1090.78 190.921L1092.93 190.292C1094.4 189.837 1095.56 189.522 1096.39 189.348C1097.27 189.138 1098.09 189.033 1098.86 189.033C1100.12 189.033 1101.05 189.47 1101.64 190.344C1102.23 191.218 1102.53 192.355 1102.53 193.753V216.674H1098.34V195.117C1098.34 194.103 1098.27 193.404 1098.13 193.019C1097.99 192.6 1097.64 192.39 1097.08 192.39C1096.8 192.39 1094.86 192.949 1091.25 194.068V216.674H1087.06V189.4ZM1113.82 216.674C1111.9 216.674 1110.36 216.097 1109.21 214.943C1108.09 213.789 1107.53 212.233 1107.53 210.275V196.323C1107.53 194.051 1108.16 192.267 1109.42 190.974C1110.67 189.68 1112.55 189.033 1115.03 189.033C1117.51 189.033 1119.36 189.68 1120.59 190.974C1121.85 192.267 1122.48 194.051 1122.48 196.323V198.736C1122.48 200.205 1122.06 201.324 1121.22 202.093C1120.38 202.827 1119.28 203.387 1117.91 203.771L1111.72 205.502V210.642C1111.72 211.482 1111.97 212.181 1112.46 212.74C1112.98 213.265 1113.65 213.527 1114.45 213.527H1120.12V216.674H1113.82ZM1114.92 201.306C1116.08 200.992 1116.85 200.764 1117.23 200.624C1117.65 200.45 1117.93 200.205 1118.07 199.89C1118.21 199.575 1118.28 199.051 1118.28 198.317V195.432C1118.28 194.313 1117.98 193.491 1117.39 192.967C1116.83 192.442 1116.04 192.18 1115.03 192.18C1114.05 192.18 1113.24 192.46 1112.62 193.019C1112.02 193.579 1111.72 194.383 1111.72 195.432V202.198L1114.92 201.306ZM1126.65 189.4H1129.9L1130.38 190.921L1132.53 190.292C1134 189.837 1135.15 189.522 1135.99 189.348C1136.86 189.138 1137.68 189.033 1138.45 189.033C1139.71 189.033 1140.64 189.47 1141.23 190.344C1141.83 191.218 1142.13 192.355 1142.13 193.753V216.674H1137.93V195.117C1137.93 194.103 1137.86 193.404 1137.72 193.019C1137.58 192.6 1137.23 192.39 1136.67 192.39C1136.39 192.39 1134.45 192.949 1130.85 194.068V216.674H1126.65V189.4ZM1155.57 216.674C1153.64 216.674 1152.12 216.097 1151 214.943C1149.88 213.789 1149.32 212.233 1149.32 210.275V192.547H1146.18V189.4H1149.32V181.48L1153.52 179.907V189.4H1157.72V192.547H1153.52V210.642C1153.52 211.482 1153.75 212.181 1154.2 212.74C1154.69 213.265 1155.34 213.527 1156.14 213.527H1157.72V216.674H1155.57ZM1160.9 216.674V211.272H1165.09V216.674H1160.9Z" fill="#1E1E1E"/>
<rect width="448.945" height="88.9178" fill="black"/>
<path d="M205.958 60.9281C205.554 60.9281 205.352 60.7262 205.352 60.3224V55.7678C205.352 55.5578 205.36 55.3883 205.377 55.259C205.409 55.1298 205.506 55.0249 205.667 54.9441L212.015 52.0369V47.7245L205.764 43.8483C205.49 43.6867 205.352 43.4445 205.352 43.1215V34.2303C205.352 33.9718 205.368 33.7861 205.401 33.673C205.433 33.5438 205.554 33.4065 205.764 33.2612L212.136 28.9488C212.297 28.8519 212.443 28.7792 212.572 28.7308C212.717 28.6662 212.895 28.6339 213.105 28.6339H219.646C220.05 28.6339 220.252 28.8358 220.252 29.2395V33.3581C220.252 33.7134 220.131 33.9557 219.888 34.0849L213.541 36.7014V41.1833L219.888 44.8173C220.131 44.9304 220.252 45.1888 220.252 45.5926V56.1312C220.252 56.2604 220.227 56.3977 220.179 56.5431C220.147 56.6884 220.066 56.7934 219.937 56.858L212.33 60.6374C212.233 60.6858 212.112 60.7504 211.966 60.8312C211.837 60.8958 211.708 60.9281 211.579 60.9281H205.958ZM230.788 60.9281C230.385 60.9281 230.183 60.7262 230.183 60.3224V35.0782H225.943C225.539 35.0782 225.337 34.8763 225.337 34.4725V29.2395C225.337 28.8358 225.539 28.6339 225.943 28.6339H242.49C242.894 28.6339 243.096 28.8358 243.096 29.2395V34.4725C243.096 34.8763 242.894 35.0782 242.49 35.0782H238.25V60.3224C238.25 60.7262 238.048 60.9281 237.645 60.9281H230.788ZM249.507 60.9281C249.104 60.9281 248.902 60.7262 248.902 60.3224V29.2395C248.902 28.8358 249.104 28.6339 249.507 28.6339H262.638C263.026 28.6339 263.349 28.7389 263.607 28.9488L269.179 34.4725C269.357 34.634 269.462 34.7713 269.494 34.8844C269.543 34.9974 269.567 35.1832 269.567 35.4416V42.0797C269.567 42.2897 269.486 42.4754 269.325 42.6369L266.66 45.2292L264.407 47.1673L267.072 50.7044L269.809 56.5673C269.874 56.7127 269.922 56.858 269.955 57.0034C270.003 57.1326 270.027 57.2941 270.027 57.4879V60.3224C270.027 60.7262 269.826 60.9281 269.422 60.9281H263.026C262.671 60.9281 262.428 60.7666 262.299 60.4436L258.399 49.1055H256.582V60.3224C256.582 60.7262 256.38 60.9281 255.976 60.9281H249.507ZM259.247 43.1699C260.587 43.1699 261.5 42.8953 261.984 42.3462C262.469 41.7809 262.711 40.7311 262.711 39.1967C262.711 37.6462 262.469 36.5964 261.984 36.0473C261.5 35.482 260.587 35.1993 259.247 35.1993C257.922 35.1993 257.01 35.482 256.509 36.0473C256.008 36.5964 255.758 37.6462 255.758 39.1967C255.758 40.7311 256.008 41.7809 256.509 42.3462C257.01 42.8953 257.922 43.1699 259.247 43.1699ZM274.322 60.9281C273.918 60.9281 273.716 60.7262 273.716 60.3224V37.8643C273.716 37.6543 273.797 37.412 273.958 37.1375L279.7 28.9973C279.878 28.755 280.136 28.6339 280.475 28.6339H288.494C288.85 28.6339 289.108 28.755 289.269 28.9973L295.035 37.1375C295.197 37.3636 295.278 37.6058 295.278 37.8643V60.3224C295.278 60.7262 295.076 60.9281 294.672 60.9281H287.816C287.412 60.9281 287.21 60.7262 287.21 60.3224V50.0261H281.808V60.3224C281.808 60.7262 281.606 60.9281 281.202 60.9281H274.322ZM284.497 44.8173C285.983 44.8173 286.984 44.4943 287.501 43.8483C288.034 43.1861 288.3 41.9343 288.3 40.0931C288.3 38.2519 288.034 37.0082 287.501 36.3622C286.984 35.7 285.983 35.3689 284.497 35.3689C283.027 35.3689 282.026 35.7 281.493 36.3622C280.976 37.0082 280.717 38.2519 280.717 40.0931C280.717 41.9343 280.976 43.1861 281.493 43.8483C282.026 44.4943 283.027 44.8173 284.497 44.8173ZM306.402 60.9281C305.999 60.9281 305.797 60.7262 305.797 60.3224V35.0782H301.557C301.153 35.0782 300.951 34.8763 300.951 34.4725V29.2395C300.951 28.8358 301.153 28.6339 301.557 28.6339H318.104C318.508 28.6339 318.709 28.8358 318.709 29.2395V34.4725C318.709 34.8763 318.508 35.0782 318.104 35.0782H313.864V60.3224C313.864 60.7262 313.662 60.9281 313.258 60.9281H306.402ZM325.121 60.9281C324.717 60.9281 324.516 60.7262 324.516 60.3224V29.2395C324.516 28.8358 324.717 28.6339 325.121 28.6339H342.007C342.411 28.6339 342.613 28.8358 342.613 29.2395V34.4725C342.613 34.8763 342.411 35.0782 342.007 35.0782H332.583V41.9586H341.184C341.587 41.9586 341.789 42.1605 341.789 42.5642V46.9977C341.789 47.4015 341.587 47.6034 341.184 47.6034H332.583V54.4596H342.007C342.411 54.4596 342.613 54.6615 342.613 55.0652V60.3224C342.613 60.7262 342.411 60.9281 342.007 60.9281H325.121ZM336.411 27.4468L330.16 24.8303C329.854 24.6688 329.765 24.4507 329.894 24.1762L331.275 21.2932C331.42 20.9056 331.638 20.8006 331.929 20.9782L337.646 24.6849C337.937 24.8787 338.026 25.121 337.913 25.4117L337.065 27.2287C336.952 27.5194 336.734 27.5921 336.411 27.4468ZM354.637 60.9281C354.25 60.9281 353.927 60.7908 353.668 60.5162L348.823 55.6709C348.548 55.4125 348.411 55.0895 348.411 54.7018V34.8359C348.411 34.4644 348.548 34.1414 348.823 33.8668L353.668 29.0215C353.927 28.7631 354.25 28.6339 354.637 28.6339H368.955C369.359 28.6339 369.561 28.8358 369.561 29.2395V34.4725C369.561 34.8763 369.359 35.0782 368.955 35.0782H357.302C357.076 35.0782 356.882 35.1589 356.721 35.3205C356.559 35.482 356.479 35.6758 356.479 35.9019V53.6116C356.479 53.8377 356.559 54.0316 356.721 54.1931C356.882 54.3546 357.076 54.4353 357.302 54.4353H362.535V47.9668H359.434C359.03 47.9668 358.829 47.7649 358.829 47.3611V42.1524C358.829 41.7486 359.03 41.5467 359.434 41.5467H369.367C369.771 41.5467 369.973 41.7486 369.973 42.1524V54.7018C369.973 55.0895 369.836 55.4125 369.561 55.6709L364.716 60.5162C364.457 60.7908 364.134 60.9281 363.747 60.9281H354.637ZM375.657 60.9281C375.253 60.9281 375.051 60.7262 375.051 60.3224V29.2395C375.051 28.8358 375.253 28.6339 375.657 28.6339H392.543C392.946 28.6339 393.148 28.8358 393.148 29.2395V34.4725C393.148 34.8763 392.946 35.0782 392.543 35.0782H383.119V41.9586H391.719C392.123 41.9586 392.325 42.1605 392.325 42.5642V46.9977C392.325 47.4015 392.123 47.6034 391.719 47.6034H383.119V54.4596H392.543C392.946 54.4596 393.148 54.6615 393.148 55.0652V60.3224C393.148 60.7262 392.946 60.9281 392.543 60.9281H375.657Z" fill="#FFF1E9"/>
</svg>
