<svg width="1240" height="279" viewBox="0 0 1240 279" fill="none" xmlns="http://www.w3.org/2000/svg">
<rect x="80.8187" y="40.7006" width="1154.82" height="233.662" fill="#FFF1E9" stroke="black" stroke-width="7.51635"/>
<path d="M227.672 156.212H233.389C235.382 156.212 236.816 155.618 237.69 154.429C238.599 153.24 239.054 151.772 239.054 150.023C239.054 148.66 238.792 147.488 238.267 146.509C237.777 145.495 237.166 144.656 236.431 143.992C235.697 143.327 234.7 142.558 233.442 141.684C232.113 140.775 231.029 139.953 230.19 139.219C229.385 138.449 228.704 137.488 228.144 136.334C227.585 135.18 227.305 133.799 227.305 132.19C227.305 129.393 228.144 127.155 229.823 125.477C231.501 123.798 233.826 122.959 236.798 122.959H241.047V126.421H237.008C235.33 126.421 234.054 126.963 233.179 128.047C232.305 129.131 231.868 130.389 231.868 131.823C231.868 133.222 232.27 134.376 233.074 135.285C233.879 136.194 235.103 137.225 236.746 138.379C238.25 139.463 239.456 140.442 240.365 141.317C241.274 142.156 242.043 143.275 242.673 144.673C243.337 146.072 243.669 147.75 243.669 149.709C243.669 152.995 242.725 155.478 240.837 157.156C238.984 158.835 236.431 159.674 233.179 159.674H227.672V156.212ZM248.108 127.942V123.746H252.304V127.942H248.108ZM248.108 159.674V132.4H252.304V159.674H248.108ZM274.101 159.674C272.178 159.674 270.657 159.097 269.538 157.943C268.419 156.789 267.86 155.233 267.86 153.275V135.547H264.713V132.4H267.86V124.48L272.056 122.907V132.4H276.252V135.547H272.056V153.642C272.056 154.482 272.283 155.181 272.738 155.74C273.227 156.265 273.874 156.527 274.678 156.527H276.252V159.674H274.101ZM283.628 160.041C282.369 160.041 281.425 159.604 280.795 158.73C280.201 157.856 279.904 156.719 279.904 155.321V132.4H284.1V153.957C284.1 154.936 284.17 155.635 284.31 156.055C284.449 156.475 284.782 156.684 285.306 156.684C285.551 156.684 287.526 156.16 291.233 155.111V132.4H295.429V159.674H292.439L291.653 157.891C291.093 158.101 290.673 158.24 290.394 158.31C288.75 158.905 287.422 159.342 286.408 159.622C285.393 159.901 284.467 160.041 283.628 160.041ZM313.505 159.674L307.264 132.4H311.617L315.656 154.377L319.642 132.4H323.995L317.754 159.674H313.505ZM327.91 127.942V123.746H332.106V127.942H327.91ZM327.91 159.674V132.4H332.106V159.674H327.91ZM336.837 156.527H341.295C342.798 156.527 343.882 156.125 344.547 155.321C345.246 154.482 345.596 153.398 345.596 152.069C345.596 151.02 345.281 150.128 344.652 149.394C344.022 148.66 343.078 147.803 341.819 146.824C340.735 145.95 339.861 145.198 339.197 144.568C338.567 143.904 338.008 143.1 337.518 142.156C337.064 141.177 336.837 140.058 336.837 138.799C336.837 136.946 337.448 135.425 338.672 134.236C339.931 133.012 341.609 132.4 343.707 132.4H348.271V135.547H344.494C342.012 135.547 340.77 136.718 340.77 139.061C340.77 139.97 341.05 140.757 341.609 141.421C342.169 142.086 343.043 142.873 344.232 143.782C345.316 144.621 346.208 145.39 346.907 146.09C347.606 146.754 348.201 147.611 348.69 148.66C349.18 149.674 349.425 150.88 349.425 152.279C349.425 154.761 348.76 156.614 347.431 157.838C346.138 159.062 344.302 159.674 341.924 159.674H336.837V156.527ZM359.59 159.674C357.666 159.674 356.128 159.097 354.974 157.943C353.855 156.789 353.296 155.233 353.296 153.275V139.323C353.296 137.051 353.925 135.267 355.184 133.974C356.443 132.68 358.313 132.033 360.796 132.033C363.279 132.033 365.132 132.68 366.356 133.974C367.614 135.267 368.244 137.051 368.244 139.323V141.736C368.244 143.205 367.824 144.324 366.985 145.093C366.146 145.827 365.044 146.387 363.681 146.771L357.492 148.502V153.642C357.492 154.482 357.736 155.181 358.226 155.74C358.75 156.265 359.415 156.527 360.219 156.527H365.884V159.674H359.59ZM360.691 144.306C361.845 143.992 362.614 143.764 362.999 143.624C363.418 143.45 363.698 143.205 363.838 142.89C363.978 142.575 364.048 142.051 364.048 141.317V138.432C364.048 137.313 363.751 136.491 363.156 135.967C362.597 135.442 361.81 135.18 360.796 135.18C359.817 135.18 359.013 135.46 358.383 136.019C357.789 136.579 357.492 137.383 357.492 138.432V145.198L360.691 144.306ZM370.847 156.527H375.305C376.809 156.527 377.893 156.125 378.557 155.321C379.257 154.482 379.606 153.398 379.606 152.069C379.606 151.02 379.292 150.128 378.662 149.394C378.033 148.66 377.089 147.803 375.83 146.824C374.746 145.95 373.872 145.198 373.207 144.568C372.578 143.904 372.018 143.1 371.529 142.156C371.074 141.177 370.847 140.058 370.847 138.799C370.847 136.946 371.459 135.425 372.683 134.236C373.942 133.012 375.62 132.4 377.718 132.4H382.281V135.547H378.505C376.022 135.547 374.781 136.718 374.781 139.061C374.781 139.97 375.061 140.757 375.62 141.421C376.18 142.086 377.054 142.873 378.243 143.782C379.327 144.621 380.218 145.39 380.917 146.09C381.617 146.754 382.211 147.611 382.701 148.66C383.19 149.674 383.435 150.88 383.435 152.279C383.435 154.761 382.771 156.614 381.442 157.838C380.148 159.062 378.312 159.674 375.935 159.674H370.847V156.527ZM396.977 127.942V123.746H401.173V127.942H396.977ZM393.149 164.919H394.407C395.212 164.919 395.841 164.639 396.296 164.08C396.785 163.555 397.03 162.874 397.03 162.034V132.4H401.226V161.667C401.226 163.625 400.666 165.181 399.547 166.335C398.429 167.489 396.908 168.066 394.984 168.066H393.149V164.919ZM410.706 160.041C409.447 160.041 408.503 159.604 407.874 158.73C407.279 157.856 406.982 156.719 406.982 155.321V132.4H411.178V153.957C411.178 154.936 411.248 155.635 411.388 156.055C411.528 156.475 411.86 156.684 412.385 156.684C412.629 156.684 414.605 156.16 418.311 155.111V132.4H422.507V159.674H419.518L418.731 157.891C418.172 158.101 417.752 158.24 417.472 158.31C415.829 158.905 414.5 159.342 413.486 159.622C412.472 159.901 411.545 160.041 410.706 160.041ZM427.241 156.527H431.699C433.203 156.527 434.287 156.125 434.951 155.321C435.651 154.482 436 153.398 436 152.069C436 151.02 435.686 150.128 435.056 149.394C434.427 148.66 433.483 147.803 432.224 146.824C431.14 145.95 430.266 145.198 429.601 144.568C428.972 143.904 428.412 143.1 427.923 142.156C427.468 141.177 427.241 140.058 427.241 138.799C427.241 136.946 427.853 135.425 429.077 134.236C430.336 133.012 432.014 132.4 434.112 132.4H438.675V135.547H434.899C432.416 135.547 431.175 136.718 431.175 139.061C431.175 139.97 431.455 140.757 432.014 141.421C432.574 142.086 433.448 142.873 434.637 143.782C435.721 144.621 436.612 145.39 437.311 146.09C438.011 146.754 438.605 147.611 439.095 148.66C439.584 149.674 439.829 150.88 439.829 152.279C439.829 154.761 439.165 156.614 437.836 157.838C436.542 159.062 434.706 159.674 432.329 159.674H427.241V156.527ZM452.145 159.674C450.221 159.674 448.7 159.097 447.581 157.943C446.463 156.789 445.903 155.233 445.903 153.275V135.547H442.756V132.4H445.903V124.48L450.099 122.907V132.4H454.295V135.547H450.099V153.642C450.099 154.482 450.326 155.181 450.781 155.74C451.27 156.265 451.917 156.527 452.722 156.527H454.295V159.674H452.145ZM463.926 159.674C462.003 159.674 460.464 159.097 459.311 157.943C458.192 156.789 457.632 155.233 457.632 153.275V139.323C457.632 137.051 458.262 135.267 459.52 133.974C460.779 132.68 462.65 132.033 465.133 132.033C467.615 132.033 469.468 132.68 470.692 133.974C471.951 135.267 472.58 137.051 472.58 139.323V141.736C472.58 143.205 472.161 144.324 471.322 145.093C470.482 145.827 469.381 146.387 468.017 146.771L461.828 148.502V153.642C461.828 154.482 462.073 155.181 462.562 155.74C463.087 156.265 463.751 156.527 464.556 156.527H470.22V159.674H463.926ZM465.028 144.306C466.182 143.992 466.951 143.764 467.335 143.624C467.755 143.45 468.035 143.205 468.175 142.89C468.314 142.575 468.384 142.051 468.384 141.317V138.432C468.384 137.313 468.087 136.491 467.493 135.967C466.933 135.442 466.147 135.18 465.133 135.18C464.153 135.18 463.349 135.46 462.72 136.019C462.125 136.579 461.828 137.383 461.828 138.432V145.198L465.028 144.306ZM473.558 166.125L475.813 159.674V154.272H480.009V159.622L476.81 166.125H473.558ZM499.729 159.674C497.805 159.674 496.284 159.097 495.165 157.943C494.047 156.789 493.487 155.233 493.487 153.275V135.547H490.34V132.4H493.487V124.48L497.683 122.907V132.4H501.879V135.547H497.683V153.642C497.683 154.482 497.91 155.181 498.365 155.74C498.854 156.265 499.501 156.527 500.306 156.527H501.879V159.674H499.729ZM509.255 160.041C507.996 160.041 507.052 159.604 506.423 158.73C505.828 157.856 505.531 156.719 505.531 155.321V132.4H509.727V153.957C509.727 154.936 509.797 155.635 509.937 156.055C510.077 156.475 510.409 156.684 510.933 156.684C511.178 156.684 513.154 156.16 516.86 155.111V132.4H521.056V159.674H518.066L517.28 157.891C516.72 158.101 516.301 158.24 516.021 158.31C514.377 158.905 513.049 159.342 512.035 159.622C511.021 159.901 510.094 160.041 509.255 160.041ZM535.251 132.4H538.503L538.975 133.921L541.126 133.292C542.594 132.837 543.748 132.522 544.587 132.348C545.461 132.138 546.283 132.033 547.052 132.033C548.311 132.033 549.238 132.47 549.832 133.344C550.427 134.218 550.724 135.355 550.724 136.753V159.674H546.528V138.117C546.528 137.103 546.458 136.404 546.318 136.019C546.178 135.6 545.829 135.39 545.269 135.39C544.989 135.39 543.049 135.949 539.447 137.068V159.674H535.251V132.4ZM562.014 159.674C560.091 159.674 558.552 159.097 557.398 157.943C556.279 156.789 555.72 155.233 555.72 153.275V139.323C555.72 137.051 556.349 135.267 557.608 133.974C558.867 132.68 560.738 132.033 563.22 132.033C565.703 132.033 567.556 132.68 568.78 133.974C570.039 135.267 570.668 137.051 570.668 139.323V141.736C570.668 143.205 570.248 144.324 569.409 145.093C568.57 145.827 567.469 146.387 566.105 146.771L559.916 148.502V153.642C559.916 154.482 560.161 155.181 560.65 155.74C561.175 156.265 561.839 156.527 562.643 156.527H568.308V159.674H562.014ZM563.115 144.306C564.269 143.992 565.038 143.764 565.423 143.624C565.843 143.45 566.122 143.205 566.262 142.89C566.402 142.575 566.472 142.051 566.472 141.317V138.432C566.472 137.313 566.175 136.491 565.58 135.967C565.021 135.442 564.234 135.18 563.22 135.18C562.241 135.18 561.437 135.46 560.807 136.019C560.213 136.579 559.916 137.383 559.916 138.432V145.198L563.115 144.306ZM582.733 132.4H585.985L586.457 134.341L587.768 133.711C588.887 133.152 589.814 132.732 590.548 132.453C591.317 132.173 592.086 132.033 592.856 132.033V135.127C592.401 135.127 591.789 135.267 591.02 135.547C590.251 135.792 588.887 136.386 586.929 137.33V159.674H582.733V132.4ZM602.537 130.355L600.806 128.781L606.89 123.588L609.565 126.054L602.537 130.355ZM602.222 159.674C600.299 159.674 598.76 159.097 597.606 157.943C596.488 156.789 595.928 155.233 595.928 153.275V139.323C595.928 137.051 596.557 135.267 597.816 133.974C599.075 132.68 600.946 132.033 603.428 132.033C605.911 132.033 607.764 132.68 608.988 133.974C610.247 135.267 610.876 137.051 610.876 139.323V141.736C610.876 143.205 610.457 144.324 609.618 145.093C608.778 145.827 607.677 146.387 606.313 146.771L600.124 148.502V153.642C600.124 154.482 600.369 155.181 600.858 155.74C601.383 156.265 602.047 156.527 602.851 156.527H608.516V159.674H602.222ZM603.324 144.306C604.477 143.992 605.247 143.764 605.631 143.624C606.051 143.45 606.331 143.205 606.471 142.89C606.61 142.575 606.68 142.051 606.68 141.317V138.432C606.68 137.313 606.383 136.491 605.789 135.967C605.229 135.442 604.442 135.18 603.428 135.18C602.449 135.18 601.645 135.46 601.016 136.019C600.421 136.579 600.124 137.383 600.124 138.432V145.198L603.324 144.306ZM615.053 132.4H623.55C625.473 132.4 627.099 133.029 628.428 134.288C629.792 135.547 630.473 137.121 630.473 139.009V153.118C630.473 155.006 629.809 156.58 628.48 157.838C627.152 159.062 625.526 159.674 623.602 159.674H619.249V168.066H615.053V132.4ZM622.711 156.58C623.69 156.58 624.529 156.247 625.228 155.583C625.928 154.919 626.277 154.097 626.277 153.118V139.009C626.277 138.03 625.928 137.208 625.228 136.544C624.529 135.879 623.69 135.547 622.711 135.547H619.249V156.58H622.711ZM642.1 160.041C639.652 160.041 637.747 159.429 636.383 158.205C635.054 156.947 634.39 155.216 634.39 153.013V139.061C634.39 136.858 635.054 135.145 636.383 133.921C637.747 132.662 639.652 132.033 642.1 132.033C644.548 132.033 646.436 132.662 647.765 133.921C649.128 135.145 649.81 136.858 649.81 139.061V153.013C649.81 155.216 649.128 156.947 647.765 158.205C646.436 159.429 644.548 160.041 642.1 160.041ZM642.1 156.789C643.219 156.789 644.093 156.475 644.723 155.845C645.387 155.181 645.719 154.237 645.719 153.013V139.061C645.719 137.837 645.387 136.911 644.723 136.281C644.093 135.617 643.219 135.285 642.1 135.285C640.981 135.285 640.089 135.617 639.425 136.281C638.796 136.911 638.481 137.837 638.481 139.061V153.013C638.481 154.237 638.796 155.181 639.425 155.845C640.089 156.475 640.981 156.789 642.1 156.789ZM655.056 132.4H658.308L658.78 133.921L660.931 133.292C662.399 132.837 663.553 132.522 664.393 132.348C665.267 132.138 666.088 132.033 666.858 132.033C668.116 132.033 669.043 132.47 669.638 133.344C670.232 134.218 670.529 135.355 670.529 136.753V159.674H666.333V138.117C666.333 137.103 666.263 136.404 666.123 136.019C665.984 135.6 665.634 135.39 665.074 135.39C664.795 135.39 662.854 135.949 659.252 137.068V159.674H655.056V132.4ZM683.288 159.674C681.085 159.674 679.301 159.027 677.938 157.733C676.574 156.44 675.892 154.709 675.892 152.541V139.481C675.892 137.977 676.294 136.701 677.099 135.652C677.938 134.603 678.969 133.886 680.193 133.502L687.221 131.036V122.959H691.417V159.674H683.288ZM687.221 156.527V134.498L682.553 136.072C681.644 136.351 680.997 136.806 680.613 137.435C680.263 138.03 680.088 138.991 680.088 140.32V152.541C680.088 153.8 680.455 154.779 681.19 155.478C681.924 156.177 682.921 156.527 684.179 156.527H687.221ZM696.15 156.527H700.608C702.112 156.527 703.196 156.125 703.86 155.321C704.559 154.482 704.909 153.398 704.909 152.069C704.909 151.02 704.594 150.128 703.965 149.394C703.335 148.66 702.391 147.803 701.133 146.824C700.049 145.95 699.174 145.198 698.51 144.568C697.881 143.904 697.321 143.1 696.832 142.156C696.377 141.177 696.15 140.058 696.15 138.799C696.15 136.946 696.762 135.425 697.986 134.236C699.244 133.012 700.923 132.4 703.021 132.4H707.584V135.547H703.807C701.325 135.547 700.084 136.718 700.084 139.061C700.084 139.97 700.363 140.757 700.923 141.421C701.482 142.086 702.356 142.873 703.545 143.782C704.629 144.621 705.521 145.39 706.22 146.09C706.92 146.754 707.514 147.611 708.003 148.66C708.493 149.674 708.738 150.88 708.738 152.279C708.738 154.761 708.073 156.614 706.745 157.838C705.451 159.062 703.615 159.674 701.237 159.674H696.15V156.527ZM721.336 132.4H729.833C731.756 132.4 733.382 133.029 734.711 134.288C736.074 135.547 736.756 137.121 736.756 139.009V153.118C736.756 155.006 736.092 156.58 734.763 157.838C733.434 159.062 731.809 159.674 729.885 159.674H725.532V168.066H721.336V132.4ZM728.994 156.58C729.973 156.58 730.812 156.247 731.511 155.583C732.211 154.919 732.56 154.097 732.56 153.118V139.009C732.56 138.03 732.211 137.208 731.511 136.544C730.812 135.879 729.973 135.547 728.994 135.547H725.532V156.58H728.994ZM747.282 159.674C746.023 159.674 744.851 159.359 743.767 158.73C742.718 158.101 741.879 157.244 741.25 156.16C740.655 155.076 740.358 153.852 740.358 152.488V149.761C740.358 148.118 740.76 146.736 741.565 145.617C742.404 144.499 743.435 143.712 744.659 143.257L751.163 140.845V138.379C751.163 137.54 750.901 136.858 750.376 136.334C749.887 135.774 749.24 135.495 748.435 135.495H742.509V132.4H748.803C750.726 132.4 752.247 132.977 753.366 134.131C754.52 135.25 755.097 136.788 755.097 138.747V159.674H747.282ZM751.163 156.475V144.149L746.547 145.88C745.638 146.229 744.991 146.701 744.607 147.296C744.257 147.89 744.082 148.834 744.082 150.128V153.065C744.082 154.009 744.432 154.814 745.131 155.478C745.83 156.142 746.67 156.475 747.649 156.475H751.163ZM759.305 156.527H763.763C765.267 156.527 766.351 156.125 767.015 155.321C767.714 154.482 768.064 153.398 768.064 152.069C768.064 151.02 767.749 150.128 767.12 149.394C766.491 148.66 765.546 147.803 764.288 146.824C763.204 145.95 762.33 145.198 761.665 144.568C761.036 143.904 760.476 143.1 759.987 142.156C759.532 141.177 759.305 140.058 759.305 138.799C759.305 136.946 759.917 135.425 761.141 134.236C762.399 133.012 764.078 132.4 766.176 132.4H770.739V135.547H766.963C764.48 135.547 763.239 136.718 763.239 139.061C763.239 139.97 763.518 140.757 764.078 141.421C764.637 142.086 765.511 142.873 766.7 143.782C767.784 144.621 768.676 145.39 769.375 146.09C770.075 146.754 770.669 147.611 771.159 148.66C771.648 149.674 771.893 150.88 771.893 152.279C771.893 154.761 771.229 156.614 769.9 157.838C768.606 159.062 766.77 159.674 764.393 159.674H759.305V156.527ZM782.918 156.527H787.376C788.879 156.527 789.963 156.125 790.628 155.321C791.327 154.482 791.677 153.398 791.677 152.069C791.677 151.02 791.362 150.128 790.733 149.394C790.103 148.66 789.159 147.803 787.9 146.824C786.816 145.95 785.942 145.198 785.278 144.568C784.649 143.904 784.089 143.1 783.6 142.156C783.145 141.177 782.918 140.058 782.918 138.799C782.918 136.946 783.53 135.425 784.753 134.236C786.012 133.012 787.691 132.4 789.789 132.4H794.352V135.547H790.575C788.093 135.547 786.851 136.718 786.851 139.061C786.851 139.97 787.131 140.757 787.691 141.421C788.25 142.086 789.124 142.873 790.313 143.782C791.397 144.621 792.289 145.39 792.988 146.09C793.687 146.754 794.282 147.611 794.771 148.66C795.261 149.674 795.506 150.88 795.506 152.279C795.506 154.761 794.841 156.614 793.513 157.838C792.219 159.062 790.383 159.674 788.005 159.674H782.918V156.527ZM805.671 159.674C803.748 159.674 802.209 159.097 801.055 157.943C799.936 156.789 799.377 155.233 799.377 153.275V139.323C799.377 137.051 800.006 135.267 801.265 133.974C802.524 132.68 804.394 132.033 806.877 132.033C809.36 132.033 811.213 132.68 812.437 133.974C813.696 135.267 814.325 137.051 814.325 139.323V141.736C814.325 143.205 813.905 144.324 813.066 145.093C812.227 145.827 811.126 146.387 809.762 146.771L803.573 148.502V153.642C803.573 154.482 803.817 155.181 804.307 155.74C804.832 156.265 805.496 156.527 806.3 156.527H811.965V159.674H805.671ZM806.772 144.306C807.926 143.992 808.695 143.764 809.08 143.624C809.5 143.45 809.779 143.205 809.919 142.89C810.059 142.575 810.129 142.051 810.129 141.317V138.432C810.129 137.313 809.832 136.491 809.237 135.967C808.678 135.442 807.891 135.18 806.877 135.18C805.898 135.18 805.094 135.46 804.464 136.019C803.87 136.579 803.573 137.383 803.573 138.432V145.198L806.772 144.306ZM821.701 160.041C820.442 160.041 819.498 159.604 818.869 158.73C818.274 157.856 817.977 156.719 817.977 155.321V132.4H822.173V153.957C822.173 154.936 822.243 155.635 822.383 156.055C822.523 156.475 822.855 156.684 823.38 156.684C823.624 156.684 825.6 156.16 829.306 155.111V132.4H833.502V159.674H830.513L829.726 157.891C829.167 158.101 828.747 158.24 828.467 158.31C826.824 158.905 825.495 159.342 824.481 159.622C823.467 159.901 822.54 160.041 821.701 160.041ZM839.862 159.674V122.959H844.058V159.674H839.862ZM855.765 159.674C853.841 159.674 852.303 159.097 851.149 157.943C850.03 156.789 849.471 155.233 849.471 153.275V139.323C849.471 137.051 850.1 135.267 851.359 133.974C852.618 132.68 854.488 132.033 856.971 132.033C859.454 132.033 861.307 132.68 862.531 133.974C863.789 135.267 864.419 137.051 864.419 139.323V141.736C864.419 143.205 863.999 144.324 863.16 145.093C862.321 145.827 861.219 146.387 859.856 146.771L853.667 148.502V153.642C853.667 154.482 853.911 155.181 854.401 155.74C854.925 156.265 855.59 156.527 856.394 156.527H862.059V159.674H855.765ZM856.866 144.306C858.02 143.992 858.789 143.764 859.174 143.624C859.593 143.45 859.873 143.205 860.013 142.89C860.153 142.575 860.223 142.051 860.223 141.317V138.432C860.223 137.313 859.926 136.491 859.331 135.967C858.772 135.442 857.985 135.18 856.971 135.18C855.992 135.18 855.188 135.46 854.558 136.019C853.964 136.579 853.667 137.383 853.667 138.432V145.198L856.866 144.306ZM868.596 132.4H871.847L872.319 133.921L874.47 133.292C875.939 132.837 877.092 132.522 877.932 132.348C878.806 132.138 879.628 132.033 880.397 132.033C881.9 132.033 882.949 132.697 883.544 134.026C884.523 133.676 885.904 133.257 887.687 132.767C889.471 132.278 890.782 132.033 891.621 132.033C892.88 132.033 893.807 132.47 894.401 133.344C895.03 134.218 895.345 135.355 895.345 136.753V159.674H891.149V138.117C891.149 137.103 891.079 136.404 890.939 136.019C890.799 135.6 890.45 135.39 889.89 135.39C889.611 135.39 887.687 135.949 884.121 137.068V159.674H879.925V138.117C879.925 137.103 879.855 136.404 879.715 136.019C879.575 135.6 879.225 135.39 878.666 135.39C878.386 135.39 876.428 135.949 872.792 137.068V159.674H868.596V132.4ZM906.575 159.674C904.652 159.674 903.114 159.097 901.96 157.943C900.841 156.789 900.281 155.233 900.281 153.275V139.323C900.281 137.051 900.911 135.267 902.17 133.974C903.428 132.68 905.299 132.033 907.782 132.033C910.264 132.033 912.118 132.68 913.342 133.974C914.6 135.267 915.23 137.051 915.23 139.323V141.736C915.23 143.205 914.81 144.324 913.971 145.093C913.132 145.827 912.03 146.387 910.667 146.771L904.477 148.502V153.642C904.477 154.482 904.722 155.181 905.212 155.74C905.736 156.265 906.401 156.527 907.205 156.527H912.869V159.674H906.575ZM907.677 144.306C908.831 143.992 909.6 143.764 909.985 143.624C910.404 143.45 910.684 143.205 910.824 142.89C910.964 142.575 911.034 142.051 911.034 141.317V138.432C911.034 137.313 910.737 136.491 910.142 135.967C909.583 135.442 908.796 135.18 907.782 135.18C906.803 135.18 905.999 135.46 905.369 136.019C904.775 136.579 904.477 137.383 904.477 138.432V145.198L907.677 144.306ZM919.406 132.4H922.658L923.13 133.921L925.281 133.292C926.749 132.837 927.903 132.522 928.743 132.348C929.617 132.138 930.438 132.033 931.208 132.033C932.467 132.033 933.393 132.47 933.988 133.344C934.582 134.218 934.879 135.355 934.879 136.753V159.674H930.683V138.117C930.683 137.103 930.613 136.404 930.473 136.019C930.334 135.6 929.984 135.39 929.424 135.39C929.145 135.39 927.204 135.949 923.602 137.068V159.674H919.406V132.4ZM948.32 159.674C946.396 159.674 944.875 159.097 943.756 157.943C942.637 156.789 942.078 155.233 942.078 153.275V135.547H938.931V132.4H942.078V124.48L946.274 122.907V132.4H950.47V135.547H946.274V153.642C946.274 154.482 946.501 155.181 946.956 155.74C947.445 156.265 948.092 156.527 948.897 156.527H950.47V159.674H948.32ZM968.094 159.674C966.835 159.674 965.664 159.359 964.58 158.73C963.531 158.101 962.692 157.244 962.062 156.16C961.468 155.076 961.171 153.852 961.171 152.488V149.761C961.171 148.118 961.573 146.736 962.377 145.617C963.216 144.499 964.248 143.712 965.472 143.257L971.975 140.845V138.379C971.975 137.54 971.713 136.858 971.189 136.334C970.699 135.774 970.052 135.495 969.248 135.495H963.321V132.4H969.615C971.538 132.4 973.059 132.977 974.178 134.131C975.332 135.25 975.909 136.788 975.909 138.747V159.674H968.094ZM971.975 156.475V144.149L967.36 145.88C966.451 146.229 965.804 146.701 965.419 147.296C965.069 147.89 964.895 148.834 964.895 150.128V153.065C964.895 154.009 965.244 154.814 965.944 155.478C966.643 156.142 967.482 156.475 968.461 156.475H971.975ZM984.89 160.041C983.632 160.041 982.687 159.604 982.058 158.73C981.464 157.856 981.166 156.719 981.166 155.321V132.4H985.362V153.957C985.362 154.936 985.432 155.635 985.572 156.055C985.712 156.475 986.044 156.684 986.569 156.684C986.814 156.684 988.789 156.16 992.496 155.111V132.4H996.692V159.674H993.702L992.915 157.891C992.356 158.101 991.936 158.24 991.656 158.31C990.013 158.905 988.684 159.342 987.67 159.622C986.656 159.901 985.73 160.041 984.89 160.041ZM1011.83 127.942V123.746H1016.03V127.942H1011.83ZM1008 164.919H1009.26C1010.06 164.919 1010.69 164.639 1011.15 164.08C1011.64 163.555 1011.88 162.874 1011.88 162.034V132.4H1016.08V161.667C1016.08 163.625 1015.52 165.181 1014.4 166.335C1013.28 167.489 1011.76 168.066 1009.84 168.066H1008V164.919ZM1027.81 159.674C1025.89 159.674 1024.35 159.097 1023.2 157.943C1022.08 156.789 1021.52 155.233 1021.52 153.275V139.323C1021.52 137.051 1022.15 135.267 1023.41 133.974C1024.67 132.68 1026.54 132.033 1029.02 132.033C1031.5 132.033 1033.36 132.68 1034.58 133.974C1035.84 135.267 1036.47 137.051 1036.47 139.323V141.736C1036.47 143.205 1036.05 144.324 1035.21 145.093C1034.37 145.827 1033.27 146.387 1031.91 146.771L1025.72 148.502V153.642C1025.72 154.482 1025.96 155.181 1026.45 155.74C1026.98 156.265 1027.64 156.527 1028.44 156.527H1034.11V159.674H1027.81ZM1028.92 144.306C1030.07 143.992 1030.84 143.764 1031.22 143.624C1031.64 143.45 1031.92 143.205 1032.06 142.89C1032.2 142.575 1032.27 142.051 1032.27 141.317V138.432C1032.27 137.313 1031.98 136.491 1031.38 135.967C1030.82 135.442 1030.04 135.18 1029.02 135.18C1028.04 135.18 1027.24 135.46 1026.61 136.019C1026.01 136.579 1025.72 137.383 1025.72 138.432V145.198L1028.92 144.306ZM1043.85 160.041C1042.59 160.041 1041.64 159.604 1041.01 158.73C1040.42 157.856 1040.12 156.719 1040.12 155.321V132.4H1044.32V153.957C1044.32 154.936 1044.39 155.635 1044.53 156.055C1044.67 156.475 1045 156.684 1045.52 156.684C1045.77 156.684 1047.74 156.16 1051.45 155.111V132.4H1055.65V159.674H1052.66L1051.87 157.891C1051.31 158.101 1050.89 158.24 1050.61 158.31C1048.97 158.905 1047.64 159.342 1046.63 159.622C1045.61 159.901 1044.68 160.041 1043.85 160.041ZM1068.85 137.855V132.453H1073.04V137.855H1068.85ZM1068.85 159.674V154.272H1073.04V159.674H1068.85ZM235.225 216.674C233.302 216.674 231.781 216.097 230.662 214.943C229.543 213.789 228.983 212.233 228.983 210.275V192.547H225.836V189.4H228.983V181.48L233.179 179.907V189.4H237.375V192.547H233.179V210.642C233.179 211.482 233.407 212.181 233.861 212.74C234.351 213.265 234.998 213.527 235.802 213.527H237.375V216.674H235.225ZM244.751 217.041C243.492 217.041 242.548 216.604 241.919 215.73C241.324 214.856 241.027 213.719 241.027 212.321V189.4H245.223V210.957C245.223 211.936 245.293 212.635 245.433 213.055C245.573 213.475 245.905 213.684 246.43 213.684C246.674 213.684 248.65 213.16 252.356 212.111V189.4H256.552V216.674H253.563L252.776 214.891C252.217 215.101 251.797 215.24 251.517 215.31C249.874 215.905 248.545 216.342 247.531 216.622C246.517 216.901 245.59 217.041 244.751 217.041ZM270.747 189.4H279.244C281.168 189.4 282.794 190.029 284.122 191.288C285.486 192.547 286.168 194.121 286.168 196.009V210.118C286.168 212.006 285.503 213.58 284.175 214.838C282.846 216.062 281.22 216.674 279.297 216.674H274.943V225.066H270.747V189.4ZM278.405 213.58C279.384 213.58 280.223 213.247 280.923 212.583C281.622 211.919 281.972 211.097 281.972 210.118V196.009C281.972 195.03 281.622 194.208 280.923 193.544C280.223 192.879 279.384 192.547 278.405 192.547H274.943V213.58H278.405ZM291.133 189.4H294.385L294.857 191.341L296.169 190.711C297.287 190.152 298.214 189.732 298.948 189.453C299.718 189.173 300.487 189.033 301.256 189.033V192.127C300.802 192.127 300.19 192.267 299.42 192.547C298.651 192.792 297.287 193.386 295.329 194.33V216.674H291.133V189.4ZM311.829 217.041C309.381 217.041 307.476 216.429 306.112 215.205C304.783 213.947 304.119 212.216 304.119 210.013V196.061C304.119 193.858 304.783 192.145 306.112 190.921C307.476 189.662 309.381 189.033 311.829 189.033C314.277 189.033 316.165 189.662 317.494 190.921C318.857 192.145 319.539 193.858 319.539 196.061V210.013C319.539 212.216 318.857 213.947 317.494 215.205C316.165 216.429 314.277 217.041 311.829 217.041ZM311.829 213.789C312.948 213.789 313.822 213.475 314.451 212.845C315.116 212.181 315.448 211.237 315.448 210.013V196.061C315.448 194.837 315.116 193.911 314.451 193.281C313.822 192.617 312.948 192.285 311.829 192.285C310.71 192.285 309.818 192.617 309.154 193.281C308.525 193.911 308.21 194.837 308.21 196.061V210.013C308.21 211.237 308.525 212.181 309.154 212.845C309.818 213.475 310.71 213.789 311.829 213.789ZM327.985 217.041C326.726 217.041 325.782 216.604 325.152 215.73C324.558 214.856 324.261 213.719 324.261 212.321V189.4H328.457V210.957C328.457 211.936 328.527 212.635 328.667 213.055C328.806 213.475 329.139 213.684 329.663 213.684C329.908 213.684 331.884 213.16 335.59 212.111V189.4H339.786V216.674H336.796L336.01 214.891C335.45 215.101 335.031 215.24 334.751 215.31C333.107 215.905 331.779 216.342 330.765 216.622C329.751 216.901 328.824 217.041 327.985 217.041ZM349.974 216.674L343.733 189.4H348.086L352.125 211.377L356.111 189.4H360.464L354.223 216.674H349.974ZM369.834 216.674C367.911 216.674 366.372 216.097 365.218 214.943C364.099 213.789 363.54 212.233 363.54 210.275V196.323C363.54 194.051 364.169 192.267 365.428 190.974C366.687 189.68 368.557 189.033 371.04 189.033C373.523 189.033 375.376 189.68 376.6 190.974C377.859 192.267 378.488 194.051 378.488 196.323V198.736C378.488 200.205 378.068 201.324 377.229 202.093C376.39 202.827 375.289 203.387 373.925 203.771L367.736 205.502V210.642C367.736 211.482 367.981 212.181 368.47 212.74C368.995 213.265 369.659 213.527 370.463 213.527H376.128V216.674H369.834ZM370.935 201.306C372.089 200.992 372.858 200.764 373.243 200.624C373.663 200.45 373.942 200.205 374.082 199.89C374.222 199.575 374.292 199.051 374.292 198.317V195.432C374.292 194.313 373.995 193.491 373.4 192.967C372.841 192.442 372.054 192.18 371.04 192.18C370.061 192.18 369.257 192.46 368.627 193.019C368.033 193.579 367.736 194.383 367.736 195.432V202.198L370.935 201.306ZM381.091 213.527H385.549C387.053 213.527 388.137 213.125 388.801 212.321C389.501 211.482 389.85 210.398 389.85 209.069C389.85 208.02 389.536 207.128 388.906 206.394C388.277 205.66 387.333 204.803 386.074 203.824C384.99 202.95 384.116 202.198 383.451 201.568C382.822 200.904 382.263 200.1 381.773 199.156C381.319 198.177 381.091 197.058 381.091 195.799C381.091 193.946 381.703 192.425 382.927 191.236C384.186 190.012 385.864 189.4 387.962 189.4H392.525V192.547H388.749C386.266 192.547 385.025 193.718 385.025 196.061C385.025 196.97 385.305 197.757 385.864 198.421C386.424 199.086 387.298 199.873 388.487 200.782C389.571 201.621 390.462 202.39 391.162 203.09C391.861 203.754 392.455 204.611 392.945 205.66C393.434 206.674 393.679 207.88 393.679 209.279C393.679 211.761 393.015 213.614 391.686 214.838C390.392 216.062 388.557 216.674 386.179 216.674H381.091V213.527ZM416.505 216.674H412.152C410.229 216.674 408.603 216.062 407.274 214.838C405.945 213.58 405.281 212.006 405.281 210.118V196.009C405.281 194.121 405.945 192.547 407.274 191.288C408.638 190.029 410.281 189.4 412.204 189.4H420.754V225.066H416.505V216.674ZM416.558 213.527V192.547H413.044C412.064 192.547 411.225 192.879 410.526 193.544C409.827 194.208 409.477 195.03 409.477 196.009V210.065C409.477 211.044 409.827 211.866 410.526 212.531C411.225 213.195 412.064 213.527 413.044 213.527H416.558ZM430.273 217.041C429.014 217.041 428.07 216.604 427.44 215.73C426.846 214.856 426.549 213.719 426.549 212.321V189.4H430.745V210.957C430.745 211.936 430.815 212.635 430.954 213.055C431.094 213.475 431.426 213.684 431.951 213.684C432.196 213.684 434.171 213.16 437.878 212.111V189.4H442.074V216.674H439.084L438.297 214.891C437.738 215.101 437.318 215.24 437.039 215.31C435.395 215.905 434.066 216.342 433.052 216.622C432.038 216.901 431.112 217.041 430.273 217.041ZM453.836 216.674C451.913 216.674 450.374 216.097 449.22 214.943C448.101 213.789 447.542 212.233 447.542 210.275V196.323C447.542 194.051 448.171 192.267 449.43 190.974C450.689 189.68 452.559 189.033 455.042 189.033C457.525 189.033 459.378 189.68 460.602 190.974C461.861 192.267 462.49 194.051 462.49 196.323V198.736C462.49 200.205 462.07 201.324 461.231 202.093C460.392 202.827 459.29 203.387 457.927 203.771L451.738 205.502V210.642C451.738 211.482 451.982 212.181 452.472 212.74C452.996 213.265 453.661 213.527 454.465 213.527H460.13V216.674H453.836ZM454.937 201.306C456.091 200.992 456.86 200.764 457.245 200.624C457.665 200.45 457.944 200.205 458.084 199.89C458.224 199.575 458.294 199.051 458.294 198.317V195.432C458.294 194.313 457.997 193.491 457.402 192.967C456.843 192.442 456.056 192.18 455.042 192.18C454.063 192.18 453.259 192.46 452.629 193.019C452.035 193.579 451.738 194.383 451.738 195.432V202.198L454.937 201.306ZM482.16 216.674C480.237 216.674 478.716 216.097 477.597 214.943C476.478 213.789 475.918 212.233 475.918 210.275V192.547H472.771V189.4H475.918V181.48L480.114 179.907V189.4H484.31V192.547H480.114V210.642C480.114 211.482 480.342 212.181 480.796 212.74C481.286 213.265 481.933 213.527 482.737 213.527H484.31V216.674H482.16ZM491.686 217.041C490.427 217.041 489.483 216.604 488.854 215.73C488.259 214.856 487.962 213.719 487.962 212.321V189.4H492.158V210.957C492.158 211.936 492.228 212.635 492.368 213.055C492.508 213.475 492.84 213.684 493.365 213.684C493.609 213.684 495.585 213.16 499.291 212.111V189.4H503.487V216.674H500.498L499.711 214.891C499.152 215.101 498.732 215.24 498.452 215.31C496.809 215.905 495.48 216.342 494.466 216.622C493.452 216.901 492.525 217.041 491.686 217.041ZM523.242 216.674C521.983 216.674 520.812 216.359 519.728 215.73C518.679 215.101 517.84 214.244 517.21 213.16C516.616 212.076 516.319 210.852 516.319 209.488V206.761C516.319 205.118 516.721 203.736 517.525 202.617C518.364 201.499 519.396 200.712 520.62 200.257L527.123 197.845V195.379C527.123 194.54 526.861 193.858 526.337 193.334C525.847 192.774 525.2 192.495 524.396 192.495H518.469V189.4H524.763C526.686 189.4 528.207 189.977 529.326 191.131C530.48 192.25 531.057 193.788 531.057 195.747V216.674H523.242ZM527.123 213.475V201.149L522.508 202.88C521.599 203.229 520.952 203.701 520.567 204.296C520.218 204.89 520.043 205.834 520.043 207.128V210.065C520.043 211.009 520.392 211.814 521.092 212.478C521.791 213.142 522.63 213.475 523.609 213.475H527.123ZM535.266 213.527H539.724C541.227 213.527 542.311 213.125 542.976 212.321C543.675 211.482 544.025 210.398 544.025 209.069C544.025 208.02 543.71 207.128 543.081 206.394C542.451 205.66 541.507 204.803 540.248 203.824C539.164 202.95 538.29 202.198 537.626 201.568C536.996 200.904 536.437 200.1 535.947 199.156C535.493 198.177 535.266 197.058 535.266 195.799C535.266 193.946 535.877 192.425 537.101 191.236C538.36 190.012 540.038 189.4 542.136 189.4H546.7V192.547H542.923C540.441 192.547 539.199 193.718 539.199 196.061C539.199 196.97 539.479 197.757 540.038 198.421C540.598 199.086 541.472 199.873 542.661 200.782C543.745 201.621 544.637 202.39 545.336 203.09C546.035 203.754 546.63 204.611 547.119 205.66C547.609 206.674 547.854 207.88 547.854 209.279C547.854 211.761 547.189 213.614 545.86 214.838C544.567 216.062 542.731 216.674 540.353 216.674H535.266V213.527ZM566.221 216.674C564.298 216.674 562.76 216.097 561.606 214.943C560.487 213.789 559.927 212.233 559.927 210.275V196.323C559.927 194.121 560.504 192.425 561.658 191.236C562.812 190.012 564.49 189.4 566.693 189.4H572.515V192.547H566.798C565.994 192.547 565.347 192.827 564.858 193.386C564.368 193.911 564.123 194.593 564.123 195.432V210.642C564.123 211.482 564.368 212.181 564.858 212.74C565.382 213.265 566.046 213.527 566.851 213.527H572.515V216.674H566.221ZM582.838 217.041C580.39 217.041 578.484 216.429 577.121 215.205C575.792 213.947 575.128 212.216 575.128 210.013V196.061C575.128 193.858 575.792 192.145 577.121 190.921C578.484 189.662 580.39 189.033 582.838 189.033C585.285 189.033 587.174 189.662 588.502 190.921C589.866 192.145 590.548 193.858 590.548 196.061V210.013C590.548 212.216 589.866 213.947 588.502 215.205C587.174 216.429 585.285 217.041 582.838 217.041ZM582.838 213.789C583.957 213.789 584.831 213.475 585.46 212.845C586.125 212.181 586.457 211.237 586.457 210.013V196.061C586.457 194.837 586.125 193.911 585.46 193.281C584.831 192.617 583.957 192.285 582.838 192.285C581.719 192.285 580.827 192.617 580.163 193.281C579.533 193.911 579.219 194.837 579.219 196.061V210.013C579.219 211.237 579.533 212.181 580.163 212.845C580.827 213.475 581.719 213.789 582.838 213.789ZM595.794 189.4H599.046L599.518 190.921L601.668 190.292C603.137 189.837 604.291 189.522 605.13 189.348C606.004 189.138 606.826 189.033 607.595 189.033C609.099 189.033 610.148 189.697 610.742 191.026C611.721 190.676 613.103 190.257 614.886 189.767C616.669 189.278 617.98 189.033 618.82 189.033C620.078 189.033 621.005 189.47 621.599 190.344C622.229 191.218 622.544 192.355 622.544 193.753V216.674H618.348V195.117C618.348 194.103 618.278 193.404 618.138 193.019C617.998 192.6 617.648 192.39 617.089 192.39C616.809 192.39 614.886 192.949 611.319 194.068V216.674H607.123V195.117C607.123 194.103 607.053 193.404 606.913 193.019C606.774 192.6 606.424 192.39 605.864 192.39C605.585 192.39 603.627 192.949 599.99 194.068V216.674H595.794V189.4ZM628.319 189.4H636.816C638.739 189.4 640.365 190.029 641.694 191.288C643.058 192.547 643.74 194.121 643.74 196.009V210.118C643.74 212.006 643.075 213.58 641.746 214.838C640.418 216.062 638.792 216.674 636.869 216.674H632.515V225.066H628.319V189.4ZM635.977 213.58C636.956 213.58 637.795 213.247 638.495 212.583C639.194 211.919 639.544 211.097 639.544 210.118V196.009C639.544 195.03 639.194 194.208 638.495 193.544C637.795 192.879 636.956 192.547 635.977 192.547H632.515V213.58H635.977ZM648.705 189.4H651.957L652.429 191.341L653.74 190.711C654.859 190.152 655.786 189.732 656.52 189.453C657.289 189.173 658.059 189.033 658.828 189.033V192.127C658.373 192.127 657.761 192.267 656.992 192.547C656.223 192.792 654.859 193.386 652.901 194.33V216.674H648.705V189.4ZM662.74 184.942V180.746H666.936V184.942H662.74ZM662.74 216.674V189.4H666.936V216.674H662.74ZM671.666 213.527H676.125C677.628 213.527 678.712 213.125 679.376 212.321C680.076 211.482 680.425 210.398 680.425 209.069C680.425 208.02 680.111 207.128 679.481 206.394C678.852 205.66 677.908 204.803 676.649 203.824C675.565 202.95 674.691 202.198 674.027 201.568C673.397 200.904 672.838 200.1 672.348 199.156C671.894 198.177 671.666 197.058 671.666 195.799C671.666 193.946 672.278 192.425 673.502 191.236C674.761 190.012 676.439 189.4 678.537 189.4H683.1V192.547H679.324C676.841 192.547 675.6 193.718 675.6 196.061C675.6 196.97 675.88 197.757 676.439 198.421C676.999 199.086 677.873 199.873 679.062 200.782C680.146 201.621 681.037 202.39 681.737 203.09C682.436 203.754 683.03 204.611 683.52 205.66C684.01 206.674 684.254 207.88 684.254 209.279C684.254 211.761 683.59 213.614 682.261 214.838C680.967 216.062 679.132 216.674 676.754 216.674H671.666V213.527ZM702.622 216.674C700.699 216.674 699.16 216.097 698.006 214.943C696.888 213.789 696.328 212.233 696.328 210.275V196.323C696.328 194.121 696.905 192.425 698.059 191.236C699.213 190.012 700.891 189.4 703.094 189.4H708.916V192.547H703.199C702.395 192.547 701.748 192.827 701.258 193.386C700.769 193.911 700.524 194.593 700.524 195.432V210.642C700.524 211.482 700.769 212.181 701.258 212.74C701.783 213.265 702.447 213.527 703.251 213.527H708.916V216.674H702.622ZM719.238 217.041C716.791 217.041 714.885 216.429 713.521 215.205C712.193 213.947 711.528 212.216 711.528 210.013V196.061C711.528 193.858 712.193 192.145 713.521 190.921C714.885 189.662 716.791 189.033 719.238 189.033C721.686 189.033 723.574 189.662 724.903 190.921C726.267 192.145 726.949 193.858 726.949 196.061V210.013C726.949 212.216 726.267 213.947 724.903 215.205C723.574 216.429 721.686 217.041 719.238 217.041ZM719.238 213.789C720.357 213.789 721.232 213.475 721.861 212.845C722.525 212.181 722.857 211.237 722.857 210.013V196.061C722.857 194.837 722.525 193.911 721.861 193.281C721.232 192.617 720.357 192.285 719.238 192.285C718.12 192.285 717.228 192.617 716.563 193.281C715.934 193.911 715.619 194.837 715.619 196.061V210.013C715.619 211.237 715.934 212.181 716.563 212.845C717.228 213.475 718.12 213.789 719.238 213.789ZM732.195 189.4H735.447L735.919 190.921L738.069 190.292C739.538 189.837 740.692 189.522 741.531 189.348C742.405 189.138 743.227 189.033 743.996 189.033C745.5 189.033 746.549 189.697 747.143 191.026C748.122 190.676 749.503 190.257 751.287 189.767C753.07 189.278 754.381 189.033 755.22 189.033C756.479 189.033 757.406 189.47 758 190.344C758.63 191.218 758.944 192.355 758.944 193.753V216.674H754.748V195.117C754.748 194.103 754.678 193.404 754.539 193.019C754.399 192.6 754.049 192.39 753.49 192.39C753.21 192.39 751.287 192.949 747.72 194.068V216.674H743.524V195.117C743.524 194.103 743.454 193.404 743.314 193.019C743.174 192.6 742.825 192.39 742.265 192.39C741.985 192.39 740.027 192.949 736.391 194.068V216.674H732.195V189.4ZM764.72 189.4H767.972L768.444 190.921L770.594 190.292C772.063 189.837 773.217 189.522 774.056 189.348C774.93 189.138 775.752 189.033 776.521 189.033C778.025 189.033 779.074 189.697 779.668 191.026C780.647 190.676 782.028 190.257 783.812 189.767C785.595 189.278 786.906 189.033 787.745 189.033C789.004 189.033 789.931 189.47 790.525 190.344C791.155 191.218 791.469 192.355 791.469 193.753V216.674H787.273V195.117C787.273 194.103 787.204 193.404 787.064 193.019C786.924 192.6 786.574 192.39 786.015 192.39C785.735 192.39 783.812 192.949 780.245 194.068V216.674H776.049V195.117C776.049 194.103 775.979 193.404 775.839 193.019C775.699 192.6 775.35 192.39 774.79 192.39C774.511 192.39 772.552 192.949 768.916 194.068V216.674H764.72V189.4ZM802.7 216.674C800.777 216.674 799.238 216.097 798.084 214.943C796.965 213.789 796.406 212.233 796.406 210.275V196.323C796.406 194.051 797.035 192.267 798.294 190.974C799.553 189.68 801.424 189.033 803.906 189.033C806.389 189.033 808.242 189.68 809.466 190.974C810.725 192.267 811.354 194.051 811.354 196.323V198.736C811.354 200.205 810.935 201.324 810.095 202.093C809.256 202.827 808.155 203.387 806.791 203.771L800.602 205.502V210.642C800.602 211.482 800.847 212.181 801.336 212.74C801.861 213.265 802.525 213.527 803.329 213.527H808.994V216.674H802.7ZM803.801 201.306C804.955 200.992 805.725 200.764 806.109 200.624C806.529 200.45 806.808 200.205 806.948 199.89C807.088 199.575 807.158 199.051 807.158 198.317V195.432C807.158 194.313 806.861 193.491 806.266 192.967C805.707 192.442 804.92 192.18 803.906 192.18C802.927 192.18 802.123 192.46 801.494 193.019C800.899 193.579 800.602 194.383 800.602 195.432V202.198L803.801 201.306ZM815.531 189.4H818.783L819.255 190.921L821.405 190.292C822.874 189.837 824.028 189.522 824.867 189.348C825.741 189.138 826.563 189.033 827.332 189.033C828.591 189.033 829.518 189.47 830.112 190.344C830.706 191.218 831.004 192.355 831.004 193.753V216.674H826.808V195.117C826.808 194.103 826.738 193.404 826.598 193.019C826.458 192.6 826.108 192.39 825.549 192.39C825.269 192.39 823.328 192.949 819.727 194.068V216.674H815.531V189.4ZM844.444 216.674C842.521 216.674 841 216.097 839.881 214.943C838.762 213.789 838.202 212.233 838.202 210.275V192.547H835.055V189.4H838.202V181.48L842.398 179.907V189.4H846.594V192.547H842.398V210.642C842.398 211.482 842.626 212.181 843.08 212.74C843.57 213.265 844.217 213.527 845.021 213.527H846.594V216.674H844.444ZM859.97 192.862H856.823V189.4H859.97V186.358C859.97 184.4 860.529 182.844 861.648 181.69C862.767 180.536 864.288 179.959 866.212 179.959H868.519V183.106H866.946C866.142 183.106 865.477 183.386 864.953 183.945C864.428 184.505 864.166 185.187 864.166 185.991V189.4H868.414V192.862H864.166V216.674H859.97V192.862ZM878.484 217.041C876.036 217.041 874.13 216.429 872.767 215.205C871.438 213.947 870.773 212.216 870.773 210.013V196.061C870.773 193.858 871.438 192.145 872.767 190.921C874.13 189.662 876.036 189.033 878.484 189.033C880.931 189.033 882.819 189.662 884.148 190.921C885.512 192.145 886.194 193.858 886.194 196.061V210.013C886.194 212.216 885.512 213.947 884.148 215.205C882.819 216.429 880.931 217.041 878.484 217.041ZM878.484 213.789C879.603 213.789 880.477 213.475 881.106 212.845C881.77 212.181 882.103 211.237 882.103 210.013V196.061C882.103 194.837 881.77 193.911 881.106 193.281C880.477 192.617 879.603 192.285 878.484 192.285C877.365 192.285 876.473 192.617 875.809 193.281C875.179 193.911 874.865 194.837 874.865 196.061V210.013C874.865 211.237 875.179 212.181 875.809 212.845C876.473 213.475 877.365 213.789 878.484 213.789ZM891.44 189.4H894.692L895.164 190.921L897.314 190.292C898.783 189.837 899.937 189.522 900.776 189.348C901.65 189.138 902.472 189.033 903.241 189.033C904.5 189.033 905.427 189.47 906.021 190.344C906.616 191.218 906.913 192.355 906.913 193.753V216.674H902.717V195.117C902.717 194.103 902.647 193.404 902.507 193.019C902.367 192.6 902.017 192.39 901.458 192.39C901.178 192.39 899.238 192.949 895.636 194.068V216.674H891.44V189.4ZM918.517 216.674C916.594 216.674 915.056 216.097 913.902 214.943C912.783 213.789 912.223 212.233 912.223 210.275V196.323C912.223 194.121 912.8 192.425 913.954 191.236C915.108 190.012 916.786 189.4 918.989 189.4H924.811V192.547H919.094C918.29 192.547 917.643 192.827 917.154 193.386C916.664 193.911 916.419 194.593 916.419 195.432V210.642C916.419 211.482 916.664 212.181 917.154 212.74C917.678 213.265 918.342 213.527 919.147 213.527H924.811V216.674H918.517ZM936.078 216.674C934.155 216.674 932.634 216.097 931.515 214.943C930.396 213.789 929.836 212.233 929.836 210.275V192.547H926.689V189.4H929.836V181.48L934.032 179.907V189.4H938.228V192.547H934.032V210.642C934.032 211.482 934.26 212.181 934.714 212.74C935.204 213.265 935.851 213.527 936.655 213.527H938.228V216.674H936.078ZM942.405 184.942V180.746H946.601V184.942H942.405ZM942.405 216.674V189.4H946.601V216.674H942.405ZM959.566 217.041C957.118 217.041 955.213 216.429 953.849 215.205C952.52 213.947 951.856 212.216 951.856 210.013V196.061C951.856 193.858 952.52 192.145 953.849 190.921C955.213 189.662 957.118 189.033 959.566 189.033C962.014 189.033 963.902 189.662 965.231 190.921C966.594 192.145 967.276 193.858 967.276 196.061V210.013C967.276 212.216 966.594 213.947 965.231 215.205C963.902 216.429 962.014 217.041 959.566 217.041ZM959.566 213.789C960.685 213.789 961.559 213.475 962.188 212.845C962.853 212.181 963.185 211.237 963.185 210.013V196.061C963.185 194.837 962.853 193.911 962.188 193.281C961.559 192.617 960.685 192.285 959.566 192.285C958.447 192.285 957.555 192.617 956.891 193.281C956.262 193.911 955.947 194.837 955.947 196.061V210.013C955.947 211.237 956.262 212.181 956.891 212.845C957.555 213.475 958.447 213.789 959.566 213.789ZM972.522 189.4H975.774L976.246 190.921L978.397 190.292C979.865 189.837 981.019 189.522 981.858 189.348C982.733 189.138 983.554 189.033 984.324 189.033C985.582 189.033 986.509 189.47 987.103 190.344C987.698 191.218 987.995 192.355 987.995 193.753V216.674H983.799V195.117C983.799 194.103 983.729 193.404 983.589 193.019C983.449 192.6 983.1 192.39 982.54 192.39C982.261 192.39 980.32 192.949 976.718 194.068V216.674H972.522V189.4ZM993.83 189.4H997.082L997.554 190.921L999.705 190.292C1001.17 189.837 1002.33 189.522 1003.17 189.348C1004.04 189.138 1004.86 189.033 1005.63 189.033C1006.89 189.033 1007.82 189.47 1008.41 190.344C1009.01 191.218 1009.3 192.355 1009.3 193.753V216.674H1005.11V195.117C1005.11 194.103 1005.04 193.404 1004.9 193.019C1004.76 192.6 1004.41 192.39 1003.85 192.39C1003.57 192.39 1001.63 192.949 998.026 194.068V216.674H993.83V189.4ZM1020.59 216.674C1018.67 216.674 1017.13 216.097 1015.98 214.943C1014.86 213.789 1014.3 212.233 1014.3 210.275V196.323C1014.3 194.051 1014.93 192.267 1016.19 190.974C1017.45 189.68 1019.32 189.033 1021.8 189.033C1024.28 189.033 1026.13 189.68 1027.36 190.974C1028.62 192.267 1029.25 194.051 1029.25 196.323V198.736C1029.25 200.205 1028.83 201.324 1027.99 202.093C1027.15 202.827 1026.05 203.387 1024.68 203.771L1018.49 205.502V210.642C1018.49 211.482 1018.74 212.181 1019.23 212.74C1019.75 213.265 1020.42 213.527 1021.22 213.527H1026.89V216.674H1020.59ZM1021.69 201.306C1022.85 200.992 1023.62 200.764 1024 200.624C1024.42 200.45 1024.7 200.205 1024.84 199.89C1024.98 199.575 1025.05 199.051 1025.05 198.317V195.432C1025.05 194.313 1024.75 193.491 1024.16 192.967C1023.6 192.442 1022.81 192.18 1021.8 192.18C1020.82 192.18 1020.02 192.46 1019.39 193.019C1018.79 193.579 1018.49 194.383 1018.49 195.432V202.198L1021.69 201.306ZM1041.36 216.674V179.959H1045.56V216.674H1041.36ZM1057.37 216.674C1056.11 216.674 1054.94 216.359 1053.86 215.73C1052.81 215.101 1051.97 214.244 1051.34 213.16C1050.75 212.076 1050.45 210.852 1050.45 209.488V206.761C1050.45 205.118 1050.85 203.736 1051.65 202.617C1052.49 201.499 1053.53 200.712 1054.75 200.257L1061.25 197.845V195.379C1061.25 194.54 1060.99 193.858 1060.47 193.334C1059.98 192.774 1059.33 192.495 1058.53 192.495H1052.6V189.4H1058.89C1060.82 189.4 1062.34 189.977 1063.46 191.131C1064.61 192.25 1065.19 193.788 1065.19 195.747V216.674H1057.37ZM1061.25 213.475V201.149L1056.64 202.88C1055.73 203.229 1055.08 203.701 1054.7 204.296C1054.35 204.89 1054.17 205.834 1054.17 207.128V210.065C1054.17 211.009 1054.52 211.814 1055.22 212.478C1055.92 213.142 1056.76 213.475 1057.74 213.475H1061.25ZM1079.12 216.674V179.959H1086.83L1095.38 211.691V179.959H1100.05V216.674H1093.44L1083.73 183.316V216.674H1079.12ZM1107.3 216.674V179.959H1111.92V216.674H1107.3ZM1119.59 179.959H1129.3C1132.51 179.959 1134.89 180.781 1136.43 182.424C1137.97 184.033 1138.74 186.463 1138.74 189.715C1138.74 192.162 1138.27 194.295 1137.32 196.114C1136.38 197.932 1135.03 199.191 1133.28 199.89L1140.57 216.674H1136.06L1128.93 200.572H1124.1V216.674H1119.59V179.959ZM1127.93 197.11C1129.93 197.11 1131.46 196.428 1132.55 195.065C1133.67 193.666 1134.23 191.883 1134.23 189.715C1134.23 187.652 1133.68 186.096 1132.6 185.047C1131.55 183.963 1130 183.421 1127.93 183.421H1124.21V197.11H1127.93ZM1145.41 179.959H1154.53C1157.72 179.959 1160.18 180.763 1161.93 182.372C1163.68 183.98 1164.55 186.34 1164.55 189.453V207.181C1164.55 210.293 1163.68 212.653 1161.93 214.261C1160.18 215.835 1157.72 216.639 1154.53 216.674H1145.41V179.959ZM1154.53 213.107C1156.14 213.107 1157.44 212.653 1158.41 211.744C1159.43 210.8 1159.94 209.558 1159.94 208.02V188.613C1159.94 187.075 1159.43 185.851 1158.41 184.942C1157.44 183.998 1156.14 183.526 1154.53 183.526H1150.08V213.107H1154.53ZM1168.98 216.674V211.272H1173.18V216.674H1168.98Z" fill="#1E1E1E"/>
<rect width="448.945" height="88.9178" fill="black"/>
<path d="M205.958 60.9281C205.554 60.9281 205.352 60.7262 205.352 60.3224V55.7678C205.352 55.5578 205.36 55.3883 205.377 55.259C205.409 55.1298 205.506 55.0249 205.667 54.9441L212.015 52.0369V47.7245L205.764 43.8483C205.49 43.6867 205.352 43.4445 205.352 43.1215V34.2303C205.352 33.9718 205.368 33.7861 205.401 33.673C205.433 33.5438 205.554 33.4065 205.764 33.2612L212.136 28.9488C212.297 28.8519 212.443 28.7792 212.572 28.7308C212.717 28.6662 212.895 28.6339 213.105 28.6339H219.646C220.05 28.6339 220.252 28.8358 220.252 29.2395V33.3581C220.252 33.7134 220.131 33.9557 219.888 34.0849L213.541 36.7014V41.1833L219.888 44.8173C220.131 44.9304 220.252 45.1888 220.252 45.5926V56.1312C220.252 56.2604 220.227 56.3977 220.179 56.5431C220.147 56.6884 220.066 56.7934 219.937 56.858L212.33 60.6374C212.233 60.6858 212.112 60.7504 211.966 60.8312C211.837 60.8958 211.708 60.9281 211.579 60.9281H205.958ZM230.788 60.9281C230.385 60.9281 230.183 60.7262 230.183 60.3224V35.0782H225.943C225.539 35.0782 225.337 34.8763 225.337 34.4725V29.2395C225.337 28.8358 225.539 28.6339 225.943 28.6339H242.49C242.894 28.6339 243.096 28.8358 243.096 29.2395V34.4725C243.096 34.8763 242.894 35.0782 242.49 35.0782H238.25V60.3224C238.25 60.7262 238.048 60.9281 237.645 60.9281H230.788ZM249.507 60.9281C249.104 60.9281 248.902 60.7262 248.902 60.3224V29.2395C248.902 28.8358 249.104 28.6339 249.507 28.6339H262.638C263.026 28.6339 263.349 28.7389 263.607 28.9488L269.179 34.4725C269.357 34.634 269.462 34.7713 269.494 34.8844C269.543 34.9974 269.567 35.1832 269.567 35.4416V42.0797C269.567 42.2897 269.486 42.4754 269.325 42.6369L266.66 45.2292L264.407 47.1673L267.072 50.7044L269.809 56.5673C269.874 56.7127 269.922 56.858 269.955 57.0034C270.003 57.1326 270.027 57.2941 270.027 57.4879V60.3224C270.027 60.7262 269.826 60.9281 269.422 60.9281H263.026C262.671 60.9281 262.428 60.7666 262.299 60.4436L258.399 49.1055H256.582V60.3224C256.582 60.7262 256.38 60.9281 255.976 60.9281H249.507ZM259.247 43.1699C260.587 43.1699 261.5 42.8953 261.984 42.3462C262.469 41.7809 262.711 40.7311 262.711 39.1967C262.711 37.6462 262.469 36.5964 261.984 36.0473C261.5 35.482 260.587 35.1993 259.247 35.1993C257.922 35.1993 257.01 35.482 256.509 36.0473C256.008 36.5964 255.758 37.6462 255.758 39.1967C255.758 40.7311 256.008 41.7809 256.509 42.3462C257.01 42.8953 257.922 43.1699 259.247 43.1699ZM274.322 60.9281C273.918 60.9281 273.716 60.7262 273.716 60.3224V37.8643C273.716 37.6543 273.797 37.412 273.958 37.1375L279.7 28.9973C279.878 28.755 280.136 28.6339 280.475 28.6339H288.494C288.85 28.6339 289.108 28.755 289.269 28.9973L295.035 37.1375C295.197 37.3636 295.278 37.6058 295.278 37.8643V60.3224C295.278 60.7262 295.076 60.9281 294.672 60.9281H287.816C287.412 60.9281 287.21 60.7262 287.21 60.3224V50.0261H281.808V60.3224C281.808 60.7262 281.606 60.9281 281.202 60.9281H274.322ZM284.497 44.8173C285.983 44.8173 286.984 44.4943 287.501 43.8483C288.034 43.1861 288.3 41.9343 288.3 40.0931C288.3 38.2519 288.034 37.0082 287.501 36.3622C286.984 35.7 285.983 35.3689 284.497 35.3689C283.027 35.3689 282.026 35.7 281.493 36.3622C280.976 37.0082 280.717 38.2519 280.717 40.0931C280.717 41.9343 280.976 43.1861 281.493 43.8483C282.026 44.4943 283.027 44.8173 284.497 44.8173ZM306.402 60.9281C305.999 60.9281 305.797 60.7262 305.797 60.3224V35.0782H301.557C301.153 35.0782 300.951 34.8763 300.951 34.4725V29.2395C300.951 28.8358 301.153 28.6339 301.557 28.6339H318.104C318.508 28.6339 318.709 28.8358 318.709 29.2395V34.4725C318.709 34.8763 318.508 35.0782 318.104 35.0782H313.864V60.3224C313.864 60.7262 313.662 60.9281 313.258 60.9281H306.402ZM325.121 60.9281C324.717 60.9281 324.516 60.7262 324.516 60.3224V29.2395C324.516 28.8358 324.717 28.6339 325.121 28.6339H342.007C342.411 28.6339 342.613 28.8358 342.613 29.2395V34.4725C342.613 34.8763 342.411 35.0782 342.007 35.0782H332.583V41.9586H341.184C341.587 41.9586 341.789 42.1605 341.789 42.5642V46.9977C341.789 47.4015 341.587 47.6034 341.184 47.6034H332.583V54.4596H342.007C342.411 54.4596 342.613 54.6615 342.613 55.0652V60.3224C342.613 60.7262 342.411 60.9281 342.007 60.9281H325.121ZM336.411 27.4468L330.16 24.8303C329.854 24.6688 329.765 24.4507 329.894 24.1762L331.275 21.2932C331.42 20.9056 331.638 20.8006 331.929 20.9782L337.646 24.6849C337.937 24.8787 338.026 25.121 337.913 25.4117L337.065 27.2287C336.952 27.5194 336.734 27.5921 336.411 27.4468ZM354.637 60.9281C354.25 60.9281 353.927 60.7908 353.668 60.5162L348.823 55.6709C348.548 55.4125 348.411 55.0895 348.411 54.7018V34.8359C348.411 34.4644 348.548 34.1414 348.823 33.8668L353.668 29.0215C353.927 28.7631 354.25 28.6339 354.637 28.6339H368.955C369.359 28.6339 369.561 28.8358 369.561 29.2395V34.4725C369.561 34.8763 369.359 35.0782 368.955 35.0782H357.302C357.076 35.0782 356.882 35.1589 356.721 35.3205C356.559 35.482 356.479 35.6758 356.479 35.9019V53.6116C356.479 53.8377 356.559 54.0316 356.721 54.1931C356.882 54.3546 357.076 54.4353 357.302 54.4353H362.535V47.9668H359.434C359.03 47.9668 358.829 47.7649 358.829 47.3611V42.1524C358.829 41.7486 359.03 41.5467 359.434 41.5467H369.367C369.771 41.5467 369.973 41.7486 369.973 42.1524V54.7018C369.973 55.0895 369.836 55.4125 369.561 55.6709L364.716 60.5162C364.457 60.7908 364.134 60.9281 363.747 60.9281H354.637ZM375.657 60.9281C375.253 60.9281 375.051 60.7262 375.051 60.3224V29.2395C375.051 28.8358 375.253 28.6339 375.657 28.6339H392.543C392.946 28.6339 393.148 28.8358 393.148 29.2395V34.4725C393.148 34.8763 392.946 35.0782 392.543 35.0782H383.119V41.9586H391.719C392.123 41.9586 392.325 42.1605 392.325 42.5642V46.9977C392.325 47.4015 392.123 47.6034 391.719 47.6034H383.119V54.4596H392.543C392.946 54.4596 393.148 54.6615 393.148 55.0652V60.3224C393.148 60.7262 392.946 60.9281 392.543 60.9281H375.657Z" fill="#FFF1E9"/>
</svg>
