<svg width="1240" height="279" viewBox="0 0 1240 279" fill="none" xmlns="http://www.w3.org/2000/svg">
<rect x="80.8185" y="40.7006" width="1154.82" height="233.662" fill="#FFF1E9" stroke="black" stroke-width="7.51635"/>
<path d="M223.714 158.674V122.659H230.557L237.451 143.959H237.811L244.86 122.659H251.446V158.674H246.918V128.061L240.024 149.104H235.136L228.242 128.01V158.674H223.714ZM264.31 159.034C261.909 159.034 260.04 158.434 258.702 157.233C257.399 155.999 256.747 154.301 256.747 152.14V138.454C256.747 136.293 257.399 134.613 258.702 133.412C260.04 132.177 261.909 131.56 264.31 131.56C266.711 131.56 268.563 132.177 269.867 133.412C271.204 134.613 271.873 136.293 271.873 138.454V152.14C271.873 154.301 271.204 155.999 269.867 157.233C268.563 158.434 266.711 159.034 264.31 159.034ZM264.31 155.844C265.408 155.844 266.265 155.536 266.883 154.918C267.534 154.267 267.86 153.34 267.86 152.14V138.454C267.86 137.254 267.534 136.345 266.883 135.727C266.265 135.076 265.408 134.75 264.31 134.75C263.212 134.75 262.338 135.076 261.686 135.727C261.069 136.345 260.76 137.254 260.76 138.454V152.14C260.76 153.34 261.069 154.267 261.686 154.918C262.338 155.536 263.212 155.844 264.31 155.844ZM277.019 122.659H281.135V130.685L288.03 133.103C289.23 133.515 290.225 134.235 291.014 135.264C291.837 136.259 292.249 137.494 292.249 138.969V152.191C292.249 154.044 291.597 155.587 290.294 156.822C288.99 158.057 287.395 158.674 285.509 158.674H277.019V122.659ZM284.634 155.587C285.594 155.587 286.418 155.261 287.104 154.61C287.79 153.958 288.133 153.152 288.133 152.191V139.792C288.133 138.489 287.944 137.545 287.567 136.962C287.224 136.345 286.606 135.899 285.714 135.624L281.135 134.081V155.587H284.634ZM297.117 127.547V123.431H301.233V127.547H297.117ZM297.117 158.674V131.92H301.233V158.674H297.117ZM307.469 158.674V122.659H311.585V158.674H307.469ZM317.717 127.547V123.431H321.833V127.547H317.717ZM317.717 158.674V131.92H321.833V158.674H317.717ZM326.474 155.587H330.847C332.322 155.587 333.385 155.193 334.037 154.404C334.723 153.581 335.066 152.517 335.066 151.214C335.066 150.185 334.757 149.31 334.14 148.59C333.522 147.87 332.596 147.029 331.361 146.069C330.298 145.211 329.441 144.474 328.789 143.856C328.172 143.205 327.623 142.416 327.143 141.49C326.697 140.529 326.474 139.432 326.474 138.197C326.474 136.379 327.074 134.887 328.274 133.721C329.509 132.52 331.156 131.92 333.214 131.92H337.69V135.007H333.985C331.55 135.007 330.332 136.156 330.332 138.454C330.332 139.346 330.607 140.118 331.156 140.769C331.704 141.421 332.562 142.193 333.728 143.085C334.791 143.908 335.666 144.663 336.352 145.349C337.038 146 337.621 146.841 338.101 147.87C338.582 148.864 338.822 150.048 338.822 151.42C338.822 153.855 338.17 155.673 336.867 156.873C335.598 158.074 333.797 158.674 331.464 158.674H326.474V155.587ZM348.896 158.674C347.661 158.674 346.512 158.365 345.449 157.748C344.42 157.131 343.597 156.29 342.979 155.227C342.396 154.164 342.104 152.963 342.104 151.625V148.95C342.104 147.338 342.499 145.983 343.288 144.885C344.111 143.788 345.123 143.016 346.323 142.57L352.703 140.204V137.785C352.703 136.962 352.446 136.293 351.931 135.779C351.451 135.23 350.817 134.956 350.028 134.956H344.214V131.92H350.388C352.274 131.92 353.766 132.486 354.864 133.618C355.996 134.716 356.562 136.225 356.562 138.146V158.674H348.896ZM352.703 155.536V143.445L348.176 145.143C347.284 145.486 346.649 145.949 346.272 146.532C345.929 147.115 345.757 148.041 345.757 149.31V152.191C345.757 153.117 346.1 153.906 346.786 154.558C347.472 155.21 348.296 155.536 349.256 155.536H352.703ZM369.694 158.674C367.807 158.674 366.315 158.108 365.218 156.976C364.12 155.844 363.571 154.318 363.571 152.397V135.007H360.484V131.92H363.571V124.151L367.687 122.608V131.92H371.803V135.007H367.687V152.757C367.687 153.581 367.91 154.267 368.356 154.815C368.836 155.33 369.471 155.587 370.26 155.587H371.803V158.674H369.694ZM375.9 127.547V123.431H380.016V127.547H375.9ZM375.9 158.674V131.92H380.016V158.674H375.9ZM392.734 159.034C390.333 159.034 388.464 158.434 387.126 157.233C385.823 155.999 385.171 154.301 385.171 152.14V138.454C385.171 136.293 385.823 134.613 387.126 133.412C388.464 132.177 390.333 131.56 392.734 131.56C395.135 131.56 396.987 132.177 398.291 133.412C399.628 134.613 400.297 136.293 400.297 138.454V152.14C400.297 154.301 399.628 155.999 398.291 157.233C396.987 158.434 395.135 159.034 392.734 159.034ZM392.734 155.844C393.832 155.844 394.689 155.536 395.307 154.918C395.958 154.267 396.284 153.34 396.284 152.14V138.454C396.284 137.254 395.958 136.345 395.307 135.727C394.689 135.076 393.832 134.75 392.734 134.75C391.636 134.75 390.762 135.076 390.11 135.727C389.493 136.345 389.184 137.254 389.184 138.454V152.14C389.184 153.34 389.493 154.267 390.11 154.918C390.762 155.536 391.636 155.844 392.734 155.844ZM405.443 131.92H408.633L409.096 133.412L411.206 132.795C412.646 132.349 413.778 132.04 414.602 131.869C415.459 131.663 416.265 131.56 417.02 131.56C418.254 131.56 419.163 131.989 419.747 132.846C420.33 133.704 420.621 134.818 420.621 136.19V158.674H416.505V137.528C416.505 136.533 416.437 135.847 416.299 135.47C416.162 135.059 415.819 134.853 415.27 134.853C414.996 134.853 413.092 135.402 409.559 136.499V158.674H405.443V131.92ZM433.105 137.271V131.972H437.221V137.271H433.105ZM433.105 158.674V153.375H437.221V158.674H433.105ZM450.212 158.674V122.659H454.328V158.674H450.212ZM465.812 158.674C463.925 158.674 462.416 158.108 461.284 156.976C460.186 155.844 459.638 154.318 459.638 152.397V138.711C459.638 136.482 460.255 134.733 461.49 133.464C462.725 132.194 464.56 131.56 466.995 131.56C469.43 131.56 471.248 132.194 472.449 133.464C473.683 134.733 474.301 136.482 474.301 138.711V141.078C474.301 142.519 473.889 143.616 473.066 144.371C472.243 145.091 471.162 145.64 469.825 146.017L463.754 147.715V152.757C463.754 153.581 463.994 154.267 464.474 154.815C464.988 155.33 465.64 155.587 466.429 155.587H471.986V158.674H465.812ZM466.892 143.599C468.024 143.291 468.779 143.068 469.156 142.93C469.567 142.759 469.842 142.519 469.979 142.21C470.116 141.901 470.185 141.387 470.185 140.667V137.837C470.185 136.739 469.893 135.933 469.31 135.419C468.761 134.904 467.99 134.647 466.995 134.647C466.035 134.647 465.246 134.921 464.628 135.47C464.045 136.019 463.754 136.808 463.754 137.837V144.474L466.892 143.599ZM489.943 158.674L483.82 131.92H488.091L492.052 153.478L495.962 131.92H500.233L494.11 158.674H489.943ZM504.073 127.547V123.431H508.189V127.547H504.073ZM504.073 158.674V131.92H508.189V158.674H504.073ZM514.424 158.674V122.659H518.54V158.674H514.424ZM524.724 158.674V122.659H528.84V158.674H524.724ZM540.427 158.674C539.192 158.674 538.043 158.365 536.979 157.748C535.95 157.131 535.127 156.29 534.51 155.227C533.927 154.164 533.635 152.963 533.635 151.625V148.95C533.635 147.338 534.03 145.983 534.818 144.885C535.642 143.788 536.654 143.016 537.854 142.57L544.234 140.204V137.785C544.234 136.962 543.977 136.293 543.462 135.779C542.982 135.23 542.347 134.956 541.558 134.956H535.745V131.92H541.919C543.805 131.92 545.297 132.486 546.395 133.618C547.527 134.716 548.093 136.225 548.093 138.146V158.674H540.427ZM544.234 155.536V143.445L539.706 145.143C538.814 145.486 538.18 145.949 537.803 146.532C537.46 147.115 537.288 148.041 537.288 149.31V152.191C537.288 153.117 537.631 153.906 538.317 154.558C539.003 155.21 539.826 155.536 540.787 155.536H544.234ZM555.925 163.819H561.224C562.013 163.819 562.631 163.545 563.077 162.996C563.557 162.481 563.797 161.813 563.797 160.989V158.726H559.527C557.64 158.726 556.045 158.108 554.742 156.873C553.438 155.639 552.787 154.095 552.787 152.243V138.403C552.787 136.551 553.438 135.007 554.742 133.772C556.079 132.537 557.692 131.92 559.578 131.92H567.964V160.629C567.964 162.55 567.433 164.076 566.369 165.208C565.34 166.34 563.883 166.906 561.996 166.906H555.925V163.819ZM563.848 155.639V135.007H560.401C559.441 135.007 558.618 135.333 557.932 135.985C557.246 136.636 556.903 137.442 556.903 138.403V152.243C556.903 153.203 557.246 154.009 557.932 154.661C558.618 155.313 559.441 155.639 560.401 155.639H563.848ZM578.961 158.674C577.075 158.674 575.566 158.108 574.434 156.976C573.336 155.844 572.787 154.318 572.787 152.397V138.711C572.787 136.482 573.405 134.733 574.64 133.464C575.874 132.194 577.709 131.56 580.145 131.56C582.58 131.56 584.398 132.194 585.598 133.464C586.833 134.733 587.451 136.482 587.451 138.711V141.078C587.451 142.519 587.039 143.616 586.216 144.371C585.393 145.091 584.312 145.64 582.974 146.017L576.903 147.715V152.757C576.903 153.581 577.143 154.267 577.624 154.815C578.138 155.33 578.79 155.587 579.579 155.587H585.135V158.674H578.961ZM580.042 143.599C581.174 143.291 581.928 143.068 582.306 142.93C582.717 142.759 582.992 142.519 583.129 142.21C583.266 141.901 583.335 141.387 583.335 140.667V137.837C583.335 136.739 583.043 135.933 582.46 135.419C581.911 134.904 581.139 134.647 580.145 134.647C579.184 134.647 578.395 134.921 577.778 135.47C577.195 136.019 576.903 136.808 576.903 137.837V144.474L580.042 143.599ZM606.077 158.674C603.916 158.674 602.167 158.04 600.829 156.77C599.491 155.501 598.822 153.803 598.822 151.677V138.866C598.822 137.391 599.217 136.139 600.006 135.11C600.829 134.081 601.841 133.378 603.041 133.001L609.935 130.582V122.659H614.051V158.674H606.077ZM609.935 155.587V133.978L605.356 135.522C604.465 135.796 603.83 136.242 603.453 136.859C603.11 137.442 602.938 138.386 602.938 139.689V151.677C602.938 152.912 603.298 153.872 604.019 154.558C604.739 155.244 605.717 155.587 606.951 155.587H609.935ZM625.897 129.914L624.199 128.37L630.167 123.276L632.791 125.695L625.897 129.914ZM625.588 158.674C623.701 158.674 622.192 158.108 621.06 156.976C619.963 155.844 619.414 154.318 619.414 152.397V138.711C619.414 136.482 620.031 134.733 621.266 133.464C622.501 132.194 624.336 131.56 626.771 131.56C629.207 131.56 631.024 132.194 632.225 133.464C633.46 134.733 634.077 136.482 634.077 138.711V141.078C634.077 142.519 633.666 143.616 632.842 144.371C632.019 145.091 630.939 145.64 629.601 146.017L623.53 147.715V152.757C623.53 153.581 623.77 154.267 624.25 154.815C624.765 155.33 625.416 155.587 626.205 155.587H631.762V158.674H625.588ZM626.668 143.599C627.8 143.291 628.555 143.068 628.932 142.93C629.344 142.759 629.618 142.519 629.755 142.21C629.893 141.901 629.961 141.387 629.961 140.667V137.837C629.961 136.739 629.67 135.933 629.087 135.419C628.538 134.904 627.766 134.647 626.771 134.647C625.811 134.647 625.022 134.921 624.405 135.47C623.821 136.019 623.53 136.808 623.53 137.837V144.474L626.668 143.599ZM643.834 158.674C641.947 158.674 640.438 158.108 639.306 156.976C638.209 155.844 637.66 154.318 637.66 152.397V138.711C637.66 136.551 638.226 134.887 639.358 133.721C640.49 132.52 642.136 131.92 644.297 131.92H650.008V135.007H644.4C643.611 135.007 642.976 135.281 642.496 135.83C642.016 136.345 641.776 137.014 641.776 137.837V152.757C641.776 153.581 642.016 154.267 642.496 154.815C643.011 155.33 643.662 155.587 644.451 155.587H650.008V158.674H643.834ZM660.133 159.034C657.732 159.034 655.863 158.434 654.525 157.233C653.222 155.999 652.57 154.301 652.57 152.14V138.454C652.57 136.293 653.222 134.613 654.525 133.412C655.863 132.177 657.732 131.56 660.133 131.56C662.534 131.56 664.387 132.177 665.69 133.412C667.028 134.613 667.697 136.293 667.697 138.454V152.14C667.697 154.301 667.028 155.999 665.69 157.233C664.387 158.434 662.534 159.034 660.133 159.034ZM660.133 155.844C661.231 155.844 662.089 155.536 662.706 154.918C663.358 154.267 663.683 153.34 663.683 152.14V138.454C663.683 137.254 663.358 136.345 662.706 135.727C662.089 135.076 661.231 134.75 660.133 134.75C659.036 134.75 658.161 135.076 657.509 135.727C656.892 136.345 656.583 137.254 656.583 138.454V152.14C656.583 153.34 656.892 154.267 657.509 154.918C658.161 155.536 659.036 155.844 660.133 155.844ZM675.981 159.034C674.746 159.034 673.82 158.605 673.203 157.748C672.62 156.89 672.328 155.776 672.328 154.404V131.92H676.444V153.066C676.444 154.026 676.513 154.712 676.65 155.124C676.787 155.536 677.113 155.741 677.628 155.741C677.868 155.741 679.806 155.227 683.441 154.198V131.92H687.557V158.674H684.625L683.853 156.925C683.304 157.131 682.893 157.268 682.618 157.336C681.006 157.919 679.703 158.348 678.708 158.623C677.713 158.897 676.804 159.034 675.981 159.034ZM697.552 158.674L691.429 131.92H695.699L699.661 153.478L703.571 131.92H707.842L701.719 158.674H697.552ZM711.681 131.92H714.871L715.334 133.824L716.621 133.206C717.718 132.658 718.627 132.246 719.348 131.972C720.102 131.697 720.857 131.56 721.611 131.56V134.595C721.165 134.595 720.565 134.733 719.811 135.007C719.056 135.247 717.718 135.83 715.797 136.756V158.674H711.681V131.92ZM730.799 158.674C728.913 158.674 727.403 158.108 726.272 156.976C725.174 155.844 724.625 154.318 724.625 152.397V138.711C724.625 136.482 725.243 134.733 726.477 133.464C727.712 132.194 729.547 131.56 731.983 131.56C734.418 131.56 736.236 132.194 737.436 133.464C738.671 134.733 739.288 136.482 739.288 138.711V141.078C739.288 142.519 738.877 143.616 738.054 144.371C737.23 145.091 736.15 145.64 734.812 146.017L728.741 147.715V152.757C728.741 153.581 728.981 154.267 729.461 154.815C729.976 155.33 730.628 155.587 731.417 155.587H736.973V158.674H730.799ZM731.88 143.599C733.012 143.291 733.766 143.068 734.143 142.93C734.555 142.759 734.829 142.519 734.967 142.21C735.104 141.901 735.172 141.387 735.172 140.667V137.837C735.172 136.739 734.881 135.933 734.298 135.419C733.749 134.904 732.977 134.647 731.983 134.647C731.022 134.647 730.233 134.921 729.616 135.47C729.033 136.019 728.741 136.808 728.741 137.837V144.474L731.88 143.599ZM751.175 158.674V122.659H755.291V158.674H751.175ZM766.877 158.674C765.642 158.674 764.493 158.365 763.43 157.748C762.401 157.131 761.578 156.29 760.96 155.227C760.377 154.164 760.085 152.963 760.085 151.625V148.95C760.085 147.338 760.48 145.983 761.269 144.885C762.092 143.788 763.104 143.016 764.304 142.57L770.684 140.204V137.785C770.684 136.962 770.427 136.293 769.912 135.779C769.432 135.23 768.798 134.956 768.009 134.956H762.195V131.92H768.369C770.255 131.92 771.747 132.486 772.845 133.618C773.977 134.716 774.543 136.225 774.543 138.146V158.674H766.877ZM770.684 155.536V143.445L766.157 145.143C765.265 145.486 764.63 145.949 764.253 146.532C763.91 147.115 763.738 148.041 763.738 149.31V152.191C763.738 153.117 764.081 153.906 764.767 154.558C765.453 155.21 766.277 155.536 767.237 155.536H770.684ZM794.744 158.674C792.583 158.674 790.833 158.04 789.496 156.77C788.158 155.501 787.489 153.803 787.489 151.677V138.866C787.489 137.391 787.884 136.139 788.672 135.11C789.496 134.081 790.507 133.378 791.708 133.001L798.602 130.582V122.659H802.718V158.674H794.744ZM798.602 155.587V133.978L794.023 135.522C793.131 135.796 792.497 136.242 792.12 136.859C791.777 137.442 791.605 138.386 791.605 139.689V151.677C791.605 152.912 791.965 153.872 792.686 154.558C793.406 155.244 794.383 155.587 795.618 155.587H798.602ZM814.563 129.914L812.866 128.37L818.834 123.276L821.458 125.695L814.563 129.914ZM814.255 158.674C812.368 158.674 810.859 158.108 809.727 156.976C808.629 155.844 808.081 154.318 808.081 152.397V138.711C808.081 136.482 808.698 134.733 809.933 133.464C811.168 132.194 813.003 131.56 815.438 131.56C817.873 131.56 819.691 132.194 820.892 133.464C822.127 134.733 822.744 136.482 822.744 138.711V141.078C822.744 142.519 822.332 143.616 821.509 144.371C820.686 145.091 819.605 145.64 818.268 146.017L812.197 147.715V152.757C812.197 153.581 812.437 154.267 812.917 154.815C813.431 155.33 814.083 155.587 814.872 155.587H820.429V158.674H814.255ZM815.335 143.599C816.467 143.291 817.222 143.068 817.599 142.93C818.011 142.759 818.285 142.519 818.422 142.21C818.559 141.901 818.628 141.387 818.628 140.667V137.837C818.628 136.739 818.336 135.933 817.753 135.419C817.204 134.904 816.433 134.647 815.438 134.647C814.478 134.647 813.689 134.921 813.071 135.47C812.488 136.019 812.197 136.808 812.197 137.837V144.474L815.335 143.599ZM826.841 131.92H830.031L830.494 133.412L832.603 132.795C834.044 132.349 835.176 132.04 835.999 131.869C836.857 131.663 837.663 131.56 838.417 131.56C839.892 131.56 840.921 132.212 841.504 133.515C842.465 133.172 843.82 132.76 845.569 132.28C847.318 131.8 848.604 131.56 849.428 131.56C850.662 131.56 851.571 131.989 852.154 132.846C852.772 133.704 853.081 134.818 853.081 136.19V158.674H848.965V137.528C848.965 136.533 848.896 135.847 848.759 135.47C848.622 135.059 848.279 134.853 847.73 134.853C847.455 134.853 845.569 135.402 842.07 136.499V158.674H837.954V137.528C837.954 136.533 837.886 135.847 837.748 135.47C837.611 135.059 837.268 134.853 836.719 134.853C836.445 134.853 834.524 135.402 830.957 136.499V158.674H826.841V131.92ZM864.2 158.674C862.965 158.674 861.816 158.365 860.753 157.748C859.724 157.131 858.9 156.29 858.283 155.227C857.7 154.164 857.408 152.963 857.408 151.625V148.95C857.408 147.338 857.803 145.983 858.592 144.885C859.415 143.788 860.427 143.016 861.627 142.57L868.007 140.204V137.785C868.007 136.962 867.75 136.293 867.235 135.779C866.755 135.23 866.121 134.956 865.332 134.956H859.518V131.92H865.692C867.578 131.92 869.07 132.486 870.168 133.618C871.3 134.716 871.866 136.225 871.866 138.146V158.674H864.2ZM868.007 155.536V143.445L863.48 145.143C862.588 145.486 861.953 145.949 861.576 146.532C861.233 147.115 861.061 148.041 861.061 149.31V152.191C861.061 153.117 861.404 153.906 862.09 154.558C862.776 155.21 863.6 155.536 864.56 155.536H868.007ZM877.537 131.92H880.727L881.19 133.824L882.477 133.206C883.574 132.658 884.483 132.246 885.203 131.972C885.958 131.697 886.713 131.56 887.467 131.56V134.595C887.021 134.595 886.421 134.733 885.666 135.007C884.912 135.247 883.574 135.83 881.653 136.756V158.674H877.537V131.92ZM896.964 158.674C895.077 158.674 893.568 158.108 892.436 156.976C891.339 155.844 890.79 154.318 890.79 152.397V138.711C890.79 136.551 891.356 134.887 892.488 133.721C893.62 132.52 895.266 131.92 897.427 131.92H903.138V135.007H897.53C896.741 135.007 896.106 135.281 895.626 135.83C895.146 136.345 894.906 137.014 894.906 137.837V152.757C894.906 153.581 895.146 154.267 895.626 154.815C896.141 155.33 896.792 155.587 897.581 155.587H903.138V158.674H896.964ZM906.729 122.659H910.845V133.309L913.109 132.64C914.515 132.229 915.544 131.954 916.196 131.817C916.882 131.646 917.585 131.56 918.306 131.56C919.54 131.56 920.449 131.989 921.032 132.846C921.615 133.704 921.907 134.818 921.907 136.19V158.674H917.791V137.528C917.791 136.533 917.722 135.847 917.585 135.47C917.448 135.059 917.105 134.853 916.556 134.853C916.282 134.853 914.378 135.402 910.845 136.499V158.674H906.729V122.659ZM933.484 158.674C931.598 158.674 930.088 158.108 928.956 156.976C927.859 155.844 927.31 154.318 927.31 152.397V138.711C927.31 136.482 927.927 134.733 929.162 133.464C930.397 132.194 932.232 131.56 934.667 131.56C937.103 131.56 938.921 132.194 940.121 133.464C941.356 134.733 941.973 136.482 941.973 138.711V141.078C941.973 142.519 941.562 143.616 940.739 144.371C939.915 145.091 938.835 145.64 937.497 146.017L931.426 147.715V152.757C931.426 153.581 931.666 154.267 932.146 154.815C932.661 155.33 933.313 155.587 934.101 155.587H939.658V158.674H933.484ZM934.565 143.599C935.696 143.291 936.451 143.068 936.828 142.93C937.24 142.759 937.514 142.519 937.652 142.21C937.789 141.901 937.857 141.387 937.857 140.667V137.837C937.857 136.739 937.566 135.933 936.983 135.419C936.434 134.904 935.662 134.647 934.667 134.647C933.707 134.647 932.918 134.921 932.301 135.47C931.718 136.019 931.426 136.808 931.426 137.837V144.474L934.565 143.599ZM954.065 158.674V122.659H961.628L970.015 153.786V122.659H974.594V158.674H968.111L958.593 125.952V158.674H954.065ZM981.709 158.674V122.659H986.237V158.674H981.709ZM993.768 122.659H1003.29C1006.44 122.659 1008.77 123.465 1010.28 125.077C1011.79 126.655 1012.55 129.039 1012.55 132.229C1012.55 134.63 1012.08 136.722 1011.16 138.506C1010.23 140.289 1008.91 141.524 1007.2 142.21L1014.35 158.674H1009.92L1002.93 142.879H998.192V158.674H993.768V122.659ZM1001.95 139.483C1003.9 139.483 1005.41 138.814 1006.48 137.477C1007.57 136.105 1008.12 134.355 1008.12 132.229C1008.12 130.205 1007.59 128.679 1006.53 127.65C1005.5 126.586 1003.97 126.055 1001.95 126.055H998.295V139.483H1001.95ZM1019.09 122.659H1028.04C1031.16 122.659 1033.58 123.448 1035.3 125.026C1037.01 126.604 1037.87 128.919 1037.87 131.972V149.362C1037.87 152.414 1037.01 154.73 1035.3 156.307C1033.58 157.851 1031.16 158.64 1028.04 158.674H1019.09V122.659ZM1028.04 155.175C1029.62 155.175 1030.89 154.73 1031.85 153.838C1032.84 152.912 1033.34 151.694 1033.34 150.185V131.148C1033.34 129.639 1032.84 128.439 1031.85 127.547C1030.89 126.621 1029.62 126.158 1028.04 126.158H1023.67V155.175H1028.04ZM1040.05 165.002L1042.27 158.674V153.375H1046.38V158.623L1043.24 165.002H1040.05ZM1056.72 155.587H1061.1C1062.57 155.587 1063.63 155.193 1064.29 154.404C1064.97 153.581 1065.31 152.517 1065.31 151.214C1065.31 150.185 1065.01 149.31 1064.39 148.59C1063.77 147.87 1062.84 147.029 1061.61 146.069C1060.55 145.211 1059.69 144.474 1059.04 143.856C1058.42 143.205 1057.87 142.416 1057.39 141.49C1056.95 140.529 1056.72 139.432 1056.72 138.197C1056.72 136.379 1057.32 134.887 1058.52 133.721C1059.76 132.52 1061.4 131.92 1063.46 131.92H1067.94V135.007H1064.23C1061.8 135.007 1060.58 136.156 1060.58 138.454C1060.58 139.346 1060.86 140.118 1061.4 140.769C1061.95 141.421 1062.81 142.193 1063.98 143.085C1065.04 143.908 1065.91 144.663 1066.6 145.349C1067.29 146 1067.87 146.841 1068.35 147.87C1068.83 148.864 1069.07 150.048 1069.07 151.42C1069.07 153.855 1068.42 155.673 1067.11 156.873C1065.85 158.074 1064.05 158.674 1061.71 158.674H1056.72V155.587ZM1079.04 158.674C1077.15 158.674 1075.65 158.108 1074.51 156.976C1073.42 155.844 1072.87 154.318 1072.87 152.397V138.711C1072.87 136.482 1073.48 134.733 1074.72 133.464C1075.95 132.194 1077.79 131.56 1080.22 131.56C1082.66 131.56 1084.48 132.194 1085.68 133.464C1086.91 134.733 1087.53 136.482 1087.53 138.711V141.078C1087.53 142.519 1087.12 143.616 1086.3 144.371C1085.47 145.091 1084.39 145.64 1083.05 146.017L1076.98 147.715V152.757C1076.98 153.581 1077.22 154.267 1077.7 154.815C1078.22 155.33 1078.87 155.587 1079.66 155.587H1085.22V158.674H1079.04ZM1080.12 143.599C1081.25 143.291 1082.01 143.068 1082.39 142.93C1082.8 142.759 1083.07 142.519 1083.21 142.21C1083.35 141.901 1083.41 141.387 1083.41 140.667V137.837C1083.41 136.739 1083.12 135.933 1082.54 135.419C1081.99 134.904 1081.22 134.647 1080.22 134.647C1079.26 134.647 1078.48 134.921 1077.86 135.47C1077.27 136.019 1076.98 136.808 1076.98 137.837V144.474L1080.12 143.599ZM222.016 211.587H226.389C227.864 211.587 228.928 211.193 229.579 210.404C230.265 209.581 230.608 208.517 230.608 207.214C230.608 206.185 230.3 205.31 229.682 204.59C229.065 203.87 228.139 203.029 226.904 202.069C225.841 201.211 224.983 200.474 224.331 199.856C223.714 199.205 223.165 198.416 222.685 197.49C222.239 196.529 222.016 195.432 222.016 194.197C222.016 192.379 222.616 190.887 223.817 189.721C225.052 188.52 226.698 187.92 228.756 187.92H233.232V191.007H229.528C227.093 191.007 225.875 192.156 225.875 194.454C225.875 195.346 226.149 196.118 226.698 196.769C227.247 197.421 228.104 198.193 229.271 199.085C230.334 199.908 231.209 200.663 231.895 201.349C232.581 202 233.164 202.841 233.644 203.87C234.124 204.864 234.364 206.048 234.364 207.42C234.364 209.855 233.712 211.673 232.409 212.873C231.14 214.074 229.339 214.674 227.007 214.674H222.016V211.587ZM244.335 214.674C242.449 214.674 240.94 214.108 239.808 212.976C238.71 211.844 238.161 210.318 238.161 208.397V194.711C238.161 192.482 238.779 190.733 240.014 189.464C241.248 188.194 243.083 187.56 245.519 187.56C247.954 187.56 249.772 188.194 250.972 189.464C252.207 190.733 252.825 192.482 252.825 194.711V197.078C252.825 198.519 252.413 199.616 251.59 200.371C250.767 201.091 249.686 201.64 248.349 202.017L242.277 203.715V208.757C242.277 209.581 242.518 210.267 242.998 210.815C243.512 211.33 244.164 211.587 244.953 211.587H250.509V214.674H244.335ZM245.416 199.599C246.548 199.291 247.302 199.068 247.68 198.93C248.091 198.759 248.366 198.519 248.503 198.21C248.64 197.901 248.709 197.387 248.709 196.667V193.837C248.709 192.739 248.417 191.933 247.834 191.419C247.285 190.904 246.513 190.647 245.519 190.647C244.558 190.647 243.769 190.921 243.152 191.47C242.569 192.019 242.277 192.808 242.277 193.837V200.474L245.416 199.599ZM256.922 187.92H260.112L260.575 189.412L262.684 188.795C264.125 188.349 265.257 188.04 266.08 187.869C266.937 187.663 267.743 187.56 268.498 187.56C269.733 187.56 270.642 187.989 271.225 188.846C271.808 189.704 272.1 190.818 272.1 192.19V214.674H267.984V193.528C267.984 192.533 267.915 191.847 267.778 191.47C267.641 191.059 267.298 190.853 266.749 190.853C266.474 190.853 264.571 191.402 261.038 192.499V214.674H256.922V187.92ZM276.28 211.587H280.653C282.128 211.587 283.191 211.193 283.843 210.404C284.529 209.581 284.872 208.517 284.872 207.214C284.872 206.185 284.563 205.31 283.946 204.59C283.328 203.87 282.402 203.029 281.168 202.069C280.104 201.211 279.247 200.474 278.595 199.856C277.978 199.205 277.429 198.416 276.949 197.49C276.503 196.529 276.28 195.432 276.28 194.197C276.28 192.379 276.88 190.887 278.081 189.721C279.315 188.52 280.962 187.92 283.02 187.92H287.496V191.007H283.792C281.356 191.007 280.139 192.156 280.139 194.454C280.139 195.346 280.413 196.118 280.962 196.769C281.511 197.421 282.368 198.193 283.534 199.085C284.598 199.908 285.472 200.663 286.158 201.349C286.844 202 287.427 202.841 287.908 203.87C288.388 204.864 288.628 206.048 288.628 207.42C288.628 209.855 287.976 211.673 286.673 212.873C285.404 214.074 283.603 214.674 281.27 214.674H276.28V211.587ZM293.248 183.547V179.431H297.364V183.547H293.248ZM293.248 214.674V187.92H297.364V214.674H293.248ZM303.548 178.659H307.664V186.685L314.559 189.103C315.759 189.515 316.754 190.235 317.543 191.264C318.366 192.259 318.778 193.494 318.778 194.969V208.191C318.778 210.044 318.126 211.587 316.822 212.822C315.519 214.057 313.924 214.674 312.038 214.674H303.548V178.659ZM311.163 211.587C312.123 211.587 312.947 211.261 313.633 210.61C314.319 209.958 314.662 209.152 314.662 208.191V195.792C314.662 194.489 314.473 193.545 314.096 192.962C313.753 192.345 313.135 191.899 312.243 191.624L307.664 190.081V211.587H311.163ZM323.646 183.547V179.431H327.762V183.547H323.646ZM323.646 214.674V187.92H327.762V214.674H323.646ZM333.997 214.674V178.659H338.113V214.674H333.997ZM344.246 183.547V179.431H348.362V183.547H344.246ZM344.246 214.674V187.92H348.362V214.674H344.246ZM353.003 211.587H357.376C358.851 211.587 359.914 211.193 360.566 210.404C361.252 209.581 361.595 208.517 361.595 207.214C361.595 206.185 361.286 205.31 360.669 204.59C360.051 203.87 359.125 203.029 357.89 202.069C356.827 201.211 355.97 200.474 355.318 199.856C354.7 199.205 354.152 198.416 353.671 197.49C353.226 196.529 353.003 195.432 353.003 194.197C353.003 192.379 353.603 190.887 354.803 189.721C356.038 188.52 357.685 187.92 359.743 187.92H364.219V191.007H360.514C358.079 191.007 356.861 192.156 356.861 194.454C356.861 195.346 357.136 196.118 357.685 196.769C358.233 197.421 359.091 198.193 360.257 199.085C361.32 199.908 362.195 200.663 362.881 201.349C363.567 202 364.15 202.841 364.63 203.87C365.111 204.864 365.351 206.048 365.351 207.42C365.351 209.855 364.699 211.673 363.396 212.873C362.126 214.074 360.326 214.674 357.993 214.674H353.003V211.587ZM375.322 214.674C373.435 214.674 371.926 214.108 370.794 212.976C369.697 211.844 369.148 210.318 369.148 208.397V194.711C369.148 192.482 369.765 190.733 371 189.464C372.235 188.194 374.07 187.56 376.505 187.56C378.941 187.56 380.758 188.194 381.959 189.464C383.194 190.733 383.811 192.482 383.811 194.711V197.078C383.811 198.519 383.4 199.616 382.576 200.371C381.753 201.091 380.673 201.64 379.335 202.017L373.264 203.715V208.757C373.264 209.581 373.504 210.267 373.984 210.815C374.499 211.33 375.15 211.587 375.939 211.587H381.496V214.674H375.322ZM376.402 199.599C377.534 199.291 378.289 199.068 378.666 198.93C379.078 198.759 379.352 198.519 379.489 198.21C379.627 197.901 379.695 197.387 379.695 196.667V193.837C379.695 192.739 379.404 191.933 378.82 191.419C378.272 190.904 377.5 190.647 376.505 190.647C375.545 190.647 374.756 190.921 374.139 191.47C373.555 192.019 373.264 192.808 373.264 193.837V200.474L376.402 199.599ZM400.997 214.674C399.11 214.674 397.601 214.108 396.469 212.976C395.371 211.844 394.823 210.318 394.823 208.397V194.711C394.823 192.482 395.44 190.733 396.675 189.464C397.91 188.194 399.745 187.56 402.18 187.56C404.615 187.56 406.433 188.194 407.634 189.464C408.868 190.733 409.486 192.482 409.486 194.711V197.078C409.486 198.519 409.074 199.616 408.251 200.371C407.428 201.091 406.347 201.64 405.01 202.017L398.939 203.715V208.757C398.939 209.581 399.179 210.267 399.659 210.815C400.173 211.33 400.825 211.587 401.614 211.587H407.171V214.674H400.997ZM402.077 199.599C403.209 199.291 403.964 199.068 404.341 198.93C404.752 198.759 405.027 198.519 405.164 198.21C405.301 197.901 405.37 197.387 405.37 196.667V193.837C405.37 192.739 405.078 191.933 404.495 191.419C403.946 190.904 403.175 190.647 402.18 190.647C401.22 190.647 400.431 190.921 399.813 191.47C399.23 192.019 398.939 192.808 398.939 193.837V200.474L402.077 199.599ZM421.043 214.674C419.157 214.674 417.665 214.108 416.567 212.976C415.47 211.844 414.921 210.318 414.921 208.397V191.007H411.834V187.92H414.921V180.151L419.037 178.608V187.92H423.153V191.007H419.037V208.757C419.037 209.581 419.26 210.267 419.706 210.815C420.186 211.33 420.82 211.587 421.609 211.587H423.153V214.674H421.043ZM434.987 187.92H438.177L438.64 189.412L440.749 188.795C442.19 188.349 443.322 188.04 444.145 187.869C445.003 187.663 445.809 187.56 446.563 187.56C448.038 187.56 449.067 188.212 449.65 189.515C450.611 189.172 451.966 188.76 453.715 188.28C455.464 187.8 456.75 187.56 457.574 187.56C458.808 187.56 459.717 187.989 460.3 188.846C460.918 189.704 461.227 190.818 461.227 192.19V214.674H457.111V193.528C457.111 192.533 457.042 191.847 456.905 191.47C456.768 191.059 456.425 190.853 455.876 190.853C455.601 190.853 453.715 191.402 450.216 192.499V214.674H446.1V193.528C446.1 192.533 446.032 191.847 445.894 191.47C445.757 191.059 445.414 190.853 444.865 190.853C444.591 190.853 442.67 191.402 439.103 192.499V214.674H434.987V187.92ZM472.243 214.674C470.356 214.674 468.847 214.108 467.715 212.976C466.618 211.844 466.069 210.318 466.069 208.397V194.711C466.069 192.482 466.686 190.733 467.921 189.464C469.156 188.194 470.991 187.56 473.426 187.56C475.861 187.56 477.679 188.194 478.88 189.464C480.115 190.733 480.732 192.482 480.732 194.711V197.078C480.732 198.519 480.32 199.616 479.497 200.371C478.674 201.091 477.594 201.64 476.256 202.017L470.185 203.715V208.757C470.185 209.581 470.425 210.267 470.905 210.815C471.42 211.33 472.071 211.587 472.86 211.587H478.417V214.674H472.243ZM473.323 199.599C474.455 199.291 475.21 199.068 475.587 198.93C475.999 198.759 476.273 198.519 476.41 198.21C476.547 197.901 476.616 197.387 476.616 196.667V193.837C476.616 192.739 476.325 191.933 475.741 191.419C475.193 190.904 474.421 190.647 473.426 190.647C472.466 190.647 471.677 190.921 471.059 191.47C470.476 192.019 470.185 192.808 470.185 193.837V200.474L473.323 199.599ZM492.289 214.674C490.403 214.674 488.911 214.108 487.813 212.976C486.716 211.844 486.167 210.318 486.167 208.397V191.007H483.08V187.92H486.167V180.151L490.283 178.608V187.92H494.399V191.007H490.283V208.757C490.283 209.581 490.506 210.267 490.952 210.815C491.432 211.33 492.066 211.587 492.855 211.587H494.399V214.674H492.289ZM511.584 214.674C509.698 214.674 508.188 214.108 507.056 212.976C505.959 211.844 505.41 210.318 505.41 208.397V194.711C505.41 192.482 506.027 190.733 507.262 189.464C508.497 188.194 510.332 187.56 512.767 187.56C515.203 187.56 517.021 188.194 518.221 189.464C519.456 190.733 520.073 192.482 520.073 194.711V197.078C520.073 198.519 519.662 199.616 518.838 200.371C518.015 201.091 516.935 201.64 515.597 202.017L509.526 203.715V208.757C509.526 209.581 509.766 210.267 510.246 210.815C510.761 211.33 511.413 211.587 512.201 211.587H517.758V214.674H511.584ZM512.664 199.599C513.796 199.291 514.551 199.068 514.928 198.93C515.34 198.759 515.614 198.519 515.751 198.21C515.889 197.901 515.957 197.387 515.957 196.667V193.837C515.957 192.739 515.666 191.933 515.083 191.419C514.534 190.904 513.762 190.647 512.767 190.647C511.807 190.647 511.018 190.921 510.401 191.47C509.818 192.019 509.526 192.808 509.526 193.837V200.474L512.664 199.599ZM524.17 187.92H527.36L527.823 189.412L529.933 188.795C531.373 188.349 532.505 188.04 533.328 187.869C534.186 187.663 534.992 187.56 535.747 187.56C536.981 187.56 537.89 187.989 538.473 188.846C539.057 189.704 539.348 190.818 539.348 192.19V214.674H535.232V193.528C535.232 192.533 535.163 191.847 535.026 191.47C534.889 191.059 534.546 190.853 533.997 190.853C533.723 190.853 531.819 191.402 528.286 192.499V214.674H524.17V187.92ZM552.81 187.92H561.144C563.031 187.92 564.626 188.537 565.929 189.772C567.267 191.007 567.936 192.551 567.936 194.403V208.243C567.936 210.095 567.284 211.639 565.981 212.873C564.677 214.074 563.082 214.674 561.196 214.674H556.926V222.906H552.81V187.92ZM560.321 211.639C561.282 211.639 562.105 211.313 562.791 210.661C563.477 210.009 563.82 209.203 563.82 208.243V194.403C563.82 193.442 563.477 192.636 562.791 191.985C562.105 191.333 561.282 191.007 560.321 191.007H556.926V211.639H560.321ZM572.858 214.674V178.659H576.974V214.674H572.858ZM588.56 214.674C587.326 214.674 586.177 214.365 585.113 213.748C584.084 213.131 583.261 212.29 582.644 211.227C582.061 210.164 581.769 208.963 581.769 207.625V204.95C581.769 203.338 582.163 201.983 582.952 200.885C583.776 199.788 584.787 199.016 585.988 198.57L592.368 196.204V193.785C592.368 192.962 592.11 192.293 591.596 191.779C591.116 191.23 590.481 190.956 589.692 190.956H583.878V187.92H590.052C591.939 187.92 593.431 188.486 594.529 189.618C595.661 190.716 596.226 192.225 596.226 194.146V214.674H588.56ZM592.368 211.536V199.445L587.84 201.143C586.948 201.486 586.314 201.949 585.936 202.532C585.593 203.115 585.422 204.041 585.422 205.31V208.191C585.422 209.117 585.765 209.906 586.451 210.558C587.137 211.21 587.96 211.536 588.921 211.536H592.368ZM607.558 214.674C605.671 214.674 604.162 214.108 603.03 212.976C601.932 211.844 601.384 210.318 601.384 208.397V194.711C601.384 192.551 601.949 190.887 603.081 189.721C604.213 188.52 605.86 187.92 608.021 187.92H613.732V191.007H608.123C607.335 191.007 606.7 191.281 606.22 191.83C605.74 192.345 605.5 193.014 605.5 193.837V208.757C605.5 209.581 605.74 210.267 606.22 210.815C606.734 211.33 607.386 211.587 608.175 211.587H613.732V214.674H607.558ZM622.674 214.674C620.787 214.674 619.278 214.108 618.146 212.976C617.049 211.844 616.5 210.318 616.5 208.397V194.711C616.5 192.482 617.117 190.733 618.352 189.464C619.587 188.194 621.422 187.56 623.857 187.56C626.292 187.56 628.11 188.194 629.311 189.464C630.546 190.733 631.163 192.482 631.163 194.711V197.078C631.163 198.519 630.751 199.616 629.928 200.371C629.105 201.091 628.025 201.64 626.687 202.017L620.616 203.715V208.757C620.616 209.581 620.856 210.267 621.336 210.815C621.851 211.33 622.502 211.587 623.291 211.587H628.848V214.674H622.674ZM623.754 199.599C624.886 199.291 625.641 199.068 626.018 198.93C626.43 198.759 626.704 198.519 626.841 198.21C626.978 197.901 627.047 197.387 627.047 196.667V193.837C627.047 192.739 626.755 191.933 626.172 191.419C625.624 190.904 624.852 190.647 623.857 190.647C622.897 190.647 622.108 190.921 621.49 191.47C620.907 192.019 620.616 192.808 620.616 193.837V200.474L623.754 199.599ZM646.136 215.034C644.901 215.034 643.975 214.605 643.358 213.748C642.775 212.89 642.483 211.776 642.483 210.404V187.92H646.599V209.066C646.599 210.026 646.668 210.712 646.805 211.124C646.942 211.536 647.268 211.741 647.783 211.741C648.023 211.741 649.961 211.227 653.596 210.198V187.92H657.712V214.674H654.78L654.008 212.925C653.459 213.131 653.048 213.268 652.773 213.336C651.161 213.919 649.858 214.348 648.863 214.623C647.868 214.897 646.959 215.034 646.136 215.034ZM663.899 187.92H667.089L667.552 189.412L669.662 188.795C671.102 188.349 672.234 188.04 673.057 187.869C673.915 187.663 674.721 187.56 675.476 187.56C676.71 187.56 677.619 187.989 678.202 188.846C678.786 189.704 679.077 190.818 679.077 192.19V214.674H674.961V193.528C674.961 192.533 674.892 191.847 674.755 191.47C674.618 191.059 674.275 190.853 673.726 190.853C673.452 190.853 671.548 191.402 668.015 192.499V214.674H663.899V187.92ZM692.538 187.92H700.873C702.76 187.92 704.355 188.537 705.658 189.772C706.996 191.007 707.665 192.551 707.665 194.403V208.243C707.665 210.095 707.013 211.639 705.71 212.873C704.406 214.074 702.811 214.674 700.925 214.674H696.654V222.906H692.538V187.92ZM700.05 211.639C701.011 211.639 701.834 211.313 702.52 210.661C703.206 210.009 703.549 209.203 703.549 208.243V194.403C703.549 193.442 703.206 192.636 702.52 191.985C701.834 191.333 701.011 191.007 700.05 191.007H696.654V211.639H700.05ZM712.536 187.92H715.726L716.189 189.824L717.475 189.206C718.572 188.658 719.481 188.246 720.202 187.972C720.956 187.697 721.711 187.56 722.465 187.56V190.595C722.02 190.595 721.419 190.733 720.665 191.007C719.91 191.247 718.572 191.83 716.652 192.756V214.674H712.536V187.92ZM731.653 214.674C729.767 214.674 728.258 214.108 727.126 212.976C726.028 211.844 725.479 210.318 725.479 208.397V194.711C725.479 192.482 726.097 190.733 727.332 189.464C728.566 188.194 730.401 187.56 732.837 187.56C735.272 187.56 737.09 188.194 738.29 189.464C739.525 190.733 740.143 192.482 740.143 194.711V197.078C740.143 198.519 739.731 199.616 738.908 200.371C738.085 201.091 737.004 201.64 735.666 202.017L729.595 203.715V208.757C729.595 209.581 729.835 210.267 730.316 210.815C730.83 211.33 731.482 211.587 732.271 211.587H737.827V214.674H731.653ZM732.734 199.599C733.866 199.291 734.62 199.068 734.998 198.93C735.409 198.759 735.684 198.519 735.821 198.21C735.958 197.901 736.027 197.387 736.027 196.667V193.837C736.027 192.739 735.735 191.933 735.152 191.419C734.603 190.904 733.831 190.647 732.837 190.647C731.876 190.647 731.087 190.921 730.47 191.47C729.887 192.019 729.595 192.808 729.595 193.837V200.474L732.734 199.599ZM744.24 187.92H747.43L747.893 189.412L750.002 188.795C751.443 188.349 752.575 188.04 753.398 187.869C754.255 187.663 755.061 187.56 755.816 187.56C757.291 187.56 758.32 188.212 758.903 189.515C759.863 189.172 761.218 188.76 762.968 188.28C764.717 187.8 766.003 187.56 766.826 187.56C768.061 187.56 768.97 187.989 769.553 188.846C770.171 189.704 770.479 190.818 770.479 192.19V214.674H766.363V193.528C766.363 192.533 766.295 191.847 766.157 191.47C766.02 191.059 765.677 190.853 765.128 190.853C764.854 190.853 762.968 191.402 759.469 192.499V214.674H755.353V193.528C755.353 192.533 755.284 191.847 755.147 191.47C755.01 191.059 754.667 190.853 754.118 190.853C753.844 190.853 751.923 191.402 748.356 192.499V214.674H744.24V187.92ZM776.145 183.547V179.431H780.261V183.547H776.145ZM776.145 214.674V187.92H780.261V214.674H776.145ZM791.796 214.674C789.909 214.674 788.4 214.108 787.268 212.976C786.17 211.844 785.622 210.318 785.622 208.397V194.711C785.622 192.482 786.239 190.733 787.474 189.464C788.709 188.194 790.544 187.56 792.979 187.56C795.414 187.56 797.232 188.194 798.433 189.464C799.667 190.733 800.285 192.482 800.285 194.711V197.078C800.285 198.519 799.873 199.616 799.05 200.371C798.227 201.091 797.146 201.64 795.809 202.017L789.738 203.715V208.757C789.738 209.581 789.978 210.267 790.458 210.815C790.972 211.33 791.624 211.587 792.413 211.587H797.97V214.674H791.796ZM792.876 199.599C794.008 199.291 794.763 199.068 795.14 198.93C795.551 198.759 795.826 198.519 795.963 198.21C796.1 197.901 796.169 197.387 796.169 196.667V193.837C796.169 192.739 795.877 191.933 795.294 191.419C794.745 190.904 793.974 190.647 792.979 190.647C792.019 190.647 791.23 190.921 790.612 191.47C790.029 192.019 789.738 192.808 789.738 193.837V200.474L792.876 199.599ZM804.382 187.92H807.572L808.035 189.824L809.321 189.206C810.419 188.658 811.328 188.246 812.048 187.972C812.803 187.697 813.557 187.56 814.312 187.56V190.595C813.866 190.595 813.266 190.733 812.511 191.007C811.756 191.247 810.419 191.83 808.498 192.756V214.674H804.382V187.92ZM825.886 187.92H829.076L829.539 189.412L831.649 188.795C833.089 188.349 834.221 188.04 835.045 187.869C835.902 187.663 836.708 187.56 837.463 187.56C838.697 187.56 839.606 187.989 840.19 188.846C840.773 189.704 841.064 190.818 841.064 192.19V214.674H836.948V193.528C836.948 192.533 836.88 191.847 836.742 191.47C836.605 191.059 836.262 190.853 835.713 190.853C835.439 190.853 833.535 191.402 830.002 192.499V214.674H825.886V187.92ZM853.322 215.034C850.921 215.034 849.052 214.434 847.714 213.233C846.411 211.999 845.759 210.301 845.759 208.14V194.454C845.759 192.293 846.411 190.613 847.714 189.412C849.052 188.177 850.921 187.56 853.322 187.56C855.723 187.56 857.575 188.177 858.879 189.412C860.216 190.613 860.885 192.293 860.885 194.454V208.14C860.885 210.301 860.216 211.999 858.879 213.233C857.575 214.434 855.723 215.034 853.322 215.034ZM853.322 211.844C854.42 211.844 855.277 211.536 855.895 210.918C856.546 210.267 856.872 209.34 856.872 208.14V194.454C856.872 193.254 856.546 192.345 855.895 191.727C855.277 191.076 854.42 190.75 853.322 190.75C852.225 190.75 851.35 191.076 850.698 191.727C850.081 192.345 849.772 193.254 849.772 194.454V208.14C849.772 209.34 850.081 210.267 850.698 210.918C851.35 211.536 852.225 211.844 853.322 211.844ZM865.877 219.819H867.472C868.398 219.819 869.239 219.373 869.993 218.481C870.748 217.624 871.125 216.338 871.125 214.623L863.974 187.92H868.244L872.72 209.632L876.322 187.92H880.386L874.109 217.761C873.389 221.191 871.399 222.906 868.141 222.906H865.877V219.819ZM889.674 214.674C888.439 214.674 887.29 214.365 886.226 213.748C885.197 213.131 884.374 212.29 883.757 211.227C883.174 210.164 882.882 208.963 882.882 207.625V204.95C882.882 203.338 883.277 201.983 884.066 200.885C884.889 199.788 885.901 199.016 887.101 198.57L893.481 196.204V193.785C893.481 192.962 893.224 192.293 892.709 191.779C892.229 191.23 891.594 190.956 890.805 190.956H884.992V187.92H891.166C893.052 187.92 894.544 188.486 895.642 189.618C896.774 190.716 897.34 192.225 897.34 194.146V214.674H889.674ZM893.481 211.536V199.445L888.953 201.143C888.061 201.486 887.427 201.949 887.05 202.532C886.707 203.115 886.535 204.041 886.535 205.31V208.191C886.535 209.117 886.878 209.906 887.564 210.558C888.25 211.21 889.073 211.536 890.034 211.536H893.481ZM906.15 215.034C904.915 215.034 903.989 214.605 903.371 213.748C902.788 212.89 902.497 211.776 902.497 210.404V187.92H906.613V209.066C906.613 210.026 906.681 210.712 906.818 211.124C906.956 211.536 907.282 211.741 907.796 211.741C908.036 211.741 909.974 211.227 913.61 210.198V187.92H917.726V214.674H914.793L914.021 212.925C913.473 213.131 913.061 213.268 912.787 213.336C911.175 213.919 909.871 214.348 908.876 214.623C907.882 214.897 906.973 215.034 906.15 215.034ZM938.442 214.674C936.281 214.674 934.532 214.04 933.194 212.77C931.856 211.501 931.187 209.803 931.187 207.677V194.866C931.187 193.391 931.582 192.139 932.371 191.11C933.194 190.081 934.206 189.378 935.406 189.001L942.301 186.582V178.659H946.417V214.674H938.442ZM942.301 211.587V189.978L937.721 191.522C936.83 191.796 936.195 192.242 935.818 192.859C935.475 193.442 935.303 194.386 935.303 195.689V207.677C935.303 208.912 935.663 209.872 936.384 210.558C937.104 211.244 938.082 211.587 939.316 211.587H942.301ZM950.904 188.435L951.316 178.659H955.689L955.02 188.435H950.904ZM965.391 214.674C964.157 214.674 963.008 214.365 961.944 213.748C960.915 213.131 960.092 212.29 959.475 211.227C958.892 210.164 958.6 208.963 958.6 207.625V204.95C958.6 203.338 958.995 201.983 959.783 200.885C960.607 199.788 961.618 199.016 962.819 198.57L969.199 196.204V193.785C969.199 192.962 968.942 192.293 968.427 191.779C967.947 191.23 967.312 190.956 966.523 190.956H960.71V187.92H966.884C968.77 187.92 970.262 188.486 971.36 189.618C972.492 190.716 973.058 192.225 973.058 194.146V214.674H965.391ZM969.199 211.536V199.445L964.671 201.143C963.779 201.486 963.145 201.949 962.768 202.532C962.425 203.115 962.253 204.041 962.253 205.31V208.191C962.253 209.117 962.596 209.906 963.282 210.558C963.968 211.21 964.791 211.536 965.752 211.536H969.199ZM984.389 214.674C982.502 214.674 980.993 214.108 979.861 212.976C978.763 211.844 978.215 210.318 978.215 208.397V194.711C978.215 192.551 978.781 190.887 979.912 189.721C981.044 188.52 982.691 187.92 984.852 187.92H990.563V191.007H984.955C984.166 191.007 983.531 191.281 983.051 191.83C982.571 192.345 982.331 193.014 982.331 193.837V208.757C982.331 209.581 982.571 210.267 983.051 210.815C983.565 211.33 984.217 211.587 985.006 211.587H990.563V214.674H984.389ZM1001.61 214.674C999.728 214.674 998.236 214.108 997.138 212.976C996.041 211.844 995.492 210.318 995.492 208.397V191.007H992.405V187.92H995.492V180.151L999.608 178.608V187.92H1003.72V191.007H999.608V208.757C999.608 209.581 999.831 210.267 1000.28 210.815C1000.76 211.33 1001.39 211.587 1002.18 211.587H1003.72V214.674H1001.61ZM1013.17 214.674C1011.28 214.674 1009.78 214.108 1008.64 212.976C1007.55 211.844 1007 210.318 1007 208.397V194.711C1007 192.482 1007.61 190.733 1008.85 189.464C1010.08 188.194 1011.92 187.56 1014.35 187.56C1016.79 187.56 1018.61 188.194 1019.81 189.464C1021.04 190.733 1021.66 192.482 1021.66 194.711V197.078C1021.66 198.519 1021.25 199.616 1020.43 200.371C1019.6 201.091 1018.52 201.64 1017.18 202.017L1011.11 203.715V208.757C1011.11 209.581 1011.35 210.267 1011.83 210.815C1012.35 211.33 1013 211.587 1013.79 211.587H1019.35V214.674H1013.17ZM1014.25 199.599C1015.38 199.291 1016.14 199.068 1016.52 198.93C1016.93 198.759 1017.2 198.519 1017.34 198.21C1017.48 197.901 1017.54 197.387 1017.54 196.667V193.837C1017.54 192.739 1017.25 191.933 1016.67 191.419C1016.12 190.904 1015.35 190.647 1014.35 190.647C1013.39 190.647 1012.61 190.921 1011.99 191.47C1011.4 192.019 1011.11 192.808 1011.11 193.837V200.474L1014.25 199.599ZM1028.9 215.034C1027.66 215.034 1026.74 214.605 1026.12 213.748C1025.53 212.89 1025.24 211.776 1025.24 210.404V187.92H1029.36V209.066C1029.36 210.026 1029.43 210.712 1029.56 211.124C1029.7 211.536 1030.03 211.741 1030.54 211.741C1030.78 211.741 1032.72 211.227 1036.36 210.198V187.92H1040.47V214.674H1037.54L1036.77 212.925C1036.22 213.131 1035.81 213.268 1035.53 213.336C1033.92 213.919 1032.62 214.348 1031.62 214.623C1030.63 214.897 1029.72 215.034 1028.9 215.034ZM1046.66 187.92H1049.85L1050.31 189.824L1051.6 189.206C1052.7 188.658 1053.6 188.246 1054.33 187.972C1055.08 187.697 1055.83 187.56 1056.59 187.56V190.595C1056.14 190.595 1055.54 190.733 1054.79 191.007C1054.03 191.247 1052.7 191.83 1050.78 192.756V214.674H1046.66V187.92ZM1058.88 211.587H1063.26C1064.73 211.587 1065.79 211.193 1066.45 210.404C1067.13 209.581 1067.47 208.517 1067.47 207.214C1067.47 206.185 1067.17 205.31 1066.55 204.59C1065.93 203.87 1065.01 203.029 1063.77 202.069C1062.71 201.211 1061.85 200.474 1061.2 199.856C1060.58 199.205 1060.03 198.416 1059.55 197.49C1059.11 196.529 1058.88 195.432 1058.88 194.197C1058.88 192.379 1059.48 190.887 1060.68 189.721C1061.92 188.52 1063.56 187.92 1065.62 187.92H1070.1V191.007H1066.39C1063.96 191.007 1062.74 192.156 1062.74 194.454C1062.74 195.346 1063.02 196.118 1063.56 196.769C1064.11 197.421 1064.97 198.193 1066.14 199.085C1067.2 199.908 1068.08 200.663 1068.76 201.349C1069.45 202 1070.03 202.841 1070.51 203.87C1070.99 204.864 1071.23 206.048 1071.23 207.42C1071.23 209.855 1070.58 211.673 1069.28 212.873C1068.01 214.074 1066.21 214.674 1063.87 214.674H1058.88V211.587ZM1083.59 187.92H1086.78L1087.24 189.412L1089.35 188.795C1090.79 188.349 1091.92 188.04 1092.75 187.869C1093.6 187.663 1094.41 187.56 1095.16 187.56C1096.64 187.56 1097.67 188.212 1098.25 189.515C1099.21 189.172 1100.57 188.76 1102.32 188.28C1104.07 187.8 1105.35 187.56 1106.18 187.56C1107.41 187.56 1108.32 187.989 1108.9 188.846C1109.52 189.704 1109.83 190.818 1109.83 192.19V214.674H1105.71V193.528C1105.71 192.533 1105.64 191.847 1105.51 191.47C1105.37 191.059 1105.03 190.853 1104.48 190.853C1104.2 190.853 1102.32 191.402 1098.82 192.499V214.674H1094.7V193.528C1094.7 192.533 1094.63 191.847 1094.5 191.47C1094.36 191.059 1094.02 190.853 1093.47 190.853C1093.19 190.853 1091.27 191.402 1087.7 192.499V214.674H1083.59V187.92ZM1122.03 215.034C1119.63 215.034 1117.76 214.434 1116.42 213.233C1115.12 211.999 1114.46 210.301 1114.46 208.14V194.454C1114.46 192.293 1115.12 190.613 1116.42 189.412C1117.76 188.177 1119.63 187.56 1122.03 187.56C1124.43 187.56 1126.28 188.177 1127.58 189.412C1128.92 190.613 1129.59 192.293 1129.59 194.454V208.14C1129.59 210.301 1128.92 211.999 1127.58 213.233C1126.28 214.434 1124.43 215.034 1122.03 215.034ZM1122.03 211.844C1123.13 211.844 1123.98 211.536 1124.6 210.918C1125.25 210.267 1125.58 209.34 1125.58 208.14V194.454C1125.58 193.254 1125.25 192.345 1124.6 191.727C1123.98 191.076 1123.13 190.75 1122.03 190.75C1120.93 190.75 1120.06 191.076 1119.4 191.727C1118.79 192.345 1118.48 193.254 1118.48 194.454V208.14C1118.48 209.34 1118.79 210.267 1119.4 210.918C1120.06 211.536 1120.93 211.844 1122.03 211.844ZM1142.2 214.674C1140.31 214.674 1138.82 214.108 1137.72 212.976C1136.62 211.844 1136.07 210.318 1136.07 208.397V191.007H1132.99V187.92H1136.07V180.151L1140.19 178.608V187.92H1144.31V191.007H1140.19V208.757C1140.19 209.581 1140.41 210.267 1140.86 210.815C1141.34 211.33 1141.97 211.587 1142.76 211.587H1144.31V214.674H1142.2ZM1148.4 183.547V179.431H1152.52V183.547H1148.4ZM1148.4 214.674V187.92H1152.52V214.674H1148.4ZM1162.51 214.674L1156.39 187.92H1160.66L1164.62 209.478L1168.53 187.92H1172.8L1166.68 214.674H1162.51ZM1182.3 185.914L1180.6 184.37L1186.57 179.276L1189.19 181.695L1182.3 185.914ZM1181.99 214.674C1180.11 214.674 1178.6 214.108 1177.46 212.976C1176.37 211.844 1175.82 210.318 1175.82 208.397V194.711C1175.82 192.482 1176.43 190.733 1177.67 189.464C1178.9 188.194 1180.74 187.56 1183.17 187.56C1185.61 187.56 1187.43 188.194 1188.63 189.464C1189.86 190.733 1190.48 192.482 1190.48 194.711V197.078C1190.48 198.519 1190.07 199.616 1189.25 200.371C1188.42 201.091 1187.34 201.64 1186 202.017L1179.93 203.715V208.757C1179.93 209.581 1180.17 210.267 1180.65 210.815C1181.17 211.33 1181.82 211.587 1182.61 211.587H1188.17V214.674H1181.99ZM1183.07 199.599C1184.2 199.291 1184.96 199.068 1185.34 198.93C1185.75 198.759 1186.02 198.519 1186.16 198.21C1186.3 197.901 1186.36 197.387 1186.36 196.667V193.837C1186.36 192.739 1186.07 191.933 1185.49 191.419C1184.94 190.904 1184.17 190.647 1183.17 190.647C1182.21 190.647 1181.43 190.921 1180.81 191.47C1180.23 192.019 1179.93 192.808 1179.93 193.837V200.474L1183.07 199.599ZM1193.03 211.587H1197.41C1198.88 211.587 1199.95 211.193 1200.6 210.404C1201.28 209.581 1201.63 208.517 1201.63 207.214C1201.63 206.185 1201.32 205.31 1200.7 204.59C1200.08 203.87 1199.16 203.029 1197.92 202.069C1196.86 201.211 1196 200.474 1195.35 199.856C1194.73 199.205 1194.18 198.416 1193.7 197.49C1193.26 196.529 1193.03 195.432 1193.03 194.197C1193.03 192.379 1193.63 190.887 1194.84 189.721C1196.07 188.52 1197.72 187.92 1199.77 187.92H1204.25V191.007H1200.55C1198.11 191.007 1196.89 192.156 1196.89 194.454C1196.89 195.346 1197.17 196.118 1197.72 196.769C1198.27 197.421 1199.12 198.193 1200.29 199.085C1201.35 199.908 1202.23 200.663 1202.91 201.349C1203.6 202 1204.18 202.841 1204.66 203.87C1205.14 204.864 1205.38 206.048 1205.38 207.42C1205.38 209.855 1204.73 211.673 1203.43 212.873C1202.16 214.074 1200.36 214.674 1198.03 214.674H1193.03V211.587ZM1209.03 214.674V209.375H1213.14V214.674H1209.03Z" fill="#1E1E1E"/>
<rect width="448.945" height="88.9178" fill="black"/>
<path d="M205.958 60.9281C205.554 60.9281 205.352 60.7262 205.352 60.3224V55.7678C205.352 55.5578 205.36 55.3883 205.377 55.259C205.409 55.1298 205.506 55.0249 205.667 54.9441L212.015 52.0369V47.7245L205.764 43.8483C205.49 43.6867 205.352 43.4445 205.352 43.1215V34.2303C205.352 33.9718 205.368 33.7861 205.401 33.673C205.433 33.5438 205.554 33.4065 205.764 33.2612L212.136 28.9488C212.297 28.8519 212.443 28.7792 212.572 28.7308C212.717 28.6662 212.895 28.6339 213.105 28.6339H219.646C220.05 28.6339 220.252 28.8358 220.252 29.2395V33.3581C220.252 33.7134 220.131 33.9557 219.888 34.0849L213.541 36.7014V41.1833L219.888 44.8173C220.131 44.9304 220.252 45.1888 220.252 45.5926V56.1312C220.252 56.2604 220.227 56.3977 220.179 56.5431C220.147 56.6884 220.066 56.7934 219.937 56.858L212.33 60.6374C212.233 60.6858 212.112 60.7504 211.966 60.8312C211.837 60.8958 211.708 60.9281 211.579 60.9281H205.958ZM230.788 60.9281C230.385 60.9281 230.183 60.7262 230.183 60.3224V35.0782H225.943C225.539 35.0782 225.337 34.8763 225.337 34.4725V29.2395C225.337 28.8358 225.539 28.6339 225.943 28.6339H242.49C242.894 28.6339 243.096 28.8358 243.096 29.2395V34.4725C243.096 34.8763 242.894 35.0782 242.49 35.0782H238.25V60.3224C238.25 60.7262 238.048 60.9281 237.645 60.9281H230.788ZM249.507 60.9281C249.104 60.9281 248.902 60.7262 248.902 60.3224V29.2395C248.902 28.8358 249.104 28.6339 249.507 28.6339H262.638C263.026 28.6339 263.349 28.7389 263.607 28.9488L269.179 34.4725C269.357 34.634 269.462 34.7713 269.494 34.8844C269.543 34.9974 269.567 35.1832 269.567 35.4416V42.0797C269.567 42.2897 269.486 42.4754 269.325 42.6369L266.66 45.2292L264.407 47.1673L267.072 50.7044L269.809 56.5673C269.874 56.7127 269.922 56.858 269.955 57.0034C270.003 57.1326 270.027 57.2941 270.027 57.4879V60.3224C270.027 60.7262 269.826 60.9281 269.422 60.9281H263.026C262.671 60.9281 262.428 60.7666 262.299 60.4436L258.399 49.1055H256.582V60.3224C256.582 60.7262 256.38 60.9281 255.976 60.9281H249.507ZM259.247 43.1699C260.587 43.1699 261.5 42.8953 261.984 42.3462C262.469 41.7809 262.711 40.7311 262.711 39.1967C262.711 37.6462 262.469 36.5964 261.984 36.0473C261.5 35.482 260.587 35.1993 259.247 35.1993C257.922 35.1993 257.01 35.482 256.509 36.0473C256.008 36.5964 255.758 37.6462 255.758 39.1967C255.758 40.7311 256.008 41.7809 256.509 42.3462C257.01 42.8953 257.922 43.1699 259.247 43.1699ZM274.322 60.9281C273.918 60.9281 273.716 60.7262 273.716 60.3224V37.8643C273.716 37.6543 273.797 37.412 273.958 37.1375L279.7 28.9973C279.878 28.755 280.136 28.6339 280.475 28.6339H288.494C288.85 28.6339 289.108 28.755 289.269 28.9973L295.035 37.1375C295.197 37.3636 295.278 37.6058 295.278 37.8643V60.3224C295.278 60.7262 295.076 60.9281 294.672 60.9281H287.816C287.412 60.9281 287.21 60.7262 287.21 60.3224V50.0261H281.808V60.3224C281.808 60.7262 281.606 60.9281 281.202 60.9281H274.322ZM284.497 44.8173C285.983 44.8173 286.984 44.4943 287.501 43.8483C288.034 43.1861 288.3 41.9343 288.3 40.0931C288.3 38.2519 288.034 37.0082 287.501 36.3622C286.984 35.7 285.983 35.3689 284.497 35.3689C283.027 35.3689 282.026 35.7 281.493 36.3622C280.976 37.0082 280.717 38.2519 280.717 40.0931C280.717 41.9343 280.976 43.1861 281.493 43.8483C282.026 44.4943 283.027 44.8173 284.497 44.8173ZM306.402 60.9281C305.999 60.9281 305.797 60.7262 305.797 60.3224V35.0782H301.557C301.153 35.0782 300.951 34.8763 300.951 34.4725V29.2395C300.951 28.8358 301.153 28.6339 301.557 28.6339H318.104C318.508 28.6339 318.709 28.8358 318.709 29.2395V34.4725C318.709 34.8763 318.508 35.0782 318.104 35.0782H313.864V60.3224C313.864 60.7262 313.662 60.9281 313.258 60.9281H306.402ZM325.121 60.9281C324.717 60.9281 324.516 60.7262 324.516 60.3224V29.2395C324.516 28.8358 324.717 28.6339 325.121 28.6339H342.007C342.411 28.6339 342.613 28.8358 342.613 29.2395V34.4725C342.613 34.8763 342.411 35.0782 342.007 35.0782H332.583V41.9586H341.184C341.587 41.9586 341.789 42.1605 341.789 42.5642V46.9977C341.789 47.4015 341.587 47.6034 341.184 47.6034H332.583V54.4596H342.007C342.411 54.4596 342.613 54.6615 342.613 55.0652V60.3224C342.613 60.7262 342.411 60.9281 342.007 60.9281H325.121ZM336.411 27.4468L330.16 24.8303C329.854 24.6688 329.765 24.4507 329.894 24.1762L331.275 21.2932C331.42 20.9056 331.638 20.8006 331.929 20.9782L337.646 24.6849C337.937 24.8787 338.026 25.121 337.913 25.4117L337.065 27.2287C336.952 27.5194 336.734 27.5921 336.411 27.4468ZM354.637 60.9281C354.25 60.9281 353.927 60.7908 353.668 60.5162L348.823 55.6709C348.548 55.4125 348.411 55.0895 348.411 54.7018V34.8359C348.411 34.4644 348.548 34.1414 348.823 33.8668L353.668 29.0215C353.927 28.7631 354.25 28.6339 354.637 28.6339H368.955C369.359 28.6339 369.561 28.8358 369.561 29.2395V34.4725C369.561 34.8763 369.359 35.0782 368.955 35.0782H357.302C357.076 35.0782 356.882 35.1589 356.721 35.3205C356.559 35.482 356.479 35.6758 356.479 35.9019V53.6116C356.479 53.8377 356.559 54.0316 356.721 54.1931C356.882 54.3546 357.076 54.4353 357.302 54.4353H362.535V47.9668H359.434C359.03 47.9668 358.829 47.7649 358.829 47.3611V42.1524C358.829 41.7486 359.03 41.5467 359.434 41.5467H369.367C369.771 41.5467 369.973 41.7486 369.973 42.1524V54.7018C369.973 55.0895 369.836 55.4125 369.561 55.6709L364.716 60.5162C364.457 60.7908 364.134 60.9281 363.747 60.9281H354.637ZM375.657 60.9281C375.253 60.9281 375.051 60.7262 375.051 60.3224V29.2395C375.051 28.8358 375.253 28.6339 375.657 28.6339H392.543C392.946 28.6339 393.148 28.8358 393.148 29.2395V34.4725C393.148 34.8763 392.946 35.0782 392.543 35.0782H383.119V41.9586H391.719C392.123 41.9586 392.325 42.1605 392.325 42.5642V46.9977C392.325 47.4015 392.123 47.6034 391.719 47.6034H383.119V54.4596H392.543C392.946 54.4596 393.148 54.6615 393.148 55.0652V60.3224C393.148 60.7262 392.946 60.9281 392.543 60.9281H375.657Z" fill="#FFF1E9"/>
</svg>
