<svg width="1240" height="279" viewBox="0 0 1240 279" fill="none" xmlns="http://www.w3.org/2000/svg">
<rect x="80.819" y="40.7006" width="1154.82" height="233.662" fill="#FFF1E9" stroke="black" stroke-width="7.51635"/>
<path d="M228.302 159.674V122.959H232.917V159.674H228.302ZM239.913 132.4H243.165L243.637 133.921L245.787 133.292C247.256 132.837 248.41 132.522 249.249 132.348C250.123 132.138 250.945 132.033 251.714 132.033C252.973 132.033 253.899 132.47 254.494 133.344C255.088 134.218 255.385 135.355 255.385 136.753V159.674H251.189V138.117C251.189 137.103 251.119 136.404 250.98 136.019C250.84 135.6 250.49 135.39 249.931 135.39C249.651 135.39 247.71 135.949 244.109 137.068V159.674H239.913V132.4ZM268.826 159.674C266.903 159.674 265.381 159.097 264.263 157.943C263.144 156.789 262.584 155.233 262.584 153.275V135.547H259.437V132.4H262.584V124.48L266.78 122.907V132.4H270.976V135.547H266.78V153.642C266.78 154.482 267.007 155.181 267.462 155.74C267.952 156.265 268.598 156.527 269.403 156.527H270.976V159.674H268.826ZM280.922 130.355L279.191 128.781L285.275 123.588L287.95 126.054L280.922 130.355ZM280.607 159.674C278.684 159.674 277.146 159.097 275.992 157.943C274.873 156.789 274.313 155.233 274.313 153.275V139.323C274.313 137.051 274.943 135.267 276.201 133.974C277.46 132.68 279.331 132.033 281.814 132.033C284.296 132.033 286.149 132.68 287.373 133.974C288.632 135.267 289.262 137.051 289.262 139.323V141.736C289.262 143.205 288.842 144.324 288.003 145.093C287.164 145.827 286.062 146.387 284.698 146.771L278.509 148.502V153.642C278.509 154.482 278.754 155.181 279.244 155.74C279.768 156.265 280.432 156.527 281.237 156.527H286.901V159.674H280.607ZM281.709 144.306C282.863 143.992 283.632 143.764 284.017 143.624C284.436 143.45 284.716 143.205 284.856 142.89C284.996 142.575 285.066 142.051 285.066 141.317V138.432C285.066 137.313 284.768 136.491 284.174 135.967C283.614 135.442 282.828 135.18 281.814 135.18C280.835 135.18 280.03 135.46 279.401 136.019C278.806 136.579 278.509 137.383 278.509 138.432V145.198L281.709 144.306ZM295.641 164.919H301.044C301.848 164.919 302.477 164.639 302.932 164.08C303.421 163.555 303.666 162.874 303.666 162.034V159.727H299.313C297.389 159.727 295.764 159.097 294.435 157.838C293.106 156.58 292.442 155.006 292.442 153.118V139.009C292.442 137.121 293.106 135.547 294.435 134.288C295.799 133.029 297.442 132.4 299.365 132.4H307.914V161.667C307.914 163.625 307.372 165.181 306.289 166.335C305.24 167.489 303.753 168.066 301.83 168.066H295.641V164.919ZM303.718 156.58V135.547H300.204C299.225 135.547 298.386 135.879 297.687 136.544C296.987 137.208 296.638 138.03 296.638 139.009V153.118C296.638 154.097 296.987 154.919 297.687 155.583C298.386 156.247 299.225 156.58 300.204 156.58H303.718ZM313.67 132.4H316.922L317.394 134.341L318.706 133.711C319.825 133.152 320.751 132.732 321.485 132.453C322.255 132.173 323.024 132.033 323.793 132.033V135.127C323.339 135.127 322.727 135.267 321.958 135.547C321.188 135.792 319.825 136.386 317.866 137.33V159.674H313.67V132.4ZM333.265 159.674C332.006 159.674 330.834 159.359 329.75 158.73C328.701 158.101 327.862 157.244 327.233 156.16C326.638 155.076 326.341 153.852 326.341 152.488V149.761C326.341 148.118 326.743 146.736 327.548 145.617C328.387 144.499 329.418 143.712 330.642 143.257L337.146 140.845V138.379C337.146 137.54 336.884 136.858 336.359 136.334C335.87 135.774 335.223 135.495 334.419 135.495H328.492V132.4H334.786C336.709 132.4 338.23 132.977 339.349 134.131C340.503 135.25 341.08 136.788 341.08 138.747V159.674H333.265ZM337.146 156.475V144.149L332.53 145.88C331.621 146.229 330.974 146.701 330.59 147.296C330.24 147.89 330.065 148.834 330.065 150.128V153.065C330.065 154.009 330.415 154.814 331.114 155.478C331.813 156.142 332.653 156.475 333.632 156.475H337.146ZM354.467 159.674C352.544 159.674 351.022 159.097 349.904 157.943C348.785 156.789 348.225 155.233 348.225 153.275V135.547H345.078V132.4H348.225V124.48L352.421 122.907V132.4H356.617V135.547H352.421V153.642C352.421 154.482 352.648 155.181 353.103 155.74C353.593 156.265 354.239 156.527 355.044 156.527H356.617V159.674H354.467ZM360.793 127.942V123.746H364.989V127.942H360.793ZM360.793 159.674V132.4H364.989V159.674H360.793ZM377.955 160.041C375.507 160.041 373.602 159.429 372.238 158.205C370.909 156.947 370.245 155.216 370.245 153.013V139.061C370.245 136.858 370.909 135.145 372.238 133.921C373.602 132.662 375.507 132.033 377.955 132.033C380.403 132.033 382.291 132.662 383.619 133.921C384.983 135.145 385.665 136.858 385.665 139.061V153.013C385.665 155.216 384.983 156.947 383.619 158.205C382.291 159.429 380.403 160.041 377.955 160.041ZM377.955 156.789C379.074 156.789 379.948 156.475 380.577 155.845C381.242 155.181 381.574 154.237 381.574 153.013V139.061C381.574 137.837 381.242 136.911 380.577 136.281C379.948 135.617 379.074 135.285 377.955 135.285C376.836 135.285 375.944 135.617 375.28 136.281C374.651 136.911 374.336 137.837 374.336 139.061V153.013C374.336 154.237 374.651 155.181 375.28 155.845C375.944 156.475 376.836 156.789 377.955 156.789ZM390.911 132.4H394.163L394.635 133.921L396.786 133.292C398.254 132.837 399.408 132.522 400.247 132.348C401.122 132.138 401.943 132.033 402.713 132.033C403.971 132.033 404.898 132.47 405.492 133.344C406.087 134.218 406.384 135.355 406.384 136.753V159.674H402.188V138.117C402.188 137.103 402.118 136.404 401.978 136.019C401.838 135.6 401.489 135.39 400.929 135.39C400.649 135.39 398.709 135.949 395.107 137.068V159.674H390.911V132.4ZM419.111 137.855V132.453H423.307V137.855H419.111ZM419.111 159.674V154.272H423.307V159.674H419.111ZM443.159 160.041C440.711 160.041 438.805 159.429 437.442 158.205C436.113 156.947 435.449 155.216 435.449 153.013V139.061C435.449 136.858 436.113 135.145 437.442 133.921C438.805 132.662 440.711 132.033 443.159 132.033C445.607 132.033 447.495 132.662 448.823 133.921C450.187 135.145 450.869 136.858 450.869 139.061V153.013C450.869 155.216 450.187 156.947 448.823 158.205C447.495 159.429 445.607 160.041 443.159 160.041ZM443.159 156.789C444.278 156.789 445.152 156.475 445.781 155.845C446.446 155.181 446.778 154.237 446.778 153.013V139.061C446.778 137.837 446.446 136.911 445.781 136.281C445.152 135.617 444.278 135.285 443.159 135.285C442.04 135.285 441.148 135.617 440.484 136.281C439.854 136.911 439.54 137.837 439.54 139.061V153.013C439.54 154.237 439.854 155.181 440.484 155.845C441.148 156.475 442.04 156.789 443.159 156.789ZM456.115 132.4H459.367L459.839 133.921L461.99 133.292C463.458 132.837 464.612 132.522 465.451 132.348C466.325 132.138 467.147 132.033 467.916 132.033C469.175 132.033 470.102 132.47 470.696 133.344C471.291 134.218 471.588 135.355 471.588 136.753V159.674H467.392V138.117C467.392 137.103 467.322 136.404 467.182 136.019C467.042 135.6 466.693 135.39 466.133 135.39C465.853 135.39 463.913 135.949 460.311 137.068V159.674H456.115V132.4ZM485.311 127.942V123.746H489.507V127.942H485.311ZM485.311 159.674V132.4H489.507V159.674H485.311ZM495.811 132.4H499.063L499.535 133.921L501.686 133.292C503.154 132.837 504.308 132.522 505.147 132.348C506.022 132.138 506.843 132.033 507.613 132.033C508.871 132.033 509.798 132.47 510.392 133.344C510.987 134.218 511.284 135.355 511.284 136.753V159.674H507.088V138.117C507.088 137.103 507.018 136.404 506.878 136.019C506.738 135.6 506.389 135.39 505.829 135.39C505.549 135.39 503.609 135.949 500.007 137.068V159.674H495.811V132.4ZM515.546 156.527H520.004C521.507 156.527 522.591 156.125 523.256 155.321C523.955 154.482 524.305 153.398 524.305 152.069C524.305 151.02 523.99 150.128 523.361 149.394C522.731 148.66 521.787 147.803 520.528 146.824C519.444 145.95 518.57 145.198 517.906 144.568C517.276 143.904 516.717 143.1 516.227 142.156C515.773 141.177 515.546 140.058 515.546 138.799C515.546 136.946 516.157 135.425 517.381 134.236C518.64 133.012 520.319 132.4 522.417 132.4H526.98V135.547H523.203C520.721 135.547 519.479 136.718 519.479 139.061C519.479 139.97 519.759 140.757 520.319 141.421C520.878 142.086 521.752 142.873 522.941 143.782C524.025 144.621 524.917 145.39 525.616 146.09C526.315 146.754 526.91 147.611 527.399 148.66C527.889 149.674 528.134 150.88 528.134 152.279C528.134 154.761 527.469 156.614 526.14 157.838C524.847 159.062 523.011 159.674 520.633 159.674H515.546V156.527ZM538.613 159.674C536.69 159.674 535.152 159.097 533.998 157.943C532.879 156.789 532.319 155.233 532.319 153.275V139.323C532.319 137.121 532.896 135.425 534.05 134.236C535.204 133.012 536.882 132.4 539.085 132.4H544.907V135.547H539.19C538.386 135.547 537.739 135.827 537.25 136.386C536.76 136.911 536.515 137.593 536.515 138.432V153.642C536.515 154.482 536.76 155.181 537.25 155.74C537.774 156.265 538.439 156.527 539.243 156.527H544.907V159.674H538.613ZM548.569 132.4H551.821L552.293 134.341L553.604 133.711C554.723 133.152 555.649 132.732 556.384 132.453C557.153 132.173 557.922 132.033 558.691 132.033V135.127C558.237 135.127 557.625 135.267 556.856 135.547C556.086 135.792 554.723 136.386 552.765 137.33V159.674H548.569V132.4ZM562.603 127.942V123.746H566.799V127.942H562.603ZM562.603 159.674V132.4H566.799V159.674H562.603ZM580.709 159.674C578.785 159.674 577.264 159.097 576.145 157.943C575.026 156.789 574.467 155.233 574.467 153.275V135.547H571.32V132.4H574.467V124.48L578.663 122.907V132.4H582.859V135.547H578.663V153.642C578.663 154.482 578.89 155.181 579.345 155.74C579.834 156.265 580.481 156.527 581.285 156.527H582.859V159.674H580.709ZM601.847 159.674C599.644 159.674 597.861 159.027 596.497 157.733C595.133 156.44 594.451 154.709 594.451 152.541V139.481C594.451 137.977 594.853 136.701 595.658 135.652C596.497 134.603 597.528 133.886 598.752 133.502L605.78 131.036V122.959H609.976V159.674H601.847ZM605.78 156.527V134.498L601.112 136.072C600.203 136.351 599.556 136.806 599.172 137.435C598.822 138.03 598.647 138.991 598.647 140.32V152.541C598.647 153.8 599.014 154.779 599.749 155.478C600.483 156.177 601.48 156.527 602.738 156.527H605.78ZM619.482 160.041C618.223 160.041 617.279 159.604 616.649 158.73C616.055 157.856 615.758 156.719 615.758 155.321V132.4H619.954V153.957C619.954 154.936 620.024 155.635 620.164 156.055C620.304 156.475 620.636 156.684 621.16 156.684C621.405 156.684 623.381 156.16 627.087 155.111V132.4H631.283V159.674H628.293L627.507 157.891C626.947 158.101 626.528 158.24 626.248 158.31C624.604 158.905 623.276 159.342 622.262 159.622C621.248 159.901 620.321 160.041 619.482 160.041ZM637.59 132.4H640.842L641.314 134.341L642.625 133.711C643.744 133.152 644.671 132.732 645.405 132.453C646.174 132.173 646.944 132.033 647.713 132.033V135.127C647.258 135.127 646.647 135.267 645.877 135.547C645.108 135.792 643.744 136.386 641.786 137.33V159.674H637.59V132.4ZM657.184 159.674C655.926 159.674 654.754 159.359 653.67 158.73C652.621 158.101 651.782 157.244 651.153 156.16C650.558 155.076 650.261 153.852 650.261 152.488V149.761C650.261 148.118 650.663 146.736 651.467 145.617C652.307 144.499 653.338 143.712 654.562 143.257L661.066 140.845V138.379C661.066 137.54 660.803 136.858 660.279 136.334C659.789 135.774 659.142 135.495 658.338 135.495H652.411V132.4H658.705C660.629 132.4 662.15 132.977 663.269 134.131C664.422 135.25 664.999 136.788 664.999 138.747V159.674H657.184ZM661.066 156.475V144.149L656.45 145.88C655.541 146.229 654.894 146.701 654.509 147.296C654.16 147.89 653.985 148.834 653.985 150.128V153.065C653.985 154.009 654.335 154.814 655.034 155.478C655.733 156.142 656.572 156.475 657.552 156.475H661.066ZM670.781 122.959H674.977V131.141L682.005 133.606C683.229 134.026 684.243 134.76 685.048 135.809C685.887 136.823 686.306 138.082 686.306 139.586V153.065C686.306 154.954 685.642 156.527 684.313 157.786C682.985 159.045 681.359 159.674 679.435 159.674H670.781V122.959ZM678.544 156.527C679.523 156.527 680.362 156.195 681.061 155.531C681.761 154.866 682.11 154.044 682.11 153.065V140.425C682.11 139.096 681.918 138.135 681.533 137.54C681.184 136.911 680.554 136.456 679.645 136.176L674.977 134.603V156.527H678.544ZM691.322 159.674V122.959H695.518V159.674H691.322ZM707.225 159.674C705.301 159.674 703.763 159.097 702.609 157.943C701.49 156.789 700.931 155.233 700.931 153.275V139.323C700.931 137.051 701.56 135.267 702.819 133.974C704.078 132.68 705.948 132.033 708.431 132.033C710.913 132.033 712.767 132.68 713.991 133.974C715.249 135.267 715.879 137.051 715.879 139.323V141.736C715.879 143.205 715.459 144.324 714.62 145.093C713.781 145.827 712.679 146.387 711.316 146.771L705.127 148.502V153.642C705.127 154.482 705.371 155.181 705.861 155.74C706.385 156.265 707.05 156.527 707.854 156.527H713.519V159.674H707.225ZM708.326 144.306C709.48 143.992 710.249 143.764 710.634 143.624C711.053 143.45 711.333 143.205 711.473 142.89C711.613 142.575 711.683 142.051 711.683 141.317V138.432C711.683 137.313 711.386 136.491 710.791 135.967C710.232 135.442 709.445 135.18 708.431 135.18C707.452 135.18 706.648 135.46 706.018 136.019C705.424 136.579 705.127 137.383 705.127 138.432V145.198L708.326 144.306ZM720.056 132.4H723.307L723.779 133.921L725.93 133.292C727.399 132.837 728.552 132.522 729.392 132.348C730.266 132.138 731.087 132.033 731.857 132.033C733.36 132.033 734.409 132.697 735.004 134.026C735.983 133.676 737.364 133.257 739.147 132.767C740.931 132.278 742.242 132.033 743.081 132.033C744.34 132.033 745.266 132.47 745.861 133.344C746.49 134.218 746.805 135.355 746.805 136.753V159.674H742.609V138.117C742.609 137.103 742.539 136.404 742.399 136.019C742.259 135.6 741.91 135.39 741.35 135.39C741.07 135.39 739.147 135.949 735.581 137.068V159.674H731.385V138.117C731.385 137.103 731.315 136.404 731.175 136.019C731.035 135.6 730.685 135.39 730.126 135.39C729.846 135.39 727.888 135.949 724.252 137.068V159.674H720.056V132.4ZM758.035 159.674C756.112 159.674 754.574 159.097 753.42 157.943C752.301 156.789 751.741 155.233 751.741 153.275V139.323C751.741 137.051 752.371 135.267 753.63 133.974C754.888 132.68 756.759 132.033 759.242 132.033C761.724 132.033 763.578 132.68 764.802 133.974C766.06 135.267 766.69 137.051 766.69 139.323V141.736C766.69 143.205 766.27 144.324 765.431 145.093C764.592 145.827 763.49 146.387 762.127 146.771L755.937 148.502V153.642C755.937 154.482 756.182 155.181 756.672 155.74C757.196 156.265 757.861 156.527 758.665 156.527H764.329V159.674H758.035ZM759.137 144.306C760.291 143.992 761.06 143.764 761.445 143.624C761.864 143.45 762.144 143.205 762.284 142.89C762.424 142.575 762.494 142.051 762.494 141.317V138.432C762.494 137.313 762.196 136.491 761.602 135.967C761.043 135.442 760.256 135.18 759.242 135.18C758.263 135.18 757.459 135.46 756.829 136.019C756.235 136.579 755.937 137.383 755.937 138.432V145.198L759.137 144.306ZM770.866 132.4H774.118L774.59 133.921L776.741 133.292C778.209 132.837 779.363 132.522 780.203 132.348C781.077 132.138 781.898 132.033 782.668 132.033C783.926 132.033 784.853 132.47 785.448 133.344C786.042 134.218 786.339 135.355 786.339 136.753V159.674H782.143V138.117C782.143 137.103 782.073 136.404 781.933 136.019C781.794 135.6 781.444 135.39 780.884 135.39C780.605 135.39 778.664 135.949 775.062 137.068V159.674H770.866V132.4ZM799.78 159.674C797.856 159.674 796.335 159.097 795.216 157.943C794.097 156.789 793.538 155.233 793.538 153.275V135.547H790.391V132.4H793.538V124.48L797.734 122.907V132.4H801.93V135.547H797.734V153.642C797.734 154.482 797.961 155.181 798.416 155.74C798.905 156.265 799.552 156.527 800.356 156.527H801.93V159.674H799.78ZM814.047 159.674V122.959H818.243V159.674H814.047ZM830.054 159.674C828.795 159.674 827.624 159.359 826.54 158.73C825.491 158.101 824.652 157.244 824.022 156.16C823.428 155.076 823.131 153.852 823.131 152.488V149.761C823.131 148.118 823.533 146.736 824.337 145.617C825.176 144.499 826.208 143.712 827.432 143.257L833.936 140.845V138.379C833.936 137.54 833.673 136.858 833.149 136.334C832.659 135.774 832.012 135.495 831.208 135.495H825.281V132.4H831.575C833.498 132.4 835.02 132.977 836.138 134.131C837.292 135.25 837.869 136.788 837.869 138.747V159.674H830.054ZM833.936 156.475V144.149L829.32 145.88C828.411 146.229 827.764 146.701 827.379 147.296C827.03 147.89 826.855 148.834 826.855 150.128V153.065C826.855 154.009 827.204 154.814 827.904 155.478C828.603 156.142 829.442 156.475 830.421 156.475H833.936ZM858.462 159.674C856.26 159.674 854.476 159.027 853.113 157.733C851.749 156.44 851.067 154.709 851.067 152.541V139.481C851.067 137.977 851.469 136.701 852.273 135.652C853.113 134.603 854.144 133.886 855.368 133.502L862.396 131.036V122.959H866.592V159.674H858.462ZM862.396 156.527V134.498L857.728 136.072C856.819 136.351 856.172 136.806 855.787 137.435C855.438 138.03 855.263 138.991 855.263 140.32V152.541C855.263 153.8 855.63 154.779 856.364 155.478C857.099 156.177 858.095 156.527 859.354 156.527H862.396ZM878.668 130.355L876.937 128.781L883.021 123.588L885.696 126.054L878.668 130.355ZM878.353 159.674C876.43 159.674 874.891 159.097 873.737 157.943C872.618 156.789 872.059 155.233 872.059 153.275V139.323C872.059 137.051 872.688 135.267 873.947 133.974C875.206 132.68 877.077 132.033 879.559 132.033C882.042 132.033 883.895 132.68 885.119 133.974C886.378 135.267 887.007 137.051 887.007 139.323V141.736C887.007 143.205 886.588 144.324 885.748 145.093C884.909 145.827 883.808 146.387 882.444 146.771L876.255 148.502V153.642C876.255 154.482 876.5 155.181 876.989 155.74C877.514 156.265 878.178 156.527 878.982 156.527H884.647V159.674H878.353ZM879.454 144.306C880.608 143.992 881.378 143.764 881.762 143.624C882.182 143.45 882.461 143.205 882.601 142.89C882.741 142.575 882.811 142.051 882.811 141.317V138.432C882.811 137.313 882.514 136.491 881.919 135.967C881.36 135.442 880.573 135.18 879.559 135.18C878.58 135.18 877.776 135.46 877.147 136.019C876.552 136.579 876.255 137.383 876.255 138.432V145.198L879.454 144.306ZM891.184 132.4H894.436L894.908 133.921L897.058 133.292C898.527 132.837 899.681 132.522 900.52 132.348C901.394 132.138 902.216 132.033 902.985 132.033C904.489 132.033 905.538 132.697 906.132 134.026C907.111 133.676 908.492 133.257 910.276 132.767C912.059 132.278 913.37 132.033 914.209 132.033C915.468 132.033 916.395 132.47 916.989 133.344C917.619 134.218 917.933 135.355 917.933 136.753V159.674H913.737V138.117C913.737 137.103 913.667 136.404 913.528 136.019C913.388 135.6 913.038 135.39 912.479 135.39C912.199 135.39 910.276 135.949 906.709 137.068V159.674H902.513V138.117C902.513 137.103 902.443 136.404 902.303 136.019C902.163 135.6 901.814 135.39 901.254 135.39C900.975 135.39 899.016 135.949 895.38 137.068V159.674H891.184V132.4ZM929.269 159.674C928.01 159.674 926.839 159.359 925.755 158.73C924.706 158.101 923.866 157.244 923.237 156.16C922.643 155.076 922.345 153.852 922.345 152.488V149.761C922.345 148.118 922.747 146.736 923.552 145.617C924.391 144.499 925.422 143.712 926.646 143.257L933.15 140.845V138.379C933.15 137.54 932.888 136.858 932.363 136.334C931.874 135.774 931.227 135.495 930.423 135.495H924.496V132.4H930.79C932.713 132.4 934.234 132.977 935.353 134.131C936.507 135.25 937.084 136.788 937.084 138.747V159.674H929.269ZM933.15 156.475V144.149L928.534 145.88C927.625 146.229 926.978 146.701 926.594 147.296C926.244 147.89 926.069 148.834 926.069 150.128V153.065C926.069 154.009 926.419 154.814 927.118 155.478C927.818 156.142 928.657 156.475 929.636 156.475H933.15ZM942.866 132.4H946.117L946.59 134.341L947.901 133.711C949.02 133.152 949.946 132.732 950.681 132.453C951.45 132.173 952.219 132.033 952.988 132.033V135.127C952.534 135.127 951.922 135.267 951.153 135.547C950.383 135.792 949.02 136.386 947.062 137.33V159.674H942.866V132.4ZM962.67 159.674C960.746 159.674 959.208 159.097 958.054 157.943C956.935 156.789 956.376 155.233 956.376 153.275V139.323C956.376 137.121 956.953 135.425 958.106 134.236C959.26 133.012 960.939 132.4 963.142 132.4H968.964V135.547H963.247C962.442 135.547 961.795 135.827 961.306 136.386C960.816 136.911 960.572 137.593 960.572 138.432V153.642C960.572 154.482 960.816 155.181 961.306 155.74C961.83 156.265 962.495 156.527 963.299 156.527H968.964V159.674H962.67ZM972.625 122.959H976.821V133.816L979.129 133.134C980.562 132.715 981.611 132.435 982.276 132.295C982.975 132.12 983.692 132.033 984.426 132.033C985.685 132.033 986.611 132.47 987.206 133.344C987.8 134.218 988.098 135.355 988.098 136.753V159.674H983.902V138.117C983.902 137.103 983.832 136.404 983.692 136.019C983.552 135.6 983.202 135.39 982.643 135.39C982.363 135.39 980.422 135.949 976.821 137.068V159.674H972.625V122.959ZM999.9 159.674C997.976 159.674 996.438 159.097 995.284 157.943C994.165 156.789 993.606 155.233 993.606 153.275V139.323C993.606 137.051 994.235 135.267 995.494 133.974C996.753 132.68 998.623 132.033 1001.11 132.033C1003.59 132.033 1005.44 132.68 1006.67 133.974C1007.92 135.267 1008.55 137.051 1008.55 139.323V141.736C1008.55 143.205 1008.13 144.324 1007.3 145.093C1006.46 145.827 1005.35 146.387 1003.99 146.771L997.802 148.502V153.642C997.802 154.482 998.046 155.181 998.536 155.74C999.06 156.265 999.725 156.527 1000.53 156.527H1006.19V159.674H999.9ZM1001 144.306C1002.15 143.992 1002.92 143.764 1003.31 143.624C1003.73 143.45 1004.01 143.205 1004.15 142.89C1004.29 142.575 1004.36 142.051 1004.36 141.317V138.432C1004.36 137.313 1004.06 136.491 1003.47 135.967C1002.91 135.442 1002.12 135.18 1001.11 135.18C1000.13 135.18 999.323 135.46 998.693 136.019C998.099 136.579 997.802 137.383 997.802 138.432V145.198L1001 144.306ZM1020.88 159.674V122.959H1028.59L1037.14 154.691V122.959H1041.81V159.674H1035.2L1025.5 126.316V159.674H1020.88ZM1049.06 159.674V122.959H1053.68V159.674H1049.06ZM1061.36 122.959H1071.06C1074.28 122.959 1076.65 123.781 1078.19 125.424C1079.73 127.033 1080.5 129.463 1080.5 132.715C1080.5 135.162 1080.03 137.295 1079.08 139.114C1078.14 140.932 1076.79 142.191 1075.04 142.89L1082.34 159.674H1077.82L1070.69 143.572H1065.87V159.674H1061.36V122.959ZM1069.69 140.11C1071.69 140.11 1073.23 139.428 1074.31 138.065C1075.43 136.666 1075.99 134.883 1075.99 132.715C1075.99 130.652 1075.45 129.096 1074.36 128.047C1073.31 126.963 1071.76 126.421 1069.69 126.421H1065.97V140.11H1069.69ZM1087.17 122.959H1096.3C1099.48 122.959 1101.94 123.763 1103.69 125.372C1105.44 126.98 1106.31 129.34 1106.31 132.453V150.181C1106.31 153.293 1105.44 155.653 1103.69 157.261C1101.94 158.835 1099.48 159.639 1096.3 159.674H1087.17V122.959ZM1096.3 156.107C1097.9 156.107 1099.2 155.653 1100.18 154.744C1101.19 153.8 1101.7 152.558 1101.7 151.02V131.613C1101.7 130.075 1101.19 128.851 1100.18 127.942C1099.2 126.998 1097.9 126.526 1096.3 126.526H1091.84V156.107H1096.3ZM1126.55 159.674C1124.35 159.674 1122.57 159.027 1121.2 157.733C1119.84 156.44 1119.16 154.709 1119.16 152.541V139.481C1119.16 137.977 1119.56 136.701 1120.36 135.652C1121.2 134.603 1122.23 133.886 1123.46 133.502L1130.49 131.036V122.959H1134.68V159.674H1126.55ZM1130.49 156.527V134.498L1125.82 136.072C1124.91 136.351 1124.26 136.806 1123.88 137.435C1123.53 138.03 1123.35 138.991 1123.35 140.32V152.541C1123.35 153.8 1123.72 154.779 1124.45 155.478C1125.19 156.177 1126.18 156.527 1127.44 156.527H1130.49ZM1146.55 159.674C1145.29 159.674 1144.12 159.359 1143.03 158.73C1141.98 158.101 1141.14 157.244 1140.52 156.16C1139.92 155.076 1139.62 153.852 1139.62 152.488V149.761C1139.62 148.118 1140.03 146.736 1140.83 145.617C1141.67 144.499 1142.7 143.712 1143.92 143.257L1150.43 140.845V138.379C1150.43 137.54 1150.17 136.858 1149.64 136.334C1149.15 135.774 1148.51 135.495 1147.7 135.495H1141.77V132.4H1148.07C1149.99 132.4 1151.51 132.977 1152.63 134.131C1153.79 135.25 1154.36 136.788 1154.36 138.747V159.674H1146.55ZM1150.43 156.475V144.149L1145.81 145.88C1144.9 146.229 1144.26 146.701 1143.87 147.296C1143.52 147.89 1143.35 148.834 1143.35 150.128V153.065C1143.35 154.009 1143.7 154.814 1144.4 155.478C1145.1 156.142 1145.94 156.475 1146.91 156.475H1150.43ZM1160.14 132.4H1163.4L1163.87 133.921L1166.02 133.292C1167.49 132.837 1168.64 132.522 1169.48 132.348C1170.35 132.138 1171.18 132.033 1171.95 132.033C1173.2 132.033 1174.13 132.47 1174.72 133.344C1175.32 134.218 1175.62 135.355 1175.62 136.753V159.674H1171.42V138.117C1171.42 137.103 1171.35 136.404 1171.21 136.019C1171.07 135.6 1170.72 135.39 1170.16 135.39C1169.88 135.39 1167.94 135.949 1164.34 137.068V159.674H1160.14V132.4ZM1179.88 156.527H1184.34C1185.84 156.527 1186.92 156.125 1187.59 155.321C1188.29 154.482 1188.64 153.398 1188.64 152.069C1188.64 151.02 1188.32 150.128 1187.69 149.394C1187.06 148.66 1186.12 147.803 1184.86 146.824C1183.78 145.95 1182.9 145.198 1182.24 144.568C1181.61 143.904 1181.05 143.1 1180.56 142.156C1180.11 141.177 1179.88 140.058 1179.88 138.799C1179.88 136.946 1180.49 135.425 1181.71 134.236C1182.97 133.012 1184.65 132.4 1186.75 132.4H1191.31V135.547H1187.54C1185.05 135.547 1183.81 136.718 1183.81 139.061C1183.81 139.97 1184.09 140.757 1184.65 141.421C1185.21 142.086 1186.08 142.873 1187.27 143.782C1188.36 144.621 1189.25 145.39 1189.95 146.09C1190.65 146.754 1191.24 147.611 1191.73 148.66C1192.22 149.674 1192.47 150.88 1192.47 152.279C1192.47 154.761 1191.8 156.614 1190.47 157.838C1189.18 159.062 1187.34 159.674 1184.97 159.674H1179.88V156.527ZM226.046 213.527H230.504C232.008 213.527 233.092 213.125 233.756 212.321C234.456 211.482 234.805 210.398 234.805 209.069C234.805 208.02 234.491 207.128 233.861 206.394C233.232 205.66 232.288 204.803 231.029 203.824C229.945 202.95 229.071 202.198 228.406 201.568C227.777 200.904 227.218 200.1 226.728 199.156C226.273 198.177 226.046 197.058 226.046 195.799C226.046 193.946 226.658 192.425 227.882 191.236C229.141 190.012 230.819 189.4 232.917 189.4H237.48V192.547H233.704C231.221 192.547 229.98 193.718 229.98 196.061C229.98 196.97 230.26 197.757 230.819 198.421C231.379 199.086 232.253 199.873 233.442 200.782C234.526 201.621 235.417 202.39 236.117 203.09C236.816 203.754 237.41 204.611 237.9 205.66C238.389 206.674 238.634 207.88 238.634 209.279C238.634 211.761 237.97 213.614 236.641 214.838C235.347 216.062 233.512 216.674 231.134 216.674H226.046V213.527ZM250.006 217.041C247.558 217.041 245.652 216.429 244.289 215.205C242.96 213.947 242.295 212.216 242.295 210.013V196.061C242.295 193.858 242.96 192.145 244.289 190.921C245.652 189.662 247.558 189.033 250.006 189.033C252.453 189.033 254.341 189.662 255.67 190.921C257.034 192.145 257.716 193.858 257.716 196.061V210.013C257.716 212.216 257.034 213.947 255.67 215.205C254.341 216.429 252.453 217.041 250.006 217.041ZM250.006 213.789C251.124 213.789 251.999 213.475 252.628 212.845C253.292 212.181 253.625 211.237 253.625 210.013V196.061C253.625 194.837 253.292 193.911 252.628 193.281C251.999 192.617 251.124 192.285 250.006 192.285C248.887 192.285 247.995 192.617 247.331 193.281C246.701 193.911 246.387 194.837 246.387 196.061V210.013C246.387 211.237 246.701 212.181 247.331 212.845C247.995 213.475 248.887 213.789 250.006 213.789ZM262.962 189.4H266.214L266.686 190.921L268.836 190.292C270.305 189.837 271.459 189.522 272.298 189.348C273.172 189.138 273.994 189.033 274.763 189.033C276.022 189.033 276.949 189.47 277.543 190.344C278.137 191.218 278.435 192.355 278.435 193.753V216.674H274.239V195.117C274.239 194.103 274.169 193.404 274.029 193.019C273.889 192.6 273.539 192.39 272.98 192.39C272.7 192.39 270.76 192.949 267.158 194.068V216.674H262.962V189.4ZM293.469 192.862H290.322V189.4H293.469V186.358C293.469 184.4 294.028 182.844 295.147 181.69C296.266 180.536 297.787 179.959 299.711 179.959H302.018V183.106H300.445C299.641 183.106 298.976 183.386 298.452 183.945C297.927 184.505 297.665 185.187 297.665 185.991V189.4H301.913V192.862H297.665V216.674H293.469V192.862ZM311.983 217.041C309.535 217.041 307.629 216.429 306.266 215.205C304.937 213.947 304.272 212.216 304.272 210.013V196.061C304.272 193.858 304.937 192.145 306.266 190.921C307.629 189.662 309.535 189.033 311.983 189.033C314.43 189.033 316.318 189.662 317.647 190.921C319.011 192.145 319.693 193.858 319.693 196.061V210.013C319.693 212.216 319.011 213.947 317.647 215.205C316.318 216.429 314.43 217.041 311.983 217.041ZM311.983 213.789C313.102 213.789 313.976 213.475 314.605 212.845C315.269 212.181 315.602 211.237 315.602 210.013V196.061C315.602 194.837 315.269 193.911 314.605 193.281C313.976 192.617 313.102 192.285 311.983 192.285C310.864 192.285 309.972 192.617 309.308 193.281C308.678 193.911 308.364 194.837 308.364 196.061V210.013C308.364 211.237 308.678 212.181 309.308 212.845C309.972 213.475 310.864 213.789 311.983 213.789ZM324.939 189.4H328.191L328.663 190.921L330.813 190.292C332.282 189.837 333.436 189.522 334.275 189.348C335.149 189.138 335.971 189.033 336.74 189.033C337.999 189.033 338.926 189.47 339.52 190.344C340.115 191.218 340.412 192.355 340.412 193.753V216.674H336.216V195.117C336.216 194.103 336.146 193.404 336.006 193.019C335.866 192.6 335.516 192.39 334.957 192.39C334.677 192.39 332.737 192.949 329.135 194.068V216.674H324.939V189.4ZM352.016 216.674C350.093 216.674 348.555 216.097 347.401 214.943C346.282 213.789 345.722 212.233 345.722 210.275V196.323C345.722 194.121 346.299 192.425 347.453 191.236C348.607 190.012 350.285 189.4 352.488 189.4H358.31V192.547H352.593C351.789 192.547 351.142 192.827 350.653 193.386C350.163 193.911 349.918 194.593 349.918 195.432V210.642C349.918 211.482 350.163 212.181 350.653 212.74C351.177 213.265 351.841 213.527 352.646 213.527H358.31V216.674H352.016ZM369.577 216.674C367.654 216.674 366.133 216.097 365.014 214.943C363.895 213.789 363.335 212.233 363.335 210.275V192.547H360.188V189.4H363.335V181.48L367.531 179.907V189.4H371.727V192.547H367.531V210.642C367.531 211.482 367.759 212.181 368.213 212.74C368.703 213.265 369.35 213.527 370.154 213.527H371.727V216.674H369.577ZM375.904 184.942V180.746H380.1V184.942H375.904ZM375.904 216.674V189.4H380.1V216.674H375.904ZM393.065 217.041C390.617 217.041 388.712 216.429 387.348 215.205C386.019 213.947 385.355 212.216 385.355 210.013V196.061C385.355 193.858 386.019 192.145 387.348 190.921C388.712 189.662 390.617 189.033 393.065 189.033C395.513 189.033 397.401 189.662 398.73 190.921C400.093 192.145 400.775 193.858 400.775 196.061V210.013C400.775 212.216 400.093 213.947 398.73 215.205C397.401 216.429 395.513 217.041 393.065 217.041ZM393.065 213.789C394.184 213.789 395.058 213.475 395.687 212.845C396.352 212.181 396.684 211.237 396.684 210.013V196.061C396.684 194.837 396.352 193.911 395.687 193.281C395.058 192.617 394.184 192.285 393.065 192.285C391.946 192.285 391.054 192.617 390.39 193.281C389.761 193.911 389.446 194.837 389.446 196.061V210.013C389.446 211.237 389.761 212.181 390.39 212.845C391.054 213.475 391.946 213.789 393.065 213.789ZM406.021 189.4H409.273L409.745 190.921L411.896 190.292C413.364 189.837 414.518 189.522 415.357 189.348C416.232 189.138 417.053 189.033 417.823 189.033C419.081 189.033 420.008 189.47 420.602 190.344C421.197 191.218 421.494 192.355 421.494 193.753V216.674H417.298V195.117C417.298 194.103 417.228 193.404 417.088 193.019C416.948 192.6 416.599 192.39 416.039 192.39C415.76 192.39 413.819 192.949 410.217 194.068V216.674H406.021V189.4ZM427.329 189.4H430.581L431.053 190.921L433.204 190.292C434.672 189.837 435.826 189.522 436.665 189.348C437.539 189.138 438.361 189.033 439.13 189.033C440.389 189.033 441.316 189.47 441.91 190.344C442.505 191.218 442.802 192.355 442.802 193.753V216.674H438.606V195.117C438.606 194.103 438.536 193.404 438.396 193.019C438.256 192.6 437.907 192.39 437.347 192.39C437.067 192.39 435.127 192.949 431.525 194.068V216.674H427.329V189.4ZM454.092 216.674C452.169 216.674 450.63 216.097 449.476 214.943C448.357 213.789 447.798 212.233 447.798 210.275V196.323C447.798 194.051 448.427 192.267 449.686 190.974C450.945 189.68 452.816 189.033 455.298 189.033C457.781 189.033 459.634 189.68 460.858 190.974C462.117 192.267 462.746 194.051 462.746 196.323V198.736C462.746 200.205 462.326 201.324 461.487 202.093C460.648 202.827 459.547 203.387 458.183 203.771L451.994 205.502V210.642C451.994 211.482 452.239 212.181 452.728 212.74C453.253 213.265 453.917 213.527 454.721 213.527H460.386V216.674H454.092ZM455.193 201.306C456.347 200.992 457.116 200.764 457.501 200.624C457.921 200.45 458.2 200.205 458.34 199.89C458.48 199.575 458.55 199.051 458.55 198.317V195.432C458.55 194.313 458.253 193.491 457.658 192.967C457.099 192.442 456.312 192.18 455.298 192.18C454.319 192.18 453.515 192.46 452.885 193.019C452.291 193.579 451.994 194.383 451.994 195.432V202.198L455.193 201.306ZM466.923 189.4H470.175L470.647 190.921L472.797 190.292C474.266 189.837 475.42 189.522 476.259 189.348C477.133 189.138 477.955 189.033 478.724 189.033C480.228 189.033 481.277 189.697 481.871 191.026C482.85 190.676 484.231 190.257 486.015 189.767C487.798 189.278 489.109 189.033 489.948 189.033C491.207 189.033 492.134 189.47 492.728 190.344C493.358 191.218 493.672 192.355 493.672 193.753V216.674H489.476V195.117C489.476 194.103 489.406 193.404 489.266 193.019C489.127 192.6 488.777 192.39 488.217 192.39C487.938 192.39 486.015 192.949 482.448 194.068V216.674H478.252V195.117C478.252 194.103 478.182 193.404 478.042 193.019C477.902 192.6 477.553 192.39 476.993 192.39C476.713 192.39 474.755 192.949 471.119 194.068V216.674H466.923V189.4ZM504.903 216.674C502.98 216.674 501.441 216.097 500.287 214.943C499.168 213.789 498.609 212.233 498.609 210.275V196.323C498.609 194.051 499.238 192.267 500.497 190.974C501.756 189.68 503.626 189.033 506.109 189.033C508.592 189.033 510.445 189.68 511.669 190.974C512.928 192.267 513.557 194.051 513.557 196.323V198.736C513.557 200.205 513.137 201.324 512.298 202.093C511.459 202.827 510.358 203.387 508.994 203.771L502.805 205.502V210.642C502.805 211.482 503.05 212.181 503.539 212.74C504.064 213.265 504.728 213.527 505.532 213.527H511.197V216.674H504.903ZM506.004 201.306C507.158 200.992 507.927 200.764 508.312 200.624C508.732 200.45 509.011 200.205 509.151 199.89C509.291 199.575 509.361 199.051 509.361 198.317V195.432C509.361 194.313 509.064 193.491 508.469 192.967C507.91 192.442 507.123 192.18 506.109 192.18C505.13 192.18 504.326 192.46 503.696 193.019C503.102 193.579 502.805 194.383 502.805 195.432V202.198L506.004 201.306ZM517.734 189.4H520.986L521.458 190.921L523.608 190.292C525.077 189.837 526.231 189.522 527.07 189.348C527.944 189.138 528.766 189.033 529.535 189.033C530.794 189.033 531.72 189.47 532.315 190.344C532.909 191.218 533.206 192.355 533.206 193.753V216.674H529.01V195.117C529.01 194.103 528.941 193.404 528.801 193.019C528.661 192.6 528.311 192.39 527.752 192.39C527.472 192.39 525.531 192.949 521.93 194.068V216.674H517.734V189.4ZM546.647 216.674C544.724 216.674 543.203 216.097 542.084 214.943C540.965 213.789 540.405 212.233 540.405 210.275V192.547H537.258V189.4H540.405V181.48L544.601 179.907V189.4H548.797V192.547H544.601V210.642C544.601 211.482 544.829 212.181 545.283 212.74C545.773 213.265 546.419 213.527 547.224 213.527H548.797V216.674H546.647ZM549.774 223.125L552.029 216.674V211.272H556.225V216.622L553.026 223.125H549.774ZM573.795 216.674C571.871 216.674 570.333 216.097 569.179 214.943C568.06 213.789 567.501 212.233 567.501 210.275V196.323C567.501 194.051 568.13 192.267 569.389 190.974C570.648 189.68 572.518 189.033 575.001 189.033C577.484 189.033 579.337 189.68 580.561 190.974C581.819 192.267 582.449 194.051 582.449 196.323V198.736C582.449 200.205 582.029 201.324 581.19 202.093C580.351 202.827 579.249 203.387 577.886 203.771L571.697 205.502V210.642C571.697 211.482 571.941 212.181 572.431 212.74C572.955 213.265 573.62 213.527 574.424 213.527H580.089V216.674H573.795ZM574.896 201.306C576.05 200.992 576.819 200.764 577.204 200.624C577.623 200.45 577.903 200.205 578.043 199.89C578.183 199.575 578.253 199.051 578.253 198.317V195.432C578.253 194.313 577.956 193.491 577.361 192.967C576.802 192.442 576.015 192.18 575.001 192.18C574.022 192.18 573.218 192.46 572.588 193.019C571.994 193.579 571.697 194.383 571.697 195.432V202.198L574.896 201.306ZM586.626 189.4H589.877L590.35 190.921L592.5 190.292C593.969 189.837 595.122 189.522 595.962 189.348C596.836 189.138 597.658 189.033 598.427 189.033C599.686 189.033 600.612 189.47 601.207 190.344C601.801 191.218 602.098 192.355 602.098 193.753V216.674H597.902V195.117C597.902 194.103 597.832 193.404 597.693 193.019C597.553 192.6 597.203 192.39 596.644 192.39C596.364 192.39 594.423 192.949 590.822 194.068V216.674H586.626V189.4ZM621.591 216.674C619.668 216.674 618.129 216.097 616.975 214.943C615.856 213.789 615.297 212.233 615.297 210.275V196.323C615.297 194.121 615.874 192.425 617.028 191.236C618.182 190.012 619.86 189.4 622.063 189.4H627.885V192.547H622.168C621.364 192.547 620.717 192.827 620.227 193.386C619.738 193.911 619.493 194.593 619.493 195.432V210.642C619.493 211.482 619.738 212.181 620.227 212.74C620.752 213.265 621.416 213.527 622.22 213.527H627.885V216.674H621.591ZM638.207 217.041C635.76 217.041 633.854 216.429 632.49 215.205C631.162 213.947 630.497 212.216 630.497 210.013V196.061C630.497 193.858 631.162 192.145 632.49 190.921C633.854 189.662 635.76 189.033 638.207 189.033C640.655 189.033 642.543 189.662 643.872 190.921C645.236 192.145 645.917 193.858 645.917 196.061V210.013C645.917 212.216 645.236 213.947 643.872 215.205C642.543 216.429 640.655 217.041 638.207 217.041ZM638.207 213.789C639.326 213.789 640.2 213.475 640.83 212.845C641.494 212.181 641.826 211.237 641.826 210.013V196.061C641.826 194.837 641.494 193.911 640.83 193.281C640.2 192.617 639.326 192.285 638.207 192.285C637.088 192.285 636.197 192.617 635.532 193.281C634.903 193.911 634.588 194.837 634.588 196.061V210.013C634.588 211.237 634.903 212.181 635.532 212.845C636.197 213.475 637.088 213.789 638.207 213.789ZM657.825 217.041C655.377 217.041 653.471 216.429 652.108 215.205C650.779 213.947 650.115 212.216 650.115 210.013V196.061C650.115 193.858 650.779 192.145 652.108 190.921C653.471 189.662 655.377 189.033 657.825 189.033C660.272 189.033 662.161 189.662 663.489 190.921C664.853 192.145 665.535 193.858 665.535 196.061V210.013C665.535 212.216 664.853 213.947 663.489 215.205C662.161 216.429 660.272 217.041 657.825 217.041ZM657.825 213.789C658.944 213.789 659.818 213.475 660.447 212.845C661.112 212.181 661.444 211.237 661.444 210.013V196.061C661.444 194.837 661.112 193.911 660.447 193.281C659.818 192.617 658.944 192.285 657.825 192.285C656.706 192.285 655.814 192.617 655.15 193.281C654.52 193.911 654.206 194.837 654.206 196.061V210.013C654.206 211.237 654.52 212.181 655.15 212.845C655.814 213.475 656.706 213.789 657.825 213.789ZM670.781 189.4H674.033L674.505 191.341L675.816 190.711C676.935 190.152 677.862 189.732 678.596 189.453C679.366 189.173 680.135 189.033 680.904 189.033V192.127C680.449 192.127 679.838 192.267 679.068 192.547C678.299 192.792 676.935 193.386 674.977 194.33V216.674H670.781V189.4ZM691.739 216.674C689.536 216.674 687.753 216.027 686.389 214.733C685.025 213.44 684.344 211.709 684.344 209.541V196.481C684.344 194.977 684.746 193.701 685.55 192.652C686.389 191.603 687.421 190.886 688.645 190.502L695.673 188.036V179.959H699.869V216.674H691.739ZM695.673 213.527V191.498L691.005 193.072C690.096 193.351 689.449 193.806 689.064 194.435C688.714 195.03 688.54 195.991 688.54 197.32V209.541C688.54 210.8 688.907 211.779 689.641 212.478C690.375 213.177 691.372 213.527 692.631 213.527H695.673ZM706.175 184.942V180.746H710.371V184.942H706.175ZM706.175 216.674V189.4H710.371V216.674H706.175ZM716.675 189.4H719.927L720.399 190.921L722.549 190.292C724.018 189.837 725.172 189.522 726.011 189.348C726.885 189.138 727.707 189.033 728.476 189.033C729.735 189.033 730.662 189.47 731.256 190.344C731.85 191.218 732.148 192.355 732.148 193.753V216.674H727.952V195.117C727.952 194.103 727.882 193.404 727.742 193.019C727.602 192.6 727.252 192.39 726.693 192.39C726.413 192.39 724.473 192.949 720.871 194.068V216.674H716.675V189.4ZM743.542 216.674C742.284 216.674 741.112 216.359 740.028 215.73C738.979 215.101 738.14 214.244 737.511 213.16C736.916 212.076 736.619 210.852 736.619 209.488V206.761C736.619 205.118 737.021 203.736 737.825 202.617C738.665 201.499 739.696 200.712 740.92 200.257L747.424 197.845V195.379C747.424 194.54 747.162 193.858 746.637 193.334C746.147 192.774 745.501 192.495 744.696 192.495H738.77V189.4H745.064C746.987 189.4 748.508 189.977 749.627 191.131C750.781 192.25 751.358 193.788 751.358 195.747V216.674H743.542ZM747.424 213.475V201.149L742.808 202.88C741.899 203.229 741.252 203.701 740.868 204.296C740.518 204.89 740.343 205.834 740.343 207.128V210.065C740.343 211.009 740.693 211.814 741.392 212.478C742.091 213.142 742.931 213.475 743.91 213.475H747.424ZM764.745 216.674C762.821 216.674 761.3 216.097 760.181 214.943C759.062 213.789 758.503 212.233 758.503 210.275V192.547H755.356V189.4H758.503V181.48L762.699 179.907V189.4H766.895V192.547H762.699V210.642C762.699 211.482 762.926 212.181 763.381 212.74C763.87 213.265 764.517 213.527 765.322 213.527H766.895V216.674H764.745ZM771.071 184.942V180.746H775.267V184.942H771.071ZM771.071 216.674V189.4H775.267V216.674H771.071ZM788.233 217.041C785.785 217.041 783.879 216.429 782.516 215.205C781.187 213.947 780.523 212.216 780.523 210.013V196.061C780.523 193.858 781.187 192.145 782.516 190.921C783.879 189.662 785.785 189.033 788.233 189.033C790.68 189.033 792.569 189.662 793.897 190.921C795.261 192.145 795.943 193.858 795.943 196.061V210.013C795.943 212.216 795.261 213.947 793.897 215.205C792.569 216.429 790.68 217.041 788.233 217.041ZM788.233 213.789C789.352 213.789 790.226 213.475 790.855 212.845C791.52 212.181 791.852 211.237 791.852 210.013V196.061C791.852 194.837 791.52 193.911 790.855 193.281C790.226 192.617 789.352 192.285 788.233 192.285C787.114 192.285 786.222 192.617 785.558 193.281C784.928 193.911 784.614 194.837 784.614 196.061V210.013C784.614 211.237 784.928 212.181 785.558 212.845C786.222 213.475 787.114 213.789 788.233 213.789ZM801.189 189.4H804.441L804.913 190.921L807.064 190.292C808.532 189.837 809.686 189.522 810.525 189.348C811.399 189.138 812.221 189.033 812.99 189.033C814.249 189.033 815.176 189.47 815.77 190.344C816.365 191.218 816.662 192.355 816.662 193.753V216.674H812.466V195.117C812.466 194.103 812.396 193.404 812.256 193.019C812.116 192.6 811.767 192.39 811.207 192.39C810.927 192.39 808.987 192.949 805.385 194.068V216.674H801.189V189.4ZM835.945 216.674C834.686 216.674 833.514 216.359 832.43 215.73C831.381 215.101 830.542 214.244 829.913 213.16C829.318 212.076 829.021 210.852 829.021 209.488V206.761C829.021 205.118 829.423 203.736 830.228 202.617C831.067 201.499 832.098 200.712 833.322 200.257L839.826 197.845V195.379C839.826 194.54 839.564 193.858 839.039 193.334C838.55 192.774 837.903 192.495 837.099 192.495H831.172V189.4H837.466C839.389 189.4 840.91 189.977 842.029 191.131C843.183 192.25 843.76 193.788 843.76 195.747V216.674H835.945ZM839.826 213.475V201.149L835.21 202.88C834.301 203.229 833.654 203.701 833.27 204.296C832.92 204.89 832.745 205.834 832.745 207.128V210.065C832.745 211.009 833.095 211.814 833.794 212.478C834.493 213.142 835.333 213.475 836.312 213.475H839.826ZM853.423 216.674L847.181 189.4H851.535L855.573 211.377L859.559 189.4H863.913L857.671 216.674H853.423ZM873.282 216.674C871.359 216.674 869.82 216.097 868.666 214.943C867.548 213.789 866.988 212.233 866.988 210.275V196.323C866.988 194.051 867.617 192.267 868.876 190.974C870.135 189.68 872.006 189.033 874.488 189.033C876.971 189.033 878.824 189.68 880.048 190.974C881.307 192.267 881.936 194.051 881.936 196.323V198.736C881.936 200.205 881.517 201.324 880.677 202.093C879.838 202.827 878.737 203.387 877.373 203.771L871.184 205.502V210.642C871.184 211.482 871.429 212.181 871.918 212.74C872.443 213.265 873.107 213.527 873.911 213.527H879.576V216.674H873.282ZM874.383 201.306C875.537 200.992 876.307 200.764 876.691 200.624C877.111 200.45 877.391 200.205 877.53 199.89C877.67 199.575 877.74 199.051 877.74 198.317V195.432C877.74 194.313 877.443 193.491 876.849 192.967C876.289 192.442 875.502 192.18 874.488 192.18C873.509 192.18 872.705 192.46 872.076 193.019C871.481 193.579 871.184 194.383 871.184 195.432V202.198L874.383 201.306ZM891.883 216.674C889.959 216.674 888.421 216.097 887.267 214.943C886.148 213.789 885.589 212.233 885.589 210.275V196.323C885.589 194.121 886.165 192.425 887.319 191.236C888.473 190.012 890.152 189.4 892.355 189.4H898.177V192.547H892.459C891.655 192.547 891.008 192.827 890.519 193.386C890.029 193.911 889.785 194.593 889.785 195.432V210.642C889.785 211.482 890.029 212.181 890.519 212.74C891.043 213.265 891.708 213.527 892.512 213.527H898.177V216.674H891.883ZM909.778 216.674V179.959H913.974V216.674H909.778ZM925.786 216.674C924.527 216.674 923.356 216.359 922.272 215.73C921.223 215.101 920.383 214.244 919.754 213.16C919.16 212.076 918.862 210.852 918.862 209.488V206.761C918.862 205.118 919.264 203.736 920.069 202.617C920.908 201.499 921.939 200.712 923.163 200.257L929.667 197.845V195.379C929.667 194.54 929.405 193.858 928.88 193.334C928.391 192.774 927.744 192.495 926.94 192.495H921.013V189.4H927.307C929.23 189.4 930.751 189.977 931.87 191.131C933.024 192.25 933.601 193.788 933.601 195.747V216.674H925.786ZM929.667 213.475V201.149L925.051 202.88C924.142 203.229 923.495 203.701 923.111 204.296C922.761 204.89 922.586 205.834 922.586 207.128V210.065C922.586 211.009 922.936 211.814 923.635 212.478C924.335 213.142 925.174 213.475 926.153 213.475H929.667ZM953.04 216.674C951.117 216.674 949.578 216.097 948.424 214.943C947.306 213.789 946.746 212.233 946.746 210.275V196.323C946.746 194.121 947.323 192.425 948.477 191.236C949.631 190.012 951.309 189.4 953.512 189.4H959.334V192.547H953.617C952.813 192.547 952.166 192.827 951.676 193.386C951.187 193.911 950.942 194.593 950.942 195.432V210.642C950.942 211.482 951.187 212.181 951.676 212.74C952.201 213.265 952.865 213.527 953.669 213.527H959.334V216.674H953.04ZM969.656 217.041C967.209 217.041 965.303 216.429 963.939 215.205C962.611 213.947 961.946 212.216 961.946 210.013V196.061C961.946 193.858 962.611 192.145 963.939 190.921C965.303 189.662 967.209 189.033 969.656 189.033C972.104 189.033 973.992 189.662 975.321 190.921C976.685 192.145 977.367 193.858 977.367 196.061V210.013C977.367 212.216 976.685 213.947 975.321 215.205C973.992 216.429 972.104 217.041 969.656 217.041ZM969.656 213.789C970.775 213.789 971.65 213.475 972.279 212.845C972.943 212.181 973.276 211.237 973.276 210.013V196.061C973.276 194.837 972.943 193.911 972.279 193.281C971.65 192.617 970.775 192.285 969.656 192.285C968.538 192.285 967.646 192.617 966.982 193.281C966.352 193.911 966.037 194.837 966.037 196.061V210.013C966.037 211.237 966.352 212.181 966.982 212.845C967.646 213.475 968.538 213.789 969.656 213.789ZM982.665 216.674V179.959H986.861V216.674H982.665ZM993.166 216.674V179.959H997.362V216.674H993.166ZM1009.07 216.674C1007.14 216.674 1005.61 216.097 1004.45 214.943C1003.33 213.789 1002.77 212.233 1002.77 210.275V196.323C1002.77 194.051 1003.4 192.267 1004.66 190.974C1005.92 189.68 1007.79 189.033 1010.27 189.033C1012.76 189.033 1014.61 189.68 1015.83 190.974C1017.09 192.267 1017.72 194.051 1017.72 196.323V198.736C1017.72 200.205 1017.3 201.324 1016.46 202.093C1015.62 202.827 1014.52 203.387 1013.16 203.771L1006.97 205.502V210.642C1006.97 211.482 1007.21 212.181 1007.7 212.74C1008.23 213.265 1008.89 213.527 1009.7 213.527H1015.36V216.674H1009.07ZM1010.17 201.306C1011.32 200.992 1012.09 200.764 1012.48 200.624C1012.9 200.45 1013.18 200.205 1013.32 199.89C1013.46 199.575 1013.53 199.051 1013.53 198.317V195.432C1013.53 194.313 1013.23 193.491 1012.63 192.967C1012.08 192.442 1011.29 192.18 1010.27 192.18C1009.3 192.18 1008.49 192.46 1007.86 193.019C1007.27 193.579 1006.97 194.383 1006.97 195.432V202.198L1010.17 201.306ZM1027.67 216.674C1025.75 216.674 1024.21 216.097 1023.05 214.943C1021.93 213.789 1021.37 212.233 1021.37 210.275V196.323C1021.37 194.121 1021.95 192.425 1023.11 191.236C1024.26 190.012 1025.94 189.4 1028.14 189.4H1033.96V192.547H1028.25C1027.44 192.547 1026.79 192.827 1026.3 193.386C1025.82 193.911 1025.57 194.593 1025.57 195.432V210.642C1025.57 211.482 1025.82 212.181 1026.3 212.74C1026.83 213.265 1027.49 213.527 1028.3 213.527H1033.96V216.674H1027.67ZM1045.23 216.674C1043.31 216.674 1041.78 216.097 1040.67 214.943C1039.55 213.789 1038.99 212.233 1038.99 210.275V192.547H1035.84V189.4H1038.99V181.48L1043.18 179.907V189.4H1047.38V192.547H1043.18V210.642C1043.18 211.482 1043.41 212.181 1043.87 212.74C1044.35 213.265 1045 213.527 1045.81 213.527H1047.38V216.674H1045.23ZM1051.56 184.942V180.746H1055.75V184.942H1051.56ZM1051.56 216.674V189.4H1055.75V216.674H1051.56ZM1065.94 216.674L1059.7 189.4H1064.05L1068.09 211.377L1072.07 189.4H1076.43L1070.19 216.674H1065.94ZM1080.34 184.942V180.746H1084.54V184.942H1080.34ZM1080.34 216.674V189.4H1084.54V216.674H1080.34ZM1098.45 216.674C1096.52 216.674 1095 216.097 1093.88 214.943C1092.77 213.789 1092.21 212.233 1092.21 210.275V192.547H1089.06V189.4H1092.21V181.48L1096.4 179.907V189.4H1100.6V192.547H1096.4V210.642C1096.4 211.482 1096.63 212.181 1097.08 212.74C1097.57 213.265 1098.22 213.527 1099.02 213.527H1100.6V216.674H1098.45ZM1110.54 187.355L1108.81 185.781L1114.9 180.588L1117.57 183.054L1110.54 187.355ZM1110.23 216.674C1108.31 216.674 1106.77 216.097 1105.61 214.943C1104.49 213.789 1103.93 212.233 1103.93 210.275V196.323C1103.93 194.051 1104.56 192.267 1105.82 190.974C1107.08 189.68 1108.95 189.033 1111.44 189.033C1113.92 189.033 1115.77 189.68 1117 190.974C1118.25 192.267 1118.88 194.051 1118.88 196.323V198.736C1118.88 200.205 1118.46 201.324 1117.62 202.093C1116.79 202.827 1115.68 203.387 1114.32 203.771L1108.13 205.502V210.642C1108.13 211.482 1108.38 212.181 1108.87 212.74C1109.39 213.265 1110.05 213.527 1110.86 213.527H1116.52V216.674H1110.23ZM1111.33 201.306C1112.48 200.992 1113.25 200.764 1113.64 200.624C1114.06 200.45 1114.34 200.205 1114.48 199.89C1114.62 199.575 1114.69 199.051 1114.69 198.317V195.432C1114.69 194.313 1114.39 193.491 1113.8 192.967C1113.24 192.442 1112.45 192.18 1111.44 192.18C1110.46 192.18 1109.65 192.46 1109.02 193.019C1108.43 193.579 1108.13 194.383 1108.13 195.432V202.198L1111.33 201.306ZM1122.06 216.674V211.272H1126.26V216.674H1122.06Z" fill="#1E1E1E"/>
<rect width="448.945" height="88.9178" fill="black"/>
<path d="M205.958 60.9281C205.554 60.9281 205.352 60.7262 205.352 60.3224V55.7678C205.352 55.5578 205.36 55.3883 205.377 55.259C205.409 55.1298 205.506 55.0249 205.667 54.9441L212.015 52.0369V47.7245L205.764 43.8483C205.49 43.6867 205.352 43.4445 205.352 43.1215V34.2303C205.352 33.9718 205.368 33.7861 205.401 33.673C205.433 33.5438 205.554 33.4065 205.764 33.2612L212.136 28.9488C212.297 28.8519 212.443 28.7792 212.572 28.7308C212.717 28.6662 212.895 28.6339 213.105 28.6339H219.646C220.05 28.6339 220.252 28.8358 220.252 29.2395V33.3581C220.252 33.7134 220.131 33.9557 219.888 34.0849L213.541 36.7014V41.1833L219.888 44.8173C220.131 44.9304 220.252 45.1888 220.252 45.5926V56.1312C220.252 56.2604 220.227 56.3977 220.179 56.5431C220.147 56.6884 220.066 56.7934 219.937 56.858L212.33 60.6374C212.233 60.6858 212.112 60.7504 211.966 60.8312C211.837 60.8958 211.708 60.9281 211.579 60.9281H205.958ZM230.788 60.9281C230.385 60.9281 230.183 60.7262 230.183 60.3224V35.0782H225.943C225.539 35.0782 225.337 34.8763 225.337 34.4725V29.2395C225.337 28.8358 225.539 28.6339 225.943 28.6339H242.49C242.894 28.6339 243.096 28.8358 243.096 29.2395V34.4725C243.096 34.8763 242.894 35.0782 242.49 35.0782H238.25V60.3224C238.25 60.7262 238.048 60.9281 237.645 60.9281H230.788ZM249.507 60.9281C249.104 60.9281 248.902 60.7262 248.902 60.3224V29.2395C248.902 28.8358 249.104 28.6339 249.507 28.6339H262.638C263.026 28.6339 263.349 28.7389 263.607 28.9488L269.179 34.4725C269.357 34.634 269.462 34.7713 269.494 34.8844C269.543 34.9974 269.567 35.1832 269.567 35.4416V42.0797C269.567 42.2897 269.486 42.4754 269.325 42.6369L266.66 45.2292L264.407 47.1673L267.072 50.7044L269.809 56.5673C269.874 56.7127 269.922 56.858 269.955 57.0034C270.003 57.1326 270.027 57.2941 270.027 57.4879V60.3224C270.027 60.7262 269.826 60.9281 269.422 60.9281H263.026C262.671 60.9281 262.428 60.7666 262.299 60.4436L258.399 49.1055H256.582V60.3224C256.582 60.7262 256.38 60.9281 255.976 60.9281H249.507ZM259.247 43.1699C260.587 43.1699 261.5 42.8953 261.984 42.3462C262.469 41.7809 262.711 40.7311 262.711 39.1967C262.711 37.6462 262.469 36.5964 261.984 36.0473C261.5 35.482 260.587 35.1993 259.247 35.1993C257.922 35.1993 257.01 35.482 256.509 36.0473C256.008 36.5964 255.758 37.6462 255.758 39.1967C255.758 40.7311 256.008 41.7809 256.509 42.3462C257.01 42.8953 257.922 43.1699 259.247 43.1699ZM274.322 60.9281C273.918 60.9281 273.716 60.7262 273.716 60.3224V37.8643C273.716 37.6543 273.797 37.412 273.958 37.1375L279.7 28.9973C279.878 28.755 280.136 28.6339 280.475 28.6339H288.494C288.85 28.6339 289.108 28.755 289.269 28.9973L295.035 37.1375C295.197 37.3636 295.278 37.6058 295.278 37.8643V60.3224C295.278 60.7262 295.076 60.9281 294.672 60.9281H287.816C287.412 60.9281 287.21 60.7262 287.21 60.3224V50.0261H281.808V60.3224C281.808 60.7262 281.606 60.9281 281.202 60.9281H274.322ZM284.497 44.8173C285.983 44.8173 286.984 44.4943 287.501 43.8483C288.034 43.1861 288.3 41.9343 288.3 40.0931C288.3 38.2519 288.034 37.0082 287.501 36.3622C286.984 35.7 285.983 35.3689 284.497 35.3689C283.027 35.3689 282.026 35.7 281.493 36.3622C280.976 37.0082 280.717 38.2519 280.717 40.0931C280.717 41.9343 280.976 43.1861 281.493 43.8483C282.026 44.4943 283.027 44.8173 284.497 44.8173ZM306.402 60.9281C305.999 60.9281 305.797 60.7262 305.797 60.3224V35.0782H301.557C301.153 35.0782 300.951 34.8763 300.951 34.4725V29.2395C300.951 28.8358 301.153 28.6339 301.557 28.6339H318.104C318.508 28.6339 318.709 28.8358 318.709 29.2395V34.4725C318.709 34.8763 318.508 35.0782 318.104 35.0782H313.864V60.3224C313.864 60.7262 313.662 60.9281 313.258 60.9281H306.402ZM325.121 60.9281C324.717 60.9281 324.516 60.7262 324.516 60.3224V29.2395C324.516 28.8358 324.717 28.6339 325.121 28.6339H342.007C342.411 28.6339 342.613 28.8358 342.613 29.2395V34.4725C342.613 34.8763 342.411 35.0782 342.007 35.0782H332.583V41.9586H341.184C341.587 41.9586 341.789 42.1605 341.789 42.5642V46.9977C341.789 47.4015 341.587 47.6034 341.184 47.6034H332.583V54.4596H342.007C342.411 54.4596 342.613 54.6615 342.613 55.0652V60.3224C342.613 60.7262 342.411 60.9281 342.007 60.9281H325.121ZM336.411 27.4468L330.16 24.8303C329.854 24.6688 329.765 24.4507 329.894 24.1762L331.275 21.2932C331.42 20.9056 331.638 20.8006 331.929 20.9782L337.646 24.6849C337.937 24.8787 338.026 25.121 337.913 25.4117L337.065 27.2287C336.952 27.5194 336.734 27.5921 336.411 27.4468ZM354.637 60.9281C354.25 60.9281 353.927 60.7908 353.668 60.5162L348.823 55.6709C348.548 55.4125 348.411 55.0895 348.411 54.7018V34.8359C348.411 34.4644 348.548 34.1414 348.823 33.8668L353.668 29.0215C353.927 28.7631 354.25 28.6339 354.637 28.6339H368.955C369.359 28.6339 369.561 28.8358 369.561 29.2395V34.4725C369.561 34.8763 369.359 35.0782 368.955 35.0782H357.302C357.076 35.0782 356.882 35.1589 356.721 35.3205C356.559 35.482 356.479 35.6758 356.479 35.9019V53.6116C356.479 53.8377 356.559 54.0316 356.721 54.1931C356.882 54.3546 357.076 54.4353 357.302 54.4353H362.535V47.9668H359.434C359.03 47.9668 358.829 47.7649 358.829 47.3611V42.1524C358.829 41.7486 359.03 41.5467 359.434 41.5467H369.367C369.771 41.5467 369.973 41.7486 369.973 42.1524V54.7018C369.973 55.0895 369.836 55.4125 369.561 55.6709L364.716 60.5162C364.457 60.7908 364.134 60.9281 363.747 60.9281H354.637ZM375.657 60.9281C375.253 60.9281 375.051 60.7262 375.051 60.3224V29.2395C375.051 28.8358 375.253 28.6339 375.657 28.6339H392.543C392.946 28.6339 393.148 28.8358 393.148 29.2395V34.4725C393.148 34.8763 392.946 35.0782 392.543 35.0782H383.119V41.9586H391.719C392.123 41.9586 392.325 42.1605 392.325 42.5642V46.9977C392.325 47.4015 392.123 47.6034 391.719 47.6034H383.119V54.4596H392.543C392.946 54.4596 393.148 54.6615 393.148 55.0652V60.3224C393.148 60.7262 392.946 60.9281 392.543 60.9281H375.657Z" fill="#FFF1E9"/>
</svg>
