<svg width="377" height="128" viewBox="0 0 377 128" fill="none" xmlns="http://www.w3.org/2000/svg">
<rect x="2" y="2" width="373" height="124" fill="#FFF1E9" stroke="black" stroke-width="4"/>
<path d="M89.6667 74C89.4518 74 89.3443 73.8926 89.3443 73.6777V60.2434H87.0881C86.8732 60.2434 86.7658 60.1359 86.7658 59.921V57.1362C86.7658 56.9213 86.8732 56.8139 87.0881 56.8139H95.8939C96.1088 56.8139 96.2162 56.9213 96.2162 57.1362V59.921C96.2162 60.1359 96.1088 60.2434 95.8939 60.2434H93.6376V73.6777C93.6376 73.8926 93.5302 74 93.3153 74H89.6667ZM102.62 74C102.422 74 102.25 73.9269 102.104 73.7808L99.5252 71.2023C99.3791 71.0647 99.306 70.8928 99.306 70.6865V60.1144C99.306 59.9167 99.3791 59.7448 99.5252 59.5987L102.104 57.0202C102.25 56.8826 102.422 56.8139 102.62 56.8139H107.686C107.893 56.8139 108.065 56.8826 108.202 57.0202L110.781 59.5987C110.927 59.7448 111 59.9167 111 60.1144V70.6865C111 70.8928 110.927 71.0647 110.781 71.2023L108.202 73.7808C108.065 73.9269 107.893 74 107.686 74H102.62ZM104.141 70.5576H106.165C106.526 70.5576 106.707 70.317 106.707 69.8356V60.9783C106.707 60.4883 106.526 60.2434 106.165 60.2434H104.141C103.788 60.2434 103.612 60.4883 103.612 60.9783V69.8356C103.612 70.317 103.788 70.5576 104.141 70.5576ZM117.401 74C117.195 74 117.023 73.9269 116.885 73.7808L114.307 71.2023C114.161 71.0647 114.087 70.8928 114.087 70.6865V60.1144C114.087 59.9167 114.161 59.7448 114.307 59.5987L116.885 57.0202C117.023 56.8826 117.195 56.8139 117.401 56.8139H122.597C122.794 56.8139 122.966 56.8826 123.112 57.0202L125.691 59.5987C125.837 59.7448 125.91 59.9167 125.91 60.1144V70.6865C125.91 70.8928 125.837 71.0647 125.691 71.2023L123.112 73.7808C122.966 73.9269 122.794 74 122.597 74H117.401ZM118.768 76.1531C118.553 76.1531 118.445 76.0457 118.445 75.8308V74H121.733L122.3 75.6503C122.343 75.7792 122.322 75.8952 122.236 75.9984C122.158 76.1015 122.055 76.1531 121.926 76.1531H118.768ZM119.09 70.5576H120.895C121.256 70.5576 121.436 70.317 121.436 69.8356V60.9783C121.436 60.4883 121.256 60.2434 120.895 60.2434H119.09C118.737 60.2434 118.561 60.4883 118.561 60.9783V69.8356C118.561 70.317 118.737 70.5576 119.09 70.5576ZM132.308 74C132.102 74 131.93 73.9269 131.793 73.7808L129.214 71.2023C129.068 71.0647 128.995 70.8928 128.995 70.6865V57.1362C128.995 56.9213 129.102 56.8139 129.317 56.8139H132.966C133.181 56.8139 133.288 56.9213 133.288 57.1362V70.2998C133.288 70.4717 133.374 70.5576 133.546 70.5576H135.66V57.1362C135.66 56.9213 135.768 56.8139 135.983 56.8139H139.631C139.846 56.8139 139.954 56.9213 139.954 57.1362V73.6777C139.954 73.8926 139.846 74 139.631 74H132.308ZM143.368 74C143.153 74 143.046 73.8926 143.046 73.6777V57.1362C143.046 56.9213 143.153 56.8139 143.368 56.8139H152.355C152.569 56.8139 152.677 56.9213 152.677 57.1362V59.921C152.677 60.1359 152.569 60.2434 152.355 60.2434H147.339V63.9049H151.916C152.131 63.9049 152.239 64.0124 152.239 64.2272V66.5866C152.239 66.8015 152.131 66.9089 151.916 66.9089H147.339V70.5576H152.355C152.569 70.5576 152.677 70.6651 152.677 70.8799V73.6777C152.677 73.8926 152.569 74 152.355 74H143.368ZM156.085 74C155.87 74 155.763 73.8926 155.763 73.6777V57.1362C155.763 56.9213 155.87 56.8139 156.085 56.8139H163.073C163.279 56.8139 163.451 56.8697 163.588 56.9815L166.554 59.921C166.648 60.007 166.704 60.0801 166.721 60.1402C166.747 60.2004 166.76 60.2992 166.76 60.4368V63.9694C166.76 64.0811 166.717 64.18 166.631 64.2659L165.213 65.6455L164.014 66.6769L165.432 68.5592L166.889 71.6793C166.923 71.7566 166.949 71.834 166.966 71.9114C166.992 71.9801 167.005 72.0661 167.005 72.1692V73.6777C167.005 73.8926 166.898 74 166.683 74H163.279C163.09 74 162.961 73.914 162.892 73.7421L160.816 67.7083H159.85V73.6777C159.85 73.8926 159.742 74 159.527 74H156.085ZM161.268 64.5496C161.981 64.5496 162.467 64.4034 162.725 64.1112C162.982 63.8104 163.111 63.2517 163.111 62.4351C163.111 61.61 162.982 61.0513 162.725 60.7591C162.467 60.4582 161.981 60.3078 161.268 60.3078C160.563 60.3078 160.077 60.4582 159.811 60.7591C159.544 61.0513 159.411 61.61 159.411 62.4351C159.411 63.2517 159.544 63.8104 159.811 64.1112C160.077 64.4034 160.563 64.5496 161.268 64.5496ZM173.395 74C173.18 74 173.073 73.8926 173.073 73.6777V61.726C173.073 61.6143 173.116 61.4854 173.201 61.3392L176.257 57.0073C176.352 56.8783 176.489 56.8139 176.67 56.8139H180.937C181.126 56.8139 181.264 56.8783 181.35 57.0073L184.418 61.3392C184.504 61.4596 184.547 61.5885 184.547 61.726V73.6777C184.547 73.8926 184.44 74 184.225 74H180.576C180.361 74 180.254 73.8926 180.254 73.6777V68.1982H177.379V73.6777C177.379 73.8926 177.271 74 177.056 74H173.395ZM178.81 65.4263C179.601 65.4263 180.133 65.2544 180.409 64.9106C180.692 64.5582 180.834 63.892 180.834 62.9122C180.834 61.9323 180.692 61.2705 180.409 60.9267C180.133 60.5743 179.601 60.3981 178.81 60.3981C178.028 60.3981 177.495 60.5743 177.211 60.9267C176.936 61.2705 176.799 61.9323 176.799 62.9122C176.799 63.892 176.936 64.5582 177.211 64.9106C177.495 65.2544 178.028 65.4263 178.81 65.4263ZM180.138 56.1821L176.811 54.7897C176.648 54.7037 176.601 54.5877 176.67 54.4416L177.405 52.9073C177.482 52.7011 177.598 52.6452 177.753 52.7397L180.795 54.7123C180.95 54.8155 180.997 54.9444 180.937 55.0991L180.486 56.0661C180.426 56.2208 180.31 56.2595 180.138 56.1821ZM191.993 74C191.778 74 191.671 73.8926 191.671 73.6777V57.1362C191.671 56.9213 191.778 56.8139 191.993 56.8139H195.642C195.857 56.8139 195.964 56.9213 195.964 57.1362V70.5576H199.213C199.428 70.5576 199.536 70.6651 199.536 70.8799V73.6777C199.536 73.8926 199.428 74 199.213 74H191.993ZM201.825 74C201.61 74 201.502 73.8926 201.502 73.6777V61.726C201.502 61.6143 201.545 61.4854 201.631 61.3392L204.687 57.0073C204.781 56.8783 204.919 56.8139 205.099 56.8139H209.367C209.556 56.8139 209.693 56.8783 209.779 57.0073L212.848 61.3392C212.934 61.4596 212.977 61.5885 212.977 61.726V73.6777C212.977 73.8926 212.869 74 212.654 74H209.006C208.791 74 208.684 73.8926 208.684 73.6777V68.1982H205.808V73.6777C205.808 73.8926 205.701 74 205.486 74H201.825ZM207.24 65.4263C208.03 65.4263 208.563 65.2544 208.838 64.9106C209.122 64.5582 209.264 63.892 209.264 62.9122C209.264 61.9323 209.122 61.2705 208.838 60.9267C208.563 60.5743 208.03 60.3981 207.24 60.3981C206.457 60.3981 205.924 60.5743 205.641 60.9267C205.366 61.2705 205.228 61.9323 205.228 62.9122C205.228 63.892 205.366 64.5582 205.641 64.9106C205.924 65.2544 206.457 65.4263 207.24 65.4263ZM220.423 74C220.208 74 220.101 73.8926 220.101 73.6777V57.1362C220.101 56.9213 220.208 56.8139 220.423 56.8139H227.553C227.759 56.8139 227.931 56.8826 228.068 57.0202L230.647 59.5987C230.793 59.7448 230.866 59.9167 230.866 60.1144V64.5625C230.866 64.7687 230.793 64.9406 230.647 65.0782L228.068 67.6567C227.931 67.8029 227.759 67.8759 227.553 67.8759H224.394V73.6777C224.394 73.8926 224.287 74 224.072 74H220.423ZM225.361 64.3691C226.074 64.3691 226.56 64.2272 226.818 63.9436C227.084 63.66 227.218 63.1228 227.218 62.332C227.218 61.5412 227.084 61.004 226.818 60.7204C226.56 60.4368 226.074 60.2949 225.361 60.2949C224.656 60.2949 224.171 60.4368 223.904 60.7204C223.646 61.004 223.517 61.5412 223.517 62.332C223.517 63.1228 223.646 63.66 223.904 63.9436C224.171 64.2272 224.656 64.3691 225.361 64.3691ZM236.257 74C236.059 74 235.887 73.9269 235.741 73.7808L233.162 71.2023C233.016 71.0647 232.943 70.8928 232.943 70.6865V60.1144C232.943 59.9167 233.016 59.7448 233.162 59.5987L235.741 57.0202C235.887 56.8826 236.059 56.8139 236.257 56.8139H241.323C241.53 56.8139 241.702 56.8826 241.839 57.0202L244.418 59.5987C244.564 59.7448 244.637 59.9167 244.637 60.1144V70.6865C244.637 70.8928 244.564 71.0647 244.418 71.2023L241.839 73.7808C241.702 73.9269 241.53 74 241.323 74H236.257ZM237.778 70.5576H239.802C240.163 70.5576 240.344 70.317 240.344 69.8356V60.9783C240.344 60.4883 240.163 60.2434 239.802 60.2434H237.778C237.426 60.2434 237.249 60.4883 237.249 60.9783V69.8356C237.249 70.317 237.426 70.5576 237.778 70.5576ZM248.047 74C247.832 74 247.725 73.8926 247.725 73.6777V57.1362C247.725 56.9213 247.832 56.8139 248.047 56.8139H255.035C255.241 56.8139 255.413 56.8697 255.551 56.9815L258.516 59.921C258.61 60.007 258.666 60.0801 258.683 60.1402C258.709 60.2004 258.722 60.2992 258.722 60.4368V63.9694C258.722 64.0811 258.679 64.18 258.593 64.2659L257.175 65.6455L255.976 66.6769L257.394 68.5592L258.851 71.6793C258.885 71.7566 258.911 71.834 258.928 71.9114C258.954 71.9801 258.967 72.0661 258.967 72.1692V73.6777C258.967 73.8926 258.86 74 258.645 74H255.241C255.052 74 254.923 73.914 254.854 73.7421L252.779 67.7083H251.812V73.6777C251.812 73.8926 251.704 74 251.489 74H248.047ZM253.23 64.5496C253.943 64.5496 254.429 64.4034 254.687 64.1112C254.945 63.8104 255.073 63.2517 255.073 62.4351C255.073 61.61 254.945 61.0513 254.687 60.7591C254.429 60.4582 253.943 60.3078 253.23 60.3078C252.525 60.3078 252.039 60.4582 251.773 60.7591C251.506 61.0513 251.373 61.61 251.373 62.4351C251.373 63.2517 251.506 63.8104 251.773 64.1112C252.039 64.4034 252.525 64.5496 253.23 64.5496ZM263.921 74C263.706 74 263.599 73.8926 263.599 73.6777V60.2434H261.343C261.128 60.2434 261.02 60.1359 261.02 59.921V57.1362C261.02 56.9213 261.128 56.8139 261.343 56.8139H270.148C270.363 56.8139 270.471 56.9213 270.471 57.1362V59.921C270.471 60.1359 270.363 60.2434 270.148 60.2434H267.892V73.6777C267.892 73.8926 267.785 74 267.57 74H263.921ZM273.883 74C273.668 74 273.561 73.8926 273.561 73.6777V57.1362C273.561 56.9213 273.668 56.8139 273.883 56.8139H282.869C283.084 56.8139 283.192 56.9213 283.192 57.1362V59.921C283.192 60.1359 283.084 60.2434 282.869 60.2434H277.854V63.9049H282.431C282.646 63.9049 282.753 64.0124 282.753 64.2272V66.5866C282.753 66.8015 282.646 66.9089 282.431 66.9089H277.854V70.5576H282.869C283.084 70.5576 283.192 70.6651 283.192 70.8799V73.6777C283.192 73.8926 283.084 74 282.869 74H273.883Z" fill="#1E1E1E"/>
</svg>
