<svg width="1240" height="279" viewBox="0 0 1240 279" fill="none" xmlns="http://www.w3.org/2000/svg">
<rect x="80.8187" y="40.7006" width="1154.82" height="233.662" fill="#FFF1E9" stroke="black" stroke-width="7.51635"/>
<path d="M225.522 159.674L233.809 122.959H240.785L248.757 159.674H244.456L241.886 148.869H232.34L229.98 159.674H225.522ZM233.127 145.303H241.099L237.323 126.421H236.956L233.127 145.303ZM253.026 159.674V122.959H257.222V159.674H253.026ZM270.135 160.041C267.688 160.041 265.782 159.429 264.418 158.205C263.09 156.947 262.425 155.216 262.425 153.013V139.061C262.425 136.858 263.09 135.145 264.418 133.921C265.782 132.662 267.688 132.033 270.135 132.033C272.583 132.033 274.471 132.662 275.8 133.921C277.164 135.145 277.845 136.858 277.845 139.061V153.013C277.845 155.216 277.164 156.947 275.8 158.205C274.471 159.429 272.583 160.041 270.135 160.041ZM270.135 156.789C271.254 156.789 272.128 156.475 272.758 155.845C273.422 155.181 273.754 154.237 273.754 153.013V139.061C273.754 137.837 273.422 136.911 272.758 136.281C272.128 135.617 271.254 135.285 270.135 135.285C269.016 135.285 268.125 135.617 267.46 136.281C266.831 136.911 266.516 137.837 266.516 139.061V153.013C266.516 154.237 266.831 155.181 267.46 155.845C268.125 156.475 269.016 156.789 270.135 156.789ZM283.092 122.959H287.288V133.816L289.595 133.134C291.029 132.715 292.078 132.435 292.742 132.295C293.442 132.12 294.159 132.033 294.893 132.033C296.152 132.033 297.078 132.47 297.673 133.344C298.267 134.218 298.564 135.355 298.564 136.753V159.674H294.368V138.117C294.368 137.103 294.298 136.404 294.159 136.019C294.019 135.6 293.669 135.39 293.11 135.39C292.83 135.39 290.889 135.949 287.288 137.068V159.674H283.092V122.959ZM310.471 159.674C309.213 159.674 308.041 159.359 306.957 158.73C305.908 158.101 305.069 157.244 304.44 156.16C303.845 155.076 303.548 153.852 303.548 152.488V149.761C303.548 148.118 303.95 146.736 304.754 145.617C305.594 144.499 306.625 143.712 307.849 143.257L314.353 140.845V138.379C314.353 137.54 314.09 136.858 313.566 136.334C313.076 135.774 312.43 135.495 311.625 135.495H305.698V132.4H311.992C313.916 132.4 315.437 132.977 316.556 134.131C317.709 135.25 318.286 136.788 318.286 138.747V159.674H310.471ZM314.353 156.475V144.149L309.737 145.88C308.828 146.229 308.181 146.701 307.796 147.296C307.447 147.89 307.272 148.834 307.272 150.128V153.065C307.272 154.009 307.622 154.814 308.321 155.478C309.02 156.142 309.859 156.475 310.839 156.475H314.353ZM329.628 159.674C328.369 159.674 327.198 159.359 326.114 158.73C325.065 158.101 324.226 157.244 323.596 156.16C323.002 155.076 322.705 153.852 322.705 152.488V149.761C322.705 148.118 323.107 146.736 323.911 145.617C324.75 144.499 325.782 143.712 327.005 143.257L333.509 140.845V138.379C333.509 137.54 333.247 136.858 332.722 136.334C332.233 135.774 331.586 135.495 330.782 135.495H324.855V132.4H331.149C333.072 132.4 334.593 132.977 335.712 134.131C336.866 135.25 337.443 136.788 337.443 138.747V159.674H329.628ZM333.509 156.475V144.149L328.894 145.88C327.985 146.229 327.338 146.701 326.953 147.296C326.603 147.89 326.428 148.834 326.428 150.128V153.065C326.428 154.009 326.778 154.814 327.477 155.478C328.177 156.142 329.016 156.475 329.995 156.475H333.509ZM342.228 159.674V154.272H346.424V159.674H342.228ZM357.712 156.107H358.971C361.279 156.107 362.433 154.831 362.433 152.279V122.959H367.049V152.488C367.049 154.482 366.454 156.177 365.265 157.576C364.076 158.975 362.538 159.674 360.65 159.674H357.712V156.107ZM377.927 159.674C376.003 159.674 374.465 159.097 373.311 157.943C372.192 156.789 371.633 155.233 371.633 153.275V139.323C371.633 137.051 372.262 135.267 373.521 133.974C374.78 132.68 376.65 132.033 379.133 132.033C381.616 132.033 383.469 132.68 384.693 133.974C385.951 135.267 386.581 137.051 386.581 139.323V141.736C386.581 143.205 386.161 144.324 385.322 145.093C384.483 145.827 383.381 146.387 382.018 146.771L375.829 148.502V153.642C375.829 154.482 376.073 155.181 376.563 155.74C377.087 156.265 377.752 156.527 378.556 156.527H384.221V159.674H377.927ZM379.028 144.306C380.182 143.992 380.951 143.764 381.336 143.624C381.755 143.45 382.035 143.205 382.175 142.89C382.315 142.575 382.385 142.051 382.385 141.317V138.432C382.385 137.313 382.088 136.491 381.493 135.967C380.934 135.442 380.147 135.18 379.133 135.18C378.154 135.18 377.35 135.46 376.72 136.019C376.126 136.579 375.829 137.383 375.829 138.432V145.198L379.028 144.306ZM397.072 156.527H401.53C403.034 156.527 404.118 156.125 404.782 155.321C405.482 154.482 405.831 153.398 405.831 152.069C405.831 151.02 405.517 150.128 404.887 149.394C404.258 148.66 403.314 147.803 402.055 146.824C400.971 145.95 400.097 145.198 399.432 144.568C398.803 143.904 398.243 143.1 397.754 142.156C397.299 141.177 397.072 140.058 397.072 138.799C397.072 136.946 397.684 135.425 398.908 134.236C400.167 133.012 401.845 132.4 403.943 132.4H408.506V135.547H404.73C402.247 135.547 401.006 136.718 401.006 139.061C401.006 139.97 401.286 140.757 401.845 141.421C402.404 142.086 403.279 142.873 404.468 143.782C405.551 144.621 406.443 145.39 407.142 146.09C407.842 146.754 408.436 147.611 408.926 148.66C409.415 149.674 409.66 150.88 409.66 152.279C409.66 154.761 408.996 156.614 407.667 157.838C406.373 159.062 404.537 159.674 402.16 159.674H397.072V156.527ZM417.57 160.041C416.311 160.041 415.367 159.604 414.737 158.73C414.143 157.856 413.846 156.719 413.846 155.321V132.4H418.042V153.957C418.042 154.936 418.112 155.635 418.252 156.055C418.392 156.475 418.724 156.684 419.248 156.684C419.493 156.684 421.469 156.16 425.175 155.111V132.4H429.371V159.674H426.381L425.595 157.891C425.035 158.101 424.616 158.24 424.336 158.31C422.692 158.905 421.364 159.342 420.35 159.622C419.336 159.901 418.409 160.041 417.57 160.041ZM435.678 127.942V123.746H439.874V127.942H435.678ZM435.678 159.674V132.4H439.874V159.674H435.678ZM444.605 156.527H449.063C450.567 156.527 451.651 156.125 452.315 155.321C453.014 154.482 453.364 153.398 453.364 152.069C453.364 151.02 453.049 150.128 452.42 149.394C451.791 148.66 450.846 147.803 449.588 146.824C448.504 145.95 447.63 145.198 446.965 144.568C446.336 143.904 445.776 143.1 445.287 142.156C444.832 141.177 444.605 140.058 444.605 138.799C444.605 136.946 445.217 135.425 446.441 134.236C447.699 133.012 449.378 132.4 451.476 132.4H456.039V135.547H452.263C449.78 135.547 448.539 136.718 448.539 139.061C448.539 139.97 448.818 140.757 449.378 141.421C449.937 142.086 450.811 142.873 452 143.782C453.084 144.621 453.976 145.39 454.675 146.09C455.375 146.754 455.969 147.611 456.459 148.66C456.948 149.674 457.193 150.88 457.193 152.279C457.193 154.761 456.529 156.614 455.2 157.838C453.906 159.062 452.07 159.674 449.693 159.674H444.605V156.527ZM469.844 159.674V122.959H474.04V159.674H469.844ZM478.561 132.925L478.98 122.959H483.438L482.757 132.925H478.561ZM493.539 130.355L491.808 128.781L497.892 123.588L500.567 126.054L493.539 130.355ZM493.224 159.674C491.301 159.674 489.763 159.097 488.609 157.943C487.49 156.789 486.93 155.233 486.93 153.275V139.323C486.93 137.051 487.56 135.267 488.819 133.974C490.077 132.68 491.948 132.033 494.431 132.033C496.913 132.033 498.767 132.68 499.99 133.974C501.249 135.267 501.879 137.051 501.879 139.323V141.736C501.879 143.205 501.459 144.324 500.62 145.093C499.781 145.827 498.679 146.387 497.316 146.771L491.126 148.502V153.642C491.126 154.482 491.371 155.181 491.861 155.74C492.385 156.265 493.05 156.527 493.854 156.527H499.518V159.674H493.224ZM494.326 144.306C495.48 143.992 496.249 143.764 496.634 143.624C497.053 143.45 497.333 143.205 497.473 142.89C497.613 142.575 497.683 142.051 497.683 141.317V138.432C497.683 137.313 497.385 136.491 496.791 135.967C496.232 135.442 495.445 135.18 494.431 135.18C493.452 135.18 492.647 135.46 492.018 136.019C491.424 136.579 491.126 137.383 491.126 138.432V145.198L494.326 144.306ZM511.825 159.674C509.902 159.674 508.363 159.097 507.209 157.943C506.09 156.789 505.531 155.233 505.531 153.275V139.323C505.531 137.121 506.108 135.425 507.262 134.236C508.416 133.012 510.094 132.4 512.297 132.4H518.119V135.547H512.402C511.598 135.547 510.951 135.827 510.461 136.386C509.972 136.911 509.727 137.593 509.727 138.432V153.642C509.727 154.482 509.972 155.181 510.461 155.74C510.986 156.265 511.65 156.527 512.454 156.527H518.119V159.674H511.825ZM528.441 160.041C525.994 160.041 524.088 159.429 522.724 158.205C521.396 156.947 520.731 155.216 520.731 153.013V139.061C520.731 136.858 521.396 135.145 522.724 133.921C524.088 132.662 525.994 132.033 528.441 132.033C530.889 132.033 532.777 132.662 534.106 133.921C535.47 135.145 536.151 136.858 536.151 139.061V153.013C536.151 155.216 535.47 156.947 534.106 158.205C532.777 159.429 530.889 160.041 528.441 160.041ZM528.441 156.789C529.56 156.789 530.434 156.475 531.064 155.845C531.728 155.181 532.06 154.237 532.06 153.013V139.061C532.06 137.837 531.728 136.911 531.064 136.281C530.434 135.617 529.56 135.285 528.441 135.285C527.322 135.285 526.431 135.617 525.766 136.281C525.137 136.911 524.822 137.837 524.822 139.061V153.013C524.822 154.237 525.137 155.181 525.766 155.845C526.431 156.475 527.322 156.789 528.441 156.789ZM541.45 159.674V122.959H545.646V159.674H541.45ZM558.559 160.041C556.111 160.041 554.206 159.429 552.842 158.205C551.513 156.947 550.849 155.216 550.849 153.013V139.061C550.849 136.858 551.513 135.145 552.842 133.921C554.206 132.662 556.111 132.033 558.559 132.033C561.007 132.033 562.895 132.662 564.224 133.921C565.587 135.145 566.269 136.858 566.269 139.061V153.013C566.269 155.216 565.587 156.947 564.224 158.205C562.895 159.429 561.007 160.041 558.559 160.041ZM558.559 156.789C559.678 156.789 560.552 156.475 561.182 155.845C561.846 155.181 562.178 154.237 562.178 153.013V139.061C562.178 137.837 561.846 136.911 561.182 136.281C560.552 135.617 559.678 135.285 558.559 135.285C557.44 135.285 556.549 135.617 555.884 136.281C555.255 136.911 554.94 137.837 554.94 139.061V153.013C554.94 154.237 555.255 155.181 555.884 155.845C556.549 156.475 557.44 156.789 558.559 156.789ZM573.718 164.919H579.121C579.925 164.919 580.554 164.639 581.009 164.08C581.498 163.555 581.743 162.874 581.743 162.034V159.727H577.39C575.467 159.727 573.841 159.097 572.512 157.838C571.183 156.58 570.519 155.006 570.519 153.118V139.009C570.519 137.121 571.183 135.547 572.512 134.288C573.876 133.029 575.519 132.4 577.442 132.4H585.992V161.667C585.992 163.625 585.45 165.181 584.366 166.335C583.317 167.489 581.831 168.066 579.907 168.066H573.718V164.919ZM581.796 156.58V135.547H578.282C577.302 135.547 576.463 135.879 575.764 136.544C575.065 137.208 574.715 138.03 574.715 139.009V153.118C574.715 154.097 575.065 154.919 575.764 155.583C576.463 156.247 577.302 156.58 578.282 156.58H581.796ZM591.748 127.942V123.746H595.944V127.942H591.748ZM591.748 159.674V132.4H595.944V159.674H591.748ZM600.674 156.527H605.133C606.636 156.527 607.72 156.125 608.385 155.321C609.084 154.482 609.434 153.398 609.434 152.069C609.434 151.02 609.119 150.128 608.489 149.394C607.86 148.66 606.916 147.803 605.657 146.824C604.573 145.95 603.699 145.198 603.035 144.568C602.405 143.904 601.846 143.1 601.356 142.156C600.902 141.177 600.674 140.058 600.674 138.799C600.674 136.946 601.286 135.425 602.51 134.236C603.769 133.012 605.447 132.4 607.545 132.4H612.108V135.547H608.332C605.849 135.547 604.608 136.718 604.608 139.061C604.608 139.97 604.888 140.757 605.447 141.421C606.007 142.086 606.881 142.873 608.07 143.782C609.154 144.621 610.045 145.39 610.745 146.09C611.444 146.754 612.039 147.611 612.528 148.66C613.018 149.674 613.262 150.88 613.262 152.279C613.262 154.761 612.598 156.614 611.269 157.838C609.976 159.062 608.14 159.674 605.762 159.674H600.674V156.527ZM625.578 159.674C623.655 159.674 622.134 159.097 621.015 157.943C619.896 156.789 619.336 155.233 619.336 153.275V135.547H616.189V132.4H619.336V124.48L623.532 122.907V132.4H627.728V135.547H623.532V153.642C623.532 154.482 623.76 155.181 624.214 155.74C624.704 156.265 625.351 156.527 626.155 156.527H627.728V159.674H625.578ZM637.359 159.674C635.436 159.674 633.898 159.097 632.744 157.943C631.625 156.789 631.065 155.233 631.065 153.275V139.323C631.065 137.051 631.695 135.267 632.954 133.974C634.212 132.68 636.083 132.033 638.566 132.033C641.048 132.033 642.902 132.68 644.126 133.974C645.384 135.267 646.014 137.051 646.014 139.323V141.736C646.014 143.205 645.594 144.324 644.755 145.093C643.916 145.827 642.814 146.387 641.451 146.771L635.261 148.502V153.642C635.261 154.482 635.506 155.181 635.996 155.74C636.52 156.265 637.185 156.527 637.989 156.527H643.653V159.674H637.359ZM638.461 144.306C639.615 143.992 640.384 143.764 640.769 143.624C641.188 143.45 641.468 143.205 641.608 142.89C641.748 142.575 641.818 142.051 641.818 141.317V138.432C641.818 137.313 641.52 136.491 640.926 135.967C640.367 135.442 639.58 135.18 638.566 135.18C637.587 135.18 636.783 135.46 636.153 136.019C635.559 136.579 635.261 137.383 635.261 138.432V145.198L638.461 144.306ZM646.991 166.125L649.246 159.674V154.272H653.442V159.622L650.243 166.125H646.991ZM667.76 164.919H673.162C673.966 164.919 674.596 164.639 675.05 164.08C675.54 163.555 675.784 162.874 675.784 162.034V159.727H671.431C669.508 159.727 667.882 159.097 666.553 157.838C665.224 156.58 664.56 155.006 664.56 153.118V139.009C664.56 137.121 665.224 135.547 666.553 134.288C667.917 133.029 669.56 132.4 671.484 132.4H680.033V161.667C680.033 163.625 679.491 165.181 678.407 166.335C677.358 167.489 675.872 168.066 673.949 168.066H667.76V164.919ZM675.837 156.58V135.547H672.323C671.344 135.547 670.504 135.879 669.805 136.544C669.106 137.208 668.756 138.03 668.756 139.009V153.118C668.756 154.097 669.106 154.919 669.805 155.583C670.504 156.247 671.344 156.58 672.323 156.58H675.837ZM691.349 159.674C690.09 159.674 688.918 159.359 687.834 158.73C686.785 158.101 685.946 157.244 685.317 156.16C684.722 155.076 684.425 153.852 684.425 152.488V149.761C684.425 148.118 684.827 146.736 685.631 145.617C686.471 144.499 687.502 143.712 688.726 143.257L695.23 140.845V138.379C695.23 137.54 694.968 136.858 694.443 136.334C693.954 135.774 693.307 135.495 692.502 135.495H686.576V132.4H692.87C694.793 132.4 696.314 132.977 697.433 134.131C698.587 135.25 699.164 136.788 699.164 138.747V159.674H691.349ZM695.23 156.475V144.149L690.614 145.88C689.705 146.229 689.058 146.701 688.674 147.296C688.324 147.89 688.149 148.834 688.149 150.128V153.065C688.149 154.009 688.499 154.814 689.198 155.478C689.897 156.142 690.737 156.475 691.716 156.475H695.23ZM704.945 132.4H708.197L708.669 134.341L709.981 133.711C711.1 133.152 712.026 132.732 712.76 132.453C713.53 132.173 714.299 132.033 715.068 132.033V135.127C714.614 135.127 714.002 135.267 713.233 135.547C712.463 135.792 711.1 136.386 709.141 137.33V159.674H704.945V132.4ZM725.903 159.674C723.7 159.674 721.917 159.027 720.553 157.733C719.19 156.44 718.508 154.709 718.508 152.541V139.481C718.508 137.977 718.91 136.701 719.714 135.652C720.553 134.603 721.585 133.886 722.809 133.502L729.837 131.036V122.959H734.033V159.674H725.903ZM729.837 156.527V134.498L725.169 136.072C724.26 136.351 723.613 136.806 723.228 137.435C722.879 138.03 722.704 138.991 722.704 140.32V152.541C722.704 153.8 723.071 154.779 723.805 155.478C724.54 156.177 725.536 156.527 726.795 156.527H729.837ZM740.339 127.942V123.746H744.535V127.942H740.339ZM740.339 159.674V132.4H744.535V159.674H740.339ZM756.294 159.674C754.371 159.674 752.832 159.097 751.678 157.943C750.559 156.789 750 155.233 750 153.275V139.323C750 137.051 750.629 135.267 751.888 133.974C753.147 132.68 755.018 132.033 757.5 132.033C759.983 132.033 761.836 132.68 763.06 133.974C764.319 135.267 764.948 137.051 764.948 139.323V141.736C764.948 143.205 764.529 144.324 763.689 145.093C762.85 145.827 761.749 146.387 760.385 146.771L754.196 148.502V153.642C754.196 154.482 754.441 155.181 754.93 155.74C755.455 156.265 756.119 156.527 756.923 156.527H762.588V159.674H756.294ZM757.395 144.306C758.549 143.992 759.319 143.764 759.703 143.624C760.123 143.45 760.403 143.205 760.542 142.89C760.682 142.575 760.752 142.051 760.752 141.317V138.432C760.752 137.313 760.455 136.491 759.861 135.967C759.301 135.442 758.514 135.18 757.5 135.18C756.521 135.18 755.717 135.46 755.088 136.019C754.493 136.579 754.196 137.383 754.196 138.432V145.198L757.395 144.306ZM769.125 132.4H772.377L772.849 133.921L774.999 133.292C776.468 132.837 777.622 132.522 778.461 132.348C779.335 132.138 780.157 132.033 780.926 132.033C782.185 132.033 783.112 132.47 783.706 133.344C784.301 134.218 784.598 135.355 784.598 136.753V159.674H780.402V138.117C780.402 137.103 780.332 136.404 780.192 136.019C780.052 135.6 779.702 135.39 779.143 135.39C778.863 135.39 776.923 135.949 773.321 137.068V159.674H769.125V132.4ZM805.244 159.674C803.041 159.674 801.258 159.027 799.894 157.733C798.531 156.44 797.849 154.709 797.849 152.541V139.481C797.849 137.977 798.251 136.701 799.055 135.652C799.894 134.603 800.926 133.886 802.15 133.502L809.178 131.036V122.959H813.374V159.674H805.244ZM809.178 156.527V134.498L804.51 136.072C803.601 136.351 802.954 136.806 802.569 137.435C802.22 138.03 802.045 138.991 802.045 140.32V152.541C802.045 153.8 802.412 154.779 803.146 155.478C803.88 156.177 804.877 156.527 806.136 156.527H809.178ZM817.949 132.925L818.369 122.959H822.827L822.145 132.925H817.949ZM830.357 160.041C829.099 160.041 828.155 159.604 827.525 158.73C826.931 157.856 826.633 156.719 826.633 155.321V132.4H830.829V153.957C830.829 154.936 830.899 155.635 831.039 156.055C831.179 156.475 831.511 156.684 832.036 156.684C832.281 156.684 834.256 156.16 837.963 155.111V132.4H842.159V159.674H839.169L838.382 157.891C837.823 158.101 837.403 158.24 837.123 158.31C835.48 158.905 834.151 159.342 833.137 159.622C832.123 159.901 831.197 160.041 830.357 160.041ZM848.466 132.4H851.718L852.19 133.921L854.34 133.292C855.809 132.837 856.963 132.522 857.802 132.348C858.676 132.138 859.498 132.033 860.267 132.033C861.526 132.033 862.452 132.47 863.047 133.344C863.641 134.218 863.939 135.355 863.939 136.753V159.674H859.743V138.117C859.743 137.103 859.673 136.404 859.533 136.019C859.393 135.6 859.043 135.39 858.484 135.39C858.204 135.39 856.263 135.949 852.662 137.068V159.674H848.466V132.4ZM877.662 122.959H881.858V131.141L888.886 133.606C890.11 134.026 891.124 134.76 891.928 135.809C892.767 136.823 893.187 138.082 893.187 139.586V153.065C893.187 154.954 892.522 156.527 891.194 157.786C889.865 159.045 888.239 159.674 886.316 159.674H877.662V122.959ZM885.424 156.527C886.403 156.527 887.242 156.195 887.942 155.531C888.641 154.866 888.991 154.044 888.991 153.065V140.425C888.991 139.096 888.798 138.135 888.414 137.54C888.064 136.911 887.435 136.456 886.526 136.176L881.858 134.603V156.527H885.424ZM904.811 160.041C902.363 160.041 900.458 159.429 899.094 158.205C897.765 156.947 897.101 155.216 897.101 153.013V139.061C897.101 136.858 897.765 135.145 899.094 133.921C900.458 132.662 902.363 132.033 904.811 132.033C907.259 132.033 909.147 132.662 910.476 133.921C911.839 135.145 912.521 136.858 912.521 139.061V153.013C912.521 155.216 911.839 156.947 910.476 158.205C909.147 159.429 907.259 160.041 904.811 160.041ZM904.811 156.789C905.93 156.789 906.804 156.475 907.434 155.845C908.098 155.181 908.43 154.237 908.43 153.013V139.061C908.43 137.837 908.098 136.911 907.434 136.281C906.804 135.617 905.93 135.285 904.811 135.285C903.692 135.285 902.8 135.617 902.136 136.281C901.507 136.911 901.192 137.837 901.192 139.061V153.013C901.192 154.237 901.507 155.181 902.136 155.845C902.8 156.475 903.692 156.789 904.811 156.789ZM920.967 160.041C919.708 160.041 918.764 159.604 918.135 158.73C917.54 157.856 917.243 156.719 917.243 155.321V132.4H921.439V153.957C921.439 154.936 921.509 155.635 921.649 156.055C921.789 156.475 922.121 156.684 922.645 156.684C922.89 156.684 924.866 156.16 928.572 155.111V132.4H932.768V159.674H929.778L928.992 157.891C928.432 158.101 928.013 158.24 927.733 158.31C926.089 158.905 924.761 159.342 923.747 159.622C922.733 159.901 921.806 160.041 920.967 160.041ZM946.68 159.674C944.757 159.674 943.236 159.097 942.117 157.943C940.998 156.789 940.439 155.233 940.439 153.275V135.547H937.292V132.4H940.439V124.48L944.635 122.907V132.4H948.831V135.547H944.635V153.642C944.635 154.482 944.862 155.181 945.317 155.74C945.806 156.265 946.453 156.527 947.257 156.527H948.831V159.674H946.68ZM967.819 159.674C965.616 159.674 963.832 159.027 962.469 157.733C961.105 156.44 960.423 154.709 960.423 152.541V139.481C960.423 137.977 960.825 136.701 961.63 135.652C962.469 134.603 963.5 133.886 964.724 133.502L971.752 131.036V122.959H975.948V159.674H967.819ZM971.752 156.527V134.498L967.084 136.072C966.175 136.351 965.528 136.806 965.144 137.435C964.794 138.03 964.619 138.991 964.619 140.32V152.541C964.619 153.8 964.986 154.779 965.721 155.478C966.455 156.177 967.451 156.527 968.71 156.527H971.752ZM987.709 159.674C985.786 159.674 984.247 159.097 983.094 157.943C981.975 156.789 981.415 155.233 981.415 153.275V139.323C981.415 137.051 982.045 135.267 983.303 133.974C984.562 132.68 986.433 132.033 988.915 132.033C991.398 132.033 993.251 132.68 994.475 133.974C995.734 135.267 996.363 137.051 996.363 139.323V141.736C996.363 143.205 995.944 144.324 995.105 145.093C994.265 145.827 993.164 146.387 991.8 146.771L985.611 148.502V153.642C985.611 154.482 985.856 155.181 986.345 155.74C986.87 156.265 987.534 156.527 988.339 156.527H994.003V159.674H987.709ZM988.811 144.306C989.964 143.992 990.734 143.764 991.118 143.624C991.538 143.45 991.818 143.205 991.958 142.89C992.097 142.575 992.167 142.051 992.167 141.317V138.432C992.167 137.313 991.87 136.491 991.276 135.967C990.716 135.442 989.929 135.18 988.915 135.18C987.936 135.18 987.132 135.46 986.503 136.019C985.908 136.579 985.611 137.383 985.611 138.432V145.198L988.811 144.306ZM1012.31 159.674L1006.07 132.4H1010.42L1014.46 154.377L1018.45 132.4H1022.8L1016.56 159.674H1012.31ZM1032.17 159.674C1030.25 159.674 1028.71 159.097 1027.55 157.943C1026.43 156.789 1025.87 155.233 1025.87 153.275V139.323C1025.87 137.051 1026.5 135.267 1027.76 133.974C1029.02 132.68 1030.89 132.033 1033.37 132.033C1035.86 132.033 1037.71 132.68 1038.93 133.974C1040.19 135.267 1040.82 137.051 1040.82 139.323V141.736C1040.82 143.205 1040.4 144.324 1039.56 145.093C1038.72 145.827 1037.62 146.387 1036.26 146.771L1030.07 148.502V153.642C1030.07 154.482 1030.32 155.181 1030.8 155.74C1031.33 156.265 1031.99 156.527 1032.8 156.527H1038.46V159.674H1032.17ZM1033.27 144.306C1034.42 143.992 1035.19 143.764 1035.58 143.624C1036 143.45 1036.28 143.205 1036.42 142.89C1036.56 142.575 1036.63 142.051 1036.63 141.317V138.432C1036.63 137.313 1036.33 136.491 1035.74 135.967C1035.18 135.442 1034.39 135.18 1033.37 135.18C1032.4 135.18 1031.59 135.46 1030.96 136.019C1030.37 136.579 1030.07 137.383 1030.07 138.432V145.198L1033.27 144.306ZM1045 132.4H1048.25L1048.72 134.341L1050.03 133.711C1051.15 133.152 1052.08 132.732 1052.81 132.453C1053.58 132.173 1054.35 132.033 1055.12 132.033V135.127C1054.67 135.127 1054.06 135.267 1053.29 135.547C1052.52 135.792 1051.15 136.386 1049.2 137.33V159.674H1045V132.4ZM1066.64 159.674C1064.72 159.674 1063.2 159.097 1062.08 157.943C1060.96 156.789 1060.4 155.233 1060.4 153.275V135.547H1057.25V132.4H1060.4V124.48L1064.59 122.907V132.4H1068.79V135.547H1064.59V153.642C1064.59 154.482 1064.82 155.181 1065.28 155.74C1065.77 156.265 1066.41 156.527 1067.22 156.527H1068.79V159.674H1066.64ZM237.847 216.674H233.494C231.571 216.674 229.945 216.062 228.616 214.838C227.287 213.58 226.623 212.006 226.623 210.118V196.009C226.623 194.121 227.287 192.547 228.616 191.288C229.98 190.029 231.623 189.4 233.547 189.4H242.096V225.066H237.847V216.674ZM237.9 213.527V192.547H234.386C233.407 192.547 232.567 192.879 231.868 193.544C231.169 194.208 230.819 195.03 230.819 196.009V210.065C230.819 211.044 231.169 211.866 231.868 212.531C232.567 213.195 233.407 213.527 234.386 213.527H237.9ZM251.615 217.041C250.356 217.041 249.412 216.604 248.782 215.73C248.188 214.856 247.891 213.719 247.891 212.321V189.4H252.087V210.957C252.087 211.936 252.157 212.635 252.297 213.055C252.436 213.475 252.769 213.684 253.293 213.684C253.538 213.684 255.513 213.16 259.22 212.111V189.4H263.416V216.674H260.426L259.64 214.891C259.08 215.101 258.66 215.24 258.381 215.31C256.737 215.905 255.409 216.342 254.395 216.622C253.381 216.901 252.454 217.041 251.615 217.041ZM269.723 184.942V180.746H273.919V184.942H269.723ZM269.723 216.674V189.4H273.919V216.674H269.723ZM288.111 189.4H291.363L291.835 190.921L293.986 190.292C295.454 189.837 296.608 189.522 297.447 189.348C298.322 189.138 299.143 189.033 299.913 189.033C301.171 189.033 302.098 189.47 302.692 190.344C303.287 191.218 303.584 192.355 303.584 193.753V216.674H299.388V195.117C299.388 194.103 299.318 193.404 299.178 193.019C299.038 192.6 298.689 192.39 298.129 192.39C297.85 192.39 295.909 192.949 292.307 194.068V216.674H288.111V189.4ZM314.874 216.674C312.951 216.674 311.412 216.097 310.258 214.943C309.139 213.789 308.58 212.233 308.58 210.275V196.323C308.58 194.051 309.209 192.267 310.468 190.974C311.727 189.68 313.598 189.033 316.08 189.033C318.563 189.033 320.416 189.68 321.64 190.974C322.899 192.267 323.528 194.051 323.528 196.323V198.736C323.528 200.205 323.109 201.324 322.269 202.093C321.43 202.827 320.329 203.387 318.965 203.771L312.776 205.502V210.642C312.776 211.482 313.021 212.181 313.51 212.74C314.035 213.265 314.699 213.527 315.503 213.527H321.168V216.674H314.874ZM315.975 201.306C317.129 200.992 317.899 200.764 318.283 200.624C318.703 200.45 318.983 200.205 319.122 199.89C319.262 199.575 319.332 199.051 319.332 198.317V195.432C319.332 194.313 319.035 193.491 318.441 192.967C317.881 192.442 317.094 192.18 316.08 192.18C315.101 192.18 314.297 192.46 313.668 193.019C313.073 193.579 312.776 194.383 312.776 195.432V202.198L315.975 201.306ZM335.593 189.4H344.09C346.013 189.4 347.639 190.029 348.968 191.288C350.331 192.547 351.013 194.121 351.013 196.009V210.118C351.013 212.006 350.349 213.58 349.02 214.838C347.691 216.062 346.065 216.674 344.142 216.674H339.789V225.066H335.593V189.4ZM343.251 213.58C344.23 213.58 345.069 213.247 345.768 212.583C346.468 211.919 346.817 211.097 346.817 210.118V196.009C346.817 195.03 346.468 194.208 345.768 193.544C345.069 192.879 344.23 192.547 343.251 192.547H339.789V213.58H343.251ZM361.538 216.674C360.28 216.674 359.108 216.359 358.024 215.73C356.975 215.101 356.136 214.244 355.507 213.16C354.912 212.076 354.615 210.852 354.615 209.488V206.761C354.615 205.118 355.017 203.736 355.821 202.617C356.661 201.499 357.692 200.712 358.916 200.257L365.42 197.845V195.379C365.42 194.54 365.157 193.858 364.633 193.334C364.143 192.774 363.497 192.495 362.692 192.495H356.765V189.4H363.059C364.983 189.4 366.504 189.977 367.623 191.131C368.777 192.25 369.353 193.788 369.353 195.747V216.674H361.538ZM365.42 213.475V201.149L360.804 202.88C359.895 203.229 359.248 203.701 358.863 204.296C358.514 204.89 358.339 205.834 358.339 207.128V210.065C358.339 211.009 358.689 211.814 359.388 212.478C360.087 213.142 360.927 213.475 361.906 213.475H365.42ZM375.135 189.4H378.387L378.859 191.341L380.17 190.711C381.289 190.152 382.216 189.732 382.95 189.453C383.72 189.173 384.489 189.033 385.258 189.033V192.127C384.804 192.127 384.192 192.267 383.422 192.547C382.653 192.792 381.289 193.386 379.331 194.33V216.674H375.135V189.4ZM396.093 216.674C393.89 216.674 392.107 216.027 390.743 214.733C389.38 213.44 388.698 211.709 388.698 209.541V196.481C388.698 194.977 389.1 193.701 389.904 192.652C390.743 191.603 391.775 190.886 392.999 190.502L400.027 188.036V179.959H404.223V216.674H396.093ZM400.027 213.527V191.498L395.359 193.072C394.45 193.351 393.803 193.806 393.418 194.435C393.069 195.03 392.894 195.991 392.894 197.32V209.541C392.894 210.8 393.261 211.779 393.995 212.478C394.729 213.177 395.726 213.527 396.985 213.527H400.027ZM417.19 217.041C414.742 217.041 412.837 216.429 411.473 215.205C410.144 213.947 409.48 212.216 409.48 210.013V196.061C409.48 193.858 410.144 192.145 411.473 190.921C412.837 189.662 414.742 189.033 417.19 189.033C419.638 189.033 421.526 189.662 422.855 190.921C424.218 192.145 424.9 193.858 424.9 196.061V210.013C424.9 212.216 424.218 213.947 422.855 215.205C421.526 216.429 419.638 217.041 417.19 217.041ZM417.19 213.789C418.309 213.789 419.183 213.475 419.812 212.845C420.477 212.181 420.809 211.237 420.809 210.013V196.061C420.809 194.837 420.477 193.911 419.812 193.281C419.183 192.617 418.309 192.285 417.19 192.285C416.071 192.285 415.179 192.617 414.515 193.281C413.886 193.911 413.571 194.837 413.571 196.061V210.013C413.571 211.237 413.886 212.181 414.515 212.845C415.179 213.475 416.071 213.789 417.19 213.789ZM430.146 189.4H433.398L433.87 190.921L436.021 190.292C437.489 189.837 438.643 189.522 439.482 189.348C440.357 189.138 441.178 189.033 441.948 189.033C443.206 189.033 444.133 189.47 444.727 190.344C445.322 191.218 445.619 192.355 445.619 193.753V216.674H441.423V195.117C441.423 194.103 441.353 193.404 441.213 193.019C441.073 192.6 440.724 192.39 440.164 192.39C439.885 192.39 437.944 192.949 434.342 194.068V216.674H430.146V189.4ZM451.454 189.4H454.706L455.178 190.921L457.329 190.292C458.797 189.837 459.951 189.522 460.79 189.348C461.664 189.138 462.486 189.033 463.255 189.033C464.514 189.033 465.441 189.47 466.035 190.344C466.63 191.218 466.927 192.355 466.927 193.753V216.674H462.731V195.117C462.731 194.103 462.661 193.404 462.521 193.019C462.381 192.6 462.032 192.39 461.472 192.39C461.192 192.39 459.252 192.949 455.65 194.068V216.674H451.454V189.4ZM478.217 216.674C476.294 216.674 474.755 216.097 473.601 214.943C472.482 213.789 471.923 212.233 471.923 210.275V196.323C471.923 194.051 472.552 192.267 473.811 190.974C475.07 189.68 476.94 189.033 479.423 189.033C481.906 189.033 483.759 189.68 484.983 190.974C486.242 192.267 486.871 194.051 486.871 196.323V198.736C486.871 200.205 486.451 201.324 485.612 202.093C484.773 202.827 483.672 203.387 482.308 203.771L476.119 205.502V210.642C476.119 211.482 476.364 212.181 476.853 212.74C477.378 213.265 478.042 213.527 478.846 213.527H484.511V216.674H478.217ZM479.318 201.306C480.472 200.992 481.241 200.764 481.626 200.624C482.046 200.45 482.325 200.205 482.465 199.89C482.605 199.575 482.675 199.051 482.675 198.317V195.432C482.675 194.313 482.378 193.491 481.783 192.967C481.224 192.442 480.437 192.18 479.423 192.18C478.444 192.18 477.64 192.46 477.01 193.019C476.416 193.579 476.119 194.383 476.119 195.432V202.198L479.318 201.306ZM498.936 189.4H502.188L502.66 191.341L503.971 190.711C505.09 190.152 506.016 189.732 506.751 189.453C507.52 189.173 508.289 189.033 509.059 189.033V192.127C508.604 192.127 507.992 192.267 507.223 192.547C506.454 192.792 505.09 193.386 503.132 194.33V216.674H498.936V189.4ZM512.97 184.942V180.746H517.166V184.942H512.97ZM512.97 216.674V189.4H517.166V216.674H512.97ZM528.925 216.674C527.002 216.674 525.464 216.097 524.31 214.943C523.191 213.789 522.631 212.233 522.631 210.275V196.323C522.631 194.051 523.261 192.267 524.519 190.974C525.778 189.68 527.649 189.033 530.132 189.033C532.614 189.033 534.467 189.68 535.691 190.974C536.95 192.267 537.58 194.051 537.58 196.323V198.736C537.58 200.205 537.16 201.324 536.321 202.093C535.482 202.827 534.38 203.387 533.016 203.771L526.827 205.502V210.642C526.827 211.482 527.072 212.181 527.562 212.74C528.086 213.265 528.75 213.527 529.555 213.527H535.219V216.674H528.925ZM530.027 201.306C531.181 200.992 531.95 200.764 532.335 200.624C532.754 200.45 533.034 200.205 533.174 199.89C533.314 199.575 533.384 199.051 533.384 198.317V195.432C533.384 194.313 533.086 193.491 532.492 192.967C531.932 192.442 531.146 192.18 530.132 192.18C529.153 192.18 528.348 192.46 527.719 193.019C527.124 193.579 526.827 194.383 526.827 195.432V202.198L530.027 201.306ZM541.756 189.4H545.008L545.48 190.921L547.631 190.292C549.099 189.837 550.253 189.522 551.092 189.348C551.966 189.138 552.788 189.033 553.557 189.033C554.816 189.033 555.743 189.47 556.337 190.344C556.932 191.218 557.229 192.355 557.229 193.753V216.674H553.033V195.117C553.033 194.103 552.963 193.404 552.823 193.019C552.683 192.6 552.334 192.39 551.774 192.39C551.494 192.39 549.554 192.949 545.952 194.068V216.674H541.756V189.4ZM562.068 216.674V211.272H566.264V216.674H562.068Z" fill="#1E1E1E"/>
<rect width="448.945" height="88.9178" fill="black"/>
<path d="M159.395 64.974C158.991 64.974 158.789 64.7721 158.789 64.3683V60.5162C158.789 60.2094 158.87 59.9671 159.031 59.7894L162.617 56.2039C162.811 56.0262 162.907 55.7678 162.907 55.4286V29.2395C162.907 28.8358 163.109 28.6339 163.513 28.6339H170.369C170.773 28.6339 170.975 28.8358 170.975 29.2395V58.8204C170.975 58.9657 170.959 59.103 170.926 59.2322C170.91 59.3453 170.838 59.4664 170.708 59.5956L165.694 64.6106C165.451 64.8528 165.209 64.974 164.967 64.974H159.395ZM177.204 60.9281C176.8 60.9281 176.598 60.7262 176.598 60.3224V37.8643C176.598 37.6543 176.679 37.412 176.84 37.1375L182.582 28.9973C182.76 28.755 183.018 28.6339 183.357 28.6339H191.376C191.732 28.6339 191.99 28.755 192.152 28.9973L197.918 37.1375C198.079 37.3636 198.16 37.6058 198.16 37.8643V60.3224C198.16 60.7262 197.958 60.9281 197.554 60.9281H190.698C190.294 60.9281 190.092 60.7262 190.092 60.3224V50.0261H184.69V60.3224C184.69 60.7262 184.488 60.9281 184.084 60.9281H177.204ZM187.379 44.8173C188.865 44.8173 189.866 44.4943 190.383 43.8483C190.916 43.1861 191.183 41.9343 191.183 40.0931C191.183 38.2519 190.916 37.0082 190.383 36.3622C189.866 35.7 188.865 35.3689 187.379 35.3689C185.909 35.3689 184.908 35.7 184.375 36.3622C183.858 37.0082 183.6 38.2519 183.6 40.0931C183.6 41.9343 183.858 43.1861 184.375 43.8483C184.908 44.4943 185.909 44.8173 187.379 44.8173ZM204.439 60.9281C204.035 60.9281 203.834 60.7262 203.834 60.3224V29.2395C203.834 28.8358 204.035 28.6339 204.439 28.6339H217.57C217.958 28.6339 218.281 28.7389 218.539 28.9488L224.111 34.4725C224.289 34.634 224.394 34.7713 224.426 34.8844C224.475 34.9974 224.499 35.1832 224.499 35.4416V42.0797C224.499 42.2897 224.418 42.4754 224.257 42.6369L221.592 45.2292L219.339 47.1673L222.004 50.7044L224.741 56.5673C224.806 56.7127 224.854 56.858 224.887 57.0034C224.935 57.1326 224.959 57.2941 224.959 57.4879V60.3224C224.959 60.7262 224.757 60.9281 224.354 60.9281H217.958C217.602 60.9281 217.36 60.7666 217.231 60.4436L213.33 49.1055H211.513V60.3224C211.513 60.7262 211.312 60.9281 210.908 60.9281H204.439ZM214.178 43.1699C215.519 43.1699 216.431 42.8953 216.916 42.3462C217.401 41.7809 217.643 40.7311 217.643 39.1967C217.643 37.6462 217.401 36.5964 216.916 36.0473C216.431 35.482 215.519 35.1993 214.178 35.1993C212.854 35.1993 211.941 35.482 211.441 36.0473C210.94 36.5964 210.69 37.6462 210.69 39.1967C210.69 40.7311 210.94 41.7809 211.441 42.3462C211.941 42.8953 212.854 43.1699 214.178 43.1699ZM229.253 60.9281C228.85 60.9281 228.648 60.7262 228.648 60.3224V29.2395C228.648 28.8358 228.85 28.6339 229.253 28.6339H244.032C244.419 28.6339 244.742 28.7631 245.001 29.0215L249.846 33.8668C250.121 34.1414 250.258 34.4644 250.258 34.8359V54.7018C250.258 55.0895 250.121 55.4125 249.846 55.6709L245.001 60.5162C244.742 60.7908 244.419 60.9281 244.032 60.9281H229.253ZM236.74 54.4596H241.173C241.851 54.4596 242.191 54.0073 242.191 53.1029V36.4591C242.191 35.5385 241.851 35.0782 241.173 35.0782H236.74V54.4596ZM256.489 60.9281C256.085 60.9281 255.883 60.7262 255.883 60.3224V29.2395C255.883 28.8358 256.085 28.6339 256.489 28.6339H263.345C263.749 28.6339 263.951 28.8358 263.951 29.2395V60.3224C263.951 60.7262 263.749 60.9281 263.345 60.9281H256.489ZM270.353 60.9281C269.949 60.9281 269.747 60.7262 269.747 60.3224V29.2395C269.747 28.8358 269.949 28.6339 270.353 28.6339H284.114C284.501 28.6339 284.824 28.7631 285.083 29.0215L289.928 33.8668C290.203 34.1414 290.34 34.4644 290.34 34.8359V60.3224C290.34 60.7262 290.138 60.9281 289.734 60.9281H282.878C282.474 60.9281 282.273 60.7262 282.273 60.3224V35.0782H277.815V60.3224C277.815 60.7262 277.613 60.9281 277.209 60.9281H270.353ZM296.756 60.9281C296.353 60.9281 296.151 60.7262 296.151 60.3224V29.2395C296.151 28.8358 296.353 28.6339 296.756 28.6339H303.612C304.016 28.6339 304.218 28.8358 304.218 29.2395V60.3224C304.218 60.7262 304.016 60.9281 303.612 60.9281H296.756ZM310.62 60.9281C310.217 60.9281 310.015 60.7262 310.015 60.3224V29.2395C310.015 28.8358 310.217 28.6339 310.62 28.6339H327.506C327.91 28.6339 328.112 28.8358 328.112 29.2395V34.4725C328.112 34.8763 327.91 35.0782 327.506 35.0782H318.082V41.9586H326.683C327.087 41.9586 327.288 42.1605 327.288 42.5642V46.9977C327.288 47.4015 327.087 47.6034 326.683 47.6034H318.082V54.4596H327.506C327.91 54.4596 328.112 54.6615 328.112 55.0652V60.3224C328.112 60.7262 327.91 60.9281 327.506 60.9281H310.62ZM334.516 60.9281C334.112 60.9281 333.91 60.7262 333.91 60.3224V29.2395C333.91 28.8358 334.112 28.6339 334.516 28.6339H347.647C348.034 28.6339 348.357 28.7389 348.616 28.9488L354.188 34.4725C354.366 34.634 354.471 34.7713 354.503 34.8844C354.551 34.9974 354.576 35.1832 354.576 35.4416V42.0797C354.576 42.2897 354.495 42.4754 354.333 42.6369L351.668 45.2292L349.415 47.1673L352.08 50.7044L354.818 56.5673C354.883 56.7127 354.931 56.858 354.963 57.0034C355.012 57.1326 355.036 57.2941 355.036 57.4879V60.3224C355.036 60.7262 354.834 60.9281 354.43 60.9281H348.034C347.679 60.9281 347.437 60.7666 347.308 60.4436L343.407 49.1055H341.59V60.3224C341.59 60.7262 341.388 60.9281 340.984 60.9281H334.516ZM344.255 43.1699C345.596 43.1699 346.508 42.8953 346.993 42.3462C347.477 41.7809 347.719 40.7311 347.719 39.1967C347.719 37.6462 347.477 36.5964 346.993 36.0473C346.508 35.482 345.596 35.1993 344.255 35.1993C342.931 35.1993 342.018 35.482 341.517 36.0473C341.017 36.5964 340.766 37.6462 340.766 39.1967C340.766 40.7311 341.017 41.7809 341.517 42.3462C342.018 42.8953 342.931 43.1699 344.255 43.1699Z" fill="#FFF1E9"/>
</svg>
