<svg width="1240" height="279" viewBox="0 0 1240 279" fill="none" xmlns="http://www.w3.org/2000/svg">
<rect x="80.8187" y="40.7006" width="1154.82" height="233.662" fill="#FFF1E9" stroke="black" stroke-width="7.51635"/>
<path d="M203.54 155.791C200.358 155.791 197.893 154.986 196.145 153.378C194.396 151.769 193.522 149.409 193.522 146.297V128.569C193.522 125.457 194.396 123.097 196.145 121.488C197.893 119.88 200.358 119.076 203.54 119.076H210.568V122.537H203.54C201.932 122.537 200.62 123.009 199.606 123.953C198.627 124.863 198.138 126.086 198.138 127.625V147.241C198.138 148.78 198.627 150.021 199.606 150.965C200.62 151.874 201.932 152.329 203.54 152.329H210.568V155.791H203.54ZM220.203 155.791C218.28 155.791 216.742 155.214 215.588 154.06C214.469 152.906 213.909 151.35 213.909 149.392V135.44C213.909 133.167 214.539 131.384 215.797 130.09C217.056 128.796 218.927 128.149 221.41 128.149C223.892 128.149 225.745 128.796 226.969 130.09C228.228 131.384 228.858 133.167 228.858 135.44V137.853C228.858 139.321 228.438 140.44 227.599 141.209C226.76 141.944 225.658 142.503 224.294 142.888L218.105 144.619V149.759C218.105 150.598 218.35 151.297 218.84 151.857C219.364 152.381 220.028 152.644 220.833 152.644H226.497V155.791H220.203ZM221.305 140.423C222.459 140.108 223.228 139.881 223.613 139.741C224.032 139.566 224.312 139.321 224.452 139.007C224.592 138.692 224.662 138.167 224.662 137.433V134.548C224.662 133.429 224.364 132.608 223.77 132.083C223.21 131.559 222.424 131.296 221.41 131.296C220.431 131.296 219.626 131.576 218.997 132.136C218.402 132.695 218.105 133.499 218.105 134.548V141.314L221.305 140.423ZM251.15 155.791H246.797C244.873 155.791 243.248 155.179 241.919 153.955C240.59 152.696 239.926 151.123 239.926 149.234V135.125C239.926 133.237 240.59 131.664 241.919 130.405C243.282 129.146 244.926 128.517 246.849 128.517H255.398V164.183H251.15V155.791ZM251.202 152.644V131.664H247.688C246.709 131.664 245.87 131.996 245.171 132.66C244.471 133.325 244.122 134.146 244.122 135.125V149.182C244.122 150.161 244.471 150.983 245.171 151.647C245.87 152.311 246.709 152.644 247.688 152.644H251.202ZM264.917 156.158C263.659 156.158 262.714 155.721 262.085 154.846C261.491 153.972 261.193 152.836 261.193 151.437V128.517H265.389V150.074C265.389 151.053 265.459 151.752 265.599 152.172C265.739 152.591 266.071 152.801 266.596 152.801C266.84 152.801 268.816 152.276 272.523 151.227V128.517H276.719V155.791H273.729L272.942 154.007C272.383 154.217 271.963 154.357 271.683 154.427C270.04 155.021 268.711 155.458 267.697 155.738C266.683 156.018 265.757 156.158 264.917 156.158ZM288.48 155.791C286.557 155.791 285.019 155.214 283.865 154.06C282.746 152.906 282.186 151.35 282.186 149.392V135.44C282.186 133.167 282.816 131.384 284.075 130.09C285.333 128.796 287.204 128.149 289.687 128.149C292.169 128.149 294.023 128.796 295.247 130.09C296.505 131.384 297.135 133.167 297.135 135.44V137.853C297.135 139.321 296.715 140.44 295.876 141.209C295.037 141.944 293.935 142.503 292.572 142.888L286.382 144.619V149.759C286.382 150.598 286.627 151.297 287.117 151.857C287.641 152.381 288.306 152.644 289.11 152.644H294.774V155.791H288.48ZM289.582 140.423C290.736 140.108 291.505 139.881 291.89 139.741C292.309 139.566 292.589 139.321 292.729 139.007C292.869 138.692 292.939 138.167 292.939 137.433V134.548C292.939 133.429 292.641 132.608 292.047 132.083C291.488 131.559 290.701 131.296 289.687 131.296C288.708 131.296 287.904 131.576 287.274 132.136C286.68 132.695 286.382 133.499 286.382 134.548V141.314L289.582 140.423ZM299.738 152.644H304.196C305.7 152.644 306.784 152.241 307.448 151.437C308.147 150.598 308.497 149.514 308.497 148.185C308.497 147.136 308.182 146.245 307.553 145.51C306.924 144.776 305.98 143.919 304.721 142.94C303.637 142.066 302.763 141.314 302.098 140.685C301.469 140.021 300.909 139.216 300.42 138.272C299.965 137.293 299.738 136.174 299.738 134.915C299.738 133.062 300.35 131.541 301.574 130.352C302.833 129.129 304.511 128.517 306.609 128.517H311.172V131.664H307.396C304.913 131.664 303.672 132.835 303.672 135.178C303.672 136.087 303.951 136.874 304.511 137.538C305.07 138.202 305.945 138.989 307.133 139.898C308.217 140.737 309.109 141.507 309.808 142.206C310.508 142.87 311.102 143.727 311.592 144.776C312.081 145.79 312.326 146.996 312.326 148.395C312.326 150.878 311.662 152.731 310.333 153.955C309.039 155.179 307.203 155.791 304.826 155.791H299.738V152.644ZM324.641 155.791C322.718 155.791 321.197 155.214 320.078 154.06C318.959 152.906 318.4 151.35 318.4 149.392V131.664H315.253V128.517H318.4V120.597L322.596 119.023V128.517H326.792V131.664H322.596V149.759C322.596 150.598 322.823 151.297 323.278 151.857C323.767 152.381 324.414 152.644 325.218 152.644H326.792V155.791H324.641ZM330.968 124.058V119.862H335.164V124.058H330.968ZM330.968 155.791V128.517H335.164V155.791H330.968ZM348.13 156.158C345.682 156.158 343.776 155.546 342.413 154.322C341.084 153.063 340.419 151.332 340.419 149.129V135.178C340.419 132.975 341.084 131.261 342.413 130.038C343.776 128.779 345.682 128.149 348.13 128.149C350.577 128.149 352.466 128.779 353.794 130.038C355.158 131.261 355.84 132.975 355.84 135.178V149.129C355.84 151.332 355.158 153.063 353.794 154.322C352.466 155.546 350.577 156.158 348.13 156.158ZM348.13 152.906C349.249 152.906 350.123 152.591 350.752 151.962C351.417 151.297 351.749 150.353 351.749 149.129V135.178C351.749 133.954 351.417 133.027 350.752 132.398C350.123 131.734 349.249 131.401 348.13 131.401C347.011 131.401 346.119 131.734 345.455 132.398C344.825 133.027 344.511 133.954 344.511 135.178V149.129C344.511 150.353 344.825 151.297 345.455 151.962C346.119 152.591 347.011 152.906 348.13 152.906ZM361.086 128.517H364.338L364.81 130.038L366.96 129.408C368.429 128.954 369.583 128.639 370.422 128.464C371.296 128.254 372.118 128.149 372.887 128.149C374.146 128.149 375.073 128.587 375.667 129.461C376.262 130.335 376.559 131.471 376.559 132.87V155.791H372.363V134.234C372.363 133.22 372.293 132.52 372.153 132.136C372.013 131.716 371.663 131.506 371.104 131.506C370.824 131.506 368.884 132.066 365.282 133.185V155.791H361.086V128.517ZM382.394 128.517H385.646L386.118 130.038L388.268 129.408C389.737 128.954 390.891 128.639 391.73 128.464C392.604 128.254 393.426 128.149 394.195 128.149C395.454 128.149 396.38 128.587 396.975 129.461C397.569 130.335 397.867 131.471 397.867 132.87V155.791H393.671V134.234C393.671 133.22 393.601 132.52 393.461 132.136C393.321 131.716 392.971 131.506 392.412 131.506C392.132 131.506 390.191 132.066 386.59 133.185V155.791H382.394V128.517ZM409.261 155.791C408.003 155.791 406.831 155.476 405.747 154.846C404.698 154.217 403.859 153.36 403.23 152.276C402.635 151.192 402.338 149.969 402.338 148.605V145.878C402.338 144.234 402.74 142.853 403.544 141.734C404.383 140.615 405.415 139.828 406.639 139.374L413.143 136.961V134.496C413.143 133.657 412.88 132.975 412.356 132.45C411.866 131.891 411.219 131.611 410.415 131.611H404.488V128.517H410.782C412.706 128.517 414.227 129.094 415.346 130.247C416.499 131.366 417.076 132.905 417.076 134.863V155.791H409.261ZM413.143 152.591V140.265L408.527 141.996C407.618 142.346 406.971 142.818 406.586 143.412C406.237 144.007 406.062 144.951 406.062 146.245V149.182C406.062 150.126 406.412 150.93 407.111 151.595C407.81 152.259 408.649 152.591 409.628 152.591H413.143ZM422.858 124.058V119.862H427.054V124.058H422.858ZM422.858 155.791V128.517H427.054V155.791H422.858ZM433.358 128.517H436.61L437.082 130.457L438.394 129.828C439.513 129.268 440.439 128.849 441.173 128.569C441.943 128.289 442.712 128.149 443.481 128.149V131.244C443.027 131.244 442.415 131.384 441.646 131.664C440.876 131.908 439.513 132.503 437.554 133.447V155.791H433.358V128.517ZM452.848 155.791C450.925 155.791 449.386 155.214 448.232 154.06C447.113 152.906 446.554 151.35 446.554 149.392V135.44C446.554 133.167 447.183 131.384 448.442 130.09C449.701 128.796 451.571 128.149 454.054 128.149C456.537 128.149 458.39 128.796 459.614 130.09C460.873 131.384 461.502 133.167 461.502 135.44V137.853C461.502 139.321 461.082 140.44 460.243 141.209C459.404 141.944 458.303 142.503 456.939 142.888L450.75 144.619V149.759C450.75 150.598 450.994 151.297 451.484 151.857C452.009 152.381 452.673 152.644 453.477 152.644H459.142V155.791H452.848ZM453.949 140.423C455.103 140.108 455.872 139.881 456.257 139.741C456.677 139.566 456.956 139.321 457.096 139.007C457.236 138.692 457.306 138.167 457.306 137.433V134.548C457.306 133.429 457.009 132.608 456.414 132.083C455.855 131.559 455.068 131.296 454.054 131.296C453.075 131.296 452.271 131.576 451.641 132.136C451.047 132.695 450.75 133.499 450.75 134.548V141.314L453.949 140.423ZM462.479 162.242L464.735 155.791V150.388H468.931V155.738L465.731 162.242H462.479ZM486.814 155.791C484.891 155.791 483.353 155.214 482.199 154.06C481.08 152.906 480.52 151.35 480.52 149.392V135.44C480.52 133.237 481.097 131.541 482.251 130.352C483.405 129.129 485.084 128.517 487.286 128.517H493.108V131.664H487.391C486.587 131.664 485.94 131.943 485.451 132.503C484.961 133.027 484.716 133.709 484.716 134.548V149.759C484.716 150.598 484.961 151.297 485.451 151.857C485.975 152.381 486.64 152.644 487.444 152.644H493.108V155.791H486.814ZM495.039 129.041L495.458 119.076H499.917L499.235 129.041H495.039ZM509.703 155.791C507.78 155.791 506.241 155.214 505.087 154.06C503.968 152.906 503.409 151.35 503.409 149.392V135.44C503.409 133.167 504.038 131.384 505.297 130.09C506.556 128.796 508.426 128.149 510.909 128.149C513.392 128.149 515.245 128.796 516.469 130.09C517.728 131.384 518.357 133.167 518.357 135.44V137.853C518.357 139.321 517.937 140.44 517.098 141.209C516.259 141.944 515.157 142.503 513.794 142.888L507.605 144.619V149.759C507.605 150.598 507.849 151.297 508.339 151.857C508.863 152.381 509.528 152.644 510.332 152.644H515.997V155.791H509.703ZM510.804 140.423C511.958 140.108 512.727 139.881 513.112 139.741C513.532 139.566 513.811 139.321 513.951 139.007C514.091 138.692 514.161 138.167 514.161 137.433V134.548C514.161 133.429 513.864 132.608 513.269 132.083C512.71 131.559 511.923 131.296 510.909 131.296C509.93 131.296 509.126 131.576 508.496 132.136C507.902 132.695 507.605 133.499 507.605 134.548V141.314L510.804 140.423ZM520.96 152.644H525.418C526.922 152.644 528.006 152.241 528.67 151.437C529.37 150.598 529.719 149.514 529.719 148.185C529.719 147.136 529.405 146.245 528.775 145.51C528.146 144.776 527.202 143.919 525.943 142.94C524.859 142.066 523.985 141.314 523.32 140.685C522.691 140.021 522.132 139.216 521.642 138.272C521.187 137.293 520.96 136.174 520.96 134.915C520.96 133.062 521.572 131.541 522.796 130.352C524.055 129.129 525.733 128.517 527.831 128.517H532.394V131.664H528.618C526.135 131.664 524.894 132.835 524.894 135.178C524.894 136.087 525.174 136.874 525.733 137.538C526.293 138.202 527.167 138.989 528.356 139.898C529.44 140.737 530.331 141.507 531.031 142.206C531.73 142.87 532.324 143.727 532.814 144.776C533.303 145.79 533.548 146.996 533.548 148.395C533.548 150.878 532.884 152.731 531.555 153.955C530.261 155.179 528.426 155.791 526.048 155.791H520.96V152.644ZM545.864 155.791C543.941 155.791 542.419 155.214 541.301 154.06C540.182 152.906 539.622 151.35 539.622 149.392V131.664H536.475V128.517H539.622V120.597L543.818 119.023V128.517H548.014V131.664H543.818V149.759C543.818 150.598 544.045 151.297 544.5 151.857C544.99 152.381 545.636 152.644 546.441 152.644H548.014V155.791H545.864ZM567.684 155.791C565.761 155.791 564.239 155.214 563.121 154.06C562.002 152.906 561.442 151.35 561.442 149.392V131.664H558.295V128.517H561.442V120.597L565.638 119.023V128.517H569.834V131.664H565.638V149.759C565.638 150.598 565.865 151.297 566.32 151.857C566.81 152.381 567.456 152.644 568.261 152.644H569.834V155.791H567.684ZM580.672 156.158C578.224 156.158 576.318 155.546 574.955 154.322C573.626 153.063 572.961 151.332 572.961 149.129V135.178C572.961 132.975 573.626 131.261 574.955 130.038C576.318 128.779 578.224 128.149 580.672 128.149C583.119 128.149 585.008 128.779 586.336 130.038C587.7 131.261 588.382 132.975 588.382 135.178V149.129C588.382 151.332 587.7 153.063 586.336 154.322C585.008 155.546 583.119 156.158 580.672 156.158ZM580.672 152.906C581.791 152.906 582.665 152.591 583.294 151.962C583.959 151.297 584.291 150.353 584.291 149.129V135.178C584.291 133.954 583.959 133.027 583.294 132.398C582.665 131.734 581.791 131.401 580.672 131.401C579.553 131.401 578.661 131.734 577.997 132.398C577.367 133.027 577.053 133.954 577.053 135.178V149.129C577.053 150.353 577.367 151.297 577.997 151.962C578.661 152.591 579.553 152.906 580.672 152.906ZM593.628 128.517H596.88L597.352 130.038L599.502 129.408C600.971 128.954 602.125 128.639 602.964 128.464C603.838 128.254 604.66 128.149 605.429 128.149C606.688 128.149 607.615 128.587 608.209 129.461C608.804 130.335 609.101 131.471 609.101 132.87V155.791H604.905V134.234C604.905 133.22 604.835 132.52 604.695 132.136C604.555 131.716 604.205 131.506 603.646 131.506C603.366 131.506 601.426 132.066 597.824 133.185V155.791H593.628V128.517ZM628.593 155.791C626.67 155.791 625.132 155.214 623.978 154.06C622.859 152.906 622.299 151.35 622.299 149.392V135.44C622.299 133.237 622.876 131.541 624.03 130.352C625.184 129.129 626.862 128.517 629.065 128.517H634.887V131.664H629.17C628.366 131.664 627.719 131.943 627.23 132.503C626.74 133.027 626.495 133.709 626.495 134.548V149.759C626.495 150.598 626.74 151.297 627.23 151.857C627.754 152.381 628.418 152.644 629.223 152.644H634.887V155.791H628.593ZM645.21 156.158C642.762 156.158 640.856 155.546 639.493 154.322C638.164 153.063 637.5 151.332 637.5 149.129V135.178C637.5 132.975 638.164 131.261 639.493 130.038C640.856 128.779 642.762 128.149 645.21 128.149C647.657 128.149 649.546 128.779 650.874 130.038C652.238 131.261 652.92 132.975 652.92 135.178V149.129C652.92 151.332 652.238 153.063 650.874 154.322C649.546 155.546 647.657 156.158 645.21 156.158ZM645.21 152.906C646.329 152.906 647.203 152.591 647.832 151.962C648.497 151.297 648.829 150.353 648.829 149.129V135.178C648.829 133.954 648.497 133.027 647.832 132.398C647.203 131.734 646.329 131.401 645.21 131.401C644.091 131.401 643.199 131.734 642.535 132.398C641.905 133.027 641.591 133.954 641.591 135.178V149.129C641.591 150.353 641.905 151.297 642.535 151.962C643.199 152.591 644.091 152.906 645.21 152.906ZM658.166 128.517H661.418L661.89 130.038L664.041 129.408C665.509 128.954 666.663 128.639 667.502 128.464C668.376 128.254 669.198 128.149 669.967 128.149C671.226 128.149 672.153 128.587 672.747 129.461C673.342 130.335 673.639 131.471 673.639 132.87V155.791H669.443V134.234C669.443 133.22 669.373 132.52 669.233 132.136C669.093 131.716 668.744 131.506 668.184 131.506C667.904 131.506 665.964 132.066 662.362 133.185V155.791H658.166V128.517ZM687.079 155.791C685.156 155.791 683.635 155.214 682.516 154.06C681.397 152.906 680.838 151.35 680.838 149.392V131.664H677.691V128.517H680.838V120.597L685.034 119.023V128.517H689.23V131.664H685.034V149.759C685.034 150.598 685.261 151.297 685.715 151.857C686.205 152.381 686.852 152.644 687.656 152.644H689.23V155.791H687.079ZM693.406 128.517H696.658L697.13 130.457L698.441 129.828C699.56 129.268 700.487 128.849 701.221 128.569C701.99 128.289 702.76 128.149 703.529 128.149V131.244C703.074 131.244 702.462 131.384 701.693 131.664C700.924 131.908 699.56 132.503 697.602 133.447V155.791H693.406V128.517ZM710.692 125.579L708.122 123.586L714.102 119.023L720.081 123.586L717.511 125.579L714.102 122.852L710.692 125.579ZM714.102 156.158C711.654 156.158 709.748 155.546 708.384 154.322C707.056 153.063 706.391 151.332 706.391 149.129V135.178C706.391 132.975 707.056 131.261 708.384 130.038C709.748 128.779 711.654 128.149 714.102 128.149C716.549 128.149 718.437 128.779 719.766 130.038C721.13 131.261 721.812 132.975 721.812 135.178V149.129C721.812 151.332 721.13 153.063 719.766 154.322C718.437 155.546 716.549 156.158 714.102 156.158ZM714.102 152.906C715.22 152.906 716.095 152.591 716.724 151.962C717.388 151.297 717.721 150.353 717.721 149.129V135.178C717.721 133.954 717.388 133.027 716.724 132.398C716.095 131.734 715.22 131.401 714.102 131.401C712.983 131.401 712.091 131.734 711.427 132.398C710.797 133.027 710.482 133.954 710.482 135.178V149.129C710.482 150.353 710.797 151.297 711.427 151.962C712.091 152.591 712.983 152.906 714.102 152.906ZM727.11 155.791V119.076H731.306V155.791H727.11ZM743.013 155.791C741.09 155.791 739.551 155.214 738.397 154.06C737.278 152.906 736.719 151.35 736.719 149.392V135.44C736.719 133.167 737.348 131.384 738.607 130.09C739.866 128.796 741.737 128.149 744.219 128.149C746.702 128.149 748.555 128.796 749.779 130.09C751.038 131.384 751.667 133.167 751.667 135.44V137.853C751.667 139.321 751.248 140.44 750.408 141.209C749.569 141.944 748.468 142.503 747.104 142.888L740.915 144.619V149.759C740.915 150.598 741.16 151.297 741.649 151.857C742.174 152.381 742.838 152.644 743.642 152.644H749.307V155.791H743.013ZM744.114 140.423C745.268 140.108 746.038 139.881 746.422 139.741C746.842 139.566 747.122 139.321 747.261 139.007C747.401 138.692 747.471 138.167 747.471 137.433V134.548C747.471 133.429 747.174 132.608 746.58 132.083C746.02 131.559 745.233 131.296 744.219 131.296C743.24 131.296 742.436 131.576 741.807 132.136C741.212 132.695 740.915 133.499 740.915 134.548V141.314L744.114 140.423ZM771.337 155.791C769.414 155.791 767.893 155.214 766.774 154.06C765.655 152.906 765.096 151.35 765.096 149.392V131.664H761.949V128.517H765.096V120.597L769.292 119.023V128.517H773.488V131.664H769.292V149.759C769.292 150.598 769.519 151.297 769.974 151.857C770.463 152.381 771.11 152.644 771.914 152.644H773.488V155.791H771.337ZM783.119 155.791C781.196 155.791 779.657 155.214 778.503 154.06C777.384 152.906 776.825 151.35 776.825 149.392V135.44C776.825 133.167 777.454 131.384 778.713 130.09C779.972 128.796 781.843 128.149 784.325 128.149C786.808 128.149 788.661 128.796 789.885 130.09C791.144 131.384 791.773 133.167 791.773 135.44V137.853C791.773 139.321 791.353 140.44 790.514 141.209C789.675 141.944 788.574 142.503 787.21 142.888L781.021 144.619V149.759C781.021 150.598 781.266 151.297 781.755 151.857C782.28 152.381 782.944 152.644 783.748 152.644H789.413V155.791H783.119ZM784.22 140.423C785.374 140.108 786.143 139.881 786.528 139.741C786.948 139.566 787.227 139.321 787.367 139.007C787.507 138.692 787.577 138.167 787.577 137.433V134.548C787.577 133.429 787.28 132.608 786.685 132.083C786.126 131.559 785.339 131.296 784.325 131.296C783.346 131.296 782.542 131.576 781.912 132.136C781.318 132.695 781.021 133.499 781.021 134.548V141.314L784.22 140.423ZM801.719 155.791C799.796 155.791 798.258 155.214 797.104 154.06C795.985 152.906 795.425 151.35 795.425 149.392V135.44C795.425 133.237 796.002 131.541 797.156 130.352C798.31 129.129 799.988 128.517 802.191 128.517H808.013V131.664H802.296C801.492 131.664 800.845 131.943 800.356 132.503C799.866 133.027 799.621 133.709 799.621 134.548V149.759C799.621 150.598 799.866 151.297 800.356 151.857C800.88 152.381 801.544 152.644 802.349 152.644H808.013V155.791H801.719ZM811.675 119.076H815.871V129.933L818.178 129.251C819.612 128.831 820.661 128.552 821.325 128.412C822.025 128.237 822.741 128.149 823.476 128.149C824.735 128.149 825.661 128.587 826.256 129.461C826.85 130.335 827.147 131.471 827.147 132.87V155.791H822.951V134.234C822.951 133.22 822.881 132.52 822.741 132.136C822.602 131.716 822.252 131.506 821.692 131.506C821.413 131.506 819.472 132.066 815.871 133.185V155.791H811.675V119.076ZM833.495 128.517H836.746L837.219 130.038L839.369 129.408C840.838 128.954 841.991 128.639 842.831 128.464C843.705 128.254 844.527 128.149 845.296 128.149C846.555 128.149 847.481 128.587 848.076 129.461C848.67 130.335 848.967 131.471 848.967 132.87V155.791H844.771V134.234C844.771 133.22 844.701 132.52 844.562 132.136C844.422 131.716 844.072 131.506 843.513 131.506C843.233 131.506 841.292 132.066 837.691 133.185V155.791H833.495V128.517ZM854.802 124.058V119.862H858.998V124.058H854.802ZM854.802 155.791V128.517H858.998V155.791H854.802ZM875.53 155.791H871.177C869.254 155.791 867.628 155.179 866.299 153.955C864.97 152.696 864.306 151.123 864.306 149.234V135.125C864.306 133.237 864.97 131.664 866.299 130.405C867.663 129.146 869.306 128.517 871.229 128.517H879.779V164.183H875.53V155.791ZM875.583 152.644V131.664H872.069C871.09 131.664 870.25 131.996 869.551 132.66C868.852 133.325 868.502 134.146 868.502 135.125V149.182C868.502 150.161 868.852 150.983 869.551 151.647C870.25 152.311 871.09 152.644 872.069 152.644H875.583ZM889.298 156.158C888.039 156.158 887.095 155.721 886.465 154.846C885.871 153.972 885.574 152.836 885.574 151.437V128.517H889.77V150.074C889.77 151.053 889.84 151.752 889.98 152.172C890.119 152.591 890.452 152.801 890.976 152.801C891.221 152.801 893.196 152.276 896.903 151.227V128.517H901.099V155.791H898.109L897.323 154.007C896.763 154.217 896.343 154.357 896.064 154.427C894.42 155.021 893.092 155.458 892.078 155.738C891.064 156.018 890.137 156.158 889.298 156.158ZM912.861 155.791C910.938 155.791 909.399 155.214 908.245 154.06C907.126 152.906 906.567 151.35 906.567 149.392V135.44C906.567 133.167 907.196 131.384 908.455 130.09C909.714 128.796 911.585 128.149 914.067 128.149C916.55 128.149 918.403 128.796 919.627 130.09C920.886 131.384 921.515 133.167 921.515 135.44V137.853C921.515 139.321 921.095 140.44 920.256 141.209C919.417 141.944 918.316 142.503 916.952 142.888L910.763 144.619V149.759C910.763 150.598 911.008 151.297 911.497 151.857C912.022 152.381 912.686 152.644 913.49 152.644H919.155V155.791H912.861ZM913.962 140.423C915.116 140.108 915.885 139.881 916.27 139.741C916.69 139.566 916.969 139.321 917.109 139.007C917.249 138.692 917.319 138.167 917.319 137.433V134.548C917.319 133.429 917.022 132.608 916.427 132.083C915.868 131.559 915.081 131.296 914.067 131.296C913.088 131.296 912.284 131.576 911.654 132.136C911.06 132.695 910.763 133.499 910.763 134.548V141.314L913.962 140.423ZM932.583 133.971V128.569H936.779V133.971H932.583ZM932.583 155.791V150.388H936.779V155.791H932.583ZM955.74 155.791C953.817 155.791 952.278 155.214 951.124 154.06C950.005 152.906 949.446 151.35 949.446 149.392V135.44C949.446 133.237 950.023 131.541 951.177 130.352C952.331 129.129 954.009 128.517 956.212 128.517H962.034V131.664H956.317C955.513 131.664 954.866 131.943 954.376 132.503C953.887 133.027 953.642 133.709 953.642 134.548V149.759C953.642 150.598 953.887 151.297 954.376 151.857C954.901 152.381 955.565 152.644 956.369 152.644H962.034V155.791H955.74ZM965.695 119.076H969.891V129.933L972.199 129.251C973.633 128.831 974.682 128.552 975.346 128.412C976.045 128.237 976.762 128.149 977.496 128.149C978.755 128.149 979.682 128.587 980.276 129.461C980.871 130.335 981.168 131.471 981.168 132.87V155.791H976.972V134.234C976.972 133.22 976.902 132.52 976.762 132.136C976.622 131.716 976.273 131.506 975.713 131.506C975.433 131.506 973.493 132.066 969.891 133.185V155.791H965.695V119.076ZM993.075 155.791C991.816 155.791 990.645 155.476 989.561 154.846C988.512 154.217 987.673 153.36 987.043 152.276C986.449 151.192 986.152 149.969 986.152 148.605V145.878C986.152 144.234 986.554 142.853 987.358 141.734C988.197 140.615 989.229 139.828 990.452 139.374L996.956 136.961V134.496C996.956 133.657 996.694 132.975 996.169 132.45C995.68 131.891 995.033 131.611 994.229 131.611H988.302V128.517H994.596C996.519 128.517 998.04 129.094 999.159 130.247C1000.31 131.366 1000.89 132.905 1000.89 134.863V155.791H993.075ZM996.956 152.591V140.265L992.341 141.996C991.431 142.346 990.785 142.818 990.4 143.412C990.05 144.007 989.875 144.951 989.875 146.245V149.182C989.875 150.126 990.225 150.93 990.924 151.595C991.624 152.259 992.463 152.591 993.442 152.591H996.956ZM1016.9 155.791H1012.55C1010.62 155.791 1009 155.179 1007.67 153.955C1006.34 152.696 1005.68 151.123 1005.68 149.234V135.125C1005.68 133.237 1006.34 131.664 1007.67 130.405C1009.03 129.146 1010.68 128.517 1012.6 128.517H1021.15V164.183H1016.9V155.791ZM1016.95 152.644V131.664H1013.44C1012.46 131.664 1011.62 131.996 1010.92 132.66C1010.22 133.325 1009.87 134.146 1009.87 135.125V149.182C1009.87 150.161 1010.22 150.983 1010.92 151.647C1011.62 152.311 1012.46 152.644 1013.44 152.644H1016.95ZM1030.67 156.158C1029.41 156.158 1028.46 155.721 1027.83 154.846C1027.24 153.972 1026.94 152.836 1026.94 151.437V128.517H1031.14V150.074C1031.14 151.053 1031.21 151.752 1031.35 152.172C1031.49 152.591 1031.82 152.801 1032.35 152.801C1032.59 152.801 1034.57 152.276 1038.27 151.227V128.517H1042.47V155.791H1039.48L1038.69 154.007C1038.13 154.217 1037.71 154.357 1037.43 154.427C1035.79 155.021 1034.46 155.458 1033.45 155.738C1032.43 156.018 1031.51 156.158 1030.67 156.158ZM1054.23 155.791C1052.31 155.791 1050.77 155.214 1049.61 154.06C1048.5 152.906 1047.94 151.35 1047.94 149.392V135.44C1047.94 133.167 1048.57 131.384 1049.82 130.09C1051.08 128.796 1052.95 128.149 1055.44 128.149C1057.92 128.149 1059.77 128.796 1061 130.09C1062.25 131.384 1062.88 133.167 1062.88 135.44V137.853C1062.88 139.321 1062.46 140.44 1061.63 141.209C1060.79 141.944 1059.68 142.503 1058.32 142.888L1052.13 144.619V149.759C1052.13 150.598 1052.38 151.297 1052.87 151.857C1053.39 152.381 1054.06 152.644 1054.86 152.644H1060.52V155.791H1054.23ZM1055.33 140.423C1056.49 140.108 1057.25 139.881 1057.64 139.741C1058.06 139.566 1058.34 139.321 1058.48 139.007C1058.62 138.692 1058.69 138.167 1058.69 137.433V134.548C1058.69 133.429 1058.39 132.608 1057.8 132.083C1057.24 131.559 1056.45 131.296 1055.44 131.296C1054.46 131.296 1053.65 131.576 1053.02 132.136C1052.43 132.695 1052.13 133.499 1052.13 134.548V141.314L1055.33 140.423ZM194.414 185.517H197.666L198.138 187.457L199.449 186.828C200.568 186.268 201.495 185.849 202.229 185.569C202.998 185.289 203.767 185.149 204.537 185.149V188.244C204.082 188.244 203.47 188.384 202.701 188.664C201.932 188.908 200.568 189.503 198.61 190.447V212.791H194.414V185.517ZM214.218 183.471L212.487 181.898L218.571 176.705L221.246 179.17L214.218 183.471ZM213.903 212.791C211.98 212.791 210.441 212.214 209.288 211.06C208.169 209.906 207.609 208.35 207.609 206.392V192.44C207.609 190.167 208.239 188.384 209.497 187.09C210.756 185.796 212.627 185.149 215.109 185.149C217.592 185.149 219.445 185.796 220.669 187.09C221.928 188.384 222.557 190.167 222.557 192.44V194.853C222.557 196.321 222.138 197.44 221.299 198.209C220.459 198.944 219.358 199.503 217.994 199.888L211.805 201.619V206.759C211.805 207.598 212.05 208.297 212.539 208.857C213.064 209.381 213.728 209.644 214.533 209.644H220.197V212.791H213.903ZM215.005 197.423C216.158 197.108 216.928 196.881 217.312 196.741C217.732 196.566 218.012 196.321 218.152 196.007C218.291 195.692 218.361 195.167 218.361 194.433V191.548C218.361 190.429 218.064 189.608 217.47 189.083C216.91 188.559 216.124 188.296 215.109 188.296C214.13 188.296 213.326 188.576 212.697 189.136C212.102 189.695 211.805 190.499 211.805 191.548V198.314L215.005 197.423ZM226.734 185.517H235.231C237.154 185.517 238.78 186.146 240.109 187.405C241.473 188.664 242.154 190.237 242.154 192.125V206.234C242.154 208.123 241.49 209.696 240.161 210.955C238.833 212.179 237.207 212.791 235.283 212.791H230.93V221.183H226.734V185.517ZM234.392 209.696C235.371 209.696 236.21 209.364 236.909 208.699C237.609 208.035 237.958 207.213 237.958 206.234V192.125C237.958 191.146 237.609 190.325 236.909 189.66C236.21 188.996 235.371 188.664 234.392 188.664H230.93V209.696H234.392ZM253.781 213.158C251.333 213.158 249.428 212.546 248.064 211.322C246.735 210.063 246.071 208.332 246.071 206.129V192.178C246.071 189.975 246.735 188.261 248.064 187.038C249.428 185.779 251.333 185.149 253.781 185.149C256.229 185.149 258.117 185.779 259.446 187.038C260.809 188.261 261.491 189.975 261.491 192.178V206.129C261.491 208.332 260.809 210.063 259.446 211.322C258.117 212.546 256.229 213.158 253.781 213.158ZM253.781 209.906C254.9 209.906 255.774 209.591 256.404 208.962C257.068 208.297 257.4 207.353 257.4 206.129V192.178C257.4 190.954 257.068 190.027 256.404 189.398C255.774 188.734 254.9 188.401 253.781 188.401C252.662 188.401 251.771 188.734 251.106 189.398C250.477 190.027 250.162 190.954 250.162 192.178V206.129C250.162 207.353 250.477 208.297 251.106 208.962C251.771 209.591 252.662 209.906 253.781 209.906ZM266.737 185.517H269.989L270.461 187.038L272.612 186.408C274.08 185.954 275.234 185.639 276.074 185.464C276.948 185.254 277.769 185.149 278.539 185.149C279.798 185.149 280.724 185.587 281.319 186.461C281.913 187.335 282.21 188.471 282.21 189.87V212.791H278.014V191.234C278.014 190.22 277.944 189.52 277.804 189.136C277.665 188.716 277.315 188.506 276.755 188.506C276.476 188.506 274.535 189.066 270.933 190.185V212.791H266.737V185.517ZM286.472 209.644H290.93C292.434 209.644 293.518 209.241 294.182 208.437C294.881 207.598 295.231 206.514 295.231 205.185C295.231 204.136 294.916 203.245 294.287 202.51C293.657 201.776 292.713 200.919 291.455 199.94C290.371 199.066 289.496 198.314 288.832 197.685C288.203 197.021 287.643 196.216 287.154 195.272C286.699 194.293 286.472 193.174 286.472 191.915C286.472 190.062 287.084 188.541 288.308 187.352C289.566 186.129 291.245 185.517 293.343 185.517H297.906V188.664H294.129C291.647 188.664 290.406 189.835 290.406 192.178C290.406 193.087 290.685 193.874 291.245 194.538C291.804 195.202 292.678 195.989 293.867 196.898C294.951 197.737 295.843 198.507 296.542 199.206C297.242 199.87 297.836 200.727 298.325 201.776C298.815 202.79 299.06 203.996 299.06 205.395C299.06 207.878 298.395 209.731 297.067 210.955C295.773 212.179 293.937 212.791 291.559 212.791H286.472V209.644ZM309.225 212.791C307.302 212.791 305.763 212.214 304.609 211.06C303.49 209.906 302.931 208.35 302.931 206.392V192.44C302.931 190.167 303.56 188.384 304.819 187.09C306.078 185.796 307.949 185.149 310.431 185.149C312.914 185.149 314.767 185.796 315.991 187.09C317.25 188.384 317.879 190.167 317.879 192.44V194.853C317.879 196.321 317.459 197.44 316.62 198.209C315.781 198.944 314.68 199.503 313.316 199.888L307.127 201.619V206.759C307.127 207.598 307.372 208.297 307.861 208.857C308.386 209.381 309.05 209.644 309.854 209.644H315.519V212.791H309.225ZM310.326 197.423C311.48 197.108 312.249 196.881 312.634 196.741C313.054 196.566 313.333 196.321 313.473 196.007C313.613 195.692 313.683 195.167 313.683 194.433V191.548C313.683 190.429 313.386 189.608 312.791 189.083C312.232 188.559 311.445 188.296 310.431 188.296C309.452 188.296 308.648 188.576 308.018 189.136C307.424 189.695 307.127 190.499 307.127 191.548V198.314L310.326 197.423ZM336.867 212.791C334.664 212.791 332.881 212.144 331.517 210.85C330.154 209.556 329.472 207.825 329.472 205.657V192.597C329.472 191.094 329.874 189.817 330.678 188.768C331.517 187.719 332.549 187.003 333.773 186.618L340.801 184.153V176.076H344.997V212.791H336.867ZM340.801 209.644V187.615L336.133 189.188C335.224 189.468 334.577 189.922 334.192 190.552C333.843 191.146 333.668 192.108 333.668 193.437V205.657C333.668 206.916 334.035 207.895 334.769 208.595C335.504 209.294 336.5 209.644 337.759 209.644H340.801ZM351.303 181.058V176.862H355.499V181.058H351.303ZM351.303 212.791V185.517H355.499V212.791H351.303ZM369.408 212.791C367.485 212.791 365.964 212.214 364.845 211.06C363.726 209.906 363.167 208.35 363.167 206.392V188.664H360.02V185.517H363.167V177.597L367.363 176.023V185.517H371.559V188.664H367.363V206.759C367.363 207.598 367.59 208.297 368.045 208.857C368.534 209.381 369.181 209.644 369.985 209.644H371.559V212.791H369.408ZM382.05 209.644H386.508C388.011 209.644 389.095 209.241 389.76 208.437C390.459 207.598 390.809 206.514 390.809 205.185C390.809 204.136 390.494 203.245 389.865 202.51C389.235 201.776 388.291 200.919 387.032 199.94C385.948 199.066 385.074 198.314 384.41 197.685C383.78 197.021 383.221 196.216 382.731 195.272C382.277 194.293 382.05 193.174 382.05 191.915C382.05 190.062 382.662 188.541 383.885 187.352C385.144 186.129 386.823 185.517 388.921 185.517H393.484V188.664H389.707C387.225 188.664 385.983 189.835 385.983 192.178C385.983 193.087 386.263 193.874 386.823 194.538C387.382 195.202 388.256 195.989 389.445 196.898C390.529 197.737 391.421 198.507 392.12 199.206C392.819 199.87 393.414 200.727 393.903 201.776C394.393 202.79 394.638 203.996 394.638 205.395C394.638 207.878 393.973 209.731 392.645 210.955C391.351 212.179 389.515 212.791 387.137 212.791H382.05V209.644ZM399.348 181.058V176.862H403.544V181.058H399.348ZM399.348 212.791V185.517H403.544V212.791H399.348ZM425.341 212.791C423.418 212.791 421.897 212.214 420.778 211.06C419.659 209.906 419.1 208.35 419.1 206.392V188.664H415.953V185.517H419.1V177.597L423.296 176.023V185.517H427.492V188.664H423.296V206.759C423.296 207.598 423.523 208.297 423.978 208.857C424.467 209.381 425.114 209.644 425.918 209.644H427.492V212.791H425.341ZM438.329 213.158C435.882 213.158 433.976 212.546 432.612 211.322C431.284 210.063 430.619 208.332 430.619 206.129V192.178C430.619 189.975 431.284 188.261 432.612 187.038C433.976 185.779 435.882 185.149 438.329 185.149C440.777 185.149 442.665 185.779 443.994 187.038C445.358 188.261 446.039 189.975 446.039 192.178V206.129C446.039 208.332 445.358 210.063 443.994 211.322C442.665 212.546 440.777 213.158 438.329 213.158ZM438.329 209.906C439.448 209.906 440.322 209.591 440.952 208.962C441.616 208.297 441.948 207.353 441.948 206.129V192.178C441.948 190.954 441.616 190.027 440.952 189.398C440.322 188.734 439.448 188.401 438.329 188.401C437.21 188.401 436.319 188.734 435.654 189.398C435.025 190.027 434.71 190.954 434.71 192.178V206.129C434.71 207.353 435.025 208.297 435.654 208.962C436.319 209.591 437.21 209.906 438.329 209.906ZM451.286 185.517H454.538L455.01 187.038L457.16 186.408C458.629 185.954 459.783 185.639 460.622 185.464C461.496 185.254 462.318 185.149 463.087 185.149C464.346 185.149 465.272 185.587 465.867 186.461C466.461 187.335 466.758 188.471 466.758 189.87V212.791H462.562V191.234C462.562 190.22 462.492 189.52 462.353 189.136C462.213 188.716 461.863 188.506 461.304 188.506C461.024 188.506 459.083 189.066 455.482 190.185V212.791H451.286V185.517ZM481.426 181.058V176.862H485.622V181.058H481.426ZM477.597 218.036H478.856C479.66 218.036 480.289 217.756 480.744 217.196C481.233 216.672 481.478 215.99 481.478 215.151V185.517H485.674V214.784C485.674 216.742 485.115 218.298 483.996 219.452C482.877 220.606 481.356 221.183 479.432 221.183H477.597V218.036ZM497.515 212.791C496.256 212.791 495.084 212.476 494 211.846C492.951 211.217 492.112 210.36 491.483 209.276C490.888 208.192 490.591 206.969 490.591 205.605V202.878C490.591 201.234 490.993 199.853 491.798 198.734C492.637 197.615 493.668 196.828 494.892 196.374L501.396 193.961V191.496C501.396 190.657 501.134 189.975 500.609 189.45C500.12 188.891 499.473 188.611 498.669 188.611H492.742V185.517H499.036C500.959 185.517 502.48 186.094 503.599 187.247C504.753 188.366 505.33 189.905 505.33 191.863V212.791H497.515ZM501.396 209.591V197.265L496.78 198.996C495.871 199.346 495.224 199.818 494.84 200.412C494.49 201.007 494.315 201.951 494.315 203.245V206.182C494.315 207.126 494.665 207.93 495.364 208.595C496.064 209.259 496.903 209.591 497.882 209.591H501.396ZM511.111 185.517H514.363L514.835 187.457L516.147 186.828C517.266 186.268 518.192 185.849 518.926 185.569C519.696 185.289 520.465 185.149 521.234 185.149V188.244C520.78 188.244 520.168 188.384 519.399 188.664C518.629 188.908 517.266 189.503 515.307 190.447V212.791H511.111V185.517ZM532.069 212.791C529.866 212.791 528.083 212.144 526.719 210.85C525.356 209.556 524.674 207.825 524.674 205.657V192.597C524.674 191.094 525.076 189.817 525.88 188.768C526.719 187.719 527.751 187.003 528.975 186.618L536.003 184.153V176.076H540.199V212.791H532.069ZM536.003 209.644V187.615L531.335 189.188C530.426 189.468 529.779 189.922 529.394 190.552C529.045 191.146 528.87 192.108 528.87 193.437V205.657C528.87 206.916 529.237 207.895 529.971 208.595C530.706 209.294 531.702 209.644 532.961 209.644H536.003ZM546.505 181.058V176.862H550.701V181.058H546.505ZM546.505 212.791V185.517H550.701V212.791H546.505ZM557.005 185.517H560.257L560.729 187.038L562.88 186.408C564.348 185.954 565.502 185.639 566.341 185.464C567.215 185.254 568.037 185.149 568.806 185.149C570.065 185.149 570.992 185.587 571.586 186.461C572.181 187.335 572.478 188.471 572.478 189.87V212.791H568.282V191.234C568.282 190.22 568.212 189.52 568.072 189.136C567.932 188.716 567.583 188.506 567.023 188.506C566.743 188.506 564.803 189.066 561.201 190.185V212.791H557.005V185.517ZM586.201 185.517H589.453L589.925 187.038L592.075 186.408C593.544 185.954 594.698 185.639 595.537 185.464C596.411 185.254 597.233 185.149 598.002 185.149C599.261 185.149 600.188 185.587 600.782 186.461C601.377 187.335 601.674 188.471 601.674 189.87V212.791H597.478V191.234C597.478 190.22 597.408 189.52 597.268 189.136C597.128 188.716 596.778 188.506 596.219 188.506C595.939 188.506 593.999 189.066 590.397 190.185V212.791H586.201V185.517ZM614.17 213.158C611.722 213.158 609.817 212.546 608.453 211.322C607.124 210.063 606.46 208.332 606.46 206.129V192.178C606.46 189.975 607.124 188.261 608.453 187.038C609.817 185.779 611.722 185.149 614.17 185.149C616.618 185.149 618.506 185.779 619.835 187.038C621.198 188.261 621.88 189.975 621.88 192.178V206.129C621.88 208.332 621.198 210.063 619.835 211.322C618.506 212.546 616.618 213.158 614.17 213.158ZM614.17 209.906C615.289 209.906 616.163 209.591 616.792 208.962C617.457 208.297 617.789 207.353 617.789 206.129V192.178C617.789 190.954 617.457 190.027 616.792 189.398C616.163 188.734 615.289 188.401 614.17 188.401C613.051 188.401 612.159 188.734 611.495 189.398C610.866 190.027 610.551 190.954 610.551 192.178V206.129C610.551 207.353 610.866 208.297 611.495 208.962C612.159 209.591 613.051 209.906 614.17 209.906ZM630.326 213.158C629.067 213.158 628.123 212.721 627.493 211.846C626.899 210.972 626.602 209.836 626.602 208.437V185.517H630.798V207.074C630.798 208.053 630.868 208.752 631.008 209.172C631.148 209.591 631.48 209.801 632.004 209.801C632.249 209.801 634.225 209.276 637.931 208.227V185.517H642.127V212.791H639.137L638.351 211.007C637.791 211.217 637.372 211.357 637.092 211.427C635.448 212.021 634.12 212.458 633.106 212.738C632.092 213.018 631.165 213.158 630.326 213.158ZM648.434 185.517H651.686L652.158 187.457L653.469 186.828C654.588 186.268 655.515 185.849 656.249 185.569C657.018 185.289 657.788 185.149 658.557 185.149V188.244C658.102 188.244 657.491 188.384 656.721 188.664C655.952 188.908 654.588 189.503 652.63 190.447V212.791H648.434V185.517ZM662.469 185.517H665.721L666.193 187.457L667.504 186.828C668.623 186.268 669.549 185.849 670.284 185.569C671.053 185.289 671.822 185.149 672.591 185.149V188.244C672.137 188.244 671.525 188.384 670.756 188.664C669.986 188.908 668.623 189.503 666.665 190.447V212.791H662.469V185.517ZM676.503 181.058V176.862H680.699V181.058H676.503ZM676.503 212.791V185.517H680.699V212.791H676.503ZM694.609 212.791C692.685 212.791 691.164 212.214 690.045 211.06C688.927 209.906 688.367 208.35 688.367 206.392V188.664H685.22V185.517H688.367V177.597L692.563 176.023V185.517H696.759V188.664H692.563V206.759C692.563 207.598 692.79 208.297 693.245 208.857C693.734 209.381 694.381 209.644 695.186 209.644H696.759V212.791H694.609ZM708.876 212.791V176.076H713.072V212.791H708.876ZM724.778 212.791C722.855 212.791 721.317 212.214 720.163 211.06C719.044 209.906 718.484 208.35 718.484 206.392V192.44C718.484 190.167 719.114 188.384 720.373 187.09C721.631 185.796 723.502 185.149 725.985 185.149C728.467 185.149 730.321 185.796 731.544 187.09C732.803 188.384 733.433 190.167 733.433 192.44V194.853C733.433 196.321 733.013 197.44 732.174 198.209C731.335 198.944 730.233 199.503 728.87 199.888L722.68 201.619V206.759C722.68 207.598 722.925 208.297 723.415 208.857C723.939 209.381 724.604 209.644 725.408 209.644H731.072V212.791H724.778ZM725.88 197.423C727.034 197.108 727.803 196.881 728.188 196.741C728.607 196.566 728.887 196.321 729.027 196.007C729.167 195.692 729.237 195.167 729.237 194.433V191.548C729.237 190.429 728.939 189.608 728.345 189.083C727.786 188.559 726.999 188.296 725.985 188.296C725.006 188.296 724.201 188.576 723.572 189.136C722.978 189.695 722.68 190.499 722.68 191.548V198.314L725.88 197.423ZM749.379 212.791L743.137 185.517H747.491L751.529 207.493L755.515 185.517H759.869L753.627 212.791H749.379ZM763.783 181.058V176.862H767.979V181.058H763.783ZM763.783 212.791V185.517H767.979V212.791H763.783ZM778.165 212.791L771.923 185.517H776.277L780.315 207.493L784.301 185.517H788.655L782.413 212.791H778.165ZM798.129 212.791C796.87 212.791 795.699 212.476 794.615 211.846C793.566 211.217 792.727 210.36 792.097 209.276C791.503 208.192 791.206 206.969 791.206 205.605V202.878C791.206 201.234 791.608 199.853 792.412 198.734C793.251 197.615 794.283 196.828 795.506 196.374L802.01 193.961V191.496C802.01 190.657 801.748 189.975 801.223 189.45C800.734 188.891 800.087 188.611 799.283 188.611H793.356V185.517H799.65C801.573 185.517 803.094 186.094 804.213 187.247C805.367 188.366 805.944 189.905 805.944 191.863V212.791H798.129ZM802.01 209.591V197.265L797.395 198.996C796.486 199.346 795.839 199.818 795.454 200.412C795.104 201.007 794.929 201.951 794.929 203.245V206.182C794.929 207.126 795.279 207.93 795.978 208.595C796.678 209.259 797.517 209.591 798.496 209.591H802.01ZM811.726 185.517H814.978L815.45 187.038L817.6 186.408C819.069 185.954 820.223 185.639 821.062 185.464C821.936 185.254 822.758 185.149 823.527 185.149C824.786 185.149 825.712 185.587 826.307 186.461C826.901 187.335 827.199 188.471 827.199 189.87V212.791H823.003V191.234C823.003 190.22 822.933 189.52 822.793 189.136C822.653 188.716 822.303 188.506 821.744 188.506C821.464 188.506 819.523 189.066 815.922 190.185V212.791H811.726V185.517ZM840.639 212.791C838.716 212.791 837.195 212.214 836.076 211.06C834.957 209.906 834.397 208.35 834.397 206.392V188.664H831.25V185.517H834.397V177.597L838.593 176.023V185.517H842.789V188.664H838.593V206.759C838.593 207.598 838.821 208.297 839.275 208.857C839.765 209.381 840.412 209.644 841.216 209.644H842.789V212.791H840.639ZM861.515 213.158C859.067 213.158 857.161 212.546 855.798 211.322C854.469 210.063 853.805 208.332 853.805 206.129V192.178C853.805 189.975 854.469 188.261 855.798 187.038C857.161 185.779 859.067 185.149 861.515 185.149C863.962 185.149 865.851 185.779 867.179 187.038C868.543 188.261 869.225 189.975 869.225 192.178V206.129C869.225 208.332 868.543 210.063 867.179 211.322C865.851 212.546 863.962 213.158 861.515 213.158ZM861.515 209.906C862.634 209.906 863.508 209.591 864.137 208.962C864.802 208.297 865.134 207.353 865.134 206.129V192.178C865.134 190.954 864.802 190.027 864.137 189.398C863.508 188.734 862.634 188.401 861.515 188.401C860.396 188.401 859.504 188.734 858.84 189.398C858.21 190.027 857.896 190.954 857.896 192.178V206.129C857.896 207.353 858.21 208.297 858.84 208.962C859.504 209.591 860.396 209.906 861.515 209.906ZM877.671 213.158C876.412 213.158 875.468 212.721 874.838 211.846C874.244 210.972 873.947 209.836 873.947 208.437V185.517H878.143V207.074C878.143 208.053 878.213 208.752 878.352 209.172C878.492 209.591 878.825 209.801 879.349 209.801C879.594 209.801 881.569 209.276 885.276 208.227V185.517H889.472V212.791H886.482L885.695 211.007C885.136 211.217 884.716 211.357 884.437 211.427C882.793 212.021 881.464 212.458 880.45 212.738C879.436 213.018 878.51 213.158 877.671 213.158ZM903.719 212.791V176.076H907.915V212.791H903.719ZM919.622 212.791C917.699 212.791 916.16 212.214 915.006 211.06C913.887 209.906 913.328 208.35 913.328 206.392V192.44C913.328 190.167 913.957 188.384 915.216 187.09C916.475 185.796 918.346 185.149 920.828 185.149C923.311 185.149 925.164 185.796 926.388 187.09C927.647 188.384 928.276 190.167 928.276 192.44V194.853C928.276 196.321 927.857 197.44 927.017 198.209C926.178 198.944 925.077 199.503 923.713 199.888L917.524 201.619V206.759C917.524 207.598 917.769 208.297 918.258 208.857C918.783 209.381 919.447 209.644 920.251 209.644H925.916V212.791H919.622ZM920.723 197.423C921.877 197.108 922.647 196.881 923.031 196.741C923.451 196.566 923.731 196.321 923.87 196.007C924.01 195.692 924.08 195.167 924.08 194.433V191.548C924.08 190.429 923.783 189.608 923.189 189.083C922.629 188.559 921.842 188.296 920.828 188.296C919.849 188.296 919.045 188.576 918.416 189.136C917.821 189.695 917.524 190.499 917.524 191.548V198.314L920.723 197.423ZM940.393 212.791V176.076H944.589V212.791H940.393ZM956.401 212.791C955.142 212.791 953.971 212.476 952.887 211.846C951.838 211.217 950.999 210.36 950.369 209.276C949.775 208.192 949.478 206.969 949.478 205.605V202.878C949.478 201.234 949.88 199.853 950.684 198.734C951.523 197.615 952.555 196.828 953.778 196.374L960.282 193.961V191.496C960.282 190.657 960.02 189.975 959.495 189.45C959.006 188.891 958.359 188.611 957.555 188.611H951.628V185.517H957.922C959.845 185.517 961.366 186.094 962.485 187.247C963.639 188.366 964.216 189.905 964.216 191.863V212.791H956.401ZM960.282 209.591V197.265L955.667 198.996C954.757 199.346 954.111 199.818 953.726 200.412C953.376 201.007 953.201 201.951 953.201 203.245V206.182C953.201 207.126 953.551 207.93 954.25 208.595C954.95 209.259 955.789 209.591 956.768 209.591H960.282ZM969.998 181.058V176.862H974.194V181.058H969.998ZM969.998 212.791V185.517H974.194V212.791H969.998ZM978.925 209.644H983.383C984.886 209.644 985.97 209.241 986.635 208.437C987.334 207.598 987.684 206.514 987.684 205.185C987.684 204.136 987.369 203.245 986.74 202.51C986.11 201.776 985.166 200.919 983.907 199.94C982.823 199.066 981.949 198.314 981.285 197.685C980.655 197.021 980.096 196.216 979.606 195.272C979.152 194.293 978.925 193.174 978.925 191.915C978.925 190.062 979.536 188.541 980.76 187.352C982.019 186.129 983.697 185.517 985.795 185.517H990.359V188.664H986.582C984.1 188.664 982.858 189.835 982.858 192.178C982.858 193.087 983.138 193.874 983.697 194.538C984.257 195.202 985.131 195.989 986.32 196.898C987.404 197.737 988.296 198.507 988.995 199.206C989.694 199.87 990.289 200.727 990.778 201.776C991.268 202.79 991.513 203.996 991.513 205.395C991.513 207.878 990.848 209.731 989.519 210.955C988.226 212.179 986.39 212.791 984.012 212.791H978.925V209.644ZM994.649 209.644H999.107C1000.61 209.644 1001.7 209.241 1002.36 208.437C1003.06 207.598 1003.41 206.514 1003.41 205.185C1003.41 204.136 1003.09 203.245 1002.46 202.51C1001.83 201.776 1000.89 200.919 999.632 199.94C998.548 199.066 997.674 198.314 997.009 197.685C996.38 197.021 995.821 196.216 995.331 195.272C994.877 194.293 994.649 193.174 994.649 191.915C994.649 190.062 995.261 188.541 996.485 187.352C997.744 186.129 999.422 185.517 1001.52 185.517H1006.08V188.664H1002.31C999.824 188.664 998.583 189.835 998.583 192.178C998.583 193.087 998.863 193.874 999.422 194.538C999.982 195.202 1000.86 195.989 1002.04 196.898C1003.13 197.737 1004.02 198.507 1004.72 199.206C1005.42 199.87 1006.01 200.727 1006.5 201.776C1006.99 202.79 1007.24 203.996 1007.24 205.395C1007.24 207.878 1006.57 209.731 1005.24 210.955C1003.95 212.179 1002.11 212.791 999.737 212.791H994.649V209.644ZM1017.4 212.791C1015.48 212.791 1013.94 212.214 1012.79 211.06C1011.67 209.906 1011.11 208.35 1011.11 206.392V192.44C1011.11 190.167 1011.74 188.384 1013 187.09C1014.26 185.796 1016.13 185.149 1018.61 185.149C1021.09 185.149 1022.94 185.796 1024.17 187.09C1025.43 188.384 1026.06 190.167 1026.06 192.44V194.853C1026.06 196.321 1025.64 197.44 1024.8 198.209C1023.96 198.944 1022.86 199.503 1021.49 199.888L1015.3 201.619V206.759C1015.3 207.598 1015.55 208.297 1016.04 208.857C1016.56 209.381 1017.23 209.644 1018.03 209.644H1023.7V212.791H1017.4ZM1018.5 197.423C1019.66 197.108 1020.43 196.881 1020.81 196.741C1021.23 196.566 1021.51 196.321 1021.65 196.007C1021.79 195.692 1021.86 195.167 1021.86 194.433V191.548C1021.86 190.429 1021.56 189.608 1020.97 189.083C1020.41 188.559 1019.62 188.296 1018.61 188.296C1017.63 188.296 1016.83 188.576 1016.2 189.136C1015.6 189.695 1015.3 190.499 1015.3 191.548V198.314L1018.5 197.423ZM1043.89 212.791C1041.97 212.791 1040.43 212.214 1039.28 211.06C1038.16 209.906 1037.6 208.35 1037.6 206.392V192.44C1037.6 190.237 1038.17 188.541 1039.33 187.352C1040.48 186.129 1042.16 185.517 1044.36 185.517H1050.18V188.664H1044.47C1043.66 188.664 1043.02 188.943 1042.53 189.503C1042.04 190.027 1041.79 190.709 1041.79 191.548V206.759C1041.79 207.598 1042.04 208.297 1042.53 208.857C1043.05 209.381 1043.72 209.644 1044.52 209.644H1050.18V212.791H1043.89ZM1053.85 185.517H1057.1L1057.57 187.457L1058.88 186.828C1060 186.268 1060.93 185.849 1061.66 185.569C1062.43 185.289 1063.2 185.149 1063.97 185.149V188.244C1063.51 188.244 1062.9 188.384 1062.13 188.664C1061.36 188.908 1060 189.503 1058.04 190.447V212.791H1053.85V185.517ZM1073.34 212.791C1071.41 212.791 1069.87 212.214 1068.72 211.06C1067.6 209.906 1067.04 208.35 1067.04 206.392V192.44C1067.04 190.167 1067.67 188.384 1068.93 187.09C1070.19 185.796 1072.06 185.149 1074.54 185.149C1077.02 185.149 1078.88 185.796 1080.1 187.09C1081.36 188.384 1081.99 190.167 1081.99 192.44V194.853C1081.99 196.321 1081.57 197.44 1080.73 198.209C1079.89 198.944 1078.79 199.503 1077.43 199.888L1071.24 201.619V206.759C1071.24 207.598 1071.48 208.297 1071.97 208.857C1072.5 209.381 1073.16 209.644 1073.96 209.644H1079.63V212.791H1073.34ZM1074.44 197.423C1075.59 197.108 1076.36 196.881 1076.74 196.741C1077.16 196.566 1077.44 196.321 1077.58 196.007C1077.72 195.692 1077.79 195.167 1077.79 194.433V191.548C1077.79 190.429 1077.5 189.608 1076.9 189.083C1076.34 188.559 1075.56 188.296 1074.54 188.296C1073.56 188.296 1072.76 188.576 1072.13 189.136C1071.53 189.695 1071.24 190.499 1071.24 191.548V198.314L1074.44 197.423ZM1090.05 212.791L1083.81 185.517H1088.16L1092.2 207.493L1096.18 185.517H1100.54L1094.3 212.791H1090.05ZM1109.91 212.791C1107.98 212.791 1106.45 212.214 1105.29 211.06C1104.17 209.906 1103.61 208.35 1103.61 206.392V192.44C1103.61 190.167 1104.24 188.384 1105.5 187.09C1106.76 185.796 1108.63 185.149 1111.11 185.149C1113.6 185.149 1115.45 185.796 1116.67 187.09C1117.93 188.384 1118.56 190.167 1118.56 192.44V194.853C1118.56 196.321 1118.14 197.44 1117.3 198.209C1116.46 198.944 1115.36 199.503 1114 199.888L1107.81 201.619V206.759C1107.81 207.598 1108.05 208.297 1108.54 208.857C1109.07 209.381 1109.73 209.644 1110.54 209.644H1116.2V212.791H1109.91ZM1111.01 197.423C1112.16 197.108 1112.93 196.881 1113.32 196.741C1113.74 196.566 1114.02 196.321 1114.16 196.007C1114.3 195.692 1114.37 195.167 1114.37 194.433V191.548C1114.37 190.429 1114.07 189.608 1113.47 189.083C1112.91 188.559 1112.13 188.296 1111.11 188.296C1110.13 188.296 1109.33 188.576 1108.7 189.136C1108.11 189.695 1107.81 190.499 1107.81 191.548V198.314L1111.01 197.423ZM1122.74 185.517H1125.99L1126.46 187.457L1127.77 186.828C1128.89 186.268 1129.82 185.849 1130.55 185.569C1131.32 185.289 1132.09 185.149 1132.86 185.149V188.244C1132.41 188.244 1131.79 188.384 1131.02 188.664C1130.26 188.908 1128.89 189.503 1126.93 190.447V212.791H1122.74V185.517Z" fill="#1E1E1E"/>
<rect width="448.945" height="88.9178" fill="black"/>
<path d="M175.395 67.0047C174.991 67.0047 174.789 66.8028 174.789 66.3991V62.547C174.789 62.2401 174.87 61.9979 175.031 61.8202L178.617 58.2347C178.811 58.057 178.907 57.7986 178.907 57.4594V31.2703C178.907 30.8665 179.109 30.6646 179.513 30.6646H186.369C186.773 30.6646 186.975 30.8665 186.975 31.2703V60.8511C186.975 60.9965 186.959 61.1338 186.926 61.263C186.91 61.376 186.838 61.4972 186.708 61.6264L181.694 66.6413C181.451 66.8836 181.209 67.0047 180.967 67.0047H175.395ZM193.204 62.9589C192.8 62.9589 192.598 62.757 192.598 62.3532V39.895C192.598 39.6851 192.679 39.4428 192.84 39.1682L198.582 31.028C198.76 30.7858 199.018 30.6646 199.357 30.6646H207.376C207.732 30.6646 207.99 30.7858 208.152 31.028L213.918 39.1682C214.079 39.3943 214.16 39.6366 214.16 39.895V62.3532C214.16 62.757 213.958 62.9589 213.554 62.9589H206.698C206.294 62.9589 206.092 62.757 206.092 62.3532V52.0568H200.69V62.3532C200.69 62.757 200.488 62.9589 200.084 62.9589H193.204ZM203.379 46.8481C204.865 46.8481 205.866 46.5251 206.383 45.879C206.916 45.2168 207.183 43.9651 207.183 42.1239C207.183 40.2826 206.916 39.039 206.383 38.393C205.866 37.7308 204.865 37.3997 203.379 37.3997C201.909 37.3997 200.908 37.7308 200.375 38.393C199.858 39.039 199.6 40.2826 199.6 42.1239C199.6 43.9651 199.858 45.2168 200.375 45.879C200.908 46.5251 201.909 46.8481 203.379 46.8481ZM220.439 62.9589C220.035 62.9589 219.834 62.757 219.834 62.3532V31.2703C219.834 30.8665 220.035 30.6646 220.439 30.6646H233.57C233.958 30.6646 234.281 30.7696 234.539 30.9796L240.111 36.5033C240.289 36.6648 240.394 36.8021 240.426 36.9151C240.475 37.0282 240.499 37.2139 240.499 37.4723V44.1105C240.499 44.3204 240.418 44.5062 240.257 44.6677L237.592 47.2599L235.339 49.1981L238.004 52.7352L240.741 58.5981C240.806 58.7434 240.854 58.8888 240.887 59.0341C240.935 59.1633 240.959 59.3249 240.959 59.5187V62.3532C240.959 62.757 240.757 62.9589 240.354 62.9589H233.958C233.602 62.9589 233.36 62.7974 233.231 62.4743L229.33 51.1362H227.513V62.3532C227.513 62.757 227.312 62.9589 226.908 62.9589H220.439ZM230.178 45.2007C231.519 45.2007 232.431 44.9261 232.916 44.377C233.401 43.8117 233.643 42.7619 233.643 41.2275C233.643 39.677 233.401 38.6272 232.916 38.078C232.431 37.5127 231.519 37.2301 230.178 37.2301C228.854 37.2301 227.941 37.5127 227.441 38.078C226.94 38.6272 226.69 39.677 226.69 41.2275C226.69 42.7619 226.94 43.8117 227.441 44.377C227.941 44.9261 228.854 45.2007 230.178 45.2007ZM245.253 62.9589C244.85 62.9589 244.648 62.757 244.648 62.3532V31.2703C244.648 30.8665 244.85 30.6646 245.253 30.6646H260.032C260.419 30.6646 260.742 30.7938 261.001 31.0523L265.846 35.8976C266.121 36.1722 266.258 36.4952 266.258 36.8667V56.7326C266.258 57.1202 266.121 57.4432 265.846 57.7017L261.001 62.547C260.742 62.8216 260.419 62.9589 260.032 62.9589H245.253ZM252.74 56.4903H257.173C257.851 56.4903 258.191 56.0381 258.191 55.1336V38.4899C258.191 37.5693 257.851 37.1089 257.173 37.1089H252.74V56.4903ZM272.489 62.9589C272.085 62.9589 271.883 62.757 271.883 62.3532V31.2703C271.883 30.8665 272.085 30.6646 272.489 30.6646H279.345C279.749 30.6646 279.951 30.8665 279.951 31.2703V62.3532C279.951 62.757 279.749 62.9589 279.345 62.9589H272.489ZM286.353 62.9589C285.949 62.9589 285.747 62.757 285.747 62.3532V31.2703C285.747 30.8665 285.949 30.6646 286.353 30.6646H300.114C300.501 30.6646 300.824 30.7938 301.083 31.0523L305.928 35.8976C306.203 36.1722 306.34 36.4952 306.34 36.8667V62.3532C306.34 62.757 306.138 62.9589 305.734 62.9589H298.878C298.474 62.9589 298.273 62.757 298.273 62.3532V37.1089H293.815V62.3532C293.815 62.757 293.613 62.9589 293.209 62.9589H286.353ZM312.756 62.9589C312.353 62.9589 312.151 62.757 312.151 62.3532V31.2703C312.151 30.8665 312.353 30.6646 312.756 30.6646H319.612C320.016 30.6646 320.218 30.8665 320.218 31.2703V62.3532C320.218 62.757 320.016 62.9589 319.612 62.9589H312.756ZM326.62 62.9589C326.217 62.9589 326.015 62.757 326.015 62.3532V31.2703C326.015 30.8665 326.217 30.6646 326.62 30.6646H343.506C343.91 30.6646 344.112 30.8665 344.112 31.2703V36.5033C344.112 36.9071 343.91 37.1089 343.506 37.1089H334.082V43.9893H342.683C343.087 43.9893 343.288 44.1912 343.288 44.595V49.0285C343.288 49.4323 343.087 49.6342 342.683 49.6342H334.082V56.4903H343.506C343.91 56.4903 344.112 56.6922 344.112 57.096V62.3532C344.112 62.757 343.91 62.9589 343.506 62.9589H326.62ZM350.516 62.9589C350.112 62.9589 349.91 62.757 349.91 62.3532V31.2703C349.91 30.8665 350.112 30.6646 350.516 30.6646H363.647C364.034 30.6646 364.357 30.7696 364.616 30.9796L370.188 36.5033C370.366 36.6648 370.471 36.8021 370.503 36.9151C370.551 37.0282 370.576 37.2139 370.576 37.4723V44.1105C370.576 44.3204 370.495 44.5062 370.333 44.6677L367.668 47.2599L365.415 49.1981L368.08 52.7352L370.818 58.5981C370.883 58.7434 370.931 58.8888 370.963 59.0341C371.012 59.1633 371.036 59.3249 371.036 59.5187V62.3532C371.036 62.757 370.834 62.9589 370.43 62.9589H364.034C363.679 62.9589 363.437 62.7974 363.308 62.4743L359.407 51.1362H357.59V62.3532C357.59 62.757 357.388 62.9589 356.984 62.9589H350.516ZM360.255 45.2007C361.596 45.2007 362.508 44.9261 362.993 44.377C363.477 43.8117 363.719 42.7619 363.719 41.2275C363.719 39.677 363.477 38.6272 362.993 38.078C362.508 37.5127 361.596 37.2301 360.255 37.2301C358.931 37.2301 358.018 37.5127 357.517 38.078C357.017 38.6272 356.766 39.677 356.766 41.2275C356.766 42.7619 357.017 43.8117 357.517 44.377C358.018 44.9261 358.931 45.2007 360.255 45.2007Z" fill="#FFF1E9"/>
</svg>
