<svg width="1240" height="279" viewBox="0 0 1240 279" fill="none" xmlns="http://www.w3.org/2000/svg">
<rect x="80.8185" y="40.7006" width="1154.82" height="233.662" fill="#FFF1E9" stroke="black" stroke-width="7.51635"/>
<path d="M225.522 149.674L233.809 112.959H240.785L248.757 149.674H244.456L241.886 138.869H232.34L229.98 149.674H225.522ZM233.127 135.303H241.099L237.323 116.421H236.956L233.127 135.303ZM253.026 149.674V112.959H257.222V149.674H253.026ZM270.135 150.041C267.688 150.041 265.782 149.429 264.418 148.205C263.09 146.947 262.425 145.216 262.425 143.013V129.061C262.425 126.858 263.09 125.145 264.418 123.921C265.782 122.662 267.688 122.033 270.135 122.033C272.583 122.033 274.471 122.662 275.8 123.921C277.164 125.145 277.845 126.858 277.845 129.061V143.013C277.845 145.216 277.164 146.947 275.8 148.205C274.471 149.429 272.583 150.041 270.135 150.041ZM270.135 146.789C271.254 146.789 272.128 146.475 272.758 145.845C273.422 145.181 273.754 144.237 273.754 143.013V129.061C273.754 127.837 273.422 126.911 272.758 126.281C272.128 125.617 271.254 125.285 270.135 125.285C269.016 125.285 268.125 125.617 267.46 126.281C266.831 126.911 266.516 127.837 266.516 129.061V143.013C266.516 144.237 266.831 145.181 267.46 145.845C268.125 146.475 269.016 146.789 270.135 146.789ZM283.092 122.4H286.344L286.816 124.341L288.127 123.711C289.246 123.152 290.172 122.732 290.907 122.453C291.676 122.173 292.445 122.033 293.215 122.033V125.127C292.76 125.127 292.148 125.267 291.379 125.547C290.61 125.792 289.246 126.386 287.288 127.33V149.674H283.092V122.4ZM295.553 146.527H300.011C301.514 146.527 302.598 146.125 303.263 145.321C303.962 144.482 304.312 143.398 304.312 142.069C304.312 141.02 303.997 140.128 303.368 139.394C302.738 138.66 301.794 137.803 300.535 136.824C299.451 135.95 298.577 135.198 297.913 134.568C297.283 133.904 296.724 133.1 296.234 132.156C295.78 131.177 295.553 130.058 295.553 128.799C295.553 126.946 296.165 125.425 297.388 124.236C298.647 123.012 300.326 122.4 302.424 122.4H306.987V125.547H303.21C300.728 125.547 299.486 126.718 299.486 129.061C299.486 129.97 299.766 130.757 300.326 131.421C300.885 132.086 301.759 132.873 302.948 133.782C304.032 134.621 304.924 135.39 305.623 136.09C306.322 136.754 306.917 137.611 307.406 138.66C307.896 139.674 308.141 140.88 308.141 142.279C308.141 144.761 307.476 146.614 306.148 147.838C304.854 149.062 303.018 149.674 300.64 149.674H295.553V146.527ZM320.739 122.4H323.991L324.463 124.341L325.774 123.711C326.893 123.152 327.82 122.732 328.554 122.453C329.323 122.173 330.092 122.033 330.862 122.033V125.127C330.407 125.127 329.795 125.267 329.026 125.547C328.257 125.792 326.893 126.386 324.935 127.33V149.674H320.739V122.4ZM340.543 120.355L338.812 118.781L344.896 113.588L347.571 116.054L340.543 120.355ZM340.228 149.674C338.305 149.674 336.766 149.097 335.613 147.943C334.494 146.789 333.934 145.233 333.934 143.275V129.323C333.934 127.051 334.564 125.267 335.822 123.974C337.081 122.68 338.952 122.033 341.435 122.033C343.917 122.033 345.77 122.68 346.994 123.974C348.253 125.267 348.882 127.051 348.882 129.323V131.736C348.882 133.205 348.463 134.324 347.624 135.093C346.784 135.827 345.683 136.387 344.319 136.771L338.13 138.502V143.642C338.13 144.482 338.375 145.181 338.864 145.74C339.389 146.265 340.053 146.527 340.858 146.527H346.522V149.674H340.228ZM341.33 134.306C342.484 133.992 343.253 133.764 343.637 133.624C344.057 133.45 344.337 133.205 344.477 132.89C344.616 132.575 344.686 132.051 344.686 131.317V128.432C344.686 127.313 344.389 126.491 343.795 125.967C343.235 125.442 342.449 125.18 341.435 125.18C340.455 125.18 339.651 125.46 339.022 126.019C338.427 126.579 338.13 127.383 338.13 128.432V135.198L341.33 134.306ZM353.059 122.4H361.556C363.479 122.4 365.105 123.029 366.434 124.288C367.798 125.547 368.479 127.121 368.479 129.009V143.118C368.479 145.006 367.815 146.58 366.486 147.838C365.158 149.062 363.532 149.674 361.609 149.674H357.255V158.066H353.059V122.4ZM360.717 146.58C361.696 146.58 362.535 146.247 363.234 145.583C363.934 144.919 364.283 144.097 364.283 143.118V129.009C364.283 128.03 363.934 127.208 363.234 126.544C362.535 125.879 361.696 125.547 360.717 125.547H357.255V146.58H360.717ZM380.106 150.041C377.658 150.041 375.753 149.429 374.389 148.205C373.06 146.947 372.396 145.216 372.396 143.013V129.061C372.396 126.858 373.06 125.145 374.389 123.921C375.753 122.662 377.658 122.033 380.106 122.033C382.554 122.033 384.442 122.662 385.771 123.921C387.134 125.145 387.816 126.858 387.816 129.061V143.013C387.816 145.216 387.134 146.947 385.771 148.205C384.442 149.429 382.554 150.041 380.106 150.041ZM380.106 146.789C381.225 146.789 382.099 146.475 382.729 145.845C383.393 145.181 383.725 144.237 383.725 143.013V129.061C383.725 127.837 383.393 126.911 382.729 126.281C382.099 125.617 381.225 125.285 380.106 125.285C378.987 125.285 378.096 125.617 377.431 126.281C376.802 126.911 376.487 127.837 376.487 129.061V143.013C376.487 144.237 376.802 145.181 377.431 145.845C378.096 146.475 378.987 146.789 380.106 146.789ZM393.063 122.4H396.314L396.786 123.921L398.937 123.292C400.406 122.837 401.559 122.522 402.399 122.348C403.273 122.138 404.095 122.033 404.864 122.033C406.123 122.033 407.049 122.47 407.644 123.344C408.238 124.218 408.535 125.355 408.535 126.753V149.674H404.339V128.117C404.339 127.103 404.269 126.404 404.129 126.019C403.99 125.6 403.64 125.39 403.08 125.39C402.801 125.39 400.86 125.949 397.259 127.068V149.674H393.063V122.4ZM421.294 149.674C419.091 149.674 417.308 149.027 415.944 147.733C414.58 146.44 413.898 144.709 413.898 142.541V129.481C413.898 127.977 414.3 126.701 415.105 125.652C415.944 124.603 416.975 123.886 418.199 123.502L425.227 121.036V112.959H429.423V149.674H421.294ZM425.227 146.527V124.498L420.559 126.072C419.65 126.351 419.003 126.806 418.619 127.435C418.269 128.03 418.094 128.991 418.094 130.32V142.541C418.094 143.8 418.461 144.779 419.196 145.478C419.93 146.177 420.927 146.527 422.185 146.527H425.227ZM442.044 146.527H446.502C448.006 146.527 449.09 146.125 449.754 145.321C450.453 144.482 450.803 143.398 450.803 142.069C450.803 141.02 450.488 140.128 449.859 139.394C449.23 138.66 448.285 137.803 447.027 136.824C445.943 135.95 445.068 135.198 444.404 134.568C443.775 133.904 443.215 133.1 442.726 132.156C442.271 131.177 442.044 130.058 442.044 128.799C442.044 126.946 442.656 125.425 443.88 124.236C445.138 123.012 446.817 122.4 448.915 122.4H453.478V125.547H449.702C447.219 125.547 445.978 126.718 445.978 129.061C445.978 129.97 446.257 130.757 446.817 131.421C447.376 132.086 448.25 132.873 449.439 133.782C450.523 134.621 451.415 135.39 452.114 136.09C452.814 136.754 453.408 137.611 453.898 138.66C454.387 139.674 454.632 140.88 454.632 142.279C454.632 144.761 453.968 146.614 452.639 147.838C451.345 149.062 449.509 149.674 447.132 149.674H442.044V146.527ZM464.902 149.674C463.643 149.674 462.472 149.359 461.388 148.73C460.339 148.101 459.499 147.244 458.87 146.16C458.276 145.076 457.978 143.852 457.978 142.488V139.761C457.978 138.118 458.381 136.736 459.185 135.617C460.024 134.499 461.055 133.712 462.279 133.257L468.783 130.845V128.379C468.783 127.54 468.521 126.858 467.996 126.334C467.507 125.774 466.86 125.495 466.056 125.495H460.129V122.4H466.423C468.346 122.4 469.867 122.977 470.986 124.131C472.14 125.25 472.717 126.788 472.717 128.747V149.674H464.902ZM468.783 146.475V134.149L464.168 135.88C463.258 136.229 462.611 136.701 462.227 137.296C461.877 137.89 461.702 138.834 461.702 140.128V143.065C461.702 144.009 462.052 144.814 462.751 145.478C463.451 146.142 464.29 146.475 465.269 146.475H468.783ZM478.499 122.4H481.751L482.223 123.921L484.373 123.292C485.842 122.837 486.996 122.522 487.835 122.348C488.709 122.138 489.531 122.033 490.3 122.033C491.559 122.033 492.485 122.47 493.08 123.344C493.674 124.218 493.971 125.355 493.971 126.753V149.674H489.775V128.117C489.775 127.103 489.705 126.404 489.566 126.019C489.426 125.6 489.076 125.39 488.517 125.39C488.237 125.39 486.296 125.949 482.695 127.068V149.674H478.499V122.4ZM498.233 146.527H502.691C504.195 146.527 505.279 146.125 505.943 145.321C506.642 144.482 506.992 143.398 506.992 142.069C506.992 141.02 506.677 140.128 506.048 139.394C505.419 138.66 504.475 137.803 503.216 136.824C502.132 135.95 501.258 135.198 500.593 134.568C499.964 133.904 499.404 133.1 498.915 132.156C498.46 131.177 498.233 130.058 498.233 128.799C498.233 126.946 498.845 125.425 500.069 124.236C501.328 123.012 503.006 122.4 505.104 122.4H509.667V125.547H505.891C503.408 125.547 502.167 126.718 502.167 129.061C502.167 129.97 502.446 130.757 503.006 131.421C503.565 132.086 504.44 132.873 505.628 133.782C506.712 134.621 507.604 135.39 508.303 136.09C509.003 136.754 509.597 137.611 510.087 138.66C510.576 139.674 510.821 140.88 510.821 142.279C510.821 144.761 510.157 146.614 508.828 147.838C507.534 149.062 505.698 149.674 503.321 149.674H498.233V146.527ZM531.024 149.674C529.101 149.674 527.58 149.097 526.461 147.943C525.342 146.789 524.783 145.233 524.783 143.275V125.547H521.636V122.4H524.783V114.48L528.979 112.907V122.4H533.175V125.547H528.979V143.642C528.979 144.482 529.206 145.181 529.661 145.74C530.15 146.265 530.797 146.527 531.601 146.527H533.175V149.674H531.024ZM537.351 122.4H540.603L541.075 124.341L542.386 123.711C543.505 123.152 544.432 122.732 545.166 122.453C545.936 122.173 546.705 122.033 547.474 122.033V125.127C547.02 125.127 546.408 125.267 545.638 125.547C544.869 125.792 543.505 126.386 541.547 127.33V149.674H537.351V122.4ZM551.386 117.942V113.746H555.582V117.942H551.386ZM551.386 149.674V122.4H555.582V149.674H551.386ZM567.655 149.674C565.732 149.674 564.194 149.097 563.04 147.943C561.921 146.789 561.361 145.233 561.361 143.275V129.323C561.361 127.121 561.938 125.425 563.092 124.236C564.246 123.012 565.925 122.4 568.128 122.4H573.949V125.547H568.232C567.428 125.547 566.781 125.827 566.292 126.386C565.802 126.911 565.557 127.593 565.557 128.432V143.642C565.557 144.482 565.802 145.181 566.292 145.74C566.816 146.265 567.481 146.527 568.285 146.527H573.949V149.674H567.655ZM577.611 112.959H581.807V123.816L584.115 123.134C585.548 122.715 586.597 122.435 587.262 122.295C587.961 122.12 588.678 122.033 589.412 122.033C590.671 122.033 591.597 122.47 592.192 123.344C592.786 124.218 593.083 125.355 593.083 126.753V149.674H588.887V128.117C588.887 127.103 588.818 126.404 588.678 126.019C588.538 125.6 588.188 125.39 587.629 125.39C587.349 125.39 585.408 125.949 581.807 127.068V149.674H577.611V112.959ZM604.886 149.674C602.962 149.674 601.424 149.097 600.27 147.943C599.151 146.789 598.592 145.233 598.592 143.275V129.323C598.592 127.051 599.221 125.267 600.48 123.974C601.739 122.68 603.609 122.033 606.092 122.033C608.575 122.033 610.428 122.68 611.652 123.974C612.91 125.267 613.54 127.051 613.54 129.323V131.736C613.54 133.205 613.12 134.324 612.281 135.093C611.442 135.827 610.34 136.387 608.977 136.771L602.788 138.502V143.642C602.788 144.482 603.032 145.181 603.522 145.74C604.046 146.265 604.711 146.527 605.515 146.527H611.18V149.674H604.886ZM605.987 134.306C607.141 133.992 607.91 133.764 608.295 133.624C608.714 133.45 608.994 133.205 609.134 132.89C609.274 132.575 609.344 132.051 609.344 131.317V128.432C609.344 127.313 609.047 126.491 608.452 125.967C607.893 125.442 607.106 125.18 606.092 125.18C605.113 125.18 604.309 125.46 603.679 126.019C603.085 126.579 602.788 127.383 602.788 128.432V135.198L605.987 134.306ZM617.717 122.4H620.968L621.441 124.341L622.752 123.711C623.871 123.152 624.797 122.732 625.532 122.453C626.301 122.173 627.07 122.033 627.839 122.033V125.127C627.385 125.127 626.773 125.267 626.004 125.547C625.234 125.792 623.871 126.386 621.913 127.33V149.674H617.717V122.4ZM628.552 156.125L630.807 149.674V144.272H635.003V149.622L631.803 156.125H628.552ZM652.572 149.674C650.649 149.674 649.11 149.097 647.956 147.943C646.837 146.789 646.278 145.233 646.278 143.275V129.323C646.278 127.051 646.907 125.267 648.166 123.974C649.425 122.68 651.296 122.033 653.778 122.033C656.261 122.033 658.114 122.68 659.338 123.974C660.597 125.267 661.226 127.051 661.226 129.323V131.736C661.226 133.205 660.807 134.324 659.967 135.093C659.128 135.827 658.027 136.387 656.663 136.771L650.474 138.502V143.642C650.474 144.482 650.719 145.181 651.208 145.74C651.733 146.265 652.397 146.527 653.201 146.527H658.866V149.674H652.572ZM653.673 134.306C654.827 133.992 655.597 133.764 655.981 133.624C656.401 133.45 656.681 133.205 656.82 132.89C656.96 132.575 657.03 132.051 657.03 131.317V128.432C657.03 127.313 656.733 126.491 656.139 125.967C655.579 125.442 654.792 125.18 653.778 125.18C652.799 125.18 651.995 125.46 651.366 126.019C650.771 126.579 650.474 127.383 650.474 128.432V135.198L653.673 134.306ZM673.008 149.674C671.085 149.674 669.564 149.097 668.445 147.943C667.326 146.789 666.767 145.233 666.767 143.275V125.547H663.62V122.4H666.767V114.48L670.963 112.907V122.4H675.159V125.547H670.963V143.642C670.963 144.482 671.19 145.181 671.645 145.74C672.134 146.265 672.781 146.527 673.585 146.527H675.159V149.674H673.008ZM687.223 122.4H695.72C697.643 122.4 699.269 123.029 700.598 124.288C701.961 125.547 702.643 127.121 702.643 129.009V143.118C702.643 145.006 701.979 146.58 700.65 147.838C699.321 149.062 697.696 149.674 695.772 149.674H691.419V158.066H687.223V122.4ZM694.881 146.58C695.86 146.58 696.699 146.247 697.398 145.583C698.098 144.919 698.447 144.097 698.447 143.118V129.009C698.447 128.03 698.098 127.208 697.398 126.544C696.699 125.879 695.86 125.547 694.881 125.547H691.419V146.58H694.881ZM707.609 122.4H710.861L711.333 124.341L712.644 123.711C713.763 123.152 714.69 122.732 715.424 122.453C716.193 122.173 716.962 122.033 717.732 122.033V125.127C717.277 125.127 716.665 125.267 715.896 125.547C715.127 125.792 713.763 126.386 711.805 127.33V149.674H707.609V122.4ZM728.304 150.041C725.857 150.041 723.951 149.429 722.587 148.205C721.259 146.947 720.594 145.216 720.594 143.013V129.061C720.594 126.858 721.259 125.145 722.587 123.921C723.951 122.662 725.857 122.033 728.304 122.033C730.752 122.033 732.64 122.662 733.969 123.921C735.333 125.145 736.015 126.858 736.015 129.061V143.013C736.015 145.216 735.333 146.947 733.969 148.205C732.64 149.429 730.752 150.041 728.304 150.041ZM728.304 146.789C729.423 146.789 730.298 146.475 730.927 145.845C731.591 145.181 731.924 144.237 731.924 143.013V129.061C731.924 127.837 731.591 126.911 730.927 126.281C730.298 125.617 729.423 125.285 728.304 125.285C727.186 125.285 726.294 125.617 725.63 126.281C725 126.911 724.685 127.837 724.685 129.061V143.013C724.685 144.237 725 145.181 725.63 145.845C726.294 146.475 727.186 146.789 728.304 146.789ZM744.46 150.041C743.202 150.041 742.257 149.604 741.628 148.73C741.034 147.856 740.736 146.719 740.736 145.321V122.4H744.932V143.957C744.932 144.936 745.002 145.635 745.142 146.055C745.282 146.475 745.614 146.684 746.139 146.684C746.384 146.684 748.359 146.16 752.066 145.111V122.4H756.262V149.674H753.272L752.485 147.891C751.926 148.101 751.506 148.24 751.226 148.31C749.583 148.905 748.254 149.342 747.24 149.622C746.226 149.901 745.3 150.041 744.46 150.041ZM766.45 149.674L760.208 122.4H764.562L768.6 144.377L772.587 122.4H776.94L770.698 149.674H766.45ZM786.309 149.674C784.386 149.674 782.848 149.097 781.694 147.943C780.575 146.789 780.015 145.233 780.015 143.275V129.323C780.015 127.051 780.645 125.267 781.903 123.974C783.162 122.68 785.033 122.033 787.516 122.033C789.998 122.033 791.851 122.68 793.075 123.974C794.334 125.267 794.964 127.051 794.964 129.323V131.736C794.964 133.205 794.544 134.324 793.705 135.093C792.866 135.827 791.764 136.387 790.4 136.771L784.211 138.502V143.642C784.211 144.482 784.456 145.181 784.946 145.74C785.47 146.265 786.134 146.527 786.939 146.527H792.603V149.674H786.309ZM787.411 134.306C788.565 133.992 789.334 133.764 789.719 133.624C790.138 133.45 790.418 133.205 790.558 132.89C790.698 132.575 790.768 132.051 790.768 131.317V128.432C790.768 127.313 790.47 126.491 789.876 125.967C789.316 125.442 788.53 125.18 787.516 125.18C786.537 125.18 785.732 125.46 785.103 126.019C784.508 126.579 784.211 127.383 784.211 128.432V135.198L787.411 134.306ZM817.256 149.674H812.903C810.98 149.674 809.354 149.062 808.025 147.838C806.696 146.58 806.032 145.006 806.032 143.118V129.009C806.032 127.121 806.696 125.547 808.025 124.288C809.389 123.029 811.032 122.4 812.955 122.4H821.504V158.066H817.256V149.674ZM817.308 146.527V125.547H813.794C812.815 125.547 811.976 125.879 811.277 126.544C810.577 127.208 810.228 128.03 810.228 129.009V143.065C810.228 144.044 810.577 144.866 811.277 145.531C811.976 146.195 812.815 146.527 813.794 146.527H817.308ZM831.023 150.041C829.765 150.041 828.82 149.604 828.191 148.73C827.597 147.856 827.299 146.719 827.299 145.321V122.4H831.495V143.957C831.495 144.936 831.565 145.635 831.705 146.055C831.845 146.475 832.177 146.684 832.702 146.684C832.946 146.684 834.922 146.16 838.629 145.111V122.4H842.825V149.674H839.835L839.048 147.891C838.489 148.101 838.069 148.24 837.789 148.31C836.146 148.905 834.817 149.342 833.803 149.622C832.789 149.901 831.863 150.041 831.023 150.041ZM854.586 149.674C852.663 149.674 851.125 149.097 849.971 147.943C848.852 146.789 848.292 145.233 848.292 143.275V129.323C848.292 127.051 848.922 125.267 850.181 123.974C851.439 122.68 853.31 122.033 855.793 122.033C858.275 122.033 860.129 122.68 861.353 123.974C862.611 125.267 863.241 127.051 863.241 129.323V131.736C863.241 133.205 862.821 134.324 861.982 135.093C861.143 135.827 860.041 136.387 858.678 136.771L852.488 138.502V143.642C852.488 144.482 852.733 145.181 853.223 145.74C853.747 146.265 854.412 146.527 855.216 146.527H860.88V149.674H854.586ZM855.688 134.306C856.842 133.992 857.611 133.764 857.996 133.624C858.415 133.45 858.695 133.205 858.835 132.89C858.975 132.575 859.045 132.051 859.045 131.317V128.432C859.045 127.313 858.748 126.491 858.153 125.967C857.594 125.442 856.807 125.18 855.793 125.18C854.814 125.18 854.01 125.46 853.38 126.019C852.786 126.579 852.488 127.383 852.488 128.432V135.198L855.688 134.306ZM882.911 149.674C880.988 149.674 879.466 149.097 878.348 147.943C877.229 146.789 876.669 145.233 876.669 143.275V125.547H873.522V122.4H876.669V114.48L880.865 112.907V122.4H885.061V125.547H880.865V143.642C880.865 144.482 881.092 145.181 881.547 145.74C882.037 146.265 882.683 146.527 883.488 146.527H885.061V149.674H882.911ZM895.899 150.041C893.451 150.041 891.545 149.429 890.182 148.205C888.853 146.947 888.189 145.216 888.189 143.013V129.061C888.189 126.858 888.853 125.145 890.182 123.921C891.545 122.662 893.451 122.033 895.899 122.033C898.346 122.033 900.235 122.662 901.563 123.921C902.927 125.145 903.609 126.858 903.609 129.061V143.013C903.609 145.216 902.927 146.947 901.563 148.205C900.235 149.429 898.346 150.041 895.899 150.041ZM895.899 146.789C897.018 146.789 897.892 146.475 898.521 145.845C899.186 145.181 899.518 144.237 899.518 143.013V129.061C899.518 127.837 899.186 126.911 898.521 126.281C897.892 125.617 897.018 125.285 895.899 125.285C894.78 125.285 893.888 125.617 893.224 126.281C892.594 126.911 892.28 127.837 892.28 129.061V143.013C892.28 144.237 892.594 145.181 893.224 145.845C893.888 146.475 894.78 146.789 895.899 146.789ZM908.855 122.4H912.107L912.579 123.921L914.729 123.292C916.198 122.837 917.352 122.522 918.191 122.348C919.065 122.138 919.887 122.033 920.656 122.033C921.915 122.033 922.842 122.47 923.436 123.344C924.031 124.218 924.328 125.355 924.328 126.753V149.674H920.132V128.117C920.132 127.103 920.062 126.404 919.922 126.019C919.782 125.6 919.432 125.39 918.873 125.39C918.593 125.39 916.653 125.949 913.051 127.068V149.674H908.855V122.4ZM938.995 117.942V113.746H943.191V117.942H938.995ZM935.166 154.919H936.425C937.229 154.919 937.858 154.639 938.313 154.08C938.803 153.555 939.047 152.874 939.047 152.034V122.4H943.243V151.667C943.243 153.625 942.684 155.181 941.565 156.335C940.446 157.489 938.925 158.066 937.002 158.066H935.166V154.919ZM955.084 149.674C953.825 149.674 952.654 149.359 951.57 148.73C950.521 148.101 949.682 147.244 949.052 146.16C948.458 145.076 948.161 143.852 948.161 142.488V139.761C948.161 138.118 948.563 136.736 949.367 135.617C950.206 134.499 951.238 133.712 952.461 133.257L958.965 130.845V128.379C958.965 127.54 958.703 126.858 958.179 126.334C957.689 125.774 957.042 125.495 956.238 125.495H950.311V122.4H956.605C958.528 122.4 960.049 122.977 961.168 124.131C962.322 125.25 962.899 126.788 962.899 128.747V149.674H955.084ZM958.965 146.475V134.149L954.35 135.88C953.441 136.229 952.794 136.701 952.409 137.296C952.059 137.89 951.885 138.834 951.885 140.128V143.065C951.885 144.009 952.234 144.814 952.934 145.478C953.633 146.142 954.472 146.475 955.451 146.475H958.965ZM968.681 122.4H971.933L972.405 124.341L973.716 123.711C974.835 123.152 975.762 122.732 976.496 122.453C977.265 122.173 978.034 122.033 978.804 122.033V125.127C978.349 125.127 977.737 125.267 976.968 125.547C976.199 125.792 974.835 126.386 972.877 127.33V149.674H968.681V122.4ZM989.639 149.674C987.436 149.674 985.652 149.027 984.289 147.733C982.925 146.44 982.243 144.709 982.243 142.541V129.481C982.243 127.977 982.645 126.701 983.45 125.652C984.289 124.603 985.32 123.886 986.544 123.502L993.572 121.036V112.959H997.768V149.674H989.639ZM993.572 146.527V124.498L988.904 126.072C987.995 126.351 987.348 126.806 986.964 127.435C986.614 128.03 986.439 128.991 986.439 130.32V142.541C986.439 143.8 986.806 144.779 987.541 145.478C988.275 146.177 989.272 146.527 990.53 146.527H993.572ZM1004.07 117.942V113.746H1008.27V117.942H1004.07ZM1004.07 149.674V122.4H1008.27V149.674H1004.07ZM1014.57 122.4H1017.83L1018.3 123.921L1020.45 123.292C1021.92 122.837 1023.07 122.522 1023.91 122.348C1024.78 122.138 1025.61 122.033 1026.38 122.033C1027.63 122.033 1028.56 122.47 1029.16 123.344C1029.75 124.218 1030.05 125.355 1030.05 126.753V149.674H1025.85V128.117C1025.85 127.103 1025.78 126.404 1025.64 126.019C1025.5 125.6 1025.15 125.39 1024.59 125.39C1024.31 125.39 1022.37 125.949 1018.77 127.068V149.674H1014.57V122.4ZM227.62 179.4H230.872L231.344 180.921L233.494 180.292C234.963 179.837 236.117 179.522 236.956 179.348C237.83 179.138 238.652 179.033 239.421 179.033C240.924 179.033 241.973 179.697 242.568 181.026C243.547 180.676 244.928 180.257 246.711 179.767C248.495 179.278 249.806 179.033 250.645 179.033C251.904 179.033 252.831 179.47 253.425 180.344C254.054 181.218 254.369 182.355 254.369 183.753V206.674H250.173V185.117C250.173 184.103 250.103 183.404 249.963 183.019C249.823 182.6 249.474 182.39 248.914 182.39C248.635 182.39 246.711 182.949 243.145 184.068V206.674H238.949V185.117C238.949 184.103 238.879 183.404 238.739 183.019C238.599 182.6 238.25 182.39 237.69 182.39C237.41 182.39 235.452 182.949 231.816 184.068V206.674H227.62V179.4ZM265.914 177.355L264.183 175.781L270.268 170.588L272.943 173.054L265.914 177.355ZM265.6 206.674C263.676 206.674 262.138 206.097 260.984 204.943C259.865 203.789 259.306 202.233 259.306 200.275V186.323C259.306 184.051 259.935 182.267 261.194 180.974C262.453 179.68 264.323 179.033 266.806 179.033C269.289 179.033 271.142 179.68 272.366 180.974C273.624 182.267 274.254 184.051 274.254 186.323V188.736C274.254 190.205 273.834 191.324 272.995 192.093C272.156 192.827 271.054 193.387 269.691 193.771L263.502 195.502V200.642C263.502 201.482 263.746 202.181 264.236 202.74C264.76 203.265 265.425 203.527 266.229 203.527H271.894V206.674H265.6ZM266.701 191.306C267.855 190.992 268.624 190.764 269.009 190.624C269.428 190.45 269.708 190.205 269.848 189.89C269.988 189.575 270.058 189.051 270.058 188.317V185.432C270.058 184.313 269.761 183.491 269.166 182.967C268.607 182.442 267.82 182.18 266.806 182.18C265.827 182.18 265.023 182.46 264.393 183.019C263.799 183.579 263.502 184.383 263.502 185.432V192.198L266.701 191.306ZM278.431 179.4H281.682L282.155 181.341L283.466 180.711C284.585 180.152 285.511 179.732 286.246 179.453C287.015 179.173 287.784 179.033 288.553 179.033V182.127C288.099 182.127 287.487 182.267 286.718 182.547C285.948 182.792 284.585 183.386 282.627 184.33V206.674H278.431V179.4ZM292.465 174.942V170.746H296.661V174.942H292.465ZM292.465 206.674V179.4H296.661V206.674H292.465ZM310.571 206.674C308.647 206.674 307.126 206.097 306.007 204.943C304.888 203.789 304.329 202.233 304.329 200.275V182.547H301.182V179.4H304.329V171.48L308.525 169.907V179.4H312.721V182.547H308.525V200.642C308.525 201.482 308.752 202.181 309.207 202.74C309.696 203.265 310.343 203.527 311.148 203.527H312.721V206.674H310.571ZM322.352 206.674C320.429 206.674 318.89 206.097 317.737 204.943C316.618 203.789 316.058 202.233 316.058 200.275V186.323C316.058 184.051 316.688 182.267 317.946 180.974C319.205 179.68 321.076 179.033 323.558 179.033C326.041 179.033 327.894 179.68 329.118 180.974C330.377 182.267 331.006 184.051 331.006 186.323V188.736C331.006 190.205 330.587 191.324 329.748 192.093C328.908 192.827 327.807 193.387 326.443 193.771L320.254 195.502V200.642C320.254 201.482 320.499 202.181 320.988 202.74C321.513 203.265 322.177 203.527 322.982 203.527H328.646V206.674H322.352ZM323.454 191.306C324.607 190.992 325.377 190.764 325.761 190.624C326.181 190.45 326.461 190.205 326.601 189.89C326.74 189.575 326.81 189.051 326.81 188.317V185.432C326.81 184.313 326.513 183.491 325.919 182.967C325.359 182.442 324.573 182.18 323.558 182.18C322.579 182.18 321.775 182.46 321.146 183.019C320.551 183.579 320.254 184.383 320.254 185.432V192.198L323.454 191.306ZM348.526 206.674C346.603 206.674 345.064 206.097 343.91 204.943C342.791 203.789 342.232 202.233 342.232 200.275V186.323C342.232 184.051 342.861 182.267 344.12 180.974C345.379 179.68 347.25 179.033 349.732 179.033C352.215 179.033 354.068 179.68 355.292 180.974C356.551 182.267 357.18 184.051 357.18 186.323V188.736C357.18 190.205 356.761 191.324 355.921 192.093C355.082 192.827 353.981 193.387 352.617 193.771L346.428 195.502V200.642C346.428 201.482 346.673 202.181 347.162 202.74C347.687 203.265 348.351 203.527 349.155 203.527H354.82V206.674H348.526ZM349.627 191.306C350.781 190.992 351.551 190.764 351.935 190.624C352.355 190.45 352.635 190.205 352.774 189.89C352.914 189.575 352.984 189.051 352.984 188.317V185.432C352.984 184.313 352.687 183.491 352.093 182.967C351.533 182.442 350.746 182.18 349.732 182.18C348.753 182.18 347.949 182.46 347.32 183.019C346.725 183.579 346.428 184.383 346.428 185.432V192.198L349.627 191.306ZM361.357 179.4H364.609L365.081 180.921L367.231 180.292C368.7 179.837 369.854 179.522 370.693 179.348C371.567 179.138 372.389 179.033 373.158 179.033C374.417 179.033 375.344 179.47 375.938 180.344C376.532 181.218 376.83 182.355 376.83 183.753V206.674H372.634V185.117C372.634 184.103 372.564 183.404 372.424 183.019C372.284 182.6 371.934 182.39 371.375 182.39C371.095 182.39 369.154 182.949 365.553 184.068V206.674H361.357V179.4ZM388.434 206.674C386.511 206.674 384.973 206.097 383.819 204.943C382.7 203.789 382.14 202.233 382.14 200.275V186.323C382.14 184.121 382.717 182.425 383.871 181.236C385.025 180.012 386.703 179.4 388.906 179.4H394.728V182.547H389.011C388.207 182.547 387.56 182.827 387.071 183.386C386.581 183.911 386.336 184.593 386.336 185.432V200.642C386.336 201.482 386.581 202.181 387.071 202.74C387.595 203.265 388.259 203.527 389.064 203.527H394.728V206.674H388.434ZM405.051 207.041C402.603 207.041 400.697 206.429 399.334 205.205C398.005 203.947 397.34 202.216 397.34 200.013V186.061C397.34 183.858 398.005 182.145 399.334 180.921C400.697 179.662 402.603 179.033 405.051 179.033C407.498 179.033 409.386 179.662 410.715 180.921C412.079 182.145 412.761 183.858 412.761 186.061V200.013C412.761 202.216 412.079 203.947 410.715 205.205C409.386 206.429 407.498 207.041 405.051 207.041ZM405.051 203.789C406.17 203.789 407.044 203.475 407.673 202.845C408.337 202.181 408.67 201.237 408.67 200.013V186.061C408.67 184.837 408.337 183.911 407.673 183.281C407.044 182.617 406.17 182.285 405.051 182.285C403.932 182.285 403.04 182.617 402.376 183.281C401.746 183.911 401.432 184.837 401.432 186.061V200.013C401.432 201.237 401.746 202.181 402.376 202.845C403.04 203.475 403.932 203.789 405.051 203.789ZM418.007 179.4H421.259L421.731 181.341L423.042 180.711C424.161 180.152 425.088 179.732 425.822 179.453C426.591 179.173 427.361 179.033 428.13 179.033V182.127C427.675 182.127 427.063 182.267 426.294 182.547C425.525 182.792 424.161 183.386 422.203 184.33V206.674H418.007V179.4ZM437.496 206.674C435.573 206.674 434.035 206.097 432.881 204.943C431.762 203.789 431.202 202.233 431.202 200.275V186.323C431.202 184.051 431.832 182.267 433.09 180.974C434.349 179.68 436.22 179.033 438.703 179.033C441.185 179.033 443.039 179.68 444.262 180.974C445.521 182.267 446.151 184.051 446.151 186.323V188.736C446.151 190.205 445.731 191.324 444.892 192.093C444.053 192.827 442.951 193.387 441.587 193.771L435.398 195.502V200.642C435.398 201.482 435.643 202.181 436.133 202.74C436.657 203.265 437.321 203.527 438.126 203.527H443.79V206.674H437.496ZM438.598 191.306C439.752 190.992 440.521 190.764 440.906 190.624C441.325 190.45 441.605 190.205 441.745 189.89C441.885 189.575 441.955 189.051 441.955 188.317V185.432C441.955 184.313 441.657 183.491 441.063 182.967C440.503 182.442 439.717 182.18 438.703 182.18C437.724 182.18 436.919 182.46 436.29 183.019C435.696 183.579 435.398 184.383 435.398 185.432V192.198L438.598 191.306ZM468.443 206.674H464.09C462.167 206.674 460.541 206.062 459.212 204.838C457.883 203.58 457.219 202.006 457.219 200.118V186.009C457.219 184.121 457.883 182.547 459.212 181.288C460.576 180.029 462.219 179.4 464.142 179.4H472.691V215.066H468.443V206.674ZM468.495 203.527V182.547H464.981C464.002 182.547 463.163 182.879 462.464 183.544C461.764 184.208 461.415 185.03 461.415 186.009V200.065C461.415 201.044 461.764 201.866 462.464 202.531C463.163 203.195 464.002 203.527 464.981 203.527H468.495ZM482.21 207.041C480.952 207.041 480.007 206.604 479.378 205.73C478.784 204.856 478.486 203.719 478.486 202.321V179.4H482.682V200.957C482.682 201.936 482.752 202.635 482.892 203.055C483.032 203.475 483.364 203.684 483.889 203.684C484.133 203.684 486.109 203.16 489.816 202.111V179.4H494.012V206.674H491.022L490.235 204.891C489.676 205.101 489.256 205.24 488.976 205.31C487.333 205.905 486.004 206.342 484.99 206.622C483.976 206.901 483.05 207.041 482.21 207.041ZM498.588 179.925L499.007 169.959H503.466L502.784 179.925H498.588ZM514.458 207.041C512.01 207.041 510.105 206.429 508.741 205.205C507.412 203.947 506.748 202.216 506.748 200.013V186.061C506.748 183.858 507.412 182.145 508.741 180.921C510.105 179.662 512.01 179.033 514.458 179.033C516.906 179.033 518.794 179.662 520.123 180.921C521.486 182.145 522.168 183.858 522.168 186.061V200.013C522.168 202.216 521.486 203.947 520.123 205.205C518.794 206.429 516.906 207.041 514.458 207.041ZM514.458 203.789C515.577 203.789 516.451 203.475 517.081 202.845C517.745 202.181 518.077 201.237 518.077 200.013V186.061C518.077 184.837 517.745 183.911 517.081 183.281C516.451 182.617 515.577 182.285 514.458 182.285C513.339 182.285 512.447 182.617 511.783 183.281C511.154 183.911 510.839 184.837 510.839 186.061V200.013C510.839 201.237 511.154 202.181 511.783 202.845C512.447 203.475 513.339 203.789 514.458 203.789ZM527.414 179.4H530.666L531.138 180.921L533.289 180.292C534.757 179.837 535.911 179.522 536.751 179.348C537.625 179.138 538.446 179.033 539.216 179.033C540.474 179.033 541.401 179.47 541.996 180.344C542.59 181.218 542.887 182.355 542.887 183.753V206.674H538.691V185.117C538.691 184.103 538.621 183.404 538.481 183.019C538.342 182.6 537.992 182.39 537.432 182.39C537.153 182.39 535.212 182.949 531.61 184.068V206.674H527.414V179.4ZM555.037 203.527H559.495C560.999 203.527 562.083 203.125 562.747 202.321C563.446 201.482 563.796 200.398 563.796 199.069C563.796 198.02 563.481 197.128 562.852 196.394C562.222 195.66 561.278 194.803 560.019 193.824C558.936 192.95 558.061 192.198 557.397 191.568C556.768 190.904 556.208 190.1 555.719 189.156C555.264 188.177 555.037 187.058 555.037 185.799C555.037 183.946 555.649 182.425 556.872 181.236C558.131 180.012 559.81 179.4 561.908 179.4H566.471V182.547H562.694C560.212 182.547 558.97 183.718 558.97 186.061C558.97 186.97 559.25 187.757 559.81 188.421C560.369 189.086 561.243 189.873 562.432 190.782C563.516 191.621 564.408 192.39 565.107 193.09C565.806 193.754 566.401 194.611 566.89 195.66C567.38 196.674 567.625 197.88 567.625 199.279C567.625 201.761 566.96 203.614 565.632 204.838C564.338 206.062 562.502 206.674 560.124 206.674H555.037V203.527ZM577.79 206.674C575.867 206.674 574.328 206.097 573.174 204.943C572.055 203.789 571.496 202.233 571.496 200.275V186.323C571.496 184.051 572.125 182.267 573.384 180.974C574.643 179.68 576.514 179.033 578.996 179.033C581.479 179.033 583.332 179.68 584.556 180.974C585.815 182.267 586.444 184.051 586.444 186.323V188.736C586.444 190.205 586.024 191.324 585.185 192.093C584.346 192.827 583.245 193.387 581.881 193.771L575.692 195.502V200.642C575.692 201.482 575.937 202.181 576.426 202.74C576.951 203.265 577.615 203.527 578.419 203.527H584.084V206.674H577.79ZM578.891 191.306C580.045 190.992 580.814 190.764 581.199 190.624C581.619 190.45 581.898 190.205 582.038 189.89C582.178 189.575 582.248 189.051 582.248 188.317V185.432C582.248 184.313 581.951 183.491 581.356 182.967C580.797 182.442 580.01 182.18 578.996 182.18C578.017 182.18 577.213 182.46 576.583 183.019C575.989 183.579 575.692 184.383 575.692 185.432V192.198L578.891 191.306ZM598.509 169.959H602.705V178.141L609.733 180.606C610.957 181.026 611.971 181.76 612.775 182.809C613.614 183.823 614.034 185.082 614.034 186.586V200.065C614.034 201.954 613.37 203.527 612.041 204.786C610.712 206.045 609.086 206.674 607.163 206.674H598.509V169.959ZM606.271 203.527C607.25 203.527 608.09 203.195 608.789 202.531C609.488 201.866 609.838 201.044 609.838 200.065V187.425C609.838 186.096 609.646 185.135 609.261 184.54C608.911 183.911 608.282 183.456 607.373 183.176L602.705 181.603V203.527H606.271ZM624.557 206.674C623.298 206.674 622.127 206.359 621.043 205.73C619.994 205.101 619.154 204.244 618.525 203.16C617.931 202.076 617.633 200.852 617.633 199.488V196.761C617.633 195.118 618.035 193.736 618.84 192.617C619.679 191.499 620.71 190.712 621.934 190.257L628.438 187.845V185.379C628.438 184.54 628.176 183.858 627.651 183.334C627.162 182.774 626.515 182.495 625.711 182.495H619.784V179.4H626.078C628.001 179.4 629.522 179.977 630.641 181.131C631.795 182.25 632.372 183.788 632.372 185.747V206.674H624.557ZM628.438 203.475V191.149L623.822 192.88C622.913 193.229 622.266 193.701 621.882 194.296C621.532 194.89 621.357 195.834 621.357 197.128V200.065C621.357 201.009 621.707 201.814 622.406 202.478C623.106 203.142 623.945 203.475 624.924 203.475H628.438ZM645.759 206.674C643.836 206.674 642.315 206.097 641.196 204.943C640.077 203.789 639.517 202.233 639.517 200.275V182.547H636.37V179.4H639.517V171.48L643.713 169.907V179.4H647.909V182.547H643.713V200.642C643.713 201.482 643.941 202.181 644.395 202.74C644.885 203.265 645.532 203.527 646.336 203.527H647.909V206.674H645.759ZM659.691 206.674C657.768 206.674 656.247 206.097 655.128 204.943C654.009 203.789 653.449 202.233 653.449 200.275V182.547H650.302V179.4H653.449V171.48L657.645 169.907V179.4H661.841V182.547H657.645V200.642C657.645 201.482 657.873 202.181 658.327 202.74C658.817 203.265 659.464 203.527 660.268 203.527H661.841V206.674H659.691ZM671.472 206.674C669.549 206.674 668.011 206.097 666.857 204.943C665.738 203.789 665.178 202.233 665.178 200.275V186.323C665.178 184.051 665.808 182.267 667.067 180.974C668.325 179.68 670.196 179.033 672.679 179.033C675.161 179.033 677.015 179.68 678.239 180.974C679.497 182.267 680.127 184.051 680.127 186.323V188.736C680.127 190.205 679.707 191.324 678.868 192.093C678.029 192.827 676.927 193.387 675.564 193.771L669.374 195.502V200.642C669.374 201.482 669.619 202.181 670.109 202.74C670.633 203.265 671.298 203.527 672.102 203.527H677.766V206.674H671.472ZM672.574 191.306C673.728 190.992 674.497 190.764 674.882 190.624C675.301 190.45 675.581 190.205 675.721 189.89C675.861 189.575 675.931 189.051 675.931 188.317V185.432C675.931 184.313 675.634 183.491 675.039 182.967C674.48 182.442 673.693 182.18 672.679 182.18C671.7 182.18 670.896 182.46 670.266 183.019C669.672 183.579 669.374 184.383 669.374 185.432V192.198L672.574 191.306ZM692.191 179.4H700.688C702.612 179.4 704.237 180.029 705.566 181.288C706.93 182.547 707.612 184.121 707.612 186.009V200.118C707.612 202.006 706.947 203.58 705.619 204.838C704.29 206.062 702.664 206.674 700.741 206.674H696.387V215.066H692.191V179.4ZM699.849 203.58C700.828 203.58 701.667 203.247 702.367 202.583C703.066 201.919 703.416 201.097 703.416 200.118V186.009C703.416 185.03 703.066 184.208 702.367 183.544C701.667 182.879 700.828 182.547 699.849 182.547H696.387V203.58H699.849ZM719.238 207.041C716.791 207.041 714.885 206.429 713.521 205.205C712.193 203.947 711.528 202.216 711.528 200.013V186.061C711.528 183.858 712.193 182.145 713.521 180.921C714.885 179.662 716.791 179.033 719.238 179.033C721.686 179.033 723.574 179.662 724.903 180.921C726.267 182.145 726.949 183.858 726.949 186.061V200.013C726.949 202.216 726.267 203.947 724.903 205.205C723.574 206.429 721.686 207.041 719.238 207.041ZM719.238 203.789C720.357 203.789 721.232 203.475 721.861 202.845C722.525 202.181 722.857 201.237 722.857 200.013V186.061C722.857 184.837 722.525 183.911 721.861 183.281C721.232 182.617 720.357 182.285 719.238 182.285C718.12 182.285 717.228 182.617 716.563 183.281C715.934 183.911 715.619 184.837 715.619 186.061V200.013C715.619 201.237 715.934 202.181 716.563 202.845C717.228 203.475 718.12 203.789 719.238 203.789ZM735.394 207.041C734.135 207.041 733.191 206.604 732.562 205.73C731.968 204.856 731.67 203.719 731.67 202.321V179.4H735.866V200.957C735.866 201.936 735.936 202.635 736.076 203.055C736.216 203.475 736.548 203.684 737.073 203.684C737.317 203.684 739.293 203.16 743 202.111V179.4H747.196V206.674H744.206L743.419 204.891C742.86 205.101 742.44 205.24 742.16 205.31C740.517 205.905 739.188 206.342 738.174 206.622C737.16 206.901 736.233 207.041 735.394 207.041ZM753.503 179.4H756.755L757.227 181.341L758.538 180.711C759.657 180.152 760.583 179.732 761.318 179.453C762.087 179.173 762.856 179.033 763.626 179.033V182.127C763.171 182.127 762.559 182.267 761.79 182.547C761.02 182.792 759.657 183.386 757.699 184.33V206.674H753.503V179.4ZM775.478 206.674V169.959H779.674V206.674H775.478ZM789.125 207.041C787.866 207.041 786.922 206.604 786.292 205.73C785.698 204.856 785.401 203.719 785.401 202.321V179.4H789.597V200.957C789.597 201.936 789.667 202.635 789.807 203.055C789.946 203.475 790.279 203.684 790.803 203.684C791.048 203.684 793.024 203.16 796.73 202.111V179.4H800.926V206.674H797.936L797.15 204.891C796.59 205.101 796.171 205.24 795.891 205.31C794.247 205.905 792.919 206.342 791.905 206.622C790.891 206.901 789.964 207.041 789.125 207.041ZM807.233 174.942V170.746H811.429V174.942H807.233ZM807.233 206.674V179.4H811.429V206.674H807.233ZM816.737 206.674V201.272H820.933V206.674H816.737Z" fill="#1E1E1E"/>
<rect width="448.945" height="88.9178" fill="black"/>
<path d="M164.395 67.0047C163.991 67.0047 163.789 66.8028 163.789 66.3991V62.547C163.789 62.2401 163.87 61.9979 164.031 61.8202L167.617 58.2347C167.811 58.057 167.907 57.7986 167.907 57.4594V31.2703C167.907 30.8665 168.109 30.6646 168.513 30.6646H175.369C175.773 30.6646 175.975 30.8665 175.975 31.2703V60.8511C175.975 60.9965 175.959 61.1338 175.926 61.263C175.91 61.376 175.838 61.4972 175.708 61.6264L170.694 66.6413C170.451 66.8836 170.209 67.0047 169.967 67.0047H164.395ZM182.204 62.9589C181.8 62.9589 181.598 62.757 181.598 62.3532V39.895C181.598 39.6851 181.679 39.4428 181.84 39.1682L187.582 31.028C187.76 30.7858 188.018 30.6646 188.357 30.6646H196.376C196.732 30.6646 196.99 30.7858 197.152 31.028L202.918 39.1682C203.079 39.3943 203.16 39.6366 203.16 39.895V62.3532C203.16 62.757 202.958 62.9589 202.554 62.9589H195.698C195.294 62.9589 195.092 62.757 195.092 62.3532V52.0568H189.69V62.3532C189.69 62.757 189.488 62.9589 189.084 62.9589H182.204ZM192.379 46.8481C193.865 46.8481 194.866 46.5251 195.383 45.879C195.916 45.2168 196.183 43.9651 196.183 42.1239C196.183 40.2826 195.916 39.039 195.383 38.393C194.866 37.7308 193.865 37.3997 192.379 37.3997C190.909 37.3997 189.908 37.7308 189.375 38.393C188.858 39.039 188.6 40.2826 188.6 42.1239C188.6 43.9651 188.858 45.2168 189.375 45.879C189.908 46.5251 190.909 46.8481 192.379 46.8481ZM209.439 62.9589C209.035 62.9589 208.834 62.757 208.834 62.3532V31.2703C208.834 30.8665 209.035 30.6646 209.439 30.6646H222.57C222.958 30.6646 223.281 30.7696 223.539 30.9796L229.111 36.5033C229.289 36.6648 229.394 36.8021 229.426 36.9151C229.475 37.0282 229.499 37.2139 229.499 37.4723V44.1105C229.499 44.3204 229.418 44.5062 229.257 44.6677L226.592 47.2599L224.339 49.1981L227.004 52.7352L229.741 58.5981C229.806 58.7434 229.854 58.8888 229.887 59.0341C229.935 59.1633 229.959 59.3249 229.959 59.5187V62.3532C229.959 62.757 229.757 62.9589 229.354 62.9589H222.958C222.602 62.9589 222.36 62.7974 222.231 62.4743L218.33 51.1362H216.513V62.3532C216.513 62.757 216.312 62.9589 215.908 62.9589H209.439ZM219.178 45.2007C220.519 45.2007 221.431 44.9261 221.916 44.377C222.401 43.8117 222.643 42.7619 222.643 41.2275C222.643 39.677 222.401 38.6272 221.916 38.078C221.431 37.5127 220.519 37.2301 219.178 37.2301C217.854 37.2301 216.941 37.5127 216.441 38.078C215.94 38.6272 215.69 39.677 215.69 41.2275C215.69 42.7619 215.94 43.8117 216.441 44.377C216.941 44.9261 217.854 45.2007 219.178 45.2007ZM234.253 62.9589C233.85 62.9589 233.648 62.757 233.648 62.3532V31.2703C233.648 30.8665 233.85 30.6646 234.253 30.6646H249.032C249.419 30.6646 249.742 30.7938 250.001 31.0523L254.846 35.8976C255.121 36.1722 255.258 36.4952 255.258 36.8667V56.7326C255.258 57.1202 255.121 57.4432 254.846 57.7017L250.001 62.547C249.742 62.8216 249.419 62.9589 249.032 62.9589H234.253ZM241.74 56.4903H246.173C246.851 56.4903 247.191 56.0381 247.191 55.1336V38.4899C247.191 37.5693 246.851 37.1089 246.173 37.1089H241.74V56.4903ZM261.489 62.9589C261.085 62.9589 260.883 62.757 260.883 62.3532V31.2703C260.883 30.8665 261.085 30.6646 261.489 30.6646H268.345C268.749 30.6646 268.951 30.8665 268.951 31.2703V62.3532C268.951 62.757 268.749 62.9589 268.345 62.9589H261.489ZM275.353 62.9589C274.949 62.9589 274.747 62.757 274.747 62.3532V31.2703C274.747 30.8665 274.949 30.6646 275.353 30.6646H289.114C289.501 30.6646 289.824 30.7938 290.083 31.0523L294.928 35.8976C295.203 36.1722 295.34 36.4952 295.34 36.8667V62.3532C295.34 62.757 295.138 62.9589 294.734 62.9589H287.878C287.474 62.9589 287.273 62.757 287.273 62.3532V37.1089H282.815V62.3532C282.815 62.757 282.613 62.9589 282.209 62.9589H275.353ZM301.756 62.9589C301.353 62.9589 301.151 62.757 301.151 62.3532V31.2703C301.151 30.8665 301.353 30.6646 301.756 30.6646H308.612C309.016 30.6646 309.218 30.8665 309.218 31.2703V62.3532C309.218 62.757 309.016 62.9589 308.612 62.9589H301.756ZM315.62 62.9589C315.217 62.9589 315.015 62.757 315.015 62.3532V31.2703C315.015 30.8665 315.217 30.6646 315.62 30.6646H332.506C332.91 30.6646 333.112 30.8665 333.112 31.2703V36.5033C333.112 36.9071 332.91 37.1089 332.506 37.1089H323.082V43.9893H331.683C332.087 43.9893 332.288 44.1912 332.288 44.595V49.0285C332.288 49.4323 332.087 49.6342 331.683 49.6342H323.082V56.4903H332.506C332.91 56.4903 333.112 56.6922 333.112 57.096V62.3532C333.112 62.757 332.91 62.9589 332.506 62.9589H315.62ZM339.516 62.9589C339.112 62.9589 338.91 62.757 338.91 62.3532V31.2703C338.91 30.8665 339.112 30.6646 339.516 30.6646H352.647C353.034 30.6646 353.357 30.7696 353.616 30.9796L359.188 36.5033C359.366 36.6648 359.471 36.8021 359.503 36.9151C359.551 37.0282 359.576 37.2139 359.576 37.4723V44.1105C359.576 44.3204 359.495 44.5062 359.333 44.6677L356.668 47.2599L354.415 49.1981L357.08 52.7352L359.818 58.5981C359.883 58.7434 359.931 58.8888 359.963 59.0341C360.012 59.1633 360.036 59.3249 360.036 59.5187V62.3532C360.036 62.757 359.834 62.9589 359.43 62.9589H353.034C352.679 62.9589 352.437 62.7974 352.308 62.4743L348.407 51.1362H346.59V62.3532C346.59 62.757 346.388 62.9589 345.984 62.9589H339.516ZM349.255 45.2007C350.596 45.2007 351.508 44.9261 351.993 44.377C352.477 43.8117 352.719 42.7619 352.719 41.2275C352.719 39.677 352.477 38.6272 351.993 38.078C351.508 37.5127 350.596 37.2301 349.255 37.2301C347.931 37.2301 347.018 37.5127 346.517 38.078C346.017 38.6272 345.766 39.677 345.766 41.2275C345.766 42.7619 346.017 43.8117 346.517 44.377C347.018 44.9261 347.931 45.2007 349.255 45.2007Z" fill="#FFF1E9"/>
</svg>
