<svg width="1229" height="279" viewBox="0 0 1229 279" fill="none" xmlns="http://www.w3.org/2000/svg">
<rect x="3.75818" y="40.7006" width="1221.47" height="233.662" fill="#FFF1E9" stroke="black" stroke-width="7.51635"/>
<path d="M164.669 147.272V110.557H169.285V126.083H179.722V110.557H184.338V147.272H179.722V129.544H169.285V147.272H164.669ZM196.794 147.272C194.871 147.272 193.332 146.695 192.178 145.541C191.059 144.388 190.5 142.832 190.5 140.873V126.922C190.5 124.649 191.129 122.866 192.388 121.572C193.647 120.278 195.517 119.631 198 119.631C200.483 119.631 202.336 120.278 203.56 121.572C204.819 122.866 205.448 124.649 205.448 126.922V129.334C205.448 130.803 205.028 131.922 204.189 132.691C203.35 133.426 202.249 133.985 200.885 134.37L194.696 136.1V141.241C194.696 142.08 194.941 142.779 195.43 143.339C195.955 143.863 196.619 144.125 197.423 144.125H203.088V147.272H196.794ZM197.895 131.904C199.049 131.59 199.818 131.363 200.203 131.223C200.623 131.048 200.902 130.803 201.042 130.488C201.182 130.174 201.252 129.649 201.252 128.915V126.03C201.252 124.911 200.955 124.089 200.36 123.565C199.801 123.04 199.014 122.778 198 122.778C197.021 122.778 196.217 123.058 195.587 123.617C194.993 124.177 194.696 124.981 194.696 126.03V132.796L197.895 131.904ZM209.467 152.517H211.093C212.037 152.517 212.894 152.063 213.663 151.154C214.433 150.279 214.817 148.968 214.817 147.22L207.527 119.998H211.88L216.443 142.132L220.115 119.998H224.258L217.859 150.419C217.125 153.916 215.097 155.664 211.775 155.664H209.467V152.517ZM236.369 138.618V110.557H240.565V138.618H236.369ZM236.369 147.272V141.87H240.565V147.272H236.369ZM252.386 143.706H253.645C255.953 143.706 257.107 142.429 257.107 139.877V110.557H261.722V140.087C261.722 142.08 261.128 143.776 259.939 145.174C258.75 146.573 257.212 147.272 255.323 147.272H252.386V143.706ZM272.6 147.272C270.677 147.272 269.139 146.695 267.985 145.541C266.866 144.388 266.306 142.832 266.306 140.873V126.922C266.306 124.649 266.936 122.866 268.195 121.572C269.453 120.278 271.324 119.631 273.807 119.631C276.289 119.631 278.143 120.278 279.366 121.572C280.625 122.866 281.255 124.649 281.255 126.922V129.334C281.255 130.803 280.835 131.922 279.996 132.691C279.157 133.426 278.055 133.985 276.691 134.37L270.502 136.1V141.241C270.502 142.08 270.747 142.779 271.237 143.339C271.761 143.863 272.426 144.125 273.23 144.125H278.894V147.272H272.6ZM273.702 131.904C274.856 131.59 275.625 131.363 276.01 131.223C276.429 131.048 276.709 130.803 276.849 130.488C276.989 130.174 277.059 129.649 277.059 128.915V126.03C277.059 124.911 276.761 124.089 276.167 123.565C275.608 123.04 274.821 122.778 273.807 122.778C272.828 122.778 272.023 123.058 271.394 123.617C270.8 124.177 270.502 124.981 270.502 126.03V132.796L273.702 131.904ZM291.746 144.125H296.204C297.708 144.125 298.792 143.723 299.456 142.919C300.155 142.08 300.505 140.996 300.505 139.667C300.505 138.618 300.19 137.726 299.561 136.992C298.932 136.258 297.987 135.401 296.729 134.422C295.645 133.548 294.77 132.796 294.106 132.167C293.477 131.502 292.917 130.698 292.428 129.754C291.973 128.775 291.746 127.656 291.746 126.397C291.746 124.544 292.358 123.023 293.582 121.834C294.84 120.61 296.519 119.998 298.617 119.998H303.18V123.145H299.404C296.921 123.145 295.68 124.317 295.68 126.659C295.68 127.569 295.959 128.355 296.519 129.02C297.078 129.684 297.952 130.471 299.141 131.38C300.225 132.219 301.117 132.988 301.816 133.688C302.516 134.352 303.11 135.209 303.6 136.258C304.089 137.272 304.334 138.478 304.334 139.877C304.334 142.36 303.669 144.213 302.341 145.437C301.047 146.66 299.211 147.272 296.834 147.272H291.746V144.125ZM312.244 147.639C310.985 147.639 310.041 147.202 309.411 146.328C308.817 145.454 308.52 144.318 308.52 142.919V119.998H312.716V141.555C312.716 142.534 312.786 143.234 312.925 143.653C313.065 144.073 313.397 144.283 313.922 144.283C314.167 144.283 316.142 143.758 319.849 142.709V119.998H324.045V147.272H321.055L320.268 145.489C319.709 145.699 319.289 145.839 319.01 145.909C317.366 146.503 316.037 146.94 315.023 147.22C314.009 147.5 313.083 147.639 312.244 147.639ZM330.352 115.54V111.344H334.548V115.54H330.352ZM330.352 147.272V119.998H334.548V147.272H330.352ZM339.279 144.125H343.737C345.241 144.125 346.324 143.723 346.989 142.919C347.688 142.08 348.038 140.996 348.038 139.667C348.038 138.618 347.723 137.726 347.094 136.992C346.464 136.258 345.52 135.401 344.261 134.422C343.177 133.548 342.303 132.796 341.639 132.167C341.01 131.502 340.45 130.698 339.961 129.754C339.506 128.775 339.279 127.656 339.279 126.397C339.279 124.544 339.891 123.023 341.114 121.834C342.373 120.61 344.052 119.998 346.15 119.998H350.713V123.145H346.936C344.454 123.145 343.212 124.317 343.212 126.659C343.212 127.569 343.492 128.355 344.052 129.02C344.611 129.684 345.485 130.471 346.674 131.38C347.758 132.219 348.65 132.988 349.349 133.688C350.048 134.352 350.643 135.209 351.132 136.258C351.622 137.272 351.867 138.478 351.867 139.877C351.867 142.36 351.202 144.213 349.874 145.437C348.58 146.66 346.744 147.272 344.366 147.272H339.279V144.125ZM364.517 147.272V110.557H368.713V147.272H364.517ZM380.525 147.272C379.266 147.272 378.095 146.958 377.011 146.328C375.962 145.699 375.123 144.842 374.493 143.758C373.899 142.674 373.601 141.45 373.601 140.087V137.359C373.601 135.716 374.004 134.335 374.808 133.216C375.647 132.097 376.679 131.31 377.902 130.855L384.406 128.443V125.978C384.406 125.138 384.144 124.457 383.619 123.932C383.13 123.373 382.483 123.093 381.679 123.093H375.752V119.998H382.046C383.969 119.998 385.49 120.575 386.609 121.729C387.763 122.848 388.34 124.387 388.34 126.345V147.272H380.525ZM384.406 144.073V131.747L379.791 133.478C378.881 133.828 378.235 134.3 377.85 134.894C377.5 135.489 377.325 136.433 377.325 137.726V140.664C377.325 141.608 377.675 142.412 378.374 143.076C379.074 143.741 379.913 144.073 380.892 144.073H384.406ZM403.321 123.46H400.174V119.998H403.321V116.956C403.321 114.998 403.88 113.442 404.999 112.288C406.118 111.134 407.639 110.557 409.563 110.557H411.87V113.704H410.297C409.493 113.704 408.828 113.984 408.304 114.544C407.779 115.103 407.517 115.785 407.517 116.589V119.998H411.765V123.46H407.517V147.272H403.321V123.46ZM421.835 147.639C419.387 147.639 417.481 147.028 416.118 145.804C414.789 144.545 414.124 142.814 414.124 140.611V126.659C414.124 124.457 414.789 122.743 416.118 121.519C417.481 120.261 419.387 119.631 421.835 119.631C424.282 119.631 426.17 120.261 427.499 121.519C428.863 122.743 429.545 124.457 429.545 126.659V140.611C429.545 142.814 428.863 144.545 427.499 145.804C426.17 147.028 424.282 147.639 421.835 147.639ZM421.835 144.388C422.954 144.388 423.828 144.073 424.457 143.443C425.121 142.779 425.454 141.835 425.454 140.611V126.659C425.454 125.436 425.121 124.509 424.457 123.88C423.828 123.215 422.954 122.883 421.835 122.883C420.716 122.883 419.824 123.215 419.16 123.88C418.53 124.509 418.216 125.436 418.216 126.659V140.611C418.216 141.835 418.53 142.779 419.16 143.443C419.824 144.073 420.716 144.388 421.835 144.388ZM434.791 119.998H438.043L438.515 121.939L439.826 121.31C440.945 120.75 441.872 120.331 442.606 120.051C443.375 119.771 444.145 119.631 444.914 119.631V122.726C444.459 122.726 443.847 122.866 443.078 123.145C442.309 123.39 440.945 123.985 438.987 124.929V147.272H434.791V119.998ZM451.028 152.517H456.431C457.235 152.517 457.864 152.238 458.319 151.678C458.808 151.154 459.053 150.472 459.053 149.633V147.325H454.7C452.777 147.325 451.151 146.695 449.822 145.437C448.493 144.178 447.829 142.604 447.829 140.716V126.607C447.829 124.719 448.493 123.145 449.822 121.887C451.186 120.628 452.829 119.998 454.752 119.998H463.302V149.265C463.302 151.224 462.76 152.78 461.676 153.933C460.627 155.087 459.141 155.664 457.217 155.664H451.028V152.517ZM459.106 144.178V123.145H455.591C454.612 123.145 453.773 123.478 453.074 124.142C452.375 124.806 452.025 125.628 452.025 126.607V140.716C452.025 141.695 452.375 142.517 453.074 143.181C453.773 143.846 454.612 144.178 455.591 144.178H459.106ZM474.512 147.272C472.589 147.272 471.051 146.695 469.897 145.541C468.778 144.388 468.218 142.832 468.218 140.873V126.922C468.218 124.649 468.848 122.866 470.107 121.572C471.365 120.278 473.236 119.631 475.719 119.631C478.201 119.631 480.055 120.278 481.278 121.572C482.537 122.866 483.167 124.649 483.167 126.922V129.334C483.167 130.803 482.747 131.922 481.908 132.691C481.069 133.426 479.967 133.985 478.604 134.37L472.414 136.1V141.241C472.414 142.08 472.659 142.779 473.149 143.339C473.673 143.863 474.338 144.125 475.142 144.125H480.806V147.272H474.512ZM475.614 131.904C476.768 131.59 477.537 131.363 477.922 131.223C478.341 131.048 478.621 130.803 478.761 130.488C478.901 130.174 478.971 129.649 478.971 128.915V126.03C478.971 124.911 478.673 124.089 478.079 123.565C477.52 123.04 476.733 122.778 475.719 122.778C474.74 122.778 473.935 123.058 473.306 123.617C472.712 124.177 472.414 124.981 472.414 126.03V132.796L475.614 131.904ZM487.343 119.998H490.595L491.067 121.939L492.379 121.31C493.498 120.75 494.424 120.331 495.158 120.051C495.928 119.771 496.697 119.631 497.466 119.631V122.726C497.012 122.726 496.4 122.866 495.63 123.145C494.861 123.39 493.498 123.985 491.539 124.929V147.272H487.343V119.998ZM508.039 147.639C505.591 147.639 503.686 147.028 502.322 145.804C500.993 144.545 500.329 142.814 500.329 140.611V126.659C500.329 124.457 500.993 122.743 502.322 121.519C503.686 120.261 505.591 119.631 508.039 119.631C510.487 119.631 512.375 120.261 513.704 121.519C515.067 122.743 515.749 124.457 515.749 126.659V140.611C515.749 142.814 515.067 144.545 513.704 145.804C512.375 147.028 510.487 147.639 508.039 147.639ZM508.039 144.388C509.158 144.388 510.032 144.073 510.662 143.443C511.326 142.779 511.658 141.835 511.658 140.611V126.659C511.658 125.436 511.326 124.509 510.662 123.88C510.032 123.215 509.158 122.883 508.039 122.883C506.92 122.883 506.028 123.215 505.364 123.88C504.735 124.509 504.42 125.436 504.42 126.659V140.611C504.42 141.835 504.735 142.779 505.364 143.443C506.028 144.073 506.92 144.388 508.039 144.388ZM520.995 119.998H524.247L524.719 121.519L526.87 120.89C528.338 120.435 529.492 120.121 530.331 119.946C531.206 119.736 532.027 119.631 532.797 119.631C534.055 119.631 534.982 120.068 535.576 120.942C536.171 121.817 536.468 122.953 536.468 124.352V147.272H532.272V125.715C532.272 124.701 532.202 124.002 532.062 123.617C531.922 123.198 531.573 122.988 531.013 122.988C530.734 122.988 528.793 123.547 525.191 124.666V147.272H520.995V119.998ZM542.303 119.998H545.555L546.027 121.519L548.178 120.89C549.646 120.435 550.8 120.121 551.639 119.946C552.513 119.736 553.335 119.631 554.104 119.631C555.363 119.631 556.29 120.068 556.884 120.942C557.479 121.817 557.776 122.953 557.776 124.352V147.272H553.58V125.715C553.58 124.701 553.51 124.002 553.37 123.617C553.23 123.198 552.881 122.988 552.321 122.988C552.041 122.988 550.101 123.547 546.499 124.666V147.272H542.303V119.998ZM569.066 147.272C567.143 147.272 565.604 146.695 564.45 145.541C563.331 144.388 562.772 142.832 562.772 140.873V126.922C562.772 124.649 563.401 122.866 564.66 121.572C565.919 120.278 567.79 119.631 570.272 119.631C572.755 119.631 574.608 120.278 575.832 121.572C577.091 122.866 577.72 124.649 577.72 126.922V129.334C577.72 130.803 577.3 131.922 576.461 132.691C575.622 133.426 574.521 133.985 573.157 134.37L566.968 136.1V141.241C566.968 142.08 567.213 142.779 567.702 143.339C568.227 143.863 568.891 144.125 569.695 144.125H575.36V147.272H569.066ZM570.167 131.904C571.321 131.59 572.09 131.363 572.475 131.223C572.895 131.048 573.174 130.803 573.314 130.488C573.454 130.174 573.524 129.649 573.524 128.915V126.03C573.524 124.911 573.227 124.089 572.632 123.565C572.073 123.04 571.286 122.778 570.272 122.778C569.293 122.778 568.489 123.058 567.859 123.617C567.265 124.177 566.968 124.981 566.968 126.03V132.796L570.167 131.904ZM580.9 147.272V141.87H585.096V147.272H580.9ZM599.059 147.272V110.557H606.035L613.064 132.272H613.431L620.616 110.557H627.33V147.272H622.714V116.065L615.686 137.517H610.703L603.675 116.012V147.272H599.059ZM639.343 147.272C638.084 147.272 636.913 146.958 635.829 146.328C634.78 145.699 633.941 144.842 633.311 143.758C632.717 142.674 632.42 141.45 632.42 140.087V137.359C632.42 135.716 632.822 134.335 633.626 133.216C634.465 132.097 635.497 131.31 636.721 130.855L643.224 128.443V125.978C643.224 125.138 642.962 124.457 642.438 123.932C641.948 123.373 641.301 123.093 640.497 123.093H634.57V119.998H640.864C642.787 119.998 644.308 120.575 645.427 121.729C646.581 122.848 647.158 124.387 647.158 126.345V147.272H639.343ZM643.224 144.073V131.747L638.609 133.478C637.7 133.828 637.053 134.3 636.668 134.894C636.318 135.489 636.144 136.433 636.144 137.726V140.664C636.144 141.608 636.493 142.412 637.193 143.076C637.892 143.741 638.731 144.073 639.71 144.073H643.224ZM662.139 123.46H658.992V119.998H662.139V116.956C662.139 114.998 662.699 113.442 663.818 112.288C664.936 111.134 666.458 110.557 668.381 110.557H670.689V113.704H669.115C668.311 113.704 667.646 113.984 667.122 114.544C666.597 115.103 666.335 115.785 666.335 116.589V119.998H670.584V123.46H666.335V147.272H662.139V123.46ZM680.653 147.639C678.205 147.639 676.299 147.028 674.936 145.804C673.607 144.545 672.943 142.814 672.943 140.611V126.659C672.943 124.457 673.607 122.743 674.936 121.519C676.299 120.261 678.205 119.631 680.653 119.631C683.1 119.631 684.989 120.261 686.317 121.519C687.681 122.743 688.363 124.457 688.363 126.659V140.611C688.363 142.814 687.681 144.545 686.317 145.804C684.989 147.028 683.1 147.639 680.653 147.639ZM680.653 144.388C681.772 144.388 682.646 144.073 683.275 143.443C683.94 142.779 684.272 141.835 684.272 140.611V126.659C684.272 125.436 683.94 124.509 683.275 123.88C682.646 123.215 681.772 122.883 680.653 122.883C679.534 122.883 678.642 123.215 677.978 123.88C677.348 124.509 677.034 125.436 677.034 126.659V140.611C677.034 141.835 677.348 142.779 677.978 143.443C678.642 144.073 679.534 144.388 680.653 144.388ZM693.609 119.998H696.861L697.333 121.939L698.644 121.31C699.763 120.75 700.69 120.331 701.424 120.051C702.193 119.771 702.963 119.631 703.732 119.631V122.726C703.277 122.726 702.666 122.866 701.896 123.145C701.127 123.39 699.763 123.985 697.805 124.929V147.272H693.609V119.998ZM709.847 152.517H715.249C716.053 152.517 716.683 152.238 717.137 151.678C717.627 151.154 717.871 150.472 717.871 149.633V147.325H713.518C711.595 147.325 709.969 146.695 708.64 145.437C707.311 144.178 706.647 142.604 706.647 140.716V126.607C706.647 124.719 707.311 123.145 708.64 121.887C710.004 120.628 711.647 119.998 713.57 119.998H722.12V149.265C722.12 151.224 721.578 152.78 720.494 153.933C719.445 155.087 717.959 155.664 716.036 155.664H709.847V152.517ZM717.924 144.178V123.145H714.41C713.431 123.145 712.591 123.478 711.892 124.142C711.193 124.806 710.843 125.628 710.843 126.607V140.716C710.843 141.695 711.193 142.517 711.892 143.181C712.591 143.846 713.431 144.178 714.41 144.178H717.924ZM733.331 147.272C731.407 147.272 729.869 146.695 728.715 145.541C727.596 144.388 727.037 142.832 727.037 140.873V126.922C727.037 124.649 727.666 122.866 728.925 121.572C730.184 120.278 732.054 119.631 734.537 119.631C737.02 119.631 738.873 120.278 740.097 121.572C741.355 122.866 741.985 124.649 741.985 126.922V129.334C741.985 130.803 741.565 131.922 740.726 132.691C739.887 133.426 738.785 133.985 737.422 134.37L731.233 136.1V141.241C731.233 142.08 731.477 142.779 731.967 143.339C732.491 143.863 733.156 144.125 733.96 144.125H739.625V147.272H733.331ZM734.432 131.904C735.586 131.59 736.355 131.363 736.74 131.223C737.159 131.048 737.439 130.803 737.579 130.488C737.719 130.174 737.789 129.649 737.789 128.915V126.03C737.789 124.911 737.492 124.089 736.897 123.565C736.338 123.04 735.551 122.778 734.537 122.778C733.558 122.778 732.754 123.058 732.124 123.617C731.53 124.177 731.233 124.981 731.233 126.03V132.796L734.432 131.904ZM742.962 153.724L745.217 147.272V141.87H749.413V147.22L746.214 153.724H742.962ZM767.297 147.272C765.374 147.272 763.836 146.695 762.682 145.541C761.563 144.388 761.003 142.832 761.003 140.873V126.922C761.003 124.719 761.58 123.023 762.734 121.834C763.888 120.61 765.566 119.998 767.769 119.998H773.591V123.145H767.874C767.07 123.145 766.423 123.425 765.934 123.985C765.444 124.509 765.199 125.191 765.199 126.03V141.241C765.199 142.08 765.444 142.779 765.934 143.339C766.458 143.863 767.122 144.125 767.927 144.125H773.591V147.272H767.297ZM775.522 120.523L775.941 110.557H780.4L779.718 120.523H775.522ZM790.186 147.272C788.262 147.272 786.724 146.695 785.57 145.541C784.451 144.388 783.892 142.832 783.892 140.873V126.922C783.892 124.649 784.521 122.866 785.78 121.572C787.039 120.278 788.909 119.631 791.392 119.631C793.875 119.631 795.728 120.278 796.952 121.572C798.21 122.866 798.84 124.649 798.84 126.922V129.334C798.84 130.803 798.42 131.922 797.581 132.691C796.742 133.426 795.64 133.985 794.277 134.37L788.088 136.1V141.241C788.088 142.08 788.332 142.779 788.822 143.339C789.346 143.863 790.011 144.125 790.815 144.125H796.48V147.272H790.186ZM791.287 131.904C792.441 131.59 793.21 131.363 793.595 131.223C794.014 131.048 794.294 130.803 794.434 130.488C794.574 130.174 794.644 129.649 794.644 128.915V126.03C794.644 124.911 794.347 124.089 793.752 123.565C793.193 123.04 792.406 122.778 791.392 122.778C790.413 122.778 789.609 123.058 788.979 123.617C788.385 124.177 788.088 124.981 788.088 126.03V132.796L791.287 131.904ZM801.443 144.125H805.901C807.405 144.125 808.489 143.723 809.153 142.919C809.853 142.08 810.202 140.996 810.202 139.667C810.202 138.618 809.888 137.726 809.258 136.992C808.629 136.258 807.685 135.401 806.426 134.422C805.342 133.548 804.468 132.796 803.803 132.167C803.174 131.502 802.614 130.698 802.125 129.754C801.67 128.775 801.443 127.656 801.443 126.397C801.443 124.544 802.055 123.023 803.279 121.834C804.538 120.61 806.216 119.998 808.314 119.998H812.877V123.145H809.101C806.618 123.145 805.377 124.317 805.377 126.659C805.377 127.569 805.657 128.355 806.216 129.02C806.775 129.684 807.65 130.471 808.839 131.38C809.922 132.219 810.814 132.988 811.513 133.688C812.213 134.352 812.807 135.209 813.297 136.258C813.786 137.272 814.031 138.478 814.031 139.877C814.031 142.36 813.367 144.213 812.038 145.437C810.744 146.66 808.908 147.272 806.531 147.272H801.443V144.125ZM826.347 147.272C824.423 147.272 822.902 146.695 821.783 145.541C820.665 144.388 820.105 142.832 820.105 140.873V123.145H816.958V119.998H820.105V112.078L824.301 110.505V119.998H828.497V123.145H824.301V141.241C824.301 142.08 824.528 142.779 824.983 143.339C825.472 143.863 826.119 144.125 826.924 144.125H828.497V147.272H826.347ZM847.485 147.272C845.282 147.272 843.499 146.625 842.135 145.332C840.771 144.038 840.089 142.307 840.089 140.139V127.079C840.089 125.576 840.491 124.299 841.296 123.25C842.135 122.201 843.166 121.484 844.39 121.1L851.419 118.635V110.557H855.615V147.272H847.485ZM851.419 144.125V122.096L846.75 123.67C845.841 123.95 845.194 124.404 844.81 125.034C844.46 125.628 844.285 126.59 844.285 127.918V140.139C844.285 141.398 844.652 142.377 845.387 143.076C846.121 143.776 847.118 144.125 848.376 144.125H851.419ZM865.12 147.639C863.861 147.639 862.917 147.202 862.288 146.328C861.693 145.454 861.396 144.318 861.396 142.919V119.998H865.592V141.555C865.592 142.534 865.662 143.234 865.802 143.653C865.942 144.073 866.274 144.283 866.798 144.283C867.043 144.283 869.019 143.758 872.725 142.709V119.998H876.921V147.272H873.931L873.145 145.489C872.585 145.699 872.166 145.839 871.886 145.909C870.242 146.503 868.914 146.94 867.9 147.22C866.886 147.5 865.959 147.639 865.12 147.639ZM896.886 147.272C894.963 147.272 893.424 146.695 892.27 145.541C891.151 144.388 890.592 142.832 890.592 140.873V126.922C890.592 124.719 891.169 123.023 892.323 121.834C893.476 120.61 895.155 119.998 897.358 119.998H903.18V123.145H897.463C896.658 123.145 896.012 123.425 895.522 123.985C895.032 124.509 894.788 125.191 894.788 126.03V141.241C894.788 142.08 895.032 142.779 895.522 143.339C896.046 143.863 896.711 144.125 897.515 144.125H903.18V147.272H896.886ZM913.502 147.639C911.054 147.639 909.149 147.028 907.785 145.804C906.456 144.545 905.792 142.814 905.792 140.611V126.659C905.792 124.457 906.456 122.743 907.785 121.519C909.149 120.261 911.054 119.631 913.502 119.631C915.95 119.631 917.838 120.261 919.167 121.519C920.53 122.743 921.212 124.457 921.212 126.659V140.611C921.212 142.814 920.53 144.545 919.167 145.804C917.838 147.028 915.95 147.639 913.502 147.639ZM913.502 144.388C914.621 144.388 915.495 144.073 916.125 143.443C916.789 142.779 917.121 141.835 917.121 140.611V126.659C917.121 125.436 916.789 124.509 916.125 123.88C915.495 123.215 914.621 122.883 913.502 122.883C912.383 122.883 911.492 123.215 910.827 123.88C910.198 124.509 909.883 125.436 909.883 126.659V140.611C909.883 141.835 910.198 142.779 910.827 143.443C911.492 144.073 912.383 144.388 913.502 144.388ZM933.382 147.272C931.179 147.272 929.396 146.625 928.032 145.332C926.668 144.038 925.986 142.307 925.986 140.139V127.079C925.986 125.576 926.389 124.299 927.193 123.25C928.032 122.201 929.063 121.484 930.287 121.1L937.316 118.635V110.557H941.512V147.272H933.382ZM937.316 144.125V122.096L932.648 123.67C931.738 123.95 931.092 124.404 930.707 125.034C930.357 125.628 930.182 126.59 930.182 127.918V140.139C930.182 141.398 930.55 142.377 931.284 143.076C932.018 143.776 933.015 144.125 934.274 144.125H937.316ZM953.272 147.272C951.349 147.272 949.811 146.695 948.657 145.541C947.538 144.388 946.978 142.832 946.978 140.873V126.922C946.978 124.649 947.608 122.866 948.867 121.572C950.125 120.278 951.996 119.631 954.479 119.631C956.961 119.631 958.815 120.278 960.038 121.572C961.297 122.866 961.927 124.649 961.927 126.922V129.334C961.927 130.803 961.507 131.922 960.668 132.691C959.829 133.426 958.727 133.985 957.363 134.37L951.174 136.1V141.241C951.174 142.08 951.419 142.779 951.909 143.339C952.433 143.863 953.097 144.125 953.902 144.125H959.566V147.272H953.272ZM954.374 131.904C955.528 131.59 956.297 131.363 956.682 131.223C957.101 131.048 957.381 130.803 957.521 130.488C957.661 130.174 957.731 129.649 957.731 128.915V126.03C957.731 124.911 957.433 124.089 956.839 123.565C956.279 123.04 955.493 122.778 954.479 122.778C953.5 122.778 952.695 123.058 952.066 123.617C951.472 124.177 951.174 124.981 951.174 126.03V132.796L954.374 131.904ZM980.652 147.639C978.205 147.639 976.299 147.028 974.935 145.804C973.607 144.545 972.942 142.814 972.942 140.611V126.659C972.942 124.457 973.607 122.743 974.935 121.519C976.299 120.261 978.205 119.631 980.652 119.631C983.1 119.631 984.988 120.261 986.317 121.519C987.681 122.743 988.363 124.457 988.363 126.659V140.611C988.363 142.814 987.681 144.545 986.317 145.804C984.988 147.028 983.1 147.639 980.652 147.639ZM980.652 144.388C981.771 144.388 982.646 144.073 983.275 143.443C983.939 142.779 984.272 141.835 984.272 140.611V126.659C984.272 125.436 983.939 124.509 983.275 123.88C982.646 123.215 981.771 122.883 980.652 122.883C979.534 122.883 978.642 123.215 977.977 123.88C977.348 124.509 977.033 125.436 977.033 126.659V140.611C977.033 141.835 977.348 142.779 977.977 143.443C978.642 144.073 979.534 144.388 980.652 144.388ZM996.808 147.639C995.55 147.639 994.605 147.202 993.976 146.328C993.382 145.454 993.084 144.318 993.084 142.919V119.998H997.28V141.555C997.28 142.534 997.35 143.234 997.49 143.653C997.63 144.073 997.962 144.283 998.487 144.283C998.731 144.283 1000.71 143.758 1004.41 142.709V119.998H1008.61V147.272H1005.62L1004.83 145.489C1004.27 145.699 1003.85 145.839 1003.57 145.909C1001.93 146.503 1000.6 146.94 999.588 147.22C998.574 147.5 997.648 147.639 996.808 147.639ZM1018.8 147.272L1012.56 119.998H1016.91L1020.95 141.975L1024.93 119.998H1029.29L1023.05 147.272H1018.8ZM1038.66 147.272C1036.73 147.272 1035.2 146.695 1034.04 145.541C1032.92 144.388 1032.36 142.832 1032.36 140.873V126.922C1032.36 124.649 1032.99 122.866 1034.25 121.572C1035.51 120.278 1037.38 119.631 1039.86 119.631C1042.35 119.631 1044.2 120.278 1045.42 121.572C1046.68 122.866 1047.31 124.649 1047.31 126.922V129.334C1047.31 130.803 1046.89 131.922 1046.05 132.691C1045.21 133.426 1044.11 133.985 1042.75 134.37L1036.56 136.1V141.241C1036.56 142.08 1036.8 142.779 1037.29 143.339C1037.82 143.863 1038.48 144.125 1039.29 144.125H1044.95V147.272H1038.66ZM1039.76 131.904C1040.91 131.59 1041.68 131.363 1042.07 131.223C1042.49 131.048 1042.77 130.803 1042.91 130.488C1043.05 130.174 1043.12 129.649 1043.12 128.915V126.03C1043.12 124.911 1042.82 124.089 1042.22 123.565C1041.66 123.04 1040.88 122.778 1039.86 122.778C1038.88 122.778 1038.08 123.058 1037.45 123.617C1036.86 124.177 1036.56 124.981 1036.56 126.03V132.796L1039.76 131.904ZM1051.49 119.998H1054.74L1055.21 121.939L1056.52 121.31C1057.64 120.75 1058.57 120.331 1059.3 120.051C1060.07 119.771 1060.84 119.631 1061.61 119.631V122.726C1061.16 122.726 1060.54 122.866 1059.78 123.145C1059.01 123.39 1057.64 123.985 1055.68 124.929V147.272H1051.49V119.998ZM1073.13 147.272C1071.2 147.272 1069.68 146.695 1068.56 145.541C1067.45 144.388 1066.89 142.832 1066.89 140.873V123.145H1063.74V119.998H1066.89V112.078L1071.08 110.505V119.998H1075.28V123.145H1071.08V141.241C1071.08 142.08 1071.31 142.779 1071.76 143.339C1072.25 143.863 1072.9 144.125 1073.7 144.125H1075.28V147.272H1073.13ZM1078.46 147.272V141.87H1082.65V147.272H1078.46ZM164.931 172.54V168.344H169.127V172.54H164.931ZM161.102 209.517H162.361C163.165 209.517 163.795 209.238 164.249 208.678C164.739 208.154 164.984 207.472 164.984 206.633V176.998H169.18V206.265C169.18 208.224 168.62 209.78 167.501 210.933C166.382 212.087 164.861 212.664 162.938 212.664H161.102V209.517ZM180.915 204.272C178.992 204.272 177.454 203.695 176.3 202.541C175.181 201.388 174.621 199.832 174.621 197.873V183.922C174.621 181.649 175.251 179.866 176.51 178.572C177.768 177.278 179.639 176.631 182.122 176.631C184.604 176.631 186.458 177.278 187.681 178.572C188.94 179.866 189.57 181.649 189.57 183.922V186.334C189.57 187.803 189.15 188.922 188.311 189.691C187.472 190.426 186.37 190.985 185.006 191.37L178.817 193.1V198.241C178.817 199.08 179.062 199.779 179.552 200.339C180.076 200.863 180.74 201.125 181.545 201.125H187.209V204.272H180.915ZM182.017 188.904C183.171 188.59 183.94 188.363 184.325 188.223C184.744 188.048 185.024 187.803 185.164 187.488C185.304 187.174 185.374 186.649 185.374 185.915V183.03C185.374 181.911 185.076 181.089 184.482 180.565C183.922 180.04 183.136 179.778 182.122 179.778C181.143 179.778 180.338 180.058 179.709 180.617C179.115 181.177 178.817 181.981 178.817 183.03V189.796L182.017 188.904ZM202.946 180.46H199.799V176.998H202.946V173.956C202.946 171.998 203.505 170.442 204.624 169.288C205.743 168.134 207.264 167.557 209.187 167.557H211.495V170.704H209.921C209.117 170.704 208.453 170.984 207.928 171.544C207.404 172.103 207.142 172.785 207.142 173.589V176.998H211.39V180.46H207.142V204.272H202.946V180.46ZM220.358 204.272C219.099 204.272 217.928 203.958 216.844 203.328C215.795 202.699 214.955 201.842 214.326 200.758C213.732 199.674 213.434 198.45 213.434 197.087V194.359C213.434 192.716 213.836 191.335 214.641 190.216C215.48 189.097 216.511 188.31 217.735 187.855L224.239 185.443V182.978C224.239 182.138 223.977 181.457 223.452 180.932C222.963 180.373 222.316 180.093 221.512 180.093H215.585V176.998H221.879C223.802 176.998 225.323 177.575 226.442 178.729C227.596 179.848 228.173 181.387 228.173 183.345V204.272H220.358ZM224.239 201.073V188.747L219.623 190.478C218.714 190.828 218.067 191.3 217.683 191.894C217.333 192.489 217.158 193.433 217.158 194.726V197.664C217.158 198.608 217.508 199.412 218.207 200.076C218.907 200.741 219.746 201.073 220.725 201.073H224.239ZM242.399 205.951C243.658 205.951 244.619 206.178 245.284 206.633C245.948 207.087 246.28 207.909 246.28 209.098C246.28 211.475 244.917 212.664 242.189 212.664H236.577V210.199H240.773C241.577 210.199 242.172 210.112 242.556 209.937C242.941 209.762 243.133 209.465 243.133 209.045C243.133 208.591 242.993 208.294 242.714 208.154C242.434 208.014 241.979 207.944 241.35 207.944H238.623L239.514 204.272H239.724C237.801 204.272 236.262 203.695 235.108 202.541C233.99 201.388 233.43 199.832 233.43 197.873V183.922C233.43 181.719 234.007 180.023 235.161 178.834C236.315 177.61 237.993 176.998 240.196 176.998H246.018V180.145H240.301C239.497 180.145 238.85 180.425 238.36 180.985C237.871 181.509 237.626 182.191 237.626 183.03V198.241C237.626 199.08 237.871 199.779 238.36 200.339C238.885 200.863 239.549 201.125 240.353 201.125H246.018V204.272H242.766L242.399 205.951ZM256.34 204.639C253.893 204.639 251.987 204.028 250.623 202.804C249.295 201.545 248.63 199.814 248.63 197.611V183.659C248.63 181.457 249.295 179.743 250.623 178.519C251.987 177.261 253.893 176.631 256.34 176.631C258.788 176.631 260.676 177.261 262.005 178.519C263.369 179.743 264.051 181.457 264.051 183.659V197.611C264.051 199.814 263.369 201.545 262.005 202.804C260.676 204.028 258.788 204.639 256.34 204.639ZM256.34 201.388C257.459 201.388 258.334 201.073 258.963 200.443C259.627 199.779 259.96 198.835 259.96 197.611V183.659C259.96 182.436 259.627 181.509 258.963 180.88C258.334 180.215 257.459 179.883 256.34 179.883C255.222 179.883 254.33 180.215 253.666 180.88C253.036 181.509 252.721 182.436 252.721 183.659V197.611C252.721 198.835 253.036 199.779 253.666 200.443C254.33 201.073 255.222 201.388 256.34 201.388ZM269.297 176.998H272.549L273.021 178.519L275.171 177.89C276.64 177.435 277.794 177.121 278.633 176.946C279.507 176.736 280.329 176.631 281.098 176.631C282.357 176.631 283.284 177.068 283.878 177.942C284.472 178.817 284.77 179.953 284.77 181.352V204.272H280.574V182.715C280.574 181.701 280.504 181.002 280.364 180.617C280.224 180.198 279.874 179.988 279.315 179.988C279.035 179.988 277.094 180.547 273.493 181.666V204.272H269.297V176.998ZM290.605 176.998H293.857L294.329 178.519L296.479 177.89C297.948 177.435 299.102 177.121 299.941 176.946C300.815 176.736 301.637 176.631 302.406 176.631C303.665 176.631 304.591 177.068 305.186 177.942C305.78 178.817 306.077 179.953 306.077 181.352V204.272H301.881V182.715C301.881 181.701 301.811 181.002 301.672 180.617C301.532 180.198 301.182 179.988 300.623 179.988C300.343 179.988 298.402 180.547 294.801 181.666V204.272H290.605V176.998ZM317.367 204.272C315.444 204.272 313.906 203.695 312.752 202.541C311.633 201.388 311.073 199.832 311.073 197.873V183.922C311.073 181.649 311.703 179.866 312.961 178.572C314.22 177.278 316.091 176.631 318.574 176.631C321.056 176.631 322.91 177.278 324.133 178.572C325.392 179.866 326.022 181.649 326.022 183.922V186.334C326.022 187.803 325.602 188.922 324.763 189.691C323.924 190.426 322.822 190.985 321.458 191.37L315.269 193.1V198.241C315.269 199.08 315.514 199.779 316.004 200.339C316.528 200.863 317.192 201.125 317.997 201.125H323.661V204.272H317.367ZM318.469 188.904C319.623 188.59 320.392 188.363 320.777 188.223C321.196 188.048 321.476 187.803 321.616 187.488C321.756 187.174 321.826 186.649 321.826 185.915V183.03C321.826 181.911 321.528 181.089 320.934 180.565C320.374 180.04 319.588 179.778 318.574 179.778C317.595 179.778 316.79 180.058 316.161 180.617C315.567 181.177 315.269 181.981 315.269 183.03V189.796L318.469 188.904ZM338.086 176.998H341.338L341.81 178.519L343.961 177.89C345.429 177.435 346.583 177.121 347.422 176.946C348.297 176.736 349.118 176.631 349.888 176.631C351.391 176.631 352.44 177.296 353.035 178.624C354.014 178.275 355.395 177.855 357.178 177.365C358.961 176.876 360.273 176.631 361.112 176.631C362.371 176.631 363.297 177.068 363.892 177.942C364.521 178.817 364.836 179.953 364.836 181.352V204.272H360.64V182.715C360.64 181.701 360.57 181.002 360.43 180.617C360.29 180.198 359.94 179.988 359.381 179.988C359.101 179.988 357.178 180.547 353.611 181.666V204.272H349.415V182.715C349.415 181.701 349.346 181.002 349.206 180.617C349.066 180.198 348.716 179.988 348.157 179.988C347.877 179.988 345.919 180.547 342.282 181.666V204.272H338.086V176.998ZM376.066 204.272C374.143 204.272 372.605 203.695 371.451 202.541C370.332 201.388 369.772 199.832 369.772 197.873V183.922C369.772 181.649 370.402 179.866 371.66 178.572C372.919 177.278 374.79 176.631 377.273 176.631C379.755 176.631 381.608 177.278 382.832 178.572C384.091 179.866 384.72 181.649 384.72 183.922V186.334C384.72 187.803 384.301 188.922 383.462 189.691C382.622 190.426 381.521 190.985 380.157 191.37L373.968 193.1V198.241C373.968 199.08 374.213 199.779 374.703 200.339C375.227 200.863 375.891 201.125 376.696 201.125H382.36V204.272H376.066ZM377.168 188.904C378.322 188.59 379.091 188.363 379.475 188.223C379.895 188.048 380.175 187.803 380.315 187.488C380.455 187.174 380.524 186.649 380.524 185.915V183.03C380.524 181.911 380.227 181.089 379.633 180.565C379.073 180.04 378.287 179.778 377.273 179.778C376.294 179.778 375.489 180.058 374.86 180.617C374.265 181.177 373.968 181.981 373.968 183.03V189.796L377.168 188.904ZM387.324 201.125H391.782C393.286 201.125 394.369 200.723 395.034 199.919C395.733 199.08 396.083 197.996 396.083 196.667C396.083 195.618 395.768 194.726 395.139 193.992C394.509 193.258 393.565 192.401 392.306 191.422C391.222 190.548 390.348 189.796 389.684 189.167C389.055 188.502 388.495 187.698 388.006 186.754C387.551 185.775 387.324 184.656 387.324 183.397C387.324 181.544 387.936 180.023 389.159 178.834C390.418 177.61 392.097 176.998 394.195 176.998H398.758V180.145H394.981C392.499 180.145 391.257 181.317 391.257 183.659C391.257 184.569 391.537 185.355 392.097 186.02C392.656 186.684 393.53 187.471 394.719 188.38C395.803 189.219 396.695 189.988 397.394 190.688C398.093 191.352 398.688 192.209 399.177 193.258C399.667 194.272 399.912 195.478 399.912 196.877C399.912 199.36 399.247 201.213 397.919 202.437C396.625 203.66 394.789 204.272 392.411 204.272H387.324V201.125ZM419.171 204.639C416.723 204.639 414.818 204.028 413.454 202.804C412.125 201.545 411.461 199.814 411.461 197.611V183.659C411.461 181.457 412.125 179.743 413.454 178.519C414.818 177.261 416.723 176.631 419.171 176.631C421.619 176.631 423.507 177.261 424.836 178.519C426.199 179.743 426.881 181.457 426.881 183.659V197.611C426.881 199.814 426.199 201.545 424.836 202.804C423.507 204.028 421.619 204.639 419.171 204.639ZM419.171 201.388C420.29 201.388 421.164 201.073 421.794 200.443C422.458 199.779 422.79 198.835 422.79 197.611V183.659C422.79 182.436 422.458 181.509 421.794 180.88C421.164 180.215 420.29 179.883 419.171 179.883C418.052 179.883 417.161 180.215 416.496 180.88C415.867 181.509 415.552 182.436 415.552 183.659V197.611C415.552 198.835 415.867 199.779 416.496 200.443C417.161 201.073 418.052 201.388 419.171 201.388ZM435.327 204.639C434.068 204.639 433.124 204.202 432.495 203.328C431.9 202.454 431.603 201.318 431.603 199.919V176.998H435.799V198.555C435.799 199.534 435.869 200.234 436.009 200.653C436.149 201.073 436.481 201.283 437.005 201.283C437.25 201.283 439.226 200.758 442.932 199.709V176.998H447.128V204.272H444.139L443.352 202.489C442.792 202.699 442.373 202.839 442.093 202.909C440.45 203.503 439.121 203.94 438.107 204.22C437.093 204.5 436.166 204.639 435.327 204.639ZM461.041 204.272C459.117 204.272 457.596 203.695 456.477 202.541C455.358 201.388 454.799 199.832 454.799 197.873V180.145H451.652V176.998H454.799V169.078L458.995 167.505V176.998H463.191V180.145H458.995V198.241C458.995 199.08 459.222 199.779 459.677 200.339C460.166 200.863 460.813 201.125 461.618 201.125H463.191V204.272H461.041ZM467.367 172.54V168.344H471.563V172.54H467.367ZM467.367 204.272V176.998H471.563V204.272H467.367ZM477.92 204.272V167.557H482.116V204.272H477.92ZM486.794 201.125H491.253C492.756 201.125 493.84 200.723 494.504 199.919C495.204 199.08 495.553 197.996 495.553 196.667C495.553 195.618 495.239 194.726 494.609 193.992C493.98 193.258 493.036 192.401 491.777 191.422C490.693 190.548 489.819 189.796 489.155 189.167C488.525 188.502 487.966 187.698 487.476 186.754C487.022 185.775 486.794 184.656 486.794 183.397C486.794 181.544 487.406 180.023 488.63 178.834C489.889 177.61 491.567 176.998 493.665 176.998H498.228V180.145H494.452C491.969 180.145 490.728 181.317 490.728 183.659C490.728 184.569 491.008 185.355 491.567 186.02C492.127 186.684 493.001 187.471 494.19 188.38C495.274 189.219 496.165 189.988 496.865 190.688C497.564 191.352 498.158 192.209 498.648 193.258C499.138 194.272 499.382 195.478 499.382 196.877C499.382 199.36 498.718 201.213 497.389 202.437C496.095 203.66 494.26 204.272 491.882 204.272H486.794V201.125ZM517.54 204.272C516.281 204.272 515.11 203.958 514.026 203.328C512.977 202.699 512.138 201.842 511.509 200.758C510.914 199.674 510.617 198.45 510.617 197.087V194.359C510.617 192.716 511.019 191.335 511.823 190.216C512.662 189.097 513.694 188.31 514.918 187.855L521.422 185.443V182.978C521.422 182.138 521.159 181.457 520.635 180.932C520.145 180.373 519.498 180.093 518.694 180.093H512.767V176.998H519.061C520.984 176.998 522.506 177.575 523.624 178.729C524.778 179.848 525.355 181.387 525.355 183.345V204.272H517.54ZM521.422 201.073V188.747L516.806 190.478C515.897 190.828 515.25 191.3 514.865 191.894C514.516 192.489 514.341 193.433 514.341 194.726V197.664C514.341 198.608 514.69 199.412 515.39 200.076C516.089 200.741 516.928 201.073 517.907 201.073H521.422ZM535.018 204.272L528.777 176.998H533.13L537.169 198.975L541.155 176.998H545.508L539.267 204.272H535.018ZM554.878 204.272C552.955 204.272 551.416 203.695 550.262 202.541C549.143 201.388 548.584 199.832 548.584 197.873V183.922C548.584 181.649 549.213 179.866 550.472 178.572C551.731 177.278 553.601 176.631 556.084 176.631C558.567 176.631 560.42 177.278 561.644 178.572C562.903 179.866 563.532 181.649 563.532 183.922V186.334C563.532 187.803 563.112 188.922 562.273 189.691C561.434 190.426 560.332 190.985 558.969 191.37L552.78 193.1V198.241C552.78 199.08 553.024 199.779 553.514 200.339C554.038 200.863 554.703 201.125 555.507 201.125H561.172V204.272H554.878ZM555.979 188.904C557.133 188.59 557.902 188.363 558.287 188.223C558.707 188.048 558.986 187.803 559.126 187.488C559.266 187.174 559.336 186.649 559.336 185.915V183.03C559.336 181.911 559.039 181.089 558.444 180.565C557.885 180.04 557.098 179.778 556.084 179.778C555.105 179.778 554.301 180.058 553.671 180.617C553.077 181.177 552.78 181.981 552.78 183.03V189.796L555.979 188.904ZM573.478 204.272C571.555 204.272 570.016 203.695 568.863 202.541C567.744 201.388 567.184 199.832 567.184 197.873V183.922C567.184 181.719 567.761 180.023 568.915 178.834C570.069 177.61 571.747 176.998 573.95 176.998H579.772V180.145H574.055C573.251 180.145 572.604 180.425 572.114 180.985C571.625 181.509 571.38 182.191 571.38 183.03V198.241C571.38 199.08 571.625 199.779 572.114 200.339C572.639 200.863 573.303 201.125 574.108 201.125H579.772V204.272H573.478ZM598.245 204.272C596.042 204.272 594.259 203.625 592.895 202.332C591.531 201.038 590.849 199.307 590.849 197.139V184.079C590.849 182.576 591.252 181.299 592.056 180.25C592.895 179.201 593.926 178.484 595.15 178.1L602.179 175.635V167.557H606.375V204.272H598.245ZM602.179 201.125V179.096L597.511 180.67C596.601 180.95 595.955 181.404 595.57 182.034C595.22 182.628 595.045 183.59 595.045 184.918V197.139C595.045 198.398 595.413 199.377 596.147 200.076C596.881 200.776 597.878 201.125 599.136 201.125H602.179ZM618.135 204.272C616.212 204.272 614.674 203.695 613.52 202.541C612.401 201.388 611.841 199.832 611.841 197.873V183.922C611.841 181.649 612.471 179.866 613.729 178.572C614.988 177.278 616.859 176.631 619.342 176.631C621.824 176.631 623.677 177.278 624.901 178.572C626.16 179.866 626.789 181.649 626.789 183.922V186.334C626.789 187.803 626.37 188.922 625.531 189.691C624.691 190.426 623.59 190.985 622.226 191.37L616.037 193.1V198.241C616.037 199.08 616.282 199.779 616.772 200.339C617.296 200.863 617.96 201.125 618.765 201.125H624.429V204.272H618.135ZM619.237 188.904C620.391 188.59 621.16 188.363 621.544 188.223C621.964 188.048 622.244 187.803 622.384 187.488C622.524 187.174 622.593 186.649 622.593 185.915V183.03C622.593 181.911 622.296 181.089 621.702 180.565C621.142 180.04 620.356 179.778 619.342 179.778C618.363 179.778 617.558 180.058 616.929 180.617C616.334 181.177 616.037 181.981 616.037 183.03V189.796L619.237 188.904ZM629.393 201.125H633.851C635.355 201.125 636.439 200.723 637.103 199.919C637.802 199.08 638.152 197.996 638.152 196.667C638.152 195.618 637.837 194.726 637.208 193.992C636.578 193.258 635.634 192.401 634.375 191.422C633.292 190.548 632.417 189.796 631.753 189.167C631.124 188.502 630.564 187.698 630.075 186.754C629.62 185.775 629.393 184.656 629.393 183.397C629.393 181.544 630.005 180.023 631.228 178.834C632.487 177.61 634.166 176.998 636.264 176.998H640.827V180.145H637.05C634.568 180.145 633.326 181.317 633.326 183.659C633.326 184.569 633.606 185.355 634.166 186.02C634.725 186.684 635.599 187.471 636.788 188.38C637.872 189.219 638.764 189.988 639.463 190.688C640.162 191.352 640.757 192.209 641.246 193.258C641.736 194.272 641.981 195.478 641.981 196.877C641.981 199.36 641.316 201.213 639.988 202.437C638.694 203.66 636.858 204.272 634.48 204.272H629.393V201.125ZM654.631 204.272V167.557H658.827V204.272H654.631ZM671.74 204.639C669.293 204.639 667.387 204.028 666.023 202.804C664.695 201.545 664.03 199.814 664.03 197.611V183.659C664.03 181.457 664.695 179.743 666.023 178.519C667.387 177.261 669.293 176.631 671.74 176.631C674.188 176.631 676.076 177.261 677.405 178.519C678.769 179.743 679.451 181.457 679.451 183.659V197.611C679.451 199.814 678.769 201.545 677.405 202.804C676.076 204.028 674.188 204.639 671.74 204.639ZM671.74 201.388C672.859 201.388 673.734 201.073 674.363 200.443C675.027 199.779 675.359 198.835 675.359 197.611V183.659C675.359 182.436 675.027 181.509 674.363 180.88C673.734 180.215 672.859 179.883 671.74 179.883C670.621 179.883 669.73 180.215 669.065 180.88C668.436 181.509 668.121 182.436 668.121 183.659V197.611C668.121 198.835 668.436 199.779 669.065 200.443C669.73 201.073 670.621 201.388 671.74 201.388ZM686.9 209.517H692.302C693.106 209.517 693.736 209.238 694.19 208.678C694.68 208.154 694.924 207.472 694.924 206.633V204.325H690.571C688.648 204.325 687.022 203.695 685.693 202.437C684.365 201.178 683.7 199.604 683.7 197.716V183.607C683.7 181.719 684.365 180.145 685.693 178.887C687.057 177.628 688.7 176.998 690.624 176.998H699.173V206.265C699.173 208.224 698.631 209.78 697.547 210.933C696.498 212.087 695.012 212.664 693.089 212.664H686.9V209.517ZM694.977 201.178V180.145H691.463C690.484 180.145 689.645 180.478 688.945 181.142C688.246 181.806 687.896 182.628 687.896 183.607V197.716C687.896 198.695 688.246 199.517 688.945 200.181C689.645 200.846 690.484 201.178 691.463 201.178H694.977ZM704.929 172.54V168.344H709.125V172.54H704.929ZM704.929 204.272V176.998H709.125V204.272H704.929ZM721.199 204.272C719.275 204.272 717.737 203.695 716.583 202.541C715.464 201.388 714.905 199.832 714.905 197.873V183.922C714.905 181.719 715.482 180.023 716.636 178.834C717.789 177.61 719.468 176.998 721.671 176.998H727.493V180.145H721.776C720.971 180.145 720.324 180.425 719.835 180.985C719.345 181.509 719.101 182.191 719.101 183.03V198.241C719.101 199.08 719.345 199.779 719.835 200.339C720.359 200.863 721.024 201.125 721.828 201.125H727.493V204.272H721.199ZM731.154 172.54V168.344H735.35V172.54H731.154ZM731.154 204.272V176.998H735.35V204.272H731.154ZM747.109 204.272C745.186 204.272 743.647 203.695 742.493 202.541C741.374 201.388 740.815 199.832 740.815 197.873V183.922C740.815 181.649 741.444 179.866 742.703 178.572C743.962 177.278 745.833 176.631 748.315 176.631C750.798 176.631 752.651 177.278 753.875 178.572C755.134 179.866 755.763 181.649 755.763 183.922V186.334C755.763 187.803 755.344 188.922 754.504 189.691C753.665 190.426 752.564 190.985 751.2 191.37L745.011 193.1V198.241C745.011 199.08 745.256 199.779 745.745 200.339C746.27 200.863 746.934 201.125 747.738 201.125H753.403V204.272H747.109ZM748.21 188.904C749.364 188.59 750.134 188.363 750.518 188.223C750.938 188.048 751.218 187.803 751.357 187.488C751.497 187.174 751.567 186.649 751.567 185.915V183.03C751.567 181.911 751.27 181.089 750.676 180.565C750.116 180.04 749.329 179.778 748.315 179.778C747.336 179.778 746.532 180.058 745.903 180.617C745.308 181.177 745.011 181.981 745.011 183.03V189.796L748.21 188.904ZM759.992 204.272V167.557H764.188V204.272H759.992ZM768.867 201.125H773.325C774.829 201.125 775.912 200.723 776.577 199.919C777.276 199.08 777.626 197.996 777.626 196.667C777.626 195.618 777.311 194.726 776.682 193.992C776.052 193.258 775.108 192.401 773.849 191.422C772.765 190.548 771.891 189.796 771.227 189.167C770.598 188.502 770.038 187.698 769.549 186.754C769.094 185.775 768.867 184.656 768.867 183.397C768.867 181.544 769.479 180.023 770.702 178.834C771.961 177.61 773.64 176.998 775.738 176.998H780.301V180.145H776.524C774.042 180.145 772.8 181.317 772.8 183.659C772.8 184.569 773.08 185.355 773.64 186.02C774.199 186.684 775.073 187.471 776.262 188.38C777.346 189.219 778.238 189.988 778.937 190.688C779.636 191.352 780.231 192.209 780.72 193.258C781.21 194.272 781.455 195.478 781.455 196.877C781.455 199.36 780.79 201.213 779.462 202.437C778.168 203.66 776.332 204.272 773.954 204.272H768.867V201.125ZM794.105 204.272V167.557H798.301V204.272H794.105ZM804.553 172.54V168.344H808.749V172.54H804.553ZM804.553 204.272V176.998H808.749V204.272H804.553ZM815.053 167.557H819.249V175.74L826.278 178.205C827.502 178.624 828.516 179.359 829.32 180.408C830.159 181.422 830.579 182.68 830.579 184.184V197.664C830.579 199.552 829.914 201.125 828.586 202.384C827.257 203.643 825.631 204.272 823.708 204.272H815.053V167.557ZM822.816 201.125C823.795 201.125 824.634 200.793 825.334 200.129C826.033 199.464 826.383 198.643 826.383 197.664V185.023C826.383 183.694 826.19 182.733 825.806 182.138C825.456 181.509 824.827 181.054 823.917 180.775L819.249 179.201V201.125H822.816ZM835.542 176.998H838.794L839.266 178.939L840.577 178.31C841.696 177.75 842.622 177.331 843.357 177.051C844.126 176.771 844.895 176.631 845.665 176.631V179.726C845.21 179.726 844.598 179.866 843.829 180.145C843.06 180.39 841.696 180.985 839.738 181.929V204.272H835.542V176.998ZM855.031 204.272C853.108 204.272 851.569 203.695 850.415 202.541C849.296 201.388 848.737 199.832 848.737 197.873V183.922C848.737 181.649 849.366 179.866 850.625 178.572C851.884 177.278 853.755 176.631 856.237 176.631C858.72 176.631 860.573 177.278 861.797 178.572C863.056 179.866 863.685 181.649 863.685 183.922V186.334C863.685 187.803 863.266 188.922 862.426 189.691C861.587 190.426 860.486 190.985 859.122 191.37L852.933 193.1V198.241C852.933 199.08 853.178 199.779 853.667 200.339C854.192 200.863 854.856 201.125 855.66 201.125H861.325V204.272H855.031ZM856.132 188.904C857.286 188.59 858.056 188.363 858.44 188.223C858.86 188.048 859.14 187.803 859.279 187.488C859.419 187.174 859.489 186.649 859.489 185.915V183.03C859.489 181.911 859.192 181.089 858.598 180.565C858.038 180.04 857.251 179.778 856.237 179.778C855.258 179.778 854.454 180.058 853.825 180.617C853.23 181.177 852.933 181.981 852.933 183.03V189.796L856.132 188.904ZM866.289 201.125H870.747C872.25 201.125 873.334 200.723 873.999 199.919C874.698 199.08 875.048 197.996 875.048 196.667C875.048 195.618 874.733 194.726 874.104 193.992C873.474 193.258 872.53 192.401 871.271 191.422C870.187 190.548 869.313 189.796 868.649 189.167C868.019 188.502 867.46 187.698 866.97 186.754C866.516 185.775 866.289 184.656 866.289 183.397C866.289 181.544 866.9 180.023 868.124 178.834C869.383 177.61 871.061 176.998 873.159 176.998H877.723V180.145H873.946C871.464 180.145 870.222 181.317 870.222 183.659C870.222 184.569 870.502 185.355 871.061 186.02C871.621 186.684 872.495 187.471 873.684 188.38C874.768 189.219 875.66 189.988 876.359 190.688C877.058 191.352 877.653 192.209 878.142 193.258C878.632 194.272 878.877 195.478 878.877 196.877C878.877 199.36 878.212 201.213 876.883 202.437C875.59 203.66 873.754 204.272 871.376 204.272H866.289V201.125ZM882.59 204.272V198.87H886.786V204.272H882.59Z" fill="#1E1E1E"/>
<rect x="99.553" width="313.669" height="88.9178" fill="black"/>
<path d="M152.14 62.9589C151.736 62.9589 151.534 62.757 151.534 62.3533V31.2704C151.534 30.8666 151.736 30.6647 152.14 30.6647H168.735C169.139 30.6647 169.341 30.8666 169.341 31.2704V36.5033C169.341 36.9071 169.139 37.109 168.735 37.109H159.602V45.2007H167.524C167.928 45.2007 168.13 45.4026 168.13 45.8064V51.0394C168.13 51.4432 167.928 51.645 167.524 51.645H159.602V62.3533C159.602 62.757 159.4 62.9589 158.996 62.9589H152.14ZM179.432 62.9589C179.061 62.9589 178.738 62.8216 178.463 62.5471L173.618 57.7017C173.343 57.4433 173.206 57.1203 173.206 56.7327V36.8667C173.206 36.4953 173.343 36.1722 173.618 35.8977L178.463 31.0523C178.738 30.7939 179.061 30.6647 179.432 30.6647H188.953C189.341 30.6647 189.664 30.7939 189.922 31.0523L194.768 35.8977C195.042 36.1722 195.18 36.4953 195.18 36.8667V56.7327C195.18 57.1203 195.042 57.4433 194.768 57.7017L189.922 62.5471C189.664 62.8216 189.341 62.9589 188.953 62.9589H179.432ZM182.291 56.4904H186.095C186.773 56.4904 187.112 56.0382 187.112 55.1337V38.4899C187.112 37.5693 186.773 37.109 186.095 37.109H182.291C181.629 37.109 181.298 37.5693 181.298 38.4899V55.1337C181.298 56.0382 181.629 56.4904 182.291 56.4904ZM201.587 62.9589C201.183 62.9589 200.982 62.757 200.982 62.3533V31.2704C200.982 30.8666 201.183 30.6647 201.587 30.6647H214.718C215.106 30.6647 215.429 30.7697 215.687 30.9796L221.259 36.5033C221.437 36.6649 221.542 36.8021 221.574 36.9152C221.623 37.0283 221.647 37.214 221.647 37.4724V44.1105C221.647 44.3205 221.566 44.5062 221.405 44.6677L218.74 47.26L216.487 49.1981L219.152 52.7352L221.889 58.5981C221.954 58.7435 222.002 58.8888 222.035 59.0342C222.083 59.1634 222.107 59.3249 222.107 59.5187V62.3533C222.107 62.757 221.905 62.9589 221.502 62.9589H215.106C214.75 62.9589 214.508 62.7974 214.379 62.4744L210.478 51.1363H208.661V62.3533C208.661 62.757 208.46 62.9589 208.056 62.9589H201.587ZM211.326 45.2007C212.667 45.2007 213.579 44.9262 214.064 44.377C214.548 43.8117 214.791 42.7619 214.791 41.2276C214.791 39.677 214.548 38.6272 214.064 38.0781C213.579 37.5128 212.667 37.2301 211.326 37.2301C210.002 37.2301 209.089 37.5128 208.589 38.0781C208.088 38.6272 207.838 39.677 207.838 41.2276C207.838 42.7619 208.088 43.8117 208.589 44.377C209.089 44.9262 210.002 45.2007 211.326 45.2007ZM232.192 62.9589C231.804 62.9589 231.481 62.8216 231.223 62.5471L226.377 57.7017C226.103 57.4433 225.965 57.1203 225.965 56.7327V36.8667C225.965 36.4953 226.103 36.1722 226.377 35.8977L231.223 31.0523C231.481 30.7939 231.804 30.6647 232.192 30.6647H246.51C246.913 30.6647 247.115 30.8666 247.115 31.2704V36.5033C247.115 36.9071 246.913 37.109 246.51 37.109H234.857C234.63 37.109 234.437 37.1898 234.275 37.3513C234.114 37.5128 234.033 37.7066 234.033 37.9327V55.6425C234.033 55.8686 234.114 56.0624 234.275 56.2239C234.437 56.3854 234.63 56.4662 234.857 56.4662H240.09V49.9976H236.988C236.585 49.9976 236.383 49.7957 236.383 49.392V44.1832C236.383 43.7794 236.585 43.5775 236.988 43.5775H246.921C247.325 43.5775 247.527 43.7794 247.527 44.1832V56.7327C247.527 57.1203 247.39 57.4433 247.115 57.7017L242.27 62.5471C242.011 62.8216 241.688 62.9589 241.301 62.9589H232.192ZM253.211 62.9589C252.807 62.9589 252.605 62.757 252.605 62.3533V31.2704C252.605 30.8666 252.807 30.6647 253.211 30.6647H270.097C270.501 30.6647 270.703 30.8666 270.703 31.2704V36.5033C270.703 36.9071 270.501 37.109 270.097 37.109H260.673V43.9894H269.273C269.677 43.9894 269.879 44.1913 269.879 44.5951V49.0286C269.879 49.4323 269.677 49.6342 269.273 49.6342H260.673V56.4904H270.097C270.501 56.4904 270.703 56.6923 270.703 57.0961V62.3533C270.703 62.757 270.501 62.9589 270.097 62.9589H253.211ZM277.106 62.9589C276.703 62.9589 276.501 62.757 276.501 62.3533V31.2704C276.501 30.8666 276.703 30.6647 277.106 30.6647H290.237C290.625 30.6647 290.948 30.7697 291.206 30.9796L296.779 36.5033C296.956 36.6649 297.061 36.8021 297.093 36.9152C297.142 37.0283 297.166 37.214 297.166 37.4724V44.1105C297.166 44.3205 297.085 44.5062 296.924 44.6677L294.259 47.26L292.006 49.1981L294.671 52.7352L297.408 58.5981C297.473 58.7435 297.521 58.8888 297.554 59.0342C297.602 59.1634 297.626 59.3249 297.626 59.5187V62.3533C297.626 62.757 297.425 62.9589 297.021 62.9589H290.625C290.27 62.9589 290.027 62.7974 289.898 62.4744L285.998 51.1363H284.181V62.3533C284.181 62.757 283.979 62.9589 283.575 62.9589H277.106ZM286.846 45.2007C288.186 45.2007 289.099 44.9262 289.583 44.377C290.068 43.8117 290.31 42.7619 290.31 41.2276C290.31 39.677 290.068 38.6272 289.583 38.0781C289.099 37.5128 288.186 37.2301 286.846 37.2301C285.521 37.2301 284.609 37.5128 284.108 38.0781C283.607 38.6272 283.357 39.677 283.357 41.2276C283.357 42.7619 283.607 43.8117 284.108 44.377C284.609 44.9262 285.521 45.2007 286.846 45.2007ZM307.711 62.9589C307.339 62.9589 307.016 62.8216 306.742 62.5471L301.896 57.7017C301.622 57.4433 301.485 57.1203 301.485 56.7327V36.8667C301.485 36.4953 301.622 36.1722 301.896 35.8977L306.742 31.0523C307.016 30.7939 307.339 30.6647 307.711 30.6647H317.232C317.62 30.6647 317.943 30.7939 318.201 31.0523L323.046 35.8977C323.321 36.1722 323.458 36.4953 323.458 36.8667V56.7327C323.458 57.1203 323.321 57.4433 323.046 57.7017L318.201 62.5471C317.943 62.8216 317.62 62.9589 317.232 62.9589H307.711ZM310.57 56.4904H314.373C315.052 56.4904 315.391 56.0382 315.391 55.1337V38.4899C315.391 37.5693 315.052 37.109 314.373 37.109H310.57C309.907 37.109 309.576 37.5693 309.576 38.4899V55.1337C309.576 56.0382 309.907 56.4904 310.57 56.4904ZM329.866 62.9589C329.462 62.9589 329.26 62.757 329.26 62.3533V31.2704C329.26 30.8666 329.462 30.6647 329.866 30.6647H343.627C344.014 30.6647 344.337 30.7939 344.596 31.0523L349.441 35.8977C349.716 36.1722 349.853 36.4953 349.853 36.8667V62.3533C349.853 62.757 349.651 62.9589 349.247 62.9589H342.391C341.987 62.9589 341.785 62.757 341.785 62.3533V37.109H337.328V62.3533C337.328 62.757 337.126 62.9589 336.722 62.9589H329.866ZM356.269 62.9589C355.865 62.9589 355.663 62.757 355.663 62.3533V31.2704C355.663 30.8666 355.865 30.6647 356.269 30.6647H373.155C373.559 30.6647 373.761 30.8666 373.761 31.2704V36.5033C373.761 36.9071 373.559 37.109 373.155 37.109H363.731V43.9894H372.331C372.735 43.9894 372.937 44.1913 372.937 44.5951V49.0286C372.937 49.4323 372.735 49.6342 372.331 49.6342H363.731V56.4904H373.155C373.559 56.4904 373.761 56.6923 373.761 57.0961V62.3533C373.761 62.757 373.559 62.9589 373.155 62.9589H356.269Z" fill="#FFF1E9"/>
</svg>
