<svg width="1229" height="279" viewBox="0 0 1229 279" fill="none" xmlns="http://www.w3.org/2000/svg">
<rect x="3.75794" y="40.7006" width="1221.47" height="233.662" fill="#FFF1E9" stroke="black" stroke-width="7.51635"/>
<path d="M160.9 152.094C157.718 152.094 155.253 151.29 153.505 149.681C151.756 148.073 150.882 145.712 150.882 142.6V124.872C150.882 121.76 151.756 119.4 153.505 117.792C155.253 116.183 157.718 115.379 160.9 115.379H167.929V118.841H160.9C159.292 118.841 157.981 119.313 156.967 120.257C155.987 121.166 155.498 122.39 155.498 123.928V143.544C155.498 145.083 155.987 146.324 156.967 147.268C157.981 148.178 159.292 148.632 160.9 148.632H167.929V152.094H160.9ZM172.109 115.379H176.305V126.236L178.612 125.554C180.046 125.135 181.095 124.855 181.759 124.715C182.459 124.54 183.176 124.453 183.91 124.453C185.169 124.453 186.095 124.89 186.69 125.764C187.284 126.638 187.581 127.774 187.581 129.173V152.094H183.385V130.537C183.385 129.523 183.315 128.823 183.176 128.439C183.036 128.019 182.686 127.809 182.127 127.809C181.847 127.809 179.906 128.369 176.305 129.488V152.094H172.109V115.379ZM199.488 152.094C198.229 152.094 197.058 151.779 195.974 151.15C194.925 150.52 194.086 149.664 193.457 148.58C192.862 147.496 192.565 146.272 192.565 144.908V142.181C192.565 140.537 192.967 139.156 193.771 138.037C194.61 136.918 195.642 136.132 196.866 135.677L203.37 133.264V130.799C203.37 129.96 203.107 129.278 202.583 128.754C202.093 128.194 201.446 127.914 200.642 127.914H194.715V124.82H201.009C202.933 124.82 204.454 125.397 205.572 126.551C206.726 127.67 207.303 129.208 207.303 131.166V152.094H199.488ZM203.37 148.894V136.569L198.754 138.299C197.845 138.649 197.198 139.121 196.813 139.716C196.464 140.31 196.289 141.254 196.289 142.548V145.485C196.289 146.429 196.639 147.233 197.338 147.898C198.037 148.562 198.876 148.894 199.855 148.894H203.37ZM223.313 152.094H218.96C217.036 152.094 215.41 151.482 214.082 150.258C212.753 148.999 212.089 147.426 212.089 145.538V131.429C212.089 129.54 212.753 127.967 214.082 126.708C215.445 125.449 217.089 124.82 219.012 124.82H227.561V160.486H223.313V152.094ZM223.365 148.947V127.967H219.851C218.872 127.967 218.033 128.299 217.334 128.963C216.634 129.628 216.285 130.449 216.285 131.429V145.485C216.285 146.464 216.634 147.286 217.334 147.95C218.033 148.615 218.872 148.947 219.851 148.947H223.365ZM237.08 152.461C235.821 152.461 234.877 152.024 234.248 151.15C233.653 150.276 233.356 149.139 233.356 147.74V124.82H237.552V146.377C237.552 147.356 237.622 148.055 237.762 148.475C237.902 148.894 238.234 149.104 238.759 149.104C239.003 149.104 240.979 148.58 244.685 147.531V124.82H248.881V152.094H245.892L245.105 150.311C244.546 150.52 244.126 150.66 243.846 150.73C242.203 151.325 240.874 151.762 239.86 152.041C238.846 152.321 237.919 152.461 237.08 152.461ZM260.643 152.094C258.72 152.094 257.182 151.517 256.028 150.363C254.909 149.209 254.349 147.653 254.349 145.695V131.743C254.349 129.47 254.979 127.687 256.238 126.393C257.496 125.1 259.367 124.453 261.85 124.453C264.332 124.453 266.186 125.1 267.409 126.393C268.668 127.687 269.298 129.47 269.298 131.743V134.156C269.298 135.625 268.878 136.743 268.039 137.513C267.2 138.247 266.098 138.806 264.734 139.191L258.545 140.922V146.062C258.545 146.901 258.79 147.601 259.28 148.16C259.804 148.685 260.469 148.947 261.273 148.947H266.937V152.094H260.643ZM261.745 136.726C262.899 136.411 263.668 136.184 264.053 136.044C264.472 135.869 264.752 135.625 264.892 135.31C265.032 134.995 265.102 134.471 265.102 133.736V130.852C265.102 129.733 264.804 128.911 264.21 128.386C263.65 127.862 262.864 127.6 261.85 127.6C260.871 127.6 260.066 127.879 259.437 128.439C258.843 128.998 258.545 129.803 258.545 130.852V137.618L261.745 136.726ZM287.132 152.094C285.209 152.094 283.67 151.517 282.516 150.363C281.397 149.209 280.838 147.653 280.838 145.695V131.743C280.838 129.54 281.415 127.844 282.569 126.656C283.723 125.432 285.401 124.82 287.604 124.82H293.426V127.967H287.709C286.905 127.967 286.258 128.247 285.768 128.806C285.279 129.331 285.034 130.012 285.034 130.852V146.062C285.034 146.901 285.279 147.601 285.768 148.16C286.293 148.685 286.957 148.947 287.761 148.947H293.426V152.094H287.132ZM302.647 152.094C301.388 152.094 300.217 151.779 299.133 151.15C298.084 150.52 297.244 149.664 296.615 148.58C296.021 147.496 295.723 146.272 295.723 144.908V142.181C295.723 140.537 296.126 139.156 296.93 138.037C297.769 136.918 298.8 136.132 300.024 135.677L306.528 133.264V130.799C306.528 129.96 306.266 129.278 305.741 128.754C305.252 128.194 304.605 127.914 303.801 127.914H297.874V124.82H304.168C306.091 124.82 307.612 125.397 308.731 126.551C309.885 127.67 310.462 129.208 310.462 131.166V152.094H302.647ZM306.528 148.894V136.569L301.912 138.299C301.003 138.649 300.356 139.121 299.972 139.716C299.622 140.31 299.447 141.254 299.447 142.548V145.485C299.447 146.429 299.797 147.233 300.496 147.898C301.196 148.562 302.035 148.894 303.014 148.894H306.528ZM316.244 124.82H319.496L319.968 126.76L321.279 126.131C322.398 125.572 323.324 125.152 324.059 124.872C324.828 124.593 325.597 124.453 326.366 124.453V127.547C325.912 127.547 325.3 127.687 324.531 127.967C323.761 128.212 322.398 128.806 320.44 129.75V152.094H316.244V124.82ZM337.883 152.094C335.96 152.094 334.439 151.517 333.32 150.363C332.201 149.209 331.642 147.653 331.642 145.695V127.967H328.495V124.82H331.642V116.9L335.838 115.326V124.82H340.034V127.967H335.838V146.062C335.838 146.901 336.065 147.601 336.52 148.16C337.009 148.685 337.656 148.947 338.46 148.947H340.034V152.094H337.883ZM349.665 152.094C347.742 152.094 346.203 151.517 345.049 150.363C343.93 149.209 343.371 147.653 343.371 145.695V131.743C343.371 129.47 344 127.687 345.259 126.393C346.518 125.1 348.389 124.453 350.871 124.453C353.354 124.453 355.207 125.1 356.431 126.393C357.69 127.687 358.319 129.47 358.319 131.743V134.156C358.319 135.625 357.9 136.743 357.06 137.513C356.221 138.247 355.12 138.806 353.756 139.191L347.567 140.922V146.062C347.567 146.901 347.812 147.601 348.301 148.16C348.826 148.685 349.49 148.947 350.294 148.947H355.959V152.094H349.665ZM350.766 136.726C351.92 136.411 352.69 136.184 353.074 136.044C353.494 135.869 353.774 135.625 353.913 135.31C354.053 134.995 354.123 134.471 354.123 133.736V130.852C354.123 129.733 353.826 128.911 353.232 128.386C352.672 127.862 351.885 127.6 350.871 127.6C349.892 127.6 349.088 127.879 348.459 128.439C347.864 128.998 347.567 129.803 347.567 130.852V137.618L350.766 136.726ZM376.153 152.094C374.23 152.094 372.692 151.517 371.538 150.363C370.419 149.209 369.859 147.653 369.859 145.695V131.743C369.859 129.54 370.436 127.844 371.59 126.656C372.744 125.432 374.423 124.82 376.625 124.82H382.447V127.967H376.73C375.926 127.967 375.279 128.247 374.79 128.806C374.3 129.331 374.055 130.012 374.055 130.852V146.062C374.055 146.901 374.3 147.601 374.79 148.16C375.314 148.685 375.979 148.947 376.783 148.947H382.447V152.094H376.153ZM391.668 152.094C390.41 152.094 389.238 151.779 388.154 151.15C387.105 150.52 386.266 149.664 385.637 148.58C385.042 147.496 384.745 146.272 384.745 144.908V142.181C384.745 140.537 385.147 139.156 385.951 138.037C386.791 136.918 387.822 136.132 389.046 135.677L395.55 133.264V130.799C395.55 129.96 395.287 129.278 394.763 128.754C394.273 128.194 393.627 127.914 392.822 127.914H386.895V124.82H393.189C395.113 124.82 396.634 125.397 397.753 126.551C398.906 127.67 399.483 129.208 399.483 131.166V152.094H391.668ZM395.55 148.894V136.569L390.934 138.299C390.025 138.649 389.378 139.121 388.993 139.716C388.644 140.31 388.469 141.254 388.469 142.548V145.485C388.469 146.429 388.819 147.233 389.518 147.898C390.217 148.562 391.056 148.894 392.036 148.894H395.55ZM411.035 152.094C409.112 152.094 407.573 151.517 406.419 150.363C405.3 149.209 404.741 147.653 404.741 145.695V131.743C404.741 129.54 405.318 127.844 406.472 126.656C407.625 125.432 409.304 124.82 411.507 124.82H417.329V127.967H411.612C410.807 127.967 410.161 128.247 409.671 128.806C409.181 129.331 408.937 130.012 408.937 130.852V146.062C408.937 146.901 409.181 147.601 409.671 148.16C410.196 148.685 410.86 148.947 411.664 148.947H417.329V152.094H411.035ZM420.99 115.379H425.186V126.236L427.494 125.554C428.927 125.135 429.976 124.855 430.641 124.715C431.34 124.54 432.057 124.453 432.791 124.453C434.05 124.453 434.977 124.89 435.571 125.764C436.166 126.638 436.463 127.774 436.463 129.173V152.094H432.267V130.537C432.267 129.523 432.197 128.823 432.057 128.439C431.917 128.019 431.567 127.809 431.008 127.809C430.728 127.809 428.788 128.369 425.186 129.488V152.094H420.99V115.379ZM448.265 152.094C446.342 152.094 444.803 151.517 443.649 150.363C442.53 149.209 441.971 147.653 441.971 145.695V131.743C441.971 129.47 442.6 127.687 443.859 126.393C445.118 125.1 446.989 124.453 449.471 124.453C451.954 124.453 453.807 125.1 455.031 126.393C456.29 127.687 456.919 129.47 456.919 131.743V134.156C456.919 135.625 456.499 136.743 455.66 137.513C454.821 138.247 453.72 138.806 452.356 139.191L446.167 140.922V146.062C446.167 146.901 446.412 147.601 446.901 148.16C447.426 148.685 448.09 148.947 448.894 148.947H454.559V152.094H448.265ZM449.366 136.726C450.52 136.411 451.289 136.184 451.674 136.044C452.094 135.869 452.373 135.625 452.513 135.31C452.653 134.995 452.723 134.471 452.723 133.736V130.852C452.723 129.733 452.426 128.911 451.831 128.386C451.272 127.862 450.485 127.6 449.471 127.6C448.492 127.6 447.688 127.879 447.058 128.439C446.464 128.998 446.167 129.803 446.167 130.852V137.618L449.366 136.726ZM472.183 152.461C470.924 152.461 469.98 152.024 469.351 151.15C468.757 150.276 468.459 149.139 468.459 147.74V124.82H472.655V146.377C472.655 147.356 472.725 148.055 472.865 148.475C473.005 148.894 473.337 149.104 473.862 149.104C474.106 149.104 476.082 148.58 479.788 147.531V124.82H483.984V152.094H480.995L480.208 150.311C479.649 150.52 479.229 150.66 478.949 150.73C477.306 151.325 475.977 151.762 474.963 152.041C473.949 152.321 473.022 152.461 472.183 152.461ZM490.292 124.82H493.543L494.016 126.341L496.166 125.711C497.635 125.257 498.788 124.942 499.628 124.767C500.502 124.558 501.324 124.453 502.093 124.453C503.352 124.453 504.278 124.89 504.873 125.764C505.467 126.638 505.764 127.774 505.764 129.173V152.094H501.568V130.537C501.568 129.523 501.498 128.823 501.359 128.439C501.219 128.019 500.869 127.809 500.31 127.809C500.03 127.809 498.089 128.369 494.488 129.488V152.094H490.292V124.82ZM519.54 152.094V115.379H523.736V152.094H519.54ZM536.649 152.461C534.201 152.461 532.295 151.849 530.932 150.625C529.603 149.366 528.939 147.636 528.939 145.433V131.481C528.939 129.278 529.603 127.565 530.932 126.341C532.295 125.082 534.201 124.453 536.649 124.453C539.096 124.453 540.985 125.082 542.313 126.341C543.677 127.565 544.359 129.278 544.359 131.481V145.433C544.359 147.636 543.677 149.366 542.313 150.625C540.985 151.849 539.096 152.461 536.649 152.461ZM536.649 149.209C537.768 149.209 538.642 148.894 539.271 148.265C539.936 147.601 540.268 146.656 540.268 145.433V131.481C540.268 130.257 539.936 129.331 539.271 128.701C538.642 128.037 537.768 127.705 536.649 127.705C535.53 127.705 534.638 128.037 533.974 128.701C533.344 129.331 533.03 130.257 533.03 131.481V145.433C533.03 146.656 533.344 147.601 533.974 148.265C534.638 148.894 535.53 149.209 536.649 149.209ZM551.808 157.339H557.21C558.015 157.339 558.644 157.059 559.099 156.5C559.588 155.975 559.833 155.293 559.833 154.454V152.146H555.48C553.556 152.146 551.93 151.517 550.602 150.258C549.273 148.999 548.609 147.426 548.609 145.538V131.429C548.609 129.54 549.273 127.967 550.602 126.708C551.965 125.449 553.609 124.82 555.532 124.82H564.081V154.087C564.081 156.045 563.539 157.601 562.455 158.755C561.406 159.909 559.92 160.486 557.997 160.486H551.808V157.339ZM559.885 148.999V127.967H556.371C555.392 127.967 554.553 128.299 553.854 128.963C553.154 129.628 552.805 130.449 552.805 131.429V145.538C552.805 146.517 553.154 147.338 553.854 148.003C554.553 148.667 555.392 148.999 556.371 148.999H559.885ZM569.837 120.362V116.166H574.033V120.362H569.837ZM569.837 152.094V124.82H574.033V152.094H569.837ZM586.107 152.094C584.184 152.094 582.645 151.517 581.491 150.363C580.373 149.209 579.813 147.653 579.813 145.695V131.743C579.813 129.54 580.39 127.844 581.544 126.656C582.698 125.432 584.376 124.82 586.579 124.82H592.401V127.967H586.684C585.88 127.967 585.233 128.247 584.743 128.806C584.254 129.331 584.009 130.012 584.009 130.852V146.062C584.009 146.901 584.254 147.601 584.743 148.16C585.268 148.685 585.932 148.947 586.736 148.947H592.401V152.094H586.107ZM596.062 120.362V116.166H600.258V120.362H596.062ZM596.062 152.094V124.82H600.258V152.094H596.062ZM612.017 152.094C610.094 152.094 608.556 151.517 607.402 150.363C606.283 149.209 605.723 147.653 605.723 145.695V131.743C605.723 129.47 606.353 127.687 607.612 126.393C608.87 125.1 610.741 124.453 613.224 124.453C615.706 124.453 617.56 125.1 618.783 126.393C620.042 127.687 620.672 129.47 620.672 131.743V134.156C620.672 135.625 620.252 136.743 619.413 137.513C618.574 138.247 617.472 138.806 616.108 139.191L609.919 140.922V146.062C609.919 146.901 610.164 147.601 610.654 148.16C611.178 148.685 611.843 148.947 612.647 148.947H618.311V152.094H612.017ZM613.119 136.726C614.273 136.411 615.042 136.184 615.427 136.044C615.846 135.869 616.126 135.625 616.266 135.31C616.406 134.995 616.476 134.471 616.476 133.736V130.852C616.476 129.733 616.178 128.911 615.584 128.386C615.025 127.862 614.238 127.6 613.224 127.6C612.245 127.6 611.44 127.879 610.811 128.439C610.217 128.998 609.919 129.803 609.919 130.852V137.618L613.119 136.726ZM624.901 152.094V115.379H629.097V152.094H624.901ZM649.898 152.461C647.45 152.461 645.544 151.849 644.181 150.625C642.852 149.366 642.188 147.636 642.188 145.433V131.481C642.188 129.278 642.852 127.565 644.181 126.341C645.544 125.082 647.45 124.453 649.898 124.453C652.345 124.453 654.234 125.082 655.562 126.341C656.926 127.565 657.608 129.278 657.608 131.481V145.433C657.608 147.636 656.926 149.366 655.562 150.625C654.234 151.849 652.345 152.461 649.898 152.461ZM649.898 149.209C651.017 149.209 651.891 148.894 652.52 148.265C653.185 147.601 653.517 146.656 653.517 145.433V131.481C653.517 130.257 653.185 129.331 652.52 128.701C651.891 128.037 651.017 127.705 649.898 127.705C648.779 127.705 647.887 128.037 647.223 128.701C646.593 129.331 646.279 130.257 646.279 131.481V145.433C646.279 146.656 646.593 147.601 647.223 148.265C647.887 148.894 648.779 149.209 649.898 149.209ZM662.854 124.82H671.351C673.274 124.82 674.9 125.449 676.229 126.708C677.593 127.967 678.274 129.54 678.274 131.429V145.538C678.274 147.426 677.61 148.999 676.281 150.258C674.953 151.482 673.327 152.094 671.404 152.094H667.05V160.486H662.854V124.82ZM670.512 148.999C671.491 148.999 672.33 148.667 673.029 148.003C673.729 147.338 674.078 146.517 674.078 145.538V131.429C674.078 130.449 673.729 129.628 673.029 128.963C672.33 128.299 671.491 127.967 670.512 127.967H667.05V148.999H670.512ZM688.695 152.094C686.772 152.094 685.233 151.517 684.079 150.363C682.96 149.209 682.401 147.653 682.401 145.695V131.743C682.401 129.47 683.03 127.687 684.289 126.393C685.548 125.1 687.418 124.453 689.901 124.453C692.384 124.453 694.237 125.1 695.461 126.393C696.72 127.687 697.349 129.47 697.349 131.743V134.156C697.349 135.625 696.929 136.743 696.09 137.513C695.251 138.247 694.15 138.806 692.786 139.191L686.597 140.922V146.062C686.597 146.901 686.842 147.601 687.331 148.16C687.856 148.685 688.52 148.947 689.324 148.947H694.989V152.094H688.695ZM689.796 136.726C690.95 136.411 691.719 136.184 692.104 136.044C692.524 135.869 692.803 135.625 692.943 135.31C693.083 134.995 693.153 134.471 693.153 133.736V130.852C693.153 129.733 692.856 128.911 692.261 128.386C691.702 127.862 690.915 127.6 689.901 127.6C688.922 127.6 688.118 127.879 687.488 128.439C686.894 128.998 686.597 129.803 686.597 130.852V137.618L689.796 136.726ZM701.526 124.82H704.778L705.25 126.341L707.4 125.711C708.869 125.257 710.023 124.942 710.862 124.767C711.736 124.558 712.558 124.453 713.327 124.453C714.586 124.453 715.512 124.89 716.107 125.764C716.701 126.638 716.999 127.774 716.999 129.173V152.094H712.803V130.537C712.803 129.523 712.733 128.823 712.593 128.439C712.453 128.019 712.103 127.809 711.544 127.809C711.264 127.809 709.323 128.369 705.722 129.488V152.094H701.526V124.82ZM736.281 152.094C735.022 152.094 733.851 151.779 732.767 151.15C731.718 150.52 730.879 149.664 730.25 148.58C729.655 147.496 729.358 146.272 729.358 144.908V142.181C729.358 140.537 729.76 139.156 730.564 138.037C731.403 136.918 732.435 136.132 733.659 135.677L740.163 133.264V130.799C740.163 129.96 739.9 129.278 739.376 128.754C738.886 128.194 738.239 127.914 737.435 127.914H731.508V124.82H737.802C739.726 124.82 741.247 125.397 742.365 126.551C743.519 127.67 744.096 129.208 744.096 131.166V152.094H736.281ZM740.163 148.894V136.569L735.547 138.299C734.638 138.649 733.991 139.121 733.606 139.716C733.257 140.31 733.082 141.254 733.082 142.548V145.485C733.082 146.429 733.432 147.233 734.131 147.898C734.83 148.562 735.669 148.894 736.648 148.894H740.163ZM755.648 152.094C753.724 152.094 752.186 151.517 751.032 150.363C749.913 149.209 749.354 147.653 749.354 145.695V131.743C749.354 129.54 749.931 127.844 751.084 126.656C752.238 125.432 753.917 124.82 756.12 124.82H761.942V127.967H756.225C755.42 127.967 754.773 128.247 754.284 128.806C753.794 129.331 753.55 130.012 753.55 130.852V146.062C753.55 146.901 753.794 147.601 754.284 148.16C754.808 148.685 755.473 148.947 756.277 148.947H761.942V152.094H755.648ZM771.372 152.094C769.449 152.094 767.911 151.517 766.757 150.363C765.638 149.209 765.078 147.653 765.078 145.695V131.743C765.078 129.54 765.655 127.844 766.809 126.656C767.963 125.432 769.642 124.82 771.844 124.82H777.666V127.967H771.949C771.145 127.967 770.498 128.247 770.009 128.806C769.519 129.331 769.274 130.012 769.274 130.852V146.062C769.274 146.901 769.519 147.601 770.009 148.16C770.533 148.685 771.198 148.947 772.002 148.947H777.666V152.094H771.372ZM786.782 152.094C784.859 152.094 783.321 151.517 782.167 150.363C781.048 149.209 780.488 147.653 780.488 145.695V131.743C780.488 129.47 781.118 127.687 782.377 126.393C783.635 125.1 785.506 124.453 787.989 124.453C790.471 124.453 792.325 125.1 793.548 126.393C794.807 127.687 795.437 129.47 795.437 131.743V134.156C795.437 135.625 795.017 136.743 794.178 137.513C793.339 138.247 792.237 138.806 790.874 139.191L784.684 140.922V146.062C784.684 146.901 784.929 147.601 785.419 148.16C785.943 148.685 786.608 148.947 787.412 148.947H793.076V152.094H786.782ZM787.884 136.726C789.038 136.411 789.807 136.184 790.192 136.044C790.611 135.869 790.891 135.625 791.031 135.31C791.171 134.995 791.241 134.471 791.241 133.736V130.852C791.241 129.733 790.943 128.911 790.349 128.386C789.79 127.862 789.003 127.6 787.989 127.6C787.01 127.6 786.205 127.879 785.576 128.439C784.982 128.998 784.684 129.803 784.684 130.852V137.618L787.884 136.726ZM798.04 148.947H802.498C804.002 148.947 805.086 148.545 805.75 147.74C806.449 146.901 806.799 145.817 806.799 144.489C806.799 143.44 806.484 142.548 805.855 141.814C805.226 141.079 804.281 140.223 803.023 139.244C801.939 138.369 801.065 137.618 800.4 136.988C799.771 136.324 799.211 135.52 798.722 134.576C798.267 133.596 798.04 132.478 798.04 131.219C798.04 129.365 798.652 127.844 799.876 126.656C801.134 125.432 802.813 124.82 804.911 124.82H809.474V127.967H805.698C803.215 127.967 801.974 129.138 801.974 131.481C801.974 132.39 802.253 133.177 802.813 133.841C803.372 134.506 804.247 135.292 805.435 136.201C806.519 137.041 807.411 137.81 808.11 138.509C808.81 139.174 809.404 140.03 809.894 141.079C810.383 142.093 810.628 143.3 810.628 144.698C810.628 147.181 809.964 149.034 808.635 150.258C807.341 151.482 805.505 152.094 803.128 152.094H798.04V148.947ZM813.765 148.947H818.223C819.726 148.947 820.81 148.545 821.475 147.74C822.174 146.901 822.524 145.817 822.524 144.489C822.524 143.44 822.209 142.548 821.58 141.814C820.95 141.079 820.006 140.223 818.747 139.244C817.663 138.369 816.789 137.618 816.125 136.988C815.496 136.324 814.936 135.52 814.447 134.576C813.992 133.596 813.765 132.478 813.765 131.219C813.765 129.365 814.377 127.844 815.6 126.656C816.859 125.432 818.538 124.82 820.636 124.82H825.199V127.967H821.422C818.94 127.967 817.698 129.138 817.698 131.481C817.698 132.39 817.978 133.177 818.538 133.841C819.097 134.506 819.971 135.292 821.16 136.201C822.244 137.041 823.136 137.81 823.835 138.509C824.534 139.174 825.129 140.03 825.618 141.079C826.108 142.093 826.353 143.3 826.353 144.698C826.353 147.181 825.688 149.034 824.36 150.258C823.066 151.482 821.23 152.094 818.852 152.094H813.765V148.947ZM846.556 152.094C844.633 152.094 843.112 151.517 841.993 150.363C840.874 149.209 840.315 147.653 840.315 145.695V127.967H837.168V124.82H840.315V116.9L844.511 115.326V124.82H848.707V127.967H844.511V146.062C844.511 146.901 844.738 147.601 845.192 148.16C845.682 148.685 846.329 148.947 847.133 148.947H848.707V152.094H846.556ZM856.082 152.461C854.824 152.461 853.88 152.024 853.25 151.15C852.656 150.276 852.358 149.139 852.358 147.74V124.82H856.554V146.377C856.554 147.356 856.624 148.055 856.764 148.475C856.904 148.894 857.236 149.104 857.761 149.104C858.006 149.104 859.981 148.58 863.688 147.531V124.82H867.884V152.094H864.894L864.107 150.311C863.548 150.52 863.128 150.66 862.848 150.73C861.205 151.325 859.876 151.762 858.862 152.041C857.848 152.321 856.922 152.461 856.082 152.461ZM887.848 152.094C885.925 152.094 884.387 151.517 883.233 150.363C882.114 149.209 881.554 147.653 881.554 145.695V131.743C881.554 129.54 882.131 127.844 883.285 126.656C884.439 125.432 886.117 124.82 888.32 124.82H894.142V127.967H888.425C887.621 127.967 886.974 128.247 886.485 128.806C885.995 129.331 885.75 130.012 885.75 130.852V146.062C885.75 146.901 885.995 147.601 886.485 148.16C887.009 148.685 887.673 148.947 888.478 148.947H894.142V152.094H887.848ZM903.363 152.094C902.104 152.094 900.933 151.779 899.849 151.15C898.8 150.52 897.961 149.664 897.331 148.58C896.737 147.496 896.44 146.272 896.44 144.908V142.181C896.44 140.537 896.842 139.156 897.646 138.037C898.485 136.918 899.517 136.132 900.741 135.677L907.244 133.264V130.799C907.244 129.96 906.982 129.278 906.458 128.754C905.968 128.194 905.321 127.914 904.517 127.914H898.59V124.82H904.884C906.807 124.82 908.328 125.397 909.447 126.551C910.601 127.67 911.178 129.208 911.178 131.166V152.094H903.363ZM907.244 148.894V136.569L902.629 138.299C901.72 138.649 901.073 139.121 900.688 139.716C900.339 140.31 900.164 141.254 900.164 142.548V145.485C900.164 146.429 900.513 147.233 901.213 147.898C901.912 148.562 902.751 148.894 903.73 148.894H907.244ZM916.96 124.82H925.457C927.38 124.82 929.006 125.449 930.335 126.708C931.699 127.967 932.38 129.54 932.38 131.429V145.538C932.38 147.426 931.716 148.999 930.387 150.258C929.059 151.482 927.433 152.094 925.509 152.094H921.156V160.486H916.96V124.82ZM924.618 148.999C925.597 148.999 926.436 148.667 927.135 148.003C927.835 147.338 928.184 146.517 928.184 145.538V131.429C928.184 130.449 927.835 129.628 927.135 128.963C926.436 128.299 925.597 127.967 924.618 127.967H921.156V148.999H924.618ZM944.951 152.094C943.028 152.094 941.507 151.517 940.388 150.363C939.269 149.209 938.71 147.653 938.71 145.695V127.967H935.563V124.82H938.71V116.9L942.906 115.326V124.82H947.102V127.967H942.906V146.062C942.906 146.901 943.133 147.601 943.587 148.16C944.077 148.685 944.724 148.947 945.528 148.947H947.102V152.094H944.951ZM956.733 152.094C954.81 152.094 953.271 151.517 952.117 150.363C950.998 149.209 950.439 147.653 950.439 145.695V131.743C950.439 129.47 951.068 127.687 952.327 126.393C953.586 125.1 955.456 124.453 957.939 124.453C960.422 124.453 962.275 125.1 963.499 126.393C964.758 127.687 965.387 129.47 965.387 131.743V134.156C965.387 135.625 964.967 136.743 964.128 137.513C963.289 138.247 962.188 138.806 960.824 139.191L954.635 140.922V146.062C954.635 146.901 954.879 147.601 955.369 148.16C955.894 148.685 956.558 148.947 957.362 148.947H963.027V152.094H956.733ZM957.834 136.726C958.988 136.411 959.757 136.184 960.142 136.044C960.562 135.869 960.841 135.625 960.981 135.31C961.121 134.995 961.191 134.471 961.191 133.736V130.852C961.191 129.733 960.894 128.911 960.299 128.386C959.74 127.862 958.953 127.6 957.939 127.6C956.96 127.6 956.156 127.879 955.526 128.439C954.932 128.998 954.635 129.803 954.635 130.852V137.618L957.834 136.726ZM967.99 148.947H972.448C973.952 148.947 975.036 148.545 975.7 147.74C976.4 146.901 976.749 145.817 976.749 144.489C976.749 143.44 976.435 142.548 975.805 141.814C975.176 141.079 974.232 140.223 972.973 139.244C971.889 138.369 971.015 137.618 970.35 136.988C969.721 136.324 969.162 135.52 968.672 134.576C968.218 133.596 967.99 132.478 967.99 131.219C967.99 129.365 968.602 127.844 969.826 126.656C971.085 125.432 972.763 124.82 974.861 124.82H979.424V127.967H975.648C973.165 127.967 971.924 129.138 971.924 131.481C971.924 132.39 972.204 133.177 972.763 133.841C973.323 134.506 974.197 135.292 975.386 136.201C976.47 137.041 977.361 137.81 978.061 138.509C978.76 139.174 979.354 140.03 979.844 141.079C980.333 142.093 980.578 143.3 980.578 144.698C980.578 147.181 979.914 149.034 978.585 150.258C977.291 151.482 975.456 152.094 973.078 152.094H967.99V148.947ZM998.946 139.925C998.946 137.932 999.348 136.254 1000.15 134.89C1000.96 133.527 1002.11 132.075 1003.61 130.537C1004.91 129.173 1005.85 128.019 1006.45 127.075C1007.04 126.131 1007.34 125.012 1007.34 123.718C1007.34 122.215 1006.87 121.026 1005.92 120.152C1004.98 119.278 1003.51 118.841 1001.52 118.841H996.586V115.379H1002.51C1005.34 115.379 1007.57 116.096 1009.17 117.529C1010.78 118.928 1011.59 120.851 1011.59 123.299C1011.59 125.117 1011.22 126.638 1010.48 127.862C1009.75 129.086 1008.65 130.449 1007.18 131.953C1005.85 133.317 1004.84 134.558 1004.14 135.677C1003.47 136.761 1003.14 138.09 1003.14 139.663V142.968H998.946V139.925ZM998.946 152.094V147.373H1003.14V152.094H998.946ZM157.564 209.094L165.851 172.379H172.827L180.799 209.094H176.498L173.928 198.289H164.382L162.022 209.094H157.564ZM165.169 194.723H173.142L169.365 175.841H168.998L165.169 194.723ZM169.365 170.333L162.337 166.032L165.012 163.567L171.096 168.76L169.365 170.333ZM200.509 209.094C198.586 209.094 197.065 208.517 195.946 207.363C194.827 206.209 194.268 204.653 194.268 202.695V184.967H191.121V181.82H194.268V173.9L198.464 172.326V181.82H202.66V184.967H198.464V203.062C198.464 203.901 198.691 204.601 199.146 205.16C199.635 205.685 200.282 205.947 201.086 205.947H202.66V209.094H200.509ZM213.497 209.461C211.05 209.461 209.144 208.849 207.78 207.625C206.452 206.366 205.787 204.636 205.787 202.433V188.481C205.787 186.278 206.452 184.565 207.78 183.341C209.144 182.082 211.05 181.453 213.497 181.453C215.945 181.453 217.833 182.082 219.162 183.341C220.526 184.565 221.208 186.278 221.208 188.481V202.433C221.208 204.636 220.526 206.366 219.162 207.625C217.833 208.849 215.945 209.461 213.497 209.461ZM213.497 206.209C214.616 206.209 215.49 205.894 216.12 205.265C216.784 204.601 217.116 203.656 217.116 202.433V188.481C217.116 187.257 216.784 186.331 216.12 185.701C215.49 185.037 214.616 184.705 213.497 184.705C212.378 184.705 211.487 185.037 210.822 185.701C210.193 186.331 209.878 187.257 209.878 188.481V202.433C209.878 203.656 210.193 204.601 210.822 205.265C211.487 205.894 212.378 206.209 213.497 206.209ZM226.454 177.362V173.166H230.65V177.362H226.454ZM226.454 209.094V181.82H230.65V209.094H226.454ZM251.765 209.094C249.562 209.094 247.779 208.447 246.415 207.153C245.052 205.859 244.37 204.129 244.37 201.961V188.901C244.37 187.397 244.772 186.121 245.576 185.072C246.415 184.023 247.447 183.306 248.671 182.921L255.699 180.456V172.379H259.895V209.094H251.765ZM255.699 205.947V183.918L251.031 185.491C250.122 185.771 249.475 186.226 249.09 186.855C248.741 187.449 248.566 188.411 248.566 189.74V201.961C248.566 203.219 248.933 204.198 249.667 204.898C250.402 205.597 251.398 205.947 252.657 205.947H255.699ZM271.656 209.094C269.733 209.094 268.194 208.517 267.04 207.363C265.921 206.209 265.362 204.653 265.362 202.695V188.743C265.362 186.47 265.991 184.687 267.25 183.393C268.509 182.1 270.38 181.453 272.862 181.453C275.345 181.453 277.198 182.1 278.422 183.393C279.681 184.687 280.31 186.47 280.31 188.743V191.156C280.31 192.625 279.89 193.743 279.051 194.513C278.212 195.247 277.111 195.806 275.747 196.191L269.558 197.922V203.062C269.558 203.901 269.803 204.601 270.292 205.16C270.817 205.685 271.481 205.947 272.285 205.947H277.95V209.094H271.656ZM272.757 193.726C273.911 193.411 274.68 193.184 275.065 193.044C275.485 192.869 275.764 192.625 275.904 192.31C276.044 191.995 276.114 191.471 276.114 190.736V187.852C276.114 186.733 275.817 185.911 275.222 185.386C274.663 184.862 273.876 184.6 272.862 184.6C271.883 184.6 271.079 184.879 270.449 185.439C269.855 185.998 269.558 186.803 269.558 187.852V194.618L272.757 193.726ZM292.375 181.82H295.627L296.099 183.76L297.41 183.131C298.529 182.572 299.456 182.152 300.19 181.872C300.959 181.593 301.728 181.453 302.498 181.453V184.547C302.043 184.547 301.431 184.687 300.662 184.967C299.893 185.212 298.529 185.806 296.571 186.75V209.094H292.375V181.82ZM311.864 209.094C309.941 209.094 308.402 208.517 307.248 207.363C306.13 206.209 305.57 204.653 305.57 202.695V188.743C305.57 186.47 306.199 184.687 307.458 183.393C308.717 182.1 310.588 181.453 313.07 181.453C315.553 181.453 317.406 182.1 318.63 183.393C319.889 184.687 320.518 186.47 320.518 188.743V191.156C320.518 192.625 320.099 193.743 319.26 194.513C318.42 195.247 317.319 195.806 315.955 196.191L309.766 197.922V203.062C309.766 203.901 310.011 204.601 310.5 205.16C311.025 205.685 311.689 205.947 312.493 205.947H318.158V209.094H311.864ZM312.966 193.726C314.119 193.411 314.889 193.184 315.273 193.044C315.693 192.869 315.973 192.625 316.113 192.31C316.252 191.995 316.322 191.471 316.322 190.736V187.852C316.322 186.733 316.025 185.911 315.431 185.386C314.871 184.862 314.084 184.6 313.07 184.6C312.091 184.6 311.287 184.879 310.658 185.439C310.063 185.998 309.766 186.803 309.766 187.852V194.618L312.966 193.726ZM332.3 209.094C330.377 209.094 328.856 208.517 327.737 207.363C326.618 206.209 326.059 204.653 326.059 202.695V184.967H322.912V181.82H326.059V173.9L330.255 172.326V181.82H334.451V184.967H330.255V203.062C330.255 203.901 330.482 204.601 330.937 205.16C331.426 205.685 332.073 205.947 332.877 205.947H334.451V209.094H332.3ZM338.627 181.82H341.879L342.351 183.76L343.662 183.131C344.781 182.572 345.708 182.152 346.442 181.872C347.211 181.593 347.981 181.453 348.75 181.453V184.547C348.295 184.547 347.683 184.687 346.914 184.967C346.145 185.212 344.781 185.806 342.823 186.75V209.094H338.627V181.82ZM359.323 209.461C356.875 209.461 354.969 208.849 353.606 207.625C352.277 206.366 351.613 204.636 351.613 202.433V188.481C351.613 186.278 352.277 184.565 353.606 183.341C354.969 182.082 356.875 181.453 359.323 181.453C361.77 181.453 363.659 182.082 364.987 183.341C366.351 184.565 367.033 186.278 367.033 188.481V202.433C367.033 204.636 366.351 206.366 364.987 207.625C363.659 208.849 361.77 209.461 359.323 209.461ZM359.323 206.209C360.442 206.209 361.316 205.894 361.945 205.265C362.61 204.601 362.942 203.656 362.942 202.433V188.481C362.942 187.257 362.61 186.331 361.945 185.701C361.316 185.037 360.442 184.705 359.323 184.705C358.204 184.705 357.312 185.037 356.648 185.701C356.018 186.331 355.704 187.257 355.704 188.481V202.433C355.704 203.656 356.018 204.601 356.648 205.265C357.312 205.894 358.204 206.209 359.323 206.209ZM375.479 209.461C374.22 209.461 373.276 209.024 372.646 208.15C372.052 207.276 371.755 206.139 371.755 204.74V181.82H375.951V203.377C375.951 204.356 376.021 205.055 376.16 205.475C376.3 205.894 376.632 206.104 377.157 206.104C377.402 206.104 379.377 205.58 383.084 204.531V181.82H387.28V209.094H384.29L383.503 207.311C382.944 207.52 382.524 207.66 382.245 207.73C380.601 208.325 379.272 208.762 378.258 209.041C377.244 209.321 376.318 209.461 375.479 209.461ZM397.468 209.094L391.227 181.82H395.58L399.619 203.796L403.605 181.82H407.958L401.717 209.094H397.468ZM417.327 209.094C415.404 209.094 413.866 208.517 412.712 207.363C411.593 206.209 411.033 204.653 411.033 202.695V188.743C411.033 186.47 411.663 184.687 412.922 183.393C414.18 182.1 416.051 181.453 418.534 181.453C421.016 181.453 422.87 182.1 424.094 183.393C425.352 184.687 425.982 186.47 425.982 188.743V191.156C425.982 192.625 425.562 193.743 424.723 194.513C423.884 195.247 422.782 195.806 421.419 196.191L415.229 197.922V203.062C415.229 203.901 415.474 204.601 415.964 205.16C416.488 205.685 417.153 205.947 417.957 205.947H423.621V209.094H417.327ZM418.429 193.726C419.583 193.411 420.352 193.184 420.737 193.044C421.156 192.869 421.436 192.625 421.576 192.31C421.716 191.995 421.786 191.471 421.786 190.736V187.852C421.786 186.733 421.489 185.911 420.894 185.386C420.335 184.862 419.548 184.6 418.534 184.6C417.555 184.6 416.751 184.879 416.121 185.439C415.527 185.998 415.229 186.803 415.229 187.852V194.618L418.429 193.726ZM430.158 181.82H433.41L433.882 183.76L435.194 183.131C436.313 182.572 437.239 182.152 437.974 181.872C438.743 181.593 439.512 181.453 440.281 181.453V184.547C439.827 184.547 439.215 184.687 438.446 184.967C437.676 185.212 436.313 185.806 434.354 186.75V209.094H430.158V181.82ZM452.133 209.094V172.379H456.329V209.094H452.133ZM468.036 209.094C466.113 209.094 464.574 208.517 463.42 207.363C462.301 206.209 461.742 204.653 461.742 202.695V188.743C461.742 186.47 462.371 184.687 463.63 183.393C464.889 182.1 466.76 181.453 469.242 181.453C471.725 181.453 473.578 182.1 474.802 183.393C476.061 184.687 476.69 186.47 476.69 188.743V191.156C476.69 192.625 476.271 193.743 475.431 194.513C474.592 195.247 473.491 195.806 472.127 196.191L465.938 197.922V203.062C465.938 203.901 466.183 204.601 466.672 205.16C467.197 205.685 467.861 205.947 468.665 205.947H474.33V209.094H468.036ZM469.137 193.726C470.291 193.411 471.061 193.184 471.445 193.044C471.865 192.869 472.145 192.625 472.284 192.31C472.424 191.995 472.494 191.471 472.494 190.736V187.852C472.494 186.733 472.197 185.911 471.603 185.386C471.043 184.862 470.256 184.6 469.242 184.6C468.263 184.6 467.459 184.879 466.83 185.439C466.235 185.998 465.938 186.803 465.938 187.852V194.618L469.137 193.726ZM479.293 205.947H483.752C485.255 205.947 486.339 205.545 487.004 204.74C487.703 203.901 488.053 202.817 488.053 201.489C488.053 200.44 487.738 199.548 487.109 198.814C486.479 198.079 485.535 197.223 484.276 196.244C483.192 195.369 482.318 194.618 481.654 193.988C481.024 193.324 480.465 192.52 479.975 191.576C479.521 190.596 479.293 189.478 479.293 188.219C479.293 186.365 479.905 184.844 481.129 183.656C482.388 182.432 484.066 181.82 486.164 181.82H490.728V184.967H486.951C484.469 184.967 483.227 186.138 483.227 188.481C483.227 189.39 483.507 190.177 484.066 190.841C484.626 191.506 485.5 192.292 486.689 193.201C487.773 194.041 488.665 194.81 489.364 195.509C490.063 196.174 490.658 197.03 491.147 198.079C491.637 199.093 491.881 200.3 491.881 201.698C491.881 204.181 491.217 206.034 489.888 207.258C488.595 208.482 486.759 209.094 484.381 209.094H479.293V205.947ZM504.48 181.82H512.977C514.9 181.82 516.526 182.449 517.854 183.708C519.218 184.967 519.9 186.54 519.9 188.429V202.538C519.9 204.426 519.236 205.999 517.907 207.258C516.578 208.482 514.952 209.094 513.029 209.094H508.676V217.486H504.48V181.82ZM512.137 205.999C513.117 205.999 513.956 205.667 514.655 205.003C515.354 204.338 515.704 203.517 515.704 202.538V188.429C515.704 187.449 515.354 186.628 514.655 185.963C513.956 185.299 513.117 184.967 512.137 184.967H508.676V205.999H512.137ZM530.425 209.094C529.166 209.094 527.995 208.779 526.911 208.15C525.862 207.52 525.023 206.664 524.394 205.58C523.799 204.496 523.502 203.272 523.502 201.908V199.181C523.502 197.537 523.904 196.156 524.708 195.037C525.547 193.918 526.579 193.132 527.803 192.677L534.307 190.264V187.799C534.307 186.96 534.044 186.278 533.52 185.754C533.03 185.194 532.383 184.914 531.579 184.914H525.652V181.82H531.946C533.869 181.82 535.391 182.397 536.509 183.551C537.663 184.67 538.24 186.208 538.24 188.166V209.094H530.425ZM534.307 205.894V193.569L529.691 195.299C528.782 195.649 528.135 196.121 527.75 196.716C527.401 197.31 527.226 198.254 527.226 199.548V202.485C527.226 203.429 527.575 204.233 528.275 204.898C528.974 205.562 529.813 205.894 530.792 205.894H534.307ZM544.022 177.362V173.166H548.218V177.362H544.022ZM544.022 209.094V181.82H548.218V209.094H544.022ZM554.522 181.82H557.774L558.246 183.76L559.558 183.131C560.676 182.572 561.603 182.152 562.337 181.872C563.107 181.593 563.876 181.453 564.645 181.453V184.547C564.191 184.547 563.579 184.687 562.809 184.967C562.04 185.212 560.676 185.806 558.718 186.75V209.094H554.522V181.82ZM574.012 209.094C572.088 209.094 570.55 208.517 569.396 207.363C568.277 206.209 567.718 204.653 567.718 202.695V188.743C567.718 186.47 568.347 184.687 569.606 183.393C570.865 182.1 572.735 181.453 575.218 181.453C577.701 181.453 579.554 182.1 580.778 183.393C582.036 184.687 582.666 186.47 582.666 188.743V191.156C582.666 192.625 582.246 193.743 581.407 194.513C580.568 195.247 579.466 195.806 578.103 196.191L571.914 197.922V203.062C571.914 203.901 572.158 204.601 572.648 205.16C573.172 205.685 573.837 205.947 574.641 205.947H580.306V209.094H574.012ZM575.113 193.726C576.267 193.411 577.036 193.184 577.421 193.044C577.84 192.869 578.12 192.625 578.26 192.31C578.4 191.995 578.47 191.471 578.47 190.736V187.852C578.47 186.733 578.173 185.911 577.578 185.386C577.019 184.862 576.232 184.6 575.218 184.6C574.239 184.6 573.435 184.879 572.805 185.439C572.211 185.998 571.914 186.803 571.914 187.852V194.618L575.113 193.726ZM585.269 205.947H589.727C591.231 205.947 592.315 205.545 592.979 204.74C593.679 203.901 594.028 202.817 594.028 201.489C594.028 200.44 593.714 199.548 593.084 198.814C592.455 198.079 591.511 197.223 590.252 196.244C589.168 195.369 588.294 194.618 587.629 193.988C587 193.324 586.441 192.52 585.951 191.576C585.496 190.596 585.269 189.478 585.269 188.219C585.269 186.365 585.881 184.844 587.105 183.656C588.364 182.432 590.042 181.82 592.14 181.82H596.703V184.967H592.927C590.444 184.967 589.203 186.138 589.203 188.481C589.203 189.39 589.483 190.177 590.042 190.841C590.602 191.506 591.476 192.292 592.665 193.201C593.749 194.041 594.64 194.81 595.34 195.509C596.039 196.174 596.633 197.03 597.123 198.079C597.612 199.093 597.857 200.3 597.857 201.698C597.857 204.181 597.193 206.034 595.864 207.258C594.57 208.482 592.735 209.094 590.357 209.094H585.269V205.947ZM610.455 181.82H618.952C620.875 181.82 622.501 182.449 623.83 183.708C625.194 184.967 625.876 186.54 625.876 188.429V202.538C625.876 204.426 625.211 205.999 623.883 207.258C622.554 208.482 620.928 209.094 619.005 209.094H614.651V217.486H610.455V181.82ZM618.113 205.999C619.092 205.999 619.931 205.667 620.631 205.003C621.33 204.338 621.68 203.517 621.68 202.538V188.429C621.68 187.449 621.33 186.628 620.631 185.963C619.931 185.299 619.092 184.967 618.113 184.967H614.651V205.999H618.113ZM637.502 209.461C635.055 209.461 633.149 208.849 631.785 207.625C630.457 206.366 629.792 204.636 629.792 202.433V188.481C629.792 186.278 630.457 184.565 631.785 183.341C633.149 182.082 635.055 181.453 637.502 181.453C639.95 181.453 641.838 182.082 643.167 183.341C644.531 184.565 645.212 186.278 645.212 188.481V202.433C645.212 204.636 644.531 206.366 643.167 207.625C641.838 208.849 639.95 209.461 637.502 209.461ZM637.502 206.209C638.621 206.209 639.495 205.894 640.125 205.265C640.789 204.601 641.121 203.656 641.121 202.433V188.481C641.121 187.257 640.789 186.331 640.125 185.701C639.495 185.037 638.621 184.705 637.502 184.705C636.383 184.705 635.492 185.037 634.827 185.701C634.198 186.331 633.883 187.257 633.883 188.481V202.433C633.883 203.656 634.198 204.601 634.827 205.265C635.492 205.894 636.383 206.209 637.502 206.209ZM653.658 209.461C652.399 209.461 651.455 209.024 650.826 208.15C650.231 207.276 649.934 206.139 649.934 204.74V181.82H654.13V203.377C654.13 204.356 654.2 205.055 654.34 205.475C654.48 205.894 654.812 206.104 655.337 206.104C655.581 206.104 657.557 205.58 661.263 204.531V181.82H665.459V209.094H662.47L661.683 207.311C661.124 207.52 660.704 207.66 660.424 207.73C658.781 208.325 657.452 208.762 656.438 209.041C655.424 209.321 654.497 209.461 653.658 209.461ZM671.767 181.82H675.018L675.491 183.76L676.802 183.131C677.921 182.572 678.847 182.152 679.582 181.872C680.351 181.593 681.12 181.453 681.889 181.453V184.547C681.435 184.547 680.823 184.687 680.054 184.967C679.284 185.212 677.921 185.806 675.963 186.75V209.094H671.767V181.82ZM693.689 181.82H696.941L697.413 183.76L698.724 183.131C699.843 182.572 700.77 182.152 701.504 181.872C702.273 181.593 703.043 181.453 703.812 181.453V184.547C703.357 184.547 702.745 184.687 701.976 184.967C701.207 185.212 699.843 185.806 697.885 186.75V209.094H693.689V181.82ZM713.283 209.094C712.024 209.094 710.853 208.779 709.769 208.15C708.72 207.52 707.881 206.664 707.251 205.58C706.657 204.496 706.36 203.272 706.36 201.908V199.181C706.36 197.537 706.762 196.156 707.566 195.037C708.405 193.918 709.437 193.132 710.661 192.677L717.164 190.264V187.799C717.164 186.96 716.902 186.278 716.378 185.754C715.888 185.194 715.241 184.914 714.437 184.914H708.51V181.82H714.804C716.727 181.82 718.248 182.397 719.367 183.551C720.521 184.67 721.098 186.208 721.098 188.166V209.094H713.283ZM717.164 205.894V193.569L712.549 195.299C711.64 195.649 710.993 196.121 710.608 196.716C710.259 197.31 710.084 198.254 710.084 199.548V202.485C710.084 203.429 710.433 204.233 711.133 204.898C711.832 205.562 712.671 205.894 713.65 205.894H717.164ZM725.307 205.947H729.765C731.268 205.947 732.352 205.545 733.017 204.74C733.716 203.901 734.066 202.817 734.066 201.489C734.066 200.44 733.751 199.548 733.122 198.814C732.492 198.079 731.548 197.223 730.289 196.244C729.205 195.369 728.331 194.618 727.667 193.988C727.037 193.324 726.478 192.52 725.988 191.576C725.534 190.596 725.307 189.478 725.307 188.219C725.307 186.365 725.918 184.844 727.142 183.656C728.401 182.432 730.079 181.82 732.177 181.82H736.741V184.967H732.964C730.482 184.967 729.24 186.138 729.24 188.481C729.24 189.39 729.52 190.177 730.079 190.841C730.639 191.506 731.513 192.292 732.702 193.201C733.786 194.041 734.678 194.81 735.377 195.509C736.076 196.174 736.671 197.03 737.16 198.079C737.65 199.093 737.895 200.3 737.895 201.698C737.895 204.181 737.23 206.034 735.901 207.258C734.608 208.482 732.772 209.094 730.394 209.094H725.307V205.947ZM741.031 205.947H745.49C746.993 205.947 748.077 205.545 748.741 204.74C749.441 203.901 749.79 202.817 749.79 201.489C749.79 200.44 749.476 199.548 748.846 198.814C748.217 198.079 747.273 197.223 746.014 196.244C744.93 195.369 744.056 194.618 743.392 193.988C742.762 193.324 742.203 192.52 741.713 191.576C741.259 190.596 741.031 189.478 741.031 188.219C741.031 186.365 741.643 184.844 742.867 183.656C744.126 182.432 745.804 181.82 747.902 181.82H752.465V184.967H748.689C746.206 184.967 744.965 186.138 744.965 188.481C744.965 189.39 745.245 190.177 745.804 190.841C746.364 191.506 747.238 192.292 748.427 193.201C749.511 194.041 750.402 194.81 751.102 195.509C751.801 196.174 752.395 197.03 752.885 198.079C753.374 199.093 753.619 200.3 753.619 201.698C753.619 204.181 752.955 206.034 751.626 207.258C750.332 208.482 748.497 209.094 746.119 209.094H741.031V205.947ZM763.784 209.094C761.861 209.094 760.323 208.517 759.169 207.363C758.05 206.209 757.49 204.653 757.49 202.695V188.743C757.49 186.47 758.12 184.687 759.379 183.393C760.637 182.1 762.508 181.453 764.991 181.453C767.473 181.453 769.327 182.1 770.55 183.393C771.809 184.687 772.439 186.47 772.439 188.743V191.156C772.439 192.625 772.019 193.743 771.18 194.513C770.341 195.247 769.239 195.806 767.875 196.191L761.686 197.922V203.062C761.686 203.901 761.931 204.601 762.421 205.16C762.945 205.685 763.61 205.947 764.414 205.947H770.078V209.094H763.784ZM764.886 193.726C766.04 193.411 766.809 193.184 767.194 193.044C767.613 192.869 767.893 192.625 768.033 192.31C768.173 191.995 768.243 191.471 768.243 190.736V187.852C768.243 186.733 767.945 185.911 767.351 185.386C766.791 184.862 766.005 184.6 764.991 184.6C764.012 184.6 763.207 184.879 762.578 185.439C761.984 185.998 761.686 186.803 761.686 187.852V194.618L764.886 193.726ZM776.615 181.82H779.867L780.339 183.341L782.49 182.711C783.958 182.257 785.112 181.942 785.951 181.767C786.826 181.558 787.647 181.453 788.417 181.453C789.92 181.453 790.969 182.117 791.564 183.446C792.543 183.096 793.924 182.676 795.707 182.187C797.49 181.697 798.802 181.453 799.641 181.453C800.9 181.453 801.826 181.89 802.421 182.764C803.05 183.638 803.365 184.774 803.365 186.173V209.094H799.169V187.537C799.169 186.523 799.099 185.823 798.959 185.439C798.819 185.019 798.469 184.809 797.91 184.809C797.63 184.809 795.707 185.369 792.141 186.488V209.094H787.945V187.537C787.945 186.523 787.875 185.823 787.735 185.439C787.595 185.019 787.245 184.809 786.686 184.809C786.406 184.809 784.448 185.369 780.811 186.488V209.094H776.615V181.82ZM809.14 172.379H813.336V180.561L820.365 183.026C821.589 183.446 822.603 184.18 823.407 185.229C824.246 186.243 824.666 187.502 824.666 189.005V202.485C824.666 204.373 824.001 205.947 822.673 207.206C821.344 208.464 819.718 209.094 817.795 209.094H809.14V172.379ZM816.903 205.947C817.882 205.947 818.721 205.615 819.421 204.95C820.12 204.286 820.47 203.464 820.47 202.485V189.845C820.47 188.516 820.277 187.554 819.893 186.96C819.543 186.331 818.914 185.876 818.005 185.596L813.336 184.023V205.947H816.903ZM829.681 209.094V172.379H833.877V209.094H829.681ZM845.584 209.094C843.661 209.094 842.122 208.517 840.968 207.363C839.849 206.209 839.29 204.653 839.29 202.695V188.743C839.29 186.47 839.919 184.687 841.178 183.393C842.437 182.1 844.308 181.453 846.79 181.453C849.273 181.453 851.126 182.1 852.35 183.393C853.609 184.687 854.238 186.47 854.238 188.743V191.156C854.238 192.625 853.818 193.743 852.979 194.513C852.14 195.247 851.039 195.806 849.675 196.191L843.486 197.922V203.062C843.486 203.901 843.731 204.601 844.22 205.16C844.745 205.685 845.409 205.947 846.213 205.947H851.878V209.094H845.584ZM846.685 193.726C847.839 193.411 848.608 193.184 848.993 193.044C849.413 192.869 849.692 192.625 849.832 192.31C849.972 191.995 850.042 191.471 850.042 190.736V187.852C850.042 186.733 849.745 185.911 849.15 185.386C848.591 184.862 847.804 184.6 846.79 184.6C845.811 184.6 845.007 184.879 844.377 185.439C843.783 185.998 843.486 186.803 843.486 187.852V194.618L846.685 193.726ZM858.415 181.82H861.667L862.139 183.76L863.45 183.131C864.569 182.572 865.496 182.152 866.23 181.872C866.999 181.593 867.768 181.453 868.538 181.453V184.547C868.083 184.547 867.471 184.687 866.702 184.967C865.933 185.212 864.569 185.806 862.611 186.75V209.094H858.415V181.82ZM880.337 181.82H883.589L884.061 183.341L886.212 182.711C887.68 182.257 888.834 181.942 889.673 181.767C890.548 181.558 891.369 181.453 892.138 181.453C893.642 181.453 894.691 182.117 895.285 183.446C896.265 183.096 897.646 182.676 899.429 182.187C901.212 181.697 902.524 181.453 903.363 181.453C904.622 181.453 905.548 181.89 906.143 182.764C906.772 183.638 907.087 184.774 907.087 186.173V209.094H902.891V187.537C902.891 186.523 902.821 185.823 902.681 185.439C902.541 185.019 902.191 184.809 901.632 184.809C901.352 184.809 899.429 185.369 895.862 186.488V209.094H891.666V187.537C891.666 186.523 891.597 185.823 891.457 185.439C891.317 185.019 890.967 184.809 890.408 184.809C890.128 184.809 888.17 185.369 884.533 186.488V209.094H880.337V181.82ZM918.422 209.094C917.163 209.094 915.992 208.779 914.908 208.15C913.859 207.52 913.02 206.664 912.39 205.58C911.796 204.496 911.499 203.272 911.499 201.908V199.181C911.499 197.537 911.901 196.156 912.705 195.037C913.544 193.918 914.576 193.132 915.8 192.677L922.303 190.264V187.799C922.303 186.96 922.041 186.278 921.517 185.754C921.027 185.194 920.38 184.914 919.576 184.914H913.649V181.82H919.943C921.866 181.82 923.387 182.397 924.506 183.551C925.66 184.67 926.237 186.208 926.237 188.166V209.094H918.422ZM922.303 205.894V193.569L917.688 195.299C916.779 195.649 916.132 196.121 915.747 196.716C915.397 197.31 915.223 198.254 915.223 199.548V202.485C915.223 203.429 915.572 204.233 916.272 204.898C916.971 205.562 917.81 205.894 918.789 205.894H922.303ZM939.907 172.379H944.103V180.561L951.131 183.026C952.355 183.446 953.369 184.18 954.173 185.229C955.013 186.243 955.432 187.502 955.432 189.005V202.485C955.432 204.373 954.768 205.947 953.439 207.206C952.11 208.464 950.484 209.094 948.561 209.094H939.907V172.379ZM947.67 205.947C948.649 205.947 949.488 205.615 950.187 204.95C950.886 204.286 951.236 203.464 951.236 202.485V189.845C951.236 188.516 951.044 187.554 950.659 186.96C950.31 186.331 949.68 185.876 948.771 185.596L944.103 184.023V205.947H947.67ZM967.056 209.461C964.609 209.461 962.703 208.849 961.339 207.625C960.011 206.366 959.346 204.636 959.346 202.433V188.481C959.346 186.278 960.011 184.565 961.339 183.341C962.703 182.082 964.609 181.453 967.056 181.453C969.504 181.453 971.392 182.082 972.721 183.341C974.085 184.565 974.767 186.278 974.767 188.481V202.433C974.767 204.636 974.085 206.366 972.721 207.625C971.392 208.849 969.504 209.461 967.056 209.461ZM967.056 206.209C968.175 206.209 969.049 205.894 969.679 205.265C970.343 204.601 970.675 203.656 970.675 202.433V188.481C970.675 187.257 970.343 186.331 969.679 185.701C969.049 185.037 968.175 184.705 967.056 184.705C965.937 184.705 965.046 185.037 964.381 185.701C963.752 186.331 963.437 187.257 963.437 188.481V202.433C963.437 203.656 963.752 204.601 964.381 205.265C965.046 205.894 965.937 206.209 967.056 206.209ZM978.911 178.883L976.341 176.89L982.321 172.326L988.3 176.89L985.73 178.883L982.321 176.155L978.911 178.883ZM980.013 209.094V181.82H984.209V209.094H980.013ZM998.118 209.094C996.195 209.094 994.674 208.517 993.555 207.363C992.436 206.209 991.877 204.653 991.877 202.695V184.967H988.73V181.82H991.877V173.9L996.073 172.326V181.82H1000.27V184.967H996.073V203.062C996.073 203.901 996.3 204.601 996.755 205.16C997.244 205.685 997.891 205.947 998.695 205.947H1000.27V209.094H998.118ZM1009.9 209.094C1007.98 209.094 1006.44 208.517 1005.28 207.363C1004.17 206.209 1003.61 204.653 1003.61 202.695V188.743C1003.61 186.47 1004.24 184.687 1005.49 183.393C1006.75 182.1 1008.62 181.453 1011.11 181.453C1013.59 181.453 1015.44 182.1 1016.67 183.393C1017.92 184.687 1018.55 186.47 1018.55 188.743V191.156C1018.55 192.625 1018.13 193.743 1017.3 194.513C1016.46 195.247 1015.35 195.806 1013.99 196.191L1007.8 197.922V203.062C1007.8 203.901 1008.05 204.601 1008.54 205.16C1009.06 205.685 1009.73 205.947 1010.53 205.947H1016.19V209.094H1009.9ZM1011 193.726C1012.16 193.411 1012.92 193.184 1013.31 193.044C1013.73 192.869 1014.01 192.625 1014.15 192.31C1014.29 191.995 1014.36 191.471 1014.36 190.736V187.852C1014.36 186.733 1014.06 185.911 1013.47 185.386C1012.91 184.862 1012.12 184.6 1011.11 184.6C1010.13 184.6 1009.32 184.879 1008.69 185.439C1008.1 185.998 1007.8 186.803 1007.8 187.852V194.618L1011 193.726ZM1037.75 179.774L1030.72 175.473L1033.4 173.008L1039.48 178.201L1037.75 179.774ZM1036.18 209.094C1034.92 209.094 1033.75 208.779 1032.66 208.15C1031.62 207.52 1030.78 206.664 1030.15 205.58C1029.55 204.496 1029.26 203.272 1029.26 201.908V199.181C1029.26 197.537 1029.66 196.156 1030.46 195.037C1031.3 193.918 1032.33 193.132 1033.56 192.677L1040.06 190.264V187.799C1040.06 186.96 1039.8 186.278 1039.27 185.754C1038.78 185.194 1038.14 184.914 1037.33 184.914H1031.41V181.82H1037.7C1039.62 181.82 1041.14 182.397 1042.26 183.551C1043.42 184.67 1043.99 186.208 1043.99 188.166V209.094H1036.18ZM1040.06 205.894V193.569L1035.44 195.299C1034.54 195.649 1033.89 196.121 1033.5 196.716C1033.15 197.31 1032.98 198.254 1032.98 199.548V202.485C1032.98 203.429 1033.33 204.233 1034.03 204.898C1034.73 205.562 1035.57 205.894 1036.55 205.894H1040.06ZM1064.32 209.461C1061.88 209.461 1059.97 208.849 1058.61 207.625C1057.28 206.366 1056.61 204.636 1056.61 202.433V188.481C1056.61 186.278 1057.28 184.565 1058.61 183.341C1059.97 182.082 1061.88 181.453 1064.32 181.453C1066.77 181.453 1068.66 182.082 1069.99 183.341C1071.35 184.565 1072.03 186.278 1072.03 188.481V202.433C1072.03 204.636 1071.35 206.366 1069.99 207.625C1068.66 208.849 1066.77 209.461 1064.32 209.461ZM1064.32 206.209C1065.44 206.209 1066.32 205.894 1066.95 205.265C1067.61 204.601 1067.94 203.656 1067.94 202.433V188.481C1067.94 187.257 1067.61 186.331 1066.95 185.701C1066.32 185.037 1065.44 184.705 1064.32 184.705C1063.21 184.705 1062.31 185.037 1061.65 185.701C1061.02 186.331 1060.71 187.257 1060.71 188.481V202.433C1060.71 203.656 1061.02 204.601 1061.65 205.265C1062.31 205.894 1063.21 206.209 1064.32 206.209ZM1080.48 209.461C1079.22 209.461 1078.28 209.024 1077.65 208.15C1077.05 207.276 1076.76 206.139 1076.76 204.74V181.82H1080.95V203.377C1080.95 204.356 1081.02 205.055 1081.16 205.475C1081.3 205.894 1081.63 206.104 1082.16 206.104C1082.4 206.104 1084.38 205.58 1088.09 204.531V181.82H1092.28V209.094H1089.29L1088.51 207.311C1087.95 207.52 1087.53 207.66 1087.25 207.73C1085.6 208.325 1084.27 208.762 1083.26 209.041C1082.25 209.321 1081.32 209.461 1080.48 209.461ZM1106.19 209.094C1104.27 209.094 1102.75 208.517 1101.63 207.363C1100.51 206.209 1099.95 204.653 1099.95 202.695V184.967H1096.81V181.82H1099.95V173.9L1104.15 172.326V181.82H1108.34V184.967H1104.15V203.062C1104.15 203.901 1104.38 204.601 1104.83 205.16C1105.32 205.685 1105.97 205.947 1106.77 205.947H1108.34V209.094H1106.19ZM1112.52 177.362V173.166H1116.72V177.362H1112.52ZM1112.52 209.094V181.82H1116.72V209.094H1112.52ZM1123.07 209.094V172.379H1127.27V209.094H1123.07ZM1131.95 205.947H1136.41C1137.91 205.947 1138.99 205.545 1139.66 204.74C1140.36 203.901 1140.71 202.817 1140.71 201.489C1140.71 200.44 1140.39 199.548 1139.76 198.814C1139.13 198.079 1138.19 197.223 1136.93 196.244C1135.85 195.369 1134.97 194.618 1134.31 193.988C1133.68 193.324 1133.12 192.52 1132.63 191.576C1132.17 190.596 1131.95 189.478 1131.95 188.219C1131.95 186.365 1132.56 184.844 1133.78 183.656C1135.04 182.432 1136.72 181.82 1138.82 181.82H1143.38V184.967H1139.61C1137.12 184.967 1135.88 186.138 1135.88 188.481C1135.88 189.39 1136.16 190.177 1136.72 190.841C1137.28 191.506 1138.15 192.292 1139.34 193.201C1140.43 194.041 1141.32 194.81 1142.02 195.509C1142.72 196.174 1143.31 197.03 1143.8 198.079C1144.29 199.093 1144.54 200.3 1144.54 201.698C1144.54 204.181 1143.87 206.034 1142.54 207.258C1141.25 208.482 1139.41 209.094 1137.04 209.094H1131.95V205.947ZM1156.14 209.094V203.691H1160.33V209.094H1156.14Z" fill="#1E1E1E"/>
<rect x="99.5527" width="313.669" height="88.9178" fill="black"/>
<path d="M152.14 62.9589C151.736 62.9589 151.534 62.757 151.534 62.3533V31.2704C151.534 30.8666 151.736 30.6647 152.14 30.6647H168.735C169.139 30.6647 169.341 30.8666 169.341 31.2704V36.5033C169.341 36.9071 169.139 37.109 168.735 37.109H159.602V45.2007H167.524C167.928 45.2007 168.129 45.4026 168.129 45.8064V51.0394C168.129 51.4432 167.928 51.645 167.524 51.645H159.602V62.3533C159.602 62.757 159.4 62.9589 158.996 62.9589H152.14ZM179.432 62.9589C179.061 62.9589 178.737 62.8216 178.463 62.5471L173.618 57.7017C173.343 57.4433 173.206 57.1203 173.206 56.7327V36.8667C173.206 36.4953 173.343 36.1722 173.618 35.8977L178.463 31.0523C178.737 30.7939 179.061 30.6647 179.432 30.6647H188.953C189.341 30.6647 189.664 30.7939 189.922 31.0523L194.768 35.8977C195.042 36.1722 195.179 36.4953 195.179 36.8667V56.7327C195.179 57.1203 195.042 57.4433 194.768 57.7017L189.922 62.5471C189.664 62.8216 189.341 62.9589 188.953 62.9589H179.432ZM182.291 56.4904H186.094C186.773 56.4904 187.112 56.0382 187.112 55.1337V38.4899C187.112 37.5693 186.773 37.109 186.094 37.109H182.291C181.629 37.109 181.297 37.5693 181.297 38.4899V55.1337C181.297 56.0382 181.629 56.4904 182.291 56.4904ZM201.587 62.9589C201.183 62.9589 200.981 62.757 200.981 62.3533V31.2704C200.981 30.8666 201.183 30.6647 201.587 30.6647H214.718C215.105 30.6647 215.428 30.7697 215.687 30.9796L221.259 36.5033C221.437 36.6649 221.542 36.8021 221.574 36.9152C221.622 37.0283 221.647 37.214 221.647 37.4724V44.1105C221.647 44.3205 221.566 44.5062 221.404 44.6677L218.739 47.26L216.486 49.1981L219.151 52.7352L221.889 58.5981C221.954 58.7435 222.002 58.8888 222.034 59.0342C222.083 59.1634 222.107 59.3249 222.107 59.5187V62.3533C222.107 62.757 221.905 62.9589 221.501 62.9589H215.105C214.75 62.9589 214.508 62.7974 214.379 62.4744L210.478 51.1363H208.661V62.3533C208.661 62.757 208.459 62.9589 208.055 62.9589H201.587ZM211.326 45.2007C212.667 45.2007 213.579 44.9262 214.064 44.377C214.548 43.8117 214.791 42.7619 214.791 41.2276C214.791 39.677 214.548 38.6272 214.064 38.0781C213.579 37.5128 212.667 37.2301 211.326 37.2301C210.002 37.2301 209.089 37.5128 208.588 38.0781C208.088 38.6272 207.837 39.677 207.837 41.2276C207.837 42.7619 208.088 43.8117 208.588 44.377C209.089 44.9262 210.002 45.2007 211.326 45.2007ZM232.191 62.9589C231.804 62.9589 231.481 62.8216 231.222 62.5471L226.377 57.7017C226.102 57.4433 225.965 57.1203 225.965 56.7327V36.8667C225.965 36.4953 226.102 36.1722 226.377 35.8977L231.222 31.0523C231.481 30.7939 231.804 30.6647 232.191 30.6647H246.509C246.913 30.6647 247.115 30.8666 247.115 31.2704V36.5033C247.115 36.9071 246.913 37.109 246.509 37.109H234.856C234.63 37.109 234.436 37.1898 234.275 37.3513C234.113 37.5128 234.033 37.7066 234.033 37.9327V55.6425C234.033 55.8686 234.113 56.0624 234.275 56.2239C234.436 56.3854 234.63 56.4662 234.856 56.4662H240.089V49.9976H236.988C236.584 49.9976 236.383 49.7957 236.383 49.392V44.1832C236.383 43.7794 236.584 43.5775 236.988 43.5775H246.921C247.325 43.5775 247.527 43.7794 247.527 44.1832V56.7327C247.527 57.1203 247.39 57.4433 247.115 57.7017L242.27 62.5471C242.011 62.8216 241.688 62.9589 241.301 62.9589H232.191ZM253.211 62.9589C252.807 62.9589 252.605 62.757 252.605 62.3533V31.2704C252.605 30.8666 252.807 30.6647 253.211 30.6647H270.097C270.5 30.6647 270.702 30.8666 270.702 31.2704V36.5033C270.702 36.9071 270.5 37.109 270.097 37.109H260.673V43.9894H269.273C269.677 43.9894 269.879 44.1913 269.879 44.5951V49.0286C269.879 49.4323 269.677 49.6342 269.273 49.6342H260.673V56.4904H270.097C270.5 56.4904 270.702 56.6923 270.702 57.0961V62.3533C270.702 62.757 270.5 62.9589 270.097 62.9589H253.211ZM277.106 62.9589C276.702 62.9589 276.501 62.757 276.501 62.3533V31.2704C276.501 30.8666 276.702 30.6647 277.106 30.6647H290.237C290.625 30.6647 290.948 30.7697 291.206 30.9796L296.778 36.5033C296.956 36.6649 297.061 36.8021 297.093 36.9152C297.142 37.0283 297.166 37.214 297.166 37.4724V44.1105C297.166 44.3205 297.085 44.5062 296.924 44.6677L294.259 47.26L292.006 49.1981L294.671 52.7352L297.408 58.5981C297.473 58.7435 297.521 58.8888 297.554 59.0342C297.602 59.1634 297.626 59.3249 297.626 59.5187V62.3533C297.626 62.757 297.424 62.9589 297.021 62.9589H290.625C290.269 62.9589 290.027 62.7974 289.898 62.4744L285.997 51.1363H284.18V62.3533C284.18 62.757 283.978 62.9589 283.575 62.9589H277.106ZM286.845 45.2007C288.186 45.2007 289.098 44.9262 289.583 44.377C290.067 43.8117 290.31 42.7619 290.31 41.2276C290.31 39.677 290.067 38.6272 289.583 38.0781C289.098 37.5128 288.186 37.2301 286.845 37.2301C285.521 37.2301 284.608 37.5128 284.108 38.0781C283.607 38.6272 283.357 39.677 283.357 41.2276C283.357 42.7619 283.607 43.8117 284.108 44.377C284.608 44.9262 285.521 45.2007 286.845 45.2007ZM307.711 62.9589C307.339 62.9589 307.016 62.8216 306.742 62.5471L301.896 57.7017C301.622 57.4433 301.484 57.1203 301.484 56.7327V36.8667C301.484 36.4953 301.622 36.1722 301.896 35.8977L306.742 31.0523C307.016 30.7939 307.339 30.6647 307.711 30.6647H317.232C317.619 30.6647 317.942 30.7939 318.201 31.0523L323.046 35.8977C323.321 36.1722 323.458 36.4953 323.458 36.8667V56.7327C323.458 57.1203 323.321 57.4433 323.046 57.7017L318.201 62.5471C317.942 62.8216 317.619 62.9589 317.232 62.9589H307.711ZM310.569 56.4904H314.373C315.051 56.4904 315.39 56.0382 315.39 55.1337V38.4899C315.39 37.5693 315.051 37.109 314.373 37.109H310.569C309.907 37.109 309.576 37.5693 309.576 38.4899V55.1337C309.576 56.0382 309.907 56.4904 310.569 56.4904ZM329.866 62.9589C329.462 62.9589 329.26 62.757 329.26 62.3533V31.2704C329.26 30.8666 329.462 30.6647 329.866 30.6647H343.626C344.014 30.6647 344.337 30.7939 344.595 31.0523L349.441 35.8977C349.715 36.1722 349.853 36.4953 349.853 36.8667V62.3533C349.853 62.757 349.651 62.9589 349.247 62.9589H342.391C341.987 62.9589 341.785 62.757 341.785 62.3533V37.109H337.327V62.3533C337.327 62.757 337.125 62.9589 336.722 62.9589H329.866ZM356.269 62.9589C355.865 62.9589 355.663 62.757 355.663 62.3533V31.2704C355.663 30.8666 355.865 30.6647 356.269 30.6647H373.155C373.559 30.6647 373.761 30.8666 373.761 31.2704V36.5033C373.761 36.9071 373.559 37.109 373.155 37.109H363.731V43.9894H372.331C372.735 43.9894 372.937 44.1913 372.937 44.5951V49.0286C372.937 49.4323 372.735 49.6342 372.331 49.6342H363.731V56.4904H373.155C373.559 56.4904 373.761 56.6923 373.761 57.0961V62.3533C373.761 62.757 373.559 62.9589 373.155 62.9589H356.269Z" fill="#FFF1E9"/>
</svg>
