<svg width="1229" height="279" viewBox="0 0 1229 279" fill="none" xmlns="http://www.w3.org/2000/svg">
<rect x="3.75794" y="40.7006" width="1221.47" height="233.662" fill="#FFF1E9" stroke="black" stroke-width="7.51635"/>
<path d="M356.635 174.032C353.453 174.032 350.988 173.227 349.24 171.619C347.491 170.01 346.617 167.65 346.617 164.538V146.81C346.617 143.698 347.491 141.338 349.24 139.729C350.988 138.121 353.453 137.317 356.635 137.317H363.663V140.778H356.635C355.027 140.778 353.715 141.25 352.701 142.194C351.722 143.104 351.233 144.327 351.233 145.866V165.482C351.233 167.021 351.722 168.262 352.701 169.206C353.715 170.115 355.027 170.57 356.635 170.57H363.663V174.032H356.635ZM373.403 174.032C372.144 174.032 370.973 173.717 369.889 173.088C368.84 172.458 368.001 171.601 367.371 170.517C366.777 169.433 366.48 168.21 366.48 166.846V164.119C366.48 162.475 366.882 161.094 367.686 159.975C368.525 158.856 369.557 158.069 370.781 157.615L377.284 155.202V152.737C377.284 151.898 377.022 151.216 376.498 150.691C376.008 150.132 375.361 149.852 374.557 149.852H368.63V146.758H374.924C376.847 146.758 378.368 147.335 379.487 148.488C380.641 149.607 381.218 151.146 381.218 153.104V174.032H373.403ZM377.284 170.832V158.506L372.669 160.237C371.76 160.587 371.113 161.059 370.728 161.653C370.379 162.248 370.204 163.192 370.204 164.486V167.423C370.204 168.367 370.553 169.171 371.253 169.836C371.952 170.5 372.791 170.832 373.77 170.832H377.284ZM387 146.758H395.497C397.42 146.758 399.046 147.387 400.375 148.646C401.738 149.905 402.42 151.478 402.42 153.366V167.475C402.42 169.364 401.756 170.937 400.427 172.196C399.098 173.42 397.472 174.032 395.549 174.032H391.196V182.424H387V146.758ZM394.658 170.937C395.637 170.937 396.476 170.605 397.175 169.941C397.875 169.276 398.224 168.454 398.224 167.475V153.366C398.224 152.387 397.875 151.566 397.175 150.901C396.476 150.237 395.637 149.905 394.658 149.905H391.196V170.937H394.658ZM407.386 142.299V138.103H411.582V142.299H407.386ZM407.386 174.032V146.758H411.582V174.032H407.386ZM423.656 174.032C421.732 174.032 420.194 173.455 419.04 172.301C417.921 171.147 417.362 169.591 417.362 167.633V153.681C417.362 151.478 417.939 149.782 419.092 148.593C420.246 147.37 421.925 146.758 424.128 146.758H429.95V149.905H424.233C423.428 149.905 422.781 150.184 422.292 150.744C421.802 151.268 421.558 151.95 421.558 152.789V168C421.558 168.839 421.802 169.538 422.292 170.098C422.816 170.622 423.481 170.885 424.285 170.885H429.95V174.032H423.656ZM433.611 137.317H437.807V148.174L440.115 147.492C441.548 147.072 442.597 146.793 443.262 146.653C443.961 146.478 444.678 146.39 445.412 146.39C446.671 146.39 447.597 146.828 448.192 147.702C448.786 148.576 449.084 149.712 449.084 151.111V174.032H444.888V152.475C444.888 151.461 444.818 150.761 444.678 150.377C444.538 149.957 444.188 149.747 443.629 149.747C443.349 149.747 441.408 150.307 437.807 151.426V174.032H433.611V137.317ZM460.886 174.032C458.962 174.032 457.424 173.455 456.27 172.301C455.151 171.147 454.592 169.591 454.592 167.633V153.681C454.592 151.408 455.221 149.625 456.48 148.331C457.739 147.037 459.609 146.39 462.092 146.39C464.575 146.39 466.428 147.037 467.652 148.331C468.91 149.625 469.54 151.408 469.54 153.681V156.094C469.54 157.562 469.12 158.681 468.281 159.451C467.442 160.185 466.34 160.744 464.977 161.129L458.788 162.86V168C458.788 168.839 459.032 169.538 459.522 170.098C460.046 170.622 460.711 170.885 461.515 170.885H467.18V174.032H460.886ZM461.987 158.664C463.141 158.349 463.91 158.122 464.295 157.982C464.714 157.807 464.994 157.562 465.134 157.248C465.274 156.933 465.344 156.408 465.344 155.674V152.789C465.344 151.67 465.047 150.849 464.452 150.324C463.893 149.8 463.106 149.537 462.092 149.537C461.113 149.537 460.309 149.817 459.679 150.377C459.085 150.936 458.788 151.74 458.788 152.789V159.555L461.987 158.664ZM487.374 161.863C487.374 159.87 487.776 158.192 488.58 156.828C489.385 155.464 490.539 154.013 492.042 152.475C493.336 151.111 494.28 149.957 494.874 149.013C495.469 148.069 495.766 146.95 495.766 145.656C495.766 144.153 495.294 142.964 494.35 142.09C493.406 141.215 491.937 140.778 489.944 140.778H485.014V137.317H490.941C493.773 137.317 495.993 138.033 497.602 139.467C499.21 140.866 500.015 142.789 500.015 145.237C500.015 147.055 499.647 148.576 498.913 149.8C498.179 151.024 497.077 152.387 495.609 153.891C494.28 155.255 493.266 156.496 492.567 157.615C491.902 158.699 491.57 160.027 491.57 161.601V164.905H487.374V161.863ZM487.374 174.032V169.311H491.57V174.032H487.374ZM514.49 174.032L522.777 137.317H529.753L537.726 174.032H533.425L530.855 163.227H521.309L518.949 174.032H514.49ZM522.096 159.66H530.068L526.292 140.778H525.924L522.096 159.66ZM541.995 174.032V137.317H546.191V174.032H541.995ZM552.495 174.032V137.317H556.691V174.032H552.495ZM568.398 174.032C566.475 174.032 564.936 173.455 563.782 172.301C562.663 171.147 562.104 169.591 562.104 167.633V153.681C562.104 151.408 562.733 149.625 563.992 148.331C565.251 147.037 567.122 146.39 569.604 146.39C572.087 146.39 573.94 147.037 575.164 148.331C576.423 149.625 577.052 151.408 577.052 153.681V156.094C577.052 157.562 576.633 158.681 575.793 159.451C574.954 160.185 573.853 160.744 572.489 161.129L566.3 162.86V168C566.3 168.839 566.545 169.538 567.034 170.098C567.559 170.622 568.223 170.885 569.027 170.885H574.692V174.032H568.398ZM569.499 158.664C570.653 158.349 571.423 158.122 571.807 157.982C572.227 157.807 572.506 157.562 572.646 157.248C572.786 156.933 572.856 156.408 572.856 155.674V152.789C572.856 151.67 572.559 150.849 571.964 150.324C571.405 149.8 570.618 149.537 569.604 149.537C568.625 149.537 567.821 149.817 567.192 150.377C566.597 150.936 566.3 151.74 566.3 152.789V159.555L569.499 158.664ZM579.655 174.032V170.885L588.939 149.905H579.865V146.758H593.397V149.852L583.746 170.885H593.345V174.032H579.655ZM611.226 174.032C609.303 174.032 607.764 173.455 606.61 172.301C605.491 171.147 604.932 169.591 604.932 167.633V153.681C604.932 151.478 605.509 149.782 606.663 148.593C607.817 147.37 609.495 146.758 611.698 146.758H617.52V149.905H611.803C610.999 149.905 610.352 150.184 609.862 150.744C609.373 151.268 609.128 151.95 609.128 152.789V168C609.128 168.839 609.373 169.538 609.862 170.098C610.387 170.622 611.051 170.885 611.855 170.885H617.52V174.032H611.226ZM619.45 147.282L619.87 137.317H624.328L623.646 147.282H619.45ZM634.114 174.032C632.191 174.032 630.652 173.455 629.498 172.301C628.38 171.147 627.82 169.591 627.82 167.633V153.681C627.82 151.408 628.449 149.625 629.708 148.331C630.967 147.037 632.838 146.39 635.32 146.39C637.803 146.39 639.656 147.037 640.88 148.331C642.139 149.625 642.768 151.408 642.768 153.681V156.094C642.768 157.562 642.349 158.681 641.51 159.451C640.67 160.185 639.569 160.744 638.205 161.129L632.016 162.86V168C632.016 168.839 632.261 169.538 632.75 170.098C633.275 170.622 633.939 170.885 634.743 170.885H640.408V174.032H634.114ZM635.216 158.664C636.369 158.349 637.139 158.122 637.523 157.982C637.943 157.807 638.223 157.562 638.363 157.248C638.502 156.933 638.572 156.408 638.572 155.674V152.789C638.572 151.67 638.275 150.849 637.681 150.324C637.121 149.8 636.334 149.537 635.32 149.537C634.341 149.537 633.537 149.817 632.908 150.377C632.313 150.936 632.016 151.74 632.016 152.789V159.555L635.216 158.664ZM645.372 170.885H649.83C651.333 170.885 652.417 170.482 653.082 169.678C653.781 168.839 654.131 167.755 654.131 166.426C654.131 165.377 653.816 164.486 653.187 163.751C652.557 163.017 651.613 162.16 650.354 161.181C649.27 160.307 648.396 159.555 647.732 158.926C647.102 158.262 646.543 157.457 646.053 156.513C645.599 155.534 645.372 154.415 645.372 153.157C645.372 151.303 645.983 149.782 647.207 148.593C648.466 147.37 650.145 146.758 652.243 146.758H656.806V149.905H653.029C650.547 149.905 649.305 151.076 649.305 153.419C649.305 154.328 649.585 155.115 650.145 155.779C650.704 156.443 651.578 157.23 652.767 158.139C653.851 158.978 654.743 159.748 655.442 160.447C656.141 161.111 656.736 161.968 657.225 163.017C657.715 164.031 657.96 165.237 657.96 166.636C657.96 169.119 657.295 170.972 655.966 172.196C654.673 173.42 652.837 174.032 650.459 174.032H645.372V170.885ZM670.275 174.032C668.352 174.032 666.831 173.455 665.712 172.301C664.593 171.147 664.033 169.591 664.033 167.633V149.905H660.886V146.758H664.033V138.838L668.229 137.264V146.758H672.425V149.905H668.229V168C668.229 168.839 668.457 169.538 668.911 170.098C669.401 170.622 670.048 170.885 670.852 170.885H672.425V174.032H670.275ZM684.49 146.758H692.987C694.91 146.758 696.536 147.387 697.865 148.646C699.228 149.905 699.91 151.478 699.91 153.366V167.475C699.91 169.364 699.246 170.937 697.917 172.196C696.588 173.42 694.962 174.032 693.039 174.032H688.686V182.424H684.49V146.758ZM692.148 170.937C693.127 170.937 693.966 170.605 694.665 169.941C695.364 169.276 695.714 168.454 695.714 167.475V153.366C695.714 152.387 695.364 151.566 694.665 150.901C693.966 150.237 693.127 149.905 692.148 149.905H688.686V170.937H692.148ZM710.435 174.032C709.177 174.032 708.005 173.717 706.921 173.088C705.872 172.458 705.033 171.601 704.404 170.517C703.809 169.433 703.512 168.21 703.512 166.846V164.119C703.512 162.475 703.914 161.094 704.718 159.975C705.558 158.856 706.589 158.069 707.813 157.615L714.317 155.202V152.737C714.317 151.898 714.054 151.216 713.53 150.691C713.04 150.132 712.394 149.852 711.589 149.852H705.662V146.758H711.956C713.88 146.758 715.401 147.335 716.52 148.488C717.673 149.607 718.25 151.146 718.25 153.104V174.032H710.435ZM714.317 170.832V158.506L709.701 160.237C708.792 160.587 708.145 161.059 707.76 161.653C707.411 162.248 707.236 163.192 707.236 164.486V167.423C707.236 168.367 707.586 169.171 708.285 169.836C708.984 170.5 709.823 170.832 710.803 170.832H714.317ZM724.032 146.758H727.284L727.756 148.698L729.067 148.069C730.186 147.509 731.113 147.09 731.847 146.81C732.617 146.53 733.386 146.39 734.155 146.39V149.485C733.701 149.485 733.089 149.625 732.319 149.905C731.55 150.149 730.186 150.744 728.228 151.688V174.032H724.032V146.758ZM745.672 174.032C743.749 174.032 742.228 173.455 741.109 172.301C739.99 171.147 739.43 169.591 739.43 167.633V149.905H736.283V146.758H739.43V138.838L743.626 137.264V146.758H747.822V149.905H743.626V168C743.626 168.839 743.854 169.538 744.308 170.098C744.798 170.622 745.445 170.885 746.249 170.885H747.822V174.032H745.672ZM751.999 142.299V138.103H756.195V142.299H751.999ZM751.999 174.032V146.758H756.195V174.032H751.999ZM761.502 174.032V168.629H765.698V174.032H761.502Z" fill="#1E1E1E"/>
<rect x="99.5527" width="313.669" height="88.9178" fill="black"/>
<path d="M152.14 62.9589C151.736 62.9589 151.534 62.757 151.534 62.3533V31.2704C151.534 30.8666 151.736 30.6647 152.14 30.6647H168.735C169.139 30.6647 169.341 30.8666 169.341 31.2704V36.5033C169.341 36.9071 169.139 37.109 168.735 37.109H159.602V45.2007H167.524C167.928 45.2007 168.129 45.4026 168.129 45.8064V51.0394C168.129 51.4432 167.928 51.645 167.524 51.645H159.602V62.3533C159.602 62.757 159.4 62.9589 158.996 62.9589H152.14ZM179.432 62.9589C179.061 62.9589 178.737 62.8216 178.463 62.5471L173.618 57.7017C173.343 57.4433 173.206 57.1203 173.206 56.7327V36.8667C173.206 36.4953 173.343 36.1722 173.618 35.8977L178.463 31.0523C178.737 30.7939 179.061 30.6647 179.432 30.6647H188.953C189.341 30.6647 189.664 30.7939 189.922 31.0523L194.768 35.8977C195.042 36.1722 195.179 36.4953 195.179 36.8667V56.7327C195.179 57.1203 195.042 57.4433 194.768 57.7017L189.922 62.5471C189.664 62.8216 189.341 62.9589 188.953 62.9589H179.432ZM182.291 56.4904H186.094C186.773 56.4904 187.112 56.0382 187.112 55.1337V38.4899C187.112 37.5693 186.773 37.109 186.094 37.109H182.291C181.629 37.109 181.297 37.5693 181.297 38.4899V55.1337C181.297 56.0382 181.629 56.4904 182.291 56.4904ZM201.587 62.9589C201.183 62.9589 200.981 62.757 200.981 62.3533V31.2704C200.981 30.8666 201.183 30.6647 201.587 30.6647H214.718C215.105 30.6647 215.428 30.7697 215.687 30.9796L221.259 36.5033C221.437 36.6649 221.542 36.8021 221.574 36.9152C221.622 37.0283 221.647 37.214 221.647 37.4724V44.1105C221.647 44.3205 221.566 44.5062 221.404 44.6677L218.739 47.26L216.486 49.1981L219.151 52.7352L221.889 58.5981C221.954 58.7435 222.002 58.8888 222.034 59.0342C222.083 59.1634 222.107 59.3249 222.107 59.5187V62.3533C222.107 62.757 221.905 62.9589 221.501 62.9589H215.105C214.75 62.9589 214.508 62.7974 214.379 62.4744L210.478 51.1363H208.661V62.3533C208.661 62.757 208.459 62.9589 208.055 62.9589H201.587ZM211.326 45.2007C212.667 45.2007 213.579 44.9262 214.064 44.377C214.548 43.8117 214.791 42.7619 214.791 41.2276C214.791 39.677 214.548 38.6272 214.064 38.0781C213.579 37.5128 212.667 37.2301 211.326 37.2301C210.002 37.2301 209.089 37.5128 208.588 38.0781C208.088 38.6272 207.837 39.677 207.837 41.2276C207.837 42.7619 208.088 43.8117 208.588 44.377C209.089 44.9262 210.002 45.2007 211.326 45.2007ZM232.191 62.9589C231.804 62.9589 231.481 62.8216 231.222 62.5471L226.377 57.7017C226.102 57.4433 225.965 57.1203 225.965 56.7327V36.8667C225.965 36.4953 226.102 36.1722 226.377 35.8977L231.222 31.0523C231.481 30.7939 231.804 30.6647 232.191 30.6647H246.509C246.913 30.6647 247.115 30.8666 247.115 31.2704V36.5033C247.115 36.9071 246.913 37.109 246.509 37.109H234.856C234.63 37.109 234.436 37.1898 234.275 37.3513C234.113 37.5128 234.033 37.7066 234.033 37.9327V55.6425C234.033 55.8686 234.113 56.0624 234.275 56.2239C234.436 56.3854 234.63 56.4662 234.856 56.4662H240.089V49.9976H236.988C236.584 49.9976 236.383 49.7957 236.383 49.392V44.1832C236.383 43.7794 236.584 43.5775 236.988 43.5775H246.921C247.325 43.5775 247.527 43.7794 247.527 44.1832V56.7327C247.527 57.1203 247.39 57.4433 247.115 57.7017L242.27 62.5471C242.011 62.8216 241.688 62.9589 241.301 62.9589H232.191ZM253.211 62.9589C252.807 62.9589 252.605 62.757 252.605 62.3533V31.2704C252.605 30.8666 252.807 30.6647 253.211 30.6647H270.097C270.5 30.6647 270.702 30.8666 270.702 31.2704V36.5033C270.702 36.9071 270.5 37.109 270.097 37.109H260.673V43.9894H269.273C269.677 43.9894 269.879 44.1913 269.879 44.5951V49.0286C269.879 49.4323 269.677 49.6342 269.273 49.6342H260.673V56.4904H270.097C270.5 56.4904 270.702 56.6923 270.702 57.0961V62.3533C270.702 62.757 270.5 62.9589 270.097 62.9589H253.211ZM277.106 62.9589C276.702 62.9589 276.501 62.757 276.501 62.3533V31.2704C276.501 30.8666 276.702 30.6647 277.106 30.6647H290.237C290.625 30.6647 290.948 30.7697 291.206 30.9796L296.778 36.5033C296.956 36.6649 297.061 36.8021 297.093 36.9152C297.142 37.0283 297.166 37.214 297.166 37.4724V44.1105C297.166 44.3205 297.085 44.5062 296.924 44.6677L294.259 47.26L292.006 49.1981L294.671 52.7352L297.408 58.5981C297.473 58.7435 297.521 58.8888 297.554 59.0342C297.602 59.1634 297.626 59.3249 297.626 59.5187V62.3533C297.626 62.757 297.424 62.9589 297.021 62.9589H290.625C290.269 62.9589 290.027 62.7974 289.898 62.4744L285.997 51.1363H284.18V62.3533C284.18 62.757 283.978 62.9589 283.575 62.9589H277.106ZM286.845 45.2007C288.186 45.2007 289.098 44.9262 289.583 44.377C290.067 43.8117 290.31 42.7619 290.31 41.2276C290.31 39.677 290.067 38.6272 289.583 38.0781C289.098 37.5128 288.186 37.2301 286.845 37.2301C285.521 37.2301 284.608 37.5128 284.108 38.0781C283.607 38.6272 283.357 39.677 283.357 41.2276C283.357 42.7619 283.607 43.8117 284.108 44.377C284.608 44.9262 285.521 45.2007 286.845 45.2007ZM307.711 62.9589C307.339 62.9589 307.016 62.8216 306.742 62.5471L301.896 57.7017C301.622 57.4433 301.484 57.1203 301.484 56.7327V36.8667C301.484 36.4953 301.622 36.1722 301.896 35.8977L306.742 31.0523C307.016 30.7939 307.339 30.6647 307.711 30.6647H317.232C317.619 30.6647 317.942 30.7939 318.201 31.0523L323.046 35.8977C323.321 36.1722 323.458 36.4953 323.458 36.8667V56.7327C323.458 57.1203 323.321 57.4433 323.046 57.7017L318.201 62.5471C317.942 62.8216 317.619 62.9589 317.232 62.9589H307.711ZM310.569 56.4904H314.373C315.051 56.4904 315.39 56.0382 315.39 55.1337V38.4899C315.39 37.5693 315.051 37.109 314.373 37.109H310.569C309.907 37.109 309.576 37.5693 309.576 38.4899V55.1337C309.576 56.0382 309.907 56.4904 310.569 56.4904ZM329.866 62.9589C329.462 62.9589 329.26 62.757 329.26 62.3533V31.2704C329.26 30.8666 329.462 30.6647 329.866 30.6647H343.626C344.014 30.6647 344.337 30.7939 344.595 31.0523L349.441 35.8977C349.715 36.1722 349.853 36.4953 349.853 36.8667V62.3533C349.853 62.757 349.651 62.9589 349.247 62.9589H342.391C341.987 62.9589 341.785 62.757 341.785 62.3533V37.109H337.327V62.3533C337.327 62.757 337.125 62.9589 336.722 62.9589H329.866ZM356.269 62.9589C355.865 62.9589 355.663 62.757 355.663 62.3533V31.2704C355.663 30.8666 355.865 30.6647 356.269 30.6647H373.155C373.559 30.6647 373.761 30.8666 373.761 31.2704V36.5033C373.761 36.9071 373.559 37.109 373.155 37.109H363.731V43.9894H372.331C372.735 43.9894 372.937 44.1913 372.937 44.5951V49.0286C372.937 49.4323 372.735 49.6342 372.331 49.6342H363.731V56.4904H373.155C373.559 56.4904 373.761 56.6923 373.761 57.0961V62.3533C373.761 62.757 373.559 62.9589 373.155 62.9589H356.269Z" fill="#FFF1E9"/>
</svg>
